<?xml version="1.0" encoding="UTF-8" standalone="no"?><!DOCTYPE svg PUBLIC "-//W3C//DTD SVG 1.1//EN" "http://www.w3.org/Graphics/SVG/1.1/DTD/svg11.dtd"><svg width="100%" height="100%" viewBox="0 0 153 108" version="1.1" xmlns="http://www.w3.org/2000/svg" xmlns:xlink="http://www.w3.org/1999/xlink" xml:space="preserve" xmlns:serif="http://www.serif.com/" style="fill-rule:evenodd;clip-rule:evenodd;stroke-linejoin:round;stroke-miterlimit:2;"><path d="M25.343,54.828c0.585,-0.009 1.807,0.243 2.569,0.343c7.211,0.949 11.013,1.166 18.931,2.89c3.648,0.797 7.096,1.576 10.785,2.366c2.381,0.509 9.167,2.366 10.805,1.976c-0.646,-1.012 -4.128,-1.636 -5.244,-1.909c-8.855,-2.167 -18.353,-4.633 -27.293,-5.597c-2.372,-0.256 -9.338,-1.146 -10.844,-0.341l0.291,0.272Z" style="fill:#95c5e7;"/><path d="M49.01,38.587c-1.465,-1.098 -3.732,-1.595 -5.495,-2.179c-1.824,-0.6 -3.669,-1.247 -5.48,-1.758c-3.706,-1.048 -7.211,-2.311 -10.957,-3.321c-7.429,-2 -15.219,-3.963 -21.799,-4.384c0.038,0.267 -0.335,0.524 1.081,0.82l4.096,0.88c10.275,1.928 22.665,5.909 32.958,8.889c1.296,0.373 4.532,1.488 5.596,1.053" style="fill:#95c5e7;"/><path d="M109.681,65.071c1.229,-0.665 0.264,-2.487 -0.177,-5.042c-1.101,-6.413 -2.493,-14.836 -3.168,-21.157c-0.192,-1.798 -1.565,-14.85 -2.087,-15.856c-0.915,1.66 1.006,17.664 1.442,21.058c0.306,2.376 2.626,19.722 3.99,20.997" style="fill:#95c5e7;"/><path d="M75.964,39.451c0.056,-0.403 0.065,-0.057 0.008,-0.455c-0.034,-0.235 -0.08,-0.356 -0.158,-0.558l-1.595,-3.206c-2.349,-4.369 -4.393,-8.2 -6.505,-12.726l-5.705,-12.617c-0.619,-1.482 -1.104,-3.076 -2.06,-4.397c-0.771,1.143 0.136,2.634 0.754,4.317c0.56,1.523 1.062,2.784 1.707,4.296c2.312,5.414 10.251,22.396 13.554,25.346" style="fill:#95c5e7;"/><path d="M104.754,91.677c-0.961,-0.978 -7.104,-1.453 -8.425,-1.575c-3.561,-0.327 -9.197,-0.88 -12.624,-0.788c-0.761,0.019 -1.283,-0.121 -2.039,-0.08c-2.424,0.123 -9.08,-0.199 -10.76,0.855c1.399,0.723 9.972,0.261 12.708,0.527l8.414,0.434c1.563,0.094 2.646,0.159 4.209,0.299c1.398,0.126 2.888,0.276 4.216,0.364c1.451,0.095 3.399,0.668 4.301,-0.036" style="fill:#95c5e7;"/><path d="M53.221,80.46c0.199,-0.216 0.533,-0.226 0.749,-0.029c0.213,0.203 0.226,0.539 0.025,0.754c-0.201,0.214 -0.535,0.226 -0.746,0.027c-0.216,-0.203 -0.227,-0.539 -0.028,-0.752m-0.802,-5.065c0.899,-0.97 2.41,-1.023 3.375,-0.12c0.967,0.906 1.018,2.426 0.121,3.397c-0.902,0.971 -2.412,1.023 -3.378,0.118c-0.963,-0.903 -1.015,-2.424 -0.118,-3.395m-50.706,-48.861c-0.014,-0.369 0.676,-0.611 1.868,-0.744c1.618,-0.181 3.953,-0.042 6.738,0.354c11.204,1.594 29.3,7.257 37.326,12.822c-7.871,0.088 -33.082,-0.409 -43.973,-9.933c-1.333,-1.166 -1.942,-1.982 -1.959,-2.499m65.53,63.94c-0.039,-0.459 0.509,-0.918 1.491,-1.354c1.25,-0.557 3.089,-0.982 5.308,-1.269c8.747,-1.133 22.927,-0.075 29.947,3.374c-5.628,2.097 -24.137,8.151 -34.589,1.467c-1.445,-0.925 -2.111,-1.657 -2.157,-2.218m-31.15,-82.203c0.398,-0.429 1.072,-0.452 1.499,-0.05c0.429,0.402 0.452,1.076 0.052,1.507c-0.399,0.433 -1.071,0.456 -1.5,0.054c-0.426,-0.404 -0.453,-1.08 -0.051,-1.511m-4.596,5.634c0.199,-0.216 0.533,-0.226 0.746,-0.027c0.214,0.201 0.225,0.537 0.027,0.75c-0.199,0.216 -0.532,0.228 -0.746,0.027c-0.216,-0.201 -0.226,-0.535 -0.027,-0.75m4.701,-2.376c0.214,0.199 0.224,0.535 0.027,0.75c-0.199,0.216 -0.533,0.228 -0.746,0.025c-0.216,-0.199 -0.228,-0.535 -0.027,-0.75c0.199,-0.216 0.533,-0.228 0.746,-0.025m-5.504,-2.689c0.901,-0.971 2.412,-1.025 3.377,-0.118c0.963,0.904 1.016,2.424 0.119,3.395c-0.899,0.971 -2.41,1.023 -3.375,0.118c-0.965,-0.905 -1.018,-2.424 -0.121,-3.395m26.482,69.267c0.199,-0.214 0.533,-0.224 0.747,-0.023c0.213,0.199 0.226,0.536 0.025,0.75c-0.199,0.216 -0.533,0.228 -0.747,0.025c-0.213,-0.197 -0.226,-0.535 -0.025,-0.752m0.692,-1.77c-0.427,-0.402 -0.45,-1.08 -0.05,-1.511c0.397,-0.431 1.069,-0.452 1.499,-0.052c0.429,0.402 0.452,1.078 0.052,1.511c-0.398,0.431 -1.07,0.454 -1.501,0.052m-28.919,-23.817c11.675,0.426 30.565,4.518 38.892,9.732c-7.63,1.041 -33.962,3.823 -45.797,-5.506c-1.473,-1.16 -2.142,-2.013 -2.159,-2.601c-0.017,-0.511 0.739,-0.914 2.063,-1.221c1.681,-0.389 4.108,-0.51 7.001,-0.404m55.007,-17.885c0.197,-0.215 0.531,-0.228 0.745,-0.025c0.215,0.197 0.224,0.535 0.027,0.751c-0.199,0.215 -0.533,0.228 -0.749,0.025c-0.211,-0.199 -0.222,-0.537 -0.023,-0.751m43.662,33.42c0.401,-0.431 1.069,-0.454 1.501,-0.053c0.429,0.402 0.452,1.078 0.05,1.511c-0.396,0.431 -1.068,0.454 -1.497,0.052c-0.429,-0.401 -0.452,-1.077 -0.054,-1.51m-0.642,3.282c0.201,-0.213 0.535,-0.226 0.747,-0.027c0.215,0.201 0.226,0.539 0.027,0.753c-0.199,0.215 -0.533,0.228 -0.746,0.027c-0.214,-0.199 -0.225,-0.537 -0.028,-0.753m-3.953,2.351c0.199,-0.217 0.533,-0.228 0.745,-0.027c0.217,0.199 0.228,0.537 0.027,0.753c-0.197,0.213 -0.533,0.226 -0.744,0.027c-0.214,-0.203 -0.227,-0.539 -0.028,-0.753m-35.114,-41.404c0.199,-0.213 0.533,-0.226 0.747,-0.025c0.211,0.201 0.224,0.537 0.025,0.753c-0.197,0.213 -0.533,0.226 -0.747,0.025c-0.213,-0.201 -0.226,-0.535 -0.025,-0.753m-4.755,-2.711c0.897,-0.973 2.41,-1.027 3.373,-0.12c0.965,0.905 1.018,2.426 0.12,3.397c-0.901,0.969 -2.412,1.023 -3.377,0.118c-0.963,-0.905 -1.016,-2.426 -0.116,-3.395m39.069,39.051c0.897,-0.971 2.408,-1.023 3.375,-0.12c0.963,0.905 1.016,2.424 0.117,3.397c-0.9,0.97 -2.408,1.023 -3.375,0.118c-0.964,-0.904 -1.016,-2.426 -0.117,-3.395m-12.334,-5.616c-4.522,-7.251 -7.436,-23.739 -7.28,-34.121c0.039,-2.597 0.272,-4.789 0.72,-6.327c0.362,-1.238 0.809,-1.971 1.341,-1.997c0.556,-0.026 1.341,0.542 2.391,1.846c8.326,10.34 4.237,33.819 2.828,40.599m-21.286,-32.493c-0.427,-0.404 -0.451,-1.08 -0.055,-1.511c0.4,-0.431 1.072,-0.456 1.501,-0.054c0.428,0.404 0.453,1.079 0.053,1.51c-0.4,0.433 -1.072,0.455 -1.499,0.055m-10.885,9.529c-0.077,-1.799 -1.547,-30.527 -15.268,-38.791c-2.065,-1.245 -3.613,-1.514 -4.71,-1.02c-1.251,0.563 -1.797,1.983 -1.767,3.996c0.027,1.732 0.478,3.979 1.253,6.512c3.144,10.266 11.762,25.559 18.91,29.998c0.427,1.474 2.331,7.574 6.235,13.777c-5.753,-4.488 -11.305,-7.726 -16.127,-10.046c-16.703,-10.223 -24.208,-23.073 -25.811,-26.097c0.576,-0.434 1.104,-0.933 1.564,-1.486c1.068,-1.282 1.775,-2.847 1.91,-4.481c0.218,-2.682 -1.079,-5.501 -4.796,-7.52c-0.054,-0.03 -0.108,-0.054 -0.167,-0.072c-2.577,-0.821 -4.848,-0.658 -6.673,0.126c-1.423,0.613 -2.57,1.606 -3.373,2.806c-0.804,1.199 -1.26,2.606 -1.311,4.051c-0.062,1.803 0.507,3.662 1.825,5.246c2.549,3.057 5.763,3.575 8.532,2.648c0.35,-0.119 0.691,-0.261 1.023,-0.421c1.518,2.832 7.354,12.696 19.468,21.936c-4.251,-1.508 -7.168,-2.095 -7.984,-2.245c-7.089,-6.15 -27.597,-12.773 -39.889,-14.522c-2.932,-0.416 -5.416,-0.561 -7.176,-0.364c-2.184,0.245 -3.434,1.044 -3.385,2.515c0.032,0.998 0.821,2.238 2.545,3.742c13.117,11.473 45.574,10.379 47.468,10.305c0.77,0.132 6.881,1.263 15.34,5.309l0.044,0.028c0.064,0.04 0.132,0.067 0.197,0.089c6.395,3.083 14.097,7.82 21.843,15.032c0.024,0.025 0.052,0.052 0.082,0.075c2.241,2.094 4.488,4.396 6.706,6.924l0.12,0.133c-9.963,-5.195 -21.997,-6.16 -23.935,-6.283c-7.576,-5.909 -28.707,-10.685 -41.4,-11.148c-3.045,-0.111 -5.627,0.023 -7.451,0.445c-2.189,0.505 -3.439,1.467 -3.388,2.958c0.034,1.108 0.907,2.409 2.811,3.909c14.093,11.108 47.231,5.864 49.152,5.548c1.333,0.074 17.961,1.172 28.279,9.18c1.616,1.814 3.203,3.571 4.763,5.269c-19.751,-8.288 -36.101,-4.396 -39.065,-3.57c-0.766,-1.265 -2.007,-2.45 -3.832,-3.439c-0.052,-0.032 -0.106,-0.055 -0.165,-0.075c-2.575,-0.818 -4.848,-0.654 -6.673,0.13c-1.423,0.611 -2.568,1.604 -3.373,2.802c-0.804,1.201 -1.26,2.609 -1.311,4.053c-0.062,1.803 0.507,3.66 1.828,5.249c2.546,3.057 5.76,3.574 8.529,2.646c1.573,-0.528 2.994,-1.532 4.051,-2.802c1.07,-1.284 1.775,-2.848 1.91,-4.483c0.069,-0.826 -0.009,-1.664 -0.254,-2.485c3.603,-0.966 21.003,-4.771 41.412,5.266c4.524,4.79 8.849,9.034 13.116,12.631c-6.602,-2.634 -11.96,-3.366 -13.064,-3.495c-6.691,-4.254 -22.829,-5.645 -32.467,-4.397c-2.367,0.307 -4.373,0.779 -5.784,1.407c-1.68,0.75 -2.607,1.772 -2.499,3.077c0.093,1.103 1.002,2.285 2.94,3.523c12.51,8.002 35.303,-0.944 37.64,-1.895c1.544,0.181 11.3,1.535 21.081,7.664c0.272,0.178 0.544,0.352 0.814,0.524l0.064,0.04l0.05,0.03c7.442,4.662 14.99,7.142 23.374,6.929c0.474,-0.013 0.845,-0.407 0.833,-0.885c-0.014,-0.477 -0.405,-0.853 -0.879,-0.839c-4.38,0.111 -8.524,-0.552 -12.555,-1.907c-11.689,-5.931 -10.749,-20.569 -10.399,-23.724c0.267,-0.06 0.533,-0.136 0.794,-0.223c1.573,-0.53 2.995,-1.532 4.052,-2.804c1.072,-1.282 1.779,-2.846 1.912,-4.481c0.216,-2.682 -1.077,-5.502 -4.798,-7.52c-0.05,-0.03 -0.106,-0.054 -0.166,-0.073c-2.575,-0.82 -4.846,-0.658 -6.67,0.127c-1.424,0.612 -2.568,1.605 -3.375,2.806c-0.801,1.2 -1.26,2.606 -1.31,4.051c-0.062,1.802 0.505,3.662 1.826,5.246c1.794,2.158 3.925,3.049 5.99,3.063c-0.309,3.308 -0.679,13.638 5.694,20.742c-1.146,-0.605 -2.288,-1.266 -3.425,-1.976l-0.006,-0.006c-0.326,-0.214 -0.65,-0.42 -0.978,-0.626c-1.338,-0.874 -2.678,-1.823 -4.021,-2.842c-1.412,-1.071 -2.828,-2.22 -4.253,-3.442c-9.045,-8.337 -8.646,-25.58 -8.6,-26.925c0.394,-1.659 7.265,-31.412 -2.775,-43.878c-1.426,-1.77 -2.694,-2.53 -3.804,-2.478c-1.37,0.065 -2.319,1.247 -2.898,3.23c-0.495,1.692 -0.747,4.043 -0.789,6.791c-0.171,11.328 3.293,29.823 8.546,36.513c-0.044,1.97 -0.066,12.453 4.135,21.062c-2.021,-1.974 -4.077,-4.078 -6.173,-6.301c-0.028,-0.035 -0.056,-0.064 -0.087,-0.094c-1.91,-2.026 -3.854,-4.147 -5.844,-6.361c0.033,-0.266 -0.063,-0.545 -0.272,-0.738c-0.518,-0.476 -1.057,-0.932 -1.615,-1.37l-1.462,-1.648l-0.048,-0.058c-7.305,-8.092 -6.257,-28.258 -6.255,-28.316c0.012,-0.297 -0.121,-0.565 -0.339,-0.73c0.975,-0.55 1.853,-1.285 2.566,-2.141c1.07,-1.283 1.775,-2.849 1.908,-4.483c0.22,-2.681 -1.077,-5.499 -4.794,-7.518c-0.052,-0.03 -0.108,-0.056 -0.165,-0.076c-2.578,-0.819 -4.85,-0.654 -6.673,0.13c-1.423,0.613 -2.57,1.604 -3.373,2.806c-0.803,1.197 -1.262,2.604 -1.311,4.051c-0.062,1.803 0.505,3.66 1.824,5.247c2.55,3.057 5.762,3.574 8.531,2.645l0.115,-0.038l-0.002,0.022c-0.002,0.049 -0.67,12.948 2.82,22.656c-1.415,-1.491 -2.837,-2.898 -4.258,-4.222c-7.48,-7.835 -10.641,-18.724 -10.955,-19.856m-19.277,-38.238c0.578,-0.261 1.589,0 3.127,0.926c11.416,6.877 13.865,29.344 14.339,35.754c-6.577,-5.036 -14.153,-18.807 -17.045,-28.251c-0.729,-2.377 -1.15,-4.462 -1.173,-6.034c-0.02,-1.292 0.212,-2.151 0.752,-2.395" style="fill:#95c5e7;"/><path d="M67.66,24.179c-0.238,-0.092 -1.686,-1.174 -2,-1.408c-1.307,-0.973 -2.846,-2.227 -3.879,-3.504c-0.431,-0.534 -1.009,-1.679 -1.318,-1.852c-0.234,0.155 -0.1,0.419 -0.035,0.63c0.051,0.17 0.199,0.477 0.288,0.645c1.322,2.483 4.944,5.151 7.386,6.522c0.52,0.293 0.768,0.432 1.307,0.619c-0.169,0.303 -0.129,1.458 -0.092,1.776c0.052,0.404 0.334,1.494 0.994,1.624c0.21,-0.396 -0.349,-0.624 -0.385,-2.047c-0.017,-0.652 0.131,-1.34 0.352,-2.069c0.223,-0.736 0.447,-1.367 0.721,-2.082c0.116,-0.296 0.608,-1.523 0.553,-1.829c-0.048,-0.25 -0.14,-0.163 -0.166,-0.163c-0.297,0.037 -0.576,0.827 -0.688,1.068c-0.231,0.501 -1.262,2.931 -1.229,3.353l-1.542,-1.087c0.064,-0.108 0.16,-0.032 0.057,-0.364l-0.275,-0.832c-0.132,-0.475 -0.025,-1.506 0.034,-2.058c0.032,-0.296 0.092,-0.535 0.132,-0.843c0.021,-0.177 0.052,-0.251 0.084,-0.409l0.513,-2.072c0.375,-1.142 0.664,-2.162 1.085,-3.373c0.205,-0.579 0.396,-1.127 0.594,-1.669c0.103,-0.285 0.192,-0.553 0.289,-0.852c0.138,-0.448 0.173,-0.626 -0.028,-0.8c-0.432,0.275 -0.709,1.18 -0.893,1.61c-0.226,0.536 -0.453,1.116 -0.644,1.642c-0.266,0.743 -0.921,2.596 -1.085,3.308c-0.275,1.179 -0.755,2.91 -0.743,4.139c0.007,0.524 0.009,1.118 0.21,1.611c0.158,0.395 0.361,0.661 0.403,0.766" style="fill:#95c5e7;"/><path d="M24.173,30.667c-0.681,-0.555 -0.449,-0.266 -1.294,-1.058c-0.677,-0.634 -1.707,-1.797 -2.486,-2.19c-0.207,-0.103 -0.438,-0.193 -0.627,-0.214c-0.272,-0.034 -0.393,0.03 -0.649,0.064c0,0 -0.255,-0.039 -0.2,0.202c0.082,0.334 0.453,0.155 0.9,0.348c0.758,0.323 1.823,1.529 2.488,2.153c0.522,0.49 0.805,0.636 1.297,0.979c-0.488,0.276 -1.032,0.538 -1.543,0.779c-0.5,0.231 -1.088,0.451 -1.591,0.548c-1.539,0.301 -1.508,0.233 -3.163,0.26c0.172,-0.142 1.455,-0.708 1.784,-0.974c0.44,-0.355 0.029,-0.575 -1.06,-0.085l-1.248,0.565c-0.838,0.35 -1.66,0.8 -2.499,1.128c-1.211,0.472 -3.111,1.291 -4.396,0.884c-0.406,-0.129 -0.495,-0.196 -0.646,-0.06c0.041,0.378 0.722,0.638 1.009,0.711c1.043,0.269 2.396,-0.246 3.388,-0.547c0.641,-0.193 1.58,-0.615 2.223,-0.934c0.299,-0.147 1.524,-0.082 1.952,-0.02c0.243,0.035 1.632,-0.011 1.976,-0.093c0.18,-0.04 0.39,-0.053 0.585,-0.089c1.292,-0.23 3.297,-1.336 4.445,-2.043c0.188,-0.117 0.405,-0.251 0.547,-0.378c0.284,-0.255 0.239,-0.404 -0.074,-0.346c-0.384,0.068 -0.73,0.3 -1.118,0.41" style="fill:#95c5e7;"/><path d="M64.386,17.552c-0.536,-0.366 -1.235,-0.692 -1.826,-1.058c-3.483,-2.16 -3.311,-3.817 -4.657,-5.066c-0.252,0.374 0.613,1.809 0.792,2.133c1.328,2.396 2.711,3.053 4.902,4.274c0.519,0.288 1.005,0.545 1.52,0.862c0.236,0.145 0.514,0.305 0.755,0.437c0.205,0.111 0.51,0.337 0.713,0.214c-0.038,-0.497 -1.48,-1.13 -1.561,-1.589c-0.032,-0.176 -0.045,-0.407 -0.05,-0.59c-0.029,-0.973 0.022,-0.96 0.094,-1.778c0.038,-0.424 -0.037,-0.219 0.225,-0.505l2.186,-2.916c0.266,-0.382 1.551,-2.261 1.19,-2.751c-0.37,0.082 -0.756,0.898 -0.997,1.282c-0.416,0.657 -2.256,3.062 -2.305,3.229c-0.055,-0.091 0.019,-0.329 0.042,-0.438l0.469,-2.197c0.056,-0.267 0.188,-0.648 -0.097,-0.799c-0.084,0.031 -0.096,0.03 -0.184,0.126c-0.232,0.25 -0.57,1.456 -0.661,1.83c-0.313,1.271 -0.316,1.628 -0.504,2.662c-0.063,0.353 -0.074,0.564 -0.083,0.877c-0.01,0.315 -0.019,0.569 -0.011,0.873l0.048,0.888Z" style="fill:#95c5e7;"/><path d="M36.049,56.368c0.216,-0.079 0.794,-0.155 1.2,-0.307c0.825,-0.308 -0.528,-0.566 -1.218,-0.259c-0.441,-0.62 -1.158,-1.066 -1.782,-1.303c-1.412,-0.538 -5.006,-3.378 -5.502,-3.22c-0.657,0.212 1.085,1.286 1.293,1.432c1.017,0.705 2.577,1.782 3.673,2.273c0.31,0.138 0.551,0.177 0.91,0.36c0.295,0.152 0.601,0.366 0.915,0.553c-0.236,0.098 -0.408,0.142 -0.583,0.208l-1.554,0.653c-1.548,0.699 -2.593,1.191 -4.18,1.718c-0.77,0.258 -1.767,-0.218 -2.073,0.063c0.192,0.339 1.588,0.72 2.127,0.576c0.234,-0.063 0.402,-0.11 0.673,-0.2l2.728,-1.029c-0.286,0.312 -0.54,0.68 -0.757,0.996c-0.515,0.745 -0.779,1.114 -1.218,1.941c-0.536,1.017 -0.061,1.29 0.384,0.547c0.577,-0.961 1.509,-2.241 2.174,-3.169c0.731,-1.016 0.665,-1.047 2.181,-1.6c0.202,-0.074 0.412,-0.16 0.609,-0.233" style="fill:#95c5e7;"/><path d="M107.903,54.232c-0.237,-0.625 -1.139,-2.375 -1.498,-3.035c-0.31,-0.568 -1.399,-2.736 -1.746,-3.062c-0.377,-0.352 -0.319,0.15 -0.288,0.267c0.113,0.426 0.521,1.287 0.716,1.685c0.363,0.763 0.761,1.487 1.125,2.236c0.191,0.402 0.397,0.759 0.593,1.135c0.211,0.398 0.429,0.77 0.623,1.129c0.464,0.851 0.308,0.053 0.321,0.861c0.022,1.311 0.49,1.627 0.522,1.107c0.045,-0.77 -0.136,-0.62 0.191,-1.847c0.091,-0.349 0.605,-1.852 0.857,-2.124l0.873,-0.87c0.738,-0.648 1.594,-0.72 2.194,-1.368c0.748,-0.808 -2.252,0.504 -2.252,0.504l1.385,-2.665c0.171,-0.366 1.158,-2.206 0.775,-2.593c-0.279,0.08 -0.567,0.74 -0.703,1.03c-0.949,2.021 -2.07,3.725 -3.074,6.029c-0.076,0.171 -0.22,0.382 -0.256,0.538c-0.05,0.204 -0.224,0.918 -0.358,1.043" style="fill:#95c5e7;"/><path d="M65.297,26.569c-0.348,-0.325 -0.921,-1.038 -1.115,-1.395c-0.206,-0.382 -0.567,-1.081 -0.899,-1.395c-0.251,0.247 -0.085,0.51 0.013,0.802c0.083,0.248 0.21,0.526 0.33,0.765c0.464,0.914 0.609,0.993 1.247,1.68c0.633,0.682 0.66,0.675 1.44,1.285c1.068,0.837 2.789,1.831 3.989,2.575c0.304,0.185 0.513,0.341 0.798,0.509c1.064,0.633 0.728,0.105 0.85,0.857c0.028,0.168 0.052,0.266 0.112,0.461c0.107,0.347 0.406,0.953 0.824,1.082c0.149,-0.161 0.062,-0.336 -0.073,-0.641c-0.299,-0.681 -0.315,-1.074 -0.281,-1.892c0.093,-2.266 1.317,-5.516 1.422,-7.023c0.017,-0.256 0.059,-0.399 -0.179,-0.625c-0.258,0.154 -0.38,0.68 -0.451,0.959c-0.445,1.732 -1.255,4.184 -1.395,5.872c-0.02,0.211 -0.012,0.838 -0.061,0.989c-2.342,-2.14 -4.215,-2.654 -6.571,-4.865" style="fill:#95c5e7;"/><path d="M108.005,36.262c0.031,-0.315 2.299,-4.65 2.758,-5.557c0.149,-0.295 0.55,-1.076 0.644,-1.389c0.06,-0.192 0.091,-0.295 -0.039,-0.449c-0.097,0.063 -0.161,0.086 -0.254,0.191c-0.389,0.417 -1.476,2.421 -1.814,3.039c-0.545,0.992 -1.079,2.008 -1.551,3.011c-0.587,1.244 -1.498,3.213 -1.79,4.551c-0.027,0.121 -0.067,0.234 -0.093,0.376c-0.061,0.32 -0.255,0.88 0.083,1.07c0.285,-0.234 0.72,-1.804 0.975,-2.448c0.205,-0.516 1.641,-2.034 2.047,-2.375c0.473,-0.399 1.692,-1.638 2.167,-2.149c0.501,-0.544 1.564,-2.089 1.107,-2.595c-0.327,0.197 -0.839,1.335 -1.26,1.792l-2.98,2.932Z" style="fill:#95c5e7;"/><path d="M20.253,56.919c0.239,0.053 0.507,0.21 0.755,0.288c0.259,0.082 0.442,0.146 0.719,0.231c0.514,0.156 0.984,0.254 1.467,0.295c0.152,0.013 0.213,0.041 0.371,0.049c0.171,0.013 0.218,0.008 0.374,0.006c0.277,-0.001 0.426,-0.011 0.707,-0.024c0.64,-0.028 1.552,-0.339 2.146,-0.639c0.235,-0.118 0.484,-0.292 0.699,-0.344c0.719,-0.178 0.47,-0.252 0.664,-0.432c0.08,-0.077 0.608,-0.354 0.699,-0.4c0.294,-0.141 0.437,-0.212 0.733,-0.317c0.376,-0.138 1.014,-0.278 1.411,-0.359c0.184,-0.038 0.537,-0.081 0.678,-0.248c-0.194,-0.335 -1.136,-0.197 -1.467,-0.143l-0.493,0.105c0.006,-0.014 0.011,-0.03 0.013,-0.037c0,-0.01 0.005,-0.028 0.005,-0.036l-0.045,-0.247c-0.409,-0.53 -2.565,-1.383 -3.454,-1.928c-0.449,-0.276 -0.957,-0.77 -1.266,-0.597c-0.061,0.365 0.668,0.952 0.944,1.148c0.835,0.588 1.541,0.888 2.459,1.258c0.381,0.153 0.84,0.397 1.203,0.431c-0.907,0.365 -0.685,0.218 -1.66,0.745c-0.988,0.53 -0.708,0.541 -1.676,0.662c-1.133,0.139 -1.606,-0.1 -2.566,-0.742c-0.346,-0.233 -0.629,-0.472 -0.86,-0.265c0.06,0.362 0.562,0.77 0.93,1.055c0.523,0.404 0.751,0.41 1.114,0.603c-0.169,0.016 -0.455,0.037 -0.604,0.071c-0.291,0.068 -0.362,-0.005 -0.619,0c-0.476,0.008 -0.748,-0.046 -1.21,-0.119c-0.593,-0.091 -1.304,-0.312 -1.87,-0.386c-0.208,-0.028 -0.416,-0.092 -0.573,0.062l0.272,0.254Z" style="fill:#95c5e7;"/><path d="M107.239,48.007c-0.867,-0.969 -1.683,-2.207 -2.317,-3.236c-0.815,-1.332 -1.046,-2.223 -1.386,-2.82c-0.126,-0.225 -0.12,-0.221 -0.317,-0.238c-0.42,0.548 0.714,2.741 1.129,3.45c0.66,1.114 1.593,2.476 2.736,3.326c-0.037,0.465 -0.499,1.538 -0.193,1.882c0.451,-0.485 0.749,-1.826 1.089,-2.527c0.896,-1.852 1.609,-2.179 3.105,-3.346c0.446,-0.343 0.735,-0.638 1.198,-1.051c0.385,-0.348 1.091,-1.408 1.351,-1.913c0.152,-0.292 0.254,-0.448 0.108,-0.62c-0.259,0.074 -1.429,1.618 -1.72,1.93c-1.337,1.444 -3.202,1.899 -4.339,4.162c-0.095,0.193 -0.172,0.351 -0.242,0.512c-0.075,0.167 -0.104,0.313 -0.202,0.489" style="fill:#95c5e7;"/><path d="M72.444,92.405c0.219,-0.035 0.379,-0.064 0.647,-0.138l0.642,-0.18c1.323,-0.337 2.654,-1.02 3.876,-1.58c0.344,-0.158 1.001,-0.486 1.214,-0.843c-0.206,-0.182 -0.557,-0.088 -0.754,0.043c-0.115,-0.259 -0.073,-0.236 -0.378,-0.327c-0.258,-0.078 -0.933,-0.119 -1.462,-0.247c-1.173,-0.289 -2.795,-0.969 -3.896,-1.566c-0.293,-0.157 -0.7,-0.385 -0.976,-0.574c-0.17,-0.116 -0.585,-0.4 -0.759,-0.441c-0.132,-0.03 -0.086,-0.057 -0.218,0.066c-0.146,0.226 0.452,0.691 0.579,0.809c0.54,0.506 1.809,1.146 2.511,1.456c0.253,0.111 0.531,0.234 0.813,0.337c0.574,0.211 1.089,0.377 1.658,0.488c0.755,0.146 0.84,0.093 1.211,0.154c0.237,0.039 0.216,-0.019 0.427,-0.005l-1.7,0.716c-0.177,0.07 -0.348,0.145 -0.549,0.225c-1.024,0.398 -2.318,0.854 -3.37,1.01l-1.109,0.139c-0.731,0.021 -1.948,-0.28 -2.211,-0.118c0.046,0.437 0.863,0.54 1.207,0.627c0.24,0.059 0.446,0.064 0.654,0.096c0.529,0.081 1.412,-0.062 1.943,-0.147" style="fill:#95c5e7;"/><path d="M28.68,35.127c-0.184,0.091 -0.357,0.196 -0.517,0.296c-2.009,1.257 -1.981,1.976 -3.048,3.132c-0.134,0.145 -0.243,0.372 -0.269,0.505l0.111,0.107c0.352,-0.021 0.802,-0.557 1.064,-0.839c0.392,-0.423 0.608,-0.826 1.053,-1.209c1.789,-1.543 3.473,-2.351 5.797,-2.436c0.33,-0.012 0.895,0.014 1.035,-0.51c0.442,-1.681 -3.79,-4.247 -4.842,-4.916c-0.184,-0.117 -0.42,-0.276 -0.601,-0.197c-0.293,0.13 -0.092,0.394 0.053,0.516c0.466,0.389 1.797,1.297 2.418,1.757c0.778,0.574 2.498,1.859 2.537,2.912c-0.238,-0.01 -0.503,-0.123 -1.083,-0.124c-0.625,0.003 -1.53,0.118 -2.122,0.342c-0.908,0.34 -0.73,0.249 -1.586,0.664" style="fill:#95c5e7;"/><path d="M109.533,24.386l-0.198,-0.185c-0.146,0.116 -0.16,0.495 -0.197,0.673c-0.047,0.236 -0.094,0.457 -0.127,0.694c-0.061,0.408 -0.236,0.952 -0.379,1.413c-0.781,2.522 -3.061,5.443 -3.308,7.092c-0.052,0.359 -0.143,1.112 0.272,1.345c0.202,-0.188 0.14,-0.764 0.198,-1.019c0.081,-0.36 0.221,-0.673 0.383,-1.041c0.95,-2.179 1.677,-1.976 3.378,-3.529c0.413,-0.379 1.606,-1.623 1.2,-1.97c-0.238,-0.128 -0.557,0.396 -0.671,0.534c-0.227,0.278 -0.473,0.494 -0.713,0.709l-1.443,1.085c0.215,-0.271 0.589,-1.103 0.739,-1.466c0.207,-0.491 0.397,-0.937 0.537,-1.447c0.144,-0.511 0.278,-0.961 0.324,-1.448c0.059,-0.621 0.121,-0.754 0.005,-1.44" style="fill:#95c5e7;"/><path d="M62.312,11.858c-0.397,-0.147 -2.122,-1.763 -2.491,-2.205c-0.292,-0.351 -0.812,-0.843 -1.163,-1.17c-0.268,-0.251 -0.849,-0.922 -1.235,-0.782c-0.044,0.29 0.23,0.548 0.459,0.82c0.925,1.105 2.712,2.988 3.878,3.746c0.608,0.392 0.636,0.338 1.048,0.545c0.068,0.034 0.108,0.072 0.188,0.116c0.183,0.095 0.29,0.03 0.337,-0.192c-0.009,-0.126 -1.022,-0.737 -0.352,-4.279c0.213,-1.127 0.466,-2.15 0.859,-3.237c0.059,-0.163 0.314,-0.783 0.189,-0.935c-0.114,-0.141 -0.203,-0.066 -0.337,0.075c-0.65,0.703 -1.323,3.296 -1.435,4.154c-0.021,0.162 -0.046,0.267 -0.076,0.468c-0.057,0.393 -0.038,0.751 -0.095,1.22c-0.035,0.319 0.11,1.419 0.226,1.656" style="fill:#95c5e7;"/><path d="M80.966,91.793c-0.929,0.423 -1.866,0.897 -2.87,1.179c-0.478,0.136 -1.546,0.264 -1.675,0.542c0.11,0.216 0.474,0.22 0.682,0.209c1.123,-0.047 2.426,-0.475 3.432,-0.957c0.188,-0.092 1.214,-0.588 1.318,-0.597c-0.398,0.429 -0.674,0.885 -1.043,1.289c-1.83,2.012 -3.112,1.856 -3.579,2.489c0.224,0.219 0.526,0.123 0.788,0.063c0.766,-0.169 1.667,-0.631 2.286,-1.115c0.958,-0.746 1.28,-1.38 1.876,-2.266c0.256,-0.376 0.316,-0.423 0.349,-0.805c0.487,-0.271 1.057,-0.49 1.571,-0.696c0.386,-0.155 1.291,-0.43 1.487,-0.765c-0.292,-0.245 -0.801,-0.027 -1.175,0.053c-1.05,0.226 -2.502,0.942 -3.447,1.377" style="fill:#95c5e7;"/><path d="M28.763,32.431c-0.292,-0.266 -0.495,-0.513 -0.748,-0.805c-0.233,-0.271 -0.446,-0.517 -0.687,-0.804c-0.915,-1.078 -1.769,-1.943 -3.071,-2.564c-0.199,-0.093 -0.91,-0.382 -1.131,-0.351c-0.318,0.048 -0.07,0.268 0.035,0.365c0.215,0.203 0.693,0.415 0.97,0.577c0.825,0.484 1.905,1.495 2.489,2.188c0.338,0.4 0.792,0.925 1.191,1.296c-0.023,0.009 -0.74,0.033 -0.87,0.048l-0.891,0.147c-0.928,0.155 -1.794,0.508 -2.629,0.915c-0.274,0.133 -0.579,0.327 -0.85,0.521c-0.382,0.274 -1.332,1.259 -1.082,1.646c0.367,-0.013 0.648,-0.498 0.98,-0.798c0.779,-0.7 2.544,-1.347 3.515,-1.559c0.957,-0.209 1.518,-0.336 2.529,-0.244c0.173,0.018 0.728,0.33 0.987,0.099c-0.092,-0.401 -0.415,-0.387 -0.737,-0.677" style="fill:#95c5e7;"/><path d="M106.05,45.489c0.374,-0.072 0.338,-0.158 0.559,-0.502l2.982,-4.497c0.558,-0.824 1.168,-1.748 1.733,-2.577c0.284,-0.416 0.569,-0.864 0.83,-1.274c0.17,-0.266 0.847,-1.111 0.384,-1.225c-0.317,-0.076 -0.838,0.84 -1.019,1.084c-1.111,1.519 -4.392,6.279 -5.195,7.726c-0.355,0.636 -0.619,0.938 -0.274,1.265" style="fill:#95c5e7;"/><path d="M54.215,58.223c-0.059,-0.081 -0.483,-0.22 -0.591,-0.27l-1.771,-0.918c-0.766,-0.421 -1.597,-0.921 -2.364,-1.467c-1.348,-0.963 -2.519,-1.926 -4.137,-2.295c-0.528,-0.12 -0.778,0.044 -0.32,0.472c0.153,0.144 0.842,0.35 1.125,0.481c0.408,0.188 0.792,0.386 1.164,0.623c0.814,0.515 1.538,1.152 2.381,1.686c0.762,0.488 1.602,0.968 2.369,1.33c0.402,0.19 0.804,0.376 1.196,0.488c0.182,0.051 1.25,0.287 0.948,-0.13" style="fill:#95c5e7;"/><path d="M4.568,31.297c0.427,0.4 0.753,0.531 1.251,0.619c1.943,0.335 4.439,-0.547 6.234,-1.325c0.535,-0.23 2.274,-0.823 2.424,-1.188c-0.177,-0.21 -0.376,-0.099 -0.609,-0.05c-0.818,0.169 -1.214,0.342 -1.992,0.624c-1.494,0.545 -4.884,1.846 -6.611,1.216c-0.268,-0.096 -0.405,-0.234 -0.663,-0.345c-0.406,-0.175 -0.252,0.234 -0.034,0.449" style="fill:#95c5e7;"/><path d="M50.657,58.059c-1.139,0.224 -2.408,1.094 -3.375,1.76c-1.097,0.757 -2.31,1.76 -3.341,2.648c-0.564,0.486 -0.699,0.497 -1.001,1.071c0.337,0.324 0.856,-0.191 1.14,-0.406c0.392,-0.294 0.719,-0.546 1.088,-0.833c1.43,-1.108 3.83,-3.073 5.476,-3.66c0.783,-0.282 0.904,-0.019 1.112,-0.261c-0.105,-0.427 -0.859,-0.367 -1.099,-0.319" style="fill:#95c5e7;"/><path d="M39.566,61.266c0.249,-0.179 -0.042,-0.329 0.739,-0.931c1.477,-1.133 3.981,-2.01 5.786,-2.628c0.556,-0.19 1.352,-0.289 1.541,-0.651c-0.207,-0.249 -0.359,-0.209 -0.579,-0.194c-0.357,0.025 -1.385,0.274 -1.717,0.378c-1.584,0.501 -4.538,1.621 -5.663,2.918c-0.273,0.316 -0.549,0.958 -0.107,1.108" style="fill:#95c5e7;"/><path d="M92.647,90.397c0.617,0.143 0.862,-0.056 0.388,-0.351c-0.318,-0.198 -0.68,-0.291 -1.064,-0.45c-0.343,-0.143 -0.709,-0.297 -1.037,-0.441c-0.716,-0.318 -1.404,-0.619 -2.114,-0.973c-0.46,-0.228 -3.349,-1.774 -3.718,-1.825c-0.187,-0.029 -0.379,0.072 -0.176,0.264l0.321,0.298c0.177,0.169 0.826,0.547 1.075,0.696c1.827,1.084 4.258,2.306 6.325,2.782" style="fill:#95c5e7;"/><path d="M94.735,90.867c-2.432,0.375 -4.479,2.986 -5.93,3.979c-0.298,0.204 -0.679,0.446 -0.858,0.755c0.654,0.56 3.285,-1.958 3.978,-2.518c1.715,-1.384 1.918,-1.273 3.475,-1.842c0.284,-0.105 0.44,-0.158 0.356,-0.306c-0.128,-0.227 -0.834,-0.096 -1.021,-0.068" style="fill:#95c5e7;"/><path d="M106.661,43.027c-0.06,-0.168 -0.756,-0.71 -0.925,-0.922c-1.097,-1.388 -2.414,-3.885 -3.249,-5.566c-0.135,-0.272 -0.342,-0.729 -0.66,-0.866c-0.342,0.241 -0.125,0.499 0.073,1.011c0.367,0.942 1.033,2.227 1.509,3.093c0.396,0.716 0.79,1.359 1.315,2.045c0.25,0.324 1.49,1.794 1.937,1.205" style="fill:#95c5e7;"/><path d="M77.62,86.821c0.861,0.808 2.767,1.773 3.84,2.279c0.615,0.289 2.679,1.089 3.284,0.839c0.305,-0.127 0.147,-0.294 -0.046,-0.388c-0.117,-0.058 -1.357,-0.413 -1.884,-0.62c-1.243,-0.493 -2.646,-1.22 -3.782,-1.899c-0.306,-0.183 -0.637,-0.379 -0.95,-0.597c-0.236,-0.163 -0.764,-0.593 -0.946,-0.394c-0.195,0.209 0.297,0.606 0.484,0.78" style="fill:#95c5e7;"/><path d="M37.165,34.869c-0.244,-0.236 -0.576,0.007 -0.992,0.291c-2.373,1.61 -2.456,1.986 -5.22,2.977c-0.624,0.224 -1.172,0.248 -1.279,0.733c0.33,0.371 1.528,-0.112 1.914,-0.244c1.922,-0.657 2.18,-0.945 3.757,-2.106c0.419,-0.306 1.613,-1.186 1.82,-1.651" style="fill:#95c5e7;"/><path d="M37.112,58.923c-0.73,1.11 -0.605,1.003 -1.455,1.921c-0.549,0.59 -2.011,1.249 -2.761,1.672c-1.153,0.647 -0.376,0.674 0.656,0.264c1.257,-0.498 2.062,-0.869 3.028,-1.912c0.368,-0.395 1.611,-2.494 1.86,-3.151c0.017,-0.046 0.068,-0.171 0.077,-0.218c0.037,-0.155 0.055,-0.096 -0.036,-0.237c-0.418,0.005 -1.172,1.365 -1.369,1.661" style="fill:#95c5e7;"/><path d="M91.824,86.748c0.243,0.631 4.117,2.944 5.486,3.371c0.296,0.093 1.686,0.553 1.762,0.234c0.053,-0.231 -0.679,-0.482 -0.845,-0.543c-2.22,-0.824 -3.579,-1.911 -5.516,-2.922c-0.331,-0.172 -0.7,-0.392 -0.887,-0.14" style="fill:#95c5e7;"/><path d="M17.794,29.644c0.009,-0.189 -0.024,-0.275 -0.182,-0.42l-0.991,-0.93c-0.212,-0.203 -0.428,-0.351 -0.665,-0.575c-1.074,-1.011 -2.967,-2.644 -4.466,-2.668c-0.159,-0.004 -0.181,-0.009 -0.332,0.168c0.484,0.453 1.096,0.568 1.634,0.892c1.755,1.06 3.483,2.946 4.553,3.483c0.201,0.101 0.273,0.147 0.449,0.05" style="fill:#95c5e7;"/><path d="M47.568,64.442c1.036,-0.251 1.531,-0.314 2.628,-1.121c0.604,-0.444 3.116,-2.926 2.858,-3.452c-0.286,-0.057 -0.657,0.353 -0.904,0.625c-0.623,0.679 -1.877,1.926 -2.569,2.422c-1.195,0.854 -1.602,0.766 -2.615,1.121c-1.224,0.43 -0.037,0.561 0.602,0.405" style="fill:#95c5e7;"/><path d="M55.308,62.786c-0.776,0.411 -1.808,0.518 -2.67,0.629c-0.211,0.029 -0.67,0.078 -0.856,0.283c0.107,0.194 0.257,0.196 0.411,0.21c0.912,0.085 2.376,-0.024 3.202,-0.395c0.955,-0.425 1.362,-1.112 2.069,-2.003c0.354,-0.444 1.024,-0.919 1.206,-1.355c-0.284,-0.344 -1.47,0.738 -1.711,0.998c-0.549,0.594 -0.986,1.276 -1.651,1.633" style="fill:#95c5e7;"/><path d="M43.634,56.031c-0.224,-0.205 -0.665,-0.406 -0.897,-0.547c-0.923,-0.565 -1.666,-1.094 -2.574,-1.673c-3.026,-1.927 -3.361,-1.168 -2.929,-0.886c0.214,0.14 0.627,0.295 0.87,0.416c0.701,0.338 1.859,1.182 2.569,1.641c0.578,0.371 1.119,0.701 1.707,1.008c1.013,0.531 1.751,0.498 1.254,0.041" style="fill:#95c5e7;"/><path d="M87.363,92.289c-0.173,-0.227 -0.538,-0.041 -0.777,0.055c-2.129,0.867 -2.95,1.84 -4.529,3.367c-0.213,0.206 -1.212,0.891 -0.966,1.122c0.236,0.22 1.341,-0.624 1.599,-0.839c1.216,-1.022 1.565,-1.617 3.131,-2.631c0.466,-0.301 1.161,-0.604 1.542,-1.074" style="fill:#95c5e7;"/><path d="M107.148,22.351c-0.213,0.043 -0.231,0.088 -0.325,0.333c-0.054,0.127 -0.091,0.303 -0.135,0.441c-0.386,1.194 -0.483,1.452 -0.996,2.681c-0.199,0.477 -1.49,3.259 -0.816,3.552c0,0 0.102,0.127 0.221,-0.127l0.182,-0.67c0.435,-1.287 2.578,-5.326 1.869,-6.21" style="fill:#95c5e7;"/><path d="M34.352,31.978c0.888,0.502 3.017,2.249 3.812,2.962c0.216,0.193 0.434,0.504 0.65,0.717c0.807,0.785 1.166,-0.316 -2.168,-2.882c-0.299,-0.231 -2.636,-2.035 -3.003,-1.396c0.087,0.267 0.504,0.482 0.709,0.599" style="fill:#95c5e7;"/><path d="M6.216,24.478l-0.254,0.278c0.093,0.176 0.126,0.16 0.289,0.156c0.155,-0.004 0.21,-0.008 0.374,0.024c0.678,0.134 1.683,0.829 2.26,1.249c0.527,0.382 1.045,0.821 1.533,1.2c0.273,0.213 0.501,0.425 0.777,0.634c0.311,0.238 0.471,0.409 0.68,-0.019c-0.181,-0.538 -2.207,-2.114 -2.764,-2.505c-0.525,-0.372 -1.553,-0.99 -2.163,-1.067c-0.361,-0.042 -0.385,0.004 -0.732,0.05" style="fill:#95c5e7;"/><path d="M102.388,31.903c-0.569,0.404 0.818,2.823 1.028,3.169c0.234,0.391 1.983,3.033 2.341,3.027c0.471,-0.012 -0.412,-1.328 -0.535,-1.526c-0.762,-1.197 -1.26,-1.879 -1.967,-3.176c-0.211,-0.38 -0.523,-1.349 -0.867,-1.494" style="fill:#95c5e7;"/><path d="M41.575,35.767c-0.219,-0.083 -0.605,0.275 -0.792,0.402c-1.223,0.842 -3.237,2.37 -4.54,2.801c-0.005,0 -0.925,0.183 -0.255,0.447c0.409,0.162 1.218,-0.171 1.558,-0.337c1.049,-0.515 2.085,-1.21 3.026,-1.934c0.191,-0.147 1.59,-1.154 1.003,-1.379" style="fill:#95c5e7;"/><path d="M105.006,32.199c0.344,0.323 0.733,0.302 0.459,-0.185c-0.154,-0.273 -0.383,-0.535 -0.557,-0.784c-0.718,-1.026 -1.233,-2.094 -1.766,-3.217c-0.158,-0.332 -0.547,-1.394 -0.923,-1.506c-0.255,0.176 -0.115,0.42 -0.056,0.668c0.095,0.395 0.328,0.975 0.473,1.357c0.074,0.19 0.199,0.451 0.305,0.672c0.578,1.212 1.069,2.063 2.065,2.995" style="fill:#95c5e7;"/><path d="M56.014,57.191c0.774,0.572 1.186,1.315 1.83,1.965c0.313,0.318 0.585,0.659 0.987,0.84c0.348,0.156 0.752,0.037 0.078,-0.635c-0.658,-0.66 -1.069,-1.357 -1.778,-2.019c-1.397,-1.31 -1.975,-0.785 -1.117,-0.151" style="fill:#95c5e7;"/><path d="M109.158,58.45c0.306,-0.331 0.26,-0.819 0.481,-1.055c0.728,-0.789 1.5,-1.126 2.047,-1.653c0.344,-0.331 0.143,-0.641 -0.399,-0.301c-0.278,0.173 -0.629,0.38 -0.909,0.563c-0.339,0.221 -0.627,0.395 -0.941,0.659c-0.424,0.351 -0.538,0.419 -0.557,0.897c-0.022,0.541 -0.649,1.161 -0.526,1.425c0.14,0.3 0.603,-0.322 0.804,-0.535" style="fill:#95c5e7;"/><path d="M96.349,94.242l0.206,-0.222l0.253,-1.121c0.241,-1.316 0.834,-1.361 1.63,-1.47c1.224,-0.169 -0.189,-0.895 -1.19,-0.396c-0.408,0.203 -0.758,0.576 -0.897,1.008c-0.142,0.441 -0.533,1.902 -0.002,2.201" style="fill:#95c5e7;"/><path d="M59.836,63.981c0.244,0.228 0.631,-0.23 0.828,-0.432c0.28,-0.29 0.533,-0.556 0.799,-0.817c0.28,-0.273 0.499,-0.481 0.819,-0.658c0.454,-0.254 0.564,0.045 0.792,-0.235c0.042,-0.131 -0.32,-1.069 -1.851,0.172c-0.199,0.16 -1.75,1.63 -1.387,1.97" style="fill:#95c5e7;"/><path d="M104.456,26.362c0.182,-0.266 -0.105,-0.662 -0.254,-0.941c-0.432,-0.821 -0.492,-0.802 -0.945,-1.805c-0.123,-0.274 -0.205,-0.7 -0.547,-0.792c-0.413,0.294 0.128,1.529 0.3,1.894c0.177,0.371 0.979,1.735 1.446,1.644" style="fill:#95c5e7;"/></svg>