<?xml version="1.0" encoding="UTF-8" standalone="no"?><!DOCTYPE svg PUBLIC "-//W3C//DTD SVG 1.1//EN" "http://www.w3.org/Graphics/SVG/1.1/DTD/svg11.dtd"><svg width="100%" height="100%" viewBox="0 0 144 122" version="1.1" xmlns="http://www.w3.org/2000/svg" xmlns:xlink="http://www.w3.org/1999/xlink" xml:space="preserve" xmlns:serif="http://www.serif.com/" style="fill-rule:evenodd;clip-rule:evenodd;stroke-linejoin:round;stroke-miterlimit:2;"><path d="M138.786,62.733c-4.219,1.803 -7.423,-0.375 -8.92,-1.783c4.454,-1.938 7.852,-2.031 9.762,-1.294c0.528,0.2 0.905,0.452 1.118,0.73c0.142,0.188 0.2,0.385 0.161,0.575c-0.105,0.559 -0.78,1.199 -2.121,1.772m0.317,-23.447c-3.118,1.725 -6.995,1.652 -9.162,1.427c2.799,-3.884 5.327,-5.243 7.216,-5.276c0.863,-0.016 1.572,0.261 2.077,0.685c0.478,0.401 0.775,0.934 0.834,1.468c0.072,0.631 -0.217,1.281 -0.965,1.696m-10.49,-9.346c-1.838,3.443 -6.915,4.673 -9.448,5.082c1.243,-5.534 3.231,-8.158 5.147,-9.027c0.79,-0.361 1.559,-0.398 2.227,-0.218c0.68,0.185 1.269,0.586 1.696,1.106c0.689,0.853 0.934,2.022 0.378,3.057m3.898,-18.133c-3.18,4.924 -9.016,5.654 -11.576,5.723c1.341,-6.058 4.088,-9.022 6.712,-10.009c1.139,-0.425 2.244,-0.473 3.172,-0.234c0.864,0.218 1.566,0.679 1.966,1.296c0.532,0.81 0.546,1.956 -0.274,3.224m-30.499,9.605c-2.873,3.236 -9.146,3.055 -12.181,2.747c3.575,-5.022 7.006,-6.847 9.517,-6.947c0.862,-0.034 1.591,0.14 2.155,0.449c0.522,0.29 0.902,0.697 1.105,1.157c0.334,0.756 0.188,1.713 -0.596,2.594m-26.034,-17.996c2.94,3.33 -1.507,9.594 -3.448,12.02c-3.381,-4.325 -4.003,-7.764 -3.272,-10.078c0.252,-0.79 0.664,-1.445 1.172,-1.949c0.504,-0.496 1.103,-0.849 1.735,-1.046c1.322,-0.404 2.798,-0.1 3.813,1.053m-24.024,5.097c8.823,2.749 8.374,9.626 7.941,11.965c-2.696,-0.42 -6.794,-4.28 -9.211,-7.796c-0.844,-1.225 -1.458,-2.389 -1.709,-3.321c-0.157,-0.591 -0.171,-1.01 0.018,-1.142c0.392,-0.267 1.324,-0.216 2.961,0.294m35.422,51.706c-2.172,2.419 -7.618,4.028 -10.763,4.792c2.773,-4.585 5.865,-6.392 8.207,-6.698c0.821,-0.107 1.524,-0.025 2.051,0.188c0.427,0.169 0.717,0.407 0.836,0.672c0.123,0.273 0.034,0.641 -0.331,1.046m13.089,18.732c-3.644,1.01 -9.605,-0.462 -12.779,-1.41c5.878,-3.667 9.79,-4.252 12.098,-3.511c0.891,0.285 1.501,0.777 1.87,1.346c0.349,0.545 0.478,1.171 0.401,1.751c-0.111,0.828 -0.663,1.568 -1.59,1.824m-21.553,12.73c-0.211,-0.085 -0.327,-0.08 -0.287,-0.24c0.079,-0.331 0.11,0.024 0.287,0.24m-24.77,-55.95c-0.02,4.741 -4.49,6.871 -6.588,7.61c-0.943,-4.548 0.057,-7.538 1.612,-9.104c0.612,-0.617 1.305,-1.003 1.983,-1.166c0.625,-0.15 1.223,-0.109 1.711,0.121c0.754,0.354 1.287,1.204 1.282,2.539m-14.412,-10.786c1.429,5.085 -1.643,8.065 -3.219,9.213c-2.485,-4.152 -2.566,-7.463 -1.631,-9.521c0.359,-0.802 0.866,-1.389 1.424,-1.74c0.493,-0.308 1.02,-0.428 1.504,-0.324c0.778,0.165 1.513,0.914 1.922,2.372m-7.387,66.262c2.147,-0.597 7.042,-1.413 9.825,2.443c0.788,1.089 0.848,2.084 0.439,2.805c-0.267,0.467 -0.73,0.846 -1.327,1.078c-0.645,0.254 -1.437,0.335 -2.297,0.181c-2.187,-0.391 -4.747,-2.26 -6.64,-6.507m-3.643,13.807c0.402,4.809 2.273,7.556 4.236,8.704c0.764,0.448 1.521,0.638 2.178,0.604c0.583,-0.028 1.081,-0.238 1.418,-0.595c0.538,-0.579 0.7,-1.614 0.182,-3.037c-1.803,-4.969 -6.056,-5.642 -8.014,-5.676m-12.556,1.872c-2.292,4.636 -2.06,8.275 -0.886,10.489c0.405,0.758 0.919,1.336 1.469,1.708c0.486,0.329 0.982,0.485 1.431,0.457c0.661,-0.048 1.285,-0.547 1.67,-1.58l0.002,0.001c1.544,-4.15 -1.881,-8.945 -3.686,-11.075m-15.277,-23.581c3.613,0.871 7.505,2.24 11.365,4.366c1.935,-0.166 11.325,-0.796 18.63,1.693c1.77,-0.602 9.021,-2.629 13.097,3.009c1.354,1.873 1.378,3.731 0.563,5.164c-0.516,0.913 -1.368,1.624 -2.426,2.041c-1.006,0.395 -2.211,0.527 -3.494,0.3c-2.926,-0.529 -6.311,-2.954 -8.566,-8.477c-4.905,-1.643 -10.836,-1.809 -14.493,-1.711c4.541,3.066 8.906,7.305 12.576,13.142c2.108,-0.067 8.21,0.358 10.668,7.125c0.833,2.298 0.433,4.115 -0.633,5.266c-0.733,0.785 -1.76,1.235 -2.913,1.29c-1.078,0.054 -2.27,-0.232 -3.416,-0.902c-2.612,-1.529 -5.092,-5.119 -5.382,-11.322c-4.247,-6.87 -9.508,-11.446 -14.858,-14.475c-0.093,-0.038 -0.179,-0.089 -0.256,-0.147c-0.877,-0.488 -1.752,-0.933 -2.631,-1.34c3.003,3.299 6.691,8.655 8.227,16.146c1.285,1.361 7.254,8.127 4.971,14.258l-0.002,0.005l0.002,0c-0.719,1.928 -2.068,2.882 -3.568,2.986c-0.958,0.071 -1.942,-0.219 -2.836,-0.824c-0.83,-0.561 -1.595,-1.411 -2.176,-2.506c-1.55,-2.917 -1.844,-7.699 1.426,-13.584c-2.481,-11.916 -10.688,-17.971 -11.63,-18.632c-1.057,-0.323 -2.098,-0.601 -3.112,-0.837l0.867,-2.034Zm23.516,-55.199l-0.971,2.28c1.97,2.873 1.944,7.176 1.758,9.428c-1.881,-1.016 -3.316,-2.138 -4.377,-3.281l-0.926,2.174c1.357,1.291 3.125,2.526 5.375,3.601c4.939,11.143 1.782,20.772 1.398,21.855c-6.528,8.446 -14.407,12.343 -14.45,12.362l-0.023,0.013c-3.13,0.893 -6.285,1.713 -9.458,2.443l-1.053,2.471c7.548,-1.669 14.994,-3.83 22.26,-6.347c15.435,-4.831 24.447,-2.164 33.845,0.626c0.667,0.196 1.336,0.394 2.007,0.593c1.248,2.127 7.492,12.103 16.843,15.59c0.222,0.449 0.653,0.954 1.262,1.66l0.544,0.638c4.519,5.312 9.653,6.125 13.459,5.104c1.572,-0.423 2.92,-1.165 3.917,-2.037c1.07,-0.943 1.759,-2.068 1.918,-3.167c0.2,-1.376 -0.355,-2.65 -1.885,-3.499c-1.842,-1.021 -4.221,-1.494 -6.66,-1.65c-3.447,-0.22 -7.035,0.184 -9.368,0.544c-0.429,0.064 -0.676,0.101 -0.895,0.13c-0.587,0.084 -1.056,0.149 -1.424,0.263c-6.991,-2.554 -12.172,-9.15 -14.555,-12.691c6.191,1.65 13.007,2.839 22.123,1.791c1.61,0.553 10.71,3.533 16.025,2.062c1.85,-0.511 2.947,-1.984 3.168,-3.64c0.144,-1.075 -0.089,-2.219 -0.729,-3.22c-0.625,-0.974 -1.637,-1.802 -3.06,-2.259c-3.056,-0.985 -8.195,-0.219 -15.681,4.876c-10.006,1.153 -17.19,-0.521 -23.889,-2.452c-0.046,-0.017 -0.094,-0.033 -0.144,-0.044c-0.793,-0.228 -1.576,-0.462 -2.357,-0.695l-0.627,-0.183c5.036,-0.549 11.785,-2.017 17.178,-5.809c1.578,-0.31 10.757,-2.244 14.086,-5.947c1.013,-1.127 1.174,-2.347 0.707,-3.394c-0.351,-0.79 -1.067,-1.44 -2.038,-1.828c-0.87,-0.346 -1.96,-0.491 -3.172,-0.334c-3.2,0.419 -7.476,2.986 -10.892,9.724c-8.825,6.189 -21.658,5.736 -22.903,5.674c-4.293,-0.984 -8.854,-1.58 -14.249,-1.178c15.321,-6.289 29.53,-13.855 41.73,-21.211c5.673,-2.079 10.66,-2.642 15.402,-2.682c4.352,0.161 9.234,3.241 14.5,6.559c5.938,3.747 12.343,7.787 19.38,8.606c1.197,1.38 5.739,5.878 12.183,3.123c2.078,-0.89 3.169,-2.128 3.408,-3.368c0.159,-0.83 -0.044,-1.624 -0.571,-2.313c-0.46,-0.6 -1.167,-1.11 -2.094,-1.463c-2.512,-0.965 -6.962,-0.849 -12.57,1.856c-6.579,-0.728 -12.797,-4.649 -18.567,-8.289c-2.577,-1.624 -5.07,-3.195 -7.494,-4.429c7.985,0.419 16.019,0.693 26.421,-4.059c1.513,0.261 7.384,1.059 11.975,-1.478c1.636,-0.907 2.257,-2.389 2.09,-3.852c-0.123,-1.08 -0.692,-2.133 -1.611,-2.903c-0.886,-0.752 -2.104,-1.235 -3.549,-1.208c-2.683,0.046 -6.222,1.922 -9.813,7.436c-8.883,4.065 -16.035,4.279 -22.976,3.99c4.522,-1.409 10.144,-3.729 13.956,-7.306c1.839,-0.202 9.598,-1.347 12.29,-6.384c1.011,-1.888 0.599,-3.971 -0.612,-5.464c-0.712,-0.875 -1.704,-1.549 -2.842,-1.857c-1.143,-0.307 -2.426,-0.253 -3.716,0.335c-2.597,1.18 -5.245,4.599 -6.626,11.761c-6.486,6.095 -18.886,8.338 -20.144,8.55c-3.751,-0.115 -7.604,-0.031 -11.787,0.74c19.695,-12.454 32.934,-23.449 35.147,-25.319c2.019,0.055 10.143,-0.157 14.382,-6.719c1.355,-2.098 1.251,-4.102 0.267,-5.608c-0.707,-1.085 -1.873,-1.883 -3.274,-2.241c-1.338,-0.34 -2.904,-0.282 -4.489,0.312c-3.362,1.261 -6.853,4.984 -8.284,12.558c-2.328,1.97 -18.162,15.134 -41.284,29.106l-0.023,0.007c-0.147,0.052 -0.271,0.134 -0.378,0.233c-4.854,2.924 -10.02,5.879 -15.451,8.772c1.653,-1.891 3.536,-4.286 5.336,-7.117c0.019,-0.029 0.04,-0.06 0.058,-0.09c1.16,-1.834 2.289,-3.852 3.305,-6.037c0.448,-0.812 6.903,-12.199 17.922,-16.755c1.883,0.291 11.383,1.473 15.601,-3.277c1.407,-1.588 1.622,-3.411 0.957,-4.921c-0.395,-0.899 -1.102,-1.674 -2.054,-2.202c-0.909,-0.501 -2.038,-0.783 -3.324,-0.73c-3.284,0.129 -7.733,2.488 -12.056,9.106c-6.175,2.561 -10.984,7.114 -14.226,10.972c1.379,-5.275 1.869,-11.195 0.739,-17.613c1.652,-1.964 8.333,-10.518 3.929,-15.503c-1.642,-1.859 -4.013,-2.356 -6.133,-1.705c-0.959,0.297 -1.866,0.828 -2.619,1.577c-0.752,0.742 -1.357,1.698 -1.719,2.841c-0.977,3.084 -0.197,7.573 4.329,12.952c1.561,8.566 0.064,16.212 -2.555,22.554c0.382,-5.403 -0.733,-12.52 -6.953,-18.93c0.531,-2.472 1.626,-11.415 -9.382,-14.844c-2.358,-0.735 -3.923,-0.648 -4.861,-0.008c-1.08,0.737 -1.301,1.988 -0.893,3.511c0.318,1.18 1.041,2.573 2.016,3.994c2.839,4.129 7.99,8.647 11.457,8.785c11.112,11.357 4.575,25.185 4.556,25.224l-0.016,0.038c-4.638,7.258 -9.797,11.473 -9.823,11.499l-0.008,0.006c-9.807,4.936 -20.335,9.566 -31.286,13.388c-0.264,0.082 -0.537,0.166 -0.806,0.253c-0.09,0.029 -0.175,0.065 -0.253,0.114c-1.016,0.348 -2.032,0.69 -3.053,1.026c4.301,-3.364 9.84,-8.798 13.582,-16.522c1.674,-0.975 9.702,-5.83 14.207,-12.037c1.794,-0.52 8.9,-3.013 8.928,-9.943c0.009,-2.304 -1.055,-3.833 -2.559,-4.538c-0.955,-0.447 -2.066,-0.544 -3.172,-0.275c-1.053,0.253 -2.111,0.834 -3.023,1.752c-2.083,2.102 -3.429,6.017 -2.036,11.814c-3.044,4.149 -7.786,7.671 -10.83,9.688c1.914,-5.101 3.001,-11.053 2.584,-17.916c1.758,-1.153 6.489,-4.99 4.538,-11.917c-0.659,-2.351 -2.05,-3.604 -3.592,-3.934c-1.057,-0.219 -2.156,0.004 -3.132,0.615c-0.911,0.57 -1.717,1.483 -2.261,2.69c-1.236,2.737 -1.162,7.089 2.225,12.313c0.552,8.039 -1.067,14.782 -3.664,20.318c-0.051,0.078 -0.091,0.161 -0.119,0.249c-0.43,0.898 -0.888,1.768 -1.361,2.604c0.518,-4.412 0.397,-10.889 -2.727,-17.877c0.23,-1.663 0.992,-9.075 -2.836,-13.23m55.769,63.572c2.239,-0.343 5.658,-0.732 8.884,-0.526c2.145,0.138 4.198,0.534 5.722,1.377c0.609,0.337 0.838,0.794 0.769,1.261c-0.087,0.584 -0.513,1.234 -1.198,1.835c-0.763,0.673 -1.811,1.241 -3.044,1.573c-3.107,0.836 -7.348,0.111 -11.184,-4.398l-0.558,-0.646c-0.134,-0.154 -0.257,-0.262 -0.373,-0.336c0.016,-0.001 0.033,-0.001 0.052,-0.005c0.315,-0.043 0.674,-0.095 0.93,-0.135" style="fill:#6eb0de;"/><path d="M12.908,117.261l-0.12,-0.373c0.262,-0.335 0.449,-0.265 0.794,-0.237c0.82,0.052 1.748,-0.605 2.203,-1.181c-0.178,-0.166 -0.712,-0.284 -1.056,-0.787c-0.818,0.183 -1.653,0.181 -2.186,-0.428c-0.01,-0.011 -0.021,-0.021 -0.029,-0.032l-0.058,-0.062c-0.134,-0.172 -0.179,-0.365 0.006,-0.541c0.507,-0.477 1.614,0.922 2.619,-0.869c-0.106,-0.12 -0.225,-0.203 -0.34,-0.337c-0.1,-0.117 -0.202,-0.245 -0.28,-0.366c-0.248,-0.397 -0.23,-0.602 -0.367,-0.942c-0.531,0.006 -1.284,0.256 -1.324,-0.504c0.235,-0.433 0.826,-0.521 1.398,-0.629c0.694,-0.132 1.032,-0.211 1.336,-0.637c-0.245,-0.157 -0.513,-0.219 -0.802,-0.419c-0.518,-0.358 -1.064,-1.124 -1.044,-1.734c0.015,-0.432 0.417,-0.411 0.692,-0.161c0.229,0.207 0.432,0.625 1.02,1.018c0.143,0.098 0.256,0.096 0.442,0.146c1.099,0.288 1.359,-0.663 1.971,-0.594c0.107,0.04 0.172,0.046 0.23,0.227c0.082,0.257 -0.145,0.639 -0.305,0.815c-0.851,0.944 -1.363,0.28 -1.264,1.147c1.849,1.436 2.363,0.147 2.889,0.029c0.308,-0.066 0.496,0.177 0.416,0.517c-0.115,0.482 -0.62,0.965 -1.11,1.155c-0.344,0.135 -0.593,0.091 -0.922,0.145c0.095,0.251 0.172,0.241 0.367,0.402c0.128,0.104 0.247,0.199 0.392,0.333c0.283,0.261 0.54,0.447 0.802,0.604c0.748,0.433 1.883,-0.066 1.905,0.58c-0.099,0.372 -0.522,0.575 -0.992,0.659c-0.433,0.075 -0.731,-0.01 -1.094,-0.065c-0.009,0.238 -0.11,0.375 -0.169,0.624c1.126,0.789 1.323,0.424 1.802,0.558c0.392,0.105 0.446,0.477 0.104,0.745c-0.368,0.285 -0.75,0.217 -1.097,0.306c0.006,0.606 -0.403,0.915 -0.838,1.341c0.172,0.168 0.334,0.262 0.509,0.409c0.145,0.121 0.356,0.276 0.54,0.37c0.232,0.118 0.411,0.135 0.633,0.189c0.987,0.246 0.268,1.361 -1.061,0.798c-0.547,-0.231 -0.77,-0.398 -1.284,-0.859c0.017,0.316 0.044,0.462 0.098,0.77c0.07,0.379 0.163,0.448 0.274,0.779c0.259,0.772 -0.27,0.968 -0.655,0.677c-0.523,-0.393 -0.832,-1.278 -0.826,-1.995c0,-0.233 0.081,-0.447 0.046,-0.647c-0.2,0.072 -0.163,0.091 -0.208,0.308c-0.287,1.341 -2.777,1.936 -2.604,0.968c0.103,-0.57 1.275,-0.611 1.683,-1.44c-0.114,-0.161 -0.267,-0.181 -0.449,-0.286c-0.177,-0.105 -0.248,-0.196 -0.384,-0.346c-1.178,0.336 -1.413,0.483 -2.303,-0.148m4.292,-4.619c0.168,0.126 0.408,0.428 0.592,0.611c0.19,0.186 0.41,0.354 0.607,0.535c-0.496,0.657 -0.274,0.265 -0.76,0.422c-0.061,0.126 -0.036,0.107 -0.083,0.246c-0.322,0.09 -0.84,0.052 -1.113,-0.003c-0.428,-0.085 -0.654,-0.261 -0.974,-0.372c0.222,-0.269 0.412,-0.61 0.436,-0.994c0.682,0.086 0.895,-0.249 1.295,-0.445m-0.348,-1.303c-0.003,-0.004 -0.357,-0.232 -0.508,-0.351c-0.155,-0.123 -0.365,-0.328 -0.514,-0.421c-0.167,0.186 -0.526,0.302 -0.826,0.399c0.281,0.451 0.881,1.337 1.456,0.837c0.092,-0.081 0.15,-0.148 0.233,-0.23c0.169,-0.163 0.107,-0.035 0.159,-0.234m1.261,5.544c0.416,-0.132 0.614,-0.487 0.855,-0.713c-0.272,-0.258 -0.615,-0.324 -0.912,-0.738c-0.56,0.178 -0.659,0.201 -1.187,0.228c-0.498,0.718 0.013,0.22 -0.896,1.196c0.915,0.28 1.195,0.325 2.14,0.027" style="fill:#6eb0de;"/><path d="M22.977,36.955l-0.923,0.117c-0.023,-0.438 0.023,-0.878 0.213,-1.208c0.201,-0.348 0.677,-0.295 1.01,-0.135c0.186,0.086 0.043,0.005 0.154,0.095c-0.215,0.282 -0.31,0.751 -0.454,1.131m0.706,-7.205l-1.325,3.109l0.127,0.094c0.616,-0.192 0.158,-0.272 0.836,-0.053l-0.334,1.62c-0.221,0.026 -0.378,-0.031 -0.639,0.007c-0.354,0.054 -0.463,0.18 -0.749,0.29c-0.014,-0.026 -0.029,-0.05 -0.044,-0.072l-0.53,1.243c-0.102,0.533 0.036,0.988 0.201,1.472c-0.304,0.197 -0.782,0.348 -0.908,0.651c-0.211,0.501 0.168,0.647 0.603,0.578c0.897,-0.139 1.797,-0.863 2.407,-0.48c-0.023,0.107 0.014,0.008 -0.058,0.142c-0.021,0.043 -0.069,0.108 -0.098,0.16c-0.07,0.122 -0.113,0.217 -0.177,0.339c-0.232,0.439 -0.333,0.985 -0.234,1.508c0.086,0.471 0.166,0.595 0.437,0.83c0.897,-0.267 0.198,-0.921 0.851,-1.962c0.685,-1.092 1.858,-0.347 2.233,-0.858c0.15,-0.47 -0.491,-0.708 -0.749,-0.764c-0.654,-0.133 -0.623,-0.088 -1.355,0.089c-0.129,-0.125 -0.232,-0.261 -0.304,-0.399c0.329,-0.413 0.564,-1.575 1.587,-1.545c0.197,0.004 0.683,0.069 0.867,-0.005c0.348,-0.138 0.232,-0.499 0.033,-0.664c-0.144,-0.124 -0.486,-0.292 -0.681,-0.343c-0.826,-0.222 -1.345,0.206 -1.686,0.352c-0.135,-0.245 0.258,-1.204 0.346,-1.446c0.17,-0.461 0.351,-0.888 0.871,-1.207c0.232,-0.146 0.569,-0.281 0.637,-0.507c0.128,-0.399 -0.254,-0.492 -0.53,-0.48c-0.763,0.039 -1.084,0.361 -1.539,0.773c-0.183,-0.145 -0.415,-0.319 -0.525,-0.43c0.127,-0.31 0.38,-0.769 0.632,-0.991c0.4,-0.355 0.881,-0.325 0.584,-1.045c-0.341,-0.093 -0.556,-0.087 -0.787,-0.006" style="fill:#6eb0de;"/><path d="M41.502,28.478c-0.762,0.261 -1.232,0.123 -1.787,0.707c-0.412,0.435 -0.628,0.812 -1.007,1.234c-0.37,0.413 0.149,0.218 0.466,0.216c0.592,-0.002 1.064,0.196 1.468,0.645c0.314,0.346 0.297,0.439 0.183,0.784c-0.744,0.264 -0.903,-0.445 -1.626,-0.309c-0.719,0.135 -1.022,0.619 -1.492,0.955l0.129,0.494c1.051,-0.198 2.353,1.167 1.619,1.438c-0.519,0.188 -1.498,-1.015 -2.566,0.181c-0.583,0.649 -0.371,1.133 -1.087,1.312c-0.287,-0.222 -0.321,-0.359 -0.281,-0.781c0.114,-1.18 1.04,-1.663 1.354,-1.978c-0.272,-0.351 -0.571,-0.316 -1.005,-0.356c-0.42,-0.04 -0.767,0.007 -1.187,-0.037c-0.316,-0.03 -0.882,-0.134 -0.717,-0.61c0.154,-0.443 0.822,-0.368 1.214,-0.48c-0.127,-0.697 0.253,-1.326 0.591,-1.785c-0.219,-0.34 -0.722,-0.64 -1.14,-0.683c-0.689,-0.069 -1.206,0.596 -1.593,0.334c-0.489,-0.323 0.096,-0.894 0.385,-1.093c0.523,-0.366 0.984,-0.378 1.551,-0.374c0.267,-0.293 0.325,-0.57 0.988,-0.96c-1.722,-1.262 -2.594,-0.642 -2.96,-0.661c-0.312,-0.018 -0.409,-0.316 -0.255,-0.572c0.527,-0.875 1.965,-0.669 2.177,-0.551c0.102,-0.151 0.158,-0.289 0.299,-0.439c0.135,-0.136 0.326,-0.22 0.399,-0.376c-0.303,-0.365 -0.854,-0.533 -1.316,-0.673c-1.025,-0.309 -0.708,-0.842 -0.267,-0.959c0.443,-0.12 1.265,0.038 1.567,0.197c0.98,0.502 0.71,1.07 1.125,1.063c-0.238,-0.74 -0.365,-0.981 -0.261,-1.64c0.199,-1.322 0.916,-1.56 1.149,-1.082c0.113,0.231 0.046,0.494 0.026,0.705c-0.025,0.236 -0.065,0.481 -0.059,0.695c0.005,0.217 0.041,0.512 0.03,0.719c0.241,-0.225 0.755,-1.187 1.738,-1.392c0.742,-0.157 1.208,0.273 0.807,0.681c-0.153,0.154 -0.501,0.275 -0.693,0.403c-0.168,0.107 -0.414,0.362 -0.539,0.498l-0.406,0.52c0.011,0.003 -0.013,0.025 -0.017,0.035c0.446,0.293 0.868,0.46 1.11,1.199c0.359,-0.112 0.718,-0.118 1,-0.025c0.59,0.189 0.352,0.621 0.323,0.716c-0.847,0.362 -1.306,0.321 -1.818,0.968l0.29,0.59c0.539,-0.095 0.575,-0.334 1.328,-0.262c0.31,0.027 0.706,0.139 0.847,0.475c-0.013,0.184 -0.041,0.18 -0.084,0.314m-3.367,-1.637c0.445,-0.581 0.244,-0.337 0.736,-0.826c-0.412,-0.385 -0.776,-0.582 -1.396,-0.592c-0.458,-0.008 -1.335,0.132 -1.66,0.492c0.366,0.263 0.805,0.545 1.089,1.025c0.709,-0.207 0.802,-0.052 1.231,-0.099m0.641,1.587c-0.277,-0.35 -0.304,-0.329 -0.753,-0.233c-0.184,-0.178 -0.019,-0.22 -0.3,-0.25c-0.055,-0.006 -0.392,0.042 -0.461,0.063c-1.295,0.405 -0.831,0.441 -1.37,0.733c0.249,0.235 0.479,0.456 0.616,0.873c0.437,-0.126 0.986,-0.049 1.341,0.212l0.927,-1.398Zm-1.789,3.649c0.297,-0.322 0.46,-0.664 0.854,-0.905c-0.148,-0.226 -0.712,-0.705 -1.167,-0.35c-0.241,0.184 -0.506,0.819 -0.582,1.05c0.387,0.073 0.587,0.096 0.895,0.205" style="fill:#6eb0de;"/><path d="M101.884,76.712c-0.435,0.136 -0.94,0.158 -1.357,0.053c-0.49,-0.119 -0.329,-0.058 -0.366,0.016c-0.029,0.062 0.403,0.154 0.775,0.447c0.339,0.262 0.542,0.588 0.687,1.043c0.39,1.211 -0.223,1.631 -0.629,1.186c-0.201,-0.22 -0.339,-0.646 -0.478,-0.927c-0.268,-0.536 -0.433,-0.536 -0.596,-0.75c-0.171,0.204 -0.323,0.606 -0.746,0.809c0.66,2.049 -0.427,2.554 -0.746,2.273c-0.287,-0.309 0.028,-0.846 -0.109,-1.268c-0.381,-1.187 -0.354,-0.842 -1.013,-1.776c-0.304,0.327 -0.292,0.679 -0.881,1.074c0.414,1.328 -0.711,2.697 -1.18,2.155c-0.387,-0.444 0.578,-1.364 -0.139,-2.204c-0.212,-0.25 -0.376,-0.327 -0.554,-0.502c-0.773,0.593 -0.738,0.708 -1.724,0.858c-0.111,0.447 0.198,1.085 -0.437,1.283c-0.666,0.21 -0.699,-1.824 -0.859,-2.309c-0.074,-0.23 -0.181,-0.353 -0.313,-0.477c-0.247,0.112 -0.298,0.429 -0.463,0.631c-0.157,0.192 -0.396,0.427 -0.58,0.558c-1.285,0.904 -2.21,0.26 -1.258,-0.394c0.212,-0.141 0.493,-0.338 0.67,-0.512c0.464,-0.458 0.616,-1.049 0.407,-1.694c-0.14,-0.432 -0.661,-0.654 -0.355,-1.174c0.222,-0.192 1.319,0.093 1.564,1.584l0.445,0.085c0.343,-0.408 0.728,-0.907 0.799,-1.512c0.081,-0.711 -1.029,-1.518 -0.367,-1.73c0.28,-0.085 0.473,0.024 0.656,0.15c0.202,0.135 0.361,0.266 0.511,0.504c0.124,0.205 0.263,0.424 0.306,0.716c0.021,0.126 0.033,0.256 0.032,0.398c0.002,0.699 0.214,0.178 0.781,-0.328c0.278,-0.25 0.472,-0.512 0.695,-0.801c0.497,-0.634 0.034,-1.935 0.72,-1.813c0.314,0.094 0.494,0.562 0.559,0.989c0.086,0.553 -0.071,0.658 -0.116,1.085c0.189,0.113 0.38,0.179 0.595,0.271c0.21,-0.2 0.524,-0.756 0.589,-1.031c0.094,-0.403 -0.1,-0.995 0.569,-1.019c0.474,0.087 0.467,1.027 0.495,1.343c0.4,0.103 0.762,0.272 1.024,0.603c0.097,0.119 0.166,0.25 0.289,0.34c0.851,-0.65 1.092,-1.671 1.201,-1.817c0.225,-0.3 0.576,-0.228 0.682,0.101c0.177,0.552 0.155,0.971 -0.205,1.524c-0.368,0.566 -0.679,0.745 -0.788,0.938c0.785,0.21 2.22,-0.787 2.315,0.096c0.048,0.432 -0.802,0.828 -1.107,0.925m-3.171,1.063c0.191,-0.448 0.455,-1.196 0.248,-1.83c-0.163,-0.511 -0.261,-0.832 -0.759,-1.168c-0.182,0.299 -0.43,0.607 -0.769,0.841c0.182,0.562 0.148,0.734 0.147,1.217c0.211,0.148 0.369,0.188 0.595,0.406l0.538,0.534Zm-2.866,0.295c-0.126,-0.154 -0.248,-0.248 -0.388,-0.325c-0.2,-0.115 -0.336,-0.106 -0.468,-0.182l-0.04,-0.147c-0.021,-0.161 0.009,-0.335 -0.07,-0.578c-0.076,-0.237 -0.238,-0.389 -0.32,-0.578c0.14,-0.17 0.474,-0.387 0.627,-0.518c0.213,-0.179 0.445,-0.412 0.592,-0.576c0.133,0.081 0.35,0.204 0.38,0.396c0.019,0.136 -0.057,0.163 0.044,0.336c0.117,0.187 0.03,-0.012 0.241,0.16c-0.053,0.351 0.075,0.234 -0.117,1.082c-0.078,0.348 -0.212,0.697 -0.481,0.93m-3.105,0.2c0.903,-0.363 1.54,-1.034 0.506,-1.814c-0.129,0.122 -0.233,0.325 -0.37,0.488c-0.179,0.206 -0.275,0.277 -0.458,0.438l0.322,0.888Z" style="fill:#6eb0de;"/><path d="M132.745,8.202l0.104,0.324c-0.31,0.628 -0.939,0.64 -1.513,1.22c0,0 -0.075,0.09 -0.079,0.099c-0.105,0.147 -0.006,-0.038 -0.069,0.127c1.209,-0.088 1.621,0.093 2.37,0.758l0.163,0.506c-0.36,0.57 -0.789,0.098 -1.237,-0.028c-0.221,-0.062 -1.154,-0.205 -1.449,-0.092c0.198,0.634 0.04,1.157 -0.17,1.586c0.13,0.14 0.891,0.853 0.572,1.286c-0.437,0.428 -0.804,-0.128 -1.077,-0.324c-0.25,-0.174 -0.803,-0.307 -1.172,-0.315c-0.063,0.131 -0.212,0.511 -0.231,0.62c0.506,0.268 1.073,0.724 1.206,1.364c0.074,0.336 0.046,0.413 -0.277,0.528c-0.408,0.045 -0.702,-0.736 -1.62,-0.897c-0.33,-0.064 -1.777,-0.144 -1.977,-0.047l0.028,0.144c0.073,0.111 0.624,0.398 0.742,1.336c0.12,0.891 -0.394,1.375 -0.704,1.079c-0.369,-0.357 -0.031,-0.981 -0.799,-1.53c-0.412,-0.29 -1.059,-0.324 -1.495,-0.4c-0.108,0.143 -0.165,0.241 -0.273,0.342c0.908,1.317 0.413,2.403 -0.114,2.211c-0.441,-0.158 -0.105,-1.633 -1.6,-1.904c-0.846,-0.151 -1.675,0.436 -1.866,-0.139c-0.191,-0.565 1.21,-1.113 2.213,-0.952c0.212,0.036 0.421,0.149 0.592,0.175c0.41,-0.683 -1.482,-2.035 -1.235,-2.685c0.068,-0.183 0.301,-0.269 0.504,-0.224c0.394,0.088 0.526,0.428 0.851,0.649c0.681,-0.505 1.115,-0.523 1.842,-0.607c-0.018,-0.561 0.255,-1.402 -0.927,-1.863c-0.963,-0.378 -0.614,-1.297 0.764,-0.817c0.451,0.16 0.776,0.508 1.088,0.977c0.56,-0.168 0.922,0.047 1.328,0.117c0.094,-0.419 -0.144,-1.211 -0.336,-1.621c-0.125,-0.268 -0.235,-0.467 -0.439,-0.637c-0.179,-0.148 -0.488,-0.295 -0.558,-0.522c-0.144,-0.452 0.456,-0.661 1.145,-0.289c0.479,0.256 0.665,0.604 0.985,1.177c0.983,-0.077 0.607,0.044 1.071,0.072c0.25,-0.88 -0.766,-1.902 -0.303,-2.28c0.648,-0.525 1.671,1.1 1.412,2.182c-0.169,0.696 -0.275,0.329 -0.186,0.671c0.197,-0.076 0.287,-0.394 0.459,-0.575c0.537,-0.564 1.545,-1.179 2.267,-0.802m-4.453,2.452c-0.019,0.278 -0.063,0.439 -0.145,0.638c0.304,0.329 0.563,0.5 0.81,0.996c0.414,-0.112 0.793,-0.011 1.151,0.025c0.003,-0.146 0.013,-0.526 -0.047,-0.714c-0.313,-0.974 -1.267,-1.709 -1.762,-1.718l-0.007,0.773Zm-2.189,1.024c0.654,0.067 0.951,0.261 1.456,0.655c0.642,0.501 0.245,0.32 0.314,0.638c0.075,0.329 0.401,0.024 0.264,0.798c-0.482,-0.033 -1.133,0.001 -1.691,0.13c-0.106,-0.793 -0.317,-0.866 -0.643,-1.249c0.231,-0.642 0.092,0.032 0.3,-0.972m-0.689,2.963c0.113,-1.213 -0.467,-1.286 -1.682,-0.904c0.142,0.228 0.406,0.632 0.378,0.85c0.54,-0.054 0.853,0.042 1.304,0.054" style="fill:#6eb0de;"/><path d="M72.911,1.132l0.372,-0.119c0.757,0.37 0.072,0.861 0.3,2.333c0.259,-0.197 0.273,-0.53 0.972,-1.018c0.329,-0.233 1.21,-0.596 1.574,-0.222c0.476,0.485 -0.467,0.786 -0.742,0.981c-0.366,0.262 -0.705,0.712 -0.949,1.004c0.347,0.28 0.721,0.267 1.134,1.154c0.359,0.011 0.655,-0.07 0.964,0.032c0.242,0.075 0.645,0.359 0.359,0.689c-0.223,0.254 -0.694,0.185 -1.027,0.37c-0.342,0.188 -0.538,0.431 -0.813,0.626c0.168,0.271 0.23,0.297 0.335,0.624c0.589,-0.218 0.649,-0.317 1.265,-0.294c0.281,0.007 0.931,0.155 0.888,0.583c-0.104,0.584 -1.103,0.091 -1.863,0.927c-0.218,0.241 -0.38,0.424 -0.605,0.712c-0.118,0.147 -0.159,0.219 -0.276,0.371c-0.089,0.117 -0.23,0.219 -0.23,0.383c0.251,0.095 0.624,-0.188 1.379,0.134c1.142,0.486 1.267,1.672 0.217,1.242c-0.313,-0.126 -0.489,-0.281 -0.837,-0.29c-0.715,-0.025 -1.186,0.66 -1.65,0.981l0.135,0.456c0.814,0.015 1.901,0.506 1.828,1.335c-0.694,0.445 -1.045,-0.445 -1.948,-0.187c-0.869,0.249 -1.104,0.911 -1.385,1.42c-0.447,0.814 -1.094,0.249 -0.692,-0.871c0.339,-0.947 0.702,-1.015 1.241,-1.478c-0.317,-0.741 -3.349,0.049 -2.904,-1.048c0.161,-0.403 0.868,-0.346 1.208,-0.448c-0.063,-0.386 0.041,-0.658 0.122,-0.96c0.086,-0.325 0.264,-0.591 0.486,-0.808c-0.262,-0.368 -0.712,-0.64 -1.147,-0.701c-0.682,-0.091 -1.188,0.594 -1.593,0.344c-0.565,-0.348 0.13,-1.141 1.155,-1.435c0.33,-0.096 0.527,-0.02 0.849,-0.067c0.239,-0.597 0.643,-0.684 0.855,-0.955c-0.446,-0.345 -1.407,-0.804 -1.996,-0.793c-0.25,0.003 -0.696,0.165 -0.9,0.16c-0.846,-0.022 -0.168,-1.637 1.859,-1.145c0.118,-0.12 0.162,-0.246 0.304,-0.399c0.136,-0.149 0.304,-0.227 0.426,-0.38c-0.483,-0.692 -1.611,-0.584 -1.875,-0.964c-0.216,-0.306 -0.096,-0.547 0.22,-0.656c0.723,-0.265 2.2,0.062 2.593,1.239c0.07,-0.057 0.156,0.004 0.032,-0.373c-0.146,-0.453 -0.187,-0.75 -0.145,-1.206c0.057,-0.584 0.298,-0.88 0.505,-1.283m-0.068,5.396c0.189,-0.044 0.508,-0.08 0.677,-0.083c0.198,-0.003 0.431,0.089 0.571,0.004c0.036,-0.019 0.295,-0.375 0.371,-0.455c0.121,-0.126 0.263,-0.255 0.39,-0.37c-0.478,-0.331 -0.36,-0.348 -0.829,-0.483c-0.82,-0.23 -1.534,-0.08 -2.28,0.388c0.373,0.173 0.816,0.579 1.1,0.999m1.053,2.89c0.129,-0.436 0.661,-1.035 0.85,-1.351c-0.086,-0.149 -0.207,-0.193 -0.343,-0.353c-0.423,0.104 -0.407,0.158 -0.571,-0.101l-0.041,-0.06c-0.687,-0.003 -1.556,0.379 -1.921,0.82c0.184,0.12 0.494,0.527 0.608,0.84c0.292,-0.03 0.517,-0.084 0.743,-0.03c0.115,0.029 0.623,0.2 0.675,0.235m-1.821,2.044c0.221,0.114 0.604,0.1 0.892,0.248c0.124,-0.151 0.212,-0.328 0.363,-0.489c0.155,-0.17 0.332,-0.282 0.466,-0.484c-0.878,-0.908 -1.401,-0.278 -1.721,0.725" style="fill:#6eb0de;"/><path d="M52.921,35.268c0.339,0.434 0.67,0.944 0.593,1.51c0.011,0.004 0.042,0.008 0.036,0.01c0,0 0.505,0.12 0.782,0.318c0.225,0.161 0.523,0.605 0.155,0.819c-0.253,0.149 -0.709,-0.015 -0.943,-0.04c-0.334,-0.03 -0.778,0.158 -1.169,0.28c0.059,0.277 0.064,0.451 0.111,0.693c0.606,-0.083 1.062,0.054 1.458,0.33c0.13,0.087 0.443,0.375 0.429,0.601c-0.022,0.327 -0.333,0.35 -0.629,0.283c-0.582,-0.133 -0.875,-0.293 -1.623,0.052c-0.288,0.132 -1.372,0.68 -1.505,0.84c0.175,0.234 0.744,0.087 1.295,0.736c0.26,0.308 0.799,1.368 0.157,1.441c-0.416,0.05 -0.781,-0.725 -1.22,-0.889c-0.528,-0.2 -1.207,0.099 -1.877,0.31l-0.018,0.404c0.075,0.087 0.185,0.146 0.301,0.208c0.894,0.453 1.269,1.802 0.654,1.812c-0.606,0.011 -1.226,-2.009 -3.16,-0.367c-0.255,0.218 -0.493,0.436 -0.848,0.305c-0.54,-0.804 1.166,-2.099 2.084,-2.059c-0.015,-0.386 -0.445,-0.601 -0.794,-0.775c-0.162,-0.084 -0.407,-0.146 -0.54,-0.208c-0.287,-0.129 -1.525,-0.617 -0.931,-1.134c0.3,-0.259 0.82,-0.092 1.214,0.053c0.065,-0.122 0.126,-0.266 0.201,-0.388c0.181,-0.297 0.744,-0.858 1.116,-1.001c-0.243,-0.744 -0.606,-1.168 -1.234,-1.229c-0.48,-0.044 -1.066,0.192 -1.216,-0.276c-0.218,-0.671 1.169,-0.923 1.9,-0.714c0.459,0.134 0.321,0.352 0.784,0.073c0.366,-0.226 0.598,-0.279 1.021,-0.348c-0.304,-0.497 -0.801,-1.082 -1.226,-1.341c-1.01,-0.62 -1.291,-0.036 -1.462,-0.807c0.661,-0.838 1.861,-0.394 2.39,0.073c0.424,-0.153 0.198,-0.242 1.023,-0.404c-0.333,-1.022 -1.137,-0.949 -1.406,-1.776c-0.064,-0.878 2.091,-0.126 2.34,1.269c0.014,0.073 0.029,0.211 0.042,0.282l0.079,0.223c0.086,-0.061 0.094,-0.015 0.096,-0.343c0.001,-0.154 0.001,-0.224 0.032,-0.361c0.061,-0.273 0.13,-0.433 0.244,-0.649c0.825,-1.585 2.182,-1.381 1.345,-0.072c-0.284,0.444 -0.393,0.765 -0.56,1.262c0.439,-0.247 0.752,-0.502 1.391,-0.602c1.365,-0.209 2.322,0.835 0.595,1.002c-0.56,0.056 -1.036,0.379 -1.507,0.594m-0.223,1.559c-0.142,-0.545 -0.744,-0.963 -1.13,-1.117l-0.794,-0.214c-0.294,-0.028 -0.541,-0.019 -0.878,0.042c0.308,0.441 0.416,0.681 0.61,1.285c0.151,0.129 0.419,0.151 0.59,0.219c0.196,0.076 0.375,0.154 0.533,0.282l1.069,-0.497Zm-2.425,3.123c0.516,-0.292 0.839,-0.7 1.443,-0.894c-0.311,-0.593 -0.136,-0.407 -0.646,-0.557c-0.133,-0.288 -0.015,-0.315 -0.31,-0.394c-0.644,-0.169 -1.261,-0.155 -1.868,0.095c0.135,0.454 0.192,0.146 0.233,1.039c0.475,-0.015 0.872,0.312 1.148,0.711m-1.673,1.743c0.205,-0.187 0.794,-0.442 1.138,-0.547c-0.334,-0.913 -0.911,-0.957 -1.525,-0.393c-0.136,0.132 -0.299,0.269 -0.372,0.417c0.296,0.101 0.495,0.284 0.759,0.523" style="fill:#6eb0de;"/><path d="M86.285,59.891c0.047,0.09 -0.059,0.082 0.326,0.096c1.648,0.059 2.533,2.423 1.491,2.294c-0.306,-0.041 -0.77,-0.69 -1.133,-0.987c-0.573,-0.474 -0.321,-0.099 -0.607,-0.331c-0.071,0.431 -0.209,0.679 -0.384,1.001c0.235,0.397 1.001,1.536 0.425,2.233c-0.197,0.24 -0.503,0.262 -0.66,-0.066c-0.122,-0.262 -0.097,-0.563 -0.248,-0.881c-0.199,-0.405 -0.668,-0.789 -1.012,-1.06c-0.213,-0.166 -0.363,-0.329 -0.6,-0.348c-0.054,0.707 -0.217,0.733 -0.433,1.257c0.238,0.542 0.374,0.663 0.361,1.295c-0.008,0.371 -0.063,0.599 -0.223,0.828c-0.091,0.131 -0.076,0.15 -0.162,0.258c-0.266,0.126 -0.438,0.045 -0.596,-0.095c-0.21,-0.461 0.112,-0.912 -0.261,-1.492c-0.226,-0.356 -0.661,-0.673 -1.123,-0.69c-0.345,0.488 -0.426,0.905 -1.366,1.317c0.205,0.459 0.544,1.222 -0.085,1.368c-0.491,0.117 -0.788,-0.737 -1.018,-1.187c-0.337,-0.677 -0.385,-0.867 -0.948,-1.109c-0.211,0.817 -0.072,0.976 -0.734,1.712c-0.174,0.197 -0.559,0.485 -0.88,0.555c-0.499,0.111 -0.492,-0.349 -0.348,-0.63c0.172,-0.32 0.813,-0.835 0.786,-1.692c-0.034,-1.126 -1.532,-1.525 -0.971,-1.992c0.745,-0.298 1.612,0.423 1.932,1.13l0.455,-0.091c0.351,-1.164 0.559,-1.739 -0.369,-2.476c-0.114,-0.088 -0.257,-0.194 -0.317,-0.314c-0.13,-0.24 -0.041,-0.297 0.006,-0.449c0.643,-0.297 1.442,0.21 1.791,0.743c0.165,0.25 0.191,0.535 0.322,0.766c0.143,0.003 0.171,-0.092 0.181,-0.105l0.312,-0.615c0.149,-0.286 0.275,-0.546 0.395,-0.867c0.127,-0.345 0.149,-0.627 0.077,-1.031c-0.078,-0.46 -0.36,-0.775 -0.035,-1.093c0.403,-0.127 0.694,0.201 0.891,0.547c0.321,0.563 0.24,0.987 0.313,1.273c0.297,-0.046 0.465,0.051 0.687,0.016c0.078,-0.279 0.154,-0.521 0.195,-0.84c0.06,-0.408 -0.153,-0.718 -0.136,-1.05c0.012,-0.337 0.683,-0.948 1.217,0.703c1.117,0.082 0.641,0.039 1.569,0.514c0.146,-0.203 0.462,-0.975 0.504,-1.272c0.029,-0.232 -0.067,-1.4 0.601,-1.107c0.598,0.264 0.533,1.436 0.299,2.132c-0.046,0.13 -0.075,0.199 -0.135,0.311c-0.044,0.079 -0.06,0.099 -0.1,0.164l-0.061,0.114c-0.008,0.012 -0.014,0.034 -0.021,0.043l-0.019,0.045c1.138,-0.358 1.628,-1.07 2.052,-0.866c0.643,0.306 -0.191,1.489 -1.476,1.862c-0.194,0.057 -0.221,0.055 -0.385,0.07c-0.303,0.028 -0.263,0.01 -0.342,0.089m-1.098,0.232c0.134,0.412 0.076,0.851 0.088,1.185c-0.196,-0.024 -0.464,-0.22 -0.687,-0.313l-0.554,-0.181c-0.341,-0.123 -0.102,-0.151 -0.407,-0.724c-0.101,-0.188 -0.267,-0.338 -0.213,-0.517c0.027,-0.081 0.248,-0.383 0.334,-0.684l0.081,-0.254c0.583,0.216 1.073,0.612 1.358,1.488m-2.566,2.328c0.262,-0.349 0.174,-1.145 0.067,-1.672c-0.138,-0.682 -0.365,-0.15 -0.516,-0.603c-0.072,-0.223 0.079,-0.149 -0.194,-0.293c-0.143,-0.075 -0.178,-0.075 -0.299,-0.172c-0.193,0.262 -0.256,0.497 -0.414,0.761c-0.149,0.251 -0.306,0.463 -0.456,0.696c0.28,0.316 0.496,0.159 0.796,1.1c0.147,0.035 0.358,0.038 0.526,0.059c0.244,0.037 0.289,0.076 0.49,0.124m-2.851,1.174c0.155,-0.141 0.274,-0.279 0.414,-0.462c0.528,-0.672 0.2,-1.201 -0.558,-1.394c-0.088,0.506 -0.328,0.723 -0.454,1.153l0.567,0.683c0.016,-0.003 0.021,0.014 0.031,0.02" style="fill:#6eb0de;"/><path d="M58.466,19.179c-0.335,-1.046 0.055,-1.441 -0.135,-1.539c-0.705,-0.235 -2.272,2.6 -2.672,1.35c-0.101,-0.314 -0.046,-0.384 0.109,-0.589c0.148,-0.191 0.234,-0.317 0.362,-0.452c-0.142,-0.26 -0.348,-0.395 -0.549,-0.732c-0.191,-0.331 -0.277,-0.642 -0.331,-1.014c-2.307,-0.01 -1.341,1.738 -2.204,1.774c-0.602,0.025 -0.503,-0.992 -0.398,-1.354c0.101,-0.344 0.35,-0.788 0.701,-1.05c-0.084,-1.096 -0.112,-0.058 -0.047,-1.422c-0.77,0.246 -1.659,0.458 -2.124,1.152c-0.101,0.149 -0.222,0.462 -0.329,0.561c-0.222,0.212 -0.522,0.132 -0.609,-0.138c-0.269,-0.839 0.41,-1.63 1.067,-2.018c-0.172,-0.545 -0.133,-0.573 -0.104,-1.052c-0.798,-0.121 -1.112,0.457 -1.834,0.683c-0.411,0.128 -0.661,-0.28 -0.524,-0.603c0.169,-0.396 0.995,-1.077 1.691,-1.159c0.46,-0.056 0.777,0.114 1.073,0.058c-0.295,-0.31 -1.327,-0.356 -1.831,-1.917c-0.118,-0.37 -0.024,-0.559 0.304,-0.663c0.481,-0.15 1.016,1.138 1.76,1.44c-0.817,-2.577 1.619,-3.619 1.049,-1.787c-0.127,0.402 -0.124,1.191 0.062,1.692c0.343,-0.109 0.571,-0.188 0.879,-0.197c0.326,-0.011 0.497,0.11 0.747,0.149c0.598,-1.035 1.441,-0.984 1.376,-0.322c-0.033,0.353 -0.625,0.659 -0.479,1.844l0.659,0.168c0.235,-0.463 0.247,-0.842 0.823,-1.23c0.689,-0.47 1.188,-0.147 0.749,0.508c-0.958,1.423 -0.249,1.772 -0.242,3.184c0.328,-0.008 0.433,-0.671 1.058,-0.869c0.476,-0.151 0.633,-0.249 1.151,-0.15c0.465,0.091 0.545,0.501 0.149,0.734c-0.351,0.204 -0.831,0.177 -1.117,0.743c-0.261,0.525 -0.25,1.009 -0.229,1.661c0.212,0.053 0.193,0.045 0.388,0.167c0.609,-0.411 0.238,-0.354 1.149,-0.642c0.261,-0.081 0.732,-0.075 0.914,0.06c0.373,0.284 0.069,0.581 -0.265,0.715c-2.364,0.933 -0.469,2.745 -0.942,3.312c-0.405,0.483 -1.108,-0.6 -1.255,-1.056m-1.097,-3.799l-0.514,0.1c-0.759,0.196 -0.499,1.137 -0.125,1.685c0.228,-0.09 0.405,-0.329 0.771,-0.474l-0.132,-1.311Zm-0.925,-0.902c-0.051,-0.289 -0.183,-0.565 -0.25,-0.853c-0.058,-0.244 -0.08,-0.51 -0.145,-0.777l-0.549,0.076c-0.042,0.146 -0.072,0.193 -0.169,0.334c-0.318,0.042 -0.202,-0.201 -0.475,0.184c-0.326,0.447 -0.612,1.178 -0.538,1.753c0.213,-0.031 0.365,-0.024 0.555,-0.008c0.235,0.021 0.313,0.084 0.506,0.106c0.21,-0.407 0.475,-0.588 1.065,-0.815m-2.819,-1.284c0.12,-0.171 0.219,-0.35 0.387,-0.533c0.175,-0.19 0.409,-0.242 0.394,-0.528c-0.012,-0.282 -0.09,-0.439 -0.088,-0.77c0.001,-0.219 0.037,-0.211 -0.157,-0.207c-0.977,0.005 -1.976,1.245 -1.99,2.179c0.623,-0.198 0.914,-0.156 1.454,-0.141" style="fill:#6eb0de;"/><path d="M35.991,109.249c0.254,-0.081 0.528,-0.311 0.781,-0.323c0.451,-0.017 0.837,0.634 -0.485,1.354c0.109,0.418 0.14,0.561 0.058,1.01c-0.05,0.293 -0.183,0.361 -0.176,0.653c0.478,0.032 0.891,0.215 1.422,0.17c0.27,-0.025 0.59,-0.158 0.822,-0.099c0.735,0.189 0.145,1.456 -1.811,1.173c-0.281,-0.042 -0.409,-0.141 -0.668,-0.17c0.31,0.501 0.568,0.796 0.936,1.145c0.793,0.749 0.163,1.009 -0.157,0.965c-0.447,-0.058 -0.602,-0.256 -0.881,-0.455c-0.512,-0.373 -0.775,-0.844 -1.001,-1.559c-0.297,0.059 0.006,0.195 -0.049,0.788c-0.045,0.486 -0.135,0.703 -0.398,1.034c-0.079,0.101 -0.158,0.195 -0.228,0.27c-0.116,0.122 -0.486,0.446 -0.622,0.49c-0.337,0.106 -0.664,0.066 -0.69,-0.311c-0.049,-0.652 0.711,-0.647 0.9,-1.956c-0.129,-0.037 -0.397,-0.004 -0.567,-0.027c-0.266,-0.036 -0.297,-0.094 -0.486,-0.152c-0.295,0.281 -0.654,0.716 -1.138,0.867c-0.95,0.3 -1.859,-0.318 -0.617,-0.839c0.68,-0.286 1.319,-1.37 1.413,-2.064c-0.447,-0.063 -0.527,0.125 -1.335,-0.192c-0.511,0.433 -0.462,0.429 -1.051,0.612c-0.514,0.165 -0.962,0.041 -1.336,-0.153c-0.308,-0.712 0.222,-0.621 0.645,-0.752c0.806,-0.255 1.221,-0.607 1.233,-1.597c-0.36,-0.138 -0.592,-0.16 -0.912,-0.373c-0.099,-0.062 -0.277,-0.223 -0.392,-0.322c-0.137,-0.118 -0.183,-0.215 -0.323,-0.342c-0.193,0.09 -0.489,0.318 -0.723,0.392c-0.475,0.15 -0.764,-0.173 -0.664,-0.484c0.14,-0.417 0.992,-0.959 1.388,-1.339c0.283,-0.273 0.49,-0.354 0.458,-0.77c-0.088,-0.04 -0.559,0.007 -0.747,-0.021c-1.667,-0.236 -2.303,-1.487 -1.586,-1.603c0.212,-0.035 0.503,0.137 0.672,0.209c0.801,0.338 1.02,0.367 1.778,0.129c0.527,-0.167 0.866,-1.204 1.068,-1.268c0.325,-0.101 0.49,0.091 0.513,0.383c0.064,0.768 -0.247,1.229 -0.826,1.745c0.072,0.218 0.107,0.228 0.146,0.406c0.85,0.071 0.944,0.156 1.692,-0.079c0.74,-0.233 0.583,-1.268 1.191,-1.263c0.69,0.002 0.493,1.881 -0.89,2.393c0.113,0.21 0.145,0.152 0.374,0.2l1.189,0.282c1.219,0.195 1.215,-0.183 1.821,-0.376c0.801,-0.253 0.671,0.398 0.304,0.847c-0.322,0.399 -0.725,0.509 -1.315,0.694l0.14,0.683c0.165,0.053 0.889,0.067 1.13,-0.005m-1.887,2.936c0.328,-0.102 1.128,-0.716 1.255,-1.19c0.048,-0.182 0.11,-0.37 0.127,-0.562c-0.572,0.085 -0.949,-0.217 -1.143,-0.155c-0.145,0.048 -0.324,0.428 -0.987,0.679c0.096,0.739 -0.173,1.095 -0.204,1.479l0.952,-0.251Zm-2.638,-2.054c0.544,0.07 1.199,-0.07 1.736,-0.377c0.638,-0.361 -0.033,-0.251 0.359,-0.543c0.054,-0.039 0.405,-0.079 0.341,-0.637c-0.972,-0.16 -1.134,-0.388 -1.583,-0.51c-0.472,0.996 -0.554,0.704 -0.937,1.047c0.176,0.541 0.075,0.596 0.084,1.02m-0.418,-2.162c0.307,-0.101 0.355,-0.634 0.433,-0.888c-0.186,-0.072 -0.412,-0.056 -0.626,-0.092c-0.263,-0.045 -0.394,-0.123 -0.625,-0.154c-0.175,0.187 -0.173,0.305 -0.564,0.697c0.137,0.171 0.885,0.592 1.382,0.437" style="fill:#6eb0de;"/><path d="M92.538,98.188l-0.415,0.132c-0.742,-0.61 -0.069,-0.939 -0.845,-2.195c-0.147,0.122 -0.279,0.25 -0.413,0.343c-0.151,0.107 -0.325,0.171 -0.511,0.293c0.079,0.784 -0.195,1.944 -1.16,2.067c-0.299,-0.23 -0.358,-0.337 -0.196,-0.712c0.111,-0.247 0.231,-0.418 0.254,-0.77c0.027,-0.415 -0.204,-1.612 -0.548,-1.899c-0.256,0.367 -0.647,0.57 -1.092,0.797c0.057,1.071 -0.968,1.991 -1.465,1.904c-0.775,-0.223 0.084,-1.062 0.208,-1.353c0.254,-0.597 -0.009,-1.145 -0.38,-1.625c-0.924,0.314 -0.733,0.421 -1.894,0.33c-0.207,0.418 -0.109,1.083 -0.874,1.086c-0.501,-0.151 -0.133,-1.842 -0.098,-2.326c0.027,-0.375 -0.007,-0.417 -0.222,-0.71c-0.472,0.407 -0.567,0.666 -1.296,0.901c-1.452,0.469 -2.198,-0.39 -0.933,-0.789c2.469,-0.773 1.089,-2.375 1.408,-2.853c0.232,-0.34 1.247,0.022 1.186,1.869c0.203,0.067 0.216,0.025 0.356,0.204c0.26,-0.163 0.798,-0.607 0.976,-0.851c0.72,-0.969 -0.097,-1.475 0.137,-1.983c0.307,-0.662 1.472,0.385 1.245,1.754c-0.032,0.191 -0.223,0.501 -0.051,0.524c0.005,0 1.746,-0.717 2.163,-1.571c0.146,-0.307 0.207,-0.997 0.642,-0.998c0.553,0.031 0.479,1.193 0.231,1.664c-0.1,0.194 -0.171,0.279 -0.283,0.478c0.246,0.164 0.272,0.185 0.524,0.437c1.402,-1.155 0.826,-1.149 1.152,-1.523c0.28,-0.323 0.621,-0.21 0.74,0.265c0.099,0.394 0.016,0.705 -0.128,0.985c0.633,0.681 0.385,-0.048 0.971,1.321c0.284,-0.07 0.965,-0.544 1.152,-0.726c0.262,-0.257 0.501,-0.936 1.026,-0.734c0.532,0.291 0.08,1.732 -1.519,2.394l0.306,0.113c0.106,0.021 0.232,0.034 0.354,0.059c0.27,0.05 0.49,0.056 0.746,0.063c0.258,0.008 0.498,-0.017 0.666,0.122c0.543,0.441 -0.172,1.084 -1.566,0.956c-0.691,-0.06 -1.061,-0.432 -1.295,-0.474c0.006,0.262 0.245,0.274 0.483,0.542c0.16,0.185 0.383,0.535 0.446,0.836c0.131,0.577 0.03,1.229 -0.188,1.653m-2.447,-2.397c0.313,-0.156 0.641,-0.954 0.731,-1.312c0.18,-0.698 0.062,-0.958 -0.277,-1.691c-0.141,0.045 -0.34,0.224 -0.495,0.313c-0.18,0.1 -0.344,0.205 -0.541,0.27c0.08,0.426 -0.101,0.84 -0.194,1.204c0.309,0.322 0.611,0.702 0.776,1.216m-2.751,-0.548c0.517,-0.329 0.743,-0.808 0.941,-1.26c0.314,-0.719 0.026,-0.443 -0.038,-0.754c-0.084,-0.405 0.299,0.06 -0.134,-0.78c-0.594,0.265 -0.868,0.463 -1.569,0.687c0.308,0.985 0.189,0.602 0.044,1.393c0.144,0.119 0.259,0.143 0.414,0.306c0.129,0.13 0.191,0.288 0.342,0.408m-3.19,-1.601c0.098,0.308 0.102,0.878 0.14,0.924c0.354,0.052 0.952,-0.24 1.158,-0.466c0.268,-0.29 0.086,-0.816 -0.182,-1.082c-0.181,0.067 -0.347,0.228 -0.517,0.335c-0.189,0.117 -0.345,0.207 -0.599,0.289" style="fill:#6eb0de;"/><path d="M102.809,18.861c-0.768,0.239 -0.722,0.189 -1.417,0.533c0.176,0.09 0.348,0.101 0.551,0.175c0.35,0.127 0.363,0.08 0.562,0.237c0.38,0.297 1.21,0.76 0.941,1.62c-0.838,0.394 -0.729,-0.67 -2.438,-0.944c-0.085,0.171 -0.082,0.539 -0.193,0.788c-0.121,0.278 -0.249,0.455 -0.488,0.642c0.041,0.12 0.673,1.135 0.163,1.461c-0.519,0.323 -0.642,-0.495 -1.245,-0.924c-0.162,-0.116 -0.534,-0.32 -0.715,-0.34c-0.11,0.135 -0.235,0.322 -0.386,0.502c0.211,0.424 0.392,0.192 0.717,1.185c0.149,0.475 -0.011,1.232 -0.536,0.842c-0.302,-0.226 -0.145,-0.449 -0.824,-1.062c-0.366,-0.328 -1.152,-0.498 -1.716,-0.679c-0.221,-0.071 -0.377,-0.161 -0.554,-0.021c0.411,0.357 0.546,1.322 0.305,1.912c-0.261,0.637 -0.468,0.659 -0.836,0.547c-0.306,-0.846 0.071,-0.666 -0.185,-1.468c-0.202,-0.627 -1.166,-0.851 -1.49,-1.128c-0.176,0.132 -0.195,0.178 -0.404,0.259l0.024,0.1c0.249,0.769 0.275,1.795 -0.491,2.08c-0.686,-0.183 -0.234,-0.84 -0.399,-1.347c-0.116,-0.366 -0.246,-0.616 -0.578,-0.845c-0.187,-0.129 -0.425,-0.253 -0.664,-0.303c-0.483,-0.095 -1.465,-0.036 -1.374,-0.572c0.049,-0.279 0.485,-0.372 0.747,-0.455c0.607,-0.19 1.444,0.069 1.935,0.415l0.281,0.132c0.315,-0.516 -0.042,-0.938 -0.247,-1.568c-0.114,-0.358 -0.523,-1.29 -0.096,-1.425c0.606,-0.193 0.776,0.39 1.049,0.868c0.436,-0.053 0.588,-0.198 1.049,-0.199c0.361,-0.003 0.598,0.095 0.88,0.123c0.162,-0.42 0.409,-0.731 0.208,-1.352c-0.133,-0.416 -0.503,-0.618 -0.738,-0.861c-0.589,-0.597 0.332,-1.19 1.263,-0.272c1.022,1.001 0.101,0.956 0.947,1.171c0.5,0.126 0.674,0.355 0.982,0.429c0.208,-0.717 0.235,-1.408 -0.001,-2.147c-0.094,-0.288 -0.943,-1 -0.236,-1.22c0.449,-0.146 1.119,0.464 1.294,1.002l0.218,0.781c0.941,0.279 0.354,0.118 1.017,0.388c0.127,-0.317 0.234,-0.585 0.193,-1.032c-0.07,-0.703 -0.136,-0.594 0.034,-1.17l0.264,-0.092c0.645,-0.191 1.274,1.855 0.446,2.763c-0.183,0.202 -0.234,0.14 -0.183,0.384c0.281,-0.145 0.983,-1.02 2.312,-0.87c0.332,0.034 0.551,0.053 0.658,0.392c0.122,0.371 -0.246,0.451 -0.606,0.565m-3.101,2.508c-0.428,-0.237 -0.723,-0.24 -1.07,-0.391c-0.186,-0.577 -0.299,-0.68 -0.518,-1.15c0.331,-0.226 0.437,-0.879 0.541,-1.316c0.87,0.458 1.572,1.969 1.047,2.857m-2.281,0.836c0.229,-0.837 0.153,-0.248 -0.019,-0.776c-0.069,-0.218 -0.007,-0.135 0.109,-0.26c-0.192,-0.668 -0.98,-1.447 -1.505,-1.526c-0.02,0.241 -0.047,0.311 -0.176,0.466c-0.114,0.146 -0.195,0.254 -0.349,0.37c0.128,0.244 0.259,0.432 0.3,0.706c0.042,0.31 -0.024,0.431 -0.003,0.645c0.188,0.085 0.912,0.147 1.241,0.254c0.161,0.054 0.241,0.105 0.402,0.121m-2.868,0.065c0.119,-0.331 0.326,-0.893 -0.133,-1.156c-0.168,-0.097 -0.355,-0.134 -0.607,-0.167c-0.219,-0.03 -0.469,0.005 -0.635,-0.026c0.108,0.473 0.138,0.513 0.155,0.971c0.286,0 1.056,0.271 1.22,0.378" style="fill:#6eb0de;"/><path d="M41.838,94.587c1.742,-0.307 1.645,-0.947 2.171,-0.947c0.255,-0.001 0.384,0.163 0.372,0.42c-0.024,0.491 -0.337,0.797 -0.755,1.077c-0.676,0.457 -1.242,0.416 -1.437,0.54c0.28,0.256 0.875,0.457 1.29,0.559c1.397,0.351 0.677,1.456 -1.115,0.827c-0.103,-0.034 -0.06,-0.023 -0.177,-0.076c-0.083,-0.035 -0.116,-0.044 -0.175,-0.076c-0.104,-0.06 -0.157,-0.13 -0.275,-0.215c-0.097,-0.071 -0.172,-0.128 -0.274,-0.229c-0.177,-0.18 -0.174,-0.181 -0.256,-0.159l0.092,0.234c0.055,0.088 0.085,0.106 0.15,0.211c0.763,1.245 -0.208,3.155 -0.809,2.553c-0.435,-0.435 0.204,-1.198 -0.198,-2.267c-0.414,0.181 -0.531,0.35 -1.03,0.334c-0.574,2.137 -1.711,1.81 -1.833,1.574c-0.26,-0.513 1.156,-0.822 0.617,-3.251c-0.362,0.277 -0.722,0.403 -1.202,0.47c-0.245,0.071 -0.001,0.377 -0.71,1.027c-0.279,0.253 -0.893,0.612 -1.284,0.453c-0.771,-0.311 0.367,-1.038 0.521,-1.237c0.417,-0.533 0.32,-0.878 0.055,-1.702c-0.637,0.2 -0.992,0.128 -1.507,0.001c-0.16,-0.04 -0.28,-0.091 -0.415,-0.119c-0.322,0.426 -0.434,1.047 -1.174,0.784c-0.179,-0.378 -0.056,-0.62 0.034,-0.901c0.054,-0.174 1.122,-2.457 0.344,-2.007c-1.804,1.039 -3.334,0.013 -2.609,-0.449c0.275,-0.172 1.956,0.033 2.402,-1.019c0.083,-0.196 0.146,-0.508 0.145,-0.78c-0.005,-1.217 0.648,-0.794 0.845,-0.309c0.359,0.884 0.061,1.248 -0.034,1.706c0.098,0.08 0.205,0.18 0.313,0.278c0.636,-0.153 1.393,-0.571 1.597,-1.04c0.246,-0.558 -0.179,-1.527 0.545,-1.493c0.44,0.12 0.618,0.947 0.602,1.401c-0.029,0.763 -0.46,0.951 -0.433,1.214c0.245,0.07 1.913,-0.444 2.139,-0.584c0.302,-0.188 0.477,-0.393 0.615,-0.629c0.651,-1.084 1.177,-0.346 0.807,0.586c-0.17,0.429 -0.321,0.549 -0.715,0.917c0.072,0.19 0.248,0.402 0.358,0.584c0.471,-0.123 0.912,-0.397 1.151,-0.707c0.229,-0.298 0.422,-0.687 0.887,-0.462c0.33,0.485 -0.019,1.059 -0.236,1.375c0.134,0.27 0.28,0.302 0.419,0.713c0.118,0.357 0.117,0.581 0.182,0.82m-2.411,1.831c0.633,-0.197 1.658,-1.608 1.187,-2.791c-0.22,0.036 -0.317,0.134 -0.522,0.194c-0.861,0.249 -0.394,-0.116 -0.81,0.685c-0.108,0.213 -0.173,0.335 -0.319,0.52c0.353,0.823 0.33,1.04 0.464,1.392m-1.024,-2.666c-0.195,-0.255 -0.235,-0.172 -0.008,-0.472c0.131,-0.166 0.125,-0.106 -0.044,-0.617c-0.63,0.175 -1.082,0.235 -1.679,0.279c0.033,0.653 0.026,0.864 -0.342,1.318c0.255,0.356 0.351,0.369 0.524,0.907c0.342,-0.066 0.777,-0.402 0.973,-0.6c0.339,-0.345 0.443,-0.642 0.576,-0.815m-3.234,-0.091c0.541,-0.171 0.488,-0.69 0.314,-1.223c-1.349,0.562 -1.174,0.116 -1.289,0.808c-0.038,0.216 -0.071,0.294 -0.102,0.507c0.449,0.007 0.644,0.045 1.077,-0.092" style="fill:#6eb0de;"/><path d="M128.729,28.107c-0.561,0.177 -0.565,0.15 -1.072,0.398c0.112,0.364 0.15,0.555 0.076,0.888c-0.062,0.297 -0.221,0.402 -0.476,0.612c0.948,0.808 0.753,2.6 0.006,2.194c-0.346,-0.189 -0.289,-0.943 -0.779,-1.326c-0.256,-0.197 -0.853,-0.463 -1.216,-0.494c-0.005,0.35 -0.062,0.485 -0.142,0.79c-0.117,0.444 -0.236,0.349 -0.353,0.7c0.196,0.159 0.357,0.536 0.441,0.796c0.425,1.326 -0.875,2.383 -0.943,0.973c-0.034,-0.67 -0.112,-0.784 -0.559,-1.241c-0.178,-0.183 -0.295,-0.23 -0.51,-0.342l-0.421,-0.187c-0.167,-0.046 -0.002,-0.018 -0.195,-0.033c-0.006,0.464 -0.257,0.708 -0.382,1.047c0.105,0.176 0.343,0.36 0.497,0.566c0.552,0.718 0.836,1.919 -0.25,2.262c-0.694,0.218 -0.199,-0.656 -0.311,-1.003c-0.297,-0.924 -1.379,-1.37 -2.228,-1.535c-0.366,-0.074 -0.611,0.016 -0.766,-0.461c-0.009,-0.208 0.246,-0.344 0.453,-0.408c0.668,-0.212 1.307,0.051 1.8,0.141c0.152,-0.399 0.352,-1.583 -0.277,-1.938l-0.472,-0.169c-0.247,-0.04 -0.898,-0.009 -0.983,-0.272l-0.016,-0.051c-0.044,-0.136 -0.021,-0.172 0.067,-0.261l0.16,-0.136c0.012,-0.012 0.043,-0.049 0.059,-0.063c0.171,-0.144 0.471,-0.205 0.72,-0.216c0.484,-0.018 0.806,0.081 1.136,0.267c0.475,-0.319 0.74,-0.578 1.427,-0.786c-0.244,-0.381 -0.522,-0.484 -0.798,-0.657c-0.122,-0.074 -0.868,-0.776 -0.222,-0.982c0.503,-0.157 1.074,0.136 1.362,0.351c0.567,-0.314 0.906,-0.606 1.766,-0.572c0.261,0.009 0.49,0.186 0.096,-0.797c-0.166,-0.419 -0.303,-0.43 -0.163,-0.907l0.615,-0.194c0.726,0.571 0.956,1.4 0.78,2.294c0.11,0.092 0.349,0.294 0.47,0.348c1.613,-1.375 2.62,-0.462 2.598,0.017c-0.019,0.468 -0.745,0.309 -0.995,0.387m-4.456,0.679c0.101,0.225 0.202,0.042 0.567,0.439c0.157,0.169 0.084,0.165 0.307,0.173c0.31,0.015 0.49,-0.021 0.797,0.02c0.282,0.041 0.506,0.176 0.718,0.194c0.446,-0.643 -0.432,-1.256 -0.794,-1.373c-0.995,-0.309 -1.027,-0.206 -1.698,0.087c0.025,0.095 0.095,0.444 0.103,0.46m-0.269,2.424c0.219,-0.281 0.27,-1.119 -0.093,-1.274c-0.449,-0.189 -1.031,0.149 -1.485,0.302l0.205,0.759c0.805,-0.141 0.998,0.19 1.373,0.213" style="fill:#6eb0de;"/><path d="M139.921,61.216c0.013,0.073 0.917,1.558 0.461,1.954c-0.598,0.521 -0.935,-0.72 -1.354,-1.135c-0.189,0.279 -0.233,0.676 -0.688,0.849c0.066,0.335 0.104,0.423 0.005,0.725c-0.155,0.48 -0.763,0.777 -0.939,0.231c-0.143,-0.442 0.167,-0.408 -0.392,-0.828c-0.277,-0.205 -0.513,-0.378 -0.78,-0.477c-0.121,0.116 -0.265,0.254 -0.43,0.361l-0.573,0.339c-0.079,0.056 0.035,0.952 -0.747,1.085c-0.602,-0.64 -0.036,-2.144 -1.13,-2.481c-0.223,0.396 -0.178,0.8 -0.681,1.189c-0.438,0.337 -1.131,0.378 -1.349,-0.094c0.07,-0.521 0.458,-0.325 0.726,-0.778c0.263,-0.448 0.2,-0.921 0.049,-1.385c-0.103,-0.326 -1.261,-0.751 -0.743,-1.164c0.232,-0.305 0.881,-0.066 1.072,0.035c0.355,0.196 0.54,0.422 0.762,0.856c0.595,-0.367 1.234,-0.696 1.473,-1.315c0.077,-0.194 0.099,-0.456 0.381,-0.543c0.714,-0.225 0.55,0.937 0.546,1.088l0.755,0.311c0.311,-0.204 0.6,-0.395 0.801,-0.686c0.273,-0.395 -0.181,-0.78 0.418,-0.969c0.403,-0.127 0.611,0.375 0.707,0.671c0.143,0.452 -0.141,0.441 0.158,0.705c0.248,0.22 0.384,0.403 0.499,0.731c0.379,-0.1 1.163,-0.629 1.302,-0.914c0.118,-0.243 0.022,-0.504 0.141,-0.7c0.38,-0.646 1.348,0.342 0.73,1.406c-0.214,0.372 -0.623,0.749 -1.18,0.933m-2.089,0.918c0.22,-0.57 0.111,-1.414 -0.103,-1.585c-0.187,-0.147 -0.255,0.136 -0.83,0.345c0.031,0.606 -0.056,0.512 -0.048,0.75l0.718,0.368c0.192,0.112 0.052,0.077 0.263,0.122m-2.735,0.004c1.503,-1.344 0.023,-1.581 -0.128,-1.473l-0.646,0.468c0.307,0.368 0.5,0.355 0.774,1.005" style="fill:#6eb0de;"/><path d="M138.274,37.956c-0.076,0.301 -0.181,0.324 -0.34,0.586c0.682,0.629 0.817,0.969 1.086,1.806c0.105,0.327 -0.057,0.736 -0.469,0.803c-0.827,0.131 -0.094,-0.686 -1.502,-1.837c-0.479,-0.391 -0.492,-0.329 -1.058,-0.53c-0.137,0.427 -0.465,0.502 -0.663,0.772c0.842,1.665 0.249,3.143 -0.781,2.851c-0.34,-0.776 0.502,-0.644 -0.07,-1.97c-0.249,-0.575 -0.614,-1.146 -1.045,-1.422c-0.117,0.152 -0.145,0.27 -0.289,0.443c-0.154,0.186 -0.271,0.238 -0.406,0.385c0.262,0.399 0.52,0.865 0.311,1.36c-0.074,0.18 -0.307,0.417 -0.591,0.421c-0.499,-0.093 0.014,-0.839 -1.16,-1.502c-0.162,-0.094 -0.324,-0.118 -0.547,-0.19c-0.207,-0.071 -0.355,-0.157 -0.448,-0.453c-0.104,-0.324 0.267,-0.41 0.46,-0.472c0.403,-0.125 0.946,0.151 1.266,0.23c0.179,-0.233 0.367,-0.644 0.396,-1.011c0.052,-0.748 -0.356,-0.61 -0.468,-1.137c0.737,-0.83 1.441,0.128 1.56,0.645l0.057,0.393c0.203,0.079 0.46,0.092 0.63,0.207c0.199,0.131 0.378,0.337 0.569,0.456c0.151,-0.145 0.368,-0.589 0.265,-0.914c-0.179,-0.547 -0.835,-0.727 -1.202,-0.914c-0.572,-0.283 -0.867,-1.002 0.021,-0.956c0.512,0.027 1.067,0.293 1.423,0.499c0.421,0.247 0.838,0.691 0.9,1.346l0.964,0.196c0.257,-0.598 0.194,-0.637 0.019,-1.181c-0.113,-0.36 -0.418,-0.756 -0.609,-1.087c-0.255,-0.443 -0.426,-0.75 0.226,-0.963c0.367,0.041 0.711,0.474 0.952,0.786c0.336,0.44 0.451,0.749 0.632,1.255c0.431,-0.128 1.131,-0.122 1.453,-0.057c1.124,0.224 1.414,1.129 0.63,1.196c-0.227,0.018 -1.387,-0.232 -2.172,-0.04" style="fill:#6eb0de;"/></svg>