<?xml version="1.0" encoding="UTF-8" standalone="no"?><!DOCTYPE svg PUBLIC "-//W3C//DTD SVG 1.1//EN" "http://www.w3.org/Graphics/SVG/1.1/DTD/svg11.dtd"><svg width="100%" height="100%" viewBox="0 0 48 99" version="1.1" xmlns="http://www.w3.org/2000/svg" xmlns:xlink="http://www.w3.org/1999/xlink" xml:space="preserve" xmlns:serif="http://www.serif.com/" style="fill-rule:evenodd;clip-rule:evenodd;stroke-linejoin:round;stroke-miterlimit:2;"><path d="M7.154,20.695c0.171,0.286 0.394,0.959 0.562,1.362c1.584,3.822 2.559,5.756 3.963,10.145c0.645,2.024 1.243,3.943 1.903,5.984c0.427,1.318 1.443,5.188 2.101,5.883c0.315,-0.605 -0.369,-2.498 -0.552,-3.125c-1.452,-4.977 -2.94,-10.356 -5.009,-15.033c-0.549,-1.241 -2.092,-4.924 -2.917,-5.437l-0.051,0.221Z" style="fill:#95c5e7;"/><path d="M21.885,27.729c0.124,-1.034 -0.276,-2.292 -0.49,-3.326c-0.224,-1.069 -0.43,-2.162 -0.693,-3.199c-0.539,-2.123 -0.914,-4.208 -1.483,-6.341c-1.128,-4.227 -2.378,-8.622 -4.043,-11.982c-0.12,0.095 -0.353,-0.016 -0.096,0.766l0.732,2.268c1.974,5.608 3.539,12.842 5,18.759c0.184,0.744 0.556,2.654 1.073,3.055" style="fill:#95c5e7;"/><path d="M26.105,65.141c0.677,0.416 1.3,-0.577 2.432,-1.521c2.846,-2.367 6.598,-5.449 9.518,-7.58c0.831,-0.606 6.868,-4.996 7.214,-5.539c-1.077,0.021 -8.412,5.521 -9.959,6.701c-1.083,0.827 -8.965,6.904 -9.205,7.939" style="fill:#95c5e7;"/><path d="M29.129,41.248c0.214,-0.087 0.046,0.016 0.226,-0.126c0.106,-0.083 0.152,-0.14 0.23,-0.236l1.125,-1.697c1.483,-2.401 2.788,-4.497 4.416,-6.825l4.59,-6.399c0.554,-0.726 1.201,-1.419 1.579,-2.265c-0.782,-0.055 -1.258,0.816 -1.911,1.599c-0.591,0.709 -1.069,1.315 -1.63,2.063c-2.009,2.679 -8.113,11.42 -8.625,13.886" style="fill:#95c5e7;"/><path d="M11.601,70.285c0.208,-0.752 -1.305,-3.912 -1.621,-4.597c-0.852,-1.847 -2.183,-4.78 -3.204,-6.441c-0.226,-0.369 -0.305,-0.667 -0.541,-1.027c-0.75,-1.158 -2.485,-4.528 -3.482,-5.056c0.042,0.895 2.709,4.985 3.356,6.409l2.18,4.266c0.399,0.797 0.675,1.349 1.051,2.158c0.335,0.724 0.685,1.501 1.02,2.18c0.366,0.741 0.638,1.864 1.241,2.108" style="fill:#95c5e7;"/><path d="M2.463,41.716c0.163,0.037 0.263,0.198 0.228,0.36c-0.04,0.163 -0.201,0.265 -0.365,0.228c-0.162,-0.039 -0.263,-0.2 -0.225,-0.36c0.038,-0.164 0.201,-0.265 0.362,-0.228m2.266,-1.836c0.734,0.167 1.19,0.896 1.019,1.628c-0.17,0.734 -0.905,1.191 -1.638,1.026c-0.735,-0.168 -1.19,-0.897 -1.019,-1.63c0.171,-0.731 0.905,-1.19 1.638,-1.024m9.634,-38.872c0.178,-0.111 0.494,0.159 0.898,0.709c0.55,0.745 1.146,1.934 1.743,3.418c2.403,5.971 4.763,16.494 4.306,22.029c-2.283,-3.851 -9.211,-16.407 -7.619,-24.48c0.194,-0.988 0.423,-1.52 0.672,-1.676m-12.842,50.462c0.215,-0.15 0.597,-0.01 1.091,0.349c0.63,0.457 1.363,1.242 2.135,2.253c3.047,3.985 6.561,11.269 6.859,15.708c-2.634,-2.176 -10.881,-9.568 -10.563,-16.617c0.044,-0.974 0.215,-1.511 0.478,-1.693m31.618,-38.728c0.324,0.074 0.528,0.4 0.451,0.724c-0.076,0.326 -0.401,0.529 -0.727,0.455c-0.327,-0.074 -0.529,-0.398 -0.454,-0.724c0.078,-0.324 0.403,-0.53 0.73,-0.455m-4.082,-0.66c0.163,0.037 0.263,0.198 0.226,0.36c-0.038,0.162 -0.201,0.263 -0.362,0.227c-0.163,-0.037 -0.264,-0.198 -0.226,-0.36c0.038,-0.164 0.199,-0.264 0.362,-0.227m2.508,1.639c-0.037,0.162 -0.2,0.263 -0.362,0.227c-0.163,-0.037 -0.264,-0.198 -0.225,-0.361c0.037,-0.162 0.199,-0.264 0.362,-0.226c0.163,0.036 0.264,0.197 0.225,0.36m-0.242,-3.475c0.734,0.167 1.191,0.896 1.019,1.629c-0.171,0.732 -0.905,1.19 -1.638,1.025c-0.734,-0.167 -1.19,-0.896 -1.019,-1.629c0.171,-0.733 0.904,-1.191 1.638,-1.025m-26.576,32.748c0.162,0.037 0.262,0.199 0.224,0.361c-0.037,0.162 -0.2,0.264 -0.362,0.226c-0.163,-0.036 -0.264,-0.197 -0.225,-0.36c0.036,-0.162 0.199,-0.264 0.363,-0.227m1.069,-0.163c0.076,-0.324 0.403,-0.529 0.729,-0.454c0.326,0.073 0.527,0.398 0.452,0.723c-0.075,0.326 -0.402,0.529 -0.729,0.456c-0.325,-0.074 -0.528,-0.398 -0.452,-0.725m3.5,-21.017c3.112,5.871 6.471,16.337 6.274,21.921c-2.684,-3.461 -11.546,-15.637 -10.32,-24.119c0.152,-1.055 0.383,-1.628 0.667,-1.803c0.247,-0.154 0.66,0.104 1.188,0.668c0.67,0.717 1.42,1.878 2.191,3.333m24.458,22c0.162,0.035 0.263,0.196 0.224,0.359c-0.036,0.162 -0.2,0.263 -0.362,0.227c-0.163,-0.037 -0.264,-0.198 -0.225,-0.362c0.038,-0.16 0.201,-0.262 0.363,-0.224m-4.035,31.009c0.327,0.075 0.528,0.397 0.453,0.724c-0.076,0.326 -0.402,0.529 -0.73,0.455c-0.325,-0.073 -0.527,-0.397 -0.451,-0.723c0.075,-0.325 0.402,-0.529 0.728,-0.456m-1.799,0.618c0.163,0.038 0.264,0.199 0.226,0.36c-0.038,0.163 -0.201,0.265 -0.363,0.227c-0.163,-0.036 -0.264,-0.197 -0.226,-0.36c0.038,-0.161 0.201,-0.263 0.363,-0.227m-2.282,-1.278c0.163,0.036 0.264,0.198 0.225,0.359c-0.036,0.164 -0.2,0.265 -0.363,0.228c-0.161,-0.037 -0.263,-0.199 -0.225,-0.359c0.039,-0.163 0.201,-0.265 0.363,-0.228m10.398,-29.072c0.162,0.037 0.263,0.198 0.225,0.361c-0.039,0.161 -0.201,0.263 -0.363,0.226c-0.162,-0.036 -0.263,-0.198 -0.225,-0.36c0.038,-0.163 0.199,-0.264 0.363,-0.227m-0.018,-3.113c0.735,0.165 1.192,0.894 1.019,1.627c-0.171,0.733 -0.905,1.191 -1.638,1.026c-0.734,-0.168 -1.19,-0.897 -1.019,-1.63c0.172,-0.732 0.905,-1.19 1.638,-1.023m-8.114,30.35c0.733,0.166 1.189,0.895 1.019,1.628c-0.171,0.732 -0.904,1.19 -1.639,1.024c-0.734,-0.167 -1.189,-0.895 -1.019,-1.629c0.171,-0.731 0.906,-1.19 1.639,-1.023m-0.744,-7.671c2.285,-4.29 9.575,-10.417 14.732,-13.294c1.29,-0.719 2.436,-1.228 3.32,-1.445c0.713,-0.174 1.201,-0.163 1.365,0.092c0.171,0.266 0.115,0.815 -0.229,1.703c-2.723,7.042 -15.448,11.708 -19.188,12.944m9.945,-19.728c0.078,-0.325 0.404,-0.529 0.729,-0.456c0.326,0.074 0.529,0.398 0.453,0.723c-0.077,0.326 -0.403,0.53 -0.729,0.456c-0.327,-0.074 -0.528,-0.399 -0.453,-0.723m-7.789,-2.649c0.864,-0.55 14.592,-9.447 14.758,-18.555c0.026,-1.371 -0.283,-2.21 -0.838,-2.609c-0.633,-0.457 -1.488,-0.321 -2.47,0.266c-0.845,0.506 -1.824,1.368 -2.851,2.47c-4.161,4.469 -9.24,13.064 -9.392,17.847c-0.604,0.63 -3.066,3.303 -5.011,6.99c0.574,-4.11 0.589,-7.765 0.36,-10.8c0.281,-11.133 4.474,-18.485 5.507,-20.135c0.378,0.16 0.774,0.278 1.177,0.347c0.935,0.162 1.907,0.064 2.75,-0.334c1.383,-0.656 2.402,-2.097 2.338,-4.501c0,-0.036 -0.003,-0.069 -0.011,-0.103c-0.33,-1.503 -1.056,-2.575 -1.961,-3.25c-0.707,-0.527 -1.522,-0.809 -2.341,-0.863c-0.82,-0.055 -1.643,0.121 -2.369,0.507c-0.905,0.482 -1.659,1.291 -2.064,2.392c-0.78,2.124 -0.12,3.854 1.124,4.954c0.158,0.139 0.325,0.266 0.498,0.384c-0.962,1.553 -4.16,7.234 -5.263,15.828c-0.467,-2.522 -1.008,-4.126 -1.166,-4.57c1.011,-5.241 -1.562,-17.225 -4.198,-23.775c-0.629,-1.562 -1.265,-2.827 -1.862,-3.638c-0.742,-1.006 -1.491,-1.394 -2.202,-0.951c-0.482,0.3 -0.869,1.041 -1.119,2.318c-1.917,9.723 7.856,25.396 8.431,26.308c0.154,0.416 1.336,3.747 1.751,9.064l-0.002,0.03c-0.001,0.042 0.004,0.084 0.012,0.122c0.302,4.026 0.16,9.167 -1.188,15.033c-0.005,0.019 -0.01,0.041 -0.013,0.062c-0.394,1.699 -0.888,3.461 -1.502,5.273l-0.031,0.096c-0.277,-6.384 -3.225,-12.584 -3.716,-13.574c0.754,-5.412 -2.906,-17.177 -6.289,-23.559c-0.812,-1.531 -1.612,-2.765 -2.339,-3.542c-0.872,-0.935 -1.701,-1.277 -2.421,-0.828c-0.536,0.333 -0.928,1.133 -1.125,2.497c-1.46,10.101 10.55,24.927 11.253,25.783c0.343,0.678 4.532,9.179 3.525,16.538c-0.434,1.312 -0.848,2.593 -1.24,3.844c-1.538,-12.084 -8.107,-19.028 -9.356,-20.253c0.404,-0.736 0.635,-1.685 0.603,-2.865c0.001,-0.035 -0.003,-0.068 -0.01,-0.103c-0.33,-1.501 -1.058,-2.573 -1.963,-3.248c-0.706,-0.528 -1.52,-0.809 -2.339,-0.864c-0.821,-0.055 -1.643,0.121 -2.369,0.507c-0.906,0.482 -1.659,1.291 -2.065,2.393c-0.781,2.124 -0.121,3.854 1.124,4.953c0.707,0.625 1.606,1.039 2.532,1.198c0.937,0.162 1.908,0.064 2.751,-0.335c0.427,-0.201 0.817,-0.477 1.152,-0.832c1.5,1.5 8.325,8.986 9.189,21.892c-1.072,3.59 -1.931,6.927 -2.489,10.052c-0.581,-4.001 -1.745,-6.847 -1.995,-7.427c0.191,-4.506 -3.716,-12.848 -7.073,-17.24c-0.824,-1.078 -1.627,-1.931 -2.338,-2.448c-0.847,-0.614 -1.615,-0.779 -2.226,-0.355c-0.517,0.36 -0.84,1.144 -0.899,2.45c-0.381,8.438 10.509,17.116 11.643,17.997c0.35,0.812 2.459,6.001 2.223,12.562c-0.01,0.184 -0.018,0.368 -0.026,0.549l-0.001,0.043l-0.001,0.033c-0.178,4.992 0.748,9.414 3.238,13.482c0.141,0.23 0.441,0.301 0.673,0.159c0.231,-0.143 0.305,-0.442 0.163,-0.672c-1.301,-2.125 -2.154,-4.354 -2.633,-6.725c-0.405,-7.443 7.071,-11.146 8.724,-11.871c0.106,0.115 0.219,0.224 0.336,0.328c0.709,0.624 1.606,1.039 2.533,1.197c0.937,0.163 1.908,0.067 2.751,-0.333c1.382,-0.657 2.403,-2.096 2.338,-4.503c0.001,-0.033 -0.003,-0.067 -0.011,-0.102c-0.329,-1.501 -1.055,-2.573 -1.96,-3.249c-0.707,-0.526 -1.521,-0.807 -2.342,-0.863c-0.819,-0.053 -1.642,0.121 -2.368,0.507c-0.905,0.483 -1.659,1.291 -2.064,2.392c-0.552,1.498 -0.385,2.8 0.196,3.821c-1.717,0.789 -6.909,3.547 -8.594,8.706c-0.028,-0.737 -0.028,-1.487 -0.001,-2.249l0.001,-0.005c0.012,-0.221 0.022,-0.439 0.03,-0.659c0.049,-0.908 0.135,-1.837 0.255,-2.789c0.126,-1 0.289,-2.024 0.485,-3.074c1.532,-6.826 10.137,-11.536 10.812,-11.895c0.929,-0.279 17.536,-5.36 20.818,-13.851c0.466,-1.206 0.48,-2.046 0.138,-2.578c-0.421,-0.657 -1.274,-0.788 -2.415,-0.508c-0.974,0.237 -2.203,0.782 -3.568,1.543c-5.628,3.139 -13.75,10.107 -15.55,14.597c-0.982,0.539 -6.151,3.511 -9.195,8.029c0.397,-1.557 0.848,-3.168 1.347,-4.833c0.009,-0.023 0.015,-0.045 0.021,-0.069c0.454,-1.517 0.945,-3.078 1.47,-4.688c0.14,-0.059 0.25,-0.186 0.286,-0.344c0.087,-0.39 0.158,-0.785 0.215,-1.185l0.396,-1.188l0.014,-0.041c1.907,-5.899 12.136,-11.121 12.165,-11.136c0.149,-0.079 0.244,-0.22 0.263,-0.375c0.548,0.323 1.16,0.547 1.784,0.655c0.937,0.161 1.908,0.063 2.751,-0.336c1.383,-0.655 2.401,-2.096 2.338,-4.5c0,-0.034 -0.003,-0.069 -0.01,-0.103c-0.33,-1.502 -1.057,-2.575 -1.962,-3.249c-0.707,-0.527 -1.521,-0.809 -2.342,-0.863c-0.817,-0.055 -1.641,0.12 -2.368,0.507c-0.905,0.482 -1.658,1.29 -2.064,2.391c-0.78,2.125 -0.121,3.855 1.124,4.954l0.052,0.045l-0.011,0.006c-0.025,0.013 -6.567,3.354 -10.355,7.834c0.332,-1.121 0.62,-2.221 0.868,-3.297c1.729,-5.913 6.192,-10.568 6.661,-11.045m13.345,-20.372c0.293,0.211 0.452,0.783 0.434,1.804c-0.138,7.578 -10.506,15.176 -13.527,17.233c0.608,-4.672 5.234,-12.32 9.062,-16.431c0.963,-1.036 1.87,-1.836 2.638,-2.295c0.63,-0.377 1.119,-0.507 1.393,-0.311" style="fill:#95c5e7;"/><path d="M34.287,32.814c-0.023,-0.144 0.098,-1.165 0.124,-1.386c0.107,-0.921 0.287,-2.035 0.622,-2.907c0.14,-0.364 0.54,-0.975 0.537,-1.176c-0.143,-0.071 -0.235,0.07 -0.32,0.162c-0.069,0.073 -0.179,0.233 -0.236,0.325c-0.847,1.358 -1.13,3.9 -1.11,5.493c0.003,0.34 0.005,0.501 0.067,0.82c-0.198,0.003 -0.755,0.351 -0.901,0.46c-0.184,0.14 -0.641,0.589 -0.517,0.951c0.255,-0.009 0.208,-0.349 0.898,-0.772c0.317,-0.193 0.698,-0.317 1.12,-0.415c0.425,-0.1 0.8,-0.169 1.23,-0.237c0.179,-0.027 0.923,-0.134 1.058,-0.248c0.11,-0.095 0.04,-0.116 0.033,-0.128c-0.103,-0.136 -0.571,-0.049 -0.722,-0.035c-0.312,0.029 -1.802,0.212 -2.001,0.348l0.097,-1.068c0.071,0 0.061,0.07 0.195,-0.075l0.332,-0.373c0.196,-0.2 0.734,-0.44 1.023,-0.569c0.155,-0.068 0.29,-0.106 0.453,-0.175c0.093,-0.04 0.138,-0.045 0.225,-0.075l1.166,-0.337c0.67,-0.14 1.254,-0.288 1.97,-0.425c0.344,-0.063 0.667,-0.125 0.991,-0.182c0.17,-0.031 0.327,-0.063 0.502,-0.1c0.26,-0.06 0.357,-0.093 0.386,-0.242c-0.258,-0.134 -0.783,-0.013 -1.047,0.019c-0.329,0.041 -0.679,0.094 -0.992,0.15c-0.441,0.08 -1.54,0.285 -1.938,0.407c-0.659,0.2 -1.648,0.456 -2.249,0.811c-0.257,0.153 -0.549,0.323 -0.734,0.562c-0.149,0.19 -0.223,0.366 -0.262,0.417" style="fill:#95c5e7;"/><path d="M18.719,13.244c0.079,-0.493 0.003,-0.296 0.153,-0.938c0.119,-0.513 0.399,-1.352 0.371,-1.847c-0.009,-0.131 -0.03,-0.271 -0.073,-0.37c-0.061,-0.144 -0.127,-0.185 -0.217,-0.301c0,0 -0.053,-0.137 -0.156,-0.041c-0.141,0.135 0.052,0.267 0.085,0.542c0.056,0.465 -0.234,1.333 -0.352,1.838c-0.093,0.396 -0.085,0.577 -0.113,0.917c-0.275,-0.162 -0.559,-0.355 -0.823,-0.538c-0.256,-0.18 -0.532,-0.408 -0.723,-0.627c-0.586,-0.673 -0.544,-0.677 -1.028,-1.484c0.119,0.044 0.763,0.515 0.988,0.601c0.299,0.116 0.291,-0.149 -0.26,-0.546l-0.634,-0.454c-0.41,-0.313 -0.866,-0.59 -1.266,-0.91c-0.577,-0.462 -1.521,-1.164 -1.686,-1.913c-0.052,-0.237 -0.044,-0.299 -0.154,-0.335c-0.175,0.128 -0.109,0.537 -0.064,0.699c0.165,0.59 0.804,1.11 1.234,1.513c0.278,0.261 0.752,0.603 1.092,0.829c0.158,0.105 0.474,0.727 0.566,0.955c0.052,0.13 0.469,0.801 0.607,0.947c0.071,0.077 0.138,0.177 0.211,0.263c0.481,0.571 1.596,1.244 2.271,1.607c0.111,0.06 0.238,0.128 0.341,0.162c0.207,0.068 0.267,0.003 0.15,-0.135c-0.143,-0.169 -0.355,-0.274 -0.52,-0.434" style="fill:#95c5e7;"/><path d="M36.619,29.316c0.027,-0.369 -0.011,-0.805 0.001,-1.201c0.073,-2.329 0.937,-2.716 1.17,-3.734c-0.256,-0.018 -0.717,0.816 -0.825,0.997c-0.802,1.335 -0.732,2.204 -0.711,3.63c0.006,0.337 0.018,0.65 0.009,0.994c-0.005,0.157 -0.005,0.339 -0.001,0.496c0.004,0.132 -0.021,0.347 0.098,0.412c0.234,-0.161 0.135,-1.051 0.338,-1.221c0.078,-0.066 0.188,-0.138 0.276,-0.193c0.471,-0.291 0.48,-0.262 0.903,-0.459c0.219,-0.102 0.097,-0.081 0.312,-0.033l2.058,0.247c0.264,0.022 1.555,0.12 1.694,-0.197c-0.146,-0.159 -0.658,-0.117 -0.915,-0.127c-0.442,-0.017 -2.15,-0.239 -2.246,-0.216c0.029,-0.053 0.167,-0.084 0.227,-0.103l1.215,-0.395c0.148,-0.048 0.373,-0.091 0.367,-0.275c-0.04,-0.032 -0.042,-0.039 -0.115,-0.054c-0.189,-0.043 -0.879,0.133 -1.089,0.195c-0.715,0.207 -0.892,0.307 -1.454,0.509c-0.192,0.069 -0.299,0.124 -0.456,0.208c-0.158,0.085 -0.285,0.153 -0.433,0.243l-0.423,0.277Z" style="fill:#95c5e7;"/><path d="M9.442,26.405c0.1,0.084 0.301,0.347 0.492,0.504c0.386,0.319 0.128,-0.421 -0.219,-0.674c0.18,-0.393 0.195,-0.873 0.135,-1.248c-0.137,-0.848 0.239,-3.426 0.02,-3.625c-0.291,-0.264 -0.325,0.9 -0.337,1.044c-0.058,0.701 -0.145,1.776 -0.075,2.455c0.021,0.192 0.07,0.322 0.082,0.551c0.009,0.188 -0.01,0.4 -0.012,0.607c-0.116,-0.088 -0.186,-0.16 -0.268,-0.228l-0.764,-0.579c-0.784,-0.563 -1.325,-0.938 -2.035,-1.57c-0.346,-0.305 -0.396,-0.932 -0.621,-1.002c-0.113,0.19 0.097,0.986 0.321,1.211c0.098,0.097 0.169,0.167 0.29,0.275l1.283,1.05c-0.235,-0.052 -0.489,-0.073 -0.706,-0.089c-0.513,-0.042 -0.77,-0.067 -1.302,-0.048c-0.653,0.025 -0.653,0.337 -0.16,0.345c0.637,0.01 1.533,0.105 2.179,0.169c0.708,0.071 0.705,0.029 1.408,0.618c0.094,0.079 0.196,0.158 0.289,0.234" style="fill:#95c5e7;"/><path d="M30.937,61.182c0.24,-0.295 0.846,-1.237 1.068,-1.601c0.192,-0.315 0.949,-1.468 1.011,-1.732c0.066,-0.285 -0.164,-0.114 -0.213,-0.065c-0.178,0.176 -0.486,0.622 -0.626,0.831c-0.273,0.397 -0.516,0.798 -0.781,1.191c-0.144,0.208 -0.261,0.411 -0.39,0.615c-0.136,0.217 -0.257,0.43 -0.379,0.628c-0.287,0.47 0.062,0.166 -0.333,0.403c-0.639,0.383 -0.661,0.704 -0.396,0.572c0.392,-0.197 0.266,-0.244 0.964,-0.432c0.197,-0.054 1.084,-0.229 1.29,-0.182l0.676,0.182c0.529,0.179 0.808,0.58 1.298,0.692c0.611,0.138 -0.889,-0.966 -0.889,-0.966l1.706,-0.076c0.229,-0.02 1.416,-0.057 1.498,-0.357c-0.119,-0.114 -0.526,-0.068 -0.708,-0.053c-1.264,0.108 -2.422,0.041 -3.843,0.202c-0.106,0.011 -0.25,0 -0.337,0.027c-0.115,0.034 -0.516,0.151 -0.616,0.121" style="fill:#95c5e7;"/><path d="M32.437,32.33c0.061,-0.264 0.249,-0.749 0.37,-0.946c0.129,-0.211 0.371,-0.587 0.431,-0.84c-0.193,-0.053 -0.275,0.103 -0.391,0.235c-0.099,0.111 -0.199,0.253 -0.283,0.38c-0.318,0.488 -0.315,0.583 -0.473,1.092c-0.155,0.506 -0.144,0.517 -0.222,1.075c-0.109,0.764 -0.109,1.894 -0.134,2.697c-0.004,0.202 -0.022,0.349 -0.023,0.538c-0.009,0.704 0.155,0.388 -0.18,0.662c-0.075,0.062 -0.117,0.101 -0.196,0.186c-0.14,0.152 -0.353,0.471 -0.298,0.714c0.122,0.028 0.183,-0.065 0.295,-0.219c0.25,-0.34 0.439,-0.46 0.852,-0.676c1.142,-0.599 3.091,-0.921 3.863,-1.298c0.131,-0.064 0.213,-0.085 0.257,-0.266c-0.15,-0.083 -0.444,0.007 -0.601,0.051c-0.98,0.273 -2.417,0.572 -3.289,0.984c-0.109,0.05 -0.416,0.232 -0.504,0.251c0.388,-1.762 0.108,-2.831 0.526,-4.62" style="fill:#95c5e7;"/><path d="M39.815,56.119c0.164,-0.074 2.944,-0.191 3.521,-0.223c0.188,-0.01 0.687,-0.035 0.868,-0.078c0.111,-0.025 0.171,-0.039 0.21,-0.147c-0.059,-0.029 -0.089,-0.054 -0.167,-0.071c-0.316,-0.072 -1.612,-0.038 -2.013,-0.028c-0.643,0.014 -1.295,0.04 -1.924,0.093c-0.779,0.064 -2.008,0.176 -2.75,0.413c-0.067,0.021 -0.134,0.034 -0.212,0.061c-0.174,0.062 -0.505,0.125 -0.503,0.345c0.196,0.074 1.094,-0.158 1.483,-0.216c0.313,-0.046 1.469,0.229 1.752,0.332c0.331,0.12 1.288,0.368 1.675,0.456c0.41,0.092 1.474,0.176 1.593,-0.193c-0.19,-0.105 -0.896,-0.033 -1.241,-0.11l-2.292,-0.634Z" style="fill:#95c5e7;"/><path d="M4.676,18.783c0.042,0.133 0.041,0.309 0.073,0.454c0.033,0.151 0.054,0.259 0.091,0.42c0.069,0.297 0.155,0.557 0.272,0.806c0.036,0.079 0.04,0.117 0.081,0.197c0.042,0.088 0.058,0.11 0.103,0.185c0.08,0.137 0.127,0.207 0.213,0.342c0.197,0.307 0.609,0.668 0.926,0.875c0.125,0.082 0.281,0.156 0.368,0.246c0.292,0.304 0.258,0.16 0.402,0.204c0.061,0.018 0.347,0.199 0.396,0.231c0.153,0.104 0.228,0.155 0.365,0.271c0.174,0.146 0.425,0.42 0.578,0.592c0.071,0.08 0.192,0.242 0.314,0.264c0.11,-0.191 -0.226,-0.616 -0.346,-0.763l-0.192,-0.213c0.008,-0.001 0.017,-0.003 0.022,-0.005c0.005,-0.002 0.015,-0.005 0.019,-0.007l0.108,-0.093c0.145,-0.352 -0.048,-1.656 -0.033,-2.249c0.008,-0.3 0.107,-0.691 -0.066,-0.793c-0.197,0.073 -0.279,0.599 -0.297,0.791c-0.052,0.579 0.001,1.012 0.08,1.569c0.033,0.231 0.044,0.526 0.13,0.715c-0.438,-0.343 -0.302,-0.275 -0.839,-0.606c-0.542,-0.335 -0.468,-0.194 -0.803,-0.637c-0.391,-0.518 -0.407,-0.819 -0.364,-1.474c0.016,-0.237 0.053,-0.445 -0.114,-0.499c-0.162,0.132 -0.22,0.496 -0.256,0.758c-0.049,0.372 0.013,0.487 0.021,0.72c-0.056,-0.078 -0.148,-0.213 -0.207,-0.277c-0.117,-0.124 -0.101,-0.18 -0.176,-0.305c-0.14,-0.232 -0.191,-0.382 -0.286,-0.63c-0.124,-0.317 -0.217,-0.731 -0.342,-1.031c-0.045,-0.11 -0.073,-0.23 -0.193,-0.264l-0.048,0.206Z" style="fill:#95c5e7;"/><path d="M33.814,59.083c0.23,-0.702 0.607,-1.456 0.934,-2.061c0.424,-0.781 0.797,-1.148 0.994,-1.485c0.075,-0.126 0.075,-0.122 0.027,-0.224c-0.389,-0.051 -1.147,1.131 -1.378,1.538c-0.36,0.641 -0.765,1.489 -0.859,2.293c-0.239,0.114 -0.9,0.192 -0.982,0.441c0.368,0.084 1.113,-0.151 1.554,-0.183c1.167,-0.085 1.531,0.173 2.532,0.577c0.296,0.122 0.523,0.181 0.858,0.291c0.281,0.09 1.004,0.136 1.326,0.121c0.188,-0.008 0.294,-0.002 0.337,-0.123c-0.111,-0.107 -1.204,-0.244 -1.44,-0.298c-1.092,-0.248 -1.846,-1.036 -3.284,-0.953c-0.123,0.008 -0.222,0.015 -0.321,0.027c-0.104,0.01 -0.184,0.037 -0.298,0.039" style="fill:#95c5e7;"/><path d="M2.05,54.581c0.079,0.098 0.14,0.168 0.252,0.279l0.271,0.265c0.543,0.556 1.258,1.017 1.881,1.46c0.176,0.124 0.524,0.354 0.761,0.357c0.031,-0.153 -0.115,-0.299 -0.236,-0.359c0.095,-0.13 0.096,-0.103 0.053,-0.279c-0.035,-0.149 -0.206,-0.494 -0.293,-0.79c-0.192,-0.66 -0.319,-1.652 -0.338,-2.364c-0.006,-0.189 -0.01,-0.455 0.005,-0.645c0.009,-0.116 0.031,-0.401 0.001,-0.498c-0.023,-0.074 0.004,-0.059 -0.095,-0.089c-0.152,-0.008 -0.211,0.419 -0.233,0.515c-0.095,0.41 -0.05,1.217 -0.003,1.651c0.017,0.156 0.036,0.328 0.066,0.496c0.059,0.343 0.124,0.644 0.231,0.956c0.143,0.413 0.194,0.44 0.269,0.64c0.048,0.128 0.071,0.101 0.124,0.209l-0.837,-0.634c-0.084,-0.067 -0.17,-0.13 -0.266,-0.206c-0.488,-0.391 -1.08,-0.899 -1.457,-1.372l-0.384,-0.507c-0.218,-0.354 -0.416,-1.039 -0.571,-1.123c-0.202,0.148 -0.02,0.579 0.035,0.774c0.039,0.134 0.096,0.237 0.139,0.349c0.111,0.283 0.432,0.677 0.625,0.915" style="fill:#95c5e7;"/><path d="M17.805,16.733c-0.098,-0.065 -0.198,-0.12 -0.293,-0.171c-1.191,-0.631 -1.537,-0.413 -2.41,-0.609c-0.109,-0.025 -0.252,-0.014 -0.325,0.011l-0.021,0.085c0.11,0.167 0.503,0.236 0.716,0.285c0.32,0.073 0.58,0.065 0.895,0.174c1.268,0.443 2.145,1.042 2.849,2.162c0.1,0.159 0.247,0.445 0.545,0.365c0.954,-0.261 1.013,-3.075 1.044,-3.783c0.005,-0.124 0.016,-0.285 -0.074,-0.352c-0.148,-0.108 -0.221,0.067 -0.24,0.173c-0.059,0.34 -0.127,1.254 -0.177,1.691c-0.061,0.546 -0.204,1.758 -0.712,2.077c-0.063,-0.12 -0.082,-0.282 -0.247,-0.568c-0.179,-0.307 -0.494,-0.72 -0.772,-0.948c-0.426,-0.351 -0.33,-0.288 -0.778,-0.592" style="fill:#95c5e7;"/><path d="M46.098,53.493l0.035,-0.151c-0.099,-0.039 -0.29,0.063 -0.388,0.095c-0.129,0.044 -0.251,0.084 -0.377,0.135c-0.219,0.086 -0.536,0.155 -0.804,0.215c-1.464,0.333 -3.552,0.041 -4.433,0.389c-0.192,0.076 -0.589,0.246 -0.586,0.517c0.15,0.046 0.417,-0.149 0.559,-0.193c0.2,-0.062 0.394,-0.082 0.621,-0.107c1.344,-0.152 1.45,0.263 2.699,0.659c0.304,0.095 1.256,0.329 1.311,0.03c-0.004,-0.153 -0.353,-0.161 -0.453,-0.178c-0.202,-0.033 -0.378,-0.092 -0.552,-0.15l-0.945,-0.401c0.194,0.028 0.71,-0.024 0.932,-0.054c0.301,-0.037 0.574,-0.071 0.866,-0.147c0.292,-0.074 0.552,-0.136 0.805,-0.252c0.322,-0.148 0.405,-0.155 0.71,-0.407" style="fill:#95c5e7;"/><path d="M38.832,26.674c-0.04,-0.237 0.265,-1.546 0.378,-1.854c0.089,-0.243 0.183,-0.639 0.245,-0.905c0.047,-0.203 0.212,-0.681 0.034,-0.831c-0.156,0.061 -0.205,0.269 -0.273,0.46c-0.281,0.769 -0.7,2.185 -0.742,2.975c-0.02,0.411 0.014,0.409 0.029,0.671c0.003,0.043 -0.004,0.074 -0.003,0.126c0.005,0.117 0.068,0.151 0.19,0.111c0.06,-0.04 0.073,-0.713 2.008,-1.391c0.615,-0.215 1.191,-0.382 1.838,-0.498c0.097,-0.017 0.475,-0.068 0.514,-0.173c0.037,-0.096 -0.025,-0.118 -0.133,-0.144c-0.531,-0.121 -1.999,0.286 -2.454,0.475c-0.085,0.036 -0.144,0.053 -0.252,0.096c-0.209,0.083 -0.38,0.195 -0.627,0.3c-0.168,0.074 -0.668,0.458 -0.752,0.582" style="fill:#95c5e7;"/><path d="M4.776,58.603c-0.472,-0.337 -0.973,-0.663 -1.397,-1.078c-0.203,-0.196 -0.57,-0.686 -0.744,-0.67c-0.074,0.115 0.027,0.296 0.092,0.395c0.342,0.54 0.924,1.059 1.448,1.418c0.098,0.067 0.634,0.43 0.668,0.479c-0.324,-0.074 -0.627,-0.08 -0.931,-0.146c-1.511,-0.329 -1.8,-1.005 -2.244,-1.055c-0.044,0.172 0.089,0.294 0.193,0.406c0.301,0.329 0.785,0.641 1.199,0.808c0.64,0.26 1.044,0.238 1.65,0.28c0.258,0.019 0.298,0.035 0.496,-0.058c0.272,0.163 0.542,0.382 0.789,0.576c0.187,0.146 0.58,0.513 0.8,0.514c0.038,-0.213 -0.214,-0.402 -0.36,-0.563c-0.41,-0.453 -1.176,-0.964 -1.659,-1.306" style="fill:#95c5e7;"/><path d="M19.156,16.007c0.048,-0.22 0.112,-0.39 0.184,-0.598c0.067,-0.192 0.128,-0.366 0.2,-0.567c0.271,-0.757 0.454,-1.423 0.389,-2.241c-0.011,-0.125 -0.071,-0.557 -0.149,-0.657c-0.114,-0.143 -0.152,0.041 -0.17,0.121c-0.039,0.164 -0.007,0.459 -0.008,0.642c-0.004,0.543 -0.194,1.363 -0.369,1.847c-0.101,0.281 -0.23,0.654 -0.3,0.956c-0.011,-0.009 -0.227,-0.355 -0.271,-0.415l-0.326,-0.397c-0.34,-0.412 -0.76,-0.738 -1.198,-1.034c-0.143,-0.097 -0.326,-0.192 -0.499,-0.27c-0.243,-0.111 -0.999,-0.298 -1.118,-0.065c0.111,0.177 0.43,0.177 0.672,0.256c0.566,0.184 1.387,0.869 1.768,1.287c0.375,0.412 0.597,0.652 0.839,1.176c0.041,0.09 0.045,0.452 0.232,0.514c0.171,-0.159 0.073,-0.314 0.124,-0.555" style="fill:#95c5e7;"/><path d="M34.715,57.781c0.142,0.164 0.174,0.122 0.406,0.133l3.063,0.189c0.565,0.04 1.194,0.078 1.762,0.12c0.286,0.022 0.588,0.035 0.864,0.047c0.179,0.008 0.788,0.1 0.712,-0.16c-0.052,-0.178 -0.651,-0.174 -0.823,-0.193c-1.064,-0.115 -4.342,-0.377 -5.283,-0.361c-0.414,0.007 -0.638,-0.037 -0.701,0.225" style="fill:#95c5e7;"/><path d="M13.697,35.879c0.023,-0.052 -0.03,-0.301 -0.036,-0.368l-0.052,-1.134c-0.01,-0.497 -0.001,-1.048 0.05,-1.581c0.091,-0.938 0.232,-1.788 -0.047,-2.69c-0.091,-0.295 -0.242,-0.371 -0.323,-0.024c-0.028,0.117 0.067,0.515 0.083,0.691c0.024,0.255 0.035,0.5 0.025,0.751c-0.023,0.547 -0.13,1.085 -0.153,1.652c-0.024,0.514 -0.021,1.065 0.019,1.545c0.02,0.252 0.043,0.503 0.1,0.728c0.027,0.104 0.214,0.697 0.334,0.43" style="fill:#95c5e7;"/><path d="M12.831,3.769c-0.076,0.324 -0.048,0.522 0.051,0.792c0.387,1.053 1.532,2.031 2.426,2.694c0.265,0.198 1.052,0.885 1.275,0.855c0.053,-0.147 -0.059,-0.213 -0.149,-0.314c-0.316,-0.355 -0.514,-0.501 -0.874,-0.803c-0.694,-0.581 -2.299,-1.88 -2.48,-2.91c-0.029,-0.159 0,-0.266 -0.019,-0.425c-0.029,-0.249 -0.187,-0.057 -0.23,0.111" style="fill:#95c5e7;"/><path d="M12.765,34.08c-0.434,-0.497 -1.224,-0.875 -1.827,-1.161c-0.685,-0.325 -1.524,-0.637 -2.255,-0.892c-0.399,-0.14 -0.444,-0.203 -0.812,-0.188c-0.064,0.258 0.338,0.367 0.525,0.445c0.255,0.11 0.473,0.199 0.719,0.299c0.953,0.389 2.603,1.012 3.361,1.656c0.361,0.305 0.266,0.439 0.444,0.473c0.181,-0.174 -0.063,-0.527 -0.155,-0.632" style="fill:#95c5e7;"/><path d="M8.03,29.531c0.159,0.071 0.15,-0.115 0.669,0.099c0.978,0.405 2.122,1.388 2.94,2.101c0.252,0.22 0.527,0.584 0.759,0.574c0.064,-0.173 0.001,-0.237 -0.069,-0.341c-0.114,-0.168 -0.529,-0.604 -0.675,-0.737c-0.697,-0.638 -2.089,-1.774 -3.048,-1.959c-0.233,-0.044 -0.628,0.002 -0.576,0.263" style="fill:#95c5e7;"/><path d="M8.787,63.958c0.105,0.345 0.273,0.409 0.283,0.092c0.007,-0.213 -0.05,-0.418 -0.081,-0.652c-0.027,-0.21 -0.056,-0.434 -0.078,-0.637c-0.047,-0.443 -0.094,-0.867 -0.122,-1.317c-0.019,-0.292 -0.079,-2.154 -0.159,-2.35c-0.039,-0.101 -0.144,-0.167 -0.18,-0.012l-0.056,0.243c-0.032,0.135 -0.034,0.562 -0.037,0.727c-0.013,1.208 0.076,2.753 0.43,3.906" style="fill:#95c5e7;"/><path d="M9.15,65.121c-0.877,-1.092 -2.745,-1.357 -3.647,-1.789c-0.185,-0.088 -0.413,-0.207 -0.616,-0.207c-0.089,0.481 1.899,1.06 2.372,1.242c1.169,0.451 1.172,0.583 1.895,1.187c0.133,0.11 0.204,0.172 0.252,0.088c0.076,-0.127 -0.189,-0.438 -0.256,-0.521" style="fill:#95c5e7;"/><path d="M36.101,57.382c0.066,-0.077 0.135,-0.574 0.191,-0.718c0.371,-0.935 1.226,-2.294 1.817,-3.184c0.095,-0.143 0.261,-0.375 0.239,-0.571c-0.216,-0.1 -0.282,0.081 -0.477,0.324c-0.36,0.448 -0.803,1.142 -1.095,1.623c-0.239,0.399 -0.444,0.776 -0.632,1.229c-0.089,0.216 -0.46,1.244 -0.043,1.297" style="fill:#95c5e7;"/><path d="M6.273,55.541c-0.153,0.654 -0.086,1.867 -0.03,2.539c0.033,0.385 0.226,1.629 0.521,1.856c0.15,0.114 0.187,-0.011 0.178,-0.133c-0.005,-0.074 -0.183,-0.786 -0.231,-1.104c-0.111,-0.752 -0.152,-1.65 -0.141,-2.403c0.003,-0.202 0.005,-0.421 0.024,-0.637c0.013,-0.163 0.075,-0.546 -0.075,-0.578c-0.159,-0.037 -0.214,0.318 -0.246,0.46" style="fill:#95c5e7;"/><path d="M20.346,20.838c0.047,-0.187 -0.167,-0.282 -0.425,-0.406c-1.469,-0.71 -1.677,-0.644 -2.952,-1.724c-0.288,-0.243 -0.456,-0.506 -0.725,-0.421c-0.089,0.268 0.49,0.721 0.665,0.874c0.871,0.759 1.086,0.804 2.106,1.25c0.27,0.12 1.043,0.458 1.331,0.427" style="fill:#95c5e7;"/><path d="M8.486,27.656c-0.755,-0.044 -0.666,-0.013 -1.36,-0.17c-0.447,-0.103 -1.188,-0.635 -1.609,-0.884c-0.647,-0.384 -0.439,0.006 0.056,0.398c0.603,0.477 1.015,0.768 1.804,0.947c0.299,0.069 1.686,0.084 2.08,0.019c0.027,-0.004 0.104,-0.015 0.13,-0.024c0.086,-0.025 0.062,0 0.106,-0.085c-0.121,-0.205 -1.006,-0.189 -1.207,-0.201" style="fill:#95c5e7;"/><path d="M10.35,62.515c-0.242,0.299 -0.279,2.865 -0.099,3.661c0.038,0.172 0.207,0.987 0.386,0.934c0.129,-0.04 0.044,-0.471 0.026,-0.571c-0.225,-1.327 -0.076,-2.306 -0.13,-3.547c-0.009,-0.212 -0.006,-0.457 -0.183,-0.477" style="fill:#95c5e7;"/><path d="M17.408,9.812c0.095,-0.049 0.128,-0.09 0.155,-0.209l0.176,-0.753c0.04,-0.162 0.051,-0.31 0.094,-0.491c0.192,-0.816 0.457,-2.213 0.043,-2.958c-0.044,-0.079 -0.047,-0.092 -0.177,-0.116c-0.086,0.368 0.032,0.702 0.025,1.059c-0.022,1.166 -0.46,2.553 -0.42,3.233c0.008,0.128 0.006,0.176 0.104,0.235" style="fill:#95c5e7;"/><path d="M8.743,34.375c0.418,0.438 0.59,0.664 1.299,0.975c0.391,0.171 2.328,0.702 2.514,0.426c-0.054,-0.158 -0.361,-0.224 -0.565,-0.268c-0.512,-0.114 -1.483,-0.377 -1.924,-0.576c-0.761,-0.345 -0.833,-0.571 -1.296,-0.969c-0.56,-0.48 -0.287,0.142 -0.028,0.412" style="fill:#95c5e7;"/><path d="M11.76,37.715c-0.423,-0.265 -0.769,-0.742 -1.069,-1.136c-0.075,-0.096 -0.229,-0.308 -0.383,-0.34c-0.065,0.108 -0.024,0.182 0.013,0.261c0.218,0.474 0.688,1.164 1.106,1.465c0.481,0.349 0.935,0.354 1.575,0.449c0.32,0.048 0.744,0.243 1.01,0.208c0.089,-0.238 -0.781,-0.514 -0.978,-0.558c-0.448,-0.102 -0.908,-0.123 -1.274,-0.349" style="fill:#95c5e7;"/><path d="M11.765,30.044c0.038,-0.168 0.011,-0.443 0.015,-0.597c0.015,-0.615 0.064,-1.132 0.091,-1.743c0.088,-2.039 -0.381,-1.988 -0.397,-1.695c-0.008,0.146 0.033,0.393 0.043,0.547c0.033,0.441 -0.053,1.252 -0.077,1.732c-0.019,0.39 -0.027,0.751 -0.011,1.128c0.027,0.649 0.253,1.003 0.336,0.628" style="fill:#95c5e7;"/><path d="M6.352,61.895c0.063,-0.15 -0.133,-0.277 -0.249,-0.367c-1.032,-0.802 -1.745,-0.929 -2.946,-1.273c-0.162,-0.046 -0.783,-0.343 -0.827,-0.156c-0.042,0.179 0.689,0.482 0.868,0.548c0.849,0.309 1.242,0.311 2.186,0.794c0.281,0.144 0.628,0.4 0.968,0.454" style="fill:#95c5e7;"/><path d="M46.422,51.739c-0.082,-0.093 -0.11,-0.089 -0.257,-0.066c-0.078,0.01 -0.175,0.042 -0.255,0.06c-0.698,0.15 -0.853,0.175 -1.604,0.272c-0.291,0.038 -2.029,0.194 -1.981,0.609c0,0 -0.034,0.086 0.125,0.073l0.382,-0.102c0.757,-0.152 3.356,-0.245 3.59,-0.846" style="fill:#95c5e7;"/><path d="M20.969,18.63c0.006,0.58 -0.249,2.126 -0.374,2.72c-0.033,0.161 -0.124,0.357 -0.168,0.524c-0.157,0.621 0.487,0.484 0.803,-1.888c0.028,-0.212 0.251,-1.877 -0.168,-1.876c-0.106,0.119 -0.094,0.386 -0.093,0.52" style="fill:#95c5e7;"/><path d="M16.657,2.641l-0.209,-0.046c-0.06,0.096 -0.043,0.107 0.006,0.186c0.046,0.076 0.063,0.102 0.094,0.191c0.127,0.372 0.071,1.065 0.028,1.469c-0.038,0.368 -0.107,0.748 -0.154,1.096c-0.028,0.195 -0.068,0.368 -0.092,0.563c-0.028,0.221 -0.067,0.348 0.203,0.33c0.214,-0.243 0.413,-1.689 0.447,-2.074c0.034,-0.364 0.046,-1.047 -0.09,-1.369c-0.082,-0.19 -0.111,-0.189 -0.233,-0.346" style="fill:#95c5e7;"/><path d="M40.364,52.113c-0.361,-0.166 -1.158,1.206 -1.269,1.407c-0.126,0.227 -0.929,1.84 -0.824,2.015c0.14,0.228 0.537,-0.581 0.599,-0.698c0.373,-0.716 0.567,-1.155 1.004,-1.872c0.128,-0.212 0.516,-0.641 0.49,-0.852" style="fill:#95c5e7;"/><path d="M21.158,23.265c-0.021,-0.131 -0.307,-0.219 -0.423,-0.276c-0.762,-0.363 -2.088,-0.919 -2.671,-1.438c-0.001,-0.003 -0.353,-0.404 -0.293,0.001c0.037,0.248 0.431,0.551 0.61,0.672c0.551,0.37 1.189,0.682 1.813,0.939c0.126,0.053 1.021,0.455 0.964,0.102" style="fill:#95c5e7;"/><path d="M40.963,53.486c-0.062,0.262 0.06,0.447 0.221,0.174c0.091,-0.154 0.155,-0.341 0.228,-0.498c0.301,-0.645 0.68,-1.203 1.082,-1.785c0.118,-0.172 0.53,-0.665 0.479,-0.883c-0.159,-0.075 -0.24,0.063 -0.345,0.163c-0.168,0.159 -0.387,0.439 -0.533,0.619c-0.073,0.09 -0.166,0.226 -0.245,0.341c-0.433,0.63 -0.712,1.114 -0.887,1.869" style="fill:#95c5e7;"/><path d="M14.716,36.471c-0.061,0.544 -0.31,0.958 -0.447,1.46c-0.067,0.245 -0.158,0.476 -0.132,0.725c0.022,0.216 0.195,0.381 0.335,-0.142c0.137,-0.512 0.364,-0.913 0.488,-1.45c0.247,-1.06 -0.175,-1.196 -0.244,-0.593" style="fill:#95c5e7;"/><path d="M29.217,63c0.25,0.056 0.477,-0.105 0.656,-0.064c0.596,0.135 0.982,0.419 1.397,0.538c0.261,0.075 0.356,-0.112 0.034,-0.282c-0.164,-0.088 -0.366,-0.202 -0.535,-0.288c-0.206,-0.104 -0.374,-0.196 -0.593,-0.275c-0.293,-0.109 -0.359,-0.146 -0.6,-0.019c-0.273,0.143 -0.756,0.01 -0.852,0.146c-0.107,0.154 0.331,0.206 0.493,0.244" style="fill:#95c5e7;"/><path d="M7.947,66.875l0.168,0.039l0.624,-0.195c0.717,-0.255 0.907,0.024 1.187,0.385c0.432,0.555 0.388,-0.348 -0.143,-0.699c-0.216,-0.143 -0.5,-0.209 -0.752,-0.155c-0.257,0.056 -1.088,0.279 -1.084,0.625" style="fill:#95c5e7;"/><path d="M12.46,40.285c-0.043,0.185 0.293,0.245 0.449,0.285c0.222,0.055 0.425,0.104 0.629,0.161c0.214,0.06 0.379,0.109 0.557,0.216c0.254,0.151 0.139,0.29 0.341,0.323c0.077,-0.016 0.436,-0.462 -0.611,-0.863c-0.136,-0.052 -1.3,-0.398 -1.365,-0.122" style="fill:#95c5e7;"/><path d="M43.681,51.555c0.183,0.014 0.296,-0.24 0.391,-0.393c0.281,-0.446 0.254,-0.471 0.62,-0.979c0.1,-0.138 0.286,-0.3 0.234,-0.495c-0.262,-0.12 -0.716,0.498 -0.847,0.687c-0.133,0.192 -0.576,0.975 -0.398,1.18" style="fill:#95c5e7;"/></svg>