<?xml version="1.0" encoding="UTF-8" standalone="no"?><!DOCTYPE svg PUBLIC "-//W3C//DTD SVG 1.1//EN" "http://www.w3.org/Graphics/SVG/1.1/DTD/svg11.dtd"><svg width="100%" height="100%" viewBox="0 0 63 33" version="1.1" xmlns="http://www.w3.org/2000/svg" xmlns:xlink="http://www.w3.org/1999/xlink" xml:space="preserve" xmlns:serif="http://www.serif.com/" style="fill-rule:evenodd;clip-rule:evenodd;stroke-linejoin:round;stroke-miterlimit:2;"><path d="M61.007,32.257c0.059,0.081 0.051,0.165 0.117,0.257c0.064,0.089 0.356,-0.081 0.382,-0.177c0.044,-0.157 -0.255,-0.265 -0.361,-0.323c-0.306,-0.165 -0.587,-0.391 -0.87,-0.598l0.101,-0.101c0.205,-0.206 1.107,0.499 1.281,0.613c0.15,0.098 1.234,0.571 1.111,0.148c-0.037,-0.127 -0.252,-0.191 -0.354,-0.255c-0.101,-0.064 -0.187,-0.155 -0.295,-0.208c-0.105,-0.051 -0.214,-0.065 -0.321,-0.114c-0.261,-0.119 -0.514,-0.256 -0.759,-0.402c-0.486,-0.289 -0.946,-0.622 -1.371,-0.995c0.271,-0.027 0.561,0.108 0.795,0.23c0.175,0.091 0.473,0.469 0.675,0.209c0.255,-0.328 -0.194,-0.383 -0.377,-0.425c-0.121,-0.029 -0.256,-0.093 -0.366,-0.151c-0.673,-0.353 -1.319,-0.756 -1.954,-1.173c-1.277,-0.838 -2.514,-1.743 -3.861,-2.469c-0.199,-0.107 -0.4,-0.211 -0.604,-0.309c-0.141,-0.068 -0.48,-0.145 -0.577,-0.26c-2.002,-2.356 -3.953,-5.369 -6.774,-6.774c-2.387,-0.051 -4.075,1.557 -6.168,2.224c-1.213,0.556 -2.498,0.961 -3.842,1.213c-1.163,-2.558 -2.953,-4.863 -3.236,-7.785c-0.414,-0.647 -0.091,-1.123 0,-1.82c3.438,1.163 7.513,0.809 10.516,3.033c0.677,0.081 1.344,-0.05 1.617,-0.708c0.142,-0.341 0.224,-0.65 0.281,-1.016c0.048,-0.313 0.051,-0.702 0.197,-0.989c0.146,-0.286 0.508,-0.577 0.718,-0.828c0.324,-0.388 0.702,-0.718 1.057,-1.075c0.255,-0.257 0.548,-0.209 0.868,-0.26c0.146,-0.023 0.624,-0.313 0.285,-0.408c-0.167,-0.047 -0.419,0.057 -0.604,0.046c-0.268,-0.017 -0.532,-0.003 -0.791,-0.092c-0.055,-0.019 0.238,-0.173 0.26,-0.179c0.307,-0.081 0.641,0.031 0.945,-0.069c0.124,-0.04 0.653,-0.282 0.322,-0.407c-0.448,-0.169 -0.992,0.394 -1.492,0.195c-0.523,-0.208 0.803,-0.352 0.612,-0.604c-0.142,-0.186 -0.444,0.088 -0.592,0.124c-0.237,0.056 -0.506,0.041 -0.752,0.091c-0.194,0.041 -0.424,0.087 -0.614,0.029c0.036,-0.315 0.433,-0.257 0.601,-0.441c-0.253,-0.367 -1.501,0.367 -1.806,0.525c-0.627,0.778 -0.03,1.688 -0.506,2.527l-0.505,1.011c-1.972,-1.516 -4.388,-1.971 -6.674,-2.73c-1.759,-0.485 -3.639,-0.677 -5.459,-1.011c-0.466,-0.576 -1.012,-0.93 -1.719,-0.91l-3.741,-4.145c-0.705,-0.506 -1.583,-0.643 -2.429,-0.685c-0.879,-0.044 -1.818,-0.112 -2.69,-0.025c-1.132,0.114 -2.205,-0.224 -3.219,-0.706c-0.965,-0.457 -1.913,-0.999 -2.984,-1.163c-0.132,-0.02 -0.265,-0.035 -0.398,-0.044c-0.1,-0.006 -0.33,0.037 -0.414,-0.006c-0.546,-0.283 -1.213,-0.273 -1.82,-0.405c-0.809,-0.758 -1.577,-1.931 -2.831,-1.314l-0.91,0.91c-0.333,1.395 -2.093,0.677 -3.134,1.011c-0.91,0.708 -1.83,1.577 -1.618,2.831l0.303,0.304c-0.161,0.171 -0.394,0.323 -0.303,0.606c1.224,0.839 2.225,2.204 3.539,2.831l0.303,0.304c-0.697,0.96 -2.083,0.252 -3.033,0.606c-0.789,0.516 -1.931,0.152 -2.831,0.405c-0.101,-0.182 -0.334,-0.071 -0.506,-0.101c-0.111,0.121 -0.263,0.212 -0.202,0.404c0.273,0.485 0.607,-0.081 1.011,0.101c0.435,0.111 0.971,-0.03 1.315,0.304c-0.538,0.228 -1.091,0.42 -1.647,0.601c-0.207,0.068 -0.431,0.17 -0.648,0.193c-0.238,0.025 -0.479,0.007 -0.71,0.053c-0.173,0.035 -0.034,0.41 0.023,0.491c0.048,0.067 0.162,0.179 0.253,0.175c0.186,-0.01 0.381,-0.218 0.549,-0.296c0.149,-0.069 0.362,-0.046 0.523,-0.09c0.239,-0.064 0.474,-0.145 0.717,-0.195c0.28,-0.057 0.562,-0.105 0.846,-0.13c0.07,-0.006 0.801,0.007 0.801,0.006c-0.087,0.236 -0.338,0.361 -0.534,0.492c-0.138,0.093 -0.388,0.201 -0.466,0.356c-0.079,0.157 0.084,0.407 0.235,0.476c0.341,0.157 0.527,-0.508 0.766,-0.616c0.626,-0.283 1.385,-0.566 2.123,-0.303c0.121,0.152 0.272,0.297 0.334,0.487c0.029,0.088 0.047,0.197 0.028,0.289c-0.011,0.055 -0.086,0.13 -0.074,0.185c0.046,0.204 0.628,0.088 0.662,-0.038c0.05,-0.18 -0.142,-0.43 -0.143,-0.624c0,-0.202 0.028,-0.429 -0.1,-0.602l2.629,-1.214c0.809,1.102 2.215,2.083 1.618,3.64c-0.526,0.789 0.344,2.518 -1.213,2.528c-0.951,0.111 -1.931,0.121 -2.73,0.607c-1.234,-0.617 0.273,-1.831 -0.506,-2.427c-0.092,-0.071 -0.295,0.234 -0.309,0.296c-0.019,0.082 0.019,0.135 0.015,0.207c-0.036,0.717 -1.035,0.881 -1.526,0.508c-0.273,-0.208 -0.518,-0.409 -0.816,-0.594c-0.137,-0.084 -0.275,-0.175 -0.381,-0.298c-0.147,-0.169 -0.032,-0.293 -0.114,-0.459c-0.089,-0.179 -0.336,-0.114 -0.462,-0.007c-0.242,0.204 -0.044,0.319 0.057,0.528c0.079,0.162 0.078,0.31 0.208,0.451c0.156,0.17 0.33,0.321 0.497,0.48c-0.647,0.243 -1.173,-0.445 -1.82,-0.505c-0.412,-0.039 -0.74,-0.334 -1.081,-0.537c-0.16,-0.095 -0.329,-0.145 -0.482,-0.242c-0.298,-0.19 -0.906,0.138 -0.581,0.479c0.099,0.104 0.333,0.129 0.461,0.195c0.37,0.191 0.836,0.272 1.178,0.509l1.415,0.91c-0.414,0.047 -0.825,0.127 -1.244,0.127c-0.207,-0.001 -0.418,-0.017 -0.618,-0.078c-0.192,-0.058 -0.278,-0.228 -0.446,-0.289c-0.325,-0.117 -0.694,0.583 -0.36,0.644c0.13,0.024 0.279,-0.071 0.414,-0.073c0.144,-0.002 0.301,0.039 0.442,0.066c1.096,0.214 2.073,0.773 3.05,1.285c0.489,0.257 0.984,0.505 1.502,0.696c0.26,0.096 0.526,0.177 0.797,0.237c0.253,0.057 0.571,0.033 0.811,0.115c1.992,0.677 4.226,0.131 5.965,-0.708c0.921,-1.375 1.689,-2.932 1.214,-4.752c0.263,-0.212 0.516,0.202 0.809,0.202c2.174,2.922 5.187,4.864 8.796,3.944c1.567,-0.9 3.155,-1.77 4.955,-2.124c1.81,1.992 1.779,4.752 3.033,6.977c1.304,1.163 2.154,4.459 4.55,3.235c3.63,-0.657 6.805,-2.426 9.707,-4.853l0.202,0c1.688,1.749 2.871,4.065 5.055,5.258c1.001,1.618 2.912,1.88 4.247,3.134c1.001,0.395 1.779,1.325 2.73,1.82c0.405,0.183 0.745,0.486 1.091,0.758c0.082,0.065 0.223,0.277 0.297,0.304c0.072,0.027 0.372,-0.112 0.337,-0.198c-0.093,-0.224 -0.423,-0.301 -0.607,-0.433c-0.279,-0.199 -0.542,-0.424 -0.815,-0.633l0.101,-0.101c0.366,0.093 0.694,0.287 1.002,0.499c0.152,0.105 0.296,0.22 0.448,0.325c0.145,0.099 0.314,0.103 0.428,0.252c-0.07,-0.069 -0.151,-0.114 -0.233,-0.167" style="fill:#fff;fill-rule:nonzero;"/></svg>