<?xml version="1.0" encoding="UTF-8" standalone="no"?><!DOCTYPE svg PUBLIC "-//W3C//DTD SVG 1.1//EN" "http://www.w3.org/Graphics/SVG/1.1/DTD/svg11.dtd"><svg width="100%" height="100%" viewBox="0 0 234 234" version="1.1" xmlns="http://www.w3.org/2000/svg" xmlns:xlink="http://www.w3.org/1999/xlink" xml:space="preserve" xmlns:serif="http://www.serif.com/" style="fill-rule:evenodd;clip-rule:evenodd;stroke-linejoin:round;stroke-miterlimit:2;"><path d="M141.592,57.694c0.491,-0.323 0.599,-0.603 0.599,-1.145l0,-6.498l-16.281,0.003l0,6.332c0,0.656 0.145,1.018 0.688,1.366c0.545,0.348 7.46,4.984 7.46,4.984c0,0 7.079,-4.737 7.534,-5.042" style="fill:#02bfd7;fill-rule:nonzero;"/><path d="M68.096,72.019l2.829,0l0,-6.746l-4.288,0l0,5.217c0,0.864 0.576,1.529 1.459,1.529" style="fill:#02bfd7;fill-rule:nonzero;"/><rect x="158.935" y="63.496" width="19.235" height="3.372" style="fill:#02bfd7;"/><rect x="66.637" y="49.568" width="4.288" height="5.548" style="fill:#02bfd7;"/><path d="M97.62,71.923l0,-8.422c0,-0.168 -0.112,-0.396 -0.398,-0.396l-1.229,0l0,9.231l1.223,0c0.218,0 0.404,-0.13 0.404,-0.413" style="fill:#02bfd7;fill-rule:nonzero;"/><rect x="66.637" y="57.283" width="4.288" height="5.814" style="fill:#02bfd7;"/><path d="M97.612,57.175l0,-7.428c0,-0.262 -0.192,-0.409 -0.407,-0.409l-1.211,0l0,8.228l1.228,0c0.247,0 0.39,-0.203 0.39,-0.391" style="fill:#02bfd7;fill-rule:nonzero;"/><path d="M29.177,111.463l-7.751,20.171l8.638,1.465c0.776,0.132 1.49,-0.457 1.549,-1.276l2.237,-31.205c0.05,-0.694 -0.763,-1.07 -1.216,-0.564l-23.994,26.83c-0.725,0.81 -0.303,2.142 0.743,2.347l8.183,1.611l11.251,-19.568c0.127,-0.222 0.452,-0.051 0.36,0.189" style="fill:#02bfd7;fill-rule:nonzero;"/><path d="M125.957,101.357l5.578,0c0.6,0 1.037,-0.436 1.037,-1.038l0,-3.109c0,-0.602 -0.437,-1.091 -1.037,-1.091l-5.578,0c-0.602,0 -1.039,0.489 -1.039,1.091l0,3.109c0,0.602 0.437,1.038 1.039,1.038" style="fill:#02bfd7;fill-rule:nonzero;"/><path d="M178.17,48.491c0,-1.066 -0.56,-1.525 -1.551,-1.525l-16.17,0c-1.015,0 -1.514,0.496 -1.514,1.623l0,1.818l19.235,0l0,-1.916Z" style="fill:#02bfd7;fill-rule:nonzero;"/><rect x="158.935" y="52.667" width="19.235" height="3.153" style="fill:#02bfd7;"/><path d="M222.157,101.265c-0.553,5.348 -2.264,10.563 -4.763,15.455c-5.107,9.778 -8.967,13.911 -16.392,20.593c0,0 -0.969,0.819 -2.147,1.811c-1.563,1.317 -4.197,0.388 -4.218,-1.49c-0.011,-0.951 0.424,-1.867 1.207,-2.543l0.047,-0.042c3.422,-2.957 6.609,-6.103 9.454,-9.451c2.825,-3.323 5.31,-6.846 7.323,-10.549c2.39,-4.511 4.024,-9.273 4.609,-14.112c0.553,-4.839 -0.095,-9.729 -1.852,-14.343c-1.871,-4.586 -4.85,-8.859 -8.729,-12.547c-3.912,-3.666 -8.61,-6.785 -13.736,-9.36c-0.684,-0.345 -1.38,-0.677 -2.082,-1c-0.652,-0.3 -1.067,-0.875 -1.074,-1.512c-0.015,-1.317 1.612,-2.17 2.974,-1.566c0.793,0.352 1.579,0.717 2.355,1.099c5.476,2.676 10.577,5.967 14.896,9.923c4.286,3.975 7.665,8.668 9.806,13.739c2.044,5.096 2.849,10.548 2.322,15.895m-37.609,57.65l-0.479,0c-0.634,0 -1.149,0.537 -1.149,1.189l0,23.836c0,1.426 -1.099,2.552 -2.483,2.552c-1.321,0 -2.476,-1.126 -2.476,-2.552l0,-23.899c0,-0.622 -0.489,-1.126 -1.093,-1.126l-1.058,0c-1.384,0 -2.506,-1.155 -2.506,-2.58c0,-1.424 1.122,-2.58 2.506,-2.58l8.738,0c1.383,0 2.476,1.184 2.476,2.609c0,1.426 -1.093,2.551 -2.476,2.551m-12.671,-1.609l0,6.383l-0.618,11.318l-1.174,9.034c-0.174,1.42 -1.328,2.492 -2.713,2.492c-1.265,0 -2.246,-1.13 -2.129,-2.492l1.971,-15.033l0,-10.982l0,-0.002l0,-1.937c0,-1.288 1.044,-2.332 2.331,-2.332c1.288,0 2.332,1.044 2.332,2.332l0,1.219Zm-7.859,10.813c0,2.43 -1.844,4.33 -4.146,4.33l-9.851,0c-0.633,0 -1.154,0.477 -1.21,1.13l-1.527,10.462c-0.174,1.42 -1.328,2.492 -2.711,2.492c-1.267,0 -2.248,-1.13 -2.131,-2.492l2.166,-15.033l0,-8.15l0,-2.832l0,-1.939c0,-1.288 1.044,-2.332 2.331,-2.332c1.287,0 2.331,1.044 2.331,2.332l0,10.307c0,0.654 0.519,1.189 1.154,1.189l7.839,0c0.603,0 1.093,-0.504 1.093,-1.125l0,-6.649c0,-0.653 -0.52,-1.188 -1.155,-1.188l-3.935,0c-1.304,0 -2.361,-1.089 -2.361,-2.433c0,-1.343 1.057,-2.433 2.361,-2.433l5.601,0c2.292,0 4.151,1.915 4.151,4.276l0,10.088Zm-25.379,-41.411c-0.413,0.614 -1.088,0.945 -1.776,0.945c-0.41,0 -0.822,-0.117 -1.189,-0.363l-9.623,-6.66c0.073,1.24 0.099,2.485 0.04,3.743c-0.094,1.839 -0.169,3.999 -1.859,5.152c-0.597,0.407 -1.294,0.643 -1.999,0.807c-1.647,0.382 -5.757,0.994 -5.658,-1.721c0.063,-1.719 1.893,-1.955 3.24,-2.032c0.576,-0.033 1.194,-0.142 1.603,-0.551c0.814,-0.811 0.515,-2.303 0.4,-3.315c-0.03,-0.262 -0.082,-0.551 -0.292,-0.708c-0.129,-0.095 -0.265,-0.103 -0.418,-0.101c-0.741,0.009 -1.879,0.846 -2.537,1.169c-1.03,0.508 -2.061,1.016 -3.092,1.524c-1.354,0.667 -2.708,1.334 -4.062,2.001c-0.948,0.456 -2.072,-0.24 -2.033,-1.335c0.053,-1.419 0.923,-2.701 2.203,-3.363c0.038,-0.02 0.078,-0.038 0.116,-0.057c3.09,-1.518 6.186,-3.021 9.292,-4.506c0.172,-0.083 0.358,-0.179 0.431,-0.355c0.05,-0.122 0.036,-0.259 0.016,-0.389c-0.119,-0.756 -0.547,-2.346 -1.631,-1.798c-0.055,0.027 -8.114,4.097 -8.114,4.097c-0.948,0.46 -2.073,-0.24 -2.035,-1.276c0.054,-1.473 0.924,-2.756 2.205,-3.422l7.017,-3.466c0.557,-0.251 0.799,-0.902 0.603,-1.51l-0.145,-0.553c-0.142,-0.495 -0.791,-0.795 -1.29,-0.537l-8.859,4.383c-0.949,0.456 -2.073,-0.24 -2.033,-1.335c0.052,-1.419 0.918,-2.702 2.203,-3.364l5.586,-2.738l-1.623,0c-2.186,0 -3.994,-1.803 -3.994,-3.989l0,-5.95c0,-0.494 -0.383,-0.877 -0.872,-0.877c-1.367,0 -2.186,-1.585 -1.367,-2.676l2.462,-3.392c1.42,-2.021 3.771,-3.282 6.286,-3.282l9.185,0c1.749,0 2.844,1.915 1.915,3.446l-1.915,3.17c-0.219,0.441 0.053,0.931 0.548,0.931l6.78,0c2.186,0 3.989,1.749 3.989,3.993l0,4.637c0,2.186 -1.803,3.989 -3.989,3.989l-2.351,0l-7.46,0c0.032,0.617 0.29,1.176 0.503,1.769c0.632,1.797 1.186,3.612 1.656,5.444l9.439,-4.927c1.05,-0.549 2.338,-0.142 2.882,0.905c0.548,1.045 0.142,2.336 -0.903,2.881l-9.271,4.84l11.209,7.758c0.977,0.658 1.238,1.985 0.581,2.964m-2.385,59.825l-26.739,0c-2.494,0 -4.885,-1.073 -6.635,-2.883l-1.435,-1.53c-0.424,-0.451 -1.059,-0.506 -1.539,-0.11l-5.044,3.957c-0.956,0.737 -2.282,0 -2.282,-1.243c0,-1.866 0.851,-3.677 2.282,-4.81l3.026,-2.433c0.479,-0.396 0.799,-1.073 0.799,-1.755l0,-11.198c0,-0.567 -0.428,-1.078 -1.011,-1.078l-2.275,0c-1.224,0 -2.179,-1.018 -2.179,-2.317c0,-1.304 0.955,-2.377 2.179,-2.377l3.87,0c2.122,0 3.821,1.866 3.821,4.132l0,13.234c0,0.682 0.263,1.359 0.744,1.871l2.917,3.054c0.48,0.507 1.115,0.792 1.755,0.792l27.746,0c1.219,0 2.179,1.019 2.179,2.317c0,1.304 -0.96,2.377 -2.179,2.377m-44.872,-114.902c0.102,2.552 -2.188,2.556 -2.188,2.556l-5.402,0l0,-1.848l3.404,0c1.146,-0.079 1.027,-1.199 1.027,-1.199l0,-7.211l-1.438,2.627l-3.564,0l5.007,-8.602c0,0 0.123,-3.251 -0.301,-3.584l-1.374,2.662l-3.58,0l3.113,-5.977l-3.438,-5.495l3.771,0l1.463,2.238l1.593,-3.187l3.566,0l-3.27,6.1c1.269,1.587 1.611,5.279 1.611,6.891l0,14.029Zm-3.953,102.004l-10.734,0l-2.561,0l-8.653,0c-0.48,0 -0.904,0.17 -1.327,0.396l-2.338,1.529c-0.528,0.397 -0.848,1.019 -0.848,1.696l0,3.846c0,0.452 0.32,0.847 0.796,0.847l0.851,0c1.219,0 2.226,1.079 2.226,2.378c0,1.304 -1.007,2.377 -2.226,2.377l-2.23,0c-2.122,0 -3.826,-1.811 -3.826,-4.133l0,-3.053c0,-0.171 -0.212,-0.337 -0.423,-0.226c-0.576,0.341 -2.758,1.716 -4.405,2.756c-1.069,0.676 -2.447,0.283 -3.062,-0.869c-0.6,-1.124 -0.243,-2.553 0.801,-3.211l5.978,-3.767c0.264,-0.17 0.104,-0.566 -0.159,-0.566l-6.212,0c-1.275,0 -2.23,-1.073 -2.23,-2.378c0,-1.298 0.955,-2.376 2.23,-2.376l16.776,0c0.371,0 0.635,-0.281 0.635,-0.677l0,-0.17c0,-1.3 1.007,-2.378 2.23,-2.378c1.219,0 2.175,1.078 2.175,2.378l0,0.17c0,0.396 0.267,0.677 0.639,0.677l15.897,0c1.219,0 2.23,1.078 2.23,2.376c0,1.305 -1.011,2.378 -2.23,2.378m-1.83,13.295c-2.226,0 -4.457,-0.793 -6.155,-2.318l-6.391,-5.824c-1.219,-1.111 -0.915,-3.202 0.563,-3.868c0.74,-0.334 1.593,-0.202 2.214,0.343l2.075,1.822c0.372,0.341 0.956,0.341 1.379,0c1.699,-1.525 3.263,-2.074 5.441,-2.074l0.053,0c1.166,0 1.698,1.525 0.85,2.317l-2.787,2.701c-0.423,0.336 -0.423,1.018 0,1.414l3.558,3.109c0.899,0.848 0.371,2.378 -0.8,2.378m-39.599,-35.95c0,-1.188 0.899,-1.713 2.014,-1.713l23.741,0c1.115,0 1.967,0.525 1.967,1.713c0,1.188 -0.852,2.151 -1.967,2.151l-8.737,0c-0.423,0 -0.852,0.834 -0.852,1.286c0,0.511 0.429,1.416 0.852,1.416l5.608,0c2.122,0 3.872,1.357 3.872,3.619l0,2.718c0,1.184 -0.955,2.146 -2.07,2.146c-1.115,0 -2.019,-0.962 -2.019,-2.146l0,-1.474c0,-0.567 -0.423,-0.963 -0.899,-0.963l-4.28,0c-0.584,0 -1.064,0.456 -1.064,1.078l0,3.169c0,1.184 -0.847,2.147 -1.962,2.147c-1.115,0 -2.018,-0.963 -2.018,-2.147l0,-3.169c0,-0.622 -0.425,-1.078 -1.008,-1.078l-4.12,0c-0.584,0 -1.007,0.456 -1.007,1.018l0,1.87c0,1.188 -0.903,2.146 -2.018,2.146c-1.168,0 -2.071,-0.958 -2.071,-2.146l0,-3.169c0,-2.262 1.75,-3.619 3.873,-3.619l5.504,0c0.475,0 0.847,-0.905 0.847,-1.416c0,-0.452 -0.372,-1.286 -0.847,-1.286l-9.325,0c-1.115,0 -2.014,-0.963 -2.014,-2.151m-2.39,-67.559c-1.932,2.091 -3.781,4.256 -5.518,6.492c-0.444,0.572 -1.266,0.604 -1.786,0.1c-0.444,-0.426 -0.466,-1.109 -0.098,-1.572c1.767,-2.226 3.638,-4.379 5.588,-6.455c0.479,-0.503 0.966,-0.999 1.457,-1.491c0.506,-0.507 1.016,-1.01 1.528,-1.51c0.455,-0.445 0.912,-0.955 1.618,-0.797c0.321,0.072 0.591,0.33 0.698,0.638c0.155,0.448 -0.054,0.998 -0.334,1.356c-0.204,0.261 -0.48,0.48 -0.714,0.715c-0.278,0.278 -0.554,0.557 -0.829,0.838c-0.543,0.555 -1.082,1.115 -1.61,1.686m-0.102,84.524c-0.285,1.07 -1.47,1.47 -2.471,0.921c-1.194,-0.656 -2.367,-1.347 -3.515,-2.076c-4.703,-2.979 -9.023,-6.54 -12.598,-10.702c-1.928,-2.275 -3.594,-4.743 -4.969,-7.343c-0.445,-0.842 0.016,-1.896 0.943,-2.115c0.014,-0.002 0.027,-0.006 0.04,-0.009c0.664,-0.159 1.34,0.147 1.664,0.749c1.321,2.454 2.926,4.782 4.787,6.932c3.385,3.854 7.486,7.172 11.983,9.957c1.088,0.677 2.205,1.316 3.341,1.924c0.64,0.343 0.984,1.052 0.795,1.762m-23.855,-27.533l-3.043,-7.274l-10.98,-2.097c-1.047,-0.199 -1.476,-1.529 -0.757,-2.343l29.651,-33.548c0.446,-0.505 1.256,-0.143 1.22,0.545l-2.026,38.533c-0.044,0.832 -0.766,1.438 -1.553,1.304l-8.439,-1.441l-3.049,6.347c-0.209,0.437 -0.837,0.421 -1.024,-0.026m29.302,-50.349l4.318,0c0.548,0 1.038,-0.495 1.038,-1.042l0,-1.856c0,-1.15 0.93,-2.08 2.025,-2.08c1.148,0 2.075,0.93 2.075,2.08l0,1.856c0,0.547 0.494,1.042 1.041,1.042l3.059,0c1.26,0 2.298,1.037 2.298,2.239c0,1.26 -1.038,2.297 -2.298,2.297l-0.819,0c-0.383,0 -0.601,0.383 -0.436,0.707l3.227,6.292c0.49,0.93 -0.164,2.021 -1.26,2.021c-1.419,0 -2.734,-0.766 -3.388,-2.021l-0.93,-1.585c-0.112,-0.276 -0.494,-0.165 -0.494,0.107l0,12.412c0,1.149 -0.927,2.079 -2.075,2.079c-1.095,0 -2.025,-0.93 -2.025,-2.079l0,-11.046c0,-0.218 -0.326,-0.271 -0.437,-0.106l-2.351,5.685c-0.494,1.202 -1.749,2.079 -3.116,2.079c-1.095,0 -1.803,-1.096 -1.421,-2.133l4.537,-11.428c0.218,-0.494 -0.164,-0.984 -0.654,-0.984l-1.914,0c-1.26,0 -2.298,-1.037 -2.298,-2.297c0,-1.202 1.038,-2.239 2.298,-2.239m-0.793,-17.96c0.161,-0.536 4.128,-14.134 4.128,-14.134l4.034,0l-3.801,13.126c0,0 -0.199,0.811 0.646,0.897l2.912,0c0.24,0 0.391,-0.175 0.39,-0.394l0,-8.777l3.687,0l0,9.499c0,1.18 -0.497,1.862 -1.901,1.862c0,0 -6.85,-0.006 -8.407,-0.006c-1.513,0 -1.949,-1.215 -1.688,-2.073m0.415,-21.607l0,-2.148l2.72,0l1.112,-3.725l4.138,0l-1.116,3.725l3.815,0l0,2.148l-4.532,0l-2.479,7.35l-4.064,0l2.411,-7.35l-2.005,0Zm40.107,59.792c0,2.196 -1.798,3.994 -3.994,3.994l-7.395,0c-1.147,0 -2.076,-0.93 -2.076,-2.077c0,-1.147 0.929,-2.077 2.076,-2.077l6.14,0c0.6,0 1.094,-0.441 1.094,-1.042l0,-1.585c0,-0.601 -0.494,-1.037 -1.094,-1.037l-6.14,0c-1.147,0 -2.076,-0.93 -2.076,-2.076l0,-0.059c0,-1.147 0.929,-2.077 2.076,-2.077l6.14,0c0.6,0 1.094,-0.436 1.094,-1.037l0,-1.643c0,-0.601 -0.494,-1.038 -1.094,-1.038l-6.14,0c-1.147,0 -2.076,-0.93 -2.076,-2.077l0,-0.057c0,-1.148 0.929,-2.077 2.076,-2.077l6.14,0c0.6,0 1.094,-0.436 1.094,-1.038l0,-1.696c0,-0.6 -0.494,-1.036 -1.094,-1.036l-6.14,0c-1.147,0 -2.076,-0.931 -2.076,-2.078l0,-0.111c0,-1.147 0.929,-2.077 2.076,-2.077l7.395,0c2.196,0 3.994,1.797 3.994,3.993l0,20.008Zm-4.618,7.286c1.309,0 2.512,0.931 2.894,2.239l1.314,4.76c0.329,1.149 -0.548,2.239 -1.696,2.239c-1.367,0 -2.57,-0.925 -2.953,-2.239l-1.255,-4.76c-0.329,-1.143 0.49,-2.239 1.696,-2.239m-8.024,29.245c0,-1.359 1.007,-2.432 2.282,-2.432c1.276,0 2.283,1.073 2.283,2.432l0,8.993c0,1.359 -1.007,2.432 -2.283,2.432c-1.275,0 -2.282,-1.073 -2.282,-2.432l0,-8.993Zm-7.589,-34.67l0,-23.73c0,-1.178 0.955,-2.132 2.133,-2.132c1.177,0 2.132,0.954 2.132,2.132l0,23.73c0,1.178 -0.955,2.133 -2.132,2.133c-1.178,0 -2.133,-0.955 -2.133,-2.133m0.653,5.121c1.63,0 3.074,1.085 3.619,2.65l0.255,1.232c0.423,1.329 -0.54,2.655 -1.865,2.655c-1.63,0 -3.137,-1.085 -3.619,-2.655l-0.319,-1.232c-0.422,-1.325 0.54,-2.65 1.929,-2.65m-7.576,12.687c-2.191,0 -3.994,-1.75 -3.994,-3.989l0,-7.271c0,-1.261 1.037,-2.245 2.297,-2.245c1.255,0 2.239,0.984 2.239,2.245l0,6.04c0,0.601 0.495,1.041 1.096,1.041l14.008,0c1.313,0 2.297,0.626 2.297,1.881c0,1.26 -0.984,2.298 -2.297,2.298l-15.646,0Zm-13.171,-5.384l1.314,-4.76c0.382,-1.308 1.585,-2.239 2.894,-2.239c1.206,0 2.025,1.096 1.696,2.239l-1.256,4.76c-0.383,1.314 -1.585,2.239 -2.952,2.239c-1.149,0 -2.025,-1.09 -1.696,-2.239m0.61,18.074c0.428,-1.355 1.647,-2.262 2.974,-2.262l0.795,0c0.691,0 1.167,0.793 0.956,1.474c-0.104,0.226 0.056,0.397 0.211,0.397l3.697,0c0.32,0 0.584,-0.286 0.584,-0.627l0,-0.337c0,-1.188 0.903,-2.095 2.018,-2.095c1.115,0 1.962,0.907 1.962,2.095l0,0.337c0,0.341 0.321,0.627 0.64,0.627l6.775,0c1.115,0 2.013,0.958 2.013,2.146c0,1.189 -0.898,2.151 -2.013,2.151l-1.07,0l-5.281,0l-6.052,0l-4.971,0l-4.022,0c-0.625,0 -0.279,-0.886 -0.115,-1.358l0.899,-2.548Zm39.975,21.047c0,1.333 -0.973,2.378 -2.213,2.418c-0.025,0.001 -0.045,0.015 -0.07,0.015l-4.803,0c-1.276,0 -2.284,-1.073 -2.284,-2.433c0,-1.358 1.008,-2.432 2.284,-2.432l2.469,0l0,-17.988c0,-1.415 1.063,-2.493 2.334,-2.493c1.276,0 2.283,1.078 2.283,2.493l0,20.365c0,0.011 -0.005,0.019 -0.006,0.028c0.001,0.01 0.006,0.018 0.006,0.027m-20.568,-119.073l-1.736,2.786l4.288,0l0,-2.784l4.006,0l0,2.784l4.995,0l0,2.161l-4.995,0l0,5.548l4.631,0l0,2.167l-4.631,0l0,5.813l4.631,0l0,2.177l-4.631,0l0,6.731l4.631,0l0,2.169l-14.407,0c-1.623,0 -2.545,-1.183 -2.545,-2.476c0,-0.02 0.016,-17.427 0.016,-17.427l-1.166,2.213l-4.003,0l6.631,-11.862l4.285,0Zm25.144,2.858l1.683,0l0,-2.832l3.177,0l0,2.832l0.963,0c0.894,0 1.393,0.75 1.393,1.402l0,9.134c0,0.676 -0.509,1.396 -1.417,1.396l-3.331,0l0,1.856l3.362,0c0.801,0 1.386,0.668 1.386,1.403l0,10.15c0,0.7 -0.566,1.363 -1.399,1.363l-5.798,0c-0.522,-0.018 -0.716,-0.383 -0.716,-0.677l0,-25.309c0.024,-0.547 0.408,-0.715 0.697,-0.718m5.929,105.446c-1.581,0 -3.045,-1.123 -3.512,-2.748l-0.586,-1.747c-0.41,-1.372 0.524,-2.743 1.873,-2.743c1.582,0 2.983,1.122 3.513,2.743l0.524,1.747c0.41,1.377 -0.524,2.748 -1.812,2.748m2.473,-61.38c0.929,0.255 1.572,1.098 1.572,2.06l0,34.554c0,1.18 -0.956,2.137 -2.136,2.137c-1.181,0 -2.137,-0.957 -2.137,-2.137l0,-26.753l-2.156,3.641c-0.598,1.013 -1.906,1.358 -2.926,0.75c-1.014,-0.601 -1.352,-1.911 -0.749,-2.927l6.13,-10.354c0.491,-0.827 1.475,-1.223 2.402,-0.971m13.259,82.561l14.136,0c0.587,0 1.063,-0.508 1.063,-1.134l0,-4.206c0,-0.593 -0.451,-1.074 -1.008,-1.074l-10.81,0c-1.114,0 -2.016,-0.962 -2.016,-2.149c0,-1.186 0.902,-2.148 2.016,-2.148l12.03,0c2.132,0 3.877,1.859 3.877,4.131l0,6.75c0,2.27 -1.742,4.127 -3.873,4.127l-16.638,0c-2.13,0 -3.873,-1.858 -3.873,-4.127l0,-4.525l0,-2.229l0,-2.11c0,-1.115 0.903,-2.017 2.017,-2.017c1.113,0 2.016,0.902 2.016,2.017l0,7.56c0,0.622 0.476,1.134 1.063,1.134m-0.813,-29.731l4.224,0c0.532,0 1.007,-0.512 1.007,-1.078l0,-1.585c0,-1.299 1.012,-2.372 2.23,-2.372c1.224,0 2.231,1.073 2.231,2.372l0,1.585c0,0.566 0.423,1.078 0.955,1.078l8.401,0c1.219,0 2.231,1.018 2.231,2.372c0,1.304 -1.012,2.377 -2.231,2.377l-8.349,0c-0.584,0 -1.007,0.452 -1.007,1.078l0,4.085c0,0.622 0.423,1.074 1.007,1.074l8.762,0c1.275,0 2.23,1.073 2.23,2.377c0,1.298 -0.955,2.376 -2.23,2.376l-24.79,0c-1.223,0 -2.229,-1.078 -2.229,-2.376c0,-1.304 1.006,-2.377 2.229,-2.377l9.553,0c0.532,0 1.007,-0.452 1.007,-1.074l0,-4.085c0,-0.626 -0.475,-1.078 -1.007,-1.078l-5.979,0c-0.476,0 -0.847,0.286 -1.007,0.683l-0.16,0.336c-0.532,1.473 -1.858,2.432 -3.345,2.432c-1.167,0 -1.912,-1.299 -1.483,-2.432l2.597,-6.505c0.532,-1.415 1.86,-2.377 3.295,-2.377c1.166,0 1.91,1.244 1.486,2.377l0,0.055c-0.16,0.341 0.052,0.682 0.372,0.682m-12.411,-98.817l12.572,0l0,1.875l-4.7,0l0,1.829l2.72,0c1.003,0 1.797,0.59 1.797,1.689l0,22.288l-3.11,0c0,0 -0.002,-21.526 -0.002,-21.708c0,-0.25 -0.172,-0.414 -0.42,-0.414l-1.002,0l0,23.289l-3.103,0l0,-23.297l-1.44,0l0,22.132l-3.108,0l0,-22.282c0,-1.027 0.838,-1.694 1.704,-1.694l2.845,0l0,-1.832l-4.753,0l0,-1.875Zm20.996,15.014c-1.335,-0.891 -1.796,-1.931 -1.796,-3.641l0,-6.878l-3.549,0l0,-2.527l14.036,0l0,-2.866l4.817,0l0,2.866l14.036,0l0,2.525l-3.543,0l0,7.161c0,1.385 -0.414,2.369 -1.604,3.192c-1.04,0.726 -7.352,4.964 -7.352,4.964l13.239,8.842l-7.879,0l-9.297,-6.209l-9.269,6.209l-7.891,0l13.22,-8.842c0,0 -5.68,-3.798 -7.168,-4.796m29.28,6.295l2.431,0l0,-19.151c0,-1.952 0.881,-2.999 2.991,-2.999l21.957,0c2.13,0 2.889,1.314 2.889,3.005l0,19.145l2.431,0l0,2.261l-4.525,0l4.249,5.035l-5.721,0l-4.248,-5.035l-12.234,0l-4.249,5.035l-5.722,0l4.252,-5.035l-4.501,0l0,-2.261Zm9.429,78.082l-13.199,6.847c-1.288,0.561 -2.811,0.01 -3.398,-1.335c-0.564,-1.293 0.069,-2.784 1.358,-3.346l13.198,-6.847c1.293,-0.564 2.76,0.012 3.323,1.305c0.587,1.346 0.011,2.812 -1.282,3.376m22.508,0l-13.198,6.847c-1.288,0.561 -2.812,0.01 -3.399,-1.335c-0.563,-1.293 0.07,-2.784 1.359,-3.346l13.198,-6.847c1.293,-0.564 2.759,0.012 3.323,1.305c0.586,1.346 0.01,2.812 -1.283,3.376m2.122,-47.385l-3.057,29.841c-0.063,1.426 -1.247,2.552 -2.673,2.552c-1.425,0 -2.493,-1.184 -2.434,-2.552l2.946,-27.885c0,-0.594 -0.478,-1.125 -1.131,-1.125l-16.528,0c-0.653,0 -1.247,0.473 -1.368,1.125l-6.844,26.017c-0.416,1.483 -1.72,2.551 -3.266,2.551c-1.363,0 -2.31,-1.242 -2.016,-2.551l6.966,-26.017c0.179,-0.594 -0.295,-1.125 -0.831,-1.125l-8.647,0c-1.425,0 -2.55,-1.131 -2.55,-2.551c0,-1.425 1.125,-2.556 2.55,-2.556l9.241,0c0.652,0 1.184,-0.532 1.184,-1.184l0,-4.445c0,-1.368 1.067,-2.556 2.493,-2.556c1.425,0 2.551,1.188 2.551,2.556l0,4.445c0,0.652 0.537,1.184 1.131,1.184l18.191,0c2.314,0 4.213,1.961 4.092,4.276m46.728,-88.85c0,-4.806 -3.9,-8.714 -8.723,-8.714l-215.571,0c-4.822,0 -8.722,3.903 -8.722,8.714l-0.004,215.57c0,4.819 3.904,8.732 8.726,8.736l215.571,0c4.823,-0.004 8.727,-3.922 8.727,-8.739l-0.004,-215.567Z" style="fill:#02bfd7;fill-rule:nonzero;"/><path d="M120.761,89.067l-5.739,0c-0.712,0 -1.313,0.324 -1.696,0.819l-1.261,1.696c-0.271,0.383 0,0.873 0.441,0.873l0.015,0.021c0.33,0.051 0.586,0.324 0.586,0.667l0,7.176c0,0.601 0.49,1.037 1.038,1.037l5.578,0c0.601,0 1.091,-0.436 1.091,-1.037l0,-3.109c0,-0.601 -0.49,-1.091 -1.091,-1.091l-2.259,0l-0.024,0c-1.012,0 -1.832,-0.82 -1.832,-1.832c0,-1.012 0.82,-1.832 1.832,-1.832l1.241,0c0.659,0 1.26,-0.33 1.59,-0.93l0.984,-1.586c0.218,-0.382 -0.057,-0.872 -0.494,-0.872" style="fill:#02bfd7;fill-rule:nonzero;"/><rect x="158.935" y="58.08" width="19.235" height="3.155" style="fill:#02bfd7;"/></svg>