<?xml version="1.0" encoding="UTF-8" standalone="no"?><!DOCTYPE svg PUBLIC "-//W3C//DTD SVG 1.1//EN" "http://www.w3.org/Graphics/SVG/1.1/DTD/svg11.dtd"><svg width="100%" height="100%" viewBox="0 0 2543 718" version="1.1" xmlns="http://www.w3.org/2000/svg" xmlns:xlink="http://www.w3.org/1999/xlink" xml:space="preserve" xmlns:serif="http://www.serif.com/" style="fill-rule:evenodd;clip-rule:evenodd;stroke-linejoin:round;stroke-miterlimit:2;"><path d="M172.521,356.36c0,0 15.999,-23.232 58.61,-31.327c42.578,-8.062 72.62,-10.103 94.775,-12.109c22.123,-2.007 48.991,-1.497 60.085,-6.293c11.061,-4.83 49.023,-14.899 58.481,-18.98c9.491,-4.014 14.236,-6.021 33.217,-13.096c18.981,-7.075 47.773,-18.164 54.73,-23.232c6.926,-5.034 18.211,-6.055 28.407,-18.164c10.164,-12.143 13.082,-15.137 33.762,-20.205c20.68,-5.034 28.567,-3.061 42.803,-11.123c14.235,-8.061 29.273,-15.068 36.775,-21.667c7.503,-6.599 18.628,-25.307 24.88,-26.804c6.285,-1.496 7.182,-13.129 17.154,-13.47c10.003,-0.408 35.717,-15.17 37.673,-17.347c2.34,-2.585 3.334,-4.592 10.003,-8.572c7.407,-4.388 21.225,-7.041 25.65,-11.089c4.393,-4.047 17.859,-19.422 17.859,-19.422c0,0 9.073,-12.143 15.422,-16.191c6.316,-4.048 15.614,-10.715 20.231,-9.252c4.649,1.428 14.139,9.524 17.314,14.558c3.142,5.068 37.929,22.246 37.929,22.246c0,0 15.807,6.02 20.552,8.061c4.745,2.007 11.094,2.007 18.981,7.075c7.919,5.035 12.664,8.3 14.235,12.586c1.604,4.286 3.559,10.374 7.727,16.633c11.992,5.374 14.012,12.756 14.012,12.756c0,0 10.74,2.449 14.267,6.496c3.527,4.048 5.836,7.722 11.414,13.096c5.162,4.966 29.979,14.729 29.947,16.225c0.897,2.211 8.143,15.103 8.143,15.103c0,0 22.027,16.157 33.089,21.191c11.061,5.068 11.061,4.048 25.297,12.143c14.235,8.062 17.377,13.13 22.123,15.137c4.745,2.041 6.412,4.048 18.243,8.061c11.799,4.082 10.196,5.069 18.115,4.082c7.92,-1.054 31.646,-6.089 36.391,-12.143c4.745,-6.055 24.495,-21.021 28.439,-21.191c3.976,-0.17 9.619,10.102 14.3,12.109c4.681,2.007 11.029,12.109 20.487,9.082c9.491,-3.028 19.302,0 24.688,0c5.387,0 5.291,-5.034 14.813,0c9.555,5.068 -1.539,0.986 9.555,5.068c11.029,4.048 5.675,2.993 16.287,6.021c10.581,3.061 27.317,7.075 27.317,7.075c0,0 14.877,5.068 25.971,5.068c11.029,0 3.911,2.007 22.507,0c18.596,-2.041 45.465,-2.041 50.21,-2.041c4.745,0 17.377,1.02 37.961,0c20.52,-0.986 53.705,-5.034 60.822,-3.027c7.15,2.041 5.579,1.054 19.783,3.027c14.268,2.041 14.268,2.041 26.9,5.068c12.665,3.028 10.1,1.701 22.636,4.048c35.878,0.986 48.51,4.048 73.807,-2.041c25.297,-6.055 15.839,-3.027 53.801,-18.164c37.897,-15.136 26.323,-15.136 45.56,-25.239c19.237,-10.102 30.395,-14.626 36.07,-22.245c5.867,-7.926 -1.186,-4.728 10.035,-16.123c12.537,-12.722 5.643,-13.164 28.921,-24.253c23.277,-11.089 21.674,-15.137 34.338,-20.205c12.633,-5.034 17.442,-3.163 30.043,-14.184c12.664,-11.055 9.49,-6.021 22.924,-16.633c13.434,-10.579 17.924,-31.158 27.415,-37.246c9.49,-6.021 18.981,-22.552 23.726,-24.899l4.745,-2.381c0,0 16.807,-23.777 23.123,-19.763c6.316,4.048 -6.316,-4.014 6.316,4.048c12.665,8.061 18.981,10.102 23.758,14.15c4.714,4.014 3.143,9.048 12.633,15.613c9.49,6.565 7.887,4.592 23.694,10.613c6.156,1.904 3.174,-0.987 15.839,6.054c12.632,7.075 14.235,12.348 18.948,12.722l4.778,0.442c0,0 4.713,3.027 11.061,8.061c6.316,5.069 25.297,13.13 31.614,16.157c6.316,3.062 20.551,5.035 28.471,8.062c7.919,3.061 7.919,8.095 33.216,8.095c25.297,0 45.817,-2.006 58.482,2.007c12.632,4.048 12.632,14.729 25.297,12.416c12.632,-2.279 8.753,-1.497 26.9,-2.279c36.359,-1.021 23.694,0 47.42,-2.041c23.726,-2.007 20.552,-4.048 31.645,-5.034c11.03,-1.021 36.327,-7.075 44.246,-7.075c7.92,0 21.45,1.768 30.748,-2.041c9.33,-3.776 36.872,-15.137 36.872,-15.137l2.717,588.252l-2370.14,6.531l0,-361.51Z" style="fill:#D3FBF9;fill-rule:nonzero;"/><path d="M0,341.432c0,0 16.973,-23.232 62.179,-31.328c45.172,-8.061 77.044,-10.102 100.548,-12.109c23.47,-2.007 51.974,-1.497 63.743,-6.293c11.736,-4.83 52.009,-14.898 62.043,-18.98c10.069,-4.014 15.103,-6.021 35.24,-13.096c20.136,-7.075 50.682,-18.164 58.063,-23.232c7.347,-5.034 19.32,-6.055 30.137,-18.164c10.783,-12.143 13.878,-15.136 35.818,-20.205c21.939,-5.034 30.307,-3.061 45.409,-11.123c15.103,-8.061 31.056,-15.068 39.015,-21.667c7.96,-6.599 19.763,-25.307 26.396,-26.804c6.667,-1.496 7.619,-13.129 18.198,-13.469c10.612,-0.409 37.892,-15.171 39.967,-17.348c2.483,-2.585 3.538,-4.592 10.613,-8.572c7.857,-4.388 16.863,-15.975 20.212,-21.191c9.66,-15.048 20.946,-38.372 20.946,-38.372c0,0 23.547,-11.853 29.361,-17.139c7.201,-6.548 18.565,-23.715 23.463,-22.252c4.347,1.259 16.539,18.566 21.906,22.252c6.069,4.167 9.945,5.991 17.462,17.139c2.907,4.311 19.995,7.177 22.289,10.262c2.796,3.759 14.951,30.151 14.951,30.151c0,0 16.769,6.021 21.803,8.061c0.747,0.298 1.531,0.552 2.352,0.784c4.716,1.335 10.658,1.975 17.785,6.292c8.402,5.034 13.436,8.299 15.102,12.585c1.701,4.286 3.776,10.375 8.198,16.633c12.722,5.375 14.864,12.756 14.864,12.756c0,0 11.395,2.449 15.137,6.497c3.742,4.047 6.191,7.721 12.109,13.095c5.477,4.966 31.804,14.729 31.77,16.225c0.953,2.211 8.64,15.103 8.64,15.103c0,0 23.368,16.157 35.103,21.191c11.735,5.068 11.735,4.048 26.838,12.143c15.102,8.062 25.641,28.267 34.043,27.28c8.401,-1.054 33.572,-6.088 38.607,-12.143c5.034,-6.055 25.987,-21.021 30.171,-21.191c4.217,-0.17 10.204,10.102 15.17,12.109c4.966,2.007 11.701,12.109 21.736,9.082c10.068,-3.027 20.477,0 26.191,0c5.715,0 5.613,-5.034 15.715,0c10.136,5.068 -1.633,0.986 10.136,5.068c11.701,4.048 6.021,2.994 17.28,6.021c11.225,3.061 28.98,7.075 28.98,7.075c0,0 15.783,5.068 27.552,5.068c11.701,0 4.15,2.007 23.879,0c19.728,-2.041 48.233,-2.041 53.267,-2.041c5.034,0 18.436,1.021 40.273,0c21.77,-0.986 56.975,-5.034 64.526,-3.027c7.586,2.041 5.919,1.054 20.988,3.027c15.136,2.041 15.136,2.041 28.538,5.068c13.436,3.028 10.715,1.701 24.014,4.048c38.063,0.987 51.465,4.048 78.302,-2.041c26.838,-6.054 16.804,-3.027 57.077,-18.164c40.206,-15.136 27.926,-15.136 48.335,-25.239c20.409,-10.102 32.246,-14.626 38.267,-22.245c6.225,-7.926 -1.259,-4.728 10.647,-16.123c13.299,-12.722 5.986,-13.164 30.681,-24.253c24.695,-11.089 22.994,-15.136 36.43,-20.205c13.402,-5.034 14.504,-39.457 27.872,-50.478c13.435,-11.054 23.068,-19.53 37.32,-30.142c14.252,-10.579 13.321,-22.81 23.389,-28.898c10.068,-6.021 20.137,-16.464 25.171,-18.811l5.034,-2.381c0,0 16.769,5.069 23.47,9.082c6.701,4.048 -6.701,-4.013 6.701,4.048c13.436,8.062 20.137,10.102 25.205,14.15c5,4.014 3.334,9.048 13.402,15.613c10.068,6.565 3.171,10.613 19.94,16.633c6.531,1.905 6.667,5.604 20.103,12.645c13.402,7.075 4,9.726 9,10.1c1.915,3.99 7.183,8.641 12.679,9.05c0,0 -2.611,3.538 4.124,8.572c6.701,5.068 41.838,51.022 48.539,54.05c6.701,3.061 21.803,5.034 30.205,8.061c8.402,3.061 8.402,8.096 35.239,8.096c26.838,0 48.608,-2.007 62.043,2.006c13.402,4.048 13.402,14.729 26.838,12.416c13.402,-2.279 9.286,-1.497 28.538,-2.279c38.573,-1.021 25.137,0 50.308,-2.041c25.171,-2.007 21.804,-4.048 33.573,-5.034c11.701,-1.021 38.539,-7.075 46.94,-7.075c8.402,0 22.756,1.768 32.62,-2.041c9.899,-3.776 39.117,-15.137 39.117,-15.137l-1.36,537.774l-2514.47,6.531l0,-361.509Z" style="fill:#B4F9F6;fill-rule:nonzero;"/></svg>