<?xml version="1.0" encoding="UTF-8" standalone="no"?>
<!DOCTYPE svg PUBLIC "-//W3C//DTD SVG 1.1//EN" "http://www.w3.org/Graphics/SVG/1.1/DTD/svg11.dtd">
<svg width="100%" height="100%" viewBox="0 0 20 20" version="1.1" xmlns="http://www.w3.org/2000/svg" xmlns:xlink="http://www.w3.org/1999/xlink" xml:space="preserve" xmlns:serif="http://www.serif.com/" style="fill-rule:evenodd;clip-rule:evenodd;stroke-linejoin:round;stroke-miterlimit:2;">
    <g transform="matrix(1,0,0,1,-1833,-70)">
        <g transform="matrix(1,0,0,1,-0.929847,6.67888)">
            <g id="cart" transform="matrix(0.0130208,-8.67362e-19,8.67362e-19,0.0130208,1843.93,73.3211)">
                <g transform="matrix(1,0,0,1,-768,-768)">
                    <clipPath id="_clip1">
                        <rect x="0" y="0" width="1536" height="1536"/>
                    </clipPath>
                    <g clip-path="url(#_clip1)">
                        <path d="M800.001,1200C800.001,1171.84 795.201,1144.96 786.21,1120L973.443,1120C964.8,1144.96 960,1171.84 960,1200C960,1332.51 1067.49,1440 1200,1440C1332.48,1440 1440,1332.51 1440,1200C1440,1067.52 1332.48,960 1200,960L672,960C636.801,960 608.001,931.2 608.001,896.001C608.001,860.802 636.801,832.002 672,832.002L1222.4,832.002C1280.32,832.002 1330.21,798.051 1352.93,748.803C1361.6,730.239 1527.36,352.32 1527.36,352.32C1531.84,342.048 1536,331.839 1536,320.001C1536,284.802 1507.2,256.002 1472,256.002L472.929,255.999L446.049,173.118C433.599,128.64 398.721,96 351.999,96L80.001,96C35.841,96 0,131.841 0,176.001C0,220.161 35.841,255.999 80.001,255.999L248.001,255.999C276.48,255.999 300.48,274.56 308.802,299.838L443.841,990.045C369.951,1030.72 320.001,1109.76 320.001,1200C320.001,1332.51 427.488,1440 560.001,1440C692.481,1440 800.001,1332.51 800.001,1200ZM639.999,1200C639.999,1244.16 604.158,1280 559.998,1280C515.838,1280 480,1244.16 480,1200C480,1155.84 515.841,1120 560.001,1120C604.161,1120 639.999,1155.84 639.999,1200ZM1280,1200C1280,1244.16 1244.16,1280 1200,1280C1155.84,1280 1120,1244.16 1120,1200C1120,1155.84 1155.84,1120 1200,1120C1244.16,1120 1280,1155.84 1280,1200Z" style="fill:white;fill-rule:nonzero;"/>
                    </g>
                </g>
            </g>
        </g>
    </g>
</svg>
