<?xml version="1.0" encoding="UTF-8" standalone="no"?>
<!DOCTYPE svg PUBLIC "-//W3C//DTD SVG 1.1//EN" "http://www.w3.org/Graphics/SVG/1.1/DTD/svg11.dtd">
<svg width="100%" height="100%" viewBox="0 0 28 28" version="1.1" xmlns="http://www.w3.org/2000/svg" xmlns:xlink="http://www.w3.org/1999/xlink" xml:space="preserve" xmlns:serif="http://www.serif.com/" style="fill-rule:evenodd;clip-rule:evenodd;stroke-linejoin:round;stroke-miterlimit:2;">
    <g transform="matrix(1,0,0,1,-1843.33,-66)">
        <g transform="matrix(0.622222,0,0,0.622222,1843.33,66)">
            <g transform="matrix(1,0,0,1,42,22.5)">
                <path d="M0,0C0,0.799 -0.061,1.633 -0.185,2.533C-0.287,2.512 -0.393,2.5 -0.5,2.5L-3,2.5L-3,0.621L-0.879,-1.5L-0.059,-1.5C-0.02,-0.997 0,-0.495 0,0M-25,-13.621L-25.561,-13.061C-26.146,-12.476 -26.146,-11.524 -25.561,-10.939L-22.561,-7.939C-21.977,-7.355 -21.023,-7.355 -20.439,-7.939L-19.5,-8.879L-18,-7.379L-18,-5.5L-18.5,-5.5C-18.9,-5.5 -19.277,-5.344 -19.561,-5.061L-21.561,-3.061C-21.722,-2.899 -21.842,-2.708 -21.915,-2.5L-22.5,-2.5C-22.9,-2.5 -23.277,-2.344 -23.561,-2.061L-25.561,-0.06C-25.84,0.22 -26,0.606 -26,1.001L-26,1.167L-28.3,-1.899C-28.581,-2.275 -29.03,-2.5 -29.5,-2.5L-30.879,-2.5L-31,-2.62L-31,-4.379L-30.439,-4.939C-30.156,-5.223 -30,-5.6 -30,-6L-30,-7C-30,-7.4 -30.156,-7.777 -30.439,-8.061L-31,-8.621L-31,-11C-31,-11.4 -31.156,-11.777 -31.439,-12.061L-33.211,-13.832C-32.98,-14.061 -32.744,-14.283 -32.503,-14.5L-25.121,-14.5L-25,-14.379L-25,-13.621ZM-20.439,7.939L-22,6.379L-22,5.621L-20.879,4.5L-19.121,4.5L-16,7.621L-16,8.379L-18.561,10.939C-18.844,11.223 -19,11.6 -19,12L-19,12.379L-19.561,12.939C-19.844,13.223 -20,13.6 -20,14L-20,9C-20,8.6 -20.156,8.223 -20.439,7.939M-19.5,19.5C-30.252,19.5 -39,10.752 -39,0C-39,-4.193 -37.68,-8.177 -35.177,-11.556L-34,-10.379L-34,-8C-34,-7.6 -33.844,-7.223 -33.561,-6.939L-33.121,-6.5L-33.561,-6.061C-33.844,-5.777 -34,-5.4 -34,-5L-34,-1.999C-34,-1.599 -33.844,-1.222 -33.561,-0.938L-32.561,0.061C-32.281,0.34 -31.895,0.5 -31.5,0.5L-30.25,0.5L-27.7,3.899C-27.419,4.275 -26.97,4.5 -26.5,4.5L-25.5,4.5C-25.267,4.5 -25.045,4.441 -24.841,4.341C-24.941,4.545 -25,4.767 -25,5L-25,7C-25,7.4 -24.844,7.777 -24.561,8.061L-23,9.621L-23,15C-23,15.4 -22.844,15.777 -22.561,16.061L-20.561,18.061C-20.277,18.344 -19.9,18.5 -19.5,18.5C-19.1,18.5 -18.723,18.344 -18.439,18.061L-17.439,17.061C-17.156,16.777 -17,16.4 -17,16L-17,14.621L-16.439,14.061C-16.156,13.777 -16,13.4 -16,13L-16,12.621L-13.439,10.061C-13.156,9.777 -13,9.4 -13,9L-13,7C-13,6.6 -13.156,6.223 -13.439,5.939L-17.439,1.939C-17.723,1.656 -18.1,1.5 -18.5,1.5L-21.5,1.5C-21.9,1.5 -22.277,1.656 -22.561,1.939L-23.078,2.457C-23.031,2.311 -23,2.158 -23,2L-23,1.622L-21.879,0.5L-20.5,0.5C-19.673,0.5 -19,-0.173 -19,-1L-19,-1.379L-17.879,-2.5L-16.5,-2.5C-15.673,-2.5 -15,-3.173 -15,-4L-15,-8C-15,-8.4 -15.156,-8.777 -15.439,-9.061L-18.439,-12.061C-19.023,-12.645 -19.977,-12.645 -20.561,-12.061L-21.5,-11.121L-22.381,-12.002C-22.135,-12.276 -22,-12.628 -22,-13L-22,-15C-22,-15.4 -22.156,-15.777 -22.439,-16.061L-23.439,-17.061C-23.723,-17.344 -24.1,-17.5 -24.5,-17.5L-28.051,-17.5C-25.384,-18.812 -22.463,-19.5 -19.5,-19.5C-10.477,-19.5 -2.594,-13.228 -0.525,-4.5L-1.5,-4.5C-1.9,-4.5 -2.277,-4.344 -2.561,-4.061L-5.561,-1.061C-5.844,-0.777 -6,-0.4 -6,0L-6,4C-6,4.827 -5.327,5.5 -4.5,5.5L-1.121,5.5L-0.878,5.743C-3.387,13.858 -11.001,19.5 -19.5,19.5M-19.5,-22.5C-31.906,-22.5 -42,-12.406 -42,0C-42,12.406 -31.906,22.5 -19.5,22.5C-7.094,22.5 3,12.406 3,0C3,-12.406 -7.094,-22.5 -19.5,-22.5" style="fill:white;fill-rule:nonzero;"/>
            </g>
        </g>
    </g>
</svg>
