<?xml version="1.0" encoding="UTF-8" standalone="no"?><!DOCTYPE svg PUBLIC "-//W3C//DTD SVG 1.1//EN" "http://www.w3.org/Graphics/SVG/1.1/DTD/svg11.dtd"><svg width="100%" height="100%" viewBox="0 0 23 15" version="1.1" xmlns="http://www.w3.org/2000/svg" xmlns:xlink="http://www.w3.org/1999/xlink" xml:space="preserve" xmlns:serif="http://www.serif.com/" style="fill-rule:evenodd;clip-rule:evenodd;stroke-linejoin:round;stroke-miterlimit:2;"><path d="M18.388,12.466c-0.549,0 -0.997,-0.447 -0.997,-0.997c0,-0.549 0.448,-0.996 0.997,-0.996c0.549,0 0.996,0.447 0.996,0.996c0,0.55 -0.447,0.997 -0.996,0.997m-14.918,-7.154c0.497,-1.851 2.427,-3.406 5.577,-3.406c3.9,0 5.577,3.406 5.577,3.406l-3.438,0l-7.716,0Zm1.125,7.154c-0.549,0 -0.997,-0.447 -0.997,-0.997c0,-0.549 0.448,-0.996 0.997,-0.996c0.549,0 0.996,0.447 0.996,0.996c0,0.55 -0.447,0.997 -0.996,0.997m12.483,-7.157c0,0 -2.227,-5.309 -7.838,-5.309c-9.993,0 -9.298,9.646 -9.189,9.975c0,1.358 1.028,1.608 1.028,1.608l0.619,0c0.06,1.551 1.332,2.79 2.897,2.79c1.564,0 2.836,-1.239 2.897,-2.79l7.999,0c0.061,1.551 1.332,2.79 2.897,2.79c1.564,0 2.836,-1.239 2.897,-2.79l0.678,0c0.659,0 0.902,-0.797 0.985,-1.301c0,0 1.013,-4.973 -5.87,-4.973" style="fill:#fff;fill-rule:nonzero;"/></svg>