<?xml version="1.0" encoding="UTF-8" standalone="no"?><!DOCTYPE svg PUBLIC "-//W3C//DTD SVG 1.1//EN" "http://www.w3.org/Graphics/SVG/1.1/DTD/svg11.dtd"><svg width="100%" height="100%" viewBox="0 0 20 20" version="1.1" xmlns="http://www.w3.org/2000/svg" xmlns:xlink="http://www.w3.org/1999/xlink" xml:space="preserve" xmlns:serif="http://www.serif.com/" style="fill-rule:evenodd;clip-rule:evenodd;stroke-linejoin:round;stroke-miterlimit:2;"><path d="M10,2.5c4.136,0 7.5,3.364 7.5,7.5c0,4.136 -3.364,7.5 -7.5,7.5c-4.136,0 -7.5,-3.364 -7.5,-7.5c0,-4.136 3.364,-7.5 7.5,-7.5m0,-2.5c-5.523,0 -10,4.478 -10,10c0,5.522 4.478,10 10,10c5.523,0 10,-4.478 10,-10c0,-5.523 -4.478,-10 -10,-10Zm3.389,11.611l-2.139,-2.141l0,-4.47l-2.514,0l0,4.995c0,0.376 0.173,0.701 0.434,0.932l2.451,2.452l1.768,-1.768Z" style="fill:#fff;fill-rule:nonzero;"/></svg>