<?xml version="1.0" encoding="UTF-8" standalone="no"?><!DOCTYPE svg PUBLIC "-//W3C//DTD SVG 1.1//EN" "http://www.w3.org/Graphics/SVG/1.1/DTD/svg11.dtd"><svg width="100%" height="100%" viewBox="0 0 576 640" version="1.1" xmlns="http://www.w3.org/2000/svg" xmlns:xlink="http://www.w3.org/1999/xlink" xml:space="preserve" xmlns:serif="http://www.serif.com/" style="fill-rule:evenodd;clip-rule:evenodd;stroke-linejoin:round;stroke-miterlimit:2;"><path d="M0,128c0,-35.2 28.8,-64 64,-64l448,0c35.346,0 64,28.654 64,64l0,448c0,35.346 -28.654,64 -64,64l-448,0c-35.346,0 -64,-28.654 -64,-64l0,-448Zm64,64l0,384l448,0l0,-384l-448,0Zm64,-192l64,0l0,64l-64,0l0,-64Zm256,0l64,0l0,64l-64,0l0,-64Zm-256,288l64,0l0,64l-64,0l0,-64Zm0,128l64,0l0,64l-64,0l0,-64Zm128,-128l64,0l0,64l-64,0l0,-64Zm0,128l64,0l0,64l-64,0l0,-64Zm128,-128l64,0l0,64l-64,0l0,-64Zm0,128l64,0l0,64l-64,0l0,-64Z" style="fill:#fff;fill-rule:nonzero;"/></svg>