<?xml version="1.0" encoding="UTF-8" standalone="no"?>
<!DOCTYPE svg PUBLIC "-//W3C//DTD SVG 1.1//EN" "http://www.w3.org/Graphics/SVG/1.1/DTD/svg11.dtd">
<svg width="100%" height="100%" viewBox="0 0 26 27" version="1.1" xmlns="http://www.w3.org/2000/svg" xmlns:xlink="http://www.w3.org/1999/xlink" xml:space="preserve" xmlns:serif="http://www.serif.com/" style="fill-rule:evenodd;clip-rule:evenodd;stroke-linejoin:round;stroke-miterlimit:2;">
    <g transform="matrix(1,0,0,1,-1752,-66.5)">
        <g transform="matrix(1,0,0,1,-0.929847,6.67888)">
            <g id="person--1-" serif:id="person (1)" transform="matrix(0.0338542,-3.46945e-18,3.60289e-18,0.0351562,1765.93,73.3211)">
                <g transform="matrix(1,0,0,1,-384,-384)">
                    <path d="M384,448.5C469.5,448.5 640.5,490.5 640.5,576L640.5,640.5L127.5,640.5L127.5,576C127.5,490.5 298.5,448.5 384,448.5ZM384,384C313.5,384 256.5,327 256.5,256.5C256.5,186 313.5,127.5 384,127.5C454.5,127.5 511.5,186 511.5,256.5C511.5,327 454.5,384 384,384Z" style="fill:white;fill-rule:nonzero;"/>
                </g>
            </g>
        </g>
    </g>
</svg>
