<?xml version="1.0" encoding="UTF-8" standalone="no"?><!DOCTYPE svg PUBLIC "-//W3C//DTD SVG 1.1//EN" "http://www.w3.org/Graphics/SVG/1.1/DTD/svg11.dtd"><svg width="100%" height="100%" viewBox="0 0 172 188" version="1.1" xmlns="http://www.w3.org/2000/svg" xmlns:xlink="http://www.w3.org/1999/xlink" xml:space="preserve" xmlns:serif="http://www.serif.com/" style="fill-rule:evenodd;clip-rule:evenodd;stroke-linejoin:round;stroke-miterlimit:2;"><g><ellipse cx="98.625" cy="180.085" rx="69.635" ry="7.213" style="fill:#ca83ce;fill-opacity:0.25;"/><g id="INDIAN-MUNTJAC" serif:id="INDIAN MUNTJAC"><path d="M31.539,37.097c-0.041,-0.191 -0.078,-0.375 -0.115,-0.559c0.036,0.182 0.076,0.37 0.115,0.559m-0.584,-5.946c-0.053,0.506 -0.068,1.038 -0.045,1.604c0.042,1.097 0.223,2.326 0.508,3.756c-0.44,-2.164 -0.621,-3.881 -0.463,-5.36m10.817,-3.134c-0.011,-0.018 -0.021,-0.036 -0.031,-0.054c0.01,0.018 0.02,0.036 0.031,0.054m-0.348,-0.543c-0.014,-0.021 -0.029,-0.041 -0.043,-0.061c0.014,0.02 0.029,0.04 0.043,0.061m1.334,3.358c0.001,0.008 0.002,0.016 0.003,0.024c-0.001,-0.008 -0.002,-0.016 -0.003,-0.024m0.095,1.337c-0.001,-0.015 -0.001,-0.03 -0.001,-0.046c0,0.016 0,0.031 0.001,0.046m3.269,-15.393c0.002,0.001 0.003,0.001 0.004,0.002l-2.854,11.268c0,0 1.837,4.516 1.671,6.201c-0.01,0.052 -0.02,0.117 -0.031,0.186c0.011,-0.069 0.019,-0.13 0.024,-0.181c0.166,-1.692 -1.669,-6.205 -1.669,-6.205l2.855,-11.271Zm-17.321,17.306c-0.014,-0.567 0.149,-1.378 0.378,-2.222c-0.228,0.843 -0.391,1.653 -0.378,2.222m3.184,-6.083c0.005,-0.008 0.009,-0.016 0.014,-0.025c-0.005,0.009 -0.009,0.017 -0.014,0.025m-0.3,0.556c0.016,-0.034 0.035,-0.068 0.053,-0.102c-0.018,0.034 -0.037,0.068 -0.053,0.102m-0.275,0.641c0.028,-0.075 0.057,-0.15 0.088,-0.223c-0.03,0.074 -0.06,0.148 -0.088,0.223m-0.216,0.67c0.039,-0.142 0.082,-0.284 0.129,-0.423c-0.047,0.14 -0.09,0.281 -0.129,0.423m-0.23,1.201c0.041,-0.357 0.103,-0.701 0.186,-1.034c-0.083,0.334 -0.145,0.677 -0.186,1.034m11.68,-0.858c0.002,0.012 0.005,0.023 0.008,0.034c-0.003,-0.011 -0.006,-0.022 -0.008,-0.034m-0.149,-0.566c0,0 0,0.001 0,0.001c0,0 0,-0.001 0,-0.001m-0.217,-0.606c0.011,0.026 0.021,0.052 0.031,0.078c-0.01,-0.026 -0.02,-0.052 -0.031,-0.078m-0.241,-0.534c0.005,0.009 0.01,0.018 0.014,0.027c-0.004,-0.009 -0.009,-0.018 -0.014,-0.027m0.795,4.443c0.003,-0.042 0.006,-0.086 0.008,-0.127c-0.002,0.041 -0.005,0.085 -0.008,0.127m-0.056,0.742c0.006,-0.059 0.012,-0.118 0.017,-0.176c-0.005,0.058 -0.011,0.117 -0.017,0.176m-0.087,0.749c0.009,-0.064 0.016,-0.125 0.024,-0.188c-0.008,0.063 -0.015,0.125 -0.024,0.188m-0.182,1.144c0.026,-0.146 0.053,-0.293 0.076,-0.434c-0.023,0.141 -0.051,0.288 -0.076,0.434m-0.167,0.875c0.04,-0.197 0.078,-0.39 0.114,-0.579c-0.036,0.189 -0.074,0.383 -0.114,0.579m1.399,2.346c0,-0.001 -0.001,-0.001 -0.001,-0.001c0.603,-1.958 1.049,-3.62 1.171,-4.35c-0.021,0.127 -0.047,0.278 -0.091,0.459c-0.19,0.858 -0.581,2.275 -1.079,3.892m-1.844,-0.339l0,0c0.036,-0.149 0.072,-0.298 0.106,-0.445c0.115,-0.5 0.219,-0.975 0.313,-1.432c-0.094,0.457 -0.195,0.928 -0.311,1.427c-0.034,0.149 -0.071,0.299 -0.108,0.45m-13.046,-3.956c0.002,0.012 0.005,0.025 0.007,0.038c-0.003,-0.013 -0.005,-0.025 -0.007,-0.038m-0.032,-0.21c0.004,0.033 0.009,0.07 0.015,0.111c-0.006,-0.041 -0.011,-0.077 -0.015,-0.111m141.919,50.594c-2.148,-10.728 -12.298,-13.876 -12.383,-13.902c-2.31,-2.711 -4.903,-4.803 -7.337,-6.36c-8.319,-5.312 -34.978,-6.656 -49.152,-4.499c-14.173,2.157 -33.733,2.465 -41.128,2.465c-4.517,0 -6.056,-8.42 -9.161,-15.312c0.666,-2.503 1.143,-4.746 1.282,-6.448c0.007,-0.081 0.009,-0.158 0.015,-0.238c9.941,0.756 20.122,-8.229 20.725,-13.459c0.647,-5.603 -0.431,-6.034 -10.56,-4.095c-7.022,1.345 -10.824,5.899 -12.497,8.567c-0.42,-0.865 -0.675,-1.622 -0.501,-2.432c0.566,-2.638 3.495,-11.477 2.873,-15.428c-0.073,-0.462 -0.227,-0.883 -0.442,-1.259c0.944,-3.135 1.841,-7.479 0.527,-9.828c-2.209,-3.948 -5.782,-2.444 -5.03,-2.068c0.753,0.376 3.009,1.504 1.505,8.273c0,0 -0.769,-5.077 -1.607,-3.385c-0.386,0.78 -1.038,3.116 -1.629,5.409c-0.62,0.416 -1.094,1.049 -1.3,1.925c-0.916,3.946 -3.922,14.088 -3.925,14.101c-0.002,-0.002 -0.003,-0.003 -0.005,-0.005c0,0 -1.118,-0.939 -4.129,-0.939c-2.99,0 -4.126,0.925 -4.142,0.938c-0.045,-0.152 -3.014,-10.177 -3.924,-14.095c-0.206,-0.876 -0.68,-1.509 -1.3,-1.925c-0.591,-2.293 -1.243,-4.629 -1.629,-5.409c-0.838,-1.692 -1.607,3.385 -1.607,3.385c-1.504,-6.769 0.753,-7.897 1.505,-8.273c0.752,-0.376 -2.82,-1.88 -5.03,2.068c-1.315,2.35 -0.415,6.698 0.529,9.833c-0.213,0.375 -0.365,0.794 -0.437,1.254c-0.622,3.951 2.306,12.79 2.872,15.428c0.176,0.811 -0.082,1.57 -0.503,2.437c-1.672,-2.667 -5.474,-7.226 -12.501,-8.572c-10.129,-1.939 -11.206,-1.508 -10.56,4.095c0.604,5.231 10.789,14.219 20.732,13.459c0.005,0.08 0.008,0.157 0.015,0.238c0.174,2.196 0.913,5.292 1.901,8.688c-0.03,0.854 -0.022,1.767 0.027,2.743c0,0 -0.098,23.997 5.805,43.717c4.779,15.929 12.335,26.225 23.832,29.434c-1.003,6.206 -2.926,32.78 -4.149,38.722c-1.232,6.04 -2.231,11.389 -3.217,13.718c-0.135,0.321 -0.283,0.641 -0.406,0.937c-0.826,1.873 -1.245,3.253 2.391,3.253c3.636,0 5.238,0.863 6.902,-5.681c0.246,-1.023 0.505,-2.219 0.776,-3.624c1.487,-7.888 3.261,-16.966 5.211,-22.954c1.077,10.313 2.008,24.771 1.802,27.231c-0.062,0.777 -0.111,1.405 -0.111,1.886c0.012,1.627 0.604,1.811 3.143,1.811c2.354,0 4.153,0.309 4.696,-3.833c0.222,-1.676 0.234,-4.091 0,-7.567c-0.772,-11.218 -0.039,-30.759 0.142,-43.083c12.023,-0.491 21.061,-1.254 34.996,0.267c4.329,0.468 9.957,0.536 16.029,0.022c4.209,9.657 13.695,17.126 16.213,18.847c3.069,2.095 -4.487,25.352 -6.619,31.194c-0.222,0.604 -0.382,1.023 -0.468,1.208c-0.924,2.034 0.924,2.44 4.622,2.44c0.734,0 1.37,-0.04 1.951,-0.221c-0.423,1.718 1.405,2.095 4.79,2.095c2.305,0 3.649,-0.407 5.313,-4.61c0.998,-2.527 2.119,-6.433 3.623,-12.473c4.006,-16.022 7.703,-24.65 4.93,-26.19c-2.773,-1.541 -11.093,-8.319 -6.471,-14.174c2.384,-3.025 7.646,-7.854 11.288,-13.812c1.744,-2.166 3.085,-4.59 3.903,-7.3c0.625,-0.008 1.224,-0.128 1.793,-0.358c4.412,-1.738 6.89,-9.823 5.201,-18.277" style="fill:#fff;fill-rule:nonzero;"/><g id="分離模式"><path d="M45.497,65.169c-2.233,7.163 -8.718,7.163 -8.718,7.163c0,0 -6.502,0 -8.717,-7.163c-0.875,-2.79 -2.537,-7.4 -4.278,-12.472c0.422,4.177 0.939,9.361 1.354,13.753c2.734,7.397 3.806,13.738 12.773,14.346c8.7,0.571 11.202,-11.023 11.326,-11.737c0.019,-0.018 0.019,-0.036 0.019,-0.036c0.71,-5.504 2.529,-15.144 2.5,-22.254c-2.341,7.224 -5.052,14.545 -6.259,18.4" style="fill:#f8eef8;fill-rule:nonzero;"/></g><path d="M37.764,63.793c3.596,0 4.214,-2.858 3.951,-4.847c-0.316,-2.332 -3.951,-2.332 -3.951,-2.332c0,0 -3.622,0 -3.938,2.332c-0.277,1.989 0.355,4.847 3.938,4.847" style="fill:#ecd3ed;fill-rule:nonzero;"/><path d="M34.945,58.906c0,1.344 2.279,1.304 2.819,1.304c0.54,0 2.831,0.04 2.831,-1.304c0,-1.343 -2.831,-1.528 -2.831,-1.528c0,0 -2.819,0.185 -2.819,1.528" style="fill:#d49ad7;fill-rule:nonzero;"/></g></g></svg>