<?xml version="1.0" encoding="UTF-8" standalone="no"?><!DOCTYPE svg PUBLIC "-//W3C//DTD SVG 1.1//EN" "http://www.w3.org/Graphics/SVG/1.1/DTD/svg11.dtd"><svg width="100%" height="100%" viewBox="0 0 160 100" version="1.1" xmlns="http://www.w3.org/2000/svg" xmlns:xlink="http://www.w3.org/1999/xlink" xml:space="preserve" xmlns:serif="http://www.serif.com/" style="fill-rule:evenodd;clip-rule:evenodd;stroke-linejoin:round;stroke-miterlimit:2;"><g><ellipse cx="92.426" cy="94.149" rx="67.135" ry="5.106" style="fill:#ca83ce;fill-opacity:0.25;"/><g><path d="M8.15,44.385c-0.004,0.021 -0.008,0.04 -0.01,0.054c0.003,-0.014 0.006,-0.032 0.01,-0.054m0.354,0.54c-0.056,-0.882 -0.095,-1.504 -0.1,-1.6c0.001,-0.004 0.002,-0.009 0.003,-0.013l0,0.007c0.003,0.083 0.041,0.713 0.097,1.606m0.226,-2.906c0.697,-2.764 1.886,-7.381 2.921,-11.377c-1.033,3.999 -2.224,8.619 -2.921,11.377m0.358,14.402c-0.001,0.002 -0.001,0.005 -0.001,0.007c-0.823,2.413 -2.765,6.908 -3.086,8.96c-0.07,0.429 -0.111,0.761 -0.117,0.994c0.005,-0.234 0.046,-0.567 0.115,-0.998c0.32,-2.053 2.27,-6.562 3.089,-8.963m0.367,-1.404c-0.001,0.004 -0.003,0.009 -0.005,0.014c0.161,-1.13 -0.263,-1.463 -0.413,-2.82c-0.036,-0.332 -0.081,-0.855 -0.131,-1.482c0.05,0.626 0.096,1.147 0.134,1.478c0.148,1.359 0.572,1.691 0.415,2.81m-0.451,8.721c0.144,-0.425 0.247,-0.797 0.268,-1.022c-0.02,0.226 -0.123,0.599 -0.267,1.026c-0.278,0.849 -1.442,3.283 -2.382,5.288c0.94,-2.005 2.1,-4.44 2.381,-5.292m-3.114,2.85c0.067,0.56 0.584,-0.088 1.849,-2.156c0.943,-1.536 1.371,-2.021 1.496,-1.933c-0.125,-0.084 -0.552,0.403 -1.49,1.93c-1.273,2.072 -1.788,2.723 -1.855,2.159m0.374,3.211c-0.141,0.304 -0.273,0.59 -0.389,0.847c0,0 0,0 0,0c0.116,-0.258 0.248,-0.543 0.389,-0.847m133.758,-23.417c0.52,-2.988 3.689,-8.004 4.648,-13.302c0.073,-0.24 0.139,-0.482 0.201,-0.724c1.395,-0.203 2.473,-1.217 3.256,-2.678c2.095,-3.926 2.003,-11.086 -0.046,-14.194c-1.99,-3.017 -6.196,-3.601 -8.603,-3.674c-5.606,-6.631 -15.914,-11.81 -33.128,-11.81c-23.311,0 -46.047,9.21 -52.379,9.785c-6.331,0.576 -13.527,5.468 -19.409,13.193c-2.253,2.96 -4.925,6.059 -7.362,8.757c-0.432,-2.877 -1.509,-5.351 -2.248,-5.935c-1.299,-1.029 -2.61,2.469 -5.697,5.379c-0.573,0.539 -1.05,1.238 -1.448,2.018c0.129,-1.393 0.292,-2.938 0.5,-4.521c0.248,-1.899 -0.082,-3.018 -0.701,-3.655c0.929,-3.076 3.311,-7.373 3.311,-7.373c-1.389,0 -2.611,1.789 -2.943,2.319c0.707,-3.619 1.555,-7.272 1.555,-7.272c-3.69,2.294 -5.536,8.571 -6.27,11.831c-0.009,0.002 -0.019,0.004 -0.029,0.006c0,0 0,0.001 0,0.001c-0.055,0.015 -0.103,0.024 -0.15,0.032c-2.059,0.411 -4.117,11.32 -5.558,16.877c-0.222,0.849 -0.494,1.968 -0.807,3.277l0,0.009c-1.571,6.638 -3.986,18.199 -4.152,24.441c-0.252,0.144 -0.442,0.401 -0.503,0.829c-0.244,1.71 0.068,3.307 0.885,4.561c0.308,0.474 0.709,0.621 1.114,0.549c0.294,0.293 0.617,0.498 0.963,0.629c1.589,0.587 3.592,-0.38 4.973,-1.98c2.023,-2.363 10.566,-9.309 14.676,-15.479c11.227,-8.612 24.607,-11.011 32.149,-10.523c-0.086,3.915 -0.364,15.043 -0.788,17.828c-0.507,3.408 -5.941,24.751 -7.138,25.776c-0.299,0.253 -0.61,0.541 -0.863,0.817l-0.012,0c-0.771,0.864 -1.001,1.727 1.554,1.727c3.086,0 4.352,0.414 5.826,-3.281c0.149,-0.392 0.31,-0.817 0.472,-1.301c1.692,-5.1 5.606,-18.557 7.816,-22.932c0.184,-0.364 0.379,-0.807 0.583,-1.31c3.324,6.46 10.71,21.279 10.71,23.563c0,0.472 -0.011,0.863 0.012,1.186c0.023,1.496 0.345,1.692 3.166,1.692c2.544,0 2.567,-1.255 2.003,-3.649c-0.196,-0.852 -0.472,-1.842 -0.726,-2.97c-1.001,-4.317 -7.045,-20.538 -7.333,-21.919c-0.207,-1.004 -0.415,-6.964 -0.191,-12.964c8.046,0.978 19.612,1.594 37.369,0.124c1.997,5.75 3.978,9.358 3.978,12.84c0,3.5 -7.771,23.07 -9.636,24.797c-0.15,0.138 -0.288,0.276 -0.403,0.414c-1.451,1.612 -1.197,3.327 1.98,3.327c2.774,0 3.695,0.553 6.033,-3.857c0.575,-1.082 1.231,-2.452 2.026,-4.201c4.029,-8.922 8.346,-19.916 8.921,-22.909c0.444,-2.31 -2.585,-6.47 -1.396,-11.475c1.884,2.699 4.147,4.909 6.577,6.755c7.195,5.468 14.389,6.78 14.677,13.181c0.288,6.389 -0.575,18.765 -3.165,21.067c-0.231,0.207 -0.438,0.414 -0.611,0.61c-1.704,1.957 -0.276,3.223 2.337,3.223c2.475,0 4.732,0.15 6.055,-4.017c0.219,-0.68 0.404,-1.474 0.565,-2.406c1.151,-6.62 2.014,-20.595 2.302,-25.695c0.288,-5.1 -10.648,-8.749 -9.498,-15.414" style="fill:#fff;fill-rule:nonzero;"/><g id="分離模式"><path d="M2.594,70.523c0,0 -2.275,-1.011 -2.515,0.674c-0.239,1.685 0.067,3.258 0.872,4.493c0.805,1.236 2.243,0.225 2.722,-1.123c0.479,-1.348 0.498,-3.761 -1.079,-4.044" style="fill:#d0a0cb;fill-rule:nonzero;"/></g></g></g></svg>