<?xml version="1.0" encoding="UTF-8" standalone="no"?><!DOCTYPE svg PUBLIC "-//W3C//DTD SVG 1.1//EN" "http://www.w3.org/Graphics/SVG/1.1/DTD/svg11.dtd"><svg width="100%" height="100%" viewBox="0 0 145 104" version="1.1" xmlns="http://www.w3.org/2000/svg" xmlns:xlink="http://www.w3.org/1999/xlink" xml:space="preserve" xmlns:serif="http://www.serif.com/" style="fill-rule:evenodd;clip-rule:evenodd;stroke-linejoin:round;stroke-miterlimit:2;"><g><ellipse cx="67.135" cy="98.813" rx="67.135" ry="5.106" style="fill:#ca83ce;fill-opacity:0.25;"/><g id="羊"><path d="M123.062,46.579c-0.03,0.367 -0.046,0.682 -0.042,0.939c-0.007,-0.256 0.011,-0.573 0.042,-0.939m-14.757,-41.234l-0.043,-0.192l0.048,0.191c0,0 -1.619,3.989 -1.474,5.478c0,0.046 0.008,0.095 0.019,0.148c-0.014,-0.053 -0.023,-0.1 -0.023,-0.142c-0.146,-1.5 1.473,-5.483 1.473,-5.483m0.46,2.428c-0.006,0.039 -0.011,0.079 -0.016,0.119c0.005,-0.039 0.01,-0.08 0.016,-0.119m-0.049,0.431c-0.035,0.41 -0.044,0.837 -0.025,1.296c0.375,-0.028 0.758,0.232 1.119,0.856c-0.363,-0.623 -0.743,-0.88 -1.123,-0.855c0.036,0.953 0.192,2.018 0.441,3.254c-0.001,0.001 -0.003,0.001 -0.005,0.001c-0.367,-1.823 -0.524,-3.287 -0.407,-4.552m9.615,-2.817c-0.046,-0.079 -0.094,-0.157 -0.143,-0.235c0.049,0.078 0.097,0.156 0.143,0.235m-0.278,-0.444c-0.043,-0.063 -0.085,-0.127 -0.13,-0.191c0.045,0.063 0.087,0.128 0.13,0.191m0.743,7.781c0.241,-1.222 0.395,-2.278 0.43,-3.223c-0.241,-0.016 -0.487,0.087 -0.73,0.331c0.243,-0.245 0.491,-0.35 0.735,-0.332c0.027,-0.77 -0.013,-1.46 -0.146,-2.11c0,0 0,-0.014 -0.013,-0.027c-0.125,-0.645 -0.343,-1.24 -0.655,-1.818c1.018,1.879 1.03,3.968 0.379,7.179m2.294,-1.896c-0.014,0.053 -0.014,0.133 -0.04,0.239c-0.005,0.02 -0.01,0.04 -0.015,0.061c0.003,-0.02 0.006,-0.042 0.008,-0.06c0.029,-0.101 0.029,-0.188 0.044,-0.246c0.018,-0.194 0.006,-0.43 -0.028,-0.692c0.035,0.265 0.047,0.502 0.031,0.698m3.794,21.925c-0.325,3.658 -0.967,7.563 -1.406,10.544c0.438,-2.979 1.08,-6.885 1.406,-10.544m0.037,-0.432c-0.009,0.107 -0.018,0.215 -0.027,0.322c0.009,-0.107 0.018,-0.214 0.027,-0.322m0.036,-0.45c-0.007,0.093 -0.014,0.186 -0.022,0.28c0.008,-0.094 0.015,-0.187 0.022,-0.28m0.033,-0.458c-0.006,0.077 -0.011,0.154 -0.017,0.232c0.006,-0.078 0.011,-0.155 0.017,-0.232m0.029,-0.462c-0.003,0.05 -0.006,0.101 -0.01,0.152c0.004,-0.051 0.007,-0.102 0.01,-0.152m0.048,-1.019l-0.003,0.071c0.001,-0.024 0.002,-0.047 0.003,-0.071m0.014,-0.482c-0.001,0.028 -0.002,0.056 -0.002,0.084c0,-0.028 0.001,-0.056 0.002,-0.084m0.007,-0.46c0,0.025 0,0.05 0,0.074c0,-0.024 0,-0.049 0,-0.074m0.002,-0.404c0,-0.014 0,-0.028 0,-0.042c0,0.013 0,0.028 0,0.042m-1.871,16.502c0.006,-0.006 0.009,-0.012 0.011,-0.017c-0.073,0.564 -0.131,1.071 -0.168,1.505c0.035,-0.41 0.087,-0.884 0.143,-1.415c0.006,-0.031 0.011,-0.056 0.014,-0.073m-2.429,5.644c-0.025,0.035 -0.051,0.07 -0.077,0.104c0.026,-0.034 0.052,-0.069 0.077,-0.104m0.265,-0.38c-0.02,0.03 -0.041,0.061 -0.061,0.091c0.02,-0.03 0.041,-0.061 0.061,-0.091m0.247,-0.386c-0.016,0.026 -0.032,0.052 -0.048,0.078c0.016,-0.026 0.032,-0.052 0.048,-0.078m0.228,-0.386c-0.011,0.02 -0.023,0.039 -0.034,0.059c0.011,-0.02 0.023,-0.04 0.034,-0.059m0.21,-0.385c-0.007,0.013 -0.014,0.025 -0.021,0.038c0.007,-0.013 0.014,-0.025 0.021,-0.038m0.191,-0.379c-0.001,0.004 -0.003,0.007 -0.005,0.011c0.002,-0.004 0.004,-0.007 0.005,-0.011m-1.731,2.651c-0.035,0.039 -0.071,0.079 -0.108,0.118c0.037,-0.039 0.073,-0.079 0.108,-0.118m0.305,-0.362c-0.03,0.038 -0.061,0.075 -0.092,0.113c0.031,-0.038 0.062,-0.075 0.092,-0.113m-0.754,0.83c0.042,-0.04 0.083,-0.08 0.124,-0.121c-0.041,0.041 -0.082,0.081 -0.124,0.121m-0.363,0.331c0.047,-0.041 0.095,-0.08 0.141,-0.122c-0.046,0.042 -0.094,0.081 -0.141,0.122m-0.385,0.307c0.053,-0.04 0.106,-0.078 0.158,-0.119c-0.052,0.041 -0.105,0.079 -0.158,0.119m-0.408,0.281c0.059,-0.038 0.119,-0.074 0.176,-0.114c-0.057,0.04 -0.117,0.076 -0.176,0.114m-17.225,23.274c0.085,0.055 0.171,0.106 0.257,0.156c-0.086,-0.05 -0.172,-0.101 -0.257,-0.156m-0.425,-0.308c0.083,0.066 0.168,0.129 0.254,0.19c-0.086,-0.061 -0.171,-0.124 -0.254,-0.19m-0.414,-0.363c0.085,0.082 0.171,0.161 0.259,0.236c-0.088,-0.075 -0.174,-0.154 -0.259,-0.236m3.372,1.553c0.07,0.007 0.141,0.015 0.212,0.019c-0.071,-0.004 -0.142,-0.012 -0.212,-0.019m-0.484,-0.07c0.074,0.014 0.147,0.028 0.221,0.039c-0.074,-0.011 -0.147,-0.025 -0.221,-0.039m-0.501,-0.117c0.083,0.024 0.166,0.048 0.249,0.068c-0.083,-0.02 -0.166,-0.044 -0.249,-0.068m-0.657,-0.222c0.115,0.048 0.232,0.089 0.349,0.129c-0.117,-0.04 -0.234,-0.081 -0.349,-0.129m-0.451,-0.214c0.088,0.046 0.178,0.088 0.268,0.129c-0.09,-0.041 -0.18,-0.083 -0.268,-0.129m2.575,0.654c0.068,0.002 0.136,0.002 0.204,0.002c-0.068,0 -0.136,0 -0.204,-0.002m0.957,-0.047c0.059,-0.007 0.118,-0.017 0.177,-0.026c-0.059,0.009 -0.118,0.019 -0.177,0.026m-0.477,0.042c0.065,-0.004 0.13,-0.009 0.195,-0.014c-0.065,0.005 -0.13,0.01 -0.195,0.014m1.825,-0.354c-0.044,0.015 -0.089,0.027 -0.133,0.041c0.044,-0.014 0.089,-0.026 0.133,-0.041m0.443,-0.172c-0.058,0.025 -0.118,0.047 -0.177,0.071c0.059,-0.024 0.119,-0.046 0.177,-0.071m0.429,-0.202c-0.061,0.031 -0.122,0.06 -0.184,0.09c0.062,-0.03 0.123,-0.059 0.184,-0.09m0.412,-0.233c-0.061,0.038 -0.122,0.074 -0.184,0.109c0.062,-0.035 0.123,-0.071 0.184,-0.109m0.394,-0.262c-0.06,0.043 -0.121,0.087 -0.182,0.128c0.061,-0.041 0.122,-0.085 0.182,-0.128m0.379,-0.298c-0.061,0.053 -0.123,0.105 -0.187,0.155c0.064,-0.05 0.126,-0.102 0.187,-0.155m0.409,-0.383c-0.079,0.082 -0.159,0.164 -0.244,0.242c0.085,-0.078 0.165,-0.16 0.244,-0.242m-3.262,1.769c-0.027,0.005 -0.053,0.013 -0.08,0.018c0.027,-0.005 0.053,-0.013 0.08,-0.018m-1.59,-43.971c0.313,3.104 0.697,6.956 1.006,10.22c0.062,0.666 0.12,1.306 0.175,1.911c-0.329,-3.583 -0.807,-8.403 -1.183,-12.137c0,0.001 0.001,0.003 0.002,0.006m16.319,-24.683c0.023,0.077 0.044,0.152 0.066,0.229c-0.022,-0.077 -0.043,-0.152 -0.066,-0.229m0.361,3.187c0.001,-0.001 0.001,-0.003 0.002,-0.004c0.198,0.415 0.387,0.882 0.563,1.379c-0.177,-0.495 -0.365,-0.96 -0.565,-1.375m-5.04,42.355c-0.117,0.013 -0.236,0.017 -0.355,0.023c0.119,-0.006 0.238,-0.01 0.355,-0.023m0.531,-0.08c-0.097,0.019 -0.198,0.032 -0.298,0.046c0.1,-0.014 0.201,-0.027 0.298,-0.046m0.508,-0.122c-0.087,0.025 -0.176,0.044 -0.265,0.065c0.089,-0.021 0.178,-0.04 0.265,-0.065m0.482,-0.16c-0.078,0.029 -0.158,0.054 -0.238,0.081c0.08,-0.027 0.16,-0.052 0.238,-0.081m0.459,-0.197c-0.07,0.033 -0.144,0.063 -0.216,0.094c0.072,-0.031 0.146,-0.061 0.216,-0.094m0.435,-0.23c-0.064,0.037 -0.13,0.07 -0.195,0.105c0.065,-0.035 0.131,-0.068 0.195,-0.105m-3.557,0.81c0.199,0.013 0.393,0.017 0.584,0.014c-0.191,0.003 -0.385,-0.001 -0.584,-0.014m-15.121,20.63c-0.098,-0.152 -0.195,-0.315 -0.286,-0.482c0.195,0.354 0.41,0.676 0.644,0.965c-0.124,-0.153 -0.244,-0.312 -0.358,-0.483m0.439,0.578c0.092,0.109 0.186,0.214 0.283,0.313c-0.097,-0.099 -0.191,-0.205 -0.283,-0.313m9.407,-0.309c-0.072,0.092 -0.148,0.18 -0.226,0.267c0.078,-0.087 0.154,-0.175 0.226,-0.267m0.266,-0.376c-0.051,0.08 -0.107,0.158 -0.164,0.236c0.057,-0.078 0.113,-0.156 0.164,-0.236m0.232,-0.4c-0.043,0.083 -0.089,0.163 -0.136,0.243c0.047,-0.08 0.093,-0.16 0.136,-0.243m0.194,-0.424c-0.035,0.087 -0.072,0.173 -0.112,0.257c0.04,-0.084 0.077,-0.17 0.112,-0.257m0.154,-0.45c-0.027,0.094 -0.056,0.188 -0.089,0.279c0.033,-0.091 0.062,-0.185 0.089,-0.279m0.111,-0.487c-0.018,0.108 -0.038,0.215 -0.064,0.319c0.026,-0.104 0.046,-0.211 0.064,-0.319m0.07,-0.628c-0.006,0.164 -0.021,0.325 -0.044,0.482c0.023,-0.157 0.038,-0.318 0.044,-0.482m7.156,-60.741c-0.015,0.039 -0.03,0.076 -0.045,0.116c-0.032,0.085 -0.062,0.165 -0.093,0.248c0.031,-0.083 0.061,-0.163 0.093,-0.248c0.014,-0.04 0.029,-0.077 0.045,-0.116m-10.773,0.198c0.001,0.004 0.002,0.008 0.002,0.011c-0.298,0.617 -0.573,1.344 -0.817,2.12c-0.001,-0.002 -0.002,-0.003 -0.003,-0.004c0.243,-0.779 0.518,-1.509 0.818,-2.127m28.679,-10.477c-6.005,1.268 -9.07,5.764 -10.259,8.018c-0.424,-0.535 -0.912,-1.058 -1.48,-1.552c-1.088,-0.943 -2.455,-1.793 -4.168,-2.417l-0.011,0l0.001,-0.005c-0.635,-0.245 -1.329,-0.448 -2.079,-0.621c-0.003,-0.003 -0.005,-0.007 -0.009,-0.011c0,0 -0.995,-0.823 -3.65,-0.823c-2.669,0 -3.651,0.823 -3.651,0.823c-0.003,0.004 -0.005,0.008 -0.008,0.011c-0.028,0.004 -0.883,0.137 -2.089,0.591l-0.001,-0.004c-1.035,0.385 -2.31,0.969 -3.557,1.898l0,0.013c-0.745,0.553 -1.477,1.226 -2.138,2.039c-1.281,-2.367 -4.131,-6.302 -9.337,-7.474c-7.607,-1.713 -8.416,-1.332 -7.931,3.616c0.434,4.425 7.467,11.885 14.619,11.922c0.146,1.402 0.521,3.167 1.036,5.127c-2.026,6.017 -3.253,13.256 -3.253,13.256c0,0 -5.443,0.332 -10.966,-0.664c-5.523,-0.995 -50.579,-1.327 -64.97,9.598c-4.699,3.571 -7.965,7.966 -10.182,12.585c-0.013,0 -0.013,0.013 -0.013,0.013c-3.345,6.983 -4.315,14.497 -4.275,20.471c0,0.943 0.04,1.846 0.093,2.708c0.067,1.102 0.159,2.138 0.279,3.08c0.116,0.905 0.455,1.722 0.979,2.459c1.03,3.705 4.636,3.329 4.636,3.329c-1.752,3.014 -2.442,5.602 7.063,6.054c9.518,0.438 27.108,-0.664 27.108,-0.664c0,0 4.766,2.005 8.443,2.775c1.036,0.225 2.005,0.331 2.735,0.279c3.319,-0.253 4.646,-3.054 4.646,-3.054c0,0 -0.002,-0.693 -0.372,-1.453c2.232,0.063 4.575,0.119 6.986,0.158c-0.454,0.841 -0.727,1.695 -0.865,2.397c-0.213,1.049 2.376,1.46 5.801,1.593c3.77,0.146 8.563,-0.04 11.696,-0.04c5.665,0 18.243,1.807 21.824,-2.209c4.58,0.109 10.7,0.155 14.716,-0.207c7.132,-0.641 9.684,-4.668 8.578,-7.987c-0.856,-2.569 -7.565,-4.739 -10.556,-5.589c1.191,-1.876 2.219,-3.869 3.1,-5.926c0.756,-1.672 1.38,-3.398 1.925,-5.11c2.615,-8.218 3.119,-16.369 2.071,-20.325c-1.766,-6.638 -1.182,-26.551 -1.182,-26.551c-0.026,-0.142 -0.056,-0.28 -0.085,-0.419c0.63,-2.333 1.083,-4.428 1.209,-6.003l0,-0.079c0,-0.025 -0.001,-0.056 -0.001,-0.09c7.768,0.237 15.531,-7.416 16.003,-11.92c0.518,-4.949 -0.346,-5.329 -8.459,-3.616" style="fill:#fff;fill-rule:nonzero;"/><g><g id="分離模式"><g id="INDIAN-MUNTJAC" serif:id="INDIAN MUNTJAC"><path d="M114.108,36.081c3.595,0 4.214,-2.858 3.951,-4.847c-0.316,-2.331 -3.951,-2.331 -3.951,-2.331c0,0 -3.622,0 -3.939,2.331c-0.276,1.989 0.356,4.847 3.939,4.847" style="fill:#ead5e8;fill-rule:nonzero;"/><path d="M111.289,31.195c0,1.343 2.279,1.304 2.819,1.304c0.539,0 2.831,0.039 2.831,-1.304c0,-1.343 -2.831,-1.528 -2.831,-1.528c0,0 -2.819,0.185 -2.819,1.528" style="fill:#d1a3cd;fill-rule:nonzero;"/></g></g></g><path d="M107.442,37.929c1.786,5.729 6.972,5.729 6.972,5.729c0,0 5.201,0 6.972,-5.729c0.7,-2.232 2.029,-5.918 3.421,-9.975c-0.337,3.341 -0.75,7.487 -1.083,11c-2.186,5.915 -3.043,10.987 -10.215,11.473c-6.958,0.457 -8.959,-8.816 -9.059,-9.387c-0.014,-0.014 -0.014,-0.028 -0.014,-0.028c-0.568,-4.403 -2.023,-12.113 -2,-17.798c1.872,5.777 4.04,11.632 5.006,14.715" style="fill:#fef3f2;fill-rule:nonzero;"/></g></g></svg>