<?xml version="1.0" encoding="UTF-8" standalone="no"?>
<!DOCTYPE svg PUBLIC "-//W3C//DTD SVG 1.1//EN" "http://www.w3.org/Graphics/SVG/1.1/DTD/svg11.dtd">
<svg width="100%" height="100%" viewBox="0 0 56 19" version="1.1" xmlns="http://www.w3.org/2000/svg" xmlns:xlink="http://www.w3.org/1999/xlink" xml:space="preserve" xmlns:serif="http://www.serif.com/" style="fill-rule:evenodd;clip-rule:evenodd;stroke-linejoin:round;stroke-miterlimit:2;">
    <g transform="matrix(1,0,0,1,-380.016,-46.3127)">
        <g transform="matrix(-0.999997,0,0,0.999997,2082.15,-329.622)">
            <g transform="matrix(0.818843,-0.574018,0.574018,0.818843,83.5071,1031)">
                <path d="M1696.49,396.452C1700.48,389.958 1689,401.581 1694.58,400.299C1695.26,400.141 1695.86,400.009 1696.4,399.898C1692.34,398.105 1685.67,393.982 1683.82,393.406C1681.42,392.662 1678.92,393.482 1676.48,393.167C1670.54,392.399 1663.25,389.934 1659.69,384.553C1657.84,381.627 1657,377.715 1655.64,374.408C1654.85,371.845 1653.02,368.699 1652.92,366.001C1656.36,367.117 1659.51,368.644 1662.95,369.76C1665.53,370.54 1667.98,370.633 1670.54,371.635C1675.87,373.666 1679.48,378.607 1681.5,383.79C1682.98,387.61 1684.01,391.644 1687.7,393.835C1687.87,393.94 1688.05,394.045 1688.23,394.149C1691.93,396.312 1700.23,397.91 1696.49,396.452Z" style="fill:rgb(154,199,72);fill-rule:nonzero;"/>
            </g>
        </g>
    </g>
</svg>
