<?xml version="1.0" encoding="UTF-8" standalone="no"?><!DOCTYPE svg PUBLIC "-//W3C//DTD SVG 1.1//EN" "http://www.w3.org/Graphics/SVG/1.1/DTD/svg11.dtd"><svg width="100%" height="100%" viewBox="0 0 72 24" version="1.1" xmlns="http://www.w3.org/2000/svg" xmlns:xlink="http://www.w3.org/1999/xlink" xml:space="preserve" xmlns:serif="http://www.serif.com/" style="fill-rule:evenodd;clip-rule:evenodd;stroke-linejoin:round;stroke-miterlimit:2;"><path d="M4.212,16.143c-2.152,0.709 -5.825,0.035 -3.43,-0.312c0.185,-0.029 1.815,-0.259 3.139,-0.445c0.311,-0.044 0.623,-0.102 0.918,-0.224c1.862,-0.76 3.615,-1.894 5.844,-4.194c5.372,-5.54 10.251,-9.761 17.346,-10.697c6.878,-0.905 10.353,0.651 17.105,1.787c4.696,0.79 8.996,0.814 12.879,1.81c4.964,1.273 9.826,2.964 13.494,6.282c0.142,0.129 -0.081,0.328 -0.26,0.259c-6.481,-2.461 -10.157,3.815 -15.441,6.719c-3.259,1.792 -6.951,3.012 -10.675,4.018c-9.484,2.564 -19.608,2.895 -28.288,-1.734c-3.197,-1.706 -6.053,-4.223 -11.673,-3.498c-0.325,0.043 -0.645,0.127 -0.958,0.229Z" style="fill:#c397c6;fill-rule:nonzero;"/></svg>