<?xml version="1.0" encoding="UTF-8" standalone="no"?>
<!DOCTYPE svg PUBLIC "-//W3C//DTD SVG 1.1//EN" "http://www.w3.org/Graphics/SVG/1.1/DTD/svg11.dtd">
<svg width="100%" height="100%" viewBox="0 0 67 33" version="1.1" xmlns="http://www.w3.org/2000/svg" xmlns:xlink="http://www.w3.org/1999/xlink" xml:space="preserve" xmlns:serif="http://www.serif.com/" style="fill-rule:evenodd;clip-rule:evenodd;stroke-linejoin:round;stroke-miterlimit:2;">
    <g transform="matrix(1,0,0,1,-0.000294011,-0.000344199)">
        <path d="M5.895,14.654C3.846,14.789 -0.329,15.227 0.021,15.299C7.115,16.783 13.819,20.544 20.068,23.943C24.02,26.096 27.686,28.824 31.579,30.526C33.985,31.579 36.657,32.092 39.228,32.349C48.308,33.263 57.399,31.183 62.888,23.292C63.506,22.402 64.037,21.439 64.69,20.369C66.269,17.803 66.284,16.35 65.493,14.249C61.549,3.761 45.442,-1.732 34.918,0.488C33.299,0.829 31.524,1.314 29.944,1.955C26.774,3.237 23.581,5.39 20.4,7.509C16.036,10.412 11.344,14.303 5.895,14.654Z" style="fill:rgb(226,100,13);fill-rule:nonzero;"/>
    </g>
</svg>
