<?xml version="1.0" encoding="UTF-8" standalone="no"?>
<!DOCTYPE svg PUBLIC "-//W3C//DTD SVG 1.1//EN" "http://www.w3.org/Graphics/SVG/1.1/DTD/svg11.dtd">
<svg width="100%" height="100%" viewBox="0 0 46 17" version="1.1" xmlns="http://www.w3.org/2000/svg" xmlns:xlink="http://www.w3.org/1999/xlink" xml:space="preserve" xmlns:serif="http://www.serif.com/" style="fill-rule:evenodd;clip-rule:evenodd;stroke-linejoin:round;stroke-miterlimit:2;">
    <g transform="matrix(1,0,0,1,5.55112e-16,0.000269401)">
        <path d="M10.902,0.977C12.278,0.515 13.732,0.397 15.159,0.199C24.042,-1.039 31.38,3.834 39.85,5.389C40.77,5.559 41.643,5.701 42.599,5.771C43.852,5.861 48.098,5.673 43.369,7.59C41.259,8.445 39.948,9.143 38.109,10.623C35.922,12.377 33.659,14.055 31.085,15.169C25.037,17.795 18.141,16.997 12.645,13.513C9.868,11.748 7.662,9.101 6.272,6.103C6.068,5.663 5.881,5.217 5.711,4.765C5.008,2.894 2.601,2.786 0.977,2.159C0.639,2.027 0.325,1.881 0,1.739L0.647,0.932C2.498,1.789 4.355,2.363 6.532,2.359C8.095,2.358 9.459,1.462 10.902,0.977Z" style="fill:rgb(226,100,13);fill-rule:nonzero;"/>
    </g>
</svg>
