<?xml version="1.0" encoding="UTF-8" standalone="no"?><!DOCTYPE svg PUBLIC "-//W3C//DTD SVG 1.1//EN" "http://www.w3.org/Graphics/SVG/1.1/DTD/svg11.dtd"><svg width="100%" height="100%" viewBox="0 0 71 28" version="1.1" xmlns="http://www.w3.org/2000/svg" xmlns:xlink="http://www.w3.org/1999/xlink" xml:space="preserve" xmlns:serif="http://www.serif.com/" style="fill-rule:evenodd;clip-rule:evenodd;stroke-linejoin:round;stroke-miterlimit:2;"><clipPath id="_clip1"><polygon id="切片1" points="33.931,-22.899 69.586,10.712 35.975,46.367 0.32,12.756 33.931,-22.899 "/></clipPath><g clip-path="url(#_clip1)"><g><g id="分離模式"><g><path d="M10.025,5.835c-0.787,0.272 -1.514,0.659 -2.223,1.089c-0.151,0.073 -0.266,0.205 -0.439,0.241l-0.004,0c-0.311,0.131 -0.342,0.469 -0.532,0.67c0.016,-0.106 0.28,-0.247 0.005,-0.379c-0.406,0.141 -0.714,0.449 -1.085,0.651c-0.139,0.071 -0.063,0.245 -0.163,0.34c-0.112,0.11 -0.22,0.177 -0.335,0.002c-0.419,0.154 -0.737,0.468 -1.084,0.732c-0.135,0.219 -0.364,0.327 -0.577,0.446c-0.672,0.454 -1.288,0.967 -1.801,1.601c-0.188,0.096 -0.22,0.336 -0.401,0.434c-0.243,0.211 -0.27,0.492 -0.262,0.786c0.067,0.141 0.083,0.294 0.078,0.451l0.004,0.01c0.206,0.296 0.364,0.057 0.553,-0.032c0.32,-0.153 0.451,-0.619 0.861,-0.575c0.351,0.038 0.534,0.396 0.819,0.572c0.207,0.129 0.406,0.278 0.608,0.415c0.311,0.208 0.615,0.267 0.917,-0.025c0.128,-0.121 0.274,-0.209 0.449,-0.07c0.15,0.119 0.097,0.266 0.049,0.412c-0.013,0.035 -0.021,0.072 -0.036,0.105c-0.227,0.494 0.482,0.769 0.242,1.359c-0.22,0.556 0.454,0.709 0.849,0.93c0.184,0.101 0.339,0.234 0.492,0.372c0.427,0.369 0.684,0.352 1.053,-0.059c0.737,-0.828 0.737,-0.828 1.668,-0.183c0.155,0.107 0.306,0.223 0.468,0.318c0.363,0.22 0.608,0.439 0.419,0.946c-0.15,0.392 0.188,0.639 0.529,0.735c0.403,0.113 0.655,0.364 0.945,0.644c0.764,0.724 1.677,1.27 2.57,1.823c0.286,0.178 0.544,0.042 0.735,-0.212c0.305,-0.402 0.588,-0.82 0.827,-1.273c0.315,-0.592 0.669,-1.137 1.491,-1.038c0.437,0.049 0.642,-0.417 1.016,-0.575c0.136,0.155 0.066,0.322 0.046,0.482c-0.02,0.132 -0.116,0.246 -0.124,0.372c-0.045,0.64 0.237,1.233 0.301,1.864c0.032,0.31 0.513,0.383 0.853,0.121c0.183,-0.14 0.447,-0.322 0.538,-0.012c0.06,0.212 0.288,0.576 -0.159,0.776c-0.392,0.177 -0.442,0.475 -0.145,0.759c0.273,0.261 0.443,0.61 0.754,0.835c0.154,0.108 0.221,0.254 0.133,0.437c-0.186,0.367 0.068,0.508 0.322,0.651c0.031,0.021 0.062,0.03 0.099,0.026c0.13,-0.08 0.248,0.032 0.373,0.015c0.354,-0.017 0.688,0.075 1.025,0.15c0.2,-0.129 0.41,-0.242 0.512,-0.456c-0.051,0.192 -0.13,0.401 0.145,0.518c0.251,0.028 0.502,0.052 0.753,0.079c0.129,-0.139 0.113,-0.304 -0.018,-0.394c-0.302,-0.201 -0.048,-0.352 0.036,-0.496c0.103,-0.178 0.265,-0.154 0.444,-0.081c0.732,0.309 0.737,0.303 1.197,-0.35c0.181,-0.261 0.371,-0.521 0.54,-0.79c0.223,-0.353 0.439,-0.66 0.933,-0.394c0.179,0.096 0.376,-0.001 0.51,-0.148c0.222,-0.249 0.44,-0.22 0.691,-0.042c0.189,0.13 0.4,0.248 0.629,0.138c0.15,-0.07 0.131,-0.018 0.183,0.099c0.13,0.306 0.333,0.243 0.519,0.038c0.118,-0.126 0.17,-0.291 0.242,-0.443c0.282,-0.589 0.455,-0.679 1.053,-0.406c0.378,0.176 0.78,0.284 0.996,0.784c0.185,0.421 0.71,0.649 1.162,0.837c0.192,0.08 0.377,0.001 0.515,-0.146c0.222,-0.244 0.439,-0.229 0.692,-0.045c0.387,0.29 0.794,0.554 1.283,0.67c0.308,0.072 0.432,0.392 0.645,0.616c-0.456,0.123 -0.459,0.128 -0.424,0.536c3.974,-0.251 7.907,-0.745 11.764,-1.748c1.613,-0.417 3.218,-0.863 4.769,-1.481c-0.24,-0.205 -0.251,-0.597 -0.59,-0.725c-0.074,-0.011 -0.147,0.078 -0.202,0.041c-0.087,-0.055 -0.01,-0.156 0.032,-0.177c0.065,-0.036 0.014,0.052 0.038,0.076c0.022,0.028 0.037,0.058 0.079,0.074c0.143,-0.076 0.269,0.206 0.4,0.026c0.099,-0.136 0.038,-0.288 -0.028,-0.427c-0.038,-0.088 -0.103,-0.158 -0.148,-0.24c-0.124,-0.232 -0.876,-0.562 0.107,-0.63c0.181,-0.014 0.183,-0.216 0.075,-0.36c-0.112,-0.15 -0.271,-0.272 -0.215,-0.494c0.076,-0.299 0.069,-0.546 -0.327,-0.569c-0.055,0.001 -0.103,0.02 -0.148,0.045c-0.124,0.07 -0.025,0.634 -0.379,0.163c-0.206,-0.254 -0.479,-0.112 -0.724,-0.133c-0.379,-0.276 -0.773,-0.252 -1.184,-0.083c-0.349,0.014 -0.593,0.134 -0.489,0.548c0.032,0.119 0.157,0.249 -0.05,0.313c-0.135,0.041 -0.269,0.005 -0.325,-0.142c-0.132,-0.345 -0.286,-0.41 -0.557,-0.108c-0.104,0.122 -0.141,0.089 -0.384,-0.373c-0.047,-0.121 -0.075,-0.255 -0.184,-0.347c-0.274,-0.066 -0.668,-0.06 -0.293,-0.511c0.14,-0.163 0.108,-0.34 -0.036,-0.497c-0.06,-0.072 -0.141,-0.139 -0.146,-0.232c-0.056,-0.652 -0.419,-0.444 -0.767,-0.283c-0.042,0.031 -0.073,0.077 -0.091,0.12c-0.025,0.194 -0.02,0.406 -0.241,0.508c-0.063,0.026 -0.131,0.04 -0.198,0.049c-0.144,0.012 -0.286,-0.028 -0.425,-0.025c-0.054,0.008 -0.1,0.026 -0.142,0.058c-0.055,0.06 -0.082,0.13 -0.078,0.214c0.027,0.206 -0.055,0.353 -0.275,0.305c-0.346,-0.076 -0.726,-0.001 -0.981,-0.409c-0.227,-0.37 -0.829,-0.323 -1.053,-0.769c-0.034,-0.074 -0.171,-0.002 -0.254,0.037c-0.608,0.275 -0.608,0.275 -0.798,-0.339c0.019,-0.065 0.069,-0.083 0.128,-0.087c0.242,-0.019 0.55,0.007 0.491,-0.359c-0.058,-0.371 -0.381,-0.312 -0.632,-0.266c-0.445,0.081 -0.569,0.435 -0.619,0.824c-0.16,-0.015 -0.219,-0.127 -0.249,-0.222c-0.118,-0.371 -0.317,-0.48 -0.666,-0.27c-0.137,0.08 -0.336,0.101 -0.41,-0.042c-0.266,-0.505 -0.763,-0.391 -1.233,-0.471c0.183,-0.444 0.242,-0.838 -0.402,-0.875c-0.022,0.001 -0.04,-0.096 -0.08,-0.139c-0.253,-0.163 -0.51,-0.049 -0.762,-0.004c-1.527,0.27 -3.056,0.553 -4.584,0.83c-0.293,0.053 -0.592,0.119 -0.878,-0.038c-0.328,-0.126 -0.549,-0.728 -1.022,-0.236c-0.156,-0.045 -0.008,-0.256 -0.158,-0.302c-0.372,-0.062 -0.403,0.254 -0.514,0.471c-0.104,0.197 -0.08,0.44 -0.232,0.621c-0.526,0.202 -0.641,0.129 -0.679,-0.413c0.062,-0.198 0.264,-0.413 0.007,-0.594c-0.247,-0.171 -0.343,0.101 -0.479,0.221c-0.225,0.073 -0.173,-0.135 -0.231,-0.23c-0.109,-0.229 -0.285,-0.189 -0.473,-0.121c-0.267,0.09 -0.543,0.127 -0.808,0.21c-0.174,0.002 -0.347,-0.125 -0.521,-0.017c-0.101,0.044 -0.156,0.265 -0.235,0.182c-0.34,-0.352 -0.572,-0.021 -0.841,0.086c-0.258,0.093 -0.52,0.057 -0.786,0.021c-0.302,-0.083 -0.517,-0.248 -0.642,-0.556c-0.124,-0.305 -0.495,-0.379 -0.663,-0.649c-0.203,-0.221 -0.544,-0.259 -0.719,-0.518c-0.134,-0.292 0.099,-0.595 -0.026,-0.888c-0.049,-0.066 -0.111,-0.111 -0.188,-0.142c-0.126,-0.039 -0.258,-0.039 -0.383,-0.005c-0.137,0.043 -0.256,0.131 -0.403,0.131c-0.15,-0.007 -0.255,-0.103 -0.372,-0.181c-0.122,-0.087 -0.246,-0.165 -0.355,-0.269c-0.211,-0.832 -0.087,-0.619 -1.177,-0.537c-0.125,0.079 -0.247,0.163 -0.394,0.211c-0.07,0.019 -0.123,0 -0.049,0.003c0.076,0.007 -0.032,-0.093 0.027,-0.048c0.059,0.045 0.038,-0.119 0.04,-0.045c0.113,-0.171 0.306,-0.374 0.128,-0.551c-0.285,-0.28 -0.534,0.115 -0.816,0.137c-0.135,-0.168 -0.097,-0.41 -0.273,-0.545c-0.345,-0.212 -0.418,-0.019 -0.417,0.363c-0.128,-0.219 -0.187,-0.415 -0.363,-0.515c-0.335,-0.076 -0.367,-0.251 -0.199,-0.53c0.44,-0.713 0.435,-0.716 -0.37,-1.016c-0.218,0.07 -0.248,0.234 -0.204,0.463c-0.062,-0.179 -0.071,-0.348 -0.219,-0.446c-0.223,-0.127 -0.436,-0.22 -0.515,-0.526c-0.058,-0.241 -0.289,-0.38 -0.572,-0.325c-0.133,0.068 -0.183,0.224 -0.331,0.325c-0.014,-0.197 0.169,-0.251 0.195,-0.388c-0.242,-0.532 -0.403,-0.576 -0.78,-0.196c-0.148,0.153 -0.301,0.097 -0.458,0.105c-0.378,0.182 -0.738,0.111 -1.089,-0.084c-0.419,-0.065 -0.245,-0.387 -0.257,-0.62c-0.018,-0.239 0.102,-0.556 -0.334,-0.531c-0.167,0.048 -0.409,0.421 -0.435,-0.105c0.005,-0.116 0.002,-0.237 0.067,-0.343c0.126,-0.207 0.665,-0.268 0.247,-0.674c-0.123,0.05 -0.247,0.102 -0.369,0.155c-0.246,0.256 -0.555,0.357 -0.902,0.352c-0.242,0.057 -0.476,0.126 -0.665,0.303c-0.094,0.156 -0.205,0.274 -0.408,0.167" style="fill:#00a4d8;fill-rule:nonzero;"/></g><g><path d="M61.688,17.052c2.202,-1.018 4.309,-2.183 6.118,-3.836c0.201,-0.116 0.194,-0.293 0.043,-0.405c-0.144,-0.102 -0.173,-0.198 -0.172,-0.356c-0.004,-0.212 -0.091,-0.331 -0.313,-0.175c-0.305,0.211 -0.577,-0.237 -0.884,-0.04c-0.065,-0.136 -0.128,-0.269 -0.287,-0.321c0.09,-0.012 0.19,0.044 0.276,-0.039c0.072,-0.069 0.11,-0.143 0.105,-0.244c-0.151,-0.195 -0.371,-0.16 -0.573,-0.167c-2.325,-0.126 -4.653,-0.084 -6.977,-0.04c-1.074,0.021 -2.141,0.054 -3.205,0.124c-0.219,0.015 -0.462,-0.039 -0.625,0.179c-0.046,0.161 -0.093,0.32 -0.166,0.475c-0.285,0.586 -0.159,1.016 0.394,1.347c0.151,0.094 0.236,0.238 0.37,0.341c0.217,0.272 0.703,-0.181 0.851,0.31c0.013,0.044 -0.067,0.096 -0.007,0.057c0.034,-0.021 -0.013,-0.024 -0.015,-0.038c-0.073,-0.377 -0.275,-0.186 -0.432,-0.092c-0.111,0.064 -0.222,0.167 -0.239,0.302c-0.055,0.491 0.383,0.346 0.616,0.462c0.014,0.01 0.03,0.021 0.045,0.035c0.128,0.133 0.271,0.258 0.423,0.358c0.077,0.055 0.233,0.11 0.243,0.031c0.091,-0.58 0.619,-0.177 0.903,-0.4c0.199,-0.156 0.721,-0.259 0.729,0.357c0,0.153 0.047,0.365 0.306,0.271c-0.007,-0.183 0.125,-0.17 0.249,-0.17c-0.073,0.051 -0.215,-0.044 -0.24,0.11c0.368,0.514 0.587,0.566 0.986,0.231c0.022,-0.02 0.032,-0.132 0.057,-0.06c0.122,0.335 0.617,0.235 0.659,0.413c0.085,0.369 0.621,0.403 0.537,0.848c-0.012,0.068 0.124,0.123 0.225,0.132" style="fill:#00739d;fill-rule:nonzero;"/></g><g><path d="M42.521,4.341c-1.92,-0.248 -3.847,-0.447 -5.776,-0.596c-0.026,0.685 -0.445,0.876 -1.049,0.839c-0.073,-0.003 -0.14,0.051 -0.203,0.092c-0.082,-0.003 -0.037,0.212 -0.171,0.106c-0.251,-0.189 -0.365,-0.025 -0.469,0.171c-0.014,0.052 -0.018,0.102 -0.007,0.155c0.112,0.199 0.262,0.38 0.324,0.602c0.026,0.048 0.063,0.082 0.113,0.103c0.142,0.05 0.218,-0.052 0.38,-0.225c-0.138,0.424 -0.425,0.685 -0.378,1.052c0.406,0.219 0.642,0.555 0.681,1.013c0.236,0.172 0.369,-0.023 0.534,-0.134c0.089,-0.072 0.211,-0.14 0.272,0.016c0.047,0.121 -0.031,0.215 -0.158,0.25c-0.196,0.051 -0.518,-0.092 -0.473,0.326c-0.559,-0.534 -1.413,-0.489 -1.947,0.093c0.047,0.246 0.342,0.395 0.045,0.764c-0.287,0.356 0.324,1.042 0.828,0.983c0.203,-0.021 0.415,-0.175 0.377,0.268c-0.03,0.322 0.498,0.354 0.953,0.055c0.077,-0.232 -0.012,-0.559 0.354,-0.63c0.1,-0.06 0.212,-0.099 0.334,-0.063c0.499,0.178 0.953,0.49 1.511,0.478c0.14,-0.001 0.161,0.127 0.195,0.234c0.101,0.296 0.313,0.496 0.537,0.672c-0.319,0.412 -0.658,0.262 -0.991,0.03c-0.4,-0.066 -0.556,0.208 -0.457,0.493c0.131,0.371 0.111,0.716 0.047,1.076c0.397,0.19 0.814,0.084 1.201,0.017c1.414,-0.257 2.834,-0.464 4.265,-0.613c0.24,-0.025 0.474,-0.087 0.673,-0.245c0.125,-0.15 0.112,-0.28 -0.082,-0.339c-0.178,-0.054 -0.157,-0.174 -0.146,-0.308c-0.038,-0.32 -0.299,-0.231 -0.493,-0.267c-0.056,-0.003 -0.111,0.001 -0.165,-0.001c-0.563,-0.036 -0.563,-0.036 -0.677,0.552c-0.139,-0.416 -0.478,-0.403 -0.747,-0.505c0.138,-0.548 -0.295,-1.009 -0.219,-1.558c0.02,-0.166 -0.186,-0.474 -0.511,-0.22c-0.198,0.157 -0.218,-0.098 -0.306,-0.17c-0.249,-0.214 0.067,-0.096 0.098,-0.133c0.107,-0.121 0.115,-0.287 0.042,-0.362c-0.402,-0.39 -0.376,-0.992 -0.717,-1.398c0.007,0.006 -0.021,-0.015 -0.021,-0.015c0,0 0.024,0.005 0.032,0.005c0.199,0.029 0.261,-0.154 0.211,-0.24c-0.305,-0.564 0.438,-0.38 0.476,-0.687c0.287,0.161 0.659,-0.166 0.921,0.162c0.04,0.052 0.14,0.02 0.208,-0.008c0.028,-0.002 0.052,-0.011 0.067,-0.013c-0.031,0.008 -0.06,0.014 -0.09,0.036c-0.106,0.112 -0.153,0.238 0.014,0.313c0.297,0.132 0.532,-0.104 0.784,-0.18c0.246,-0.071 -0.049,-0.25 -0.023,-0.318c0.143,-0.36 0.053,-0.622 -0.203,-0.903c-0.206,-0.23 0.229,-0.233 0.221,-0.423c0.069,-0.211 -0.124,-0.28 -0.219,-0.402" style="fill:#009ed5;fill-rule:nonzero;"/></g><g><path d="M53.634,5.712c-0.157,-0.072 -0.322,-0.1 -0.494,-0.074c-0.11,0.009 -0.23,0.09 -0.321,0.069c-0.321,-0.064 -0.408,0.115 -0.608,0.334c-0.526,0.559 -0.627,1.111 -0.356,1.798c0.043,0.106 0.091,0.364 -0.189,0.375c-0.134,0.006 -0.287,-0.021 -0.292,0.165c-0.007,0.202 0.145,0.281 0.327,0.313c0.121,-0.098 0.214,-0.103 0.26,0.069c0.602,0.407 1.129,0.374 1.601,-0.225c0.111,-0.143 0.267,-0.426 0.568,-0.178c0.057,0.052 0.159,-0.072 0.202,-0.154c0.146,-0.259 0.295,-0.518 0.344,-0.835c-0.025,0.221 0.136,0.249 0.277,0.278c-0.027,0.258 -0.545,0.252 -0.329,0.612c0.157,0.272 0.404,0.134 0.649,0.017c-0.418,0.69 -0.044,1.289 0.112,1.887c0.052,0.194 -0.096,0.36 0.025,0.529c0.213,0.167 0.464,0.115 0.703,0.106c3.365,-0.143 6.731,-0.211 10.1,-0.064c0.203,0.011 0.414,0.035 0.581,-0.13c0.168,-0.298 0.582,-0.447 0.536,-0.877c-0.543,-0.433 -1.165,-0.716 -1.802,-0.971c-0.186,0.003 -0.437,-0.01 -0.486,0.168c-0.055,0.201 0.184,0.297 0.354,0.376c0.162,0.074 0.207,0.186 0.176,0.363c-0.03,0.16 -0.107,0.274 -0.261,0.329c-0.203,0.075 -0.189,-0.127 -0.266,-0.211c-0.065,-0.069 -0.188,-0.187 -0.207,-0.158c-0.237,0.346 -0.544,-0.054 -0.799,0.093c0.076,-0.1 0.283,-0.046 0.274,-0.217c-0.001,-0.234 0.104,-0.349 0.304,-0.475c0.241,-0.15 0.282,-0.403 0.04,-0.632c-1.46,-0.681 -3.02,-1.056 -4.57,-1.454c-0.61,-0.157 -1.216,-0.343 -1.852,-0.392c-0.535,0.477 -0.535,0.477 -0.058,1.163c-0.528,0.229 -1.011,0.538 -1.498,0.837c-0.116,0.075 -0.244,0.249 -0.385,0.069c-0.135,-0.175 -0.335,-0.464 -0.157,-0.592c0.287,-0.201 0.254,-0.529 0.449,-0.743c0.046,-0.028 0.082,-0.063 0.115,-0.103c0.136,-0.299 0.212,-0.602 0.127,-0.931c-0.167,-0.029 -0.334,-0.059 -0.497,-0.092c-0.09,0.046 -0.137,0.122 -0.169,0.211c-0.055,0.184 0.039,0.445 -0.348,0.412c-0.31,-0.028 -0.595,0.029 -0.709,-0.355c-0.065,-0.212 -0.163,-0.413 -0.375,-0.531l-0.005,0.03l0.009,-0.03c-0.384,0.044 -0.753,-0.011 -1.1,-0.179" style="fill:#00749f;fill-rule:nonzero;"/></g><g><path d="M35.984,24.099c0.181,-0.446 0.181,-0.446 0.636,-0.423c-0.287,-0.531 -0.618,-0.947 -1.305,-1.041c-0.333,-0.045 -0.628,-0.387 -0.93,-0.611c-0.234,-0.175 -0.426,-0.23 -0.592,0.074c-0.196,0.352 -0.444,0.347 -0.737,0.112c-0.161,-0.126 -0.338,-0.235 -0.506,-0.354c-0.285,-0.201 -0.724,-0.347 -0.086,-0.935c-0.83,0.283 -1.181,-0.305 -1.727,-0.374c-0.39,-0.05 -0.551,0.043 -0.681,0.348c-0.088,0.205 -0.164,0.417 -0.267,0.616c-0.064,0.122 -0.136,0.321 -0.319,0.226c-0.204,-0.108 -0.031,-0.254 0.031,-0.379c0.034,-0.066 0.064,-0.127 0.097,-0.187c-0.085,-0.068 -0.171,-0.066 -0.212,-0.001c-0.259,0.411 -0.552,0.374 -0.876,0.085c-0.295,-0.261 -0.557,-0.357 -0.793,0.088c-0.14,0.259 -0.374,0.231 -0.574,0.059c-0.297,-0.258 -0.479,-0.142 -0.664,0.148c-0.303,0.474 -0.649,0.921 -0.95,1.396c-0.196,0.308 -0.366,0.407 -0.706,0.158c-0.521,-0.38 -0.82,-0.258 -0.971,0.364c-0.031,0.119 -0.238,0.447 0.213,0.308c0.084,-0.028 0.093,0.211 0.09,0.338c2.878,0.298 5.764,0.296 8.648,0.19c1.062,-0.041 2.121,-0.134 3.181,-0.205" style="fill:#00a4d8;fill-rule:nonzero;"/></g><g><path d="M50.787,5.288c-1.897,-0.273 -3.795,-0.53 -5.706,-0.681c-0.178,0.121 -0.391,0.216 -0.223,0.496c0.148,0.241 0.38,0.375 0.616,0.228c0.234,-0.147 0.156,-0.034 0.158,0.104c0.005,0.113 0.087,0.207 0.136,0.312c0.241,0.503 0.284,1.039 0.243,1.587c0.034,0.129 0.098,0.244 0.195,0.335c0.252,0.135 0.054,0.363 0.112,0.537c0.359,0.175 0.549,-0.064 0.733,-0.324c-0.333,0.507 -0.301,0.624 0.2,0.709c-0.266,0.192 -0.722,-0.09 -0.837,0.421c-0.303,-0.23 -0.467,-0.616 -0.886,-0.532c-0.113,0.266 0.209,0.306 0.24,0.48c-0.309,-0.299 -0.551,-0.238 -0.982,0.267c-0.213,0.594 -0.108,0.754 0.714,1.101c0.054,-0.01 0.098,-0.039 0.138,-0.077c0.244,-0.509 0.372,-0.543 0.824,-0.196c0.178,0.138 0.349,0.289 0.59,0.286c0.24,-0.003 0.337,0.074 0.298,0.335c-0.037,0.255 0.065,0.346 0.33,0.217c0.339,-0.167 0.861,0.013 0.994,-0.537c-0.224,-0.407 0.172,-0.859 -0.209,-1.361c0.528,0.226 0.966,0.485 1.258,-0.12c0.018,0.215 -0.323,0.316 -0.147,0.529c0.133,0.156 0.365,0.184 0.506,0.041c0.155,-0.153 0.51,-0.196 0.409,-0.532c-0.133,-0.422 -0.468,-0.77 -0.449,-1.25c0.001,-0.067 -0.081,-0.142 -0.162,-0.117c-0.484,0.146 -0.464,-0.166 -0.406,-0.459c0.056,-0.263 -0.08,-0.451 -0.199,-0.631c0.432,0.068 0.871,-0.03 1.26,0.244c0.155,0.111 0.462,0.001 0.521,-0.206c0.09,-0.333 0.151,-0.697 -0.047,-1.033c-0.052,-0.085 -0.158,-0.101 -0.222,-0.173" style="fill:#007cae;fill-rule:nonzero;"/></g><g><path d="M66.757,10.563c-0.917,0.086 -1.83,-0.025 -2.742,-0.04c-2.789,-0.032 -5.577,0.04 -8.363,0.147c-0.075,0.001 -0.148,-0.011 -0.22,-0.016c-0.079,-0.103 -0.194,-0.114 -0.307,-0.098c-0.985,0.135 -1.982,0.113 -2.968,0.21c-0.104,0.019 -0.205,0.055 -0.3,0.094c-0.498,0.177 -1.018,0.149 -1.533,0.149c-0.084,0.004 -0.153,0.035 -0.208,0.102c0.015,0.343 -0.364,0.777 0.228,0.992c0.529,0.142 1.048,-0.043 1.574,-0.041c0.569,-0.026 1.126,-0.128 1.697,-0.104c0.525,-0.132 1.084,0 1.602,-0.207c1.658,-0.169 3.322,-0.181 4.986,-0.207c2.117,-0.03 4.235,-0.061 6.35,0.098c0.836,0.224 1.682,0.2 2.533,0.107c0.272,0.088 0.549,-0.117 0.82,0.001c0.183,-0.052 0.467,0.002 0.419,-0.315c-0.042,-0.271 -0.269,-0.178 -0.464,-0.22c-0.575,-0.128 -1.14,-0.322 -1.66,-0.617c-0.483,-0.072 -0.961,-0.18 -1.444,-0.035" style="fill:#00485b;fill-rule:nonzero;"/></g><g><path d="M55.146,19.931c0.284,-0.115 0.563,-0.224 0.844,-0.336c0.112,-0.073 0.056,-0.222 0.007,-0.212c-0.365,0.107 -0.158,-0.18 -0.209,-0.288c-0.054,-0.108 -0.143,-0.178 -0.242,-0.229c-0.383,-0.193 -0.621,-0.447 -0.724,-0.909c-0.145,-0.637 -0.318,-0.644 -0.824,-0.115c-0.094,-0.281 -0.155,-0.553 -0.245,-0.809c-0.055,-0.16 -0.108,-0.343 -0.343,-0.249c-0.013,0 -0.03,0.005 -0.047,0.004c0.038,-0.003 0.072,-0.011 0.104,-0.03c0.113,-0.064 0.247,-0.097 0.324,-0.21c0.084,-0.115 0.123,-0.241 0.015,-0.353c-0.149,-0.152 -0.282,-0.105 -0.406,0.074c0.016,-0.254 0.075,-0.478 0.159,-0.695c0.111,-0.27 0.056,-0.474 -0.255,-0.556c-0.517,0.209 -1.059,0.349 -1.609,0.287c-0.212,-0.021 -0.441,-0.039 -0.652,-0.118c-0.045,-0.02 -0.096,-0.036 -0.148,-0.045c-0.19,-0.071 -0.305,0.103 -0.535,0.193c0.251,-0.114 0.334,-0.26 0.391,-0.429c0.019,-0.051 0.046,-0.102 0.055,-0.157c0.031,-0.182 0.337,-0.357 0.103,-0.53c-0.222,-0.166 -0.499,-0.082 -0.694,0.126c-0.098,0.114 -0.218,0.193 -0.33,0.288c-0.044,0.064 -0.074,0.138 -0.055,0.21c0.181,0.644 0.166,1.295 0.064,1.946c0.098,0.178 0.345,0.213 0.4,0.426c0.031,0.077 0.066,0.143 0.135,0.181c0.075,0.021 0.147,0.002 0.22,-0.017c0.119,-0.024 0.312,-0.261 0.297,0.116c-0.001,0.081 0.201,0.146 0.31,0.222c0.215,0.097 0.236,-0.183 0.39,-0.202l0.001,-0.004c0.118,-0.047 -0.025,-0.371 0.276,-0.251c0.132,0.052 0.299,0.004 0.446,-0.021c0.089,-0.017 0.135,-0.091 0.198,-0.138c0.027,0.137 0.019,0.236 -0.111,0.355c-0.145,0.133 -0.141,0.379 -0.175,0.58c0.003,0.056 0.019,0.103 0.048,0.148c0.124,0.111 0.208,0.046 0.333,-0.034c0.131,-0.084 -0.011,0.057 0.03,0.068c-0.044,0.137 -0.002,0.256 0.058,0.377c0.011,0.034 0.028,0.067 0.046,0.103c0.861,0.261 1.605,0.755 2.35,1.233" style="fill:#009bca;fill-rule:nonzero;"/></g><g><path d="M53.225,15.04c0.243,0.137 0.385,0.295 0.155,0.568c-0.209,0.251 -0.047,0.533 -0.069,0.818c0.185,0.011 0.204,-0.414 0.411,-0.176c0.167,0.199 -0.097,0.258 -0.199,0.372c-0.052,0.054 -0.097,0.112 -0.144,0.174c0.425,0.127 0.214,0.585 0.428,0.825c0.091,0.1 -0.073,0.307 0.125,0.358c0.214,0.059 0.26,-0.165 0.378,-0.268c0.062,-0.054 0.098,-0.138 0.173,-0.248c0.081,0.356 0.392,0.571 0.278,0.965c-0.074,0.244 0.245,0.219 0.379,0.326c0.182,0.147 0.402,0.247 0.609,0.366c0.181,0.319 0.57,0.018 0.775,0.26c0.683,-0.216 1.332,-0.511 1.971,-0.824c-0.077,-0.244 -0.288,-0.259 -0.538,-0.31c0.299,-0.145 0.37,-0.401 0.423,-0.665c-0.129,-0.395 -0.355,-0.209 -0.573,-0.099c-0.267,0.099 -0.308,-0.25 -0.518,-0.27c-0.044,-0.01 -0.093,-0.004 -0.138,0.012c-0.122,-0.041 -0.016,0.324 -0.228,0.124c-0.042,-0.029 -0.086,-0.047 -0.132,-0.061c-0.366,0.015 -0.715,0.161 -1.091,-0.029c-0.26,-0.13 -0.476,0.15 -0.733,0.254c-0.178,-0.306 0.07,-0.577 0.05,-0.86c-0.134,-0.265 -0.3,-0.505 -0.397,-0.796c-0.248,-0.782 -0.502,-0.93 -1.359,-0.893c-0.013,0.026 -0.026,0.05 -0.036,0.077" style="fill:#0097c5;fill-rule:nonzero;"/></g><g><path d="M50.787,5.288c0.341,0.321 0.152,0.739 0.191,1.107c0.015,0.209 -0.558,0.335 -0.643,0.121c-0.123,-0.318 -0.22,-0.391 -0.464,-0.138c-0.095,-0.225 -0.468,0.187 -0.479,-0.212c-0.054,0.01 -0.117,0.003 -0.152,0.036c-0.101,0.081 -0.123,0.248 -0.07,0.306c0.218,0.238 0.222,0.462 0.109,0.753c-0.066,0.164 0.073,0.369 0.209,0.503c0.191,0.187 0.241,-0.196 0.466,-0.108c-0.055,0.384 0.043,0.746 0.322,1.073c0.047,0.057 0.262,0.295 0.074,0.37c-0.234,0.084 -0.34,0.544 -0.721,0.223c0.171,-0.154 0.247,-0.379 0.255,-0.686c-0.286,0.185 -0.444,0.564 -0.699,0.525c-0.235,-0.038 -0.476,-0.227 -0.831,-0.371c0.124,0.275 0.04,0.49 0.186,0.687c0.156,0.203 0.086,0.301 -0.169,0.281c-0.108,-0.006 -0.247,-0.041 -0.237,0.14c0.002,0.11 0.094,0.162 0.198,0.14c0.266,-0.05 0.217,0.204 0.308,0.317c0.017,0.016 0.039,0.03 0.058,0.043c0.078,0.053 0.159,0.087 0.256,0.094c0.05,-0.008 0.091,-0.028 0.13,-0.058c0.049,-0.061 0.074,-0.128 0.086,-0.201c0.228,-0.318 0.665,-0.438 1.02,-0.286c0.323,-0.016 0.325,-0.357 0.514,-0.523c0.362,-0.309 0.689,-0.447 1.122,-0.2c0.198,-0.132 0.23,-0.318 0.16,-0.528c-0.066,-0.118 -0.14,-0.203 -0.247,-0.04c-0.258,-0.009 -0.454,-0.078 -0.346,-0.403c0.049,-0.133 0.002,-0.258 -0.028,-0.381c-0.163,-0.622 0.218,-1.114 0.381,-1.66c0.097,-0.328 0.628,-0.265 0.645,-0.685c-0.523,-0.142 -1.065,-0.189 -1.604,-0.239" style="fill:#007aaa;fill-rule:nonzero;"/></g><g><path d="M46.071,7.338c0.254,-0.621 0.028,-1.184 -0.222,-1.746c-0.04,-0.099 -0.166,-0.16 -0.127,-0.296c0.045,-0.169 0.092,-0.411 -0.11,-0.424c-0.321,-0.013 0.037,0.205 -0.057,0.298c-0.082,0.086 -0.178,0.129 -0.301,0.09c-0.144,-0.043 -0.252,-0.098 -0.32,-0.267c-0.103,-0.25 0.051,-0.172 0.165,-0.167c-0.007,-0.074 -0.014,-0.143 -0.019,-0.218c-0.849,-0.133 -1.703,-0.227 -2.559,-0.267c0.05,0.124 0.102,0.248 0.15,0.37c0.163,0.233 -0.533,0.332 -0.098,0.586c0.232,0.132 0.234,0.438 0.528,0.551c0.244,0.093 0.536,0.321 0.316,0.698c-0.02,0.048 -0.029,0.099 -0.018,0.15c0.087,0.353 0.29,0.584 0.679,0.503c0.127,-0.025 0.145,-0.033 0.135,0.089c-0.026,0.254 0.129,0.329 0.34,0.342c0.141,0.009 0.272,-0.039 0.341,-0.163c0.105,-0.187 -0.067,-0.31 -0.144,-0.449c-0.067,-0.116 -0.178,-0.192 -0.372,-0.31c0.334,0.034 0.542,-0.252 0.843,0.014c0.127,0.113 0.226,-0.177 0.306,-0.317c0.088,-0.144 0.131,-0.277 -0.039,-0.389c-0.134,-0.086 -0.29,-0.07 -0.434,-0.109c0.609,0.071 0.607,0.069 0.458,0.65c-0.129,0.485 0.339,0.544 0.559,0.781" style="fill:#0086b9;fill-rule:nonzero;"/></g><g><path d="M55.146,19.931c-0.336,-0.441 -0.745,-0.786 -1.292,-0.927c-0.326,-0.083 -0.545,-0.46 -0.945,-0.342c-0.222,-0.149 -0.474,-0.271 -0.583,-0.542c-0.082,-0.15 -0.162,-0.304 -0.342,-0.099c-0.316,0.201 -0.095,0.322 0.063,0.459c0.092,0.075 0.278,0.123 0.168,0.291c-0.069,0.107 -0.182,0.028 -0.296,-0.002c-0.267,-0.079 -0.394,0.171 -0.467,0.341c-0.08,0.187 0.134,0.177 0.274,0.235c0.273,0.105 0.406,0.383 0.476,0.638c0.099,0.368 -0.248,0.032 -0.32,0.163l0.002,-0.002c0.313,0.152 0.099,0.769 0.633,0.724c0.905,-0.236 1.772,-0.583 2.629,-0.937" style="fill:#00a1d4;fill-rule:nonzero;"/></g><g><path d="M61.688,17.052c0.019,-0.133 -0.319,-0.143 -0.117,-0.361c0.026,-0.024 0.24,-0.534 -0.246,-0.265c-0.093,0.05 -0.227,-0.055 -0.186,-0.136c0.245,-0.495 -0.233,-0.411 -0.409,-0.446c-0.238,-0.051 -0.389,-0.095 -0.385,-0.362c-0.002,-0.137 -0.06,-0.211 -0.202,-0.18c-0.08,0.013 -0.128,0.071 -0.099,0.159c0.164,0.606 -0.183,0.382 -0.444,0.264c-0.134,-0.061 -0.248,-0.157 -0.376,-0.237c-0.35,-0.095 -0.185,-0.413 -0.252,-0.621c-0.085,-0.272 -0.047,-0.472 -0.435,-0.187c-0.173,0.127 -0.552,0.114 -0.812,0.258c-0.028,0.017 -0.087,0.025 -0.107,0.007c-0.238,-0.184 -0.237,-0.187 -0.363,0.235c-0.007,0.031 -0.028,0.062 -0.047,0.1c-0.181,-0.157 -0.36,-0.31 -0.538,-0.463c-0.176,0.054 -0.26,0.172 -0.148,0.333c0.189,0.284 0.447,0.514 0.634,0.812c0.114,0.175 0.319,-0.045 0.499,-0.229c-0.048,0.203 -0.085,0.38 0.072,0.493c0.377,0.35 0.919,0.39 1.32,0.705c0.154,0.12 0.302,0.044 0.421,-0.126c0.269,-0.398 0.789,-0.467 1.116,-0.119c0.288,0.31 0.635,0.41 1.025,0.446c0.026,-0.027 0.052,-0.054 0.079,-0.08" style="fill:#00749e;fill-rule:nonzero;"/></g><g><path d="M61.609,17.132c-0.263,-0.305 -0.713,-0.257 -0.988,-0.631c-0.274,-0.368 -0.862,-0.211 -1.229,-0.105c-0.543,0.156 -0.715,0.234 -1.384,-0.156c-0.064,-0.039 -0.136,-0.059 -0.205,-0.088c-0.21,-0.068 -0.421,-0.1 -0.639,-0.122c-0.244,-0.022 -0.474,-0.103 -0.582,-0.365c-0.164,-0.395 -0.395,-0.445 -0.703,-0.129c-0.088,0.094 -0.225,0.125 -0.347,0.177c-0.275,0.169 -0.09,0.367 -0.036,0.558c0.252,0.342 0.66,0.404 1.011,0.574c0.035,0.036 0.072,0.066 0.113,0.094c0.199,0.101 0.423,0.135 0.634,0.211c0.118,0.049 0.171,0.187 0.299,0.224c0.512,-0.142 0.229,-0.374 0.082,-0.614c0.504,0.393 1.157,0.533 1.618,1.006c0.138,0.14 0.314,0.029 0.48,0.002c0.312,-0.052 0.607,-0.174 0.925,-0.193c0.316,-0.146 0.632,-0.294 0.951,-0.443" style="fill:#0079a7;fill-rule:nonzero;"/></g><g><path d="M68.168,10.705c0.413,0.166 0.766,0.482 1.257,0.479c0.221,0.003 0.388,0.529 0.681,0.083c0.083,0.093 0.22,0.177 0.077,0.31c-0.077,0.072 -0.184,0.115 -0.277,0.174c1.114,0.169 2.24,0.23 3.364,0.299c0.156,-0.138 0.694,0.179 0.467,-0.398c-0.032,-0.013 -0.066,-0.011 -0.095,0.007c-0.011,-0.042 0.007,-0.045 0.054,-0.01c0.008,0.009 0.031,0.001 0.053,-0.001c0.562,-0.171 0.151,-0.342 0.003,-0.52c-0.793,-0.184 -1.613,-0.171 -2.417,-0.249c-0.869,-0.088 -1.748,-0.126 -2.619,-0.184c-0.181,-0.004 -0.369,-0.265 -0.548,0.01" style="fill:#005166;fill-rule:nonzero;"/></g><g><path d="M56.826,6.246c-0.08,0.322 -0.161,0.645 -0.198,1.052c0.04,0.095 0.024,0.106 0.01,0.097c-0.039,-0.036 -0.03,-0.092 -0.041,-0.135c-0.02,-0.064 -0.02,-0.064 0.011,-0.001c0.02,0.039 0.076,0.06 0.02,0.039c-0.06,-0.095 -0.082,-0.116 -0.094,-0.111c-0.356,0.164 -0.21,0.728 -0.65,0.829c0.072,0.313 0.196,0.602 0.4,0.852c0.096,0.121 0.141,0.005 0.217,-0.04c0.421,-0.269 0.859,-0.529 1.282,-0.796c0.35,-0.218 0.411,-0.471 0.172,-0.865c-0.083,-0.137 -0.079,-0.142 0.051,-0.231c0.115,-0.077 0.287,-0.184 0.229,-0.389c-0.456,-0.157 -0.931,-0.238 -1.409,-0.301" style="fill:#00729c;fill-rule:nonzero;"/></g><g><path d="M69.085,11.748c-0.839,-0.11 -1.688,-0.112 -2.533,-0.106c-0.096,0.147 -0.197,0.29 -0.435,0.122c0.288,0.55 0.376,0.639 0.541,0.582c0.289,-0.107 0.619,0.616 0.912,-0.095c-0.258,0.444 0.451,0.574 0.237,0.965c0.559,-0.371 0.895,-0.936 1.278,-1.468" style="fill:#00749f;fill-rule:nonzero;"/></g><g><path d="M52.392,5.526c-0.152,0.091 -0.178,0.326 -0.481,0.27c-0.18,-0.031 -0.301,0.33 -0.357,0.553c-0.019,0.078 0.057,0.256 -0.017,0.308c-0.791,0.53 -0.107,1.25 -0.23,1.869c-0.041,0.207 0.237,0.235 0.432,0.13c-0.096,-0.079 -0.238,-0.116 -0.286,-0.312c0.201,-0.038 0.605,0.084 0.562,-0.011c-0.133,-0.278 0.199,-0.546 -0.093,-0.853c-0.149,-0.154 -0.28,-0.709 0.158,-0.974c0.116,-0.071 0.154,-0.206 0.225,-0.307c0.109,-0.153 0.038,-0.616 0.48,-0.284c0.159,0.119 0.182,-0.24 0.355,-0.276c-0.241,-0.095 -0.491,-0.126 -0.748,-0.113" style="fill:#0076a4;fill-rule:nonzero;"/></g><g><path d="M35.535,4.715c0.218,0.033 0.417,-0.098 0.651,-0.046c0.541,0.118 0.737,-0.113 0.568,-0.649c-0.028,-0.084 -0.008,-0.183 -0.009,-0.275c-0.802,-0.094 -1.605,-0.191 -2.406,-0.286c-0.124,0.171 -0.676,0.281 -0.075,0.549c0.648,-0.208 0.686,-0.182 0.625,0.458c-0.016,0.178 -0.038,0.307 0.219,0.233c0.135,-0.037 0.281,0.117 0.427,0.016" style="fill:#00a1d3;fill-rule:nonzero;"/></g><g><path d="M64.657,8.392c-0.011,0.262 0.157,0.63 -0.357,0.591c-0.046,-0.003 -0.111,0.026 -0.142,0.061c-0.157,0.16 0.251,0.405 -0.031,0.495c-0.217,0.066 -0.3,0.162 -0.387,0.436c0.291,-0.185 0.543,-0.339 0.756,-0.01c0.023,0.04 0.185,0.048 0.192,0.032c0.043,-0.101 -0.1,-0.349 0.186,-0.237c0.16,0.066 0.124,0.219 0.093,0.377c-0.021,0.124 0.137,0.126 0.209,0.086c0.198,-0.117 0.436,-0.148 0.542,-0.436c0.225,-0.622 -0.355,-0.563 -0.674,-0.854c0.257,0.061 0.343,-0.104 0.485,-0.178c-0.265,-0.183 -0.56,-0.29 -0.872,-0.363" style="fill:#00759f;fill-rule:nonzero;"/></g><g><path d="M60.659,17.576c-0.343,-0.135 -0.676,-0.024 -0.995,0.068c-0.16,0.048 -0.293,0.2 -0.41,-0.039c-0.124,-0.249 -0.252,-0.469 -0.583,-0.288c-0.125,-0.346 -0.58,-0.309 -0.707,-0.504c-0.284,-0.44 -0.461,-0.011 -0.66,-0.064c-0.106,0.306 0.874,0.074 0.229,0.581c0.143,0.365 0.145,0.367 0.369,0.26c0.205,-0.166 0.289,-0.164 0.41,0.01c0.021,0.626 0.489,0.606 0.923,0.639c0.486,-0.196 0.974,-0.384 1.424,-0.663" style="fill:#0084b2;fill-rule:nonzero;"/></g><g><path d="M54.73,5.89c0.048,0.102 0.098,0.201 0.145,0.302c0.333,0.789 0.503,0.898 1.266,0.768c0.098,-0.018 0.255,-0.062 0.155,-0.215c-0.133,-0.215 0.046,-0.396 0.035,-0.591c-0.53,-0.117 -1.058,-0.242 -1.601,-0.264" style="fill:#0075a1;fill-rule:nonzero;"/></g><g><path d="M68.168,10.705c0.182,-0.004 0.367,-0.006 0.548,-0.01c-0.463,-0.324 -0.923,-0.648 -1.387,-0.969c-0.219,0.121 -0.142,0.577 -0.578,0.482c-0.081,-0.018 0.043,0.229 0.008,0.355c0.47,0.049 0.939,0.094 1.409,0.142" style="fill:#00749f;fill-rule:nonzero;"/></g><g><path d="M59.235,18.239c-0.144,-0.096 -0.176,-0.326 -0.484,-0.186c-0.306,0.143 -0.153,-0.419 -0.439,-0.454c-0.124,0.297 -0.325,0.531 -0.668,0.742c0.345,0.068 0.632,0.034 0.851,0.214c0.264,-0.062 0.509,-0.171 0.74,-0.316" style="fill:#009dcd;fill-rule:nonzero;"/></g><g><path d="M56.525,19.381c-0.107,-0.539 -0.549,-0.079 -0.776,-0.261c-0.32,0.362 0.196,0.3 0.242,0.476c0.199,-0.024 0.375,-0.103 0.534,-0.215" style="fill:#009fd0;fill-rule:nonzero;"/></g><g><path d="M23.403,24.036c-0.216,-0.264 0.044,-0.57 -0.103,-0.863c0.016,0.42 -0.497,0.444 -0.552,0.801c0.214,0.058 0.432,0.099 0.655,0.062" style="fill:#00a4d8;fill-rule:nonzero;"/></g><g><path d="M53.634,5.712c0.297,0.471 0.702,0.315 1.1,0.179c-0.36,-0.106 -0.723,-0.178 -1.1,-0.179" style="fill:#0075a1;fill-rule:nonzero;"/></g><g><path d="M14.445,4.656c-0.48,0.266 -0.128,0.402 0.13,0.57c-0.392,0.148 -0.738,0.202 -1.127,0.204c-0.285,0.001 -0.581,0.392 -0.821,-0.088c-0.202,0.177 -0.444,0.213 -0.7,0.18c-0.027,0.114 -0.008,0.216 0.056,0.313c0.124,0.2 0.31,0.247 0.528,0.228c0.324,0 0.153,0.215 0.183,0.37c0.059,0.29 -0.338,0.812 0.36,0.827c0.092,-0.161 0.215,-0.229 0.394,-0.129c0.206,0.119 0.445,0.119 0.668,0.18c0.273,0.011 0.658,0.407 0.721,-0.289c0.014,-0.157 0.397,0.072 0.501,0.31c0.022,0.101 0.084,0.143 0.184,0.128c0.315,0.037 0.548,0.089 0.486,0.531c-0.056,0.398 0.456,0.071 0.563,0.334c0.166,0.017 0.321,-0.009 0.471,-0.086c0.015,0.01 0.029,0.026 0.046,0.034c0.457,0.236 0.761,0.443 0.165,0.935c-0.261,0.218 -0.218,0.638 0.325,0.635c0.106,-0.025 0.221,0.108 0.31,0.009c0.225,-0.265 0.323,-0.059 0.441,0.099c0.145,0.412 0.132,1.147 0.841,0.41c0.057,-0.059 0.199,-0.092 0.249,0.007c0.095,0.214 -0.133,0.315 -0.199,0.474c0.193,0.199 0.379,0.099 0.561,-0.018c0.019,-0.008 0.035,-0.019 0.053,-0.02c0.652,0.019 0.652,0.019 0.94,0.568c0.206,0.028 0.36,0.136 0.464,0.322c0.137,0.073 0.244,0.231 0.433,0.161c0.089,-0.146 0.231,-0.157 0.381,-0.148c0.107,-0.019 0.209,-0.038 0.314,-0.06c0.242,-0.216 0.133,0.077 0.185,0.13c-0.044,0.299 -0.14,0.596 -0.078,0.905c0.452,-0.057 0.699,0.184 0.832,0.582c0.546,0.303 0.615,1.131 1.358,1.212c0.275,-0.3 0.545,-0.061 0.812,0.011c0.251,0.005 0.473,-0.712 0.777,-0.015c0.041,0.098 0.272,-0.143 0.295,-0.34c0.211,-0.293 0.331,0.063 0.501,0.071c0.287,-0.069 0.615,0.01 0.871,-0.226c0.108,-0.098 0.277,-0.159 0.321,0.091c0.063,0.148 0.135,0.292 0.303,0.347c0.036,-0.003 0.07,-0.013 0.105,-0.021c0.194,-0.028 0.085,-0.47 0.315,-0.314c0.278,0.181 -0.089,0.346 -0.138,0.529c0.276,0.283 0.512,0.634 0.991,0.55c0.277,-0.275 0.148,-0.704 0.382,-1.011c0.089,-0.119 0.148,-0.192 0.293,-0.167c0.135,0.095 -0.055,0.317 0.153,0.381c0.198,-0.202 0.384,-0.399 0.612,-0.01c0.063,0.114 0.231,0.165 0.351,0.247c0.124,-0.686 0.186,-0.752 0.922,-0.889c1.432,-0.267 2.867,-0.521 4.297,-0.784c0.238,-0.048 0.486,-0.056 0.681,-0.229c0.115,-0.122 0.135,-0.3 0.233,-0.431c0,-0.075 0.112,0.043 0.04,0.029c-0.026,-0.009 -0.045,0.041 -0.04,0.083c0,0.057 0.02,0.105 0.059,0.148c0.043,0.034 0.09,0.049 0.139,0.051c0.025,-0.089 0.016,-0.228 0.069,-0.253c0.323,-0.154 0.332,-0.272 0.08,-0.555c-0.231,-0.257 -0.217,-0.603 0.219,-0.747c0.113,0.006 0.259,0.131 0.312,-0.085c0.071,-0.294 -0.298,-0.736 -0.776,-0.993c-0.319,-0.168 -0.528,-0.089 -0.68,0.212c-0.062,0.463 0.352,0.303 0.499,0.382c-0.349,0.077 -0.766,0.157 -0.974,-0.336c-0.108,-0.05 -0.209,-0.026 -0.308,0.034c-0.238,-0.103 -0.377,0.375 -0.636,0.107c-0.07,-0.074 -0.242,-0.003 -0.194,-0.278c0.067,-0.38 -0.347,-0.292 -0.562,-0.239c-0.231,0.064 -0.342,-0.01 -0.456,-0.181c-0.148,-0.216 -0.259,-0.525 -0.186,-0.707c0.195,-0.463 0.238,-0.443 -0.122,-0.742c0.105,-0.48 0.603,-0.576 0.887,-0.878c0.161,-0.175 0.239,0.192 0.37,0.209c0.174,0.019 0.246,0.568 0.504,0.106c0.207,-0.622 -0.213,-0.83 -0.67,-1.013c-0.019,-0.295 -0.227,-0.569 -0.077,-0.88c-0.126,-0.216 -0.256,-0.434 -0.364,-0.662c-0.066,-0.111 -0.163,-0.199 -0.153,-0.346c0.006,-0.175 -0.018,-0.363 -0.236,-0.365c-0.229,-0.007 -0.193,0.23 -0.245,0.37c-0.056,0.158 -0.075,0.326 0.025,0.48c-0.241,-0.098 -0.187,-0.386 -0.354,-0.533c-0.103,0.084 -0.199,0.228 -0.306,0.236c-0.429,0.039 -0.675,0.198 -0.521,0.763c-0.26,-0.457 -0.57,-0.644 -0.993,-0.649c-0.084,-0.002 -0.18,-0.106 -0.245,0.006c-0.053,0.089 -0.029,0.166 0.071,0.233c0.151,0.096 0.217,0.266 0.009,0.322c-0.144,0.038 -0.337,0.348 -0.511,0c-0.075,-0.154 -0.134,-0.33 -0.207,0.032c-0.04,0.2 -0.172,-0.066 -0.264,-0.105c-0.155,-0.072 -0.203,-0.361 -0.455,-0.221c-0.065,0.036 -0.152,0.077 -0.167,0.136c-0.039,0.142 0.092,0.085 0.155,0.124c0.246,0.138 0.346,0.338 -0.019,0.442c-0.281,0.084 -0.706,0.463 -0.754,-0.243c-0.01,-0.14 -0.101,-0.104 -0.193,-0.121c-0.342,-0.048 -0.637,-0.242 -0.954,-0.361c-0.385,-0.15 -0.541,0.007 -0.453,0.295c0.149,0.486 -0.105,0.504 -0.433,0.509c-0.211,0.004 -0.391,0.067 -0.551,0.19c0.053,0.21 0.175,0.125 0.273,0.098c0.082,-0.025 0.155,-0.022 0.166,0.073c0.006,0.045 -0.035,0.144 -0.057,0.15c-0.357,0.018 -0.435,0.25 -0.452,0.546c-0.173,-0.052 -0.247,0.385 -0.37,0.142c-0.103,-0.207 -0.606,0.202 -0.396,-0.313c0.037,-0.086 -0.084,-0.236 -0.13,-0.357c-0.44,0.272 -0.993,0.076 -1.111,-0.406c-0.047,-0.189 -0.065,-0.286 -0.276,-0.178c-0.368,0.186 -0.54,0.095 -0.344,-0.308c0.155,-0.317 -0.077,-0.32 -0.242,-0.347c-0.214,-0.035 -0.459,0.027 -0.437,-0.332c0.01,-0.138 -0.116,-0.097 -0.203,-0.044c-0.161,0.104 -0.242,0.233 -0.137,0.422c0.052,0.097 0.366,0.113 0.102,0.304c-0.139,0.108 -0.266,0.314 -0.485,0.166c-0.422,-0.29 -0.941,0.253 -1.35,-0.163c-0.057,-0.056 -0.153,0.048 -0.147,0.118c0.049,0.529 -0.207,0.828 -0.741,0.939c-0.12,-0.096 0.007,-0.232 0.046,-0.324c0.077,-0.164 0.102,-0.311 -0.083,-0.357c-0.181,-0.044 -0.249,0.109 -0.267,0.279c-0.02,0.205 0.229,0.524 -0.057,0.586c-0.22,0.047 -0.334,-0.328 -0.478,-0.522c-0.108,-0.143 -0.115,-0.316 -0.353,-0.142c-0.141,0.106 -0.306,0.366 -0.456,0.249c-0.17,-0.133 -0.311,-0.356 -0.361,-0.608c-0.022,-0.108 0.076,-0.28 -0.136,-0.317c-0.162,-0.027 -0.157,0.122 -0.211,0.207c-0.054,0.077 -0.114,0.183 -0.212,0.131c-0.074,-0.035 -0.133,-0.133 -0.159,-0.217c-0.065,-0.19 0.034,-0.368 0.077,-0.547c0.046,-0.181 0.011,-0.321 -0.158,-0.436c-0.18,-0.126 -0.202,0.051 -0.296,0.111c-0.628,0.396 -1.323,0.196 -1.995,0.2c-0.017,0.002 -0.034,-0.095 -0.055,-0.144c-0.182,-0.193 -0.324,-0.547 -0.639,-0.115c-0.097,0.133 -0.221,-0.016 -0.292,-0.123c-0.052,-0.243 -0.152,-0.139 -0.252,-0.037" style="fill:#00a2db;fill-rule:nonzero;"/></g><g><path d="M49.968,16.763c0.348,-0.704 0.079,-1.4 -0.059,-2.094c0.042,-0.075 0.042,-0.153 0.017,-0.234c-0.353,-0.478 -0.764,-0.864 -1.412,-0.852c-0.324,-0.647 -0.686,-0.085 -1.032,-0.037c-0.174,0.047 -0.333,0 -0.487,-0.084c-0.117,-0.053 -0.239,-0.09 -0.368,-0.096c-0.363,0.112 -0.652,0.035 -0.844,-0.317c-0.31,0.039 -0.223,-0.374 -0.466,-0.412c-0.054,-0.011 -0.133,-0.025 -0.162,0.011c-0.159,0.206 -0.294,0.154 -0.424,-0.026c-1.222,-0.042 -2.403,0.209 -3.584,0.485c-0.134,0.107 -0.106,0.318 -0.265,0.407c-0.182,-0.03 -0.252,-0.217 -0.41,-0.277c-0.84,-0.069 -1.656,0.083 -2.466,0.282c-0.091,0.023 -0.168,0.079 -0.191,0.181c0.055,0.095 0.018,0.213 0.224,0.229c0.333,0.027 0.448,0.248 0.204,0.549c-0.24,0.293 -0.107,0.371 0.204,0.368c0.418,-0.005 0.787,0.027 1.069,0.454c0.286,0.436 0.558,-0.107 0.91,-0.134c-0.169,0.396 0.363,0.446 0.347,0.81c0.141,-0.164 0.519,-0.129 0.31,-0.531c-0.078,-0.151 0.138,-0.329 0.311,-0.414c0.193,-0.096 0.399,-0.098 0.596,-0.036c0.1,0.034 0.105,0.152 0.082,0.245c-0.017,0.076 -0.084,0.16 -0.149,0.107c-0.241,-0.19 -0.437,0.146 -0.692,0.032c0.292,0.245 0.151,0.704 0.429,0.894c0.382,0.259 0.578,-0.187 0.903,-0.352c0.04,0.294 0.128,0.517 0.491,0.536c0.253,0.015 0.534,0.111 0.602,0.476c0.039,0.216 1.182,0.38 1.358,0.221c0.202,-0.186 0.108,-0.327 -0.082,-0.448c-0.018,-0.1 0.005,-0.179 0.13,-0.185c0.029,0.019 0.063,0.043 0.093,0.063c0.241,-0.116 0.142,-0.227 0.004,-0.334c0.181,0.044 0.152,0.361 0.4,0.342c0.055,-0.007 0.106,-0.016 0.159,-0.029c0.028,-0.237 0.181,-0.42 0.292,-0.619c-0.023,-0.214 0.17,-0.366 0.175,-0.571c0.015,-0.029 0.035,-0.011 0.082,0.005c1.013,0.329 1.001,1.197 1.063,2.029c-0.027,0.111 -0.006,0.215 0.058,0.312c0.284,0.234 0.474,0.048 0.65,-0.155c0.131,-0.155 0.264,-0.258 0.471,-0.341c0.405,-0.163 0.556,0.149 0.791,0.312c0.08,0.076 0.176,0.33 0.259,0.153c0.228,-0.484 0.433,-0.276 0.687,-0.06c0.044,0.038 0.14,0.015 0.208,0.021c0.062,-0.119 -0.005,-0.214 -0.055,-0.313c-0.013,-0.053 -0.022,-0.105 -0.028,-0.158c-0.144,-0.127 -0.385,-0.162 -0.403,-0.415" style="fill:#00a1d4;fill-rule:nonzero;"/></g><g><path d="M41.207,13.169c1.158,-0.168 2.308,-0.403 3.473,-0.484c0.114,0.009 0.219,0.017 0.254,-0.122c-0.145,-0.313 -0.147,-0.354 -0.043,-0.84c-0.051,-0.137 -0.164,-0.192 -0.302,-0.205c-0.05,-0.001 -0.1,0 -0.149,0.008c-0.151,0.005 -0.268,0.118 -0.415,0.145c-0.49,0.209 -1.023,0.173 -1.535,0.25c-1.517,0.223 -3.033,0.438 -4.55,0.656l-0.005,-0.006c-0.172,-0.046 -0.339,-0.059 -0.471,0.093c-1.748,0.328 -3.498,0.652 -5.243,0.981c-0.677,0.132 -0.811,0.34 -0.615,0.954c0.259,0.173 0.535,0.101 0.811,0.05c1.798,-0.33 3.584,-0.721 5.399,-0.95c0.849,-0.232 1.725,-0.32 2.599,-0.403c0.288,0.08 0.545,0.011 0.792,-0.127" style="fill:#005e78;fill-rule:nonzero;"/></g><g><path d="M49.301,17.536c0.025,-0.265 -0.511,-0.285 -0.189,-0.689c-0.283,0.06 -0.331,0.411 -0.628,0.235c-0.209,-0.115 -0.399,0.087 -0.473,0.284c-0.118,0.305 -0.334,0.388 -0.623,0.353c0.015,0.326 0.34,0.472 0.37,0.764c0.245,-0.041 0.197,-0.205 0.229,-0.32c0.026,-0.095 0.048,-0.191 0.161,-0.196c0.177,-0.008 0.154,0.129 0.138,0.235c-0.03,0.197 0.057,0.229 0.241,0.27c0.25,0.052 0.449,0.011 0.595,-0.174c0.155,-0.189 -0.12,-0.168 -0.168,-0.262c-0.214,-0.401 0.1,-0.425 0.347,-0.5" style="fill:#00a2d6;fill-rule:nonzero;"/></g><g><path d="M47.33,17.407c0.206,-0.35 0.284,-0.686 -0.049,-1.014c-0.055,-0.054 -0.079,-0.173 -0.07,-0.257c0.043,-0.441 -0.103,-0.704 -0.595,-0.682c-0.05,0.005 -0.102,-0.028 -0.158,-0.039c-0.189,-0.039 -0.111,-0.54 -0.359,-0.3c-0.145,0.14 -0.289,0.527 -0.089,0.829c0.14,-0.044 0.281,-0.057 0.419,-0.137c0.112,-0.067 0.344,-0.084 0.232,0.182c-0.091,0.227 0.057,0.306 0.192,0.405c0.178,0.124 0.204,0.268 0.045,0.417c-0.146,0.134 -0.394,0.24 -0.236,0.488c0.165,0.26 0.432,0.133 0.668,0.108" style="fill:#00a3d7;fill-rule:nonzero;"/></g><g><path d="M34.754,20.702c-0.163,0.203 -0.122,0.401 0.149,0.595c0.282,0.199 0.513,0.276 0.737,-0.079c0.149,-0.236 0.302,-0.459 -0.018,-0.656c-0.289,-0.178 -0.585,-0.261 -0.868,0.14" style="fill:#00a4d8;fill-rule:nonzero;"/></g><g><path d="M51.984,18.021c0.141,-0.066 0.237,0.032 0.341,0.1c0.102,-0.426 0.556,-0.743 0.344,-1.228c-0.309,0.385 -0.738,0.257 -1.156,0.157c-0.121,0.221 0.172,0.29 0.134,0.461c0.297,0.047 0.388,0.233 0.337,0.51" style="fill:#009fd1;fill-rule:nonzero;"/></g><g><path d="M50.399,17.336c-0.028,0.11 -0.008,0.216 0.055,0.313c0.237,0.142 0.536,-0.174 0.747,0.107c0.051,-0.008 0.075,-0.041 0.067,-0.091c-0.361,-0.173 -0.326,-0.381 -0.06,-0.628c-0.27,0.103 -0.541,0.2 -0.809,0.299" style="fill:#009fd0;fill-rule:nonzero;"/></g><g><path d="M29.815,15.158c-0.333,-0.182 -0.662,-0.365 -0.992,-0.548c0.141,0.677 0.361,0.802 0.992,0.548" style="fill:#00a4d8;fill-rule:nonzero;"/></g><g><path d="M46.01,15.944c-0.354,0.086 -0.503,0.266 -0.292,0.621c0.481,-0.026 0.417,-0.31 0.292,-0.621" style="fill:#00a3d7;fill-rule:nonzero;"/></g><g><path d="M51.882,20.146c0.004,-0.106 0.004,-0.213 0.005,-0.378c-0.206,0.166 -0.431,0.259 -0.399,0.55c0.006,0.048 0.096,0.122 0.15,0.129c0.217,0.021 0.217,-0.155 0.246,-0.303l-0.002,0.002Z" style="fill:#00a1d4;fill-rule:nonzero;"/></g><g><path d="M51.27,17.664c-0.02,0.032 -0.044,0.065 -0.068,0.093c-0.121,0.304 0.172,0.267 0.273,0.257c0.384,-0.031 0.041,-0.353 0.17,-0.499c-0.125,0.046 -0.251,0.098 -0.375,0.149" style="fill:#009fd1;fill-rule:nonzero;"/></g><g><path d="M45.56,16.593c-0.201,-0.198 -0.341,-0.459 -0.61,-0.615c-0.097,0.28 0.416,0.313 0.204,0.606c0.137,0.005 0.272,0.011 0.406,0.009" style="fill:#00a3d7;fill-rule:nonzero;"/></g><g><path d="M43.408,16.905c-0.272,-0.09 -0.339,0.135 -0.495,0.144c0.22,0.147 0.319,-0.002 0.495,-0.144" style="fill:#00a1d4;fill-rule:nonzero;"/></g><g><path d="M30.643,14.361c-0.119,-0.099 0.123,-0.343 -0.152,-0.378c-0.043,0.156 -0.09,0.311 -0.139,0.474c0.116,0.044 0.196,-0.056 0.291,-0.096" style="fill:#00a4d8;fill-rule:nonzero;"/></g><g><path d="M28.542,14.416c-0.067,-0.142 -0.16,-0.266 -0.302,-0.348c-0.011,0.216 0.001,0.407 0.302,0.348" style="fill:#00a4d8;fill-rule:nonzero;"/></g><g><path d="M45.455,17.01c0.024,0.083 0.022,0.148 0.052,0.181c0.061,0.065 0.129,0.044 0.185,-0.016c0.039,-0.043 0.051,-0.107 -0.017,-0.131c-0.057,-0.026 -0.127,-0.02 -0.22,-0.034" style="fill:#00a3d7;fill-rule:nonzero;"/></g><g><path d="M45.061,16.52c-0.035,-0.16 -0.137,-0.102 -0.196,-0.038c-0.087,0.094 0,0.165 0.067,0.224c0.042,-0.06 0.086,-0.122 0.129,-0.186" style="fill:#00a3d7;fill-rule:nonzero;"/></g><g><path d="M33.909,4.683c-0.09,0.348 0.252,0.542 0.303,0.838c0.015,0.074 0.111,0.1 0.191,0.069c0.115,-0.045 0.117,-0.167 0.064,-0.232c-0.247,-0.31 -0.093,-0.606 -0.009,-0.926c0.273,0.1 0.115,0.28 0.089,0.417c-0.064,0.335 0.147,0.251 0.326,0.23c0.132,-0.109 0.147,-0.465 0.463,-0.157c0.131,0.132 0.104,-0.156 0.199,-0.207c-0.178,-0.035 -0.36,-0.071 -0.568,-0.113c0.093,-0.259 0.37,-0.549 -0.036,-0.787c-0.276,-0.161 -0.497,-0.123 -0.662,0.158c0.069,0.08 0.183,0.175 -0.01,0.235c-0.255,0.086 -0.439,-0.108 -0.66,-0.228c-0.048,0.288 0.25,0.41 0.22,0.642c0.03,0.019 0.062,0.04 0.09,0.061" style="fill:#00a0d5;fill-rule:nonzero;"/></g><g><path d="M55.558,15.83c0.275,-0.062 0.522,-0.174 0.729,-0.549c0.192,0.975 0.854,0.931 1.517,0.873c-0.096,-0.08 -0.118,-0.154 -0.046,-0.283c0.085,-0.147 0.089,-0.371 -0.084,-0.418c-0.258,-0.074 -0.126,0.193 -0.183,0.3c-0.06,0.102 -0.162,0.181 -0.268,0.157c-0.109,-0.023 -0.023,-0.179 -0.057,-0.223c-0.15,-0.2 -0.313,-0.409 -0.508,-0.559c-0.191,-0.142 -0.021,-0.21 0.01,-0.311c-0.001,-0.114 -0.059,-0.171 -0.173,-0.159c-0.151,0.017 -0.328,0.182 -0.438,-0.049c-0.111,-0.238 0.178,-0.286 0.26,-0.434c0.023,-0.048 0.121,-0.059 0.228,-0.097c-0.036,0.141 -0.062,0.24 -0.094,0.367c0.14,-0.101 0.322,-0.141 0.268,-0.335c-0.05,-0.171 -0.205,-0.262 -0.379,-0.277c-0.165,-0.016 -0.333,-0.002 -0.497,-0.002c-0.224,0.033 -0.054,0.273 -0.241,0.396c-0.039,-0.603 -0.679,-0.19 -0.937,-0.626c-0.196,-0.329 -0.776,-0.26 -1.126,-0.484c0.755,-0.31 0.219,-0.803 0.096,-1.254c-0.571,-0.102 -1.135,0.04 -1.701,0.088c0.02,0.42 -0.418,0.933 0.258,1.211c-0.218,0.219 -0.014,0.451 -0.025,0.679c0.022,0.104 0.076,0.301 0.121,0.274c0.453,-0.285 0.754,0.356 1.177,0.187c0.446,0.116 0.96,-0.001 1.34,0.364c0.253,0.387 0.306,0.904 0.753,1.164" style="fill:#0076a2;fill-rule:nonzero;"/></g><g><path d="M53.635,11.863c-0.181,0.372 0.117,0.602 0.26,0.851c-0.088,0.221 -0.335,-0.351 -0.339,0.098c-0.002,0.152 0.009,0.219 -0.183,0.194c-0.064,-0.012 -0.182,0.125 -0.137,0.249c0.05,0.145 0.137,0.15 0.249,0.045c0.166,-0.148 0.263,-0.017 0.363,0.106c0.047,0.055 0.121,0.161 0.152,0.151c0.444,-0.149 0.607,0.132 0.799,0.454c0.196,0.33 0.307,0.017 0.427,-0.11c0.098,0.033 0.07,0.112 0.074,0.181c0.02,0.323 0.225,0.346 0.476,0.279c0.474,-0.117 -0.087,-0.367 0.067,-0.53c-0.138,-0.201 -0.172,-0.472 -0.54,-0.463c-0.231,0.006 -0.353,-0.745 -0.204,-1.043c0.091,-0.178 0.369,-0.324 0.12,-0.574c-0.533,-0.031 -1.066,-0.054 -1.584,0.112" style="fill:#00749f;fill-rule:nonzero;"/></g><g><path d="M59.21,15.414c0.204,-0.026 0.454,0.189 0.658,-0.07c-0.29,-0.181 -0.463,-0.006 -0.658,0.07" style="fill:#00749e;fill-rule:nonzero;"/></g><g><path d="M43.42,6.605c0.321,-0.169 0.304,-0.644 -0.114,-0.811c-0.373,-0.142 -0.499,-0.491 -0.814,-0.661c0.16,-0.116 0.686,-0.06 0.179,-0.42c-0.104,0.2 -0.339,0.115 -0.504,0.217c0.056,0.318 0.465,0.381 0.512,0.673c0.032,0.222 -0.234,0.485 0.123,0.705c-0.231,0.015 -0.478,-0.129 -0.592,0.17c-0.029,0.072 -0.206,0.051 -0.244,-0.029c-0.027,-0.056 0.053,-0.162 0.085,-0.246l0,0.005c-0.073,-0.016 -0.155,-0.015 -0.22,-0.047c-0.239,-0.125 -0.419,-0.486 -0.769,-0.129c-0.056,0.058 -0.307,-0.071 -0.51,-0.127c0.069,0.113 0.117,0.191 0.17,0.277c-0.195,-0.029 -0.376,-0.057 -0.517,-0.076c-0.276,0.271 0.431,0.701 -0.203,0.876c0.085,0.383 0.544,0.66 0.33,1.134c-0.01,0.026 0.046,0.115 0.068,0.113c0.268,-0.022 0.428,0.13 0.357,0.358c-0.068,0.229 -0.339,-0.082 -0.517,0.126c0.186,0.191 0.483,0.283 0.585,0.57c0.037,0.1 0.205,0.122 0.303,0.071c0.131,-0.061 -0.043,-0.198 0.138,-0.459c0.121,0.786 0.392,1.402 0.356,2.086c0.194,0.035 0.309,-0.08 0.441,-0.194c0.213,-0.187 0.408,-0.466 0.727,-0.083c0.16,0.193 0.376,-0.036 0.555,-0.113c0.467,-0.093 0.61,-0.311 0.433,-0.801c-0.104,-0.291 0.038,-0.654 -0.078,-0.976c-0.186,-0.236 -0.431,-0.275 -0.614,-0.048c-0.189,0.226 -0.455,0.307 -0.676,0.462c-0.158,0.262 0.1,0.302 0.209,0.427c-0.158,-0.171 -0.502,-0.185 -0.55,-0.341c-0.047,-0.166 0.28,0.065 0.381,-0.104c0.141,-0.127 0.113,-0.305 0.156,-0.462c0.045,-0.152 0.11,-0.278 0.318,-0.171c0.392,0.207 0.402,-0.008 0.317,-0.305c-0.025,-0.331 -0.24,-0.361 -0.499,-0.345c0.301,-0.016 0.444,-0.614 0.877,-0.232c0.025,0.05 0.065,0.085 0.11,0.113c-0.002,0.002 -0.019,0.007 -0.03,-0.006c-0.054,-0.048 -0.088,-0.111 -0.112,-0.182c-0.365,0 -0.379,0.019 -0.353,0.586c0.058,0.223 0.304,0.271 0.416,0.445c0.137,0.145 0.316,0.258 0.437,0.41c0.272,0.338 0.463,0.267 0.64,-0.074c-0.105,-0.292 -0.008,-0.704 -0.438,-0.828c0.442,0.085 0.858,0.412 1.357,0.272c0.074,-0.031 0.131,-0.084 0.182,-0.147c0.046,-0.066 0.083,-0.134 0.104,-0.207c-0.007,-0.25 0.253,-0.285 0.349,-0.451c-0.072,-0.097 -0.14,-0.191 -0.21,-0.288c-0.036,-0.086 -0.044,-0.214 -0.107,-0.252c-0.348,-0.204 -0.369,-0.444 -0.243,-0.815c0.106,-0.306 -0.554,-0.704 -0.863,-0.556c-0.09,0.042 -0.16,0.1 -0.122,0.216c0.033,0.096 0.106,0.137 0.21,0.151c0.478,0.085 0.476,0.088 0.359,0.55c-0.154,-0.166 -1.005,-0.141 -1.134,0.037c-0.109,0.149 0.036,0.242 0.117,0.229c0.281,-0.05 0.306,0.202 0.437,0.329c0.065,0.066 0.165,0.123 0.059,0.222c-0.093,0.085 -0.203,0.082 -0.32,0.067c-0.098,-0.016 -0.143,-0.031 -0.124,-0.173c0.037,-0.261 -0.001,-0.372 -0.348,-0.236c-0.34,0.131 -0.375,-0.337 -0.572,-0.502c-0.077,-0.007 0.013,0.043 -0.051,0.008c0.008,-0.005 -0.062,-0.032 -0.002,-0.011c0.063,0.023 -0.01,-0.035 0.053,0.003" style="fill:#0093c7;fill-rule:nonzero;"/></g><g><path d="M37.191,10.251c0.139,-0.159 0.234,-0.391 0.515,-0.223c0.37,0.225 0.778,0.417 0.794,0.933c0,0.017 -0.129,0.04 -0.194,0.06c0.052,0.391 0.588,0.136 0.672,0.543c0.006,-0.342 0.181,-0.408 0.434,-0.397c0.121,0.006 0.235,-0.058 0.247,-0.186c0.01,-0.139 -0.104,-0.143 -0.224,-0.178c-0.331,-0.091 -0.509,-0.337 -0.51,-0.679c-0.003,-0.165 -0.103,-0.315 -0.193,-0.277c-0.32,0.132 -0.576,0.184 -0.729,-0.207c-0.385,0.315 -0.61,-0.251 -0.952,-0.175c-0.1,0.058 -0.214,0.031 -0.316,0.058c-0.389,0.101 -0.633,0.278 -0.355,0.712c0.079,0.013 0.164,0.026 0.247,0.035c0.042,-0.299 0.187,-0.305 0.564,-0.019" style="fill:#00a0d8;fill-rule:nonzero;"/></g><g><path d="M35.984,7.632c-0.379,0.124 -0.431,-0.217 -0.563,-0.414c-0.166,-0.244 -0.259,-0.289 -0.426,-0.002c-0.115,0.203 -0.316,0.323 -0.566,0.401c-0.219,0.064 -0.209,0.357 -0.206,0.579c0.374,0.035 0.672,-0.586 1.096,-0.129c0.353,-0.488 0.476,-0.078 0.684,0.15c0.069,0.078 0.336,0.093 0.399,0.026c0.122,-0.132 -0.092,-0.188 -0.19,-0.281c0.233,-0.124 0.475,0.157 0.64,-0.047c0.147,-0.181 0.198,-0.457 0.042,-0.615c-0.103,-0.108 -0.398,-0.061 -0.507,0.117c-0.106,0.169 -0.213,0.246 -0.403,0.215" style="fill:#00a0d8;fill-rule:nonzero;"/></g><g><path d="M43.316,10.922c0.095,0.184 0.39,-0.155 0.436,0.16c0.111,0.37 0.487,0.362 0.739,0.533l0,-0.004c0.082,-0.043 0.184,-0.049 0.251,-0.095c0.242,-0.159 0.128,0.058 0.153,0.129c0.191,0.128 0.36,0.059 0.53,-0.04c0.303,-0.147 0.382,-0.515 0.714,-0.677c0.144,-0.072 0.032,-0.51 -0.109,-0.737c-0.196,-0.313 -0.325,0.023 -0.485,0.084c-0.223,0.129 -0.371,0.514 -0.727,0.203c-0.031,-0.026 -0.104,0.017 -0.148,0.051c-0.293,0.229 -0.536,0.255 -0.851,0.037c-0.182,-0.129 -0.298,-0.123 -0.422,0.045c-0.077,0.091 -0.11,0.194 -0.081,0.311" style="fill:#008fc3;fill-rule:nonzero;"/></g><g><path d="M43.316,10.922c0.063,-0.093 0.128,-0.186 0.192,-0.277c-0.025,-0.1 -0.092,-0.138 -0.19,-0.128c-0.223,0.025 -0.541,0.393 -0.64,-0.161c0,-0.016 -0.451,0.017 -0.617,0.21c-0.135,0.154 -0.237,0.336 -0.439,0.417c0.07,0.166 0.177,0.124 0.313,0.077c0.131,-0.045 0.301,-0.113 0.319,0.144c0.019,0.269 0.227,0.281 0.394,0.219c0.184,-0.067 0.298,-0.192 0.038,-0.366c-0.088,-0.064 0.008,-0.237 0.149,-0.163c0.166,0.083 0.318,0.047 0.481,0.028" style="fill:#009ad0;fill-rule:nonzero;"/></g><g><path d="M39.098,6.067c0.027,-0.067 0.038,-0.148 0.086,-0.202c0.098,-0.104 0.425,-0.048 0.292,-0.285c-0.146,-0.261 -0.364,-0.067 -0.509,0.065c-0.138,0.128 -0.698,-0.267 -0.44,0.348c0.052,0.125 -0.078,0.337 0.149,0.363c0.2,0.025 0.351,-0.091 0.422,-0.289" style="fill:#00a1d9;fill-rule:nonzero;"/></g><g><path d="M35.237,5.741c-0.579,0.347 -0.067,0.595 0.078,0.88c0.239,-0.156 0.066,-0.617 0.473,-0.645c-0.016,-0.163 0.017,-0.362 -0.141,-0.457c-0.246,-0.145 -0.128,0.183 -0.248,0.22c-0.049,0.015 -0.111,0.001 -0.162,0.002" style="fill:#00a0d5;fill-rule:nonzero;"/></g><g><path d="M44.492,11.614c-0.136,-0.334 -0.541,-0.288 -0.738,-0.532c-0.141,0.197 -0.219,0.383 0.132,0.414c0.123,0.012 0.233,0.001 0.14,0.174c0.163,0.052 0.313,0.016 0.466,-0.056" style="fill:#009acc;fill-rule:nonzero;"/></g><g><path d="M34.873,5.078c-0.045,0.313 0.002,0.574 0.364,0.663c0.056,-0.319 -0.102,-0.519 -0.364,-0.663" style="fill:#00a0d5;fill-rule:nonzero;"/></g><g><path d="M42.051,6.203c0.192,-0.011 0.188,-0.127 0.122,-0.254c-0.012,-0.028 -0.08,-0.029 -0.126,-0.041c0.002,0.098 0.002,0.197 0.005,0.299l-0.001,-0.004Z" style="fill:#0093c7;fill-rule:nonzero;"/></g><g><path d="M40.002,6.982c-0.102,-0.052 -0.213,-0.102 -0.249,0.067c-0.007,0.039 0.033,0.122 0.065,0.131c0.168,0.043 0.153,-0.102 0.184,-0.198" style="fill:#0093c7;fill-rule:nonzero;"/></g><g><path d="M36.734,9.524c0.115,0.039 0.251,0.192 0.316,-0.058c-0.125,-0.078 -0.229,-0.063 -0.316,0.058" style="fill:#00a2db;fill-rule:nonzero;"/></g><g><path d="M51.986,8.697c-0.075,0.173 -0.149,0.351 -0.227,0.526c-0.112,0.118 -0.028,0.182 0.066,0.247c0.195,0.006 0.34,0.119 0.502,0.239c-0.212,0.068 -0.311,0.232 -0.343,0.441c-0.005,0.05 0.004,0.1 0.019,0.148c0.133,0.169 0.098,0.377 0.135,0.565c1.101,-0.01 2.199,-0.069 3.293,-0.209c-0.044,-0.194 0.625,-0.349 0.001,-0.606c-0.262,-0.108 0.127,-0.523 -0.085,-0.779c-0.187,-0.222 -0.354,-0.415 0.053,-0.65c0.193,-0.112 0.028,-0.465 -0.098,-0.595c-0.202,-0.21 -0.193,0.09 -0.26,0.189c-0.101,0.154 -0.222,0.127 -0.322,0.016c-0.131,-0.147 0.006,-0.174 0.116,-0.211c0.274,-0.095 0.234,-0.385 0.397,-0.642c-0.558,0.487 -0.429,-0.358 -0.799,-0.279c0.267,0.475 -0.176,0.781 -0.262,1.192c-0.223,-0.054 -0.001,-0.37 -0.253,-0.37c-0.223,0.002 -0.147,0.268 -0.225,0.309c-0.301,0.165 -0.453,0.482 -0.731,0.663c-0.157,0.096 -0.238,0.08 -0.391,-0.018c-0.167,-0.106 -0.389,-0.121 -0.586,-0.176" style="fill:#0076a2;fill-rule:nonzero;"/></g><g><path d="M45.546,10.275c0.357,-0.12 0.365,-0.119 0.345,0.229c-0.011,0.18 0.192,0.216 0.219,0.363c-0.581,-0.153 -0.397,0.552 -0.744,0.659c0.215,0.22 0.471,0.026 0.701,0.07c0.1,0.003 0.197,0.002 0.295,-0.012c0.223,-0.033 0.44,-0.082 0.666,-0.101c0.807,-0.092 1.634,-0.041 2.416,-0.329c0.154,-0.164 0.184,-0.348 0.072,-0.552c-0.053,-0.07 -0.118,-0.12 -0.201,-0.151c-0.111,-0.044 -0.219,-0.009 -0.33,0.002c-0.148,0.089 -0.225,-0.081 -0.34,-0.096l-0.004,-0.001c-0.23,0.151 -0.382,0.551 -0.779,0.244c-0.038,-0.03 -0.254,0.167 -0.39,0.259c-0.113,-0.177 0.122,-0.29 0.078,-0.46c-0.033,-0.125 -0.024,-0.3 -0.219,-0.229c-0.362,0.133 -0.585,-0.008 -0.818,-0.277c-0.182,-0.202 -0.441,-0.297 -0.753,-0.185c-0.331,0.11 -0.077,0.401 -0.214,0.567" style="fill:#0086b8;fill-rule:nonzero;"/></g><g><path d="M43.318,10.517c0.067,0.041 0.127,0.084 0.188,0.127c0.309,-0.261 0.171,0.313 0.42,0.217c0.324,-0.126 0.536,0.132 0.76,0.307c0.212,-0.206 -0.095,-0.4 0.069,-0.617c0.501,0.605 0.636,0.139 0.791,-0.276c-0.367,-0.007 -0.335,-0.581 -0.773,-0.535c-0.098,0.005 0.067,-0.248 0.04,-0.389c-0.081,-0.111 0.193,-0.366 -0.15,-0.376c-0.163,0.102 -0.301,0.383 -0.507,0.009c-0.089,-0.164 -0.3,-0.271 -0.456,-0.399c-0.122,0.065 -0.061,0.158 -0.04,0.246c-0.007,0.481 -0.176,0.984 0.133,1.409c-0.07,0.288 -0.491,-0.136 -0.475,0.277" style="fill:#0086b8;fill-rule:nonzero;"/></g><g><path d="M45.741,8.212c-0.045,0.059 -0.089,0.123 -0.131,0.183c-0.057,0.005 -0.077,0.039 -0.065,0.093c0.202,0.197 0.555,0.192 0.619,0.588c0.029,0.169 0.315,0.273 0.419,-0.044c0.047,-0.143 0.04,-0.285 0.268,-0.257c0.416,0.047 0.418,0.032 0.664,-0.495c-0.183,-0.1 -0.216,0.084 -0.29,0.162c-0.097,0.104 -0.155,0.047 -0.223,-0.025c-0.114,-0.111 -0.088,-0.132 0.05,-0.218c0.212,-0.128 0.331,-0.331 0.026,-0.51c-0.059,-0.032 -0.228,-0.194 -0.207,0.065c0.04,0.455 -0.326,0.36 -0.567,0.433c-0.024,0.008 -0.047,0.017 -0.071,0.024c-0.164,0.098 -0.331,0 -0.492,0.001" style="fill:#0082b6;fill-rule:nonzero;"/></g><g><path d="M45.546,8.488c0.021,-0.03 0.043,-0.064 0.063,-0.094c-0.113,-0.017 -0.248,0.101 -0.333,-0.081c-0.067,-0.152 -0.141,-0.337 -0.324,-0.062c-0.044,0.072 -0.234,0.05 -0.262,-0.083c-0.104,-0.469 -0.452,0.041 -0.611,-0.165c-0.042,0.031 -0.1,0.056 -0.116,0.098c-0.027,0.083 0.04,0.17 0.099,0.166c0.36,-0.009 0.506,0.128 0.407,0.496c-0.007,0.033 0.214,0.052 0.194,0.213c0.205,0.063 -0.056,0.315 0.15,0.377c0.238,-0.339 0.525,-0.549 0.97,-0.363c0.102,-0.255 -0.277,-0.281 -0.237,-0.502" style="fill:#008abe;fill-rule:nonzero;"/></g><g><path d="M46.28,7.627c-0.287,-0.025 -0.536,-0.007 -0.416,0.399c0.08,0.226 0.234,0.256 0.436,0.163l0.003,-0.002c0.016,-0.185 0.697,-0.401 -0.023,-0.56" style="fill:#0082b6;fill-rule:nonzero;"/></g><g><path d="M50.479,6.141c0.071,-0.056 0.131,-0.079 0.136,-0.11c0.007,-0.046 -0.029,-0.093 -0.049,-0.141c-0.03,0.02 -0.078,0.033 -0.085,0.06c-0.016,0.044 -0.002,0.095 -0.002,0.191" style="fill:#007aaa;fill-rule:nonzero;"/></g><g><path d="M46.332,11.489c-0.082,0.001 -0.164,-0.004 -0.245,-0.004c-0.209,0.344 -0.053,0.562 0.254,0.706c0.184,0.087 0.37,0.179 0.561,0.249c0.15,0.052 0.303,0.043 0.458,0.021c0.168,-0.033 0.336,-0.063 0.508,-0.047c0.049,0.005 0.101,0.005 0.154,0.001c0.608,-0.079 1.221,-0.131 1.835,-0.166c0.198,-0.051 0.431,-0.019 0.551,-0.25c-0.145,-0.12 -0.552,-0.137 -0.169,-0.46c0.176,-0.157 -0.143,-0.271 -0.072,-0.433c-0.277,-0.322 -0.545,-0.076 -0.817,0.011c-0.795,0.094 -1.589,0.183 -2.383,0.271c-0.208,0.068 -0.392,0.258 -0.635,0.101" style="fill:#005065;fill-rule:nonzero;"/></g><g><path d="M50.407,11.999c-0.179,0.05 -0.358,0.103 -0.539,0.152c-0.605,0.347 -0.583,0.525 -0.041,0.94c0.415,0.32 0.856,0.385 1.334,0.411c0.205,-0.119 0.127,-0.274 0.078,-0.464c0.129,0.572 0.56,0.712 1.037,0.792c-0.053,-0.292 0.162,-0.648 -0.234,-0.864c-0.185,-0.105 -0.027,-0.304 -0.06,-0.451c-0.044,-0.188 0.178,-0.395 -0.048,-0.564c-0.512,-0.056 -1.016,0.146 -1.527,0.048" style="fill:#0079a8;fill-rule:nonzero;"/></g><g><path d="M49.35,11.117c0.272,0.054 0.544,-0.12 0.817,-0.011c0.05,-0.006 0.096,-0.013 0.139,-0.018c0.22,0.019 0.436,0.043 0.609,-0.14c-0.045,-0.47 0.46,-0.645 0.566,-1.105c0.093,0.176 0.039,0.361 0.155,0.466c0.16,0.143 0.317,0.219 0.391,-0.078c-0.034,-0.168 0,-0.324 0.042,-0.485c0.04,-0.15 0.031,-0.301 -0.188,-0.305c-0.072,-0.051 -0.13,-0.114 -0.121,-0.217c-0.214,-0.369 -0.566,-0.429 -0.855,-0.151c-0.265,0.26 -0.608,0.45 -0.721,0.84c-0.398,0.083 -0.717,0.244 -0.762,0.709c0.119,0.185 0.05,0.344 -0.072,0.495" style="fill:#0085b3;fill-rule:nonzero;"/></g><g><path d="M52.027,10.231c-0.399,0.21 -0.399,-0.017 -0.339,-0.305c0.033,-0.152 0.083,-0.318 -0.129,-0.354c-0.209,-0.031 -0.221,0.148 -0.246,0.297c-0.026,0.142 -0.014,0.334 -0.186,0.375c-0.454,0.109 -0.296,0.434 -0.277,0.711c0.357,0.2 0.716,0.01 1.073,0c0.074,-0.03 0.144,-0.059 0.215,-0.092c0.232,-0.258 0.212,-0.475 -0.111,-0.632" style="fill:#007dac;fill-rule:nonzero;"/></g><g><path d="M51.923,10.955l-1.074,-0.001c-0.179,0.045 -0.36,0.088 -0.54,0.136c0.553,0.09 1.091,0.093 1.614,-0.135" style="fill:#005065;fill-rule:nonzero;"/></g><g><path d="M49.883,14.509c0.007,0.052 0.02,0.108 0.027,0.161c0.218,0.036 0.322,-0.074 0.42,-0.267c0.114,-0.229 0.364,-0.032 0.556,-0.12c-0.131,0.198 -0.222,0.384 -0.289,0.587c0.221,0.01 0.172,0.263 0.308,0.347c0.031,0.022 0.06,0.041 0.092,0.063c0.394,-0.139 0.59,-0.479 0.809,-0.794c0.183,-0.132 0.208,-0.264 -0.03,-0.338c-0.194,-0.062 -0.369,-0.135 -0.511,-0.285c-0.849,-0.31 -1.561,-0.853 -2.319,-1.32c-0.203,-0.123 -0.439,-0.313 -0.564,0.096c0.273,0.642 0.754,1.034 1.401,1.28c0.096,0.036 0.201,0.367 0.1,0.59" style="fill:#008fbe;fill-rule:nonzero;"/></g><g><path d="M51.738,14.414c-0.071,0.021 -0.201,0.056 -0.198,0.058c0.069,0.281 0.04,0.445 -0.32,0.395c-0.057,-0.004 -0.149,0.271 -0.223,0.413c0.266,0.209 0.6,0.154 0.901,0.213c0.427,0.084 0.815,-0.313 1.265,-0.14c0.021,-0.108 0.039,-0.211 0.062,-0.313l-0.002,-0.003c-0.123,-0.282 -0.372,-0.19 -0.581,-0.184c-0.306,0.007 -0.548,-0.066 -0.69,-0.36c-0.064,-0.056 -0.134,-0.083 -0.214,-0.079" style="fill:#0097c5;fill-rule:nonzero;"/></g><g><path d="M52.325,18.119c0.021,0.369 0.213,0.559 0.584,0.543c-0.026,-0.184 -0.226,-0.347 -0.032,-0.565c0.16,-0.176 -0.024,-0.298 -0.13,-0.417c-0.29,0.004 0.063,0.619 -0.422,0.439" style="fill:#009fd1;fill-rule:nonzero;"/></g><g><path d="M50.905,15.217c0.006,-0.215 0.191,-0.583 -0.309,-0.348c-0.042,0.149 -0.086,0.307 -0.127,0.456c0.142,-0.033 0.287,-0.069 0.436,-0.108" style="fill:#0097c5;fill-rule:nonzero;"/></g><g><path d="M49.968,16.763c-0.076,0.347 -0.02,0.56 0.403,0.415c0.147,-0.408 -0.332,-0.216 -0.403,-0.415" style="fill:#009fd0;fill-rule:nonzero;"/></g><g><path d="M53.007,16.666c-0.074,0.057 -0.077,0.14 -0.014,0.188c0.114,0.076 0.241,0.088 0.348,-0.021c0.083,-0.085 -0.018,-0.13 -0.05,-0.177c-0.091,-0.141 -0.191,-0.041 -0.284,0.01" style="fill:#0097c5;fill-rule:nonzero;"/></g><g><path d="M51.919,14.548c-0.046,0.468 0.34,0.418 0.603,0.444c0.228,0.028 0.474,-0.074 0.702,0.044c0.736,-0.006 1.235,0.286 1.326,1.074c0.034,0.268 0.215,0.426 0.426,0.554c0.157,0.579 0.685,0.596 1.122,0.683c0.411,0.087 0.502,-0.21 0.447,-0.562c-0.054,-0.072 0.155,-0.326 -0.203,-0.196c-0.273,0.098 -0.534,-0.202 -0.791,-0.349c-0.391,-0.306 -0.691,-0.69 -0.873,-1.144c-0.084,-0.206 0.292,-0.287 0.24,-0.527c-0.337,-0.164 -0.622,-0.488 -1.075,-0.283c-0.131,0.064 -0.257,-0.114 -0.385,-0.181c-0.347,0.118 -0.626,0.505 -1.077,0.168c-0.226,-0.163 -0.328,0.143 -0.462,0.275" style="fill:#0085b4;fill-rule:nonzero;"/></g><g><path d="M56.544,16.786c-0.15,0.226 -0.123,0.82 -0.627,0.293c-0.501,0.289 -0.63,-0.265 -0.94,-0.415c-0.124,0.166 -0.261,0.348 -0.209,0.555c0.039,0.15 -0.122,0.331 0.083,0.449c0.214,0.124 0.282,-0.094 0.414,-0.169c0.181,-0.103 0.325,-0.259 0.579,-0.038c0.305,0.264 0.643,-0.069 0.969,-0.078c0.165,-0.252 -0.099,-0.362 -0.181,-0.533c-0.03,-0.02 -0.059,-0.044 -0.088,-0.064" style="fill:#008ebc;fill-rule:nonzero;"/></g><g><path d="M56.148,18.749c0.145,-0.067 0.305,-0.14 0.468,-0.21c-0.296,-0.151 0.004,-0.599 -0.365,-0.719c-0.095,-0.029 -0.181,-0.086 -0.254,-0.005c-0.04,0.047 -0.044,0.136 -0.064,0.204c0.535,0.11 0.039,0.457 0.215,0.73" style="fill:#009ece;fill-rule:nonzero;"/></g><g><path d="M56.633,16.85c-0.085,0.227 0.177,0.336 0.18,0.534c0.031,0.02 0.062,0.041 0.091,0.06c0.15,0.003 0.145,-0.203 0.285,-0.207c0.101,-0.024 0.142,-0.085 0.131,-0.187c-0.23,-0.068 -0.456,-0.131 -0.687,-0.2" style="fill:#0084b2;fill-rule:nonzero;"/></g><g><path d="M57.32,17.05c-0.044,0.064 -0.084,0.124 -0.13,0.186c0.161,0.151 0.312,0.321 0.484,0.461c0.11,0.09 0.253,0.145 0.228,-0.107c-0.238,0.08 -0.222,-0.206 -0.368,-0.258c-0.071,-0.094 -0.145,-0.189 -0.214,-0.282" style="fill:#008ebc;fill-rule:nonzero;"/></g><g><path d="M57.19,17.237c-0.154,-0.011 -0.211,0.113 -0.286,0.209c0.082,0.106 0.1,0.285 0.303,0.262c0.131,-0.161 -0.191,-0.312 -0.017,-0.471" style="fill:#008ebc;fill-rule:nonzero;"/></g><g><path d="M49.421,10.621c0.171,-0.328 0.526,-0.453 0.764,-0.707c-0.135,-0.386 -0.151,-0.406 -0.433,-0.153c-0.14,0.129 -0.259,0.015 -0.386,0.041c-0.274,0.055 -0.471,0.146 -0.254,0.467c0.061,0.064 0.072,0.156 0.123,0.223c0.062,0.043 0.122,0.086 0.186,0.129" style="fill:#007cae;fill-rule:nonzero;"/></g><g><path d="M49.235,10.492c0.066,-0.129 0.123,-0.261 -0.122,-0.223c-0.045,0.064 -0.087,0.124 -0.129,0.184c0.081,0.056 0.161,0.088 0.251,0.039" style="fill:#0085b3;fill-rule:nonzero;"/></g><g><path d="M48.645,10.357c0.072,0.095 0.086,0.258 0.241,0.26c0.033,0.003 0.066,-0.103 0.098,-0.164c-0.102,-0.062 -0.199,-0.158 -0.339,-0.096" style="fill:#0085b3;fill-rule:nonzero;"/></g><g><path d="M43.72,5.35c0.035,-0.07 0.015,-0.142 -0.067,-0.169c-0.095,-0.033 -0.189,0.007 -0.248,0.087c-0.06,0.074 -0.032,0.134 0.061,0.16c0.093,0.024 0.183,0.023 0.254,-0.078" style="fill:#0093c7;fill-rule:nonzero;"/></g><g><path d="M54.917,14.569c-0.569,0.476 -0.565,0.53 -0.077,1.116c0.144,0.174 0.4,0.267 0.376,0.584c-0.008,0.162 0.199,0.17 0.343,0.187c-0.003,-0.073 -0.004,-0.145 -0.009,-0.215c0.111,-0.138 -0.162,-0.277 0.009,-0.411c0.005,-0.015 0.024,-0.044 0.021,-0.05c-0.358,-0.328 -0.391,-0.834 -0.663,-1.211" style="fill:#0079a5;fill-rule:nonzero;"/></g><g><path d="M56.034,16.011c0.067,0.023 0.124,0.048 0.129,-0.031c0.006,-0.044 -0.024,-0.102 -0.058,-0.129c-0.044,-0.037 -0.109,-0.026 -0.117,0.037c-0.004,0.041 0.033,0.091 0.046,0.123" style="fill:#0076a2;fill-rule:nonzero;"/></g><g><path d="M57.065,7.259c-0.339,-0.039 -0.523,-0.119 -0.587,0.142c-0.021,0.108 0.039,0.206 0.122,0.219c0.302,0.052 0.113,-0.312 0.465,-0.361" style="fill:#00749f;fill-rule:nonzero;"/></g><g><path d="M56.29,8.333c0.008,0.051 0.01,0.132 0.05,0.176c0.069,0.074 0.173,0.073 0.234,-0.018c0.046,-0.067 0.009,-0.144 -0.06,-0.19c-0.065,-0.045 -0.134,-0.046 -0.224,0.032" style="fill:#00749f;fill-rule:nonzero;"/></g><g><path d="M37.191,10.251c0.015,-0.544 -0.502,-0.222 -0.677,-0.463c-0.141,0.239 0.152,0.309 0.113,0.482c0.058,0.069 0.186,0.165 0.171,0.195c-0.245,0.511 0.254,0.228 0.367,0.347c0.25,-0.234 0.544,-0.207 0.893,-0.035c-0.209,-0.439 -0.675,-0.221 -0.867,-0.526" style="fill:#009ed5;fill-rule:nonzero;"/></g><g><path d="M37.464,12.665c0.157,-0.031 0.315,-0.063 0.472,-0.094c-0.22,-0.159 -0.003,-0.359 -0.012,-0.594c-0.218,0.242 -0.487,0.363 -0.46,0.688" style="fill:#009ed5;fill-rule:nonzero;"/></g><g><path d="M49.883,14.509c0.07,-0.021 0.192,-0.031 0.2,-0.066c0.041,-0.187 -0.371,-0.487 -0.444,-0.616c-0.23,-0.392 -0.605,-0.529 -0.96,-0.717c0.21,-0.327 -0.166,-0.298 -0.264,-0.44c-0.141,-0.04 -0.283,-0.055 -0.427,-0.03c-0.098,0.082 -0.236,0.133 -0.284,0.263c-0.08,0.228 -0.178,0.296 -0.404,0.119c-0.276,-0.224 -0.518,-0.119 -0.713,0.154c-0.05,0.108 -0.032,0.209 0.032,0.306c0.112,0.033 0.224,0.064 0.34,0.097c0.184,-0.09 0.324,0.114 0.502,0.074c0.321,0.06 0.527,-0.114 0.744,-0.421c-0.141,0.462 0.049,0.46 0.389,0.524c0.297,0.054 0.96,-0.187 0.848,0.602c-0.047,0.311 0.375,-0.159 0.441,0.151" style="fill:#009bca;fill-rule:nonzero;"/></g><g><path d="M45.251,12.685c0.231,0.089 0.207,0.445 0.495,0.465c0.289,-0.059 0.569,0.198 0.859,0.039c0.281,-0.573 -0.362,-0.48 -0.528,-0.733c-0.325,-0.054 -0.645,-0.085 -0.929,0.143c0.005,0.041 0.022,0.069 0.05,0.083c0.032,0.011 0.047,0.012 0.053,0.003" style="fill:#009bca;fill-rule:nonzero;"/></g><g><path d="M46.562,13.166c-0.272,-0.053 -0.54,-0.272 -0.814,-0.016c0.114,0.574 0.486,0.467 0.872,0.332c0.009,-0.084 0.02,-0.165 0.033,-0.249c0.001,-0.043 -0.014,-0.07 -0.039,-0.075c-0.027,-0.004 -0.044,-0.003 -0.052,0.008" style="fill:#009fce;fill-rule:nonzero;"/></g><g><path d="M41.207,13.169c-0.271,-0.014 -0.536,0.039 -0.792,0.127c0.186,0.16 0.28,0.518 0.567,0.449c0.222,-0.051 0.084,-0.406 0.225,-0.576" style="fill:#009ed1;fill-rule:nonzero;"/></g><g><path d="M45.251,12.685c-0.025,-0.021 -0.055,-0.045 -0.081,-0.064c-0.068,-0.13 -0.158,-0.098 -0.253,-0.035c-0.077,0.034 -0.155,0.065 -0.236,0.1c0.105,0.118 0.209,0.233 0.338,0.384c0.022,-0.196 0.053,-0.344 0.232,-0.385" style="fill:#009ecd;fill-rule:nonzero;"/></g><g><path d="M47.461,13.653c-0.192,0.131 -0.244,-0.652 -0.501,-0.075c0.151,0.122 0.311,0.197 0.501,0.075" style="fill:#009fce;fill-rule:nonzero;"/></g><g><path d="M44.917,12.586c0.082,0.011 0.169,0.021 0.25,0.032c0.287,-0.032 0.576,-0.068 0.865,-0.103c0.334,0.051 0.687,0.236 0.952,-0.148c-0.294,-0.299 -0.995,-0.184 -0.898,-0.882c-0.24,0.012 -0.478,0.029 -0.72,0.04c-0.148,0.063 -0.301,0.108 -0.466,0.075l-0.052,0.012l-0.011,0.055c-0.046,0.314 -0.382,0.651 0.08,0.919" style="fill:#00566b;fill-rule:nonzero;"/></g><g><path d="M44.837,11.666c0.021,-0.021 0.041,-0.045 0.063,-0.066c0.032,-0.065 0.109,-0.144 0.092,-0.191c-0.038,-0.109 -0.117,-0.007 -0.176,0.002c-0.131,0.024 -0.255,0.073 -0.325,0.2c0.115,0.021 0.23,0.036 0.346,0.055" style="fill:#009acc;fill-rule:nonzero;"/></g><g><path d="M51.919,14.548c0.213,-0.023 0.474,-0.335 0.619,0.109c0.011,0.042 0.29,0.171 0.317,-0.104c0.011,-0.13 0.062,-0.261 0.199,-0.159c0.457,0.333 0.32,-0.124 0.404,-0.289c-0.489,0.222 -0.639,-0.106 -0.764,-0.491c-0.248,0.05 -0.027,0.486 -0.361,0.418c-0.034,-0.006 -0.041,-0.13 -0.057,-0.202c-0.252,-0.072 -0.343,-0.451 -0.692,-0.344c-0.101,0.032 -0.115,-0.064 -0.067,-0.136c0.154,-0.252 -0.008,-0.314 -0.2,-0.391c-0.09,-0.038 -0.172,-0.086 -0.247,0c-0.173,0.19 0.164,0.204 0.132,0.351c-0.014,0.054 -0.034,0.104 -0.048,0.154c0.001,0.165 0.142,0.302 0.083,0.474c0.068,0.252 0.226,0.356 0.486,0.315c0.038,-0.001 0.084,0.034 0.125,0.05c-0.038,0.036 -0.074,0.074 -0.11,0.112c0.059,0.044 0.118,0.086 0.181,0.133" style="fill:#007bab;fill-rule:nonzero;"/></g><g><path d="M43.66,8.831c0.015,-0.085 0.027,-0.166 0.041,-0.245c-0.033,-0.287 -0.265,-0.285 -0.466,-0.327c-0.032,0.103 -0.043,0.283 -0.095,0.297c-0.181,0.046 -0.035,-0.155 -0.118,-0.207c-0.207,-0.137 -0.566,0.088 -0.591,0.378c-0.012,0.164 0.002,0.327 0.002,0.489c0.256,-0.073 0.583,0.08 0.704,-0.354c0.069,-0.247 0.34,-0.102 0.523,-0.031" style="fill:#009acf;fill-rule:nonzero;"/></g><g><path d="M43.235,8.259c0.233,-0.111 -0.143,-0.648 0.385,-0.553c-0.058,-0.243 -0.495,-0.395 -0.593,-0.188c-0.127,0.265 -0.454,0.339 -0.521,0.688c0.283,-0.239 0.53,-0.25 0.729,0.053" style="fill:#009acf;fill-rule:nonzero;"/></g><g><path d="M42.433,9.216c-0.133,-0.054 -0.261,-0.127 -0.4,-0.155c-0.083,-0.016 -0.213,0.008 -0.258,0.066c-0.068,0.087 0.013,0.176 0.109,0.214c0.214,0.083 -0.011,0.439 0.294,0.468c0.154,-0.105 -0.082,-0.236 0.049,-0.376c0.102,0.101 0.226,0.185 0.289,0.305c0.06,0.118 0.108,0.296 0.253,0.198c0.143,-0.094 0.046,-0.276 -0.062,-0.375c-0.117,-0.1 -0.344,-0.101 -0.274,-0.345" style="fill:#009dd3;fill-rule:nonzero;"/></g><g><path d="M46.301,8.19c-0.158,-0.018 -0.309,-0.061 -0.436,-0.164c-0.041,0.062 -0.086,0.124 -0.127,0.184c0.195,0.135 0.395,0.481 0.563,-0.02" style="fill:#008abe;fill-rule:nonzero;"/></g><g><path d="M43.42,6.605c-0.06,-0.058 -0.002,-0.227 -0.105,-0.196c-0.112,0.038 -0.202,0.192 -0.087,0.309c0.144,0.144 0.157,-0.023 0.192,-0.113" style="fill:#0086b9;fill-rule:nonzero;"/></g><g><path d="M43.603,7.701c0.038,0.123 0.07,0.243 0.124,0.452c0.136,-0.255 0.198,-0.396 -0.124,-0.452" style="fill:#009acf;fill-rule:nonzero;"/></g><g><path d="M51.882,9.441c0.284,0.218 -0.243,0.585 0.145,0.79c0.129,-0.209 0.177,-0.506 0.57,-0.47c-0.353,0.073 -0.28,-0.645 -0.715,-0.32" style="fill:#007dac;fill-rule:nonzero;"/></g><g><path d="M54.879,9.682c0.006,0.045 -0.006,0.109 0.022,0.139c0.046,0.046 0.111,0.018 0.123,-0.04c0.01,-0.045 -0.021,-0.099 -0.036,-0.15c-0.031,0.015 -0.063,0.026 -0.109,0.051" style="fill:#00749f;fill-rule:nonzero;"/></g><g><path d="M46.332,11.489c0.35,0.84 0.395,-0.247 0.635,-0.101c-0.219,-0.018 -0.43,0.027 -0.635,0.101" style="fill:#00566b;fill-rule:nonzero;"/></g><g><path d="M51.238,13.937c0.46,-0.242 -0.064,-0.313 -0.084,-0.471c-0.327,-0.297 -0.801,-0.108 -1.17,-0.425c-0.516,-0.446 -0.565,-0.387 -0.117,-0.889c-0.648,-0.027 -1.29,0.036 -1.929,0.177c0.077,0.1 -0.091,0.25 0.071,0.333c0.132,0.096 0.268,0.186 0.405,0.007c0.467,-0.314 0.773,0.13 1.02,0.33c0.299,0.239 0.587,0.414 0.935,0.542c0.298,0.106 0.473,0.489 0.869,0.396" style="fill:#0084b2;fill-rule:nonzero;"/></g><g><path d="M48.009,12.662c-0.034,-0.108 0.116,-0.257 -0.071,-0.334c-0.027,-0.014 -0.053,-0.021 -0.083,-0.025c-0.148,0.084 -0.309,0.063 -0.467,0.069c-0.136,-0.003 -0.268,0 -0.404,-0.005c-0.303,0.15 -0.639,0.062 -0.952,0.147c0.147,0.095 0.167,0.323 0.417,0.321c0.258,-0.003 0.09,0.213 0.112,0.331c0.032,0.021 0.063,0.046 0.092,0.068c0.181,-0.18 0.405,-0.372 0.607,-0.098c0.346,0.464 0.493,0.149 0.551,-0.14c0.029,-0.166 0.257,-0.157 0.198,-0.334" style="fill:#008bba;fill-rule:nonzero;"/></g><g><path d="M47.388,12.372c0.163,0.029 0.355,0.261 0.465,-0.069c-0.163,-0.039 -0.318,-0.01 -0.465,0.069" style="fill:#0084b2;fill-rule:nonzero;"/></g><g><path d="M50.804,9.699c0.19,-0.039 0.343,-0.09 0.269,-0.32c-0.007,-0.034 -0.1,-0.084 -0.116,-0.073c-0.131,0.093 -0.115,0.25 -0.153,0.393" style="fill:#007aaa;fill-rule:nonzero;"/></g></g></g></g></svg>