<?xml version="1.0" encoding="UTF-8" standalone="no"?><!DOCTYPE svg PUBLIC "-//W3C//DTD SVG 1.1//EN" "http://www.w3.org/Graphics/SVG/1.1/DTD/svg11.dtd"><svg width="100%" height="100%" viewBox="0 0 444 398" version="1.1" xmlns="http://www.w3.org/2000/svg" xmlns:xlink="http://www.w3.org/1999/xlink" xml:space="preserve" xmlns:serif="http://www.serif.com/" style="fill-rule:evenodd;clip-rule:evenodd;stroke-linejoin:round;stroke-miterlimit:2;"><clipPath id="_clip1"><path d="M-10.325,254.032l228.626,143.453l205.985,-308.002l-228.626,-143.453l-205.985,308.002Z" clip-rule="nonzero"/></clipPath><g clip-path="url(#_clip1)"><path d="M292.851,37.305c1.514,1.144 2.854,2.286 4.558,3.141c3.467,1.742 7.737,2.059 10.814,4.65c1.531,1.29 2.494,3.295 2.857,5.202c0.271,1.415 -0.186,2.071 -1.326,0.544c-0.558,-0.75 -0.963,-1.597 -1.527,-2.345c-0.64,-0.847 -1.444,-1.238 -2.295,-1.826c-0.375,-0.262 -0.48,-0.685 -0.784,-1.039c-1.486,-1.742 -3.832,-2.032 -5.906,-2.712c-1.042,-0.344 -2.106,-0.748 -3.097,-1.261c-1.417,-0.733 -2.691,-1.696 -3.556,-3.035c-0.425,-0.662 -1.054,-1.312 -1.367,-2.025c0.625,-0.314 1.194,0.379 1.629,0.706Zm13.394,19.741c-0.79,0.082 -1.765,0.327 -2.458,0.564c-0.232,0.081 -0.922,0.028 -0.837,-0.298c0.047,-0.182 0.45,-0.339 0.605,-0.421c0.406,-0.212 0.827,-0.397 1.261,-0.554c0.69,-0.25 1.491,-0.502 2.238,-0.43c0.195,0.018 0.594,0.204 0.692,0.381c0.448,0.809 -1.145,0.717 -1.501,0.758Zm-20.985,46.886c0.566,0.244 1.677,0.61 1.844,0.97c0.186,0.402 -0.229,1.239 -0.283,2.219c-0.043,0.839 0.293,2.083 -0.57,2.076c-1.433,-0.011 -3.154,-0.471 -4.504,-0.913c-5.831,-1.914 -9.349,-2.553 -16.72,-3.165c-2.908,-0.243 -5.536,-0.567 -2.805,-1.566c0.48,-0.176 0.963,-0.345 1.443,-0.523c1.031,-0.383 2.05,-0.808 3.014,-1.332c1.219,-0.664 2.464,-1.316 3.59,-2.123c1.508,-1.085 1.911,-0.939 3.504,-0.15c3.817,1.9 7.656,2.847 11.487,4.507Zm27.141,-35.619c2.317,1.682 2.767,1.272 -0.14,2.673c-1.766,0.851 -1.115,0.531 -1.091,-1.066c0.009,-0.552 -0.265,-1.22 -0.167,-1.664c0.208,-0.938 0.963,-0.257 1.398,0.057Zm-0.162,8.509c1.274,0.535 2.472,0.871 3.702,1.236c1.902,0.57 4.348,0.395 6.667,-0.049c2.354,-0.456 5.223,-1.107 7.605,-1.53c2.538,-0.448 3.042,-0.78 1.783,0.997c-4.437,6.265 -6.617,10.367 -5.123,18.491c0.17,0.928 0.662,1.972 0.606,2.895c-0.06,0.969 -1.783,0.364 -2.424,0.2c-2.044,-0.526 -5.53,-1.405 -6.973,-3.039c-0.901,-1.021 -1.308,-2.382 -2.375,-3.294c-1.151,-0.979 -2.618,-1.376 -3.884,-2.17c-0.501,-0.315 -0.932,-0.605 -1.224,-1.115c-0.338,-0.597 -0.256,-0.935 -0.577,-0.094c-0.366,0.957 -0.024,2.338 0.344,3.155c0.467,1.042 1.157,1.957 1.831,2.877c0.445,0.606 1.432,1.577 1.415,2.36c-0.008,0.498 -0.652,0.958 -1.07,0.906c-0.704,-0.087 -1.805,-1.827 -2.413,-2.728c-1.323,-1.952 -1.013,-3.133 -3.878,-4.627c-0.289,-0.153 -1.158,-0.654 -1.237,-0.9c-0.399,-1.236 2.21,-4.485 2.738,-5.519c0.826,-1.617 1.947,-4.756 2.389,-6.461c0.708,-2.782 0.634,-2.198 2.098,-1.591Zm-2.863,54.519c2.154,-1.456 4.451,-2.996 6.136,-4.97c0.564,-0.661 5.248,-4.452 6.267,-2.943c0.54,0.806 -2.908,6.185 -3.529,6.918c-3.277,3.865 -7.183,6.335 -11.213,9.315c-4.74,3.501 -10.641,6.946 -13.774,12.018c-0.653,1.054 -5.71,4.321 -5.247,1.495c0.498,-3.046 1.158,-6.191 0.589,-9.407c-0.396,-2.205 -0.892,-2.128 1.352,-3.266c2.83,-1.437 5.753,-3.367 8.149,-5.124c1.519,-1.112 2.064,-1.808 4.001,-1.83c1.933,-0.021 5.111,-0.756 7.269,-2.206Zm8.608,-11.831c0.474,-0.418 1.206,-0.663 1.937,-0.8c0.486,-0.092 0.972,-0.136 1.383,-0.15c2.62,-0.093 0.765,0.953 -1.788,1.878c-0.49,0.177 -1.375,0.536 -1.86,0.196c-0.434,-0.305 0.053,-0.88 0.328,-1.124Zm4.666,5.824c0.331,-0.416 0.601,-0.875 0.944,-1.286c0.157,-0.191 0.388,-0.537 0.635,-0.633c0.63,-0.237 0.465,1.219 0.373,1.475l-3.02,3.318c-0.252,0.263 -0.622,0.611 -0.578,0.073c0.091,-1.063 1.008,-2.144 1.646,-2.947Zm-39.331,48.389c-1.856,1.016 -4.953,2.607 -7.409,5.449c-1.222,1.414 -2.568,3.488 -2.555,2.469c0.004,-1.228 0.795,-2.286 1.504,-3.239c1.849,-2.485 3.818,-3.444 7.102,-6.936c0.9,-0.955 1.953,-1.891 2.711,-2.955c2.4,-3.369 1.029,3.913 -1.353,5.212Zm-6.752,-8.398c3.547,-1.562 3.386,-0.539 0.67,1.001c-3.997,2.266 -2.007,-0.409 -0.67,-1.001Zm-0.852,9.694c-0.469,0.334 -0.962,0.585 -1.474,0.633c-1.658,0.157 -3.791,0.57 -5.52,0.924c-3.454,0.705 -0.956,-0.532 1.659,-4.106c1.576,-2.15 4.279,-3.254 6.507,-4.654c1.332,-0.828 3.223,-1.576 4.835,-2.487c0.667,-0.381 1.502,-1.107 1.88,-0.863c0.596,0.389 0.13,1.717 -0.107,2.284c-1.093,2.598 -3.762,4.819 -5.903,6.632c-0.541,0.458 -1.178,1.141 -1.877,1.637Zm-5.802,-10.222c-2.125,-0.193 -7.4,-0.894 -4.051,-1.419c0.952,-0.146 1.917,-0.47 2.929,-0.642c2.01,-0.342 3.619,-0.521 5.758,-0.891c0.212,-0.037 2.658,-0.341 2.796,-0.163c0.332,0.407 -0.331,0.541 -0.515,1.003c-0.31,0.746 0.337,1.165 -0.82,1.56c-0.993,0.338 -2.09,0.104 -3.241,0.127c-0.903,0.015 -1.945,0.505 -2.856,0.425Zm31.731,-105.644c0.41,0.02 0.582,0.195 0.259,0.462c-0.726,0.606 -1.548,1.465 -2.381,1.952c-0.841,0.493 -2.057,0.12 -2.956,-0.025c-4.625,-0.745 -0.744,-1.712 1.735,-2.046c1.049,-0.142 2.25,-0.4 3.343,-0.343Zm-4.351,-9.663c0.446,-0.1 0.892,-0.228 1.325,-0.37c1.089,-0.357 2.117,-0.873 3.216,-1.202c0.752,-0.224 1.825,-0.652 2.615,-0.583c0.482,0.047 1.156,0.769 1.579,1.165c1.165,1.095 2.325,2.717 2.844,4.227c0.096,0.281 0.315,0.93 0.105,1.208c-0.357,0.466 -1.331,-0.104 -1.724,-0.254c-0.913,-0.347 -1.809,-0.699 -2.703,-1.088c-2.825,-1.225 -4.391,-1.547 -7.509,-2.345c-1.539,-0.388 -0.918,-0.487 0.252,-0.758Zm-1.655,1.902c0.587,0.067 2.528,0.319 5.986,1.666c3.049,1.189 2.566,1.608 0.682,1.331c-1.466,-0.211 -3.003,-0.56 -4.398,-1.056c-0.795,-0.283 -1.612,-0.504 -2.322,-0.962c-0.455,-0.294 -2.496,-1.267 0.052,-0.979Zm26.712,82.48c1.468,-1.825 3.009,-3.637 4.56,-5.396c1.308,-1.485 1.239,-1.266 1.582,-0.074c0.357,1.236 0.831,3.234 0.848,3.424c0.065,0.641 -0.275,1.675 -0.493,2.526c-0.799,3.137 -1.823,6.212 -2.596,9.352c-0.641,2.614 -0.406,6.007 -1.527,8.445c-1.05,2.224 -0.664,-3.207 -0.899,-5.387c-0.448,-4.135 -1.09,-6.256 -1.89,-9.314c-0.429,-1.646 -0.71,-2.18 0.415,-3.576Zm-142.284,81.002l-0.585,2.293c-0.25,0.142 -0.474,-0.282 -0.503,-0.446c-0.111,-0.6 0.252,-1.423 0.441,-1.981c0.214,-0.631 0.37,-1.768 0.939,-2.18l-0.292,2.314Zm-2.82,7.109c0.69,0.605 2.473,0.599 2.841,1.839c0.125,0.408 -0.129,1.136 -0.292,1.457c-0.815,1.589 -2.727,3.286 -3.343,4.945c-0.248,0.673 -0.246,1.628 -0.856,1.786c-0.305,-0.731 -0.064,-1.842 -0.166,-2.853c-0.19,-1.87 -0.524,-3.615 -0.029,-5.215c0.164,-0.545 0.542,-2.748 1.424,-2.531c0.191,0.046 0.237,0.404 0.421,0.572Zm12.369,-24.764l0.448,-2.258l2.458,-6.18c0.478,-1.439 0.98,-2.762 1.822,-4.041c0.049,-0.074 1.044,-1.286 1.135,-1.013c0.254,0.755 0.098,1.646 -0.025,2.453c-0.18,1.165 -0.115,2.296 -0.59,3.41c-0.848,1.986 -1.473,2.901 -3.18,5.452c-0.515,0.772 -1.478,1.688 -2.068,2.177Zm6.626,-19.14c0.39,-0.839 1.532,0.015 1.552,0.963c-0.878,0.719 -1.858,-0.302 -1.552,-0.963Zm-4.129,5.095c-3.858,3.494 -7.865,5.597 -12.44,8.137c-3.031,1.684 -6.337,3.566 -8.977,5.779c-2.262,1.891 -3.625,3.849 -4.604,6.638c-1.06,3.027 -1.009,7.063 0.801,9.839c0.097,0.146 0.212,0.314 0.328,0.494c-0.003,0.002 -0.008,0.003 -0.012,0.005c-0.52,0.265 -1.034,0.538 -1.602,0.681c-1.131,0.287 -2.346,0.039 -3.475,-0.137c-1.754,-0.276 -3.463,-0.814 -5.178,-1.264c-1.564,-0.41 -3.078,-1.019 -4.68,-1.296c-2.088,-0.36 -4.097,0.103 -6.168,-0.052c-0.892,-0.069 -2.636,-0.589 -1.599,0.813c0.246,0.336 0.618,0.515 0.828,0.898c0.395,0.708 0.416,1.545 0.537,2.326c0.754,4.83 6.683,7.172 11.174,6.81c1.051,-0.084 2.104,-0.352 3.121,-0.753c0.615,-0.242 0.686,-0.06 0.101,0.29c-1.567,0.941 -3.275,1.634 -5.173,1.948c-4.599,0.759 -8.602,2.417 -12.983,3.825c-4.122,1.324 -8.149,3.227 -12.434,4.015c-0.958,0.179 -3.038,0.929 -3.566,0.654c-0.305,-0.154 -1.616,-2.299 -1.34,-2.59c0.483,-0.514 2.02,1.337 2.493,0.393c0.166,-0.328 -0.32,-1.365 -0.685,-1.849c-0.36,-0.477 -1.192,-0.827 -1.73,-0.885c-0.315,-0.032 -0.918,0.161 -1.22,0.004l-1.681,-1.676c-1.41,-1.532 -2.501,-4.507 -3.349,-6.695c-0.687,-1.783 -1.522,-3.552 -2.296,-5.434c-0.981,-2.393 -1.992,-5.812 -3.138,-8.187c-0.313,-0.65 -0.717,-1.439 -0.831,-1.851c-0.344,-1.218 0.363,-0.442 0.672,-0.095c2.586,2.887 5.277,3.441 5.437,3.02c0.102,-0.284 -0.667,-0.749 -1.085,-1.038c-2.322,-1.592 -4.878,-2.83 -5.14,-4.484c-0.051,-0.298 0.441,-1.226 0.679,-1.702c1.516,-3.057 3.477,-6.069 5.349,-8.934c2.694,-4.128 5.67,-8.15 9.084,-11.755c0.004,-0.003 3.215,-2.968 3.215,-2.968c0.237,-0.084 0.402,-0.003 0.446,0.258c0,0 -0.935,2.341 -1.199,5.695c-0.149,1.902 0.167,3.764 -0.23,5.653c-0.383,1.836 -1.127,3.6 -1.259,5.485c-0.181,2.616 0.541,5.181 2.636,6.955c1.342,1.139 4.27,1.812 4.27,1.812c0.234,0.29 -0.087,1.112 -0.064,1.636c0.017,0.491 0.036,1.386 0.225,1.642c0.441,0.591 2.22,0.2 2.946,-0.164c1.128,-0.564 1.92,-2.043 2.888,-3.063c3.083,-3.247 8.334,-4.705 12.238,-6.785c2.644,-1.415 5.534,-2.787 8.209,-4.108c5.482,-2.7 11.699,-5.119 17.33,-7.998c1.571,-0.803 3.302,-1.837 5.146,-1.099c1.225,0.49 1.574,1.219 3.091,1.279c1.257,0.052 2.784,-0.249 3.886,-0.846c0.832,-0.451 1.493,-1.137 2.535,-1.158c0.011,1.087 -0.934,1.347 -1.527,1.882Zm-80.521,22.898c1.426,3.237 2.841,6.884 4.055,10.206c-0.988,-0.394 -1.346,-1.682 -2.15,-2.924c-0.45,-0.692 -1.097,-1.312 -1.413,-1.864c-0.565,-0.971 -1.452,-4.714 -0.492,-5.418Zm0.915,36.327c-1.44,1.358 -2.052,2.646 -3.289,3.873c0.028,0.063 -0.053,0.082 -0.088,-0.027c-0.04,0.005 -0.104,-0.017 -0.114,-0.089c-0.071,-0.619 0.28,-1.578 0.374,-2.333c0.384,-3.105 0.654,-6.34 0.412,-9.46c-0.42,-5.408 -2.871,-10.403 -2.821,-15.933c0.007,-1.474 -0.591,-3.034 -0.52,-4.154c0.032,-0.534 0.44,-1.419 1.054,-1.67c0.589,-0.244 1.891,0.506 2.86,-0.192c0.063,0.689 0.309,0.911 0.257,1.413c-0.078,0.821 -0.856,1.465 -1.268,2.118c-3.653,5.812 0.443,11.728 2.74,17.086c0.875,2.046 0.834,4.355 1.406,6.121c0.242,0.737 0.678,1.326 0.514,1.791c-0.161,0.435 -1.032,0.999 -1.517,1.456Zm17.05,-69.233c-0.437,0.168 -1.258,0.087 -1.75,0.101c-0.306,0.013 -1.619,0.241 -1.197,-0.393c0.185,-0.277 0.644,-0.484 0.942,-0.626c0.691,-0.336 1.43,-0.575 2.105,-0.941c0.687,-0.374 1.329,-0.824 2.005,-1.218c0.434,-0.251 1.3,-0.916 1.887,-0.708c0.048,0.016 0.089,0.038 0.134,0.066c0.871,0.564 -0.816,1.573 -1.172,1.81c-0.964,0.642 -1.801,1.469 -2.954,1.909Zm-1.814,-2.929c-0.355,-0.009 -0.194,-0.429 -0.118,-0.731l1.091,-1.743c0.616,-0.294 5.792,-2.317 5.851,-1.29c0.005,0.4 -0.924,0.759 -1.209,0.899c-0.526,0.256 -1.072,0.477 -1.597,0.738c-0.922,0.462 -1.761,1.067 -2.672,1.552c-0.343,0.183 -0.939,0.588 -1.346,0.575Zm-1.622,-3.659c-0.63,-0.11 -1.412,-0.616 -2.165,-0.892c-3.882,-1.417 -4.488,-1.917 -0.139,-1.467c2.08,0.214 3.7,-0.015 5.633,0.535c1.788,0.502 2.251,0.801 0.441,1.286c-1.225,0.325 -2.779,0.717 -3.77,0.538Zm12.563,3.318c0.676,-0.361 1.64,-0.4 1.86,-0.017c0.153,0.257 -0.181,1.177 -0.234,1.576c-0.339,2.529 -0.49,5.132 -0.782,7.677c-0.02,0.179 -0.23,1.153 0.177,1.243c0.617,0.143 1.724,-2.275 2.247,-2.908c1.56,-1.892 3.687,-4.084 3.558,-6.719c-0.069,-1.413 -1.038,-1.484 -1.73,-1.417c-0.837,0.079 -1.462,-0.446 -0.706,-0.657c0.669,-0.188 1.439,-0.082 2.122,-0.079c10.817,0.979 13.548,1.397 13.548,1.397c5.525,0.348 16.975,3.105 18.87,3.581c5.205,1.307 6.53,0.924 10.252,1.759c0.334,0.076 2.671,0.816 1.924,0.884c-0.496,0.044 -1.577,-0.224 -1.943,-0.29c-1.884,-0.36 -3.875,-0.168 -6.132,0.71c-1.077,0.42 -2.166,1.318 -3.645,1.668c-1.93,0.457 -4.855,-0.58 -6.862,-0.666c-2.705,-0.114 -5.481,-0.008 -8.107,0.68c-5.082,1.333 -10.321,3.269 -14.1,6.941c-3.005,2.919 -5.227,7.826 -6.517,11.695c-0.677,2.064 -0.92,2.027 -0.203,-2.598c0.705,-4.553 -3.5,-14.517 -4.113,-16.971c-0.406,-1.647 -0.892,-3.773 -0.844,-5.121c0.034,-1.019 0.312,-1.813 1.36,-2.368Zm139.139,-168.043c-1.71,2.086 -4.314,4.445 -4.59,7.258c-0.538,5.507 3.601,10.285 6.614,14.549c1.037,1.466 2.249,2.65 2.959,4.292l-4.854,-3.008c-1.626,-0.889 -3.422,-1.716 -5.342,-1.949c-2.814,-0.342 -6.116,-0.242 -9.58,1.314c-2.103,0.945 -5.531,1.651 -4.398,3.962c1.184,2.418 4.285,3.849 6.101,4.673c5.574,2.531 11.221,4.883 16.968,7.021c2.133,0.794 4.252,1.144 2.029,1.793c-0.704,0.203 -1.449,0.501 -2.199,0.376c0,0 -6.935,-3.508 -17.847,-6.618c-8.318,-2.362 -17.84,-2.815 -26.425,-1.927c-2.252,0.233 -5.303,0.228 -7.311,1.393c-1.223,0.709 -1.848,2.561 -2.005,3.848c-0.379,3.081 -0.656,6.138 1.582,8.689c2.624,2.977 6.354,4.591 10.159,5.657c4.708,1.318 9.632,2.506 14.551,2.687c2.815,0.105 5.76,-0.486 8.58,-0.49c1.178,-0.002 1.745,0.297 1.128,1.334c-0.606,1.02 -1.282,2.286 -1.834,2.573c-0.661,0.341 -2.383,-0.201 -3.12,-0.266c-4.65,-0.414 -9.859,-0.539 -13.735,2.014c-1.002,0.663 -2.153,1.696 -1.86,2.99c0.317,1.39 2.453,2.608 3.587,3.319c1.144,0.719 1.653,0.946 0.2,1.254c-2.918,0.62 -5.767,1.819 -8.053,3.703c-2.414,1.989 -3.643,4.848 -4.277,7.798c-0.584,2.714 0.019,3.557 1.16,6.209c0.349,0.804 -1.651,2.284 -2.61,3.435c-0.941,1.124 -1.757,2.384 -2.286,3.744c-1.051,2.701 -0.734,5.605 1.802,7.403c2.656,1.878 6.145,2.423 9.364,2.525c1.41,0.046 2.901,-0.168 4.272,0.241c1.768,0.529 1.329,1.575 1.435,3.133c0.205,3.006 1.985,6.138 4.117,8.269c2.889,2.89 7.605,4.783 11.621,5.654c1.956,0.432 3.792,0.565 5.798,0.973c0.659,0.134 1.59,0.09 1.912,0.522c0.319,0.426 0.145,1.425 -0.214,1.769c-0.668,0.649 -2.253,1.112 -3.236,1.481c-0.851,0.323 -2.508,1.752 -3.269,1.704c-0.272,-0.015 -0.816,-0.651 -1.088,-0.894c-5.094,-4.577 -11.886,-8.679 -19.059,-6.301c-0.612,0.203 -1.883,0.321 -2.329,0.722c-0.517,0.465 -0.229,1.245 -0.313,1.867c-0.287,2.114 -1.481,3.936 -1.945,6.012c-0.451,2.015 -0.386,4.193 0.755,5.996c3.094,4.885 9.073,8.907 14.153,11.669c1.06,0.578 1.867,1.519 2.54,2.711c0.225,0.398 -0.327,0.957 -0.669,0.686c-1.949,-1.568 -3.99,-2.916 -6.048,-4.135c-5.638,-3.343 -11.826,-6.413 -18.071,-8.541c-2.626,-0.893 -5.697,-1.37 -8.462,-1.704c-5.803,-0.701 -11.199,0.068 -16.397,2.69c-3.669,1.86 -5.733,5.282 -7.944,8.505c-0.751,1.093 -1.619,2.202 -1.782,3.547c-0.386,3.169 -0.086,6.762 1.297,9.726c1.554,3.335 4.442,6.311 7.432,8.504c1.496,1.1 3.087,2.07 4.724,2.962c0.329,0.18 0.671,0.338 1.007,0.507c0.237,0.118 1.019,0.334 0.811,0.705c-0.112,0.192 -0.622,0.262 -0.819,0.324l-5,1.467c-1.679,0.469 -4.135,1.401 -5.804,0.496c-1.187,-0.652 -1.141,-3.255 -1.883,-4.58c-0.246,-0.453 -0.714,-0.755 -0.906,-1.118c-0.284,-0.549 0.094,-1.112 -0.519,-1.506c-1.936,1.793 0.959,5.236 2.14,7.319c0.097,0.174 -3.205,-0.037 -3.379,-0.061c-1.372,-0.189 -2.783,-0.438 -4.053,-1.004c-5.225,-2.321 -8.719,-7.553 -14.035,-10.045c-2.654,-1.246 -5.393,-1.469 -8.195,-2.202c-2.191,-0.574 -5.277,-1.544 -7.554,-0.971c-2.024,0.503 -3.148,2.186 -3.049,3.485c0.109,1.384 1.359,2.403 1.954,3.85c0.062,0.15 -3.855,-0.502 -4.17,-0.547c-4.372,-0.591 -8.874,-0.981 -13.197,-1.41c-2.053,-0.202 -4.002,-0.865 -5.979,-1.403c-1.578,-0.432 -3.412,-0.588 -4.849,-1.411c-3.782,-2.166 -7.445,-4.059 -9.647,-7.905c-1.984,-3.465 -2.708,-7.457 -4.211,-11.115c-2.336,-5.688 -6.604,-8.38 -12.945,-8.339c-8.29,0.053 -4.885,9.397 -2.104,13.568c1.875,2.812 4.734,4.678 7.865,5.962c2.796,1.144 5.833,1.062 8.646,2.042c2.118,0.736 4.147,1.878 6.096,3.086c1.106,0.685 2.374,1.223 3.292,2.157c0.546,0.558 0.879,1.219 -0.201,1.217c-1.063,0.001 -2.171,-0.165 -3.173,-0.514c-0.482,-0.169 -0.853,-0.551 -1.295,-0.734c-2.272,-0.939 -4.74,-1.45 -7.019,-2.437c-5.449,-2.357 -10.838,-5.071 -16.38,-7.287c-4.963,-1.985 -8.961,-2.877 -14.342,-3c-1.386,-0.032 -4.155,-0.6 -5.622,0.28c-0.871,0.521 -0.878,1.393 -1.229,1.679c-0.687,0.57 -0.958,-0.08 -2.614,-0.831c-1.967,-0.894 -5.347,-0.865 -3.291,0.476c1.503,0.978 3.113,2.158 4.272,3.583c2.235,2.751 4.821,5.224 7.083,6.691c-0.937,1.008 -2.842,0.539 -3.277,2.443c-0.357,1.576 0.926,3.045 2,4.064c1.705,1.617 3.604,3.092 5.697,4.209c2.182,1.162 4.558,1.918 6.866,2.801c0.669,0.257 1.482,0.376 1.905,0.947c-2.984,1.057 -5.731,2.522 -8.78,3.387c-4.451,1.269 -9.052,3.204 -12.997,5.669c-2.66,1.665 -5.655,3.221 -8.518,4.523c-1.599,0.729 -4.546,1.179 -5.357,2.931c-1.222,2.653 1.447,3.188 3.321,3.652c1.722,0.429 8.016,-0.658 9.011,0.614c0.376,0.491 -1.526,4.295 -1.678,5.065c-0.359,1.797 -0.478,4.078 1.099,5.383c2.976,2.467 8.766,1.939 12.352,2.296c0.434,0.05 1.656,-0.039 1.652,0.432c0,0.368 -2.034,1.4 -2.395,1.583c-1.563,0.8 -3.102,1.635 -4.627,2.5c-2.037,1.155 -4.041,2.362 -6.027,3.599c-1.906,1.192 -3.707,2.57 -5.903,3.231c-0.508,0.153 -0.957,0.477 -1.487,0.563c-0.445,0.072 -0.947,-0.047 -1.388,-0.123c-1.176,-0.197 -2.324,-0.526 -3.443,-0.925c-2.614,-0.938 -4.526,-3.543 -6.456,-5.332c-2.437,-2.261 -4.96,-4.518 -7.858,-6.285c-5.925,-3.608 -14.343,-7.63 -21.003,-3.379c-0.77,0.492 -1.451,1.096 -2.151,1.671c-0.66,0.537 -1.756,0.67 -2.299,1.273c-0.501,0.554 0.618,2.608 0.785,3.282c1.535,6.141 6.087,10.511 12.851,12.227c6.915,1.761 13.651,0.273 20.432,-0.255c1.517,-0.117 2.973,-0.161 4.511,-0.907c0.557,-0.266 1.246,-0.748 1.778,-0.865l3.221,0.651c0.544,0.669 -1.947,1.91 -2.372,2.191c-1.172,0.776 -2.346,1.553 -3.523,2.326c-2.069,1.358 -4.31,3.097 -6.641,3.994c-0.732,0.283 -1.52,0.39 -2.211,0.779c-0.429,0.243 -0.662,0.804 -1.099,0.989c-0.293,0.122 -0.714,0.03 -1.173,0.115c-2.209,0.405 -4.43,1.528 -6.653,2.14c-1.521,0.417 -2.703,1.021 -4.266,0.555c-2.239,-0.667 -4.405,-0.958 -6.759,-1.02c-2.227,-0.06 -4.517,0.091 -6.699,0.545c-2.246,0.467 -4.352,1.429 -6.657,1.651c-5.517,0.534 -11.414,0.066 -16.94,-0.259c-0.617,-0.036 -2.383,-0.492 -2.558,-0.227c-0.316,0.472 0.407,2.317 0.356,2.976c-0.083,1.072 -0.449,2.124 -1.014,3.043c-0.885,1.434 -1.227,2.297 -0.248,3.832c0.74,1.16 1.828,2.08 2.663,3.174c0.962,1.258 1.753,2.626 2.644,3.931c2.571,3.768 7.516,4.16 11.744,3.552c2.362,-0.337 4.804,-1.302 7.099,-2.409c3.01,-1.453 5.83,-3.618 8.195,-5.916c3.029,-2.943 5.549,-6.383 8.476,-9.314c1.656,-1.658 4.453,-2.534 6.595,-3.297c0.653,-0.231 2.021,-0.915 2.252,-0.404c0.152,0.342 -0.135,0.394 -0.485,0.782c-0.731,0.82 -0.997,1.734 -1.65,2.361c-1.767,1.687 -4.099,2.656 -5.919,4.273c-1.921,1.706 -2.921,4.169 -4.122,6.281c-2.633,4.638 -4.085,9.954 -5.755,14.965c-0.865,2.595 -1.241,5.411 -0.896,8.129c0.316,2.519 0.411,5.084 1.25,7.51c0.843,2.494 2.455,2.878 4.929,2.434c2.314,-0.417 4.627,-1.424 6.283,-3.076c1.977,-1.972 3.012,-4.834 3.996,-7.366c1.041,-2.675 1.874,-5.421 2.649,-8.178c1.383,-4.919 2.24,-10.531 2.299,-15.637c0.012,-0.97 -0.664,-2.807 -0.214,-3.659c0.335,-0.625 1.063,-0.79 1.452,-1.15c1.4,-1.294 1.348,-3.073 1.158,-4.855c-0.063,-0.58 -0.013,-1.207 -0.019,-1.804c-0.011,-0.858 1.627,-2.07 2.127,-2.716c1.697,-2.193 4.857,-3.825 7.125,-5.42l6.652,-4.561c0.312,-0.162 0.66,-0.251 0.969,-0.423l3.634,-2.475c1.337,-0.827 2.68,-1.644 4.031,-2.452c4.072,-2.437 8.192,-4.794 12.3,-7.174c3.492,-2.027 7.246,-3.949 10.981,-5.513c0.722,-0.298 3.238,-1.654 3.672,-1.328c0.417,0.319 -0.265,1.893 -0.374,2.331c-0.206,0.841 -0.35,1.778 -0.46,2.302c-0.33,1.616 -0.473,3.313 -1.321,4.508c-0.467,0.66 -1.198,1.224 -1.732,1.908c-3.68,4.711 -7.899,8.984 -11.711,13.589c-2.292,2.763 -3.816,5.344 -5.249,8.259c-1.454,2.959 -1.827,6.073 -2.995,9.039c-0.433,1.092 -1.839,2.146 -3.014,3.121c-0.489,0.411 -3.219,1.925 -2.936,2.53c0.257,0.552 1.957,-0.163 2.6,-0.423c1.153,-0.464 1.623,-0.796 2.471,-1.13c0.152,3.022 -0.812,6.091 -0.268,9.464c0.313,1.939 1.005,4.58 2.752,5.925c1.174,0.904 2.863,-0.208 4.616,-0.718c3.394,-0.982 6.433,-2.247 9.577,-3.82c3.057,-1.531 4.865,-3.999 6.422,-6.01c0.548,-0.708 0.831,-1.758 1.675,-2.022c0.548,0.616 -0.881,2.206 -0.086,2.48c0.59,0.203 1.366,-0.61 1.832,-0.972c0.633,-0.502 1.05,-0.866 1.452,-1.296c2.301,-2.467 4.165,-4.462 5.95,-6.975c0.222,-0.313 0.797,-1.391 1.251,-1.41c0.181,-0.01 1.585,1.258 1.688,1.528c0.144,0.396 -0.226,1.165 -0.33,1.549c-0.376,1.465 -1.272,3.324 -1.524,4.529c-0.561,2.666 0.881,4.359 2.933,5.845c2.589,1.872 5,1.294 7.932,1.945c1.513,0.336 3.113,2.13 4.803,1.288c1.256,-0.625 1.242,-2.59 2.287,-3.417c1.181,-0.93 2.624,-1.291 3.655,-2.429c1.975,-2.174 3.104,-6.508 2.138,-9.142c-0.166,-0.452 -0.818,-1.349 -0.666,-1.65c0.558,-1.114 2.747,-1.319 3.826,-1.545c3.477,-0.73 7.089,-2.494 9.905,-4.581c2.333,-1.729 3.956,-4.111 5.848,-6.25c2.847,-3.219 3.811,-7.498 6.157,-11.002c0.755,-1.13 1.69,-2.406 2.569,-3.553c0.589,-0.765 1.504,-2.41 2.578,-2.563c0.317,-0.046 0.669,0.025 0.984,0.048c1.433,0.109 2.648,-0.993 3.983,-0.879c0.513,0.042 0.953,0.399 0.645,0.903c-0.358,0.589 -1.088,0.518 -1.681,0.471c-1.869,-0.155 -3.677,1.191 -4.759,2.525l-1.342,1.269c-0.499,0.614 1.479,0.555 1.734,0.556l3.834,0.478c0.666,0.935 -0.869,2.442 -1.612,3.178c-0.411,0.409 -1.043,0.826 -1.603,1.288c-1.588,1.327 -3.156,2.738 -4.575,4.048c-3.67,3.387 -7.664,7.095 -9.89,11.569c-1.373,2.761 -2.596,5.59 -4.731,7.913c-2.009,2.181 -4.122,4.002 -5.05,6.874c-0.843,2.608 -0.781,5.445 -0.133,8.089c0.458,1.873 1.904,8.124 4.656,8.047c3.481,-0.099 6.75,-2.395 9.246,-4.648c7.903,-7.122 12.338,-16.733 12.338,-16.733c0.159,1.471 -0.011,2.793 0.109,4.205c0.974,11.111 5.726,11.903 13.319,15.171c0.729,0.316 7.142,3.201 7.634,2.509c0.25,-0.347 -0.872,-1.086 -1.074,-1.462c-0.948,-1.764 0.039,-4.804 0.195,-6.702c0.215,-2.573 0.296,-5.229 -0.428,-7.742c-0.133,-0.465 -1.585,-6.043 -1.348,-6.026c1.329,0.099 2.74,0.317 4.315,-0.302c1.52,-0.597 3.749,-1.87 4.726,-3.144c2.18,-2.844 -1.057,-7.128 -3.647,-8.931c-1.908,-1.32 -2.1,-3.772 -3.157,-6.156c-1.79,-4.043 -4.277,-8.563 -8.264,-10.953c-1.138,-0.682 -2.471,-1.091 -3.324,-2.152c-0.961,-1.198 -0.543,-2.203 -0.424,-3.225c0.281,-2.389 0.606,-5.02 1.966,-7c1.149,-1.674 2.533,-3.185 3.681,-4.861c1.257,-1.829 2.42,-3.716 3.706,-5.525c0.692,-0.97 1.705,-2.081 2.398,-3.188c0.139,-0.227 0.525,-1.054 0.895,-0.967c0.462,0.102 0.222,0.972 0.175,1.383c-0.18,1.577 -0.126,3.151 0.004,4.73c0.256,3.119 1.515,8.718 5.533,9.148c1.278,0.136 2.136,-1.435 2.655,-2.328c1.12,-1.932 2.108,-4.021 2.182,-6.273c0.046,-1.393 -0.182,-2.778 -0.22,-4.167c-0.026,-1.091 -0.31,-2.425 0.005,-3.475c0.47,-1.572 1.26,-2.4 0.693,-4.124c-1.016,-3.078 -3.17,-5.867 -1.536,-9.21c0.56,-1.14 2.172,-1.6 3.806,-2.229c3.099,-1.189 6.204,-1.913 9.621,-3.143c0.556,-0.205 1.601,-0.749 1.81,-0.273c0.114,0.257 -0.029,0.185 -0.598,0.55c-3.848,2.505 -7.191,6.2 -9.367,10.144c-1.695,3.078 -1.792,6.889 -1.245,10.261c0.242,1.489 0.723,2.539 1.878,3.396c0.937,0.695 2.027,1.224 2.955,1.926c1.956,1.476 3.837,3.045 5.852,4.017c4.29,2.075 9.708,2.089 14.138,0.424c1.27,-0.477 2.497,-1.149 3.576,-1.957c0.252,-0.188 1.412,-1.467 1.736,-1.174c0.105,0.093 0.064,0.626 0.082,0.758c0.337,2.488 3.258,3.847 5.18,5.079c0.895,0.575 2.06,1.265 2.912,2.572c0.545,0.843 1.766,3.531 2.569,3.638c0.544,0.069 1.583,-0.625 2.26,-0.831c2.405,-0.726 4.166,-1.809 6.159,-3.302c4.147,-3.106 7.392,-8.326 9.503,-12.932c0.651,-1.445 1.249,-2.912 1.916,-4.354c0.771,-1.71 1.281,-2.165 0.995,-0.316c-0.43,2.777 -0.48,5.882 -0.747,8.779c-0.853,9.253 5.251,18.738 13.944,22.487c1.531,0.66 3.261,1.258 5.108,0.73c0.817,1.884 0.913,3.87 1.794,5.875c1.498,3.413 7.028,12.936 12.248,10.922c1.128,-0.433 1.93,-1.821 2.537,-2.766c1.962,-3.048 4.923,-5.521 6.712,-8.647c5.716,-9.99 0.684,-24.428 -3.497,-34.105c-1.875,-4.341 -4.531,-8.055 -6.846,-11.647c7.357,-3.744 14.341,-7.77 18.588,-14.989c0.899,-1.527 1.681,-3.047 2.111,-4.664c0.527,-1.947 1.042,-2.367 0.891,0.64c-0.105,2.287 -0.171,4.688 0.247,7.136c0.572,3.334 1.884,6.907 3.178,10.473c1.822,5.024 5.903,7.098 10.866,8.834c1.211,0.421 3.693,0.967 4.919,0.192c2.671,-1.689 4.354,-5.348 5.885,-7.993c4.957,-8.576 4.527,-16.311 2.106,-25.581c-1.225,-4.693 -4.621,-8.553 -7.65,-12.259c-3.889,-4.761 -7.791,-9.866 -11.196,-14.96c-0.64,-0.944 -0.712,-1.982 -0.955,-2.981c-0.195,-0.8 -0.773,-2.286 0.001,-2.789c0.464,-0.299 0.738,-0.228 1.286,-0.028c2.006,0.731 3.833,0.615 7.964,2.742c3.319,1.712 5.211,5.741 7.356,8.596c2.709,3.604 5.535,7.211 9.012,10.163c7.139,6.062 16.117,11.532 24.976,8.838l9.056,-13.541c-1.488,-7.182 -6.225,-12.654 -13.697,-15.549c-8.974,-3.477 -18.598,-2.235 -28.017,-2.381c-2.108,-0.036 -4.113,-0.166 -6.422,0.708c-0.833,0.312 -1.91,0.915 -2.671,1.011c-1.393,0.175 -7.478,-2.28 -7.028,-3.616c0.534,-1.595 1.903,-3.425 2.985,-4.74c0.427,-0.517 1.477,-0.349 1.895,-0.859c0.54,-0.655 0.416,-1.906 1.01,-2.535c2.411,-2.546 6.034,-4.87 8.807,-7.169c14.198,-11.789 22.527,-21.538 28.328,-29.968c3.295,-4.785 5.77,-9.14 8.033,-13.201l-4.378,-2.747c-2.466,4.409 -5.094,8.727 -7.844,12.976c-0.089,0.14 -0.191,0.272 -0.282,0.409c-4.185,6.402 -9.145,12.46 -14.479,17.99c-3.762,3.899 -8.089,7.851 -12.708,10.767c-4.835,3.041 -3.96,1.557 -3.321,-0.559c0.332,-1.102 0.825,-2.291 1.054,-3.467c0.828,-4.22 0.199,-8.49 1.39,-12.728c0.996,-3.535 1.975,-6.873 2.277,-10.807c0.062,-0.797 0.045,-1.809 0.454,-2.158c0.655,-0.558 1.957,-0.752 2.79,-1.067c1.156,-0.438 2.514,-1.064 3.737,-1.784c5.875,-3.428 10.467,-7.995 15.704,-12.2c1.025,-0.825 1.967,-1.737 3.002,-2.534l-1.826,-1.145c-0.451,0.151 -0.812,0.212 -0.923,0.075c-0.117,-0.145 0,-0.34 0.186,-0.538l-23.594,-14.804c-4.07,0.12 -7.883,0.788 -11.545,1.91c-4.543,1.393 -8.881,3.437 -13.317,5.844c-1.714,0.929 -3.424,1.894 -5.041,2.974c-0.933,0.626 -1.124,1.084 -1.468,-0.111c-0.278,-0.973 -0.393,-2.722 0.167,-3.619c0.689,-1.109 2.023,-1.735 2.799,-2.814c1.669,-2.317 4.155,-5.548 4.176,-8.536c0.012,-1.406 -0.462,-1.322 1.2,-1.029c2.307,0.409 7.32,1.363 7.38,1.374c3.754,0.707 7.556,1.099 11.373,1.324l-14.4,-9.035c-0.138,-0.026 -0.279,-0.051 -0.408,-0.078c-3.122,-0.61 -15.611,-0.964 -14.499,1.265c0.224,0.45 0.568,0.849 0.924,1.208c0.773,0.781 1.385,1.296 0.003,0.878c-1.013,-0.308 -2.072,-0.997 -3.168,-0.923c-0.749,0.052 -1.545,0.743 -1.963,0.55c-0.926,-0.426 -0.767,-2.518 -0.828,-3.322c-0.13,-1.73 -0.3,-3.468 -0.526,-5.193c-0.347,-2.713 -0.595,-5.383 -1.289,-8.035l-21.761,-13.654c-0.674,0.061 -1.322,0.17 -1.929,0.343c-0.957,0.271 -1.397,0.868 -1.923,1.51Z" style="fill:#c397c6;fill-rule:nonzero;"/></g><path d="M357.379,259.592c-0.67,-0.097 -0.899,-1.568 -0.878,-2.096c0.021,-0.554 0.174,-1.175 0.445,-1.568c0.115,-0.167 0.897,-0.881 1.385,-0.698c0.966,0.359 0.183,4.531 -0.952,4.362Zm-1.163,-17.677c-0.254,1.719 -0.678,4.569 -1.251,6.003c-0.185,0.468 -1.364,-1.39 -1.807,-2.927c-0.785,-2.737 0.32,-5.64 1.54,-8.089c0.161,-0.323 0.655,-0.271 0.821,0.007c0.941,1.589 0.95,3.297 0.697,5.006Zm-3.302,17.56c-2.209,3.035 -5.494,5.06 -8.628,7.084c-2.043,1.318 -4.302,2.497 -5.842,4.39c-1.748,2.136 -1.809,4.944 -1.482,7.552c0.029,0.207 -0.162,0.392 -0.348,0.445c-3.982,1.139 -8.74,2.986 -11.958,5.96c1.879,-4.56 2.741,-9.434 1.873,-14.338c0.522,-0.782 2.365,-1.638 3.244,-2.217c1.245,-0.823 2.295,-1.59 3.29,-2.238c2.322,-1.507 4.363,-2.856 6.854,-4.13c3.355,-1.723 7.638,-2.515 11.408,-4.347c1.035,-0.502 1.665,-0.877 2.609,-1.439c0.136,-0.081 0.666,-0.613 0.935,-0.375c0.414,0.373 -1.76,3.386 -1.955,3.653Zm-4.854,52.217c-0.422,1.543 -0.925,3.06 -1.43,4.567c-0.227,-4.183 -1.873,-8.421 -1.082,-12.523c0.088,-0.117 0.181,-0.225 0.276,-0.347c2.87,-3.824 4.364,-8.002 5.221,-12.638c0.047,-0.262 0.134,-0.835 0.257,-1.397c0.091,0.996 0.176,1.897 0.193,2.34c0.256,6.705 -1.706,13.598 -3.435,19.998Zm-12.282,-54.723c4.773,-0.622 9.403,-1.819 14.2,-2.35c0.763,-0.09 3.812,-0.915 2.242,0.501c-1.46,1.324 -3.504,1.992 -5.358,2.603c-1.827,0.604 -3.931,1.598 -5.855,1.708c-0.751,0.041 -2.656,-0.159 -3.492,-0.302c-0.505,-0.089 -5.611,-0.922 -5.738,-1.193c-0.201,-0.449 3.698,-0.928 4.001,-0.967Zm5.01,-18.182c0.299,-0.567 1.682,-3.778 2.359,-3.815c0.55,-0.025 0.991,0.952 1.01,0.98c0.643,0.961 1.78,2.451 2.335,3.102c1.263,1.476 2.856,2.687 3.774,3.837c0.931,1.161 1.589,2.693 2.478,4.205c0.297,0.498 0.753,1.21 0.59,1.49c-0.123,0.205 -1.084,0.291 -1.723,0.302c-0.604,-1.249 -1.347,-2.268 -2.204,-3.074c-1.898,-1.795 -4.705,-2.52 -7.214,-3.121c-0.811,-0.194 -1.644,-0.34 -2.489,-0.443c0.043,-1.151 0.41,-2.205 1.084,-3.463Zm-30.198,12.407c-3.662,-0.09 -7.393,-1.343 -10.136,-3.599c-2.128,-1.757 -3.4,-4.146 -5.227,-6.154c-1.394,-1.534 -4.616,-4.17 -6.813,-4.27c-0.357,-0.015 -1.121,0.276 -1.356,0.263c-1.945,-0.1 -2.643,-1.376 -3.333,-2.48c-0.439,-0.694 -0.84,-1.42 -0.727,-1.966c0.254,-1.309 1.812,-1.268 1.722,-2.206c-0.072,-0.748 -1.241,-0.494 -1.627,-0.075c-0.464,0.498 -0.466,1.692 -0.865,2.076c-0.541,0.529 -1.945,0.103 -2.049,-0.544c-0.041,-0.267 0.252,-0.798 0.681,-1.38c1.461,-1.327 2.957,-2.616 4.423,-3.924c1.098,1.784 2.341,3.507 3.83,5.008c0.771,0.781 1.579,1.517 2.345,2.293c0.176,0.14 0.354,0.281 0.53,0.421c3.799,3.138 7.679,6.197 12.255,8.212c3.805,1.669 7.965,2.557 11.745,4.276c-1.956,1.14 -3.774,2.488 -5.398,4.049Zm-28.256,-15.544c-0.505,0.512 -2.77,-1.474 -2.749,-1.965c0.059,-1.014 1.536,-0.069 2.079,0.458c0.471,0.461 0.908,1.265 0.67,1.507Zm-1.188,71.821c-1.283,0.651 -2.817,0.918 -4.234,1.151c-2.128,0.35 -4.306,0.54 -6.491,0.644c-0.974,0.046 -1.95,0.079 -2.923,0.095c-2.502,0.052 -5.143,-1.043 -7.366,-2.039c-1.173,-0.525 -2.32,-1.094 -3.478,-1.653c2.375,-0.153 4.861,-0.593 7.85,-0.961c1.205,-0.146 2.406,-0.43 3.63,-0.43c1.824,0 3.528,0.771 5.299,1.089c2.123,0.379 4.217,0.921 6.341,1.309c0.914,0.167 1.879,0.172 1.809,0.547c-0.183,0.097 -0.35,0.202 -0.437,0.248Zm72.468,-103.359c-0.688,1.034 -0.571,2.757 -0.524,4.122c0.025,0.628 0.532,2.633 0.108,2.865c-0.322,0.178 -2.507,-1.592 -2.875,-1.827c-1.052,-0.651 -2.467,-1.272 -3.726,-1.426c-2.396,-0.293 -4.092,1.146 -5.176,3.066c-0.72,1.278 -1.475,3.515 -1.844,5.543c-0.078,0.438 -0.176,1.631 -0.405,1.759c-3.462,-2.751 -7.42,-8.374 -12.509,-7.618c-3.602,0.534 -4.68,5.396 -4.788,8.982c-0.019,0.077 -0.04,0.152 -0.057,0.227c-0.274,5.425 0.313,10.525 4.263,14.97c2.156,2.427 4.655,4.061 7.304,5.925c0.63,0.441 1.294,0.891 1.954,1.362c-3.314,0.089 -6.634,0.628 -9.521,1.276c-1.126,0.252 -2.236,0.56 -3.33,0.915c-2.215,-4.496 -2.896,-9.484 -3.874,-14.386c-2.496,-8.473 -7.316,-17.884 -14.603,-23.013c-2.906,-2.043 -6.224,-3.474 -9.539,-4.776c-3.519,-1.376 -9.359,-5.138 -12.598,-1.285c-2.559,3.043 -2.531,8.111 -1.888,12.173c-1.454,2.378 -2.185,4.503 -2.762,7.648c-0.359,2.435 -0.388,4.695 -0.136,6.994c0.023,0.196 0.229,1.194 -0.115,1.39c-0.534,0.296 -0.937,-1.28 -0.98,-1.415c-0.583,-1.666 -1.124,-3.608 -1.315,-5.406c-0.265,-2.476 0.274,-5.779 0.34,-8.339c0.036,-1.298 -0.107,-2.657 -0.143,-4.031c-0.033,-1.417 -0.161,-2.567 -0.927,-3.531c-1.27,-1.589 -3.74,-3.802 -6.181,-4.739c-1.913,-0.733 -2.789,0.23 -3.999,1.157c-1.763,1.352 -3.406,2.795 -5.35,3.999c-2.045,1.274 -3.86,2.085 -6.052,2.925c-0.672,0.257 -1.427,0.518 -1.994,0.892c-2.463,1.607 0.056,4.433 1.239,6.007c1.912,2.55 4.782,4.727 7.741,6.037c3.455,1.534 7.974,2.223 11.673,3.804c1.61,0.686 3.239,1.746 4.162,2.788c0.999,1.126 1.689,2.718 2.51,3.767c0.399,0.516 0.91,1.164 1.421,1.796c0.694,0.877 1.228,1.614 0.615,2.03c-0.723,0.496 -1.707,-0.762 -1.845,-0.932c-0.405,-0.489 -0.84,-1.129 -1.316,-1.505c-2.906,-2.268 -7.617,-1.832 -9.134,0.517c-0.199,0.303 -0.42,1.314 -0.81,1.557c-0.53,0.335 -2.206,-0.208 -3.188,-0.401c-3.117,-0.607 -6.691,-0.966 -9.254,-0.675c-3.457,0.394 -7.042,0.646 -10.018,2.566c-7.101,4.567 -12.707,12.85 -14.113,20.926c-0.72,4.117 3.154,4.643 6.66,3.488c5.323,-1.754 10.775,-0.22 15.84,-4.287c3.922,-3.142 5.465,-6.896 6.922,-11.827c1.506,-5.095 2.07,-8.695 6.436,-8.166c0.437,0.053 -2.514,3.893 -0.03,6.738c3.882,4.439 10.798,-0.168 13.349,-3.612c0.302,-0.411 0.404,-1.109 0.911,-1.616c0.505,-0.509 1.489,-0.483 2.46,-0.593c0.558,-0.064 2.783,-0.181 2.926,0.688c0.065,0.396 -0.548,1.611 -0.826,2.265c-0.808,1.896 -1.289,2.542 -2.172,4.125c-0.414,0.738 -0.776,1.45 -1.122,2.012c-0.793,1.289 -1.828,2.427 -2.302,3.914c-0.96,3.035 0.149,5.4 2.054,7.023c0.85,0.725 2.726,1.285 4.429,1.525c0.303,0.048 0.742,0.092 1.063,0.212c-1.04,3.132 -4.818,4.785 -5.927,8.007c-0.967,2.79 1.618,5.125 3.82,6.39c3.027,1.743 6.623,2.484 9.99,3.339c3.502,0.884 6.705,1.098 10.054,0.763c-0.129,0.39 -0.649,0.952 -0.892,1.258c-1.874,2.392 -3.56,4.887 -4.888,8.206c-0.515,1.294 -0.643,2.943 -1.319,4.351c-0.497,1.034 -1.912,2.052 -3.076,3.092c-2.383,2.129 -4.126,3.666 -6.519,5.55c-1.069,0.838 -2.378,2.061 -3.487,2.275c-0.42,0.077 -1.301,0.571 -2.094,-0.381c-1.515,-1.826 1.001,-3.708 -0.081,-7.503c-0.388,-1.347 -1.449,-2.354 -2.147,-3.555c-0.888,-1.521 -1.092,-3.263 -1.217,-4.973c-0.093,-1.325 -0.049,-3.084 -1.464,-3.87c-1.097,-0.6 -2.838,-0.133 -4.196,0.908c-1.937,1.49 -3.146,3.559 -3.727,5.86c-0.891,3.514 0.217,6.022 1.283,7.592c1.065,1.576 1.837,2.208 3.742,3.145c1.439,0.714 2.277,1.042 4.532,1.635c2.288,0.6 3.584,2.993 0.316,2.797c-1.689,-0.101 -3.265,-0.747 -4.896,-1.139c-1.954,-0.47 -3.768,-0.448 -4.797,-2.401c-0.746,-1.413 -0.946,-3.077 -1.527,-4.573c-1.075,-2.768 -2.34,-5.753 -4.23,-7.692c-2.618,-2.683 -6.654,-4.916 -12.403,-3.408c-1.655,0.438 -3.074,1.067 -4.257,1.836c-0.603,0.39 -1.146,0.829 -1.802,1.122c-1.542,0.692 -3.468,1.439 -3.744,3.165c-0.241,1.53 0.584,3.046 1.01,4.476c0.516,1.726 0.938,2.978 1.536,3.994c0.533,0.904 1.216,1.534 1.945,2.105c-2.995,0.333 -5.731,1.772 -8.249,4.373c-5.671,5.852 3.667,9.903 8.705,10.825c4.601,0.844 9.211,-0.736 13.063,-3.099c1.171,-0.715 2.304,-1.486 3.483,-2.191c1.562,-0.939 3.221,-1.843 5.043,-2.211c2.318,-0.469 4.751,-0.707 7.102,-0.968c0.265,-0.03 1.005,-0.013 0.997,0.344c-0.007,0.386 -1.086,0.853 -1.36,1.028c-1.156,0.744 -2.284,1.536 -3.358,2.387c-2.041,1.611 -4.088,3.293 -6.264,4.732c-2.077,1.368 -4.385,2.351 -6.642,3.399c-2.634,1.225 -5.469,2.089 -7.84,3.447c-1.468,0.839 -2.743,2.003 -3.848,3.215c-3.897,4.266 -6.201,9.624 -4.046,15.262c0.242,0.634 0.56,1.252 0.885,1.972c0.774,1.729 1.547,2.258 2.968,2.619c7.083,1.803 16.067,-4.368 18.835,-10.505c0.428,-0.943 0.836,-2.019 1.088,-3.05c0.507,-2.072 0.554,-4.466 0.615,-6.846c0.066,-2.431 -0.089,-4.913 0.518,-7.296c0.865,-3.392 3.258,-5.329 6.162,-7.163c1.192,-0.754 2.013,-1.378 3.239,-2.072c0.242,-0.139 1.265,-0.913 1.579,-0.379c0.214,0.365 -2.981,5.71 -3.634,7.639c-2.295,4.937 -3.564,10.285 -2.709,15.537c0.273,1.673 0.759,3.335 1.497,4.972c0.974,2.15 2.423,4.501 4.984,4.973c1.996,0.368 4.004,-0.668 5.57,-1.746c4.59,-3.183 7.836,-8.615 9.486,-13.744c0.711,-2.22 0.287,-5.075 -0.619,-7.257c-1.137,-2.731 -3.396,-4.965 -5.946,-6.5c-0.866,-0.522 -1.756,-1.04 -2.686,-1.456c-1.347,-0.6 -2.838,-0.97 -3.951,-1.98c-0.283,-0.257 -0.332,-0.557 -0.096,-0.868c0.6,-0.789 1.226,-1.547 2.285,-2.272c0.314,-0.214 0.954,-0.679 1.383,-0.563c0.462,0.126 0.223,0.675 0.178,1.012c-0.144,1.073 0.023,2.101 0.738,2.965c0.817,0.991 2.225,1.375 3.343,1.977c0.304,0.165 0.946,0.696 1.114,0.139c0.07,-0.228 -0.061,-0.602 -0.087,-0.836c-0.149,-1.217 -0.187,-2.493 -1.179,-3.37c-0.541,-0.482 -1.553,-0.86 -1.776,-1.591c-0.104,-0.36 0.21,-2.273 0.494,-2.713c1.209,-1.845 3.721,-3.827 5.709,-5.588c0.821,-0.732 1.4,-1.252 2.342,-2.131c0.475,-0.441 1.035,-0.981 1.264,-0.906c0.517,0.161 0.195,1.966 0.18,2.623c-0.055,2.876 0.581,5.135 1.424,7.297c0.513,1.321 1.389,2.784 2.844,3.86c4.137,3.033 8.125,0.855 12.032,-1.342c0.558,-0.315 1.445,-0.917 1.945,-0.73c0.59,0.216 0.764,1.571 1.05,2.142c0.389,0.776 0.841,1.493 1.178,1.999c0.8,1.204 2.113,2.562 3.744,3.298c2.391,1.073 4.847,1.049 6.72,0.891c1.439,-0.124 3.012,-0.723 4.345,-1.425c0.273,-0.145 0.522,-0.295 0.785,-0.44c-0.09,0.088 -0.185,0.172 -0.28,0.262c-4.731,4.525 -5.662,9.623 -3.008,15.544c3.464,7.736 11.404,0.714 14.431,-3.606c0.131,-0.19 0.242,-0.386 0.365,-0.582c-0.028,1.512 0.086,3.024 0.305,4.485c1.241,8.347 5.286,15.995 13.926,19.041c0.948,0.335 1.946,0.576 3.059,0.897l0,-44.261c-3.298,-2.748 -6.828,-5.702 -8.16,-9.72c-0.597,-1.803 -0.747,-4.128 -0.743,-6.165c0,-0.636 -0.011,-1.412 -0.025,-2.221c0.388,0.372 0.783,0.831 0.944,0.979c1.444,1.324 4.592,3.131 7.484,3.045c0.165,-0.006 0.333,-0.044 0.5,-0.063l0,-32.214c-0.925,0.111 -1.824,-1.392 -1.718,-2.029c0.127,-0.752 0.475,-0.637 1.056,-0.168c0.096,0.077 0.387,0.346 0.662,0.67l0,-35.114c-0.424,-0.504 -0.895,-0.965 -0.723,-1.686c0.138,-0.555 0.403,-0.509 0.723,-0.262l0,-15.063c-0.295,-0.203 -0.587,-0.404 -0.895,-0.606c-1.173,-0.765 -5.783,-3.771 -7.106,-1.792Z" style="fill:#c397c6;fill-rule:nonzero;"/><path d="M417.082,228.571c0.368,-0.496 0.634,-1.12 0.314,-1.39c-0.345,-0.287 -1.993,0.474 -2.615,0.65c-0.158,0.043 -0.578,-0.045 -0.649,0.289c-0.084,0.381 0.644,0.783 1.129,1.046c0.762,0.412 1.192,0.254 1.821,-0.595Zm11.83,-39.237c0.012,-0.144 0.015,-0.266 -0.008,-0.331c-0.123,-0.325 -0.977,-0.993 -1.395,-0.488c-0.129,0.152 0.192,2.46 0.402,2.587c0.067,0.036 0.26,0.159 0.416,0.024c0.101,-0.086 0.213,-0.324 0.314,-0.607c0.087,-0.391 0.178,-0.788 0.271,-1.185Zm-8.481,4.059c-6.975,-0.558 -9.355,6 -14.611,6.057c-0.163,0.003 -1.586,0.071 -2.772,-0.077c-0.22,-0.028 -0.49,0.058 -0.452,0.275c0.15,0.865 0.746,2.005 1.235,3.022c0.118,0.248 0.377,0.432 0.631,0.331c4.047,-1.575 8.134,-3.044 12.157,-4.669c0.233,-0.095 0.448,-0.231 0.601,-0.432c1.061,-1.367 2.143,-2.795 3.584,-3.774c0.386,-0.263 0.103,-0.694 -0.373,-0.733Zm-6.452,-8.291c-0.78,-2.153 -1.347,-4.317 -1.342,-6.574c0,-0.221 -0.15,-0.434 -0.369,-0.415c-1.781,0.158 -3.651,0.062 -5.434,0.373c-0.27,0.048 -0.482,0.244 -0.627,0.475c-0.654,1.048 -0.535,2.428 0.137,3.432c0.182,0.274 0.49,0.426 0.814,0.48c2.301,0.378 4.528,1.254 6.581,2.446c0.139,0.079 0.293,-0.067 0.24,-0.217Zm-14.775,13.126c-0.892,-0.517 -1.868,-0.828 -2.791,-1.275c-1.909,-0.92 -4.188,-2.299 -5.34,-4.139c-0.534,-0.853 -0.703,-1.827 -0.129,-2.994c0.299,-0.613 0.739,-1.15 1.252,-1.638c2.024,-2.488 5.783,-4.134 8.386,-4.923c0.428,-0.128 0.856,-0.232 1.285,-0.316c0.125,-0.021 0.232,-0.216 0.107,-0.243c-0.486,-0.099 -1.375,-0.02 -1.825,0.009c-2.46,0.161 -4.844,0.884 -7.31,1c-1.286,0.058 -2.307,-0.363 -3.27,-0.932c-1.021,-0.598 -3.721,1.552 -4.152,2.327c-0.757,1.362 -0.433,3.16 -0.225,4.633c0.411,2.915 0.992,5.782 1.482,8.69c1.07,6.382 -0.258,9.326 -0.053,9.144c2.192,-1.911 4.951,-4.567 7.725,-5.587c1.893,-0.696 3.824,-1.373 4.997,-3.112c0.161,-0.234 0.114,-0.497 -0.139,-0.644Zm3.265,-19.896c0.221,0.147 0.389,0.296 0.701,0.331c0.345,0.037 1.524,-0.296 1.642,-0.765c0.361,-1.42 -4.86,-1.259 -2.343,0.434Zm3.47,-5.544c-0.857,-1.091 -2.821,-0.403 -3.533,-0.302c-0.595,0.085 -1.091,0.166 -1.727,0.214c-0.355,0.028 -1.332,-0.18 -1.616,0.35c-0.236,0.435 0.847,2.193 1.48,2.666c0.782,0.582 1.702,0.427 2.739,0.347c0.87,-0.063 1.883,-0.091 2.369,-0.848c0.435,-0.683 0.628,-1.999 0.288,-2.427Zm-5.714,-3.294c-0.297,-0.11 -1.294,-0.396 -1.492,-0.278c-0.444,0.269 -0.357,1.759 -0.023,2.042c0.472,0.403 1.087,0.019 2.004,-0.078c0.645,-0.07 1.417,0.156 1.516,-0.314c0.093,-0.445 -1.194,-1.073 -2.005,-1.372Zm4.787,37.267c0.161,1.023 0.278,2.705 0.387,3.524c0.043,0.32 2.195,-1.974 3.627,-2.468c3.15,-1.094 5.849,0.009 5.682,-0.814c-0.286,-1.378 -0.201,-2.818 0.132,-4.209c0.055,-0.226 -0.023,-0.532 -0.242,-0.455c-0.933,0.323 -1.867,0.649 -2.795,0.989c-2.209,0.814 -4.301,1.868 -6.434,2.844c-0.233,0.108 -0.396,0.337 -0.357,0.589Zm29.56,-51.576c0.114,0.254 0.353,0.475 0.616,0.387c0.416,-0.142 0.82,-0.419 0.817,-0.668c-0.005,-0.658 -1.232,-0.756 -1.04,-1.604c0.055,-0.238 0.659,-0.631 0.707,-0.949c0.061,-0.455 -0.695,-1.093 -1.347,-1.319c-0.502,-0.172 -1.264,-0.101 -1.696,0.135c-0.321,0.177 -0.174,0.613 0.068,0.885c0.788,0.884 1.375,2.023 1.875,3.133Zm-17.518,-36.237c-0.463,-0.621 -2.814,0.198 -2.435,0.987c0.094,0.195 1.433,0.728 1.778,0.583c0.536,-0.225 0.818,-1.35 0.657,-1.57Zm-5.601,1.719c-0.68,0.2 -2.692,2.036 -2.506,2.41c0.229,0.451 1.5,0.239 1.977,0.161c1.066,-0.173 2.161,-0.557 3.301,-0.837c0.163,-0.041 1.584,-0.25 1.578,-0.625c-0.009,-0.513 -1.012,-0.275 -1.529,-0.379c-1.013,-0.202 -1.945,-0.988 -2.821,-0.73Zm-73.671,87.864c-1.025,-1.184 -1.828,-2.106 -3.013,-3.216c-0.646,-0.605 -2.541,-2.239 -2.32,-0.154c0.079,0.769 1.89,1.897 2.614,2.429c1.339,0.983 1.91,1.736 3.066,2.387c0.305,0.172 0.552,0.5 0.8,0.293c0.307,-0.254 -0.994,-1.562 -1.147,-1.739Zm-1.806,-12.482c-0.914,-1.588 -1.621,-2.929 -2.602,-4.643c-0.304,-0.542 -0.942,-2.222 -1.363,-2.184c-0.566,0.05 -0.757,2.189 -1.035,3.103c-0.227,0.751 -1.082,2.755 -0.616,3.3c0.045,0.056 0.158,0.054 0.21,0.101c0.539,0.474 1.789,0.54 2.929,1.038c0.574,0.251 1.343,0.715 1.824,1.03c0.301,0.198 0.986,0.997 1.468,0.693c0.758,-0.478 -0.582,-2.026 -0.815,-2.438Zm-10.023,4.935c-0.53,-0.045 -2.427,-0.138 -2.027,0.672c0.029,0.06 0.362,0.302 0.667,0.398c0.419,0.136 1.303,0.18 2.009,0.093c0.53,-0.067 1.742,-0.326 1.677,-0.663c-0.085,-0.467 -1.798,-0.454 -2.326,-0.5Zm-1.662,-3.004c-0.851,-0.165 -2.55,-0.311 -4.023,-0.531c-0.413,-0.062 -4.323,-0.844 -3.629,0.256c0.035,0.053 0.213,0.22 0.528,0.336l9.062,1.448c0.063,0.011 1.011,0.343 1.14,-0.056c0.218,-0.683 -2.538,-1.35 -3.078,-1.453Zm1.478,-24.527l-0.953,-2.329c-0.147,-0.331 -0.684,-1.109 -0.893,-1.192c-0.596,-0.234 -1.46,0.813 -2.216,1.435c-1.338,1.102 -2.893,2.497 -4.098,3.796c-0.576,0.623 -1.588,1.237 -1.853,2.118c-0.052,0.168 -0.002,0.092 0.075,0.206c0.19,0.298 1.3,0.28 1.526,0.206c0.407,-0.133 0.677,-0.559 1.188,-0.89c1.033,-0.67 3.214,-1.179 4.894,-0.944c0.549,0.076 0.968,0.173 1.494,0.277c0.155,0.031 1.863,0.67 1.78,0.383c-0.199,-0.704 -0.735,-2.582 -0.944,-3.066Zm0.681,34.6c1.076,-0.942 2.229,-1.86 2.877,-3.17c0.32,-0.642 0.713,-1.807 0.577,-1.947c-0.256,-0.272 -2.089,0.47 -2.595,0.824c-4.674,3.268 -9.35,10.71 -9.324,10.785c0.183,0.505 7.856,-5.956 8.465,-6.492Zm6.47,-7.887c0.255,0.006 2.051,-0.343 2.099,-0.461c0.152,-0.361 -1.215,-1.406 -1.768,-1.69c-0.854,-0.439 -2.787,-0.959 -3.127,-0.619c-0.423,0.422 -0.113,1.804 0.081,2.004c0.301,0.314 0.725,0.321 1.324,0.453c0.472,0.106 0.951,0.311 1.391,0.313Zm-3.005,6.193c-0.8,3.41 -0.349,6.247 -0.026,7.854c0.164,0.824 0.574,4.347 0.655,4.412c0.669,0.56 0.765,-1.015 0.859,-1.643c0.304,-1.997 0.586,-4.064 0.594,-5.792c0.013,-2.148 -0.344,-3.372 -0.54,-5.384c-0.017,-0.197 0.147,-1.713 -0.281,-1.758c-0.37,-0.038 -1.132,1.761 -1.261,2.311Zm17.446,57.645c-0.496,0.118 -0.539,1.189 -0.418,1.432c0.178,0.344 0.688,0.556 1.231,0.835c0.18,0.092 1.123,0.763 0.827,-0.121c-0.078,-0.239 -0.407,-0.633 -0.645,-0.989c-0.182,-0.275 -0.559,-1.256 -0.995,-1.157Zm-24.077,63.204c-1.69,2.021 -2.712,5.119 -3.727,7.903c-0.649,1.779 -1.353,3.872 -2.08,5.862c-0.643,1.757 -1.519,3.911 -2.81,5.769c-0.696,1.008 -1.649,2.437 -2.582,3.486c-0.217,0.244 -0.838,0.8 -0.769,1.088c0.082,0.357 1.02,0.597 1.719,1.069c0.492,0.335 0.539,0.593 0.915,0.775c0.926,0.442 1.714,-0.388 2.316,-1.623l0.294,-3.206c0.194,-2.221 0.583,-4.461 1.505,-6.504c1.519,-3.369 5.149,-5.33 6.271,-8.919c0.431,-1.383 0.33,-2.968 0.638,-4.39c0.119,-0.549 0.226,-2.053 0.019,-2.212c-0.509,-0.392 -1.477,0.625 -1.709,0.902Zm22.778,-65.526c-0.023,-0.608 -0.776,-1.298 -1.362,-2.007c-0.487,-0.593 -1.243,-1.836 -1.836,-1.724c-0.215,0.043 -0.389,0.501 -0.572,0.672c-0.221,0.201 -0.786,0.398 -0.921,0.676c-0.269,0.567 0.421,1.647 0.738,2.06c0.395,0.512 1.287,1.371 1.809,1.792c0.229,0.188 0.49,0.334 0.664,0.4c0.069,0.028 0.205,0.175 0.35,0.164c0.449,-0.029 1.151,-1.421 1.13,-2.033Zm-7.279,2.382c0.034,-0.3 0.651,-2.274 0.149,-2.493c-0.426,-0.188 -1.241,0.936 -1.488,1.521c-0.371,0.878 -0.221,2.136 -0.268,3.294c-0.113,2.696 0.052,5.172 0.145,7.847c0.117,3.364 0.226,7.731 -2.181,12.054c-0.776,1.4 -1.903,2.864 -2.943,4.254c-1.068,1.425 -2.083,2.734 -3.169,3.635c-3.624,3.009 -9.211,3.015 -12.631,-0.228c-1.633,-1.544 -2.422,-3.718 -2.931,-5.571c-0.961,-3.498 -0.866,-7.071 1.667,-11.695c1.428,-2.606 4.206,-5.293 6.239,-7.063c0.207,-0.181 0.885,-0.718 0.771,-0.917c-0.215,-0.387 -1.259,0.245 -1.44,0.345c-6.288,3.464 -12.931,7.14 -19.132,10.472c-3.523,1.891 -6.63,3.857 -10.214,5.701c-2.89,1.483 -5.893,3.067 -9.061,4.53l-0.922,0.426c-0.148,0.091 -0.307,0.223 -0.306,0.364c-0.006,0.575 1.541,0.854 1.889,0.89c3.213,0.344 7.091,-1.406 10.149,-2.276c3.685,-1.048 7.394,-1.863 11.249,-1.396c1.201,0.145 2.506,0.411 3.55,0.987c3.255,1.802 4.555,4.745 4.846,7.675c0.25,2.521 1.15,5.607 -1.001,7.563c-4.4,4.002 -8.837,1.821 -13.663,0.142c-1.001,-0.351 -7.47,-3.944 -8.343,-3.338c-0.313,0.223 0.311,1.35 0.379,1.551c0.455,1.263 0.498,1.627 0.728,2.991c0.08,0.486 0.119,1.24 0.416,1.477c0.439,0.357 2.699,0.51 3.299,0.617c1.192,0.215 2.429,0.516 3.305,0.789c3.587,1.123 7.201,1.081 10.765,1.829c2.435,0.51 3.961,2.133 5.27,3.512c1.646,1.733 3.212,3.541 4.345,5.467c0.348,0.586 0.602,1.219 0.9,1.829c0.264,0.544 0.517,1.383 1.233,1.394c0.498,0.01 1.661,-0.368 1.69,-0.993c0.03,-0.578 -1.43,-0.972 -1.699,-1.654c-0.419,-1.063 0.683,-2.333 1.527,-2.874c0.796,-0.511 2.468,-1.04 3.334,-0.906c0.645,0.1 1.355,0.73 1.879,0.543c0.44,-0.153 0.921,-1.532 1.159,-2.273c0.279,-0.869 0.474,-1.824 0.602,-2.366c0.45,-1.891 1.003,-3.26 1.412,-4.805c2.086,-7.879 4.73,-16.033 7.845,-24.43l1.824,-4.957c0.045,-0.402 -0.335,-1.146 -0.452,-1.579c-0.406,-1.52 -0.603,-3.38 -0.737,-4.965c-0.2,-2.393 -0.247,-4.61 0.015,-6.92Zm-0.996,-4.231c-0.433,0.144 -8.336,4.543 -9.117,5.192c-0.106,0.086 -0.047,0.193 -0.031,0.243c0.051,0.14 0.05,0.063 0.139,0.067c1.027,0.019 2.74,-0.866 4.084,-1.411c1.557,-0.629 2.981,-1.077 3.87,-1.852c0.333,-0.292 2.681,-2.786 1.055,-2.239Zm-57.653,33.773c0.211,1.034 1.67,1.805 2.928,2.494c0.098,0.052 0.977,0.778 1.292,0.523c0.273,-0.221 -0.603,-1.061 -0.719,-1.194c-0.406,-0.469 -0.597,-0.611 -0.957,-1.052c-0.498,-0.605 -1.357,-2.094 -2.053,-1.993c-0.456,0.067 -0.536,1.004 -0.491,1.222Zm44.738,28.965c-0.252,-0.7 -1.779,-0.123 -2.197,0.043c-0.402,0.16 -1.265,0.476 -1.378,0.954c-0.207,0.892 1.318,0.8 1.779,0.634c0.605,-0.217 1.985,-1.104 1.796,-1.631Zm-16.768,7.994c0.122,0.334 1.603,-0.056 2.008,-0.08c3.479,-0.201 8.332,0.204 11.152,-2.261c0.558,-0.488 1.753,-2.366 1.531,-2.702c-0.286,-0.432 -1.236,0.145 -1.692,0.145c-1.378,0.003 -3.121,-0.661 -4.23,-0.457l-7.719,4.398c-0.274,0.132 -1.194,0.552 -1.05,0.957Zm4.692,25.043c0.647,0.7 2.968,1.447 4.368,1.219c0.276,-0.044 0.479,-0.307 0.387,-0.57c-0.296,-0.841 -0.53,-1.706 -0.704,-2.588c-0.038,-0.2 -0.28,-0.249 -0.46,-0.151c-0.925,0.509 -1.949,0.868 -2.988,1.177c-0.583,0.17 -1.197,0.268 -0.603,0.913Zm-1.767,11.905c-0.012,0.143 -0.058,0.177 0.04,0.277c0.398,0.411 1.211,-1.083 1.622,-1.805c0.474,-0.832 0.883,-2.026 1.45,-3.076c0.644,-1.188 1.404,-2.092 1.698,-2.875c0.104,-0.278 0.296,-1.082 -0.028,-1.211c-0.32,-0.129 -0.513,0.384 -0.948,0.923c-0.348,0.432 -0.93,0.919 -1.346,1.589c-1.172,1.882 -2.346,4.309 -2.488,6.178Zm15.285,-35.391c0.231,0.549 0.534,1.067 0.886,1.56c0.105,0.146 0.383,0.284 0.394,0.105c0.071,-0.909 0.12,-1.947 0.109,-2.358c-0.024,-1.271 -0.034,-2.358 -0.236,-3.76c-0.026,-0.198 -0.089,-0.73 -0.238,-0.869c-0.488,-0.46 -1.031,1.834 -1.067,2.059l0.152,3.263Zm4.229,-7.457c0.23,0.032 2.629,-0.109 2.57,-0.388l-2.42,-2.807c-0.285,-0.295 -1.279,-1.503 -1.68,-0.664c-0.334,0.693 -0.895,1.602 -0.486,2.369c0.404,0.764 1.153,1.365 2.016,1.49Zm-68.876,-21.813c0.082,-0.694 0.542,-1.573 0.27,-1.838c-0.295,-0.288 -1.492,0.11 -1.749,0.627c-0.154,0.3 0.062,0.852 0.166,1.275c0.16,0.664 0.11,1.393 0.799,1.747c0.997,0.508 0.417,-1.008 0.514,-1.811Zm-13.917,-3.469c-0.557,-1.56 -1.72,-2.568 -3.042,-3.406c-1.322,-0.841 -3.521,-2.231 -4.831,-2.694c-0.424,-0.153 0.179,1.723 0.983,2.92c1.434,2.127 4.055,3.097 6.429,3.726c0.311,0.084 0.56,-0.274 0.461,-0.546Zm-9.257,-5.407c-0.159,-0.03 -0.541,0.292 -0.877,0.633c-0.196,0.196 -0.234,0.498 -0.129,0.756c0.399,0.985 0.617,1.934 0.677,2.847c0.154,2.315 -0.944,4.605 -1.958,6.623c-0.245,0.49 -0.518,0.972 -0.811,1.445c-0.144,0.232 -0.212,0.547 0.011,0.7c0.743,0.508 1.592,0.825 2.682,1.081c0.562,0.136 3.553,1.106 3.962,0.676c0.329,-0.351 -0.09,-1.219 -0.101,-1.247c-0.293,-0.994 -0.671,-2.622 -0.801,-3.372c-0.297,-1.706 -0.223,-3.475 -0.49,-4.761c-0.272,-1.299 -0.948,-2.637 -1.478,-4.116c-0.176,-0.49 -0.403,-1.21 -0.687,-1.265Zm-5.26,-9.151c-0.314,0.501 0.567,1.518 0.94,1.812c0.395,0.309 0.907,0.574 1.33,0.626c0.18,0.023 1.113,-0.076 1.266,-0.513c0.302,-0.85 -3.006,-2.778 -3.536,-1.925Zm3.15,-1.421c0.003,-0.284 -0.118,-2.178 -0.908,-1.882c-0.955,0.356 -0.361,2.15 0.193,2.485c0.587,0.36 0.705,0.057 0.715,-0.603Zm-15.375,6.026c-2.063,0.583 -4.154,1.389 -6.332,1.301c-2.459,-0.092 -4.423,-1.7 -6.023,-3.452c-0.126,-0.136 -0.363,-0.118 -0.505,-0.027c-2.952,1.915 -6.769,3.92 -10.525,4.4c-0.095,0.014 -0.073,0.142 0.017,0.175c3.92,1.391 7.504,3.547 10.255,6.722c0.161,0.185 0.375,0.345 0.621,0.325l6.423,-1.729c2.356,-0.656 4.442,-1.221 6.731,-2.127c3.091,-1.221 6.066,-3.598 9.468,-5.025c0.932,-0.391 1.547,-0.59 2.47,-0.887c0.136,-0.045 0.8,-0.084 0.785,-0.397c-0.02,-0.497 -3.323,-0.824 -3.617,-0.851c-3.336,-0.316 -6.592,0.678 -9.768,1.572Zm-11.885,40.255c-0.006,2.445 0.914,4.689 1.253,7.084c0.261,1.825 0.242,5.516 -0.938,7.032c-0.193,0.248 -0.827,0.585 -0.951,0.748c-1.037,1.35 -0.558,2.564 -0.193,3.671c0.231,0.697 0.5,1.39 0.939,1.638c1.04,0.597 1.901,-0.459 2.492,0.152c0.472,0.484 -0.366,1.113 -0.874,1.126c-0.605,0.012 -1.426,-0.683 -1.916,-0.648c-0.672,0.049 -1.178,1.233 -0.791,1.68c0.121,0.138 0.448,0.239 0.876,0.303c0.369,0.056 0.742,0.024 1.11,-0.018c1.331,-0.153 2.66,-0.328 3.988,-0.491c0.248,-0.031 0.535,-0.167 0.457,-0.402c-0.549,-1.673 -0.979,-3.398 -1.152,-5.152l-0.228,-3.504c0.002,-4.365 0.108,-8.738 1.328,-12.964c0.982,-3.398 2.66,-6.586 3.644,-9.981c0.041,-0.148 -0.117,-0.259 -0.263,-0.213c-1.672,0.527 -3.392,0.891 -5.139,1.059c-0.306,0.028 -0.537,0.262 -0.72,0.506c-1.805,2.412 -2.911,5.422 -2.922,8.374Zm-2.306,22.028c0.723,0.557 0.916,-0.98 0.863,-1.647c-0.048,-0.589 -0.352,-1.351 -0.652,-1.333c-0.64,0.035 -0.564,2.708 -0.211,2.98Zm25.627,-59.052c0.492,-0.459 2.794,-1.995 0.927,-1.784c-1.737,0.194 -3.359,1.159 -4.832,2.032c-1.451,0.856 -3.33,1.669 -4.5,2.887c-0.455,0.473 -1.398,1.856 -1.774,2.494c-0.228,0.389 -2.559,4.269 -2.44,4.514c0.193,0.394 2.736,-1.911 2.938,-2.093c3.138,-2.804 6.587,-5.174 9.681,-8.05Zm-74.139,11.807c-1.069,-0.376 -1.911,-0.984 -2.392,-1.389c-0.215,-0.178 -0.541,-0.289 -0.694,-0.056c-0.635,0.959 -1.585,2.746 -0.431,2.829c0.878,0.065 1.755,0.096 2.857,-0.184c1.097,-0.277 1.754,-0.819 0.66,-1.2Zm255.037,-69.962c-0.452,0.426 -1.082,0.842 -1.319,1.343c-0.187,0.397 -0.157,1.113 -0.236,1.769c-0.295,2.464 -2.054,6.703 -3.799,9.15c-2.734,3.835 -6.519,5.874 -10.753,6.301c-0.469,0.05 -2.824,-0.009 -3.304,-0.788l0.491,-2.675c-0.285,-0.425 -1.737,-0.461 -2.159,-0.678c-2.317,-1.166 -2.146,-3.961 -1.494,-6.261c0.161,-0.569 0.67,-1.621 0.543,-1.881c-0.204,-0.419 -0.684,-0.072 -1.35,-0.036c-1.297,0.065 -3.073,-0.433 -4.498,-1.522c-3.961,-3.038 -5.07,-8.715 -4.915,-13.493c0.006,-0.184 -0.24,-0.197 -0.377,-0.075c-1.665,1.486 -3.367,2.927 -5.018,4.431c-6.664,6.07 -13.778,11.97 -19.949,18.55c-1.348,1.438 -2.825,2.959 -3.49,4.678c-0.276,0.718 0.318,1.315 0.641,2.268c0.492,1.454 0.678,2.937 0.588,4.556c-0.041,0.789 -0.254,1.644 -0.218,2.46l1.059,5.545c0.012,0.127 -0.008,0.324 -0.024,0.416c-0.101,0.577 -0.711,1.126 -0.694,1.468c0.025,0.398 0.95,1.059 1.351,1.491c1.29,1.391 2.513,3.123 3.424,4.525c0.935,1.432 1.454,3.278 1.469,5.223c0.008,1.123 0.091,2.661 -1.16,3.728c-0.739,0.63 -1.658,0.341 -2.433,0.99c-0.416,0.345 -0.526,0.798 -0.873,1.128c-1.805,1.71 -5.523,0.941 -8.087,-1.164c-1.882,-1.548 -3.493,-3.392 -4.931,-5.321c-0.024,-0.032 -0.454,-0.782 -0.777,-0.707c-0.19,0.045 -0.731,1.51 -1.051,2.412c-0.853,2.405 -1.886,5.172 -2.633,7.396c-2.424,7.205 -4.107,12.342 -5.544,19.185l-1.898,9.283l4.147,5.144c0.281,0.254 0.697,0.091 1.018,-0.108c0.543,-0.343 1.089,-0.717 1.645,-1.093c3.808,-2.549 7.599,-5.054 12.157,-5.995c3.837,-0.792 8.492,-1.085 12.11,0.675c1.67,0.814 3.677,2.423 4.583,4.082c0.314,0.577 0.657,1.409 0.877,2.125c0.228,0.728 0.487,1.498 0.502,2.205c0.017,0.747 -0.33,1.518 -0.365,2.223c-0.047,1.056 0.599,1.855 0.622,2.855c0.123,5.569 -5.31,9.566 -10.165,10.854c-1.228,0.326 -2.803,0.528 -4.415,0.482c-0.369,-0.011 -1.295,-0.047 -1.452,0.17c-0.227,0.326 0.193,1.089 0.454,1.584c1.319,2.501 2.181,4.758 3.212,7.328c0.292,0.726 1.157,2.479 0.661,3.133c-0.753,0.991 -3.275,-1.257 -3.847,-1.814c-2.633,-2.563 -2.689,-5.812 -3.324,-9.092c-0.164,-0.851 -0.101,-1.801 -0.918,-2.399c-0.805,-0.591 -1.734,-0.948 -2.592,-1.394c-4.499,-2.33 -8.348,-6.089 -11.591,-9.92c-0.631,-0.744 -1.245,-1.514 -1.965,-2.183c-0.276,-0.258 -3.068,-2.407 -2.96,-1.195c0.196,2.148 0.324,3.087 0.234,5.253c-0.057,1.342 -0.299,2.83 0.277,4.088l1.24,1.73c0.45,0.484 0.94,0.945 1.392,1.393c2.022,2.006 4.069,3.971 5.162,6.283c0.539,1.145 0.828,2.336 1.088,3.674c0.666,3.461 0.093,6.848 -0.588,10.291c-0.43,2.188 -0.432,4.473 -0.913,6.631c-0.957,4.299 -5.155,2.872 -8.003,1.468c-1.223,-0.604 -2.508,-1.2 -3.668,-1.913c-2.161,-1.334 -4.196,-2.962 -5.494,-5.175c-0.397,-0.699 -0.634,-0.743 -0.827,-0.484c-1.099,1.495 -2.598,3.114 -2.407,5.128c0.193,2.025 1.339,3.639 2.454,5.283c1.525,2.257 3.166,4.514 4.063,7.116c0.463,1.348 0.803,2.72 1.106,4.105c0.197,1.812 0.507,3.387 0.611,5.227c0.157,2.735 -0.717,6.388 -2.354,8.977c-0.877,1.388 -2.624,1.749 -4.068,2.1c-4.168,1.015 -9.273,0.466 -11.638,-3.607c-2.047,-3.529 -2.265,-7.385 -1.071,-12.048c0.24,-0.941 0.547,-2.282 0.855,-3.447c0.144,-0.54 0.09,0.071 0.192,-0.59c0.204,-1.266 -0.987,0.099 -1.302,0.41c-1.014,1.003 -2.455,1.84 -3.61,2.573c-4.275,2.727 -7.931,5.091 -12.893,6.317c-0.872,0.215 -2.239,0.879 -2.827,0.55c-0.496,-0.279 -0.717,-1.431 -0.505,-2.377c0.231,-1.023 0.98,-2.118 1.423,-2.834c1.765,-2.85 3.455,-4.456 5.389,-6.35c1.827,-1.793 3.883,-3.771 5.796,-5.218c2.431,-1.841 5.607,-4.197 8.172,-5.724c1.348,-0.804 2.662,-1.771 4.195,-2.553c1.273,-0.648 3.072,-1.355 4.05,-2.964c0.339,-0.56 0.552,-1.307 0.378,-1.531c-0.336,-0.438 -1.886,0.351 -2.202,0.502c-2.183,1.034 -4.213,2.045 -6.333,2.912c-2.996,1.225 -5.949,1.999 -9.081,2.214c-2.435,0.166 -4.968,0.296 -7.4,0.103c-2.37,-0.194 -5.698,-0.665 -7.367,-2.876c-1.024,-1.361 -2.163,-2.277 -1.55,-4.324c0.82,-2.747 2.458,-4.243 4.061,-5.351c4.455,-3.074 11.363,-2.428 16.306,-1.031c0.142,0.041 0.325,0.102 0.517,0.158c0.194,0.057 0.482,-0.016 0.384,-0.192c-1.882,-3.426 -1.317,-7.073 -0.247,-11.001c0.371,-1.751 0.902,-3.429 1.786,-4.659c0.503,-0.7 1.322,-1.387 2.063,-2.016c0.273,-0.234 1.096,-0.767 0.087,-0.729c-0.669,0.022 -2.044,0.79 -2.502,0.955c-6.576,2.362 -14.913,7.102 -21.661,2.782c-0.629,-0.402 -1.051,-0.964 -1.006,-1.671c0.109,-1.727 1.65,-4.089 2.703,-5.738c2.39,-3.737 7.591,-5.706 11.791,-6.323c0.095,-0.016 1.166,0.074 1.063,-0.441c-0.076,-0.364 -1.747,-0.613 -1.92,-0.647c-1.869,-0.385 -4.029,-1.205 -5.009,-2.792c-0.184,-0.296 -0.479,-0.966 -0.622,-1.402c-0.121,-0.369 -0.171,-1.321 -0.513,-1.443c-0.326,-0.112 -1.024,0.606 -1.437,0.864c-2.433,1.511 -4.863,2.103 -7.806,2.046c-1.598,-0.028 -5.867,-0.544 -4.538,-3.249c0.858,-1.741 2.126,-3.175 3.027,-5.326c1.514,-3.611 2.287,-7.26 2.248,-10.569l-0.113,-4.842c0.113,-0.99 0.972,-2.33 -0.029,-2.837c-0.418,-0.212 -0.864,0.061 -1.273,0.34c-1.07,0.736 -1.785,1.497 -2.543,2.137c-1.969,1.66 -4.092,3.643 -6.275,5.504c-0.469,0.402 -1.158,0.774 -1.218,1.138c-0.053,0.301 0.413,0.654 0.784,1.051c0.932,0.992 1.575,2.065 2.183,3.169c1.647,2.998 1.858,6.2 1.407,10.069c-0.141,1.229 -0.698,6.054 -2.81,5.771c-1.1,-0.147 -2.217,-1.24 -3.126,-2.072c-0.417,-0.382 -1.507,-1.9 -1.906,-1.757c-0.305,0.113 -0.329,2.605 -0.38,2.986c-0.149,1.083 -0.527,2.386 -1.136,3.311c-1.161,1.764 -3.111,2.046 -5.047,1.641c-1.29,-0.274 -3.253,-1.083 -4.854,-2.034c-0.214,-0.127 -0.636,-0.423 -0.976,-0.608c-0.2,-0.109 -0.465,-0.008 -0.463,0.218c0.018,3.912 1.428,9.569 -1.876,12.41c-2.264,1.949 -5.878,0.194 -8.399,-1.712c-0.344,-0.259 -0.703,-0.493 -1.04,-0.76c-3.713,-2.936 -6.712,-6.268 -7.492,-11.337c-0.439,-2.861 -0.142,-5.481 0.083,-8.335c0.041,-0.508 0.091,-1.031 0.133,-1.566c0.014,-0.175 -0.206,-0.263 -0.326,-0.135c-1.858,1.986 -3.963,3.737 -5.92,5.179c-0.71,0.524 -1.442,1.017 -2.194,1.477c-0.195,0.119 -0.246,0.372 -0.149,0.579c1.84,3.941 4.775,7.221 7.503,10.638c4.395,6.635 8.117,15.365 7.497,23.217c-0.248,3.131 -1.151,6.177 -2.143,9.141c-1.055,3.148 -1.79,9.236 -6.276,9.124c-3.432,-0.084 -6.79,-2.898 -9.199,-5.63c-0.173,-0.196 -0.425,-0.297 -0.683,-0.348c-2.242,-0.445 -4.035,-1.201 -6.368,-2.574c-1.875,-1.192 -3.442,-2.501 -4.879,-4.016c-0.122,-0.132 -0.688,-0.853 -1.019,-0.739c-0.505,0.179 0.349,1.37 0.415,1.477c0.812,1.37 1.839,2.868 2.964,4.05c1.55,1.631 4.122,3.213 5.919,4.673c0.911,0.739 1.761,1.629 2.687,2.463c0.95,0.856 1.671,1.614 1.895,2.688c0.37,1.776 0.486,4.718 -0.258,6.891c-0.583,1.7 -1.745,1.714 -3.069,1.975c-1.927,0.38 -4.248,8.479 -6.178,9.061c-2.038,0.612 -3.231,-6.516 -5.052,-5.553c-0.56,0.296 -1.168,0.642 -1.744,0.802c-2.505,0.693 -3.015,-2.642 -3.423,-4.35c-0.661,-2.769 -0.527,-5.955 0.25,-8.689c0.913,-3.196 3.01,-6.601 4.026,-9.988c0.441,-1.471 0.641,-3.178 0.453,-4.401c-0.207,-1.327 -0.908,-2.719 -1.162,-3.882c-0.127,-0.567 -0.279,-1.289 -0.425,-1.998c-0.206,-0.976 -0.412,-1.763 -1.042,-1.601c-0.751,0.19 -0.447,1.578 -0.409,1.773c0.105,0.555 0.298,1.224 0.283,1.757c-0.095,3.265 -3.071,6.137 -5.541,5.766c-0.324,-0.048 -1.146,-0.493 -1.532,-0.379c-0.531,0.157 -1.11,1.587 -1.536,2.353c-1.354,2.426 -3.14,5.014 -4.799,6.546c-2.231,2.063 -4.446,4.297 -7.453,5.15c-7.167,2.032 -16.039,0.889 -22.384,-2.917c-3.236,-1.94 -1.394,-4.823 1.391,-6.475c4.23,-2.504 6.273,-7.024 11.944,-8.001c4.385,-0.76 7.838,0.415 12.051,2.347c4.355,1.991 7.147,3.73 9.265,0.517c0.211,-0.321 -4.104,-0.612 -4.645,-3.936c-0.842,-5.183 6.254,-7.075 10.063,-6.743c0.46,0.039 0.995,0.379 1.633,0.344c0.635,-0.037 1.176,-0.707 1.803,-1.287c0.361,-0.335 1.705,-1.741 1.191,-2.35c-0.234,-0.272 -1.419,-0.581 -2.024,-0.778l-6.085,-1.419c-1.336,-0.23 -2.707,-0.212 -3.997,-0.771c-2.629,-1.14 -3.619,-3.266 -3.654,-5.486c-0.017,-0.989 0.669,-2.566 1.47,-3.838c0.07,-0.116 0.16,-0.251 0.244,-0.393c0.146,-0.246 -0.031,-0.54 -0.305,-0.622c-2.63,-0.78 -5.68,0.504 -8.344,-0.577c-2.466,-1 -2.6,-4.089 -2.218,-6.295c0.526,-3.032 2.058,-5.856 3.386,-8.595c1.297,-2.673 2.847,-4.816 4.793,-6.743c0.164,-0.164 0.134,-0.464 -0.096,-0.49c-0.313,-0.031 -0.66,-0.03 -0.878,-0.042c-2.708,-0.156 -5.38,-0.501 -8.41,-1.571c-1.183,-0.417 -2.387,-1.302 -3.741,-1.68c-0.991,-0.277 -2.494,0.064 -3.868,0.23c-2.815,0.332 -4.861,0.586 -7.515,1.069c-1.181,0.216 -2.766,0.371 -3.543,0.982c-0.293,0.233 -1.132,0.529 -0.93,1.612c0.393,2.081 3.116,1.513 5.106,4.464c0.705,1.048 0.793,2.342 1.219,3.512c0.54,1.481 1.621,2.643 2.726,3.725c0.857,0.843 2.088,1.845 1.823,3.248c-0.21,1.084 -1.522,1.964 -3.008,2.254c-2.122,0.413 -4.23,0 -6.144,-0.966c-2.914,-1.473 -4.004,-3.681 -4.479,-5.311c-0.478,-1.632 -0.473,-2.516 -0.036,-4.332c0.33,-1.377 0.583,-2.124 1.454,-3.976c0.775,-1.642 0.372,-3.741 -0.944,-2.667c-1.738,1.413 -1.47,3.66 -1.562,5.845c-0.067,1.645 -0.316,3.421 -0.614,4.929c-0.337,1.704 -0.479,3.387 -1.057,5.143c-1.877,5.67 -5.955,9.875 -9.211,13.182c-1.39,1.418 -10.795,15.222 -12.176,8.725c-1.41,-6.647 -0.8,-12.749 4.095,-17.877c5.157,-5.397 13.102,-8.336 16.939,-14.885c0.681,-1.162 1.314,-3.509 2.266,-5.172c0.542,-0.939 1.33,-1.773 0.035,-1.522c-0.555,0.109 -1.809,0.783 -2.228,0.916c-1.287,0.405 -2.328,0.603 -3.054,1.039c-1.449,0.874 -2.682,2.965 -3.67,4.34c-2.912,4.038 -6.662,9.727 -12.237,9.447c-3.361,-0.166 -7.284,-0.513 -10.223,0.651c-3.259,1.288 -11.783,3.705 -15.212,1.49c-3.825,-2.468 6.266,-13.067 8.422,-14.564c2.972,-2.06 6.16,-4.541 9.876,-4.919c6.166,-0.625 12.842,1.619 19.031,2.092c0.905,0.067 2.008,0.172 3.225,0.235c0.31,0.016 1.003,-0.081 1.481,-0.239c0.233,-0.08 1.344,-0.306 1.157,-0.825c-0.128,-0.362 -5.611,-1.374 -7.31,-2.076c-6.188,-1.812 -11.851,-5.229 -14.766,-11.241c-0.926,-1.906 -1.715,-4.249 -0.585,-6.229c0.882,-1.542 2.734,-2.267 4.364,-2.672c4.794,-1.184 10.365,-0.145 14.825,1.769c1.931,0.829 3.649,2.785 4.631,4.674c1.404,2.697 1.444,6.807 1.518,8.331c0.012,0.223 0.308,0.233 0.468,0.077c0.436,-0.425 1.247,-0.843 2.448,-0.037c0.603,0.408 0.823,1.087 0.848,1.786c0.022,0.645 -0.292,1.536 0.084,2.114c0.187,0.28 1.679,1.197 2.14,1.266c1.956,0.28 4.745,-0.222 7.081,-0.51c0.971,-0.117 1.661,-0.196 2.795,-0.307c0.575,-0.054 1.26,-0.113 1.341,-0.308c0.18,-0.436 -1.24,-1.282 -1.698,-1.657c-2.009,-1.652 -3.195,-3.403 -4.2,-5.23c-0.618,-1.119 -1.124,-2.561 -1.033,-4.159c0.266,-4.528 4.03,-5.897 7.757,-7.203c0.533,-0.189 1.449,-0.424 1.607,-0.866c0.188,-0.519 -0.645,-1.427 -0.874,-1.953c-0.313,-0.713 -0.549,-1.434 -0.703,-1.957c-0.372,-1.238 -0.559,-2.909 -0.137,-4.422c0.62,-2.219 2.035,-3.838 3.206,-4.988c0.903,-0.882 2.208,-1.576 3.446,-2.049c5.334,-2.038 10.213,-2.69 15.933,-2.236c4.256,0.337 7.974,1.799 11.645,3.952c0.154,0.093 0.442,0.27 0.769,0.459c0.094,0.055 -0.047,-0.202 -0.124,-0.278c-0.437,-0.452 -0.815,-0.83 -1.034,-1.034c-4.459,-4.105 -10.309,-6.85 -15.687,-9.46c-3.404,-1.649 -7.068,-2.826 -10.13,-4.652c-1.893,-1.128 -3.541,-2.696 -4.963,-4.319c-5.024,-5.73 -7.976,-12.908 -5.159,-20.436c0.318,-0.848 0.73,-1.672 1.156,-2.631c1.016,-2.308 2.016,-3.018 3.855,-3.492c9.18,-2.369 20.776,5.93 24.325,14.149c0.547,1.265 1.068,2.705 1.387,4.086c0.645,2.771 0.695,5.977 0.764,9.158c0.097,4.363 -0.333,9.424 2.059,13.295c0.897,1.458 2.406,2.926 3.808,4.118c0.327,0.278 0.704,0.607 1.104,0.958c0.127,0.117 0.391,0.168 0.373,0.001c-0.041,-0.36 -0.096,-0.696 -0.103,-0.84c-0.087,-1.74 0.459,-4.891 2.162,-6.761c0.945,-1.038 2.43,-1.773 3.517,-2.02c0.517,-0.116 1.157,-0.175 2.038,-0.149c0.704,0.022 1.939,0.294 2.111,0.053l-0.601,-1.469c-0.361,-0.58 -0.766,-1.172 -1.03,-1.776c-1.047,-2.399 -1.631,-4.413 -1.476,-7.024c0.187,-3.175 1.24,-9.489 4.466,-11.83c2.063,-1.498 4.462,-1.185 7.699,0.722c4.592,2.711 8.402,7.134 9.136,12.559c0.246,1.812 0.199,3.659 0.147,5.483c-0.072,2.61 -0.095,5.196 -0.44,7.791c-0.37,2.773 -0.916,5.518 -1.328,8.286c-0.19,1.267 -0.364,2.653 0.117,3.877c0.095,0.243 0.401,0.364 0.624,0.201c1.251,-0.918 2.366,-2.022 3.562,-3.016c0.299,-0.245 0.594,-0.507 0.812,-0.829c2.912,-4.287 2.486,-9.796 3.394,-14.736c1.052,-5.716 4.402,-8.981 10.13,-10.079c7.482,-1.43 6.146,7.877 4.41,12.26c-1.168,2.952 -3.399,5.203 -5.984,6.956c-2.145,1.455 -4.711,2.344 -7.034,3.543c-0.068,0.034 -0.15,0.186 -0.076,0.175c0.903,-0.148 1.82,-0.194 2.719,-0.097c4.884,0.529 8.712,3.412 10.467,7.964c0.873,2.269 0.884,4.76 0.431,7.278c-0.045,0.246 0.072,0.517 0.319,0.541c4.305,0.385 8.464,1.431 12.628,2.583c0.881,0.133 3.63,0.486 3.739,-1.02c0.038,-0.554 -1.657,-1.542 -2.678,-2.119c-3.611,-2.043 -7.527,-1.819 -9.932,-4.685c-2.494,-2.966 -3.172,-7.811 -3.275,-11.546c-0.059,-2.048 0.399,-5.99 2.932,-6.225c2.785,-0.262 5.91,1.106 8.287,2.449c2.637,1.488 4.618,3.885 5.64,6.736c0.754,2.105 1.081,4.41 0.843,6.634c-0.107,1.011 -1.644,6.62 -0.124,7.16c0.418,0.148 2.21,-0.496 3.574,-1.133c1.618,-0.756 3.093,-1.71 4.695,-2.492c4.358,-2.132 8.555,-4.356 12.888,-6.562c4.385,-2.238 8.362,-4.603 12.628,-6.848c6.256,-3.298 12.508,-7.128 19.161,-10.75c1.421,-0.774 3.401,-1.813 4.817,-2.602c0.17,-0.094 1.467,-0.767 1.325,-1.17c-0.147,-0.399 -1.16,-0.116 -1.425,-0.072c-5.082,0.845 -10.625,0.999 -15.251,3.151c-0.847,0.396 -1.71,0.793 -2.607,0.994c-1.081,0.246 -3.849,0.412 -3.698,-1.401c0.134,-1.588 2.399,-4.019 3.306,-5.198c0.618,-0.802 1.133,-1.688 1.671,-2.63c0.547,-0.964 0.768,-2.049 1.312,-2.972c0.58,-0.978 1.57,-1.933 2.396,-2.719c1.79,-1.705 8.05,-6.934 9.688,-2.782c0.37,0.93 0.346,2.279 0.602,3.447c0.467,2.143 1.34,4.33 2.463,6.376c0.689,1.256 2.031,3.23 3.94,2.885c0.566,-0.103 1.455,-0.75 2.221,-1.262c3.71,-2.488 6.873,-5.595 10.357,-8.368c5.358,-4.263 10.83,-9.072 16.282,-14.038c0.933,-0.848 2.372,-2.112 3.452,-3.331c0.256,-0.288 0.41,-0.32 0.334,-0.527c-0.087,-0.245 -1.206,-0.52 -1.571,-0.657c-3.739,-1.382 -5.756,-3.506 -7.021,-5.96c-0.209,-0.4 -0.267,-0.926 -0.649,-1.161c-0.441,-0.266 -1.279,-0.133 -1.976,-0.163c-2.006,-0.083 -3.964,-0.385 -6.263,-1.587c-1.389,-0.721 -2.043,-1.697 -2.693,-2.808c-0.688,-1.173 -1.52,-2.166 -1.224,-3.567c0.25,-1.192 1.462,-3.084 2.293,-3.965c0.173,-0.178 0.847,-0.722 0.739,-1.02c-0.177,-0.495 -2.234,-0.803 -2.649,-0.906c-0.777,-0.193 -2.136,-0.721 -2.499,-0.324c-0.262,0.289 -0.06,1.039 -0.037,1.352c0.16,2.071 -0.316,4.798 -2.312,6.348c-0.255,0.198 -0.651,0.419 -1.057,0.612c-0.307,0.145 -1.018,0.277 -1.021,0.715c-0.003,0.199 0.982,0.881 1.271,1.111c1.39,1.117 2.236,2.213 2.882,3.499c0.92,1.829 1.542,3.744 1.684,5.495c0.337,4.216 -2.28,8.031 -5.864,8.264c-0.435,0.028 -1.232,-0.174 -1.693,0.143c-0.447,0.309 -0.864,1.188 -1.278,1.622c-1.318,1.382 -2.796,2.164 -4.796,2.012c-1.924,-0.144 -4.164,-1.054 -5.699,-2.602c-0.179,-0.182 -0.934,-1.376 -1.343,-1.319c-0.377,0.055 -0.886,1.515 -1.229,2.241c-1.561,3.309 -6.178,11.947 -11.074,8.802c-0.862,-0.555 -1.476,-1.637 -1.855,-2.415c-0.169,-0.34 -0.365,-0.79 -0.653,-1.333c-0.198,-0.375 -0.42,-1.038 -0.789,-1.226l-3.554,0.46c-1.047,0.115 -2.394,0.353 -3.891,-0.808c-2.23,-1.733 -1.664,-5.425 -1.088,-8.21c0.5,-2.438 2.227,-6.063 3.812,-8.633c0.365,-0.59 0.939,-1.166 0.111,-1.144c-0.984,0.029 -2.289,0.776 -3.264,0.942c-1.222,0.202 -2.613,0.289 -3.972,0.261c-2.747,-0.052 -8.203,-1.693 -8.403,-4.475c-0.056,-0.731 0.664,-2.213 0.249,-2.703c-0.28,-0.327 -1.092,-0.225 -1.635,-0.344c-1.718,-0.371 -3.773,-1.523 -5.348,-2.436c-2.185,-1.27 -4.003,-2.639 -5.393,-4.34c-1.378,-1.68 -2.525,-3.553 -1.172,-5.853c0.579,-0.986 1.489,-1.702 2.297,-2.336c3.964,-3.104 8.13,-6.941 13.047,-7.356c3.488,-0.296 7.551,0.907 12,2.835c0.361,0.16 1.677,0.885 1.852,0.791c0.28,-0.158 -0.984,-1.711 -1.119,-1.981c-0.691,-1.395 -0.466,-3.205 -0.152,-5.118c0.181,-1.125 0.418,-2.606 1.045,-4.21c0.319,-0.812 0.989,-1.796 -0.102,-1.415c-2.606,0.91 -5.63,1.542 -8.628,0.89c-3.423,-0.746 -4.917,-2.91 -5.236,-5.032c-0.123,-0.819 0.118,-1.439 0.117,-2.429c0.002,-1.287 -1.165,-2.331 -1.26,-3.67c-0.084,-1.198 0.663,-2.788 1.357,-4.148c1.527,-2.982 4.249,-5.284 7.734,-5.221c2.211,0.039 4.531,0.782 6.615,1.469c2.191,0.724 4.343,1.568 6.418,2.576c1.338,0.651 2.669,1.483 4.137,1.8c0.481,0.104 1.838,0.126 2.118,-0.451c0.182,-0.373 -0.937,-1.258 -1.177,-1.511c-2.532,-2.668 -5.005,-5.478 -6.333,-8.965c-1.295,-3.404 -0.846,-7.626 3.088,-8.795c1.415,-0.416 2.7,-0.542 4.529,-0.17c0.712,0.143 1.942,-0.77 2.886,-0.863c1.678,-0.165 5.045,0.139 5.793,2.218c0.37,1.023 -0.107,2.622 -0.525,4.199c-0.837,3.155 -2.36,5.722 -4.267,8.503c-0.874,1.273 -2.258,3.808 -1.486,4.6c1.239,1.284 2.839,0.25 3.552,-0.459c1.068,-1.067 1.734,-2.51 2.681,-3.695c1.754,-2.192 3.735,-4.53 5.96,-5.743c3.077,-1.677 7.259,-2.544 11.842,0.454c1.317,0.868 2.369,1.84 3.177,2.87c0.412,0.526 0.758,1.074 1.247,1.527c1.143,1.065 2.605,2.288 2.337,3.926c-0.237,1.452 -1.406,2.585 -2.198,3.752c-0.96,1.414 -1.699,2.424 -2.521,3.171c-0.961,0.872 -2.007,1.243 -3.074,1.625c-1.066,0.382 -2.179,0.481 -3.452,0.425c-4.466,-0.196 -7.544,-2.187 -12.277,-4.42c-2.082,-0.984 -5.311,-3.228 -6.363,-1.375c-0.374,0.657 0.165,1.16 0.148,1.861c-0.058,2.268 0.311,4.851 0.745,5.015c0.84,0.323 1.809,0.815 2.302,1.213c1.325,1.067 1.462,2.544 1.685,4.042c0.103,0.683 0.291,1.436 0.329,2.208c0.038,0.854 -0.091,1.74 0.09,2.523c0.086,0.358 0.379,0.844 0.586,1.3c0.905,1.991 2.086,3.97 3.287,6.083c0.203,0.356 1.028,2.18 1.747,2.279c0.502,0.064 1.219,-1.044 1.632,-1.285c1.373,-0.811 3.784,-0.685 5.683,0.458c1.776,1.068 2.91,2.57 3.01,4.499c0.035,0.71 -0.452,2.256 -0.005,2.73c0.263,0.29 1.169,0.417 1.914,0.648c3.771,1.17 7.801,2.398 11.754,2.636c0.839,0.049 1.437,0.24 1.798,-0.006c0.8,-0.547 1.402,-2.905 1.881,-3.987c1.227,-2.77 3.21,-4.716 5.376,-6.755c3.24,-3.053 6.318,-6.789 9.921,-9.659c0.092,-0.07 0.031,-0.221 -0.086,-0.2c-4.468,0.828 -8.209,4.001 -12.234,6.04c-5.187,2.628 -9.815,1.94 -14.155,-1.951c-5.674,-5.085 2.541,-9.663 7.079,-10.938c3.055,-0.856 6.201,-0.445 9.161,0.549c4.101,1.377 7.657,4.666 12.05,4.863c0.249,0.011 0.504,-0.041 0.718,-0.173c1.281,-0.788 2.635,-1.443 4.093,-1.905c0.233,-0.074 0.346,-0.373 0.136,-0.501c-0.499,-0.31 -1.019,-0.594 -1.585,-0.814c-2.522,-0.961 -5.262,-0.03 -7.861,-0.225c-1.06,-0.079 -3.528,-0.352 -4.807,-1.411c-0.376,-0.309 -0.782,-0.88 -0.655,-1.334c0.149,-0.524 0.749,-0.72 1.191,-0.891c1.256,-0.489 2.654,-1.493 3.872,-1.682c1.421,-0.219 2.91,0.15 4.642,0.307c0.564,0.054 1.169,0.213 1.488,0.107c0.228,-0.077 2.333,-2.005 2.268,-2.267c-0.143,-0.589 -2.016,-0.921 -2.482,-1.083c-2.861,-1.004 -5.365,-2.83 -6.706,-4.275c-1.728,-1.867 -5.151,-6.764 -2.666,-9.209c1.062,-1.047 2.204,-0.998 3.613,-0.777c3.739,0.595 7.348,1.878 10.836,3.315c0.639,0.265 2.009,0.998 2.232,0.882c0.264,-0.134 -0.027,-0.741 -0.051,-0.793c-0.212,-0.487 -0.863,-1.593 -1.014,-2.017c-0.352,-0.976 -0.833,-2.255 -0.314,-3.143c0.909,-1.566 4.239,-0.246 6.027,0.452c2.582,1.005 4.409,2.086 5.995,3.424c1.775,1.498 3.112,2.765 3.804,4.445c0.311,0.752 0.4,1.837 0.099,2.868c-0.196,0.675 -1.585,2.586 -1.171,3.208c0.277,0.416 1.177,0.33 1.754,0.229c0.277,-0.049 0.473,-0.289 0.555,-0.558c0.71,-2.31 2.66,-4.21 4.526,-5.841c1.031,-0.903 2.174,-1.682 3.586,-1.54c1.434,0.143 2.289,2.19 2.915,3.219c0.088,0.141 0.171,0.286 0.253,0.428c0.129,0.231 0.414,0.336 0.646,0.207c2.039,-1.138 3.969,-2.242 6.077,-3.494l5.899,-3.965c0.237,-0.162 0.422,-0.483 0.189,-0.652c-1.53,-1.115 -2.902,-2.437 -4.416,-3.579c-1.206,-0.907 -2.544,-1.618 -3.918,-2.241l-3.2,-0.681c-1.07,-0.476 -2.107,-1.504 -2.961,-2.419c-0.631,-0.677 -0.998,-1.119 0.325,-0.874c2.223,0.408 4.504,0.557 6.524,0.853c1.318,0.192 2.602,0.592 3.86,0.878l3.847,0.363c0.729,-0.154 0.978,-0.681 2.088,-0.982c0.429,-0.117 1.169,-0.21 1.691,-0.144c0.769,0.103 2.346,1.136 1.907,0.128c-0.307,-0.699 -1.285,-1.916 -1.72,-2.516c-1.623,-2.262 -3.372,-4.432 -4.811,-6.818c-1.443,-2.391 -2.866,-4.795 -4.276,-7.207c-1.274,-2.175 -2.723,-4.246 -3.933,-6.461c-0.556,-1.01 -1.721,-3.575 -2.669,-4.102c-0.546,-0.306 -1.761,-0.139 -2.697,1.208c-2.098,3.014 -4.017,6.921 -6.094,10.379c-2.224,3.708 -4.605,6.958 -7.917,9.176c-3.584,2.404 -11.423,5.112 -15.626,3.404c-2.052,-0.83 -4.217,-2.022 -5.235,-3.583c-0.369,-0.563 -0.405,-1.787 -0.199,-2.657c0.751,-3.234 4.041,-5.903 5.868,-7.916c0.074,-0.082 0.8,-0.854 0.701,-1.124c-0.138,-0.383 -2.56,-0.472 -2.918,-0.521c-1.325,-0.19 -3.049,-0.328 -3.801,-1.367c-2.051,-2.838 0.203,-6.984 2.298,-9.946c1.985,-2.811 5.205,-4.416 7.903,-5.337c1.589,-0.539 2.858,-0.911 4.54,-1.108c2.958,-0.343 6.799,0.321 10.466,2.287c1.824,0.976 3.418,2.496 5.254,2.994c0.479,0.126 1.211,0.03 1.868,-0.15c0.251,-0.069 1.584,-0.412 1.466,-0.932c-0.128,-0.559 -2.068,-0.535 -2.469,-0.567c-1.768,-0.138 -4.648,-1.426 -3.196,-3.558c0.975,-1.437 2.506,-0.022 3.518,1.063c0.745,0.794 1.588,1.97 2.884,2.042c0.245,0.014 0.817,-0.092 0.995,-0.3c0.404,-0.464 0.241,-1.238 0.509,-1.985l0.211,-1.228c-0.206,-0.287 -0.404,-0.568 -0.593,-0.832c-1.332,-1.854 -2.283,-3.682 -4.284,-4.91c-1.808,-1.112 -4.042,-1.721 -5.806,-2.744c-2.633,-1.524 -5.134,-3.298 -7.366,-5.367c-0.225,-0.207 -0.417,-0.436 -0.628,-0.655l16.446,5.605c0.045,2.969 0.623,5.699 2.639,7.947c0.211,0.234 0.562,0.239 0.847,0.103c0.176,-0.085 0.366,-0.132 0.562,-0.146c0.335,-0.022 0.68,-0.162 0.798,-0.476c0.157,-0.424 0.313,-0.821 0.413,-1.163c0.407,-1.427 0.428,-2.885 0.355,-4.352l13.538,4.613c-0.249,0.865 -0.568,1.715 -1.057,2.432c-2.209,3.243 -5.205,2.06 -7.556,-0.179c-0.941,-0.898 -2.388,-2.398 -3.345,-2.028c-0.446,0.173 -0.935,0.846 -1.265,1.379c-0.17,0.269 -0.052,0.605 0.065,0.898c0.484,1.232 -1.045,2.932 -1.211,4.148c-0.108,0.807 -0.015,1.747 0.188,2.531c0.676,2.635 2.216,4.907 3.467,7.286c1.952,3.716 3.716,7.177 5.922,10.829c2.097,3.472 4.526,6.948 7.16,10.386c0.806,1.054 1.884,2.687 3.012,3.218c0.621,0.293 2.027,0.349 3.017,0.312c0.348,-0.018 0.665,-0.043 0.987,-0.068l-0.82,2.406c-0.673,0.116 -1.326,0.248 -1.903,0.434c-0.993,0.321 -2.074,0.928 -3.041,1.555c-0.653,0.426 -1.305,0.865 -1.956,1.312c-0.171,0.12 -0.222,0.341 -0.164,0.543c0.24,0.826 0.319,1.692 -0.182,2.291c-0.558,0.662 -1.608,0.341 -2.612,-0.212c-0.263,-0.143 -0.586,-0.134 -0.832,0.038c-0.947,0.665 -1.902,1.328 -2.87,1.97c-3.145,2.082 -6.499,4.161 -9.863,6.51c-0.263,0.182 -0.351,0.521 -0.274,0.834c0.098,0.403 0.166,0.808 0.2,1.215c0.017,0.207 0.153,0.412 0.364,0.408c0.346,-0.003 0.689,-0.022 0.888,0.018c1.827,0.366 3.683,1.775 4.843,2.968c1.888,1.943 3.472,3.909 3.539,6.459l-0.181,2.736c0.081,0.334 0.99,1.472 1.143,1.563c0.233,0.14 0.513,-0.009 0.643,-0.247c0.561,-1.051 1.274,-1.983 2.231,-2.71c0.231,-0.178 0.486,-0.284 0.732,-0.408l-17.007,49.907l-3.17,3.103Z" style="fill:#e8d4e7;fill-rule:nonzero;"/></svg>