<?xml version="1.0" encoding="UTF-8" standalone="no"?>
<!DOCTYPE svg PUBLIC "-//W3C//DTD SVG 1.1//EN" "http://www.w3.org/Graphics/SVG/1.1/DTD/svg11.dtd">
<svg width="100%" height="100%" viewBox="0 0 113 133" version="1.1" xmlns="http://www.w3.org/2000/svg" xmlns:xlink="http://www.w3.org/1999/xlink" xml:space="preserve" xmlns:serif="http://www.serif.com/" style="fill-rule:evenodd;clip-rule:evenodd;stroke-linejoin:round;stroke-miterlimit:2;">
    <g transform="matrix(1,0,0,1,64.3329,-1085.08)">
        <g transform="matrix(-2.38195,-2.22045e-16,-4.44089e-16,2.17809,587.746,638.64)">
            <g transform="matrix(169,-223,-223,-169,211.53,286.132)">
                <clipPath id="_clip1">
                    <path d="M0.09,0.001L0.192,-0.134L0.366,-0.002L0.264,0.132L0.09,0.001Z" clip-rule="nonzero"/>
                </clipPath>
                <g clip-path="url(#_clip1)">
                    <path d="M0.289,-0.032C0.289,-0.031 0.289,-0.031 0.289,-0.03C0.289,-0.024 0.284,-0.016 0.28,-0.013C0.278,-0.011 0.276,-0.009 0.274,-0.009C0.273,-0.008 0.269,-0.009 0.269,-0.007C0.268,-0.007 0.269,-0.005 0.269,-0.004C0.269,-0.001 0.268,-0.001 0.272,-0.002C0.275,-0.002 0.28,-0.002 0.282,-0.002C0.287,-0.002 0.287,-0.007 0.288,-0.012C0.29,-0.018 0.291,-0.024 0.292,-0.031C0.292,-0.032 0.293,-0.034 0.293,-0.035C0.291,-0.036 0.289,-0.034 0.289,-0.032ZM0.245,-0.04C0.245,-0.042 0.245,-0.043 0.245,-0.043C0.244,-0.044 0.226,-0.029 0.226,-0.028C0.227,-0.027 0.228,-0.028 0.229,-0.028C0.232,-0.029 0.237,-0.028 0.239,-0.027C0.239,-0.027 0.239,-0.027 0.24,-0.027C0.245,-0.027 0.245,-0.036 0.245,-0.04ZM0.236,-0.047C0.233,-0.047 0.228,-0.049 0.227,-0.046C0.226,-0.045 0.227,-0.043 0.227,-0.042C0.226,-0.037 0.224,-0.032 0.222,-0.029C0.221,-0.028 0.222,-0.028 0.222,-0.028C0.223,-0.027 0.225,-0.03 0.226,-0.031C0.23,-0.034 0.235,-0.038 0.238,-0.041C0.239,-0.042 0.241,-0.043 0.241,-0.043C0.242,-0.044 0.243,-0.046 0.243,-0.046C0.243,-0.047 0.237,-0.047 0.236,-0.047ZM0.226,-0.05L0.226,-0.05ZM0.225,-0.049L0.207,-0.053C0.205,-0.053 0.203,-0.052 0.203,-0.051C0.202,-0.05 0.202,-0.049 0.202,-0.047C0.2,-0.044 0.198,-0.041 0.197,-0.038C0.194,-0.035 0.191,-0.031 0.188,-0.029C0.186,-0.029 0.184,-0.029 0.183,-0.028C0.183,-0.027 0.185,-0.026 0.185,-0.026C0.189,-0.024 0.192,-0.022 0.195,-0.019C0.196,-0.018 0.198,-0.016 0.199,-0.016C0.2,-0.015 0.204,-0.016 0.205,-0.016C0.206,-0.016 0.213,-0.019 0.212,-0.02C0.212,-0.021 0.21,-0.02 0.209,-0.02C0.205,-0.02 0.203,-0.023 0.202,-0.027C0.201,-0.029 0.202,-0.031 0.202,-0.034C0.203,-0.038 0.202,-0.041 0.205,-0.044C0.209,-0.049 0.216,-0.05 0.222,-0.048C0.223,-0.047 0.227,-0.046 0.227,-0.048C0.227,-0.048 0.225,-0.049 0.225,-0.049ZM0.201,-0.057L0.204,-0.056C0.204,-0.057 0.203,-0.058 0.203,-0.058C0.202,-0.058 0.202,-0.058 0.201,-0.057ZM0.245,-0.024L0.245,-0.024ZM0.202,-0.009C0.201,-0.009 0.198,-0.006 0.199,-0.006C0.199,-0.005 0.202,-0.006 0.204,-0.006C0.205,-0.007 0.205,-0.007 0.206,-0.009C0.206,-0.01 0.207,-0.011 0.206,-0.012C0.206,-0.012 0.202,-0.01 0.202,-0.009ZM0.179,0.007L0.175,0.01C0.175,0.01 0.175,0.01 0.175,0.01C0.177,0.01 0.178,0.01 0.178,0.01C0.179,0.01 0.18,0.009 0.18,0.008C0.18,0.007 0.179,0.007 0.179,0.007ZM0.284,0.031L0.284,0.031ZM0.296,-0.036C0.297,-0.032 0.3,-0.032 0.303,-0.031C0.311,-0.029 0.317,-0.025 0.324,-0.021C0.326,-0.02 0.329,-0.018 0.331,-0.016C0.334,-0.012 0.338,-0.004 0.33,-0.001C0.327,-0.001 0.324,-0.001 0.321,-0.001C0.316,-0.002 0.314,-0.003 0.31,-0.004C0.307,-0.005 0.303,-0.007 0.301,-0.008C0.297,-0.011 0.292,-0.021 0.295,-0.029C0.295,-0.029 0.298,-0.034 0.295,-0.034L0.294,-0.031C0.292,-0.024 0.291,-0.018 0.29,-0.011C0.29,-0.009 0.289,-0.006 0.289,-0.003C0.29,0 0.294,0 0.297,0.001C0.298,0.002 0.3,0.003 0.302,0.003C0.311,0.008 0.323,0.012 0.328,0.02C0.329,0.022 0.33,0.024 0.33,0.026C0.329,0.028 0.326,0.03 0.325,0.031C0.321,0.033 0.315,0.031 0.312,0.03L0.301,0.026C0.299,0.025 0.296,0.023 0.293,0.021C0.291,0.019 0.288,0.016 0.288,0.013C0.287,0.01 0.288,0.007 0.288,0.005C0.289,0.003 0.291,0 0.289,-0.001L0.288,-0.001C0.288,0 0.288,0.001 0.288,0.002C0.286,0.009 0.286,0.015 0.285,0.021C0.285,0.024 0.284,0.028 0.286,0.029L0.294,0.033C0.301,0.038 0.309,0.042 0.314,0.048C0.316,0.05 0.32,0.055 0.319,0.059C0.319,0.06 0.316,0.062 0.314,0.062C0.311,0.063 0.304,0.061 0.302,0.06C0.298,0.059 0.293,0.056 0.29,0.054C0.287,0.052 0.284,0.047 0.283,0.044C0.283,0.044 0.282,0.041 0.282,0.041C0.281,0.041 0.281,0.045 0.281,0.045C0.281,0.047 0.282,0.048 0.283,0.05C0.285,0.054 0.287,0.059 0.288,0.064C0.29,0.071 0.29,0.078 0.288,0.084C0.286,0.087 0.284,0.09 0.282,0.092C0.278,0.095 0.274,0.096 0.27,0.095C0.265,0.094 0.262,0.09 0.26,0.085C0.256,0.078 0.257,0.071 0.26,0.066C0.262,0.061 0.267,0.058 0.27,0.054C0.273,0.051 0.275,0.049 0.277,0.047C0.277,0.046 0.279,0.046 0.279,0.045L0.281,0.034C0.282,0.032 0.283,0.026 0.28,0.029C0.28,0.03 0.28,0.033 0.28,0.034C0.278,0.04 0.273,0.046 0.267,0.05C0.265,0.051 0.26,0.051 0.257,0.052C0.252,0.053 0.244,0.051 0.242,0.049C0.24,0.047 0.239,0.044 0.24,0.042C0.24,0.04 0.242,0.039 0.243,0.038C0.251,0.032 0.265,0.028 0.276,0.028C0.277,0.028 0.278,0.028 0.28,0.028C0.284,0.027 0.283,0.022 0.283,0.018C0.284,0.012 0.286,0.006 0.286,0C0.287,-0.004 0.284,-0.001 0.283,0C0.283,0 0.283,0.004 0.283,0.004C0.283,0.006 0.282,0.009 0.281,0.011C0.278,0.016 0.272,0.022 0.265,0.023C0.259,0.023 0.254,0.023 0.25,0.021C0.249,0.021 0.246,0.019 0.246,0.018C0.245,0.017 0.244,0.015 0.244,0.012C0.244,0.009 0.249,0.005 0.252,0.004C0.254,0.003 0.263,0.001 0.261,0C0.259,-0.001 0.257,-0.003 0.256,-0.003C0.252,-0.005 0.25,-0.007 0.247,-0.009C0.246,-0.01 0.245,-0.012 0.245,-0.012C0.245,-0.012 0.245,-0.016 0.243,-0.016C0.243,-0.015 0.242,-0.01 0.242,-0.009C0.241,-0.008 0.241,-0.003 0.239,-0.003C0.239,-0.003 0.24,-0.007 0.24,-0.009C0.241,-0.013 0.242,-0.016 0.243,-0.021C0.243,-0.023 0.244,-0.029 0.242,-0.026C0.24,-0.025 0.241,-0.024 0.241,-0.022C0.242,-0.016 0.239,-0.008 0.234,-0.005C0.231,-0.004 0.23,-0.005 0.229,-0.005C0.227,-0.006 0.225,-0.005 0.223,-0.006C0.221,-0.008 0.217,-0.012 0.216,-0.014C0.216,-0.016 0.217,-0.02 0.216,-0.02C0.215,-0.02 0.209,-0.015 0.209,-0.014C0.208,-0.013 0.207,-0.007 0.207,-0.006C0.207,-0.004 0.208,-0.003 0.209,-0.002C0.212,0.004 0.214,0.011 0.216,0.018C0.218,0.024 0.22,0.035 0.216,0.039C0.215,0.041 0.211,0.043 0.209,0.044C0.208,0.044 0.206,0.043 0.205,0.043C0.201,0.042 0.199,0.04 0.196,0.037C0.192,0.033 0.191,0.029 0.188,0.024C0.187,0.022 0.185,0.019 0.185,0.016C0.184,0.013 0.185,0.008 0.185,0.006C0.185,0.006 0.187,0.003 0.186,0.003C0.186,0.002 0.183,0.004 0.182,0.006C0.181,0.007 0.18,0.01 0.18,0.011C0.18,0.013 0.182,0.016 0.182,0.019C0.184,0.026 0.187,0.035 0.188,0.043C0.188,0.045 0.189,0.048 0.188,0.05C0.187,0.057 0.178,0.054 0.175,0.051C0.17,0.047 0.166,0.039 0.164,0.032C0.162,0.027 0.162,0.021 0.164,0.017C0.165,0.017 0.165,0.016 0.164,0.017C0.162,0.018 0.162,0.02 0.161,0.022C0.16,0.025 0.158,0.029 0.156,0.031C0.154,0.035 0.151,0.039 0.148,0.04C0.148,0.04 0.147,0.04 0.147,0.04C0.144,0.041 0.138,0.038 0.137,0.034C0.137,0.031 0.138,0.027 0.139,0.024C0.141,0.021 0.142,0.019 0.146,0.016C0.149,0.014 0.154,0.014 0.158,0.015C0.159,0.015 0.16,0.016 0.162,0.016C0.164,0.016 0.165,0.015 0.166,0.014L0.178,0.006C0.179,0.006 0.178,0.005 0.178,0.005C0.177,0.005 0.176,0.005 0.175,0.005C0.174,0.006 0.173,0.008 0.172,0.009C0.167,0.013 0.16,0.013 0.155,0.012C0.153,0.011 0.15,0.01 0.149,0.008C0.146,0.006 0.144,0.004 0.143,0.002C0.139,-0.002 0.138,-0.008 0.139,-0.014L0.14,-0.018C0.142,-0.021 0.146,-0.022 0.149,-0.022C0.153,-0.021 0.157,-0.017 0.159,-0.014C0.162,-0.01 0.164,-0.007 0.167,-0.004C0.168,-0.003 0.17,-0.002 0.171,0C0.173,0.002 0.174,0.004 0.178,0.004C0.182,0.004 0.184,0.001 0.187,-0.001C0.192,-0.004 0.194,-0.006 0.199,-0.009C0.2,-0.01 0.205,-0.013 0.204,-0.014C0.204,-0.015 0.199,-0.015 0.199,-0.014C0.197,-0.014 0.198,-0.011 0.197,-0.01C0.196,-0.009 0.195,-0.008 0.194,-0.007C0.191,-0.005 0.187,-0.002 0.183,-0.001C0.179,-0.001 0.177,-0.002 0.175,-0.003C0.172,-0.004 0.171,-0.004 0.169,-0.005C0.164,-0.009 0.157,-0.017 0.155,-0.025C0.154,-0.03 0.151,-0.04 0.156,-0.042C0.159,-0.043 0.164,-0.041 0.166,-0.039C0.171,-0.037 0.174,-0.035 0.177,-0.032C0.177,-0.032 0.179,-0.03 0.18,-0.03C0.18,-0.031 0.178,-0.033 0.178,-0.035C0.177,-0.039 0.178,-0.043 0.179,-0.045C0.181,-0.049 0.182,-0.051 0.186,-0.053C0.19,-0.056 0.194,-0.055 0.198,-0.054C0.2,-0.054 0.201,-0.053 0.203,-0.053C0.205,-0.053 0.204,-0.054 0.203,-0.055C0.203,-0.055 0.202,-0.055 0.202,-0.055C0.199,-0.056 0.194,-0.058 0.191,-0.058C0.19,-0.058 0.188,-0.056 0.187,-0.056C0.185,-0.055 0.182,-0.055 0.18,-0.054C0.175,-0.053 0.171,-0.051 0.167,-0.051C0.162,-0.051 0.158,-0.053 0.154,-0.056C0.152,-0.059 0.149,-0.062 0.147,-0.065C0.146,-0.067 0.146,-0.069 0.146,-0.072C0.146,-0.074 0.148,-0.076 0.15,-0.078C0.154,-0.08 0.159,-0.081 0.163,-0.08C0.167,-0.079 0.171,-0.078 0.174,-0.075C0.179,-0.072 0.183,-0.068 0.187,-0.064C0.188,-0.063 0.189,-0.061 0.191,-0.061C0.192,-0.06 0.191,-0.062 0.191,-0.062C0.187,-0.068 0.184,-0.075 0.184,-0.082C0.184,-0.086 0.185,-0.091 0.188,-0.094C0.189,-0.095 0.19,-0.097 0.192,-0.096C0.196,-0.095 0.198,-0.09 0.2,-0.086C0.203,-0.08 0.203,-0.072 0.204,-0.065C0.204,-0.062 0.204,-0.058 0.206,-0.056C0.208,-0.054 0.212,-0.054 0.215,-0.053C0.215,-0.053 0.215,-0.053 0.215,-0.053C0.216,-0.053 0.214,-0.055 0.213,-0.056C0.212,-0.059 0.209,-0.063 0.209,-0.068C0.21,-0.071 0.211,-0.074 0.213,-0.076C0.215,-0.078 0.218,-0.076 0.22,-0.075C0.223,-0.072 0.224,-0.069 0.225,-0.066C0.226,-0.06 0.225,-0.052 0.229,-0.05C0.23,-0.049 0.234,-0.049 0.237,-0.049C0.239,-0.048 0.243,-0.048 0.245,-0.048C0.248,-0.049 0.247,-0.051 0.246,-0.053C0.244,-0.059 0.254,-0.068 0.259,-0.072C0.262,-0.073 0.265,-0.075 0.269,-0.075L0.292,-0.058C0.29,-0.053 0.287,-0.048 0.283,-0.044C0.281,-0.043 0.278,-0.041 0.275,-0.04C0.27,-0.039 0.263,-0.039 0.258,-0.041C0.255,-0.042 0.253,-0.043 0.252,-0.044C0.251,-0.045 0.25,-0.047 0.249,-0.047C0.247,-0.047 0.247,-0.04 0.247,-0.038C0.246,-0.033 0.245,-0.028 0.248,-0.024C0.248,-0.024 0.248,-0.024 0.249,-0.024C0.25,-0.024 0.251,-0.026 0.252,-0.027C0.255,-0.031 0.261,-0.034 0.269,-0.035L0.285,-0.035C0.286,-0.035 0.287,-0.034 0.288,-0.035C0.289,-0.035 0.292,-0.036 0.293,-0.037C0.294,-0.038 0.295,-0.043 0.295,-0.045C0.296,-0.048 0.296,-0.051 0.297,-0.054L0.298,-0.053C0.298,-0.05 0.297,-0.048 0.297,-0.045C0.296,-0.042 0.295,-0.039 0.296,-0.036Z" style="fill:rgb(195,151,198);fill-rule:nonzero;"/>
                </g>
            </g>
        </g>
    </g>
</svg>
