<?xml version="1.0" encoding="UTF-8" standalone="no"?><!DOCTYPE svg PUBLIC "-//W3C//DTD SVG 1.1//EN" "http://www.w3.org/Graphics/SVG/1.1/DTD/svg11.dtd"><svg width="100%" height="100%" viewBox="0 0 58 18" version="1.1" xmlns="http://www.w3.org/2000/svg" xmlns:xlink="http://www.w3.org/1999/xlink" xml:space="preserve" xmlns:serif="http://www.serif.com/" style="fill-rule:evenodd;clip-rule:evenodd;stroke-linejoin:round;stroke-miterlimit:2;"><path d="M2.107,7.558c2.031,-1.99 4.212,-0.544 9.098,-3.471c6.233,-3.737 12.975,-4.577 20.203,-3.847c2.905,0.292 6.255,0.387 9.006,1.457c3.58,1.394 7.086,4.551 9.801,5.918c2.333,1.173 4.669,1.468 7.507,4.36c0.123,0.127 -0.093,0.294 -0.258,0.22c-5.623,-2.57 -11.055,-2.872 -17.046,-0.048c-5.487,2.589 -11.32,4.681 -17.391,5.212c-5.89,0.513 -10.241,-1.649 -15.64,-3.254c-1.476,-0.442 -3.646,-0.942 -5.558,-1.041c-0.245,-0.012 -4.162,-1.156 0.278,-5.506Z" style="fill:#c397c6;fill-rule:nonzero;"/></svg>