<?xml version="1.0" encoding="UTF-8" standalone="no"?><!DOCTYPE svg PUBLIC "-//W3C//DTD SVG 1.1//EN" "http://www.w3.org/Graphics/SVG/1.1/DTD/svg11.dtd"><svg width="100%" height="100%" viewBox="0 0 419 417" version="1.1" xmlns="http://www.w3.org/2000/svg" xmlns:xlink="http://www.w3.org/1999/xlink" xml:space="preserve" xmlns:serif="http://www.serif.com/" style="fill-rule:evenodd;clip-rule:evenodd;stroke-linejoin:round;stroke-miterlimit:2;"><clipPath id="_clip1"><path d="M404.422,163.503l-174.994,185.734l-261.316,-233.233l174.994,-185.734l261.316,233.233Z" clip-rule="nonzero"/></clipPath><g clip-path="url(#_clip1)"><path d="M75.896,36.978c-1.113,1.408 -2.067,2.772 -3.422,3.96c-2.757,2.42 -6.585,3.724 -8.783,6.829c-1.094,1.546 -1.499,3.611 -1.379,5.444c0.088,1.361 0.66,1.854 1.341,0.184c0.333,-0.819 0.502,-1.692 0.84,-2.511c0.384,-0.928 1.027,-1.477 1.665,-2.218c0.281,-0.329 0.276,-0.742 0.47,-1.139c0.946,-1.948 3.022,-2.771 4.757,-3.887c0.87,-0.562 1.748,-1.185 2.532,-1.891c1.121,-1.008 2.057,-2.193 2.531,-3.625c0.232,-0.708 0.653,-1.452 0.769,-2.18c-0.646,-0.139 -1.002,0.631 -1.321,1.034Zm-7.565,21.267c0.742,-0.113 1.692,-0.12 2.381,-0.067c0.232,0.019 0.85,-0.194 0.695,-0.472c-0.087,-0.156 -0.492,-0.204 -0.654,-0.242c-0.421,-0.098 -0.85,-0.167 -1.284,-0.208c-0.69,-0.065 -1.481,-0.106 -2.147,0.137c-0.175,0.063 -0.494,0.329 -0.542,0.514c-0.218,0.848 1.216,0.385 1.551,0.338Zm30.299,37.968c-0.46,0.358 -1.389,0.957 -1.456,1.326c-0.075,0.413 0.503,1.081 0.784,1.966c0.238,0.759 0.227,1.979 1.014,1.767c1.307,-0.351 2.771,-1.181 3.9,-1.907c4.878,-3.139 7.942,-4.559 14.535,-6.872c2.6,-0.913 4.927,-1.834 2.193,-2.1c-0.481,-0.048 -0.962,-0.087 -1.443,-0.137c-1.033,-0.105 -2.066,-0.252 -3.071,-0.504c-1.272,-0.319 -2.565,-0.62 -3.785,-1.092c-1.636,-0.635 -1.969,-0.406 -3.239,0.695c-3.039,2.647 -6.324,4.427 -9.432,6.858Zm-33.255,-26.184c-1.719,2.092 -2.229,1.823 0.761,2.416c1.816,0.36 1.145,0.221 0.745,-1.236c-0.14,-0.504 -0.047,-1.181 -0.242,-1.564c-0.413,-0.81 -0.942,-0.007 -1.264,0.384Zm2.164,7.757c-1.037,0.793 -2.053,1.385 -3.09,2.012c-1.604,0.974 -3.881,1.395 -6.107,1.538c-2.259,0.142 -5.037,0.228 -7.314,0.406c-2.427,0.192 -2.966,0.008 -1.394,1.337c5.541,4.685 8.507,7.925 9.067,15.722c0.064,0.892 -0.138,1.965 0.132,2.797c0.285,0.874 1.716,-0.09 2.263,-0.393c1.744,-0.967 4.722,-2.6 5.654,-4.44c0.582,-1.15 0.631,-2.493 1.39,-3.582c0.82,-1.17 2.067,-1.883 3.036,-2.911c0.384,-0.408 0.709,-0.776 0.855,-1.313c0.168,-0.626 0.013,-0.917 0.506,-0.223c0.56,0.79 0.576,2.137 0.433,2.973c-0.18,1.065 -0.594,2.067 -0.992,3.071c-0.263,0.66 -0.935,1.784 -0.734,2.498c0.126,0.454 0.823,0.723 1.192,0.575c0.624,-0.246 1.218,-2.102 1.56,-3.072c0.746,-2.103 0.184,-3.111 2.448,-5.16c0.229,-0.209 0.904,-0.875 0.918,-1.119c0.072,-1.227 -3.084,-3.583 -3.811,-4.405c-1.139,-1.285 -2.908,-3.895 -3.716,-5.352c-1.307,-2.38 -1.1,-1.863 -2.296,-0.959Zm15.542,49.266c-2.314,-0.822 -4.779,-1.687 -6.788,-3.095c-0.671,-0.472 -5.852,-2.832 -6.426,-1.207c-0.303,0.867 4.124,4.975 4.866,5.499c3.912,2.762 8.068,4.097 12.459,5.87c5.163,2.081 11.374,3.835 15.44,7.737c0.847,0.811 6.244,2.603 5.151,0.124c-1.177,-2.673 -2.527,-5.397 -2.768,-8.479c-0.161,-2.114 0.311,-2.161 -2.01,-2.67c-2.928,-0.644 -6.057,-1.718 -8.665,-2.759c-1.652,-0.658 -2.315,-1.166 -4.091,-0.726c-1.772,0.44 -4.851,0.522 -7.168,-0.294Zm-10.674,-8.794c-0.532,-0.27 -1.259,-0.321 -1.96,-0.272c-0.466,0.031 -0.921,0.106 -1.3,0.191c-2.417,0.538 -0.473,1.054 2.08,1.296c0.49,0.045 1.384,0.164 1.747,-0.262c0.324,-0.383 -0.257,-0.795 -0.567,-0.953Zm-2.885,6.444c-0.4,-0.303 -0.756,-0.658 -1.167,-0.953c-0.189,-0.138 -0.482,-0.4 -0.731,-0.429c-0.632,-0.068 -0.136,1.227 0.009,1.439l3.547,2.323c0.293,0.181 0.714,0.411 0.546,-0.071c-0.336,-0.952 -1.429,-1.724 -2.204,-2.309Zm47.426,34.987c1.938,0.49 5.146,1.211 8.064,3.232c1.453,1.005 3.176,2.585 2.921,1.655c-0.294,-1.124 -1.268,-1.906 -2.142,-2.61c-2.279,-1.837 -4.306,-2.248 -8.137,-4.667c-1.049,-0.661 -2.233,-1.269 -3.179,-2.063c-2.992,-2.516 -0.012,3.828 2.473,4.453Zm4.181,-9.297c-3.613,-0.589 -3.222,0.31 -0.375,1.075c4.192,1.127 1.739,-0.851 0.375,-1.075Zm3.078,8.678c0.508,0.195 1.018,0.308 1.497,0.23c1.553,-0.25 3.601,-0.379 5.266,-0.465c3.324,-0.175 0.747,-0.715 -2.491,-3.367c-1.95,-1.596 -4.683,-1.965 -7.052,-2.718c-1.413,-0.443 -3.319,-0.679 -5.009,-1.13c-0.7,-0.191 -1.636,-0.657 -1.923,-0.344c-0.453,0.498 0.288,1.603 0.639,2.066c1.616,2.121 4.581,3.522 6.968,4.674c0.604,0.291 1.347,0.765 2.105,1.054Zm2.88,-10.743c1.897,-0.682 6.553,-2.577 3.367,-2.262c-0.905,0.092 -1.864,0.024 -2.83,0.107c-1.918,0.164 -3.432,0.383 -5.474,0.552c-0.203,0.016 -2.511,0.319 -2.595,0.515c-0.207,0.452 0.43,0.417 0.709,0.796c0.46,0.61 -0.032,1.147 1.119,1.234c0.988,0.075 1.935,-0.4 2.993,-0.653c0.828,-0.201 1.898,0.001 2.711,-0.289Zm-54.05,-89.245c-0.37,0.116 -0.486,0.317 -0.128,0.485c0.808,0.383 1.763,0.974 2.64,1.223c0.885,0.251 1.909,-0.379 2.696,-0.726c4.052,-1.781 0.274,-1.745 -2.071,-1.461c-0.992,0.118 -2.151,0.167 -3.137,0.479Zm1.686,-9.886c-0.431,0.015 -0.869,0.003 -1.299,-0.024c-1.08,-0.069 -2.141,-0.297 -3.224,-0.337c-0.74,-0.027 -1.823,-0.164 -2.529,0.086c-0.43,0.158 -0.875,0.979 -1.167,1.443c-0.806,1.28 -1.482,3.042 -1.598,4.548c-0.021,0.28 -0.068,0.928 0.191,1.132c0.436,0.342 1.191,-0.411 1.515,-0.643c0.753,-0.534 1.488,-1.07 2.213,-1.638c2.292,-1.794 3.648,-2.46 6.308,-3.932c1.316,-0.721 0.725,-0.665 -0.41,-0.635Zm1.964,1.349c-0.52,0.201 -2.235,0.893 -5.077,2.949c-2.505,1.813 -1.964,2.082 -0.307,1.381c1.29,-0.542 2.611,-1.227 3.769,-2.012c0.66,-0.449 1.355,-0.845 1.895,-1.434c0.346,-0.377 1.981,-1.753 -0.28,-0.884Zm-4.866,81.908c-1.775,-1.323 -3.613,-2.617 -5.448,-3.86c-1.548,-1.049 -1.433,-0.866 -1.464,0.308c-0.033,1.217 0.008,3.16 0.037,3.338c0.092,0.603 0.648,1.469 1.049,2.197c1.474,2.684 3.14,5.258 4.59,7.952c1.206,2.242 1.796,5.406 3.398,7.373c1.487,1.788 -0.153,-3.095 -0.455,-5.148c-0.57,-3.895 -0.487,-5.991 -0.48,-8.982c0.002,-1.61 0.132,-2.166 -1.227,-3.178Zm149.271,40.406l1.079,1.962c0.262,0.071 0.366,-0.371 0.354,-0.529c-0.041,-0.575 -0.568,-1.243 -0.872,-1.709c-0.346,-0.527 -0.758,-1.532 -1.376,-1.775l0.815,2.051Zm4.264,5.843c-0.488,0.719 -2.119,1.136 -2.161,2.36c-0.018,0.404 0.387,1.01 0.612,1.265c1.121,1.262 3.272,2.362 4.228,3.736c0.386,0.558 0.61,1.433 1.206,1.433c0.106,-0.742 -0.378,-1.703 -0.524,-2.653c-0.27,-1.758 -0.379,-3.436 -1.211,-4.785c-0.278,-0.46 -1.146,-2.389 -1.901,-1.98c-0.164,0.087 -0.121,0.427 -0.249,0.624Zm-17.178,-19.749l-0.945,-1.961l-3.712,-5.078c-0.778,-1.205 -1.55,-2.298 -2.623,-3.27c-0.063,-0.056 -1.26,-0.93 -1.278,-0.658c-0.054,0.752 0.301,1.532 0.604,2.241c0.441,1.025 0.65,2.076 1.348,2.984c1.246,1.618 2.034,2.308 4.199,4.24c0.655,0.584 1.751,1.195 2.407,1.502Zm-10.594,-15.96c-0.556,-0.676 -1.397,0.378 -1.191,1.251c0.973,0.45 1.627,-0.719 1.191,-1.251Zm4.982,3.687c4.355,2.284 8.517,3.259 13.302,4.499c3.169,0.823 6.637,1.762 9.575,3.161c2.516,1.196 4.227,2.666 5.783,4.988c1.686,2.521 2.597,6.231 1.599,9.205c-0.053,0.156 -0.119,0.337 -0.182,0.53c0.003,0.001 0.008,0.001 0.012,0.002c0.538,0.119 1.073,0.247 1.626,0.242c1.102,-0.005 2.154,-0.521 3.144,-0.95c1.538,-0.67 2.973,-1.569 4.434,-2.388c1.333,-0.748 2.572,-1.666 3.971,-2.3c1.824,-0.825 3.77,-0.879 5.627,-1.513c0.799,-0.274 2.269,-1.166 1.654,0.366c-0.145,0.366 -0.443,0.618 -0.545,1.019c-0.192,0.742 -0.013,1.514 0.061,2.258c0.456,4.605 -4.409,8.159 -8.6,8.894c-0.981,0.172 -2.007,0.177 -3.031,0.051c-0.62,-0.075 -0.642,0.109 -0.024,0.29c1.655,0.49 3.381,0.719 5.19,0.555c4.384,-0.397 8.437,0.171 12.776,0.42c4.082,0.234 8.214,1.021 12.318,0.725c0.919,-0.064 2.997,0.129 3.415,-0.248c0.242,-0.214 0.933,-2.49 0.611,-2.691c-0.564,-0.357 -1.529,1.705 -2.186,0.953c-0.229,-0.262 -0.031,-1.327 0.188,-1.858c0.216,-0.522 0.894,-1.04 1.372,-1.222c0.28,-0.103 0.877,-0.07 1.116,-0.286l1.139,-1.934c0.926,-1.739 1.219,-4.724 1.475,-6.929c0.205,-1.797 0.549,-3.616 0.811,-5.524c0.329,-2.425 0.443,-5.798 0.928,-8.245c0.132,-0.671 0.313,-1.49 0.32,-1.894c0.027,-1.197 -0.437,-0.319 -0.637,0.072c-1.679,3.26 -4.008,4.407 -4.254,4.059c-0.161,-0.236 0.432,-0.845 0.746,-1.208c1.745,-2.011 3.789,-3.752 3.636,-5.33c-0.024,-0.285 -0.694,-1.018 -1.024,-1.398c-2.112,-2.44 -4.618,-4.734 -7.008,-6.913c-3.442,-3.143 -7.115,-6.12 -11.091,-8.611c-0.005,-0.003 -3.643,-1.955 -3.643,-1.955c-0.236,-0.022 -0.367,0.092 -0.346,0.341c0,0 1.409,1.923 2.446,4.933c0.587,1.707 0.74,3.488 1.55,5.124c0.785,1.591 1.884,3.03 2.451,4.726c0.786,2.354 0.734,4.875 -0.76,6.998c-0.957,1.362 -3.475,2.674 -3.475,2.674c-0.145,0.322 0.344,0.998 0.447,1.484c0.101,0.454 0.296,1.278 0.183,1.558c-0.263,0.646 -1.981,0.71 -2.732,0.549c-1.164,-0.249 -2.239,-1.415 -3.366,-2.119c-3.588,-2.243 -8.734,-2.331 -12.796,-3.309c-2.752,-0.668 -5.719,-1.239 -8.478,-1.813c-5.651,-1.171 -11.908,-1.911 -17.738,-3.211c-1.627,-0.362 -3.454,-0.898 -4.964,0.216c-1.004,0.74 -1.15,1.491 -2.523,1.906c-1.137,0.346 -2.604,0.433 -3.753,0.148c-0.867,-0.215 -1.635,-0.687 -2.592,-0.458c0.248,0.998 1.173,1.011 1.842,1.361Zm79.037,1.848c-0.536,3.304 -0.966,6.981 -1.288,10.313c0.81,-0.595 0.832,-1.86 1.272,-3.189c0.248,-0.741 0.692,-1.462 0.851,-2.043c0.286,-1.025 0.209,-4.664 -0.835,-5.081Zm7.775,33.497c1.638,0.902 2.503,1.938 3.925,2.767c-0.011,0.064 0.068,0.063 0.074,-0.046c0.037,-0.004 0.09,-0.04 0.083,-0.108c-0.082,-0.583 -0.63,-1.379 -0.895,-2.048c-1.087,-2.753 -2.101,-5.653 -2.619,-8.569c-0.898,-5.054 0.158,-10.212 -1.198,-15.267c-0.357,-1.348 -0.18,-2.919 -0.51,-3.929c-0.156,-0.481 -0.738,-1.195 -1.359,-1.279c-0.596,-0.084 -1.609,0.912 -2.661,0.503c0.107,0.646 -0.065,0.908 0.101,1.355c0.266,0.734 1.13,1.139 1.661,1.64c4.717,4.457 2.376,10.849 1.546,16.304c-0.315,2.081 0.27,4.188 0.165,5.942c-0.047,0.732 -0.305,1.375 -0.045,1.762c0.25,0.361 1.18,0.67 1.732,0.973Zm-31.999,-59.375c0.44,0.05 1.171,-0.219 1.624,-0.323c0.283,-0.06 1.537,-0.164 1.001,-0.645c-0.234,-0.209 -0.703,-0.29 -1.009,-0.35c-0.712,-0.143 -1.444,-0.186 -2.148,-0.361c-0.717,-0.179 -1.41,-0.439 -2.121,-0.639c-0.456,-0.127 -1.405,-0.531 -1.893,-0.201c-0.04,0.026 -0.073,0.056 -0.107,0.092c-0.663,0.724 1.119,1.248 1.501,1.38c1.033,0.36 1.995,0.918 3.152,1.047Zm0.965,-3.115c0.322,-0.092 0.075,-0.438 -0.066,-0.697l-1.41,-1.337c-0.633,-0.123 -5.845,-0.747 -5.655,0.208c0.09,0.368 1.025,0.475 1.319,0.536c0.541,0.11 1.092,0.182 1.634,0.297c0.952,0.204 1.863,0.559 2.81,0.787c0.358,0.086 0.998,0.316 1.368,0.206Zm0.615,-3.737c0.55,-0.25 1.145,-0.899 1.768,-1.331c3.213,-2.221 3.648,-2.823 -0.221,-1.377c-1.85,0.69 -3.386,0.865 -5.023,1.829c-1.515,0.884 -1.867,1.268 -0.098,1.283c1.197,0.006 2.71,-0.004 3.574,-0.404Zm-10.698,6.025c-0.704,-0.17 -1.594,0.023 -1.705,0.426c-0.078,0.271 0.445,1.035 0.588,1.388c0.909,2.237 1.665,4.585 2.534,6.848c0.062,0.159 0.484,1.002 0.134,1.18c-0.53,0.278 -2.116,-1.674 -2.744,-2.13c-1.875,-1.362 -4.338,-2.866 -4.845,-5.31c-0.272,-1.311 0.597,-1.607 1.246,-1.709c0.784,-0.127 1.23,-0.757 0.489,-0.77c-0.656,-0.013 -1.335,0.266 -1.959,0.432c-9.656,3.466 -12.053,4.498 -12.053,4.498c-4.968,1.631 -14.782,6.877 -16.402,7.764c-4.448,2.434 -5.75,2.397 -8.955,4.046c-0.287,0.15 -2.248,1.383 -1.549,1.268c0.464,-0.078 1.388,-0.58 1.707,-0.727c1.638,-0.778 3.503,-1.075 5.775,-0.807c1.083,0.129 2.292,0.693 3.727,0.662c1.873,-0.04 4.301,-1.684 6.115,-2.24c2.446,-0.747 5.009,-1.31 7.573,-1.303c4.961,0.013 10.209,0.542 14.535,3.009c3.439,1.96 6.633,5.928 8.729,9.166c1.108,1.73 1.322,1.638 -0.43,-2.429c-1.724,-4.003 -0.242,-14.13 -0.263,-16.524c-0.019,-1.606 -0.079,-3.668 -0.442,-4.892c-0.273,-0.926 -0.716,-1.587 -1.805,-1.846Zm-167.03,-120.894c2.057,1.504 4.997,3.048 5.916,5.559c1.798,4.917 -0.853,10.278 -2.598,14.9c-0.6,1.589 -1.427,2.962 -1.686,4.635l3.724,-3.909c1.275,-1.201 2.721,-2.385 4.421,-3.055c2.491,-0.982 5.534,-1.674 9.069,-1.071c2.146,0.365 5.447,0.198 4.96,2.584c-0.509,2.497 -3.005,4.544 -4.47,5.73c-4.495,3.643 -9.1,7.14 -13.846,10.464c-1.763,1.234 -3.617,2.058 -1.431,2.124c0.693,0.019 1.444,0.115 2.1,-0.178c0,0 5.508,-4.86 14.746,-10.303c7.044,-4.14 15.641,-6.817 23.7,-8.042c2.114,-0.322 4.901,-1.052 7.013,-0.461c1.286,0.359 2.297,1.907 2.745,3.049c1.077,2.732 2.055,5.467 0.614,8.336c-1.693,3.35 -4.72,5.715 -7.946,7.595c-3.991,2.327 -8.211,4.585 -12.665,5.919c-2.549,0.765 -5.38,0.923 -7.959,1.59c-1.078,0.278 -1.525,0.686 -0.715,1.49c0.795,0.79 1.713,1.79 2.286,1.921c0.685,0.156 2.131,-0.75 2.789,-0.984c4.153,-1.485 8.885,-2.837 13.034,-1.418c1.073,0.368 2.37,1.042 2.409,2.297c0.039,1.348 -1.625,2.972 -2.492,3.893c-0.876,0.93 -1.287,1.259 0.113,1.196c2.816,-0.126 5.704,0.296 8.24,1.48c2.678,1.247 4.48,3.575 5.759,6.127c1.177,2.347 0.825,3.263 0.411,5.964c-0.128,0.819 2.051,1.7 3.201,2.527c1.126,0.806 2.17,1.766 2.976,2.887c1.602,2.225 2,4.96 0.108,7.21c-1.982,2.351 -5.043,3.68 -7.961,4.538c-1.278,0.376 -2.692,0.534 -3.849,1.235c-1.49,0.904 -0.841,1.759 -0.568,3.211c0.524,2.803 -0.361,6.095 -1.804,8.554c-1.956,3.334 -5.818,6.188 -9.283,7.94c-1.686,0.86 -3.333,1.419 -5.07,2.269c-0.57,0.28 -1.432,0.46 -1.624,0.932c-0.19,0.467 0.206,1.34 0.615,1.57c0.765,0.436 2.324,0.483 3.309,0.589c0.855,0.093 2.709,1.009 3.393,0.784c0.245,-0.079 0.591,-0.79 0.783,-1.078c3.572,-5.403 8.808,-10.774 15.929,-10.3c0.607,0.041 1.797,-0.153 2.3,0.108c0.583,0.304 0.505,1.087 0.729,1.636c0.763,1.869 2.287,3.254 3.203,5.045c0.89,1.74 1.347,3.751 0.731,5.673c-1.67,5.211 -6.183,10.316 -10.172,14.053c-0.832,0.782 -1.347,1.835 -1.679,3.086c-0.111,0.419 0.526,0.8 0.774,0.47c1.41,-1.899 2.956,-3.619 4.548,-5.225c4.362,-4.402 9.291,-8.684 14.496,-12.117c2.189,-1.442 4.883,-2.608 7.331,-3.572c5.139,-2.02 10.254,-2.598 15.628,-1.43c3.794,0.832 6.492,3.477 9.278,5.904c0.945,0.822 2.002,1.632 2.47,2.826c1.104,2.812 1.681,6.174 1.119,9.218c-0.63,3.425 -2.564,6.837 -4.778,9.556c-1.106,1.363 -2.331,2.63 -3.616,3.837c-0.258,0.242 -0.534,0.469 -0.8,0.703c-0.189,0.165 -0.852,0.548 -0.574,0.839c0.147,0.149 0.63,0.092 0.825,0.102l4.918,0.156c1.646,0.031 4.112,0.301 5.423,-0.925c0.932,-0.878 0.272,-3.253 0.636,-4.642c0.118,-0.474 0.474,-0.862 0.564,-1.24c0.129,-0.571 -0.35,-0.997 0.117,-1.503c2.195,1.183 0.365,5.025 -0.221,7.213c-0.048,0.183 2.921,-0.795 3.074,-0.858c1.209,-0.5 2.441,-1.063 3.467,-1.882c4.227,-3.368 6.18,-8.991 10.449,-12.537c2.131,-1.773 4.582,-2.627 6.97,-3.965c1.866,-1.046 4.457,-2.668 6.675,-2.683c1.97,-0.021 3.396,1.255 3.614,2.468c0.228,1.293 -0.673,2.524 -0.874,3.991c-0.021,0.152 3.405,-1.376 3.682,-1.492c3.857,-1.58 7.88,-3.007 11.73,-4.427c1.829,-0.673 3.453,-1.742 5.133,-2.706c1.34,-0.77 2.98,-1.349 4.099,-2.444c2.943,-2.882 5.843,-5.487 6.945,-9.534c0.992,-3.645 0.708,-7.475 1.214,-11.183c0.787,-5.766 4.051,-9.245 9.857,-10.714c7.591,-1.922 6.693,7.448 5.14,11.929c-1.047,3.022 -3.219,5.41 -5.776,7.33c-2.286,1.713 -5.081,2.359 -7.42,3.926c-1.762,1.177 -3.346,2.705 -4.842,4.275c-0.848,0.89 -1.88,1.684 -2.497,2.758c-0.367,0.641 -0.515,1.326 0.472,1.067c0.971,-0.252 1.946,-0.667 2.778,-1.225c0.401,-0.269 0.65,-0.707 1.01,-0.979c1.855,-1.401 3.989,-2.455 5.839,-3.9c4.423,-3.454 8.706,-7.221 13.246,-10.568c4.067,-2.997 7.51,-4.764 12.401,-6.155c1.258,-0.358 3.655,-1.537 5.206,-1.079c0.919,0.27 1.132,1.068 1.52,1.246c0.764,0.358 0.858,-0.301 2.193,-1.382c1.586,-1.287 4.683,-2.063 3.121,-0.346c-1.142,1.253 -2.333,2.716 -3.055,4.297c-1.392,3.051 -3.17,5.931 -4.89,7.813c1.097,0.701 2.727,-0.181 3.575,1.46c0.7,1.358 -0.124,3.009 -0.865,4.198c-1.175,1.886 -2.561,3.688 -4.209,5.209c-1.72,1.583 -3.712,2.84 -5.613,4.197c-0.551,0.394 -1.265,0.697 -1.517,1.32c2.978,0.259 5.837,0.949 8.829,1.017c4.369,0.105 9.034,0.785 13.225,2.106c2.826,0.894 5.933,1.608 8.86,2.121c1.634,0.287 4.434,-0.001 5.591,1.412c1.746,2.14 -0.567,3.264 -2.17,4.135c-1.473,0.801 -7.484,1.301 -8.092,2.703c-0.227,0.539 2.413,3.571 2.735,4.241c0.753,1.561 1.403,3.622 0.271,5.193c-2.136,2.967 -7.554,3.858 -10.748,5.038c-0.384,0.148 -1.522,0.357 -1.407,0.788c0.088,0.337 2.191,0.799 2.565,0.881c1.618,0.361 3.223,0.761 4.822,1.191c2.136,0.574 4.254,1.204 6.362,1.865c2.026,0.639 3.999,1.474 6.163,1.558c0.5,0.019 0.988,0.21 1.493,0.162c0.424,-0.039 0.855,-0.267 1.24,-0.442c1.028,-0.459 1.999,-1.034 2.927,-1.666c2.168,-1.48 3.298,-4.32 4.639,-6.417c1.691,-2.651 3.462,-5.318 5.693,-7.625c4.561,-4.713 11.303,-10.398 18.399,-8.085c0.821,0.267 1.587,0.659 2.363,1.019c0.73,0.336 1.763,0.197 2.403,0.62c0.589,0.389 0.053,2.537 0.06,3.194c0.053,5.99 -3.073,11.075 -8.849,14.254c-5.904,3.256 -12.414,3.493 -18.739,4.621c-1.414,0.253 -2.755,0.558 -4.339,0.24c-0.572,-0.112 -1.316,-0.389 -1.83,-0.37l-2.79,1.361c-0.339,0.742 2.233,1.288 2.688,1.444c1.255,0.433 2.512,0.866 3.772,1.294c2.213,0.753 4.674,1.814 7.018,2.082c0.736,0.085 1.482,-0.005 2.205,0.188c0.45,0.121 0.796,0.579 1.24,0.645c0.296,0.042 0.66,-0.142 1.099,-0.173c2.115,-0.154 4.412,0.347 6.589,0.379c1.49,0.021 2.713,0.294 4.032,-0.505c1.888,-1.143 3.799,-1.923 5.937,-2.539c2.021,-0.585 4.15,-0.99 6.252,-1.092c2.164,-0.107 4.318,0.274 6.478,-0.07c5.17,-0.821 10.449,-2.651 15.424,-4.261c0.555,-0.179 2.062,-1.017 2.285,-0.815c0.4,0.357 0.177,2.219 0.38,2.81c0.33,0.962 0.914,1.84 1.648,2.547c1.149,1.104 1.666,1.813 1.135,3.452c-0.401,1.238 -1.178,2.34 -1.682,3.54c-0.582,1.381 -0.98,2.823 -1.485,4.229c-1.457,4.063 -5.885,5.597 -9.894,6.044c-2.239,0.253 -4.7,-0.051 -7.061,-0.52c-3.095,-0.616 -6.187,-1.929 -8.893,-3.473c-3.467,-1.976 -6.586,-4.529 -9.957,-6.519c-1.907,-1.126 -4.671,-1.263 -6.81,-1.453c-0.652,-0.057 -2.065,-0.359 -2.154,0.164c-0.059,0.35 0.216,0.329 0.628,0.602c0.862,0.577 1.323,1.351 2.068,1.77c2.015,1.126 4.376,1.46 6.424,2.508c2.161,1.107 3.659,3.126 5.257,4.776c3.507,3.623 6.094,8.148 8.808,12.342c1.407,2.172 2.417,4.663 2.747,7.234c0.307,2.383 0.829,4.756 0.637,7.178c-0.179,2.485 -1.562,3.219 -3.929,3.401c-2.214,0.167 -4.567,-0.206 -6.473,-1.325c-2.275,-1.337 -3.899,-3.714 -5.399,-5.8c-1.585,-2.203 -2.998,-4.521 -4.36,-6.863c-2.43,-4.177 -4.544,-9.115 -5.808,-13.779c-0.241,-0.885 -0.059,-2.729 -0.672,-3.402c-0.455,-0.494 -1.159,-0.472 -1.6,-0.709c-1.587,-0.853 -1.961,-2.496 -2.209,-4.173c-0.08,-0.546 -0.275,-1.109 -0.411,-1.658c-0.193,-0.788 -1.978,-1.509 -2.588,-1.982c-2.071,-1.607 -5.347,-2.35 -7.798,-3.273l-7.163,-2.598c-0.323,-0.074 -0.662,-0.073 -0.986,-0.158l-3.908,-1.403c-1.419,-0.44 -2.84,-0.87 -4.267,-1.289c-4.299,-1.266 -8.625,-2.446 -12.944,-3.651c-3.673,-1.027 -7.56,-1.896 -11.346,-2.442c-0.73,-0.1 -3.352,-0.745 -3.671,-0.344c-0.306,0.392 0.691,1.671 0.894,2.047c0.388,0.722 0.742,1.546 0.966,2c0.685,1.402 1.218,2.923 2.277,3.816c0.583,0.494 1.385,0.837 2.035,1.336c4.482,3.442 9.351,6.354 13.928,9.667c2.75,1.987 4.754,3.99 6.756,6.32c2.03,2.365 3.11,5.129 4.881,7.569c0.654,0.897 2.189,1.529 3.494,2.143c0.545,0.26 3.4,0.999 3.285,1.621c-0.105,0.566 -1.829,0.315 -2.478,0.23c-1.164,-0.152 -1.672,-0.344 -2.526,-0.448c0.577,2.804 2.185,5.386 2.488,8.606c0.173,1.85 0.166,4.435 -1.112,6.082c-0.858,1.107 -2.666,0.489 -4.39,0.439c-3.335,-0.094 -6.413,-0.531 -9.66,-1.225c-3.157,-0.676 -5.395,-2.508 -7.295,-3.98c-0.669,-0.518 -1.176,-1.413 -2.011,-1.455c-0.354,0.695 1.328,1.812 0.667,2.252c-0.492,0.326 -1.394,-0.234 -1.905,-0.456c-0.698,-0.309 -1.165,-0.543 -1.635,-0.842c-2.689,-1.713 -4.866,-3.098 -7.093,-4.977c-0.277,-0.233 -1.058,-1.084 -1.478,-0.993c-0.168,0.033 -1.15,1.529 -1.18,1.8c-0.038,0.397 0.483,1.013 0.669,1.341c0.691,1.253 1.95,2.743 2.466,3.787c1.145,2.309 0.228,4.202 -1.296,6.051c-1.922,2.331 -4.263,2.373 -6.789,3.666c-1.304,0.668 -2.341,2.691 -4.085,2.322c-1.297,-0.274 -1.75,-2.078 -2.902,-2.587c-1.3,-0.572 -2.705,-0.56 -3.917,-1.357c-2.32,-1.523 -4.38,-5.225 -4.122,-7.868c0.046,-0.453 0.429,-1.429 0.218,-1.67c-0.774,-0.887 -2.823,-0.556 -3.864,-0.506c-3.351,0.157 -7.071,-0.601 -10.14,-1.844c-2.543,-1.029 -4.591,-2.826 -6.828,-4.336c-3.365,-2.273 -5.26,-5.964 -8.236,-8.617c-0.958,-0.855 -2.115,-1.802 -3.191,-2.644c-0.719,-0.561 -1.946,-1.851 -2.964,-1.736c-0.301,0.033 -0.606,0.181 -0.889,0.278c-1.283,0.44 -2.655,-0.281 -3.849,0.14c-0.458,0.161 -0.776,0.592 -0.375,0.982c0.467,0.454 1.117,0.215 1.648,0.031c1.672,-0.585 3.644,0.218 4.949,1.183l1.528,0.844c0.601,0.444 -1.221,0.86 -1.453,0.921l-3.392,1.348c-0.388,1.015 1.373,2.032 2.226,2.529c0.473,0.278 1.15,0.509 1.772,0.8c1.766,0.838 3.533,1.758 5.142,2.621c4.157,2.231 8.688,4.679 11.783,8.249c1.91,2.203 3.698,4.505 6.2,6.125c2.354,1.522 4.717,2.688 6.247,5.098c1.388,2.189 2.004,4.803 2.039,7.379c0.025,1.825 0.185,7.895 -2.349,8.478c-3.206,0.736 -6.738,-0.59 -9.554,-2.061c-8.913,-4.647 -15.246,-12.399 -15.246,-12.399c0.204,1.386 0.673,2.557 0.898,3.879c1.743,10.41 -2.413,12.265 -8.58,17.062c-0.591,0.462 -5.769,4.629 -6.384,4.112c-0.31,-0.259 0.54,-1.202 0.636,-1.594c0.448,-1.841 -1.175,-4.392 -1.767,-6.094c-0.807,-2.306 -1.511,-4.72 -1.444,-7.194c0.011,-0.458 0.016,-5.913 -0.196,-5.841c-1.192,0.406 -2.431,0.942 -4.017,0.749c-1.531,-0.187 -3.87,-0.824 -5.066,-1.758c-2.666,-2.087 -0.723,-6.781 1.217,-9.049c1.432,-1.662 1.026,-3.954 1.427,-6.389c0.678,-4.13 1.88,-8.861 4.958,-11.998c0.879,-0.894 2.001,-1.586 2.529,-2.76c0.594,-1.327 -0.026,-2.148 -0.378,-3.056c-0.823,-2.121 -1.743,-4.455 -3.456,-5.946c-1.447,-1.261 -3.07,-2.316 -4.517,-3.579c-1.583,-1.376 -3.094,-2.829 -4.698,-4.18c-0.862,-0.725 -2.052,-1.502 -2.948,-2.352c-0.18,-0.175 -0.729,-0.84 -1.047,-0.673c-0.398,0.203 0.027,0.943 0.168,1.309c0.538,1.402 0.862,2.856 1.118,4.334c0.505,2.918 0.681,8.347 -2.89,9.695c-1.136,0.428 -2.293,-0.807 -2.979,-1.502c-1.482,-1.504 -2.88,-3.183 -3.482,-5.229c-0.372,-1.265 -0.491,-2.587 -0.786,-3.869c-0.236,-1.006 -0.292,-2.296 -0.829,-3.183c-0.802,-1.329 -1.72,-1.899 -1.61,-3.613c0.199,-3.061 1.507,-6.128 -0.78,-8.802c-0.782,-0.912 -2.365,-0.951 -4.007,-1.138c-3.115,-0.354 -6.125,-0.279 -9.541,-0.594c-0.557,-0.055 -1.641,-0.306 -1.719,0.18c-0.044,0.263 0.07,0.162 0.676,0.362c4.113,1.381 8.045,3.971 10.968,7.067c2.28,2.417 3.271,5.886 3.571,9.105c0.132,1.421 -0.059,2.498 -0.912,3.558c-0.692,0.859 -1.562,1.602 -2.244,2.466c-1.439,1.817 -2.787,3.701 -4.398,5.07c-3.43,2.92 -8.379,4.22 -12.824,3.747c-1.274,-0.135 -2.554,-0.459 -3.733,-0.943c-0.275,-0.113 -1.638,-1.009 -1.865,-0.663c-0.073,0.11 0.09,0.589 0.105,0.713c0.281,2.36 -2.066,4.299 -3.531,5.885c-0.682,0.739 -1.583,1.647 -2.053,3.047c-0.298,0.902 -0.777,3.654 -1.486,3.943c-0.481,0.193 -1.595,-0.196 -2.263,-0.224c-2.371,-0.094 -4.237,-0.667 -6.413,-1.562c-4.527,-1.86 -8.731,-5.871 -11.752,-9.589c-0.938,-1.17 -1.833,-2.372 -2.784,-3.535c-1.111,-1.383 -1.684,-1.678 -0.985,-0.052c1.052,2.442 1.833,5.274 2.764,7.865c2.973,8.274 -0.358,18.413 -7.416,23.913c-1.243,0.968 -2.683,1.928 -4.497,1.883c-0.3,1.919 0.083,3.762 -0.247,5.809c-0.56,3.482 -3.359,13.52 -8.607,12.915c-1.134,-0.129 -2.196,-1.21 -2.975,-1.931c-2.516,-2.327 -5.81,-3.889 -8.186,-6.328c-7.594,-7.794 -6.416,-22.216 -4.888,-32.075c0.685,-4.422 2.232,-8.456 3.497,-12.297c-7.612,-1.682 -14.951,-3.71 -20.545,-9.316c-1.184,-1.185 -2.26,-2.392 -3.036,-3.771c-0.943,-1.658 -1.513,-1.921 -0.663,0.798c0.639,2.07 1.269,4.254 1.466,6.596c0.267,3.191 -0.084,6.776 -0.422,10.35c-0.475,5.035 -3.714,7.905 -7.84,10.675c-1.006,0.673 -3.146,1.763 -4.45,1.344c-2.843,-0.913 -5.249,-3.865 -7.275,-5.925c-6.564,-6.678 -8.005,-13.867 -7.99,-22.935c0.008,-4.59 2.198,-8.933 4.087,-13.048c2.427,-5.285 4.785,-10.889 6.69,-16.365c0.361,-1.017 0.181,-1.985 0.166,-2.957c-0.011,-0.78 0.164,-2.278 -0.662,-2.555c-0.495,-0.164 -0.729,-0.034 -1.182,0.279c-1.661,1.147 -3.359,1.474 -6.631,4.405c-2.628,2.356 -3.403,6.497 -4.687,9.622c-1.622,3.945 -3.35,7.921 -5.829,11.451c-5.089,7.25 -12,14.394 -20.737,14.031l-11.489,-10.254c-0.342,-6.933 2.691,-13.071 8.836,-17.499c7.38,-5.317 16.472,-6.466 25.048,-8.837c1.918,-0.534 3.72,-1.129 6.038,-0.877c0.836,0.088 1.963,0.384 2.681,0.292c1.315,-0.171 6.296,-3.866 5.568,-4.983c-0.866,-1.334 -2.551,-2.686 -3.852,-3.633c-0.513,-0.372 -1.433,0.031 -1.936,-0.337c-0.649,-0.472 -0.833,-1.647 -1.525,-2.082c-2.807,-1.76 -6.67,-3.028 -9.75,-4.476c-15.774,-7.427 -25.699,-14.379 -33,-20.724c-4.146,-3.601 -7.442,-7.003 -10.473,-10.186l3.351,-3.556c3.299,3.453 6.726,6.784 10.246,10.023c0.115,0.108 0.239,0.205 0.355,0.308c5.343,4.871 11.314,9.243 17.501,13.041c4.363,2.679 9.256,5.272 14.17,6.846c5.14,1.637 3.989,0.485 2.903,-1.301c-0.565,-0.931 -1.298,-1.903 -1.786,-2.926c-1.757,-3.669 -2.194,-7.731 -4.288,-11.331c-1.748,-3.001 -3.434,-5.826 -4.643,-9.359c-0.245,-0.715 -0.469,-1.646 -0.927,-1.869c-0.73,-0.355 -1.967,-0.224 -2.803,-0.315c-1.16,-0.126 -2.551,-0.377 -3.839,-0.746c-6.183,-1.745 -11.463,-4.839 -17.248,-7.447c-1.133,-0.512 -2.21,-1.124 -3.345,-1.607l1.398,-1.484c0.448,0.032 0.792,0.002 0.861,-0.15c0.073,-0.161 -0.08,-0.312 -0.297,-0.448l18.059,-19.168c3.75,-0.857 7.393,-1.151 11.007,-0.993c4.483,0.197 8.933,1.039 13.559,2.19c1.787,0.444 3.579,0.922 5.314,1.528c1,0.351 1.284,0.725 1.314,-0.451c0.024,-0.957 -0.285,-2.587 -1.009,-3.276c-0.894,-0.852 -2.262,-1.109 -3.227,-1.913c-2.074,-1.726 -5.113,-4.096 -5.841,-6.828c-0.343,-1.285 0.11,-1.32 -1.34,-0.658c-2.012,0.923 -6.369,2.988 -6.421,3.013c-3.264,1.539 -6.647,2.801 -10.083,3.914l11.022,-11.698c0.12,-0.057 0.243,-0.113 0.355,-0.168c2.709,-1.301 14.042,-4.592 13.554,-2.286c-0.098,0.466 -0.318,0.913 -0.558,1.326c-0.522,0.9 -0.959,1.517 0.205,0.806c0.853,-0.524 1.658,-1.406 2.677,-1.599c0.697,-0.13 1.588,0.314 1.925,0.038c0.745,-0.61 0.104,-2.489 -0.03,-3.24c-0.292,-1.617 -0.549,-3.249 -0.751,-4.883c-0.326,-2.568 -0.732,-5.073 -0.726,-7.667l16.656,-17.678c0.631,-0.105 1.248,-0.159 1.845,-0.145c0.939,0.022 1.482,0.464 2.116,0.927Z" style="fill:#e7bce6;fill-rule:nonzero;"/></g><clipPath id="_clip2"><path d="M157.816,274.919l-112.304,0l0,-132.839l112.304,0l0,132.839Z" clip-rule="nonzero"/></clipPath><g clip-path="url(#_clip2)"><path d="M60.576,190.106c0.212,-0.152 0.454,-0.337 0.759,-0.551c3.226,-2.258 9.183,-2.833 12.98,-2.16c1.919,0.344 3.458,1.045 4.604,1.794c0.581,0.375 1.91,2.067 2.825,1.934c0.579,-0.085 0.915,-1.058 1.486,-1.47c1.568,-1.108 1.899,-0.623 -0.064,-2.404c-1.465,-1.316 -2.906,-3.64 -3.709,-4.509c-2.398,-2.594 -5.285,-0.762 -7.932,0.399c-4.02,1.781 -7.76,3.417 -11.869,5.234c-0.819,0.37 -2.277,0.766 -2.306,1.13c-0.112,1.392 1.996,1.498 3.226,0.603Zm13.274,24.425c-0.965,0.549 -1.832,1.07 -1.684,1.464c0.172,0.451 15.202,3.907 15.454,3.248c0.207,-0.53 -0.929,-0.887 -0.955,-0.917c-1.436,-1.438 -3.242,-4.108 -3.682,-5.592c-0.036,-0.104 -0.02,-0.119 -0.117,-0.246c-2.075,-2.635 -6.539,0.641 -9.016,2.043Zm-0.1,6.944c1.067,1.52 2.358,4.591 4.571,4.108c0.76,-0.159 1.274,-0.897 1.806,-1.218c2.775,-1.662 6.257,-2.45 9.261,-2.62c0.235,-0.011 0.188,-0.287 0.178,-0.327c-0.038,-0.588 -2.267,-0.731 -3.149,-0.945c-3.287,-0.795 -7.312,-1.705 -10.514,-2.285c-0.845,-0.146 -1.717,-0.549 -2.327,-0.605c-0.471,-0.044 -2.153,0.039 -2.279,0.22c-0.358,0.544 1.986,3.008 2.453,3.672Zm2.437,6.314c-0.014,-0.224 -0.219,-0.411 -0.422,-0.333c-0.564,0.227 0.469,0.965 0.422,0.333Zm1.093,-0.063c1.229,2.71 2.353,4.751 3.518,7.488c0.391,0.924 0.782,2.459 1.403,2.993c0.584,0.505 2.251,0.956 2.754,0.943c0.636,-0.015 1.527,-0.592 2.532,-0.797c2.129,-0.42 4.749,-0.889 6.991,-0.987c2.632,-0.126 5.838,-0.176 8.144,1.172c1.224,0.717 1.593,1.677 2.405,1.601c0.713,-0.065 0.203,-1.37 0.198,-1.4c-0.207,-2.782 -0.336,-4.807 -0.14,-7.613c0.064,-0.893 0.409,-2.357 0.19,-2.979c-0.319,-0.859 -1.784,-2.399 -2.196,-2.839c-0.805,-0.866 -5.102,-2.885 -5.531,-2.221c-0.405,0.629 0.827,0.969 1.301,1.509c1.746,1.98 1.062,4.112 -0.758,6.112c-1.017,1.115 -2.298,1.427 -3.82,2.272c-2.347,1.291 -3.876,2.818 -6.479,2.644c-4.316,-0.277 -7.718,-3.513 -8.84,-6.722c-0.374,-1.069 -0.65,-3.278 -1.884,-2.751c-0.46,0.192 0.172,1.473 0.212,1.575Zm4.907,14.373c0.483,0.016 0.407,-0.627 0.074,-1.176c-0.203,-0.34 -0.365,-0.701 -0.567,-0.481c-0.148,0.157 -0.457,0.997 -0.419,1.226c0.047,0.294 0.64,0.423 0.912,0.431Zm0.3,-33.509c-0.164,-0.56 -1.165,0.165 -0.96,0.485c0.3,0.462 1.093,-0.026 0.96,-0.485Zm25.089,15.61c0.391,0.109 3.116,0.963 3.204,0.202c0.014,-0.178 -1.639,-1.622 -2.346,-2.176c-0.894,-0.696 -0.879,-0.636 -2.294,-0.108c-0.653,0.239 -1.706,0.525 -1.737,0.803c-0.052,0.442 2.825,1.19 3.173,1.279Zm17.919,5.031l2.718,0.969c0.238,0.077 0.496,-0.132 0.358,-0.32c-0.443,-0.599 -0.784,-1.178 -1.287,-1.381c-0.395,-0.161 -1.186,-0.146 -1.839,0.133c-0.29,0.127 -0.238,0.49 0.05,0.599Zm-29.548,-59.442c-0.038,-0.651 -1.221,-0.126 -1.069,0.231c0.162,0.401 1.108,0.248 1.069,-0.231Zm-40.555,18.784c1.882,-1.897 0.794,-3.884 0,-5.628c-2.079,-4.57 -2.832,-9.026 -3.144,-13.441c-0.119,-1.656 -0.602,-3.649 -0.288,-5.382c0.584,-3.148 3.93,-7.894 8.315,-4.947c1.358,0.915 2.582,2.943 3.49,4.348c1.646,2.544 2.229,4.034 3.023,6.159c0.624,1.667 1.512,4.394 1.503,5.724c-0.022,3.542 -3.411,9.527 -8.692,10.732c-0.124,0.035 -3.823,0.697 -2.461,1.79c0.127,0.096 0.27,0.127 0.42,0.113c0.562,-0.043 0.995,-0.459 1.526,-0.653c4.267,-1.551 7.806,-3.326 11.874,-5.166c1.287,-0.578 3.626,-1.429 4.595,-2.592c1.425,-1.714 -0.04,-3.466 -0.569,-5.302c-0.312,-1.05 -0.607,-2.104 -0.824,-3.151c-1.296,-6.09 -3.892,-13.513 -1.556,-19.048c0.398,-0.932 1.227,-2.6 2.478,-3.036c1.138,-0.394 3.203,0.141 4.018,0.549c2.68,1.341 4.109,4.907 4.959,6.761l2.356,6.564c0.391,1.721 0.472,3.847 0.305,5.716c-0.157,1.746 -0.608,4.24 -1.982,5.761c-1.308,1.455 -3.011,2.115 -4.53,2.583c-1.358,0.412 -3.252,0.427 -3.602,1.655c-0.052,0.188 0.05,0.375 0.414,0.551c0.11,0.05 0.26,0.039 0.422,-0.006c0.548,-0.161 0.972,-0.543 1.486,-0.782c4.157,-1.941 7.661,-3.644 11.553,-5.829c1.267,-0.712 3.485,-2.097 3.642,-3.354l-0.867,-5.219c-0.789,-5.234 -1.491,-10.738 -0.419,-15.638c0.347,-1.566 1.205,-5.454 3.549,-6.247c0.986,-0.34 3.091,0.518 3.851,1.037c1.903,1.313 3.397,5.51 3.971,6.915c0.941,2.3 1.524,6.009 1.372,8.127c-0.131,1.979 -0.936,5.242 -2.187,7.009c-0.271,0.374 -1.615,1.337 -1.367,1.718c0.317,0.508 2.658,-0.904 2.906,-1.124c0.6,-0.542 0.974,-1.629 1.508,-2.546c1.522,-2.631 3.385,-5.45 5.409,-7.876c3.121,-3.738 6.653,-6.48 10.731,-7.233c2.208,-0.41 4.557,-0.39 6.686,0.035c2.835,0.566 5.226,2.045 6.16,4.258c1.303,3.077 0.326,6.083 -1.146,9.087c-1.986,4.016 -6.012,6.427 -10.159,6.909c-3.601,0.416 -7.105,-0.456 -10.793,-0.623c-2.284,-0.116 -4.411,-0.27 -6.007,-0.571c-0.6,-0.122 -1.496,-0.481 -1.92,-0.44l-6.964,2.89c-1.025,0.471 -4.874,2.255 -2.225,2.294c0.65,0.009 2.203,-1.148 3.173,-1.536c3.494,-1.385 9.089,-1.363 13.279,0.577c1.431,0.663 3.659,2.486 5.035,3.703c2.554,2.237 4.857,7.175 4.609,8.824c-0.204,1.372 -1.726,3.077 -3.032,3.524c-0.905,0.298 -2.315,0.102 -3.399,-0.212c-5.867,-1.679 -13.903,-7.375 -18.491,-12.38c-0.529,-0.575 -0.686,-1.267 -1.422,-1.762c-2.182,-1.455 -4.292,0.562 -6.641,1.743c-3.713,1.866 -7.415,3.393 -11.062,5.408c-2.129,1.176 0.97,1.507 1.492,1.339c0.176,-0.052 1.888,-1.387 2.177,-1.544c1.055,-0.562 3.163,-1.165 4.783,-1.348c3.997,-0.447 9.087,0.42 12.5,3.711c2.413,2.324 4.504,5.278 5.126,7.676c0.148,0.588 0.388,2.64 0.217,3.145c-0.217,0.68 -1.16,2.28 -2.473,3.034c-2.101,1.205 -6.126,0.079 -7.812,-0.76c-1.172,-0.588 -5.97,-4.443 -5.779,-2.884c0.157,1.22 0.488,2.731 0.66,3.648c0.455,2.425 0.536,3.995 0.05,6.289c-0.172,0.808 -0.505,1.866 -0.641,2.145c-0.017,0.022 -1.66,1.514 -1.06,1.971c0.293,0.225 3.833,-1.348 4.078,-1.435c0.462,-0.181 3.913,-1.95 4.202,-1.03c0.126,0.398 -2.101,1.1 -3.464,1.616c-2.479,0.93 -4.647,1.675 -7.346,3.056c-1.21,0.62 -4.811,2.104 -2.503,2.531c1.434,0.27 1.396,-0.621 2.48,-1.458c2.939,-2.265 8.341,-3.994 11.666,-2.426c1.792,0.843 1.758,1.557 2.27,2.431c0.708,1.222 1.315,1.871 1.508,3.082c0.234,1.472 -0.46,5.033 -1.253,6.19c-0.569,0.825 -3.032,1.864 -2.915,2.361c0.152,0.627 5.471,1.372 5.962,1.313c1.143,-0.148 4.523,-1.461 5.321,-2.167c0.631,-0.564 0.867,-1.601 1.322,-2.383c2.072,-3.572 4.371,-7.259 7.394,-10.834c2.529,-2.997 7.355,-8.015 11.28,-7.893c1.234,0.046 4.188,1.035 5.212,1.971c0.581,0.525 1.113,1.749 1.372,2.494c0.705,2.039 0.469,3.779 0.236,6.129c-0.324,3.326 -1.66,5.561 -3.556,8.73c-0.896,1.488 -1.406,3.134 -2.673,4.432c-1.431,1.466 -4.228,2.95 -5.626,3.488c-0.3,0.119 -2.48,0.355 -2.32,0.973c0.055,0.194 2.291,0.928 3.251,0.861c1.508,-0.109 3.054,-0.815 3.595,-1.201c1.026,-0.723 2.086,-2.372 3.318,-3.763c3.337,-3.773 7.153,-8.166 10.437,-11.379c1.187,-1.154 2.344,-2.228 3.673,-2.844c4.588,-2.122 6.163,3.145 5.898,5.946c-0.357,3.801 -2.551,8.479 -5.497,12.175c-2.318,2.891 -5.157,4.866 -8.19,5.356c-0.185,0.029 -0.45,0.279 -0.269,0.316c1.663,0.351 2.609,-0.337 4.169,-0.653c2.127,-0.423 4.747,-0.889 6.988,-0.989c2.594,-0.12 5.743,-0.159 8.037,1.133c0.043,0.032 0.069,0.071 0.114,0.1c2.261,1.317 2.959,5.103 0.994,6.985c-1.637,1.57 -4.224,2.417 -6.07,2.823c-2.479,0.548 -4.077,0.768 -6.874,-0.164c-2.882,-0.96 -4.654,-3.387 -5.566,-5.532c-0.329,-0.771 -0.503,-1.666 -1.063,-2.337c-0.703,-0.843 -1.874,-1.072 -2.949,-1.381l-8.725,-2.895c-0.39,-0.12 -0.741,0.262 -0.545,0.582c0.312,0.52 0.793,1.065 1.267,1.313c0.807,0.414 2.246,-0.035 3.097,0.122c4.082,0.778 6.895,4.158 8.451,7.094c0.702,1.34 0.555,3.078 0.514,4.579c-0.043,1.644 -0.24,3.308 -0.741,4.931c-1.062,3.472 -3.551,5.789 -7.179,7.699l-2.375,0.911c-2.439,0.555 -4.942,-1.137 -5.747,-2.884c-1.063,-2.32 -0.567,-5.622 0.233,-7.937c0.805,-2.326 1.744,-4.509 1.991,-7.009c0.117,-1.165 0.191,-2.337 0.353,-3.47c0.269,-1.999 0.905,-3.33 -0.555,-4.97c-1.81,-2.043 -3.921,-2.246 -6.276,-2.975c-3.721,-1.135 -5.41,-1.399 -9.242,-2.51c-0.617,-0.183 -4.202,-1.644 -4.636,-0.882c-0.221,0.379 1.637,2.725 2.094,2.923c0.891,0.381 2.101,-0.512 3.051,-0.544c0.922,-0.042 2.125,0.069 3.102,0.287c1.746,0.384 5.083,1.605 7.1,3.313c1.656,1.396 2.18,3.004 2.606,4.413c0.424,1.411 0.829,2.315 0.843,3.483c0.05,4.084 -1.598,10.485 -4.937,14.501c-1.973,2.379 -6.194,6.951 -9.166,5.517c-2.132,-1.017 -2.494,-4.245 -2.811,-5.987c-0.576,-3.171 -0.686,-5.439 -0.476,-8.029c0.012,-0.087 0.459,-1.742 -0.217,-1.744c-0.529,-0.002 -0.824,2.056 -1.596,2.792c-1.636,1.566 -4.226,2.42 -6.069,2.823c-2.477,0.547 -4.083,0.769 -6.879,-0.166c-2.882,-0.958 -4.652,-3.384 -5.564,-5.532c-0.474,-1.106 -0.31,-2.189 -0.994,-2.818c-1.322,-1.22 -1.36,0.028 -1.269,0.394c0.076,0.305 0.362,0.76 0.464,1.002c0.739,1.644 1.301,4.927 2.62,5.985c0.825,0.662 2.185,0.795 3.085,1.366c1.239,0.793 2.425,1.93 3.78,2.855c2.411,1.649 4.888,2.986 6.634,5.295c1.727,2.283 2.663,5.062 2.31,7.843c-0.286,2.25 -0.824,4.829 -2.003,6.848c-0.695,1.192 -1.748,1.867 -2.851,2.716c-1.277,0.981 -3.418,0.839 -4.89,0.329c-2.663,-0.923 -5.143,-2.984 -6.455,-5.286c-1.346,-2.365 -1.977,-4.72 -1.977,-7.39c0,-3.415 0.347,-6.9 0.938,-10.274c0.153,-0.874 0.779,-2.18 0.327,-3.028c-0.343,-0.647 -0.677,0.236 -0.782,0.517c-1.56,4.184 -4.159,7.749 -7.991,10.498c-2.251,1.616 -5.071,2.635 -7.951,2.629c-1.034,-0.002 -2.261,-0.146 -2.72,-1.122c-1.117,-2.367 1.05,-5.436 2.07,-7.503c2.048,-4.15 6.438,-6.82 10.013,-9.78c1.318,-1.089 3.497,-2.659 3.618,-4.43c0.112,-1.632 -1.257,-3.875 -1.86,-5.234c-0.036,-0.079 0.026,-0.157 -0.121,-0.246c-0.727,-0.473 -0.679,0.917 -1.048,1.969c-0.684,1.908 -2.087,4.6 -5.017,6.473c-1.455,0.93 -3.632,1.069 -5.35,0.917c-2.017,-0.176 -2.398,-2.291 -2.272,-3.792c0.181,-2.161 1.16,-3.923 2.742,-5.537c2.658,-2.714 7.4,-5.347 7.105,-7.937c-0.119,-1.058 -1.684,-2.74 -2.687,-4.175c-0.972,-1.374 -2.227,-3.365 -3.177,-4.091c-1.539,-1.193 -2.049,-0.196 -2.828,0.835c-2.563,3.441 -11.323,1.99 -15.273,0.681c-1.996,-0.662 -4.023,-1.866 -5.788,-3.365l0,-17.769c3.459,-0.753 7.556,-0.882 10.738,-0.235c1.358,0.277 3.671,0.983 5.226,2.137c2.918,2.154 5.702,5.831 6.731,8.915c0.429,1.3 0.548,2.757 0.562,4.077c0.003,0.647 -0.614,1.869 -0.14,2.235c0.855,0.658 4.347,-1.377 5.436,-1.926c3.196,-1.609 6.459,-2.944 6.936,-6.035c0.024,-0.139 0.062,-0.192 -0.024,-0.333c-0.538,-0.878 -2.041,-0.181 -2.908,-0.281c-3.502,-0.416 -7.451,-2.39 -10.938,-5.596c-1.258,-1.148 -2.349,-2.576 -3.468,-3.851c-1.194,-1.357 -2.537,-2.55 -3.345,-3.761c-0.388,-0.571 -0.4,-1.32 -0.931,-1.83c-0.519,-0.499 -2.337,-1.298 -3.08,-1.361c-1.16,-0.096 -3.725,1.198 -5.147,1.838c-1.887,0.854 -3.761,1.762 -5.648,2.666l0,-1.206c1.601,-0.73 3.17,-1.455 4.988,-2.29c1.87,-0.862 3.797,-1.577 4.892,-2.672Z" style="fill:#c397c6;fill-rule:nonzero;"/></g><path d="M147.41,205.386c-0.138,-0.306 -0.552,-0.336 -0.808,-0.112c-0.509,0.45 -1.032,0.897 -1.579,1.342c-5.164,4.188 -9.25,7.9 -13.614,12.195c-1.431,1.414 -4.256,4.52 -5.982,6.651c-0.168,0.206 -0.1,0.511 0.148,0.62c2.344,1.032 4.042,1.977 4.705,2.245c2.295,0.941 4.67,1.677 7.041,2.422c0.228,0.071 0.462,-0.099 0.453,-0.331c-0.082,-2.399 0.158,-4.795 0.956,-7.103c1.228,-3.558 3.627,-6.46 5.846,-9.471c1.978,-2.685 4.111,-5.639 2.834,-8.458Zm-75.757,10.449c-4.07,-1.213 -8.154,-2.375 -12.286,-3.384c-0.217,-0.053 -0.334,0.198 -0.29,0.411c0.224,1.05 0.44,2.183 0.645,3.352c0.052,0.289 0.236,0.553 0.524,0.639c2.304,0.688 6.34,1.485 9.669,0.056c0.525,-0.215 1.059,-0.451 1.601,-0.7c0.177,-0.082 0.325,-0.319 0.137,-0.374Zm104.805,41.436c2.716,4.483 5.911,9.866 9.028,16.042c1.707,3.234 2.889,6.8 3.929,10.446c0.073,0.257 0.323,0.414 0.579,0.506c2.337,0.827 3.852,2.524 5.44,3.607c4.083,2.779 10.045,3.948 16.887,7.884c0.049,0.028 0.127,-0.019 0.088,-0.06c-0.234,-0.25 -0.468,-0.506 -0.7,-0.775c-7.254,-8.411 -8.698,-9.525 -16.684,-16.414c-2.732,-2.355 -5.546,-5.423 -7.295,-8.517c-1.368,-2.42 -1.94,-5.416 -3.666,-7.604c-1.601,-2.03 -4.265,-4.003 -7.263,-5.297c-0.178,-0.077 -0.441,0.019 -0.343,0.182Zm18.839,44.346c0.071,0.139 0.327,0.388 0.339,0.234c0.059,-0.818 0.005,-1.672 -0.187,-2.569c-0.615,-2.86 -1.253,-5.263 -3.354,-7.06c-0.109,-0.095 -0.381,-0.149 -0.341,-0.012c0.956,3.29 2.044,6.484 3.543,9.407Zm18.65,-40.689c0.275,0.1 0.595,0.093 0.824,-0.087c3.387,-2.685 5.219,-6.233 7.422,-9.975c0.58,-0.984 1.154,-1.989 1.743,-2.985c0.066,-0.113 0.041,-0.329 -0.078,-0.272c-6.963,3.246 -14.731,5.681 -22.649,5.383c-2.503,-0.094 -4.504,-0.756 -7.013,-1.04c-0.082,-0.009 -0.266,0.057 -0.193,0.09c6.643,2.983 13.093,6.407 19.944,8.886Zm42.386,17.631c0.845,0.531 1.66,1.148 2.442,1.9c0.211,0.201 0.452,0.372 0.733,0.461c4.068,1.275 7.152,0.708 11.034,0.291c5.487,-0.591 9.648,-0.433 14.345,0.076c0.825,0.09 1.649,0.128 2.471,0.14c0.209,0.004 0.177,-0.275 0.07,-0.45c-0.654,-1.058 -1.31,-2.115 -1.978,-3.17c-0.904,-1.426 -1.455,-2.576 -1.735,-3.609c-0.075,-0.277 -0.363,-0.438 -0.659,-0.449c-2.405,-0.081 -4.453,-0.5 -5.862,-0.991c-0.343,-0.121 -0.726,-0.145 -1.067,-0.015c-5.19,1.99 -10.243,2.094 -13.373,3.075c-2.771,0.632 -4.865,1.488 -6.51,2.321c-0.175,0.087 -0.073,0.316 0.089,0.42Zm34.114,-8.209c0.747,-0.474 1.49,-1.018 2.314,-1.69c2.281,-1.865 3.548,-3.64 5.052,-6.125c1.07,-1.768 1.946,-3.638 2.762,-5.538c0.032,-0.073 0.05,-0.184 -0.032,-0.179l-2.833,1.856c-4.587,3.162 -9.2,6.833 -13.97,9.935c-0.148,0.096 -0.302,0.333 -0.129,0.368c1.598,0.31 3.661,0.524 6.037,1.389c0.263,0.097 0.565,0.133 0.799,-0.016Zm-7.665,-0.731c-0.205,-0.124 -0.468,-0.098 -0.671,0.028l-3.833,2.16c-0.161,0.078 -0.296,0.29 -0.125,0.347c1.54,0.504 3.121,0.696 4.67,0.634c0.349,-0.016 0.661,-0.237 0.722,-0.57c0.197,-1.078 0.745,-1.694 -0.763,-2.599Zm16.821,53.106l0.77,1.779c0.626,0.877 1.426,1.715 2.428,2.495c0.092,0.069 0.317,0.053 0.26,-0.044c-0.083,-0.142 -0.163,-0.284 -0.24,-0.433c-0.516,-0.989 -1.234,-3.828 -1.561,-6.817c-0.038,-0.331 -0.149,-0.665 -0.422,-0.868c-0.733,-0.544 -1.465,-1.091 -2.192,-1.646c-0.161,-0.123 -0.275,0.155 -0.252,0.352c0.186,1.473 0.681,3.569 1.209,5.182Zm6.933,5.457c1.204,-0.002 1.073,-1.705 2.252,-3.508c0.131,-0.199 0.072,-0.466 -0.137,-0.588c-1.964,-1.145 -3.863,-2.375 -5.703,-3.688c-0.159,-0.114 -0.391,-0.019 -0.386,0.172c0.025,1.108 0.116,2.538 0.4,3.631c0.499,1.919 1.853,3.986 3.574,3.981Zm23.426,5.75c1.874,1.547 3.661,3.194 5.336,4.859c3.184,3.165 6.121,7.181 9.741,10.105c0.263,0.213 0.568,0.375 0.879,0.517c2.594,1.19 4.647,2.517 6.259,3.773c2.074,1.27 4.027,2.734 5.879,4.31c0.204,0.175 0.515,0.192 0.704,0.005c0.811,-0.798 1.791,-2.027 2.226,-2.77c0.674,-1.145 1.466,-2.346 2.43,-3.381c0.141,-0.151 0.15,-0.427 -0.059,-0.423c-4.997,0.057 -9.942,-0.989 -14.403,-4.189c-4.219,-3.058 -4.737,-10.724 -9.666,-13.004c-0.718,-0.332 -1.749,-0.847 -3.146,-1.297c-0.317,-0.102 -0.656,-0.177 -0.976,-0.083c-1.76,0.523 -3.505,0.928 -5.17,1.198c-0.183,0.032 -0.174,0.264 -0.034,0.38Zm-21.027,-79.43c-0.005,0.189 0.164,0.342 0.355,0.305c1.814,-0.358 3.277,-0.93 5.246,-2.361c1.478,-1.073 3.091,-1.861 4.774,-2.493c0.17,-0.062 0.118,-0.282 -0.029,-0.386c-0.734,-0.52 -1.409,-0.939 -2.774,-0.972c-0.343,-0.009 -0.69,0.033 -1.004,0.166c-1.775,0.747 -3.872,1.71 -6.171,2.89c-0.242,0.124 -0.449,0.343 -0.426,0.609l0.029,2.242Zm-142.498,-67.635c2.666,-0.99 4.068,1.22 9.723,0.537c7.214,-0.873 13.714,1.107 20.017,4.719c2.534,1.45 5.555,2.902 7.631,5c2.702,2.732 4.617,7.044 6.539,9.398c1.653,2.022 3.666,3.243 5.08,7.041c0.06,0.166 -0.206,0.23 -0.326,0.095c-4.087,-4.638 -8.926,-7.127 -15.547,-6.989c-6.065,0.129 -12.245,-0.337 -18.005,-2.326c-5.589,-1.932 -8.682,-5.679 -12.957,-9.345c-1.168,-1.005 -2.946,-2.346 -4.652,-3.215c-0.218,-0.111 -0.481,-0.064 -0.678,0.08c-0.789,0.575 -1.584,1.145 -2.392,1.701c-2.462,1.694 -5.154,3.496 -7.339,5.358c-1.814,1.544 -3.429,3.125 -5.119,4.702c-0.202,0.189 -0.12,0.501 0.091,0.682c8.976,7.706 14.82,14.123 19.201,25.54c1.656,4.315 3.025,9.111 4.157,13.991c0.058,0.249 0.188,0.5 0.435,0.585c3.38,1.159 6.782,2.266 10.255,3.268c2.826,0.817 5.563,1.841 8.258,2.964c0.377,0.159 0.795,0.211 1.202,0.152c3.203,-0.464 4.513,-2.283 6.31,-4.204c4.533,-4.844 9.346,-9.664 15.151,-13.077c5.88,-3.456 12.685,-4.31 18.84,-7.108c5.419,-2.463 10.043,-5.772 13.476,-10.587c3.524,-4.939 5.952,-10.628 10.24,-15.04c0.905,-0.931 2.081,-1.832 3.296,-2.433c0.139,-0.067 0.052,0.278 -0.064,0.378c-2.777,2.366 -4.092,4.612 -4.971,9.024c-1.411,7.081 -3.064,13.08 -6.36,19.578c-0.951,1.873 -2.083,3.609 -3.409,5.298c-0.105,0.133 0.098,0.253 0.264,0.215c1.247,-0.277 2.484,-0.497 3.659,-0.659c8.081,-1.112 13.961,0.129 17.277,0.544c4.208,0.527 8.188,1.911 12.101,3.458c4.593,1.819 9.342,4.009 14.338,3.103c0.268,-0.05 0.464,0.269 0.244,0.428c-2.642,1.907 -7.123,2.029 -10.33,2.626c-7.825,1.466 -15.267,4.479 -22.862,6.8c-3.208,0.981 -6.437,1.987 -9.553,3.214c-3.141,1.237 -6.246,2.891 -9.501,3.801c-5.689,1.587 -11.525,1.668 -17.286,2.796c-1.865,0.365 -4.795,1.048 -6.807,2.28c-0.209,0.128 0.011,0.381 0.247,0.453c3.177,0.976 6.396,1.712 9.464,3.098c1.667,0.754 3.303,1.566 4.936,2.393c0.265,0.133 0.561,0.192 0.858,0.228c1.27,0.156 2.737,0.35 4.577,0.674c2.298,0.405 4.901,1.509 6.668,2.451c2.151,1.151 3.987,2.656 5.595,4.39c0.199,0.214 0.433,0.402 0.712,0.503c1.498,0.54 2.91,1.032 4.25,1.604c0.288,0.123 0.622,0.218 0.89,0.059c1.622,-0.972 3.669,-2.02 6.376,-2.713c4.083,-1.507 10.841,-1.272 16.978,-4.231c6.227,-3.128 12.451,-8.052 18.605,-12.128c1.675,-1.151 3.353,-2.204 5.007,-3.177c0.26,-0.153 0.424,-0.411 0.535,-0.685c1.014,-2.451 2.044,-4.899 3.369,-7.201c0.692,-1.201 2.201,-3.708 2.264,-5.652c0.009,-0.244 0.305,-0.533 0.427,-0.318c1.061,1.904 0.627,5.659 0.65,7.2c0.013,0.79 0.115,1.571 0.224,2.352c0.032,0.22 0.326,0.205 0.532,0.109c2.264,-1.046 4.329,-1.883 6.087,-2.512c0.238,-0.086 0.461,-0.204 0.67,-0.341c3.346,-2.19 6.984,-2.637 10.003,-3.046c2.753,-0.37 5.471,-0.963 8.124,-1.77c3.102,-0.944 6.18,-2.029 8.849,-3.872c4.413,-3.047 8.203,-6.897 11.565,-10.997c1.899,-2.315 4.59,-6.791 5.942,-9.276c0.642,-1.174 1.431,-2.347 2.169,-3.118c0.136,-0.142 0.32,0.14 0.24,0.319c-1.476,3.29 -2.634,9.067 -6.366,12.847c-0.961,0.972 -1.415,5.506 -5.873,10.805c-2.144,2.549 -4.33,4.683 -6.699,6.44c-0.127,0.093 -0.118,0.308 0.041,0.291c2.605,-0.274 5.447,-0.581 6.728,-0.899c2.244,-0.56 4.461,-1.353 6.727,-1.821c4.756,-0.989 9.96,-0.548 14.08,-2.188c4.738,-1.89 7.486,-7.6 12.326,-9.189c0.091,-0.026 -2.485,1.559 -4.64,5.388c-2.364,4.199 -5.286,8.335 -9.51,11.689c-5.406,4.287 -14.145,8.476 -22.944,11.17c-7.722,2.363 -15.156,4.579 -23.348,4.324c-3.585,-0.109 -8.388,-0.826 -11.043,-3.418c-0.957,-0.935 -1.257,-2.358 -2.303,-3.186c-0.262,-0.206 -0.577,-0.383 -0.92,-0.538c-0.194,-0.091 -0.373,0.105 -0.391,0.313c-0.209,2.33 -0.595,4.612 -1.347,6.89c-0.942,2.858 -2.712,6.872 -5.521,8.631c-1.308,0.817 -2.826,1.412 -4.808,1.498c-0.162,0.007 -0.269,0.175 -0.175,0.3c0.976,1.277 1.653,2.664 2.173,4.085c0.123,0.336 0.463,0.565 0.825,0.502c1.431,-0.246 2.864,-0.479 4.299,-0.661c4.96,-0.624 9.919,-1.258 14.815,-2.251c5.299,-1.077 10.573,-2.56 15.407,-4.968c2.53,-1.261 5.046,-3.188 6.64,-4.584c0.132,-0.113 0.46,-0.054 0.366,0.09c-0.718,1.112 -1.889,2.051 -2.9,3.167c-4.213,4.646 -10.343,9.758 -17.566,13.625c-4.483,2.403 -9.392,4.326 -14.523,5.36c-1.574,0.317 -2.956,0.742 -4.39,1.147c-0.3,0.085 -0.609,0.27 -0.595,0.574c0.107,1.994 0.048,3.939 -0.248,5.734c-0.224,1.355 -0.436,2.701 -0.581,4.081c-0.022,0.205 -0.311,0.265 -0.382,0.071c-0.483,-1.297 -1.21,-2.624 -2.262,-3.702c-1.61,-1.646 -2.827,-3.366 -3.911,-5.157c-0.152,-0.253 -0.467,-0.343 -0.769,-0.347c-6.067,-0.057 -10.834,-1.318 -13.231,-1.716c-3.466,-0.572 -7.483,-2.069 -10.607,-3.864c-2.532,-1.453 -5.594,-2.957 -8.253,-4.071c-0.114,-0.048 -0.125,0.17 -0.039,0.255c5.07,4.859 10.652,9.178 16.274,13.412c4.477,3.37 8.167,7.5 12.273,11.24c0.28,0.255 0.686,0.315 1.063,0.239c1.52,-0.312 2.862,-0.868 3.625,-2.226c1.625,-2.904 7.414,-2.053 12.311,-2.334c2.242,-0.128 5.174,-0.188 8.463,-0.883c5.462,-1.15 11.22,-4.222 17.256,-6.1c3.473,-1.079 6.993,-2.01 10.266,-3.314c3.503,-1.396 7.178,-2.748 9.503,-4.724c0.852,-0.723 1.74,-1.487 2.592,-2.44c0.111,-0.124 0.316,-0.001 0.25,0.151c-0.838,1.982 -2.11,4.037 -3.453,5.958c-1.506,2.155 -3.468,4.319 -5.521,6.249c-3.991,3.754 -10.119,7.948 -15.62,10.741c-7.126,3.617 -14.063,5.911 -20.07,5.394c-7.032,-0.606 -12.268,-5.86 -18.689,-5.554c-0.226,0.012 -0.374,0.264 -0.206,0.409c0.423,0.359 0.847,0.714 1.281,1.059c4.233,3.371 8.451,6.796 12.849,9.961c1.451,1.041 2.981,1.939 4.549,2.768l0.906,-0.23c2.503,-1.502 4.624,-1.731 7.708,-1.987c2.413,-0.201 5.131,-0.163 7.5,-0.558c2.256,-0.376 4.382,-1.249 6.612,-1.734c2.473,-0.534 4.988,-0.901 7.413,-1.623c4.538,-1.355 9.204,-4.655 13.101,-7.247c3.023,-2.01 5.439,-4.43 7.658,-6.989c1.943,-2.243 3.676,-4.653 4.548,-7.854c0.041,-0.144 0.309,-0.295 0.318,-0.144c0.276,4.3 -1.032,7.539 -3.535,10.623c-1.603,1.975 -3.692,3.132 -5.201,5.031c-0.786,0.986 -0.499,6.176 -4.862,11.746c-3.38,4.319 -8.811,7.584 -14.386,9.642c-0.139,0.052 -0.341,0.248 -0.198,0.286c1.712,0.454 3.411,0.931 4.929,1.239c3.198,0.688 5.789,-2.27 9.938,-2.755c7.963,-0.949 16.242,0.241 23.987,2.474c4.093,1.182 8.036,3.134 12.11,3.895c3.08,0.57 6.021,0.816 9.378,-0.712c2.106,-0.962 3.65,-2.388 4.825,-3.687c0.12,-0.132 0.356,-0.022 0.272,0.134c-2.56,4.812 -8.047,8.805 -13.55,11.674c-0.137,0.071 -0.089,0.276 0.066,0.276c0.599,0.001 1.197,0.008 1.792,0.038c5.087,0.258 10.198,1.142 14.602,3.536c3.624,1.969 7.665,6.352 11.96,6.993c0.261,0.04 0.146,0.402 -0.105,0.487c-2.396,0.802 -5.687,0.627 -7.806,1.393c-4.776,1.736 -8.921,4.697 -13.661,6.519c-6.044,2.322 -11.988,2.282 -16.858,1.708c-5.591,-0.658 -9.659,-3.716 -14.906,-4.927c-0.947,-0.218 -2.83,-0.835 -4.342,-0.984c-0.177,-0.017 -0.495,0.085 -0.364,0.203c0.598,0.553 1.188,1.111 1.765,1.679c1.715,1.689 3.327,3.451 5.176,5.012c0.145,0.119 1.399,1.185 2.417,2.051c0.24,0.204 0.49,0.398 0.777,0.539c1.805,0.887 3.817,1.444 7.016,1.585c7.71,0.339 14.106,1.185 19.516,5.869c5.244,4.543 6.387,8.174 10.021,13.977c2.526,4.037 5.363,7.268 7.196,10.833c2.345,4.556 4.308,9.315 4.262,14.261c-0.002,0.193 -0.299,0.158 -0.367,-0.022c-2.462,-6.481 -9.596,-5.062 -15.275,-7.086c-3.504,-1.247 -6.868,-3.198 -10.093,-5.315c-8.213,-5.389 -15.183,-12.74 -17.484,-22.305c-0.847,-3.523 -0.861,-7.329 -5.135,-11.051c-0.248,-0.215 -0.523,-0.398 -0.807,-0.564c-1.958,-1.139 -4.669,-3.945 -5.387,-4.629c-1.924,-1.833 -3.848,-3.717 -5.89,-5.454c-0.049,-0.042 -0.202,-0.068 -0.165,-0.017c2.502,3.405 3.806,7.222 4.828,11.472c1.204,5.018 1.668,10.176 1.72,15.319c0.025,2.743 -0.059,5.483 -0.168,8.222c-0.334,8.41 -1.558,16.37 -5.819,23.08c-0.139,0.22 -0.513,0.163 -0.466,-0.092c0.47,-2.493 1.129,-4.929 0.902,-7.763c-0.246,-3.108 -0.609,-6.349 -1.3,-9.759c-1.516,-7.449 -2.409,-16.07 -3.956,-23.486c-0.634,-3.025 -1.224,-5.923 -1.819,-8.612c-0.536,-2.431 -1.481,-4.757 -2.029,-7.196c-0.424,-1.88 -1.015,-4.098 -1.921,-5.79c-0.558,-1.045 -1.183,-2.032 -1.74,-2.852l-3.393,-2.843c-3.586,-3.451 -6.811,-7.219 -10.532,-10.541c-1.379,-1.23 -2.778,-2.407 -4.227,-3.509c-0.215,-0.161 -0.501,-0.181 -0.765,-0.133c-2.212,0.397 -4.381,0.745 -6.753,0.787c-0.167,0.003 -0.106,0.239 0.032,0.329c2.522,1.639 4.632,3.529 7.187,6.127c3.068,3.124 6.652,7.758 8.374,10.859c2.289,4.113 3.666,9.281 7.372,11.444c1.004,0.586 2.433,1.121 3.945,1.185c0.28,0.011 0.321,0.392 0.057,0.489c-1.599,0.599 -3.829,0.554 -5.803,0.535c-5.821,-0.055 -11.526,-2.228 -16.723,-5.421c-4.52,-2.773 -15.004,-6.598 -21.266,-12.123c-0.041,-0.035 -0.057,0.08 -0.025,0.121c1.835,2.467 3.77,5.019 4.922,8.437c2.548,7.557 4.354,16.235 3.37,26.477c-0.61,6.333 -2.655,12.556 -6.809,17.773c-0.354,0.447 -1.444,4.968 -3.917,6.94c-0.196,0.156 -0.439,-0.094 -0.323,-0.312c1.453,-2.698 1.676,-5.478 1.599,-9.182c-0.098,-4.697 -1.29,-10.954 -2.819,-15.689c-2.164,-6.706 -4.229,-13.313 -4.749,-21.951c-0.007,-0.135 -0.163,-0.3 -0.234,-0.182c-0.491,0.802 -1.017,1.588 -1.592,2.356c-3.102,4.121 -7.561,8.194 -13.36,10.083c-2.478,0.807 -3.777,2.539 -7.79,3.265c-0.157,0.028 -0.039,-0.273 0.096,-0.353c1.658,-0.991 3.136,-2.576 4.101,-3.831c4.323,-5.621 4.407,-11.974 5.776,-16.168c2.505,-7.68 5.392,-10.791 12.435,-16.358c0.648,-0.512 1.393,-1.044 2.103,-1.607c0.223,-0.179 0.214,-0.492 0.125,-0.757c-0.057,-0.172 -0.115,-0.343 -0.166,-0.518c-1.069,-3.606 0.278,-7.869 0.804,-9.693c0.466,-1.613 0.741,-3.78 0.693,-6.014l-1.02,-5.185l-1.063,-1.247c-2.48,-1.913 -4.878,-3.926 -7.238,-5.972c-3.611,-3.127 -6.637,-6.808 -10.418,-9.755c-4.856,-3.782 -9.791,-7.316 -14.434,-11.365c-3.212,-2.801 -6.012,-6.903 -10.1,-8.499c-0.547,-0.215 -1.097,-0.424 -1.642,-0.634c-0.166,-0.062 -0.337,0.099 -0.239,0.243c1.526,2.278 2.837,4.734 4.023,7.207c3.222,6.721 4.649,14.242 4.899,21.611c0.243,7.11 -0.01,14.674 -3.024,21.276c-0.728,1.592 -1.642,3.715 -3.072,5.107c-0.109,0.106 -0.198,-0.188 -0.13,-0.322c0.477,-0.935 1.15,-2.692 1.397,-5.606c0.05,-2.139 -0.515,-4.073 -1.599,-5.925c-2.521,-4.298 -4.908,-8.518 -7.054,-13.017c-2.442,-5.123 -4.857,-10.27 -7.791,-15.148c-2.466,-4.103 -5.16,-8.08 -7.313,-12.349c-1.558,-3.155 -2.966,-6.309 -4.548,-9.057c-1.751,-3.096 -4.765,-5.424 -6.943,-6.815c-0.241,-0.155 -0.497,-0.293 -0.77,-0.392c-3.581,-1.294 -7.19,-2.526 -10.731,-4.019c-7.655,-3.231 -15.011,-7.03 -22.967,-9.579c-4.17,-1.335 -8.438,-2.349 -12.606,-3.7c-0.234,-0.075 -0.331,0.227 -0.283,0.462c0.242,1.211 0.47,2.419 0.686,3.619c0.054,0.29 0.131,0.577 0.285,0.832c0.387,0.648 0.796,1.322 1.223,2.027c0.143,0.236 0.408,0.362 0.676,0.443c5.001,1.52 8.109,5.617 11.972,7.088c4.427,1.684 10.587,1.1 15.134,2.47c7.031,2.114 13.436,7.382 17.899,12.699c4.799,5.72 7.014,12.109 9.083,18.589c2.651,8.313 6.196,8.802 8.372,9.833c0.256,0.121 0.122,0.485 -0.161,0.464c-1.456,-0.102 -4.477,-0.495 -8.879,-1.958c-2.467,-0.821 -5.44,-1.592 -8.515,-3.005c-0.084,-0.04 -0.302,-0.018 -0.234,0.043c3.912,3.474 6.562,6.841 9.494,10.725c3.718,4.926 6.049,9.991 7.43,15.289c1.503,5.778 2.421,10.356 2.811,16.191c0.275,4.099 -0.613,6.329 1.488,9.478c0.132,0.198 -0.204,0.352 -0.398,0.212c-2.203,-1.613 -3.536,-4.43 -4.579,-6.688c-2.482,-5.377 -3.551,-12.44 -7.76,-18.115c-3.975,-5.357 -11.64,-9.886 -17.191,-15.195c-5.093,-4.874 -10.552,-9.634 -14.157,-15.622c-2.773,-4.604 -1.954,-10.55 -7.179,-12.48c-0.244,-0.088 -0.428,0.184 -0.36,0.426c0.335,1.227 0.664,2.457 1,3.682c0.075,0.278 0.188,0.559 0.409,0.753c2.716,2.361 3.929,4.575 5.008,8.558c0.491,1.816 2.903,2.772 3.82,6.022c0.491,1.741 0.67,3.261 0.556,4.718c-0.027,0.341 -0.013,0.699 0.185,0.98c2.621,3.718 5.242,7.138 7.497,10.296c1.458,1.791 2.853,3.529 3.848,4.638c2.509,2.797 6.577,3.885 8.875,8.772c5.679,12.079 5.05,22.683 2.856,35.274c-1.409,8.085 -8.565,15.322 -16.953,21.721c-2.926,2.232 -3.595,4.449 -6.434,6.571c-0.178,0.132 -0.477,-0.02 -0.353,-0.202c1.94,-2.831 3.855,-6.28 5.117,-8.947c2.931,-6.189 5.172,-13.072 6.533,-19.746c1.61,-7.877 2.075,-15.765 2.282,-23.763c0.13,-5.102 -0.204,-9.71 -2.044,-14.549c-1.211,-3.186 -2.741,-5.968 -4.57,-8.77c-0.788,-1.027 -1.619,-2.087 -2.478,-3.184c-0.065,-0.081 -0.191,0 -0.156,0.096c0.066,0.183 0.125,0.358 0.177,0.523c1.447,4.776 -0.747,8.977 -3.11,13.23c-2.203,3.964 -4.931,7.119 -9.482,9.045c-2.742,1.161 -5.403,2.398 -8.356,2.665c-1.535,0.136 -3.516,1.192 -4.758,2.435c-0.128,0.13 -0.484,0.134 -0.413,-0.033c0.535,-1.221 1.401,-2.058 2.598,-3.125c2.544,-2.268 4.061,-4.818 6.25,-7.394c2.483,-2.922 4.13,-5.336 5.172,-8.958c0.47,-1.637 1.033,-3.867 1.604,-6.211c0.034,-0.144 -0.171,-0.187 -0.282,-0.083c-8.351,8.023 -21.757,9.802 -33.367,11.231c-3.346,0.411 -6.491,0.856 -9.476,-0.409c-0.189,-0.081 -0.184,-0.374 0.023,-0.356c2.203,0.192 4.426,0.135 6.561,-0.927c1.947,-0.965 3.037,-1.968 4.75,-3.243c3.257,-2.427 7.429,-5.575 10.913,-7.717c6.45,-3.962 17.68,-7.785 20.943,-14.375c0.118,-0.236 0.025,-0.509 -0.115,-0.735c-5.451,-8.845 -6.297,-19.791 -10.562,-28.217c-2.882,-6.143 -6.269,-11.607 -9.056,-16.136c-0.061,-0.1 -0.204,0.021 -0.188,0.137c1.494,10.5 2.794,18.123 5.338,26.102c1.121,3.52 4.451,6.601 5.351,10.169c0.05,0.196 -0.123,0.56 -0.25,0.401c-0.513,-0.64 -1.217,-1.059 -1.992,-1.48c-2.658,-1.446 -5.456,-2.572 -8.049,-4.161c-7.873,-4.825 -14.175,-11.592 -19.576,-18.877c-7.754,-10.46 -14.173,-22.623 -16.974,-35.284c-0.202,-0.914 -0.381,-1.839 -0.526,-2.771c-0.037,-0.227 -0.178,-0.439 -0.403,-0.512c-0.799,-0.259 -1.603,-0.509 -2.416,-0.734c-4.551,-1.263 -8.64,-3.06 -12.955,-4.901c-4.327,-1.847 -8.872,-2.708 -13.534,-3.273c-1.491,-0.18 -2.972,-0.403 -4.45,-0.646c-0.391,-0.064 -0.799,0.014 -1.122,0.238c-2.453,1.68 -4.924,3.036 -7.322,3.932c-5.42,2.024 -12.529,1.748 -19.384,-1.448c-7.369,-3.701 -8.66,-5.118 -16.062,-8.018c-0.218,-0.086 -0.302,0.215 -0.265,0.44c0.452,2.888 0.824,5.663 1.058,7.476c0.434,3.357 0.557,6.183 0.631,9.029c0.009,0.355 0.153,0.698 0.414,0.946c1.871,1.777 3.631,3.657 5.199,5.699c0.177,0.229 0.474,0.357 0.747,0.257c0.441,-0.161 0.897,-0.34 1.387,-0.539c8.059,-3.276 17.285,-3.576 25.559,-0.861c9.58,3.143 17.688,10.261 25.624,16.103c6.203,4.565 12.946,8.522 17.493,14.802c1.315,1.817 2.919,4.315 4.229,6.098c1.863,2.529 3.303,3.794 5.611,4.528c0.261,0.083 0.158,0.442 -0.114,0.454c-2.88,0.121 -6.805,-1.569 -9.339,-3.208c-8.304,-5.374 -17.996,-5.537 -27.122,-7.888c-8.185,-2.107 -17.138,-6.6 -24.477,-10.684c-8.199,-4.559 -10.323,-8.386 -14.659,-11.73c-0.083,-0.064 -0.313,-0.109 -0.265,-0.019c3.4,6.382 5.615,13.35 7.29,20.339c1.225,5.117 3.165,11.229 2.665,16.646c-0.016,0.174 -0.291,0.317 -0.332,0.149c-1.403,-5.994 -4.77,-10.46 -9.116,-14.131c-0.232,-0.196 -0.564,-0.024 -0.695,0.246c-0.159,0.329 -0.268,0.69 -0.196,1.046c0.213,1.047 0.356,1.932 0.398,2.507c0.15,2.015 -0.427,5.4 -0.361,9.293c0.002,0.057 0.008,0.116 0.009,0.175c0.329,2.59 1.398,5.258 2.579,7.797c0.128,0.278 0.326,0.536 0.623,0.631c0.956,0.312 2.219,0.733 2.835,0.972c3.286,0.814 6.829,-0.537 10.056,-1.088c6.649,-1.133 13.987,0.948 20.228,3.136c6.208,2.179 13.301,6.702 17.382,11.759c3.921,4.855 8.497,11.987 7.654,17.953c-0.227,1.605 0.221,3.224 -0.047,4.834c-0.15,0.915 -0.571,1.935 -1.233,2.825c-0.135,0.184 -0.396,-0.017 -0.334,-0.235c0.719,-2.455 -0.109,-4.546 -1.876,-6.239c-1.786,-1.71 -4.2,-1.891 -6.542,-2.408c-3.734,-0.823 -7.422,-1.791 -11.134,-2.697c-6.861,-1.675 -13.445,-3.798 -19.484,-7.467c-5.649,-3.43 -8.072,-8.395 -11.057,-13.85c-1.26,-2.298 -3.232,-4.37 -5.61,-5.795c-0.136,-0.082 -0.357,-0.019 -0.289,0.119c0.952,1.972 1.829,3.817 2.277,5.41c0.908,3.226 0.837,6.308 0.281,9.395c-0.061,0.333 0.055,0.693 0.372,0.835c2.474,1.116 5.411,2.732 8.293,5.95c4.091,4.568 4.227,9.821 4.199,14.638c-0.038,5.743 -0.885,11.824 -2.95,16.599c-0.693,1.607 -1.372,3.205 -1.971,4.87c-0.075,0.206 -0.386,0.01 -0.411,-0.208c-0.184,-1.677 -0.652,-3.455 -1.583,-5.03c-2.529,-4.287 -3.528,-8.492 -4.686,-13.053c-1.174,-4.614 -2.664,-9.212 -4.197,-13.813c-0.055,-0.17 -0.296,-0.109 -0.362,0.056c-2.228,5.49 -5.314,10.642 -9.787,14.72c-5.675,5.173 -12.903,8.494 -19.221,12.853c-4.425,3.056 -10.034,7.726 -14.12,9.036c-0.173,0.055 -0.144,-0.282 0.002,-0.388c2.301,-1.653 4.259,-4.276 5.546,-6.575c3.196,-5.718 5.931,-11.851 9.71,-17.235c4.458,-6.355 7.765,-14.651 11.059,-21.63c3.479,-7.369 6.629,-12.835 11.092,-18.966c1.327,-1.824 2.026,-3.418 2.027,-5.423c-0.096,-0.774 -0.171,-1.623 -0.216,-2.524c-0.157,-3.321 0.083,-7.212 -0.096,-8.981c-0.025,-0.228 -0.052,-0.453 -0.081,-0.677c-0.025,-0.185 -0.194,-0.504 -0.296,-0.346c-4.342,6.584 -11.703,9.356 -18.978,11.815c-3.334,1.126 -9.01,2.546 -12.538,3.095c-1.042,0.165 -4.295,1.329 -5.9,3.838c-0.08,0.126 -0.28,0.038 -0.239,-0.106c0.9,-3.019 4.116,-6.313 6.825,-8.416c5.687,-4.412 10.932,-7.865 15.929,-13.121c2.139,-2.252 4.401,-4.279 6.389,-6.538c0.186,-0.212 0.231,-0.546 -0.019,-0.685c-2.067,-1.145 -4.172,-2.252 -6.255,-3.362c-8.303,-4.425 -17.152,-9.085 -25.313,-14.573l0,-32.192c4.854,1.614 9.403,4.125 13.9,7.361c4.988,3.588 10.232,7.084 14.965,11.079c0.159,0.133 0.443,0.116 0.432,-0.087c-0.061,-1.105 -0.138,-2.193 -0.239,-3.233c-0.506,-5.19 -1.662,-14.27 -4.017,-18.763c-0.136,-0.262 -0.384,-0.454 -0.679,-0.517c-8.118,-1.737 -16.235,-3.501 -24.362,-5.204l0,-3.143c15.192,3.205 30.172,6.878 45.11,10.956c0.336,0.09 0.679,-0.048 0.99,-0.202c0.618,-0.304 1.245,-0.61 1.889,-0.913c5.792,-2.625 14.312,-4.64 20.283,-8.361c5.121,-3.049 10.723,-6.245 15.047,-9.348c7.332,-5.62 10.268,-5.78 13.235,-12.236c0.526,-1.353 0.906,-2.542 1.196,-3.593l0.859,0c-0.077,1.169 -0.195,2.288 -0.355,3.357c-0.551,3.167 -1.314,6.204 -2.366,8.969c-0.129,0.338 -0.238,0.681 -0.313,1.034c-2.111,10.019 -9.903,21.191 -18.672,28.594c-0.152,0.126 -0.257,0.377 -0.062,0.412l9.571,1.599c1.558,0.284 3.037,0.683 4.42,1.13c0.32,0.102 0.684,0.117 0.94,-0.094c3.646,-3.04 7.839,-7.85 10.828,-10.878c2.487,-2.521 5.525,-4.568 8.315,-6.751c3.561,-2.784 6.639,-5.996 10.055,-8.919c4.669,-3.991 9.238,-8.748 15.065,-10.912Z" style="fill:#c397c6;fill-rule:nonzero;"/></svg>