<?xml version="1.0" encoding="UTF-8" standalone="no"?><!DOCTYPE svg PUBLIC "-//W3C//DTD SVG 1.1//EN" "http://www.w3.org/Graphics/SVG/1.1/DTD/svg11.dtd"><svg width="100%" height="100%" viewBox="0 0 34 18" version="1.1" xmlns="http://www.w3.org/2000/svg" xmlns:xlink="http://www.w3.org/1999/xlink" xml:space="preserve" xmlns:serif="http://www.serif.com/" style="fill-rule:evenodd;clip-rule:evenodd;stroke-linejoin:round;stroke-miterlimit:2;"><clipPath id="_clip1"><path d="M-14.985,58.511l238.118,45.118l71.425,-324.956l-238.119,-45.118l-71.424,324.956Z"/></clipPath><g clip-path="url(#_clip1)"><path d="M33.503,10.278c1.23,-0.594 -1.227,-6.023 -3.427,-6.888c-2.777,-1.092 -5.626,-2.154 -8.627,-2.683c-6.135,-1.077 -14.49,-1.685 -18.668,4.05c-0.483,0.663 -0.854,1.391 -1.252,2.1c-0.376,0.666 -1.248,1.135 -1.505,1.817c-0.238,0.628 1.37,1.979 1.73,2.488c3.294,4.632 8.53,6.796 14.748,6.017c6.358,-0.791 11.503,-4.24 17.001,-6.901Z" style="fill:#c397c6;fill-rule:nonzero;"/></g></svg>