<?xml version="1.0" encoding="UTF-8" standalone="no"?>
<!DOCTYPE svg PUBLIC "-//W3C//DTD SVG 1.1//EN" "http://www.w3.org/Graphics/SVG/1.1/DTD/svg11.dtd">
<svg width="100%" height="100%" viewBox="0 0 132 152" version="1.1" xmlns="http://www.w3.org/2000/svg" xmlns:xlink="http://www.w3.org/1999/xlink" xml:space="preserve" xmlns:serif="http://www.serif.com/" style="fill-rule:evenodd;clip-rule:evenodd;stroke-linejoin:round;stroke-miterlimit:2;">
    <g transform="matrix(1,0,0,1,-1798.16,-1181.92)">
        <g transform="matrix(1.89182,0,0,1.83049,1411.9,928.843)">
            <g transform="matrix(151.028,-147.516,-147.516,-151.028,231.826,194.666)">
                <path d="M0.212,-0.052C0.211,-0.051 0.213,-0.048 0.214,-0.047C0.215,-0.046 0.216,-0.045 0.218,-0.045C0.218,-0.045 0.221,-0.045 0.221,-0.046C0.223,-0.048 0.214,-0.054 0.212,-0.052ZM0.242,-0.017C0.238,-0.02 0.232,-0.025 0.229,-0.026C0.227,-0.027 0.229,-0.021 0.231,-0.018C0.234,-0.011 0.241,-0.008 0.248,-0.006C0.249,-0.005 0.25,-0.006 0.25,-0.007C0.248,-0.012 0.245,-0.015 0.242,-0.017ZM0.204,-0.044C0.195,-0.046 0.185,-0.044 0.176,-0.042C0.17,-0.041 0.164,-0.039 0.157,-0.04C0.15,-0.041 0.145,-0.046 0.141,-0.051C0.141,-0.052 0.14,-0.052 0.14,-0.052C0.13,-0.047 0.119,-0.042 0.107,-0.042C0.119,-0.037 0.129,-0.029 0.137,-0.019C0.139,-0.018 0.144,-0.02 0.147,-0.02C0.15,-0.021 0.154,-0.021 0.156,-0.022C0.163,-0.023 0.169,-0.024 0.176,-0.026C0.185,-0.029 0.194,-0.035 0.205,-0.038C0.207,-0.039 0.209,-0.039 0.212,-0.04C0.212,-0.04 0.214,-0.04 0.214,-0.041C0.214,-0.042 0.205,-0.044 0.204,-0.044ZM0.101,-0.132C0.097,-0.134 0.094,-0.136 0.09,-0.138C0.097,-0.13 0.102,-0.119 0.111,-0.113C0.111,-0.113 0.112,-0.113 0.112,-0.113C0.124,-0.111 0.134,-0.106 0.144,-0.099C0.145,-0.098 0.146,-0.097 0.147,-0.097C0.146,-0.099 0.144,-0.1 0.143,-0.101C0.132,-0.114 0.116,-0.124 0.101,-0.132ZM0.178,-0.01C0.188,-0.017 0.198,-0.023 0.208,-0.03C0.209,-0.031 0.216,-0.035 0.211,-0.035C0.206,-0.035 0.201,-0.032 0.196,-0.03C0.192,-0.028 0.186,-0.026 0.183,-0.023C0.181,-0.022 0.178,-0.018 0.177,-0.017C0.176,-0.016 0.169,-0.005 0.169,-0.004C0.169,-0.003 0.177,-0.009 0.178,-0.01ZM0.22,0.015C0.221,0.016 0.23,0.019 0.231,0.018C0.232,0.017 0.231,0.015 0.231,0.015C0.23,0.012 0.23,0.007 0.229,0.005C0.229,0 0.23,-0.005 0.229,-0.009C0.229,-0.013 0.227,-0.017 0.226,-0.021C0.226,-0.022 0.225,-0.025 0.224,-0.025C0.224,-0.025 0.222,-0.023 0.221,-0.022C0.222,-0.019 0.223,-0.016 0.222,-0.013C0.222,-0.006 0.219,0 0.215,0.006C0.214,0.007 0.213,0.009 0.212,0.011C0.214,0.013 0.216,0.014 0.22,0.015ZM0.143,0.045C0.137,0.052 0.132,0.061 0.132,0.07C0.131,0.077 0.133,0.083 0.133,0.09C0.134,0.095 0.133,0.106 0.129,0.11C0.128,0.111 0.126,0.111 0.126,0.112C0.123,0.115 0.124,0.119 0.124,0.122C0.125,0.124 0.126,0.126 0.127,0.127C0.13,0.129 0.132,0.126 0.134,0.128C0.135,0.13 0.132,0.131 0.131,0.131C0.129,0.131 0.127,0.129 0.126,0.129C0.124,0.129 0.122,0.132 0.123,0.133C0.123,0.134 0.125,0.135 0.127,0.135C0.132,0.135 0.137,0.135 0.142,0.134C0.14,0.129 0.14,0.124 0.14,0.118L0.14,0.108C0.141,0.096 0.142,0.083 0.147,0.072C0.151,0.062 0.157,0.053 0.16,0.043C0.155,0.045 0.149,0.045 0.143,0.045ZM0.121,0.123C0.119,0.123 0.118,0.131 0.119,0.132C0.121,0.134 0.122,0.129 0.122,0.127C0.122,0.126 0.122,0.123 0.121,0.123ZM-0.011,-0.007C-0.015,-0.006 -0.018,-0.004 -0.021,-0.002C-0.025,0.001 -0.03,0.004 -0.034,0.008C-0.036,0.01 -0.037,0.011 -0.039,0.013C-0.044,0.017 -0.046,0.024 -0.049,0.03C-0.05,0.033 -0.051,0.036 -0.052,0.039C-0.047,0.035 -0.042,0.031 -0.036,0.027C-0.034,0.025 -0.031,0.023 -0.029,0.021C-0.026,0.018 -0.024,0.014 -0.021,0.01C-0.018,0.006 -0.015,0.001 -0.012,-0.004C-0.011,-0.005 -0.009,-0.007 -0.01,-0.008C-0.011,-0.008 -0.011,-0.008 -0.011,-0.007ZM0.305,0.057C0.302,0.056 0.299,0.053 0.297,0.05C0.296,0.049 0.293,0.045 0.292,0.045C0.291,0.045 0.29,0.052 0.29,0.053C0.289,0.056 0.288,0.06 0.286,0.062C0.282,0.067 0.277,0.067 0.271,0.066C0.268,0.065 0.262,0.062 0.258,0.059C0.257,0.058 0.255,0.056 0.254,0.056C0.253,0.067 0.256,0.085 0.245,0.092C0.238,0.098 0.227,0.09 0.221,0.084C0.22,0.084 0.22,0.084 0.22,0.084C0.21,0.074 0.202,0.064 0.201,0.049C0.2,0.04 0.202,0.033 0.203,0.025C0.203,0.023 0.204,0.021 0.204,0.019C0.198,0.024 0.191,0.029 0.185,0.033C0.182,0.035 0.18,0.036 0.177,0.037C0.181,0.049 0.189,0.06 0.196,0.071C0.207,0.091 0.215,0.117 0.212,0.139C0.21,0.148 0.207,0.156 0.203,0.164C0.199,0.173 0.196,0.19 0.183,0.189C0.173,0.188 0.164,0.178 0.158,0.17C0.151,0.168 0.145,0.165 0.139,0.16C0.134,0.156 0.13,0.152 0.126,0.147C0.126,0.147 0.124,0.145 0.123,0.145C0.122,0.145 0.124,0.149 0.124,0.149C0.126,0.154 0.128,0.158 0.131,0.162C0.135,0.167 0.142,0.172 0.147,0.177C0.149,0.179 0.152,0.182 0.154,0.184C0.157,0.187 0.158,0.189 0.159,0.192C0.159,0.198 0.159,0.206 0.156,0.212C0.154,0.217 0.151,0.216 0.147,0.217C0.141,0.217 0.136,0.218 0.13,0.219C0.124,0.22 0.12,0.222 0.114,0.224C0.112,0.225 0.111,0.226 0.109,0.226C0.102,0.227 0.101,0.218 0.1,0.213C0.099,0.205 0.1,0.195 0.103,0.188C0.107,0.179 0.113,0.17 0.117,0.16C0.119,0.156 0.12,0.152 0.12,0.148C0.119,0.144 0.118,0.14 0.117,0.137C0.117,0.135 0.117,0.133 0.117,0.131C0.116,0.128 0.116,0.126 0.114,0.126C0.112,0.126 0.112,0.13 0.112,0.131C0.113,0.133 0.113,0.134 0.113,0.136C0.112,0.145 0.103,0.153 0.096,0.151C0.095,0.151 0.092,0.149 0.091,0.15C0.09,0.15 0.088,0.154 0.086,0.156C0.082,0.162 0.076,0.169 0.071,0.173C0.064,0.179 0.057,0.184 0.048,0.186C0.027,0.19 0.002,0.185 -0.015,0.172C-0.024,0.166 -0.018,0.158 -0.009,0.154C0.004,0.148 0.011,0.135 0.027,0.134C0.04,0.133 0.049,0.137 0.061,0.144C0.073,0.151 0.08,0.156 0.087,0.148C0.088,0.147 0.076,0.145 0.075,0.135C0.074,0.12 0.094,0.117 0.105,0.119C0.107,0.119 0.108,0.12 0.11,0.12C0.112,0.12 0.113,0.118 0.115,0.117C0.116,0.116 0.121,0.112 0.119,0.111C0.119,0.11 0.115,0.108 0.114,0.108C0.109,0.106 0.107,0.105 0.102,0.104C0.1,0.103 0.098,0.103 0.097,0.102C0.093,0.101 0.089,0.101 0.086,0.099C0.078,0.095 0.076,0.089 0.076,0.082C0.077,0.08 0.079,0.075 0.082,0.072C0.082,0.071 0.083,0.07 0.083,0.07C0.076,0.066 0.066,0.069 0.058,0.065C0.051,0.062 0.052,0.053 0.053,0.047C0.056,0.038 0.061,0.03 0.065,0.023C0.07,0.015 0.075,0.009 0.082,0.004C0.081,0.003 0.079,0.003 0.078,0.003C0.07,0.002 0.063,0 0.054,-0.004C0.051,-0.005 0.048,-0.008 0.044,-0.009C0.041,-0.01 0.037,-0.01 0.033,-0.01C0.025,-0.009 0.019,-0.009 0.011,-0.008C0.008,-0.008 0.003,-0.008 0.001,-0.007C0,-0.006 -0.002,-0.005 -0.002,-0.002C-0.001,0.004 0.006,0.003 0.011,0.012C0.013,0.015 0.013,0.019 0.014,0.022C0.015,0.027 0.018,0.03 0.021,0.033C0.023,0.036 0.026,0.039 0.025,0.043C0.024,0.046 0.02,0.048 0.016,0.049C0.01,0.05 0.004,0.048 -0.001,0.045C-0.009,0.04 -0.012,0.033 -0.013,0.028C-0.014,0.023 -0.013,0.021 -0.012,0.016C-0.01,0.012 -0.01,0.01 -0.007,0.005C-0.004,0 -0.006,-0.007 -0.011,-0.001C-0.014,0.002 -0.016,0.006 -0.018,0.01C-0.02,0.014 -0.024,0.017 -0.022,0.023C-0.021,0.027 -0.018,0.03 -0.016,0.034C-0.013,0.041 -0.01,0.049 -0.01,0.055C-0.01,0.065 -0.013,0.076 -0.026,0.083C-0.03,0.086 -0.034,0.087 -0.037,0.088C-0.039,0.088 -0.041,0.088 -0.042,0.089C-0.046,0.09 -0.051,0.092 -0.055,0.089C-0.058,0.087 -0.059,0.083 -0.061,0.079C-0.063,0.075 -0.065,0.072 -0.066,0.069C-0.066,0.067 -0.066,0.064 -0.066,0.062C-0.072,0.066 -0.079,0.069 -0.089,0.068C-0.109,0.067 -0.1,0.043 -0.093,0.033C-0.086,0.023 -0.075,0.018 -0.064,0.016C-0.06,0.015 -0.057,0.015 -0.053,0.014C-0.049,0.013 -0.044,0.012 -0.04,0.009C-0.035,0.006 -0.031,0.002 -0.026,-0.002C-0.025,-0.002 -0.024,-0.003 -0.025,-0.004C-0.025,-0.005 -0.028,-0.004 -0.029,-0.003C-0.032,-0.003 -0.036,-0.002 -0.039,-0.002C-0.046,-0.001 -0.053,-0.001 -0.059,0C-0.065,0.001 -0.071,0.003 -0.077,0.006C-0.084,0.008 -0.091,0.011 -0.097,0.013C-0.102,0.014 -0.106,0.014 -0.11,0.014C-0.125,0.013 -0.139,0.007 -0.145,-0.008C-0.146,-0.009 -0.146,-0.011 -0.147,-0.013C-0.149,-0.017 -0.148,-0.02 -0.146,-0.023C-0.137,-0.039 -0.11,-0.043 -0.094,-0.036C-0.091,-0.035 -0.088,-0.034 -0.086,-0.033C-0.082,-0.03 -0.077,-0.025 -0.073,-0.021C-0.068,-0.017 -0.064,-0.012 -0.059,-0.008C-0.051,-0.004 -0.043,-0.004 -0.035,-0.006C-0.031,-0.007 -0.028,-0.007 -0.025,-0.008C-0.024,-0.008 -0.021,-0.008 -0.022,-0.01C-0.022,-0.011 -0.037,-0.015 -0.042,-0.018C-0.055,-0.023 -0.067,-0.03 -0.075,-0.042C-0.077,-0.045 -0.079,-0.049 -0.081,-0.053C-0.083,-0.059 -0.085,-0.066 -0.081,-0.071C-0.078,-0.075 -0.073,-0.077 -0.068,-0.078C-0.054,-0.08 -0.038,-0.076 -0.026,-0.069C-0.021,-0.066 -0.016,-0.06 -0.014,-0.054C-0.011,-0.047 -0.011,-0.039 -0.013,-0.032C-0.014,-0.03 -0.014,-0.027 -0.015,-0.025C-0.017,-0.021 -0.019,-0.018 -0.019,-0.014C-0.019,-0.013 -0.018,-0.012 -0.017,-0.012C-0.015,-0.012 -0.012,-0.012 -0.009,-0.012C-0.008,-0.012 -0.006,-0.012 -0.006,-0.013C-0.005,-0.015 -0.006,-0.015 -0.007,-0.016C-0.009,-0.017 -0.011,-0.02 -0.011,-0.022C-0.012,-0.026 -0.01,-0.029 -0.009,-0.032C-0.009,-0.033 -0.008,-0.035 -0.007,-0.034C-0.006,-0.034 -0.006,-0.033 -0.006,-0.032C-0.004,-0.03 -0.002,-0.027 -0.002,-0.024C-0.002,-0.022 -0.003,-0.02 -0.002,-0.018C-0.002,-0.017 0.002,-0.014 0.004,-0.014C0.009,-0.013 0.017,-0.013 0.024,-0.014C0.027,-0.014 0.029,-0.014 0.032,-0.014C0.034,-0.014 0.036,-0.014 0.036,-0.014C0.037,-0.015 0.033,-0.018 0.032,-0.019C0.026,-0.025 0.023,-0.03 0.021,-0.035C0.02,-0.039 0.018,-0.043 0.019,-0.048C0.021,-0.06 0.032,-0.063 0.043,-0.066C0.045,-0.067 0.047,-0.067 0.048,-0.068C0.049,-0.07 0.046,-0.072 0.046,-0.074C0.045,-0.076 0.045,-0.078 0.044,-0.08C0.044,-0.083 0.044,-0.088 0.045,-0.092C0.047,-0.099 0.052,-0.103 0.056,-0.106C0.058,-0.108 0.062,-0.11 0.066,-0.111L0.067,-0.111C0.051,-0.111 0.04,-0.119 0.034,-0.135C0.026,-0.155 0.053,-0.156 0.066,-0.153C0.067,-0.153 0.067,-0.153 0.068,-0.153C0.065,-0.156 0.062,-0.159 0.06,-0.162C0.047,-0.179 0.041,-0.201 0.051,-0.221C0.052,-0.224 0.053,-0.226 0.055,-0.228L0.135,-0.146C0.134,-0.136 0.133,-0.124 0.138,-0.114C0.14,-0.11 0.144,-0.105 0.147,-0.101C0.148,-0.1 0.15,-0.099 0.151,-0.097C0.151,-0.099 0.151,-0.1 0.151,-0.101C0.151,-0.106 0.154,-0.115 0.159,-0.12C0.159,-0.12 0.16,-0.12 0.16,-0.12L0.218,-0.061C0.217,-0.059 0.218,-0.055 0.219,-0.054C0.221,-0.053 0.221,-0.054 0.221,-0.055C0.221,-0.056 0.221,-0.057 0.221,-0.058L0.285,0.007C0.285,0.009 0.285,0.011 0.286,0.012C0.288,0.012 0.288,0.012 0.288,0.011L0.315,0.039C0.315,0.04 0.315,0.04 0.315,0.041C0.314,0.045 0.311,0.058 0.305,0.057Z" style="fill:rgb(195,151,198);fill-rule:nonzero;"/>
            </g>
        </g>
    </g>
</svg>
