<?xml version="1.0" encoding="UTF-8" standalone="no"?><!DOCTYPE svg PUBLIC "-//W3C//DTD SVG 1.1//EN" "http://www.w3.org/Graphics/SVG/1.1/DTD/svg11.dtd"><svg width="100%" height="100%" viewBox="0 0 247 138" version="1.1" xmlns="http://www.w3.org/2000/svg" xmlns:xlink="http://www.w3.org/1999/xlink" xml:space="preserve" xmlns:serif="http://www.serif.com/" style="fill-rule:evenodd;clip-rule:evenodd;stroke-linejoin:round;stroke-miterlimit:2;"><path d="M9.097,13.019c-12.38,16.823 -12.087,38.094 0.654,47.471c12.742,9.377 33.138,3.331 45.519,-13.492c-11.21,11.202 -28.431,14.32 -39.911,5.872c-11.48,-8.449 -13.623,-25.818 -6.262,-39.851Z" style="fill:#e0b3e2;"/><path d="M124.775,59.729c0.24,-0.266 0.634,-0.327 0.943,-0.144c0.309,0.182 0.446,0.557 0.328,0.895l-1.478,4.257l4.116,1.834c0.327,0.146 0.507,0.503 0.429,0.853c-0.079,0.349 -0.392,0.596 -0.751,0.588l-4.505,-0.09l-0.473,4.481c-0.037,0.357 -0.321,0.637 -0.677,0.671c-0.357,0.034 -0.689,-0.188 -0.792,-0.531l-1.306,-4.313l-4.409,0.935c-0.35,0.075 -0.705,-0.108 -0.847,-0.437c-0.143,-0.329 -0.034,-0.713 0.261,-0.918l3.698,-2.574l-2.252,-3.904c-0.179,-0.31 -0.115,-0.704 0.154,-0.941c0.269,-0.237 0.668,-0.252 0.953,-0.035l3.592,2.721l3.016,-3.348Z" style="fill:#ca83ce;"/><path d="M147.787,0.21c0.209,-0.229 0.558,-0.277 0.834,-0.114c0.276,0.164 0.403,0.492 0.303,0.786l-1.257,3.697l3.675,1.654c0.292,0.131 0.455,0.445 0.391,0.749c-0.065,0.305 -0.34,0.516 -0.658,0.505l-3.998,-0.137l-0.361,3.906c-0.029,0.31 -0.277,0.552 -0.593,0.577c-0.316,0.025 -0.613,-0.174 -0.709,-0.474l-1.214,-3.782l-3.898,0.76c-0.31,0.061 -0.627,-0.103 -0.757,-0.392c-0.131,-0.289 -0.039,-0.623 0.219,-0.798l3.248,-2.2l-2.048,-3.436c-0.163,-0.273 -0.11,-0.616 0.125,-0.82c0.235,-0.203 0.589,-0.211 0.845,-0.018l3.22,2.421l2.633,-2.884Z" style="fill:#e5d3e7;"/><path d="M245.316,126.593c0.343,-0.105 0.712,0.046 0.883,0.361c0.171,0.315 0.096,0.706 -0.178,0.936l-3.456,2.893l2.589,3.688c0.206,0.294 0.177,0.692 -0.07,0.952c-0.247,0.26 -0.642,0.31 -0.946,0.119l-3.819,-2.392l-2.708,3.602c-0.215,0.287 -0.602,0.382 -0.926,0.227c-0.323,-0.154 -0.493,-0.515 -0.406,-0.863l1.095,-4.371l-4.262,-1.462c-0.34,-0.116 -0.55,-0.455 -0.503,-0.811c0.047,-0.355 0.338,-0.628 0.695,-0.653l4.496,-0.309l0.073,-4.505c0.006,-0.359 0.264,-0.664 0.616,-0.729c0.352,-0.065 0.702,0.127 0.836,0.459l1.683,4.181l4.308,-1.323Z" style="fill:#dfc7e0;"/></svg>