<?xml version="1.0" encoding="UTF-8" standalone="no"?><!DOCTYPE svg PUBLIC "-//W3C//DTD SVG 1.1//EN" "http://www.w3.org/Graphics/SVG/1.1/DTD/svg11.dtd"><svg width="100%" height="100%" viewBox="0 0 123 82" version="1.1" xmlns="http://www.w3.org/2000/svg" xmlns:xlink="http://www.w3.org/1999/xlink" xml:space="preserve" xmlns:serif="http://www.serif.com/" style="fill-rule:evenodd;clip-rule:evenodd;stroke-linejoin:round;stroke-miterlimit:2;"><path d="M37.993,42.726c-2.031,-2.561 -8.2,-7.606 -12.602,-9.675c-4.401,-2.07 -14.083,-3.828 -18.219,-0.757c-4.135,3.071 -5.078,9.039 -2.299,13.503c3.286,5.279 7.118,9.547 8.282,12.508c1.531,3.9 -0.493,5.859 -1.127,6.413c-0.634,0.554 -2.961,0.851 -1.217,-1.841c1.745,-2.692 -1.765,-5.378 -3.181,-7.37c-1.415,-1.993 -8.474,-9.359 -7.546,-16.556c1.021,-7.922 7.741,-11.352 11.749,-11.924c4.008,-0.571 13.08,0.267 20.309,3.72" style="fill:#fff;fill-rule:nonzero;"/><path d="M83.765,71.6c0.406,0.558 1.821,1.32 4.142,1.776c1.04,0.205 1.949,0.491 2.707,0.848c0,0 0,0 0,0.001c0.104,0.049 0.206,0.099 0.304,0.151c0,0 0.001,0 0.001,0c0.097,0.051 0.19,0.104 0.281,0.157c0.003,0.002 0.006,0.003 0.008,0.005c0.087,0.051 0.171,0.104 0.253,0.158c0.006,0.004 0.013,0.008 0.019,0.012c0.076,0.051 0.149,0.102 0.221,0.155c0.01,0.008 0.021,0.015 0.031,0.023c0.066,0.049 0.128,0.099 0.189,0.15c0.014,0.012 0.029,0.023 0.043,0.034c0.056,0.048 0.109,0.097 0.161,0.146c0.016,0.015 0.033,0.03 0.049,0.045c0.014,0.014 0.027,0.027 0.04,0.04l0,-0.01l0,-0.044l0,-0.044l0,-0.044l0,-0.044l0,-0.045l0,-0.044l0,-0.044l0,-0.044l0,-0.044l0,-0.044l0,-0.044l0,-0.044l0,-0.044l0,-0.044l0,-0.045l0,-0.044l0,-0.044l0,-0.044l0,-0.044l0,-0.044l0,-0.044l0,-0.044l0,-0.044l0,-0.044l0,-0.044l0,-0.045l0,-0.044l0,-0.044l0,-0.044l0,-0.044l0,-0.044l0,-0.044l0,-0.044l0,-0.044l0,-0.044l0,-0.045l0,-0.044l0,-0.044l0,-0.044l0,-0.044l0,-0.044l0,-0.044l0,-0.044l0,-0.044l0,-0.044l0,-0.044l0,-0.044l0,-0.045l0,-0.044l0,-0.044l0,-0.044l0,-0.044l0,-0.044l0,-0.044l0,-0.044l0,-0.044l0,-0.044l0,-0.045l0,-0.044l0,-0.044l0,-0.044l0,-0.044l0,-0.044l0,-0.044l0,-0.044l0,-0.044l0,-0.044l0,-0.044l0,-0.045l0,-0.044l0,-0.044l0,-0.044l0,-0.044l0,-0.044l0,-0.044l0,-0.044l0,-0.044l0,-0.044l0,-0.045l0,-0.044l0,-0.044l0,-0.044l0,-0.044l0,-0.044l0,-0.044l0,-0.044l0,-0.044l0,-0.044l0,-0.045l0,-0.044l0,-0.044l0,-0.044l0,-0.044l0,-0.044l0,-0.044l0,-0.044l0,-0.044l0,-0.044l0,-0.044l0,-0.045l0,-0.044l0,-0.044l0,-0.044l0,-0.044l0,-1.82l-2.765,0l0,-0.005l0,-0.049l0,-0.048l0,-0.048l0,-0.048l0,-0.049l0,-0.048l0,-0.048l0,-0.049l0,-0.048l0,-0.048l0,-0.049l0,-0.048l0,-0.048l0,-0.049l0,-0.048l0,-0.048l0,-0.048l0,-0.049l0,-0.048l0,-0.048l0,-0.049l0,-0.048l0,-0.048l0,-0.049l0,-0.048l0,-0.048l0,-0.048l0,-0.049l0,-0.048l0,-0.048l0,-0.049l0,-0.048l0,-0.048l0,-0.049l0,-0.048l0,-0.048l0,-0.049l0,-0.048l0,-0.048l0,-0.048l0,-0.049l0,-0.048l0,-0.048l0,-0.049l0,-0.048l0,-0.048l0,-0.048l0,-0.049l0,-0.048l0,-0.049l0,-0.048l0,-0.048l0,-0.048l0,-0.049l0,-0.048l0,-0.048l0,-0.049l0,-0.048l0,-0.048l0,-0.048l0,-0.049l0,-0.048l0,-0.048l0,-0.049l0,-0.048l0,-0.048l0,-0.049l0,-0.048l0,-0.048l0,-0.048l0,-0.049l0,-0.048l0,-0.048l0,-0.049l0,-0.048l0,-0.048l0,-0.049l0,-0.048l0,-0.048l0,-0.049l0,-0.048l0,-0.048l0,-0.048l0,-0.049l0,-0.048l0,-0.048l0,-0.049l0,-0.048l0,-0.048l0,-0.049l0,-0.048l0,-0.048l0,-0.049l0,-0.048l0,-0.048l0,-0.048l0,-0.049l0,-3.193c-0.132,-0.203 -0.263,-0.413 -0.391,-0.626c-0.964,2.452 -2.4,5.992 -3.821,8.434c-0.625,1.074 -1.182,1.817 -1.695,2.322c0.066,0.19 0.14,0.355 0.223,0.469m-62.517,-6.444c-0.711,-1.624 0.555,-3.199 1.674,-3.654c0.64,-0.26 2.037,-0.476 3.014,-0.599c1.794,-0.894 4.959,-2.521 7.338,-5.592c0.976,-1.259 1.464,-2.353 1.599,-3.38c-0.679,0.336 -1.345,0.386 -1.345,0.386c0,0 0.609,-0.558 0.913,-1.116c0.305,-0.558 0.152,-1.218 0.152,-1.218c-0.507,0.863 -1.42,0.913 -1.42,0.913c0,0 0.71,-0.558 0.761,-1.42c0.025,-0.429 -0.087,-1.156 -0.207,-1.781c-0.18,-0.32 -0.376,-0.647 -0.583,-0.985c0.003,0.963 0.225,1.852 0.225,1.852c0,0 -0.59,-0.457 -1.084,-1.598c-0.495,-1.142 -0.571,-2.569 -0.571,-2.569c-0.267,1.256 -0.267,1.75 -0.171,2.588c-0.514,-0.723 -1.112,-2.266 -1.275,-3.635c-0.053,-0.441 -0.049,-0.834 -0.013,-1.175c-0.273,0.587 -0.484,1.25 -0.52,1.936c-0.091,-0.066 -0.685,-1.37 -0.761,-2.816c-0.077,-1.446 0.599,-3.124 0.599,-3.124c0,0 -0.561,0.27 -1.361,2.134c-0.076,-0.609 -0.098,-2.007 0.115,-3.139c0.313,-1.665 1.11,-3.485 1.319,-3.943c0,-0.002 0,-0.004 0.001,-0.006c-0.398,0.037 -0.798,0.049 -1.194,0.022c-3.805,-0.253 -4.617,-2.994 -4.414,-4.009c0.141,-0.703 1.674,-0.862 4.465,-0.101c1.155,0.315 2.405,-0.18 3.47,-0.864c1.16,-1.517 2.644,-3.069 4.138,-4.353c0.626,-0.587 1.249,-1.094 1.831,-1.481c0.346,-0.231 0.743,-0.467 1.178,-0.702c0.275,-0.156 0.542,-0.293 0.797,-0.407c3.462,-1.681 8.831,-3.212 13.451,-2.9c1.668,0.112 4.692,0.224 8.83,0.797c2.438,0.337 5.262,0.835 8.423,1.588c4.47,1.064 3.857,-0.711 9.54,-1.117c4.977,-0.355 8.83,0.406 8.83,0.406c0,0 2.055,-0.685 5.328,-1.446c1.242,-0.289 2.664,-0.567 3.907,-0.795c0.203,-0.406 0.436,-0.804 0.703,-1.192c-0.295,0.111 -0.556,0.221 -0.703,0.3c0.412,-0.546 0.947,-1.107 1.561,-1.531c-0.356,0.123 -0.684,0.249 -0.85,0.338c0.754,-1.001 2.017,-2.114 3.364,-2.307c-0.57,-0.018 -1.237,0.02 -1.512,0.049c1.267,-0.784 2.741,-1.365 4.128,-1.009c0.155,-0.041 0.312,-0.081 0.471,-0.118c-0.246,-0.146 -0.523,-0.252 -0.818,-0.281c0.831,-0.459 1.932,-0.523 2.766,-0.032c0.182,-0.016 0.367,-0.028 0.553,-0.037c-0.389,-0.24 -0.821,-0.401 -1.264,-0.515c0.89,-0.111 1.603,-0.005 2.266,0.365c-0.027,-0.223 -0.063,-0.442 -0.11,-0.607c0.278,0.153 1.275,0.81 1.275,0.81c0,0 0.459,-0.431 0.742,-0.821c0.402,0.255 1.116,1.098 1.116,1.098l0.102,-1.117c0,0 0.688,0.621 0.973,1.154c0.072,0.135 0.126,0.257 0.166,0.364c0.43,-0.29 1.216,-0.619 2.401,-0.443c-0.305,0.2 -0.666,0.371 -0.838,0.923c0.781,-0.257 1.409,-0.505 2.103,-0.324c-0.215,0.311 -0.367,0.575 -0.476,0.79c0.681,-0.145 1.482,-0.141 1.989,0.162c-0.285,0.057 -0.719,0.268 -0.825,0.539c1.044,0.003 2.487,0.558 2.487,0.558c0,0 -0.521,0.057 -1.339,0.234c-0.054,0.012 -0.107,0.026 -0.161,0.041c0.347,0.167 0.672,0.384 0.97,0.634c1.062,0.891 1.638,2.166 3.169,2.339c-0.369,0.27 -0.774,0.447 -1.184,0.537c0.967,0.839 1.488,0.579 1.488,0.579c0,0 -0.304,0.495 -0.837,0.685c-0.107,0.038 -0.228,0.056 -0.355,0.061c0.07,0.158 0.126,0.321 0.164,0.486c0.184,0.798 0.195,2.289 -0.761,2.688c0.368,-0.325 0.385,-0.777 0.276,-1.219c-0.159,0.334 -0.349,0.599 -0.52,0.772c0.151,1.429 0.064,2.626 -0.191,3.74c0.059,0.398 0.174,0.854 0.397,1.211c0.508,0.812 0.964,1.116 0.964,1.116c0,0 -1.243,0 -1.915,-0.558c0,0 0.241,0.863 0.545,1.37c0,0 -0.338,-0.179 -0.716,-0.413c0.247,1.206 1.205,2.565 1.427,2.697c-0.464,-0.117 -0.971,-0.577 -1.174,-0.778c-0.101,-0.1 -0.197,-0.204 -0.29,-0.31c0.044,0.378 0.101,0.799 0.177,1.21c0.028,0.159 0.061,0.315 0.096,0.466c0.032,0.147 0.083,0.302 0.111,0.415c0.045,0.157 0.088,0.304 0.131,0.424c0.038,0.126 0.099,0.252 0.145,0.368c0.205,0.458 0.385,0.755 0.385,0.755c0,0 -0.1,-0.063 -0.266,-0.18l0,0.977c0.024,0.042 0.038,0.065 0.038,0.065c0,0 -0.014,-0.008 -0.038,-0.024l0,1.407l-1.275,0l0,4.745l-3.464,0l0,0.799l-0.26,0l0,1.268l-5.743,0l-0.011,-0.033l-0.014,-0.04l-0.013,-0.041l-0.013,-0.041l-0.014,-0.04l-0.013,-0.041l-0.013,-0.041l-0.014,-0.041l-0.013,-0.04l-0.013,-0.041l-0.014,-0.041l-0.013,-0.041l-0.013,-0.04l-0.014,-0.041l-0.013,-0.041l-0.013,-0.04l-0.014,-0.041l-0.013,-0.041l-0.013,-0.041l-0.014,-0.04l-0.013,-0.041l-0.014,-0.041l-0.013,-0.04l-0.013,-0.041l-0.013,-0.041l-0.014,-0.041l-0.013,-0.04l-0.014,-0.041l-0.013,-0.041l-0.013,-0.041l-0.014,-0.04l-0.013,-0.041l-0.008,-0.023c-0.199,-0.176 -0.377,-0.38 -0.53,-0.599c-0.118,0.385 -0.099,0.783 0.237,1.093c-0.463,-0.089 -1.008,-0.612 -1.396,-1.222c-0.037,0.076 -0.065,0.162 -0.083,0.265c-0.059,0.149 0.009,0.929 -0.031,0.963c0,-0.105 -0.475,-0.328 -0.781,-0.814c-0.063,0.429 -0.145,0.846 -0.145,0.846c0,0 -0.389,-0.882 -0.838,-1.546c0.107,0.582 0.125,1.143 0.026,1.559c-0.666,-0.528 -1.294,-0.955 -1.864,-1.278c-0.575,3.36 -1.726,6.354 -2.779,8.813c-1.523,3.552 -2.944,5.785 -1.827,8.83c1.083,2.952 1.974,6.955 2.305,10.527c0.404,1.753 0.739,4.899 0.739,4.899c0,0 0.812,0.102 2.994,0.355c2.182,0.254 4.161,1.421 5.227,1.979c1.066,0.559 3.222,2.665 2.715,3.375c-0.103,0.144 -0.234,0.212 -0.376,0.231c-0.533,0.116 -1.03,-0.115 -1.2,0.214c-0.037,0.072 -0.092,0.137 -0.175,0.189c-0.1,0.063 -0.219,0.08 -0.346,0.068c-0.466,-0.02 -0.876,-0.199 -1.342,0.095c-0.034,0.022 -0.072,0.044 -0.113,0.066c-0.514,0.267 -1.294,-0.178 -3.324,-0.838c-2.03,-0.66 -3.4,-0.05 -4.77,0.203c-1.37,0.254 -2.537,0.051 -3.653,-0.507c-0.715,-0.358 -0.848,-2.295 -0.85,-3.644c-0.049,-0.109 -0.096,-0.23 -0.144,-0.363l-0.006,0.014l-0.015,0.038l-0.016,0.038l-0.015,0.038l-0.015,0.038l-0.016,0.038l-0.015,0.038l-0.015,0.038l-0.015,0.038l-0.016,0.038l-0.015,0.038l-0.015,0.038l-0.015,0.038l-0.016,0.038l-0.009,0.023l-4.726,0c0.201,0.265 0.272,0.599 0.047,0.786c-0.012,0.011 -0.026,0.02 -0.042,0.028c-0.243,0.133 -0.821,0.023 -0.821,0.023c0,0 0.235,0.311 -0.152,0.558c-0.018,0.012 -0.038,0.02 -0.06,0.027c0,0 -0.001,0 -0.001,0c-0.022,0.007 -0.047,0.012 -0.074,0.014l0,0c-0.367,0.037 -1.172,-0.289 -2.453,-0.599c-1.471,-0.355 -2.03,-0.71 -3.552,-0.355c-1.522,0.355 -2.537,0.254 -3.4,-0.305c-0.863,-0.558 -1.738,-2.626 -1.738,-2.626c0,0 -1.002,-0.317 -1.865,0.597c-0.862,0.913 -1.564,0.745 -1.719,0.25c-0.24,-0.766 0.552,-1.975 1.77,-2.889c0.677,-0.508 1.087,-1.481 1.318,-2.245c0.017,-0.079 0.034,-0.162 0.051,-0.252l-0.659,0.543c0,0 0.077,-1.294 0.381,-2.968c0.259,-1.423 0.902,-2.9 1.089,-3.312c0.002,-0.008 0.003,-0.016 0.004,-0.023l-0.941,1.736c0,0 -0.076,-1.294 0.381,-2.74c0.457,-1.446 1.218,-2.664 1.218,-2.664l-1.218,0.913c0,0 0.304,-1.218 1.065,-2.512c0.383,-0.65 0.784,-1.491 1.089,-2.169c-0.43,0.071 -0.941,0.138 -1.545,0.19c0.689,-0.616 1.171,-1.24 1.507,-1.804c-0.509,0.376 -1.101,0.657 -1.685,0.866c0.467,-0.553 1.085,-1.347 1.149,-2.101c-0.003,0.001 -0.006,0.002 -0.009,0.003c0.004,-0.009 0.008,-0.018 0.012,-0.027c0,-0.005 0.001,-0.011 0.002,-0.017c-0.367,0.173 -0.817,0.346 -1.357,0.492c0.227,-0.472 0.426,-0.921 0.602,-1.343c-0.588,0.144 -1.271,0.237 -2.063,0.247l-2.624,0.031l0.624,-0.413c-0.866,0.161 -1.452,0.159 -1.488,0.158l-1.731,-0.017l0.666,-0.737c-0.501,0.083 -1.056,0.13 -1.666,0.125c-0.331,-0.004 -0.673,-0.023 -1.014,-0.058l-2.766,-0.279l1.464,-0.684c-0.729,-0.115 -1.465,-0.369 -2.197,-0.759l-1.876,-1l2.093,-0.409c0.009,-0.002 0.018,-0.004 0.027,-0.006c-0.919,0.043 -1.676,-0.069 -1.676,-0.069c0,0 0.651,-0.272 1.268,-0.864c-0.407,-0.174 -0.812,-0.35 -1.215,-0.531c-0.506,0.054 -1.054,0.057 -1.575,-0.052c0,0 0.267,-0.09 0.623,-0.384c-0.439,-0.205 -0.877,-0.414 -1.313,-0.624c-0.402,0.015 -0.819,-0.007 -1.213,-0.095c0,0 0.22,-0.077 0.494,-0.255c-0.236,-0.116 -0.472,-0.232 -0.708,-0.348c-0.602,-0.3 -1.203,-0.605 -1.805,-0.912c0.243,0.563 0.555,1.362 0.725,2.098c0.305,1.319 0.457,2.233 0.457,2.233c0,0 -0.767,-1.166 -1.303,-1.553c0,0 0.592,0.995 0.897,2.466c0,0 -0.774,-0.756 -0.913,-0.811l0,0c0.997,1.555 1.021,3.655 0.71,4.516c-0.084,-0.266 -0.269,-1.004 -0.754,-1.704c-0.033,1.451 -0.084,2.721 -0.16,3.531c-0.304,3.247 -1.116,6.038 -2.994,9.032c-1.508,2.405 -3.277,5.004 -4.178,6.461c0.948,-0.023 2.538,-0.024 4.229,0.136c2.689,0.253 3.818,0.846 4.694,1.471c0.465,0.332 1.006,0.734 1.445,1.179l0,0c0,0 0,0.001 0.001,0.001c0.048,0.049 0.095,0.099 0.141,0.149c0.002,0.002 0.004,0.005 0.006,0.007c0.045,0.049 0.088,0.098 0.129,0.148c0.003,0.004 0.006,0.007 0.009,0.011c0.041,0.049 0.079,0.098 0.116,0.148c0.004,0.005 0.007,0.01 0.011,0.014c0.036,0.049 0.07,0.099 0.103,0.149c0.003,0.005 0.006,0.01 0.01,0.016c0.032,0.049 0.062,0.099 0.089,0.15c0.003,0.005 0.006,0.011 0.009,0.016c0.027,0.051 0.052,0.102 0.075,0.153c0.002,0.005 0.004,0.009 0.006,0.014c0.023,0.052 0.044,0.105 0.061,0.158c0.001,0.003 0.002,0.006 0.003,0.009c0.017,0.055 0.033,0.11 0.044,0.165c0.406,0.457 0.66,0.964 0.355,1.471c-0.129,0.216 -0.418,0.17 -0.707,0.047c-0.394,-0.167 -0.611,-0.098 -0.757,0.165l0,0c-0.03,0.054 -0.073,0.104 -0.134,0.144c-0.507,0.329 -1.497,-0.406 -1.497,-0.406c0,0 0.001,0.002 0.004,0.006c0,0.001 0.001,0.003 0.002,0.005c0.002,0.003 0.004,0.006 0.007,0.011c0.002,0.004 0.004,0.008 0.007,0.012c0.002,0.005 0.004,0.01 0.007,0.015c0.003,0.005 0.006,0.012 0.008,0.018c0.003,0.006 0.006,0.011 0.009,0.018c0.003,0.007 0.006,0.015 0.009,0.022c0.003,0.007 0.006,0.014 0.009,0.021c0.003,0.008 0.006,0.018 0.009,0.027c0.003,0.007 0.005,0.015 0.008,0.022c0.003,0.01 0.006,0.02 0.009,0.031c0.002,0.008 0.004,0.016 0.006,0.024c0.002,0.011 0.005,0.022 0.007,0.034c0.001,0.008 0.003,0.017 0.004,0.026c0.001,0.011 0.003,0.023 0.004,0.035c0.001,0.009 0.001,0.018 0.001,0.027c0.001,0.012 0.001,0.025 0,0.037c0,0.009 -0.001,0.018 -0.002,0.028c-0.001,0.012 -0.002,0.025 -0.004,0.037c-0.002,0.009 -0.004,0.019 -0.007,0.028c-0.003,0.013 -0.006,0.025 -0.01,0.037c-0.003,0.01 -0.007,0.019 -0.011,0.028c-0.005,0.012 -0.01,0.025 -0.017,0.037c-0.005,0.009 -0.011,0.018 -0.017,0.026c-0.008,0.012 -0.015,0.025 -0.025,0.036c-0.006,0.009 -0.015,0.017 -0.023,0.025c-0.01,0.012 -0.02,0.023 -0.033,0.035c-0.009,0.007 -0.02,0.015 -0.03,0.022c-0.014,0.011 -0.027,0.022 -0.043,0.032c-0.027,0.018 -0.057,0.034 -0.091,0.05c-0.558,0.253 -2.081,-0.356 -3.298,-1.066c-1.218,-0.711 -2.588,-0.507 -2.588,-0.507c0.507,0.609 0.811,1.344 0.253,1.649c-0.445,0.243 -1.674,-0.432 -2.689,-1.142c-1.015,-0.711 -2.233,0 -4.263,-0.355c-2.029,-0.355 -1.8,-2.18 -1.426,-3.322c0.194,-0.593 0.617,-1.256 1.018,-1.8c0.297,-2.133 3.233,-8.468 3.661,-10.609c0.323,-1.616 -2.306,-8.335 -2.664,-9.794c-0.894,1.354 -1.668,6.593 -3.023,7.505c-2.125,1.43 -2.276,4.462 -4.715,5.221c-1.922,0.597 -6.096,3.032 -8.125,2.904c-2.478,0 -4.274,-0.15 -5.535,-0.408c-0.087,0.173 -0.13,0.36 -0.098,0.56c0.203,1.268 0.356,3.857 0.356,6.089c0,1.878 -1.066,5.582 -1.624,6.394c-0.247,0.358 -0.483,0.43 -0.67,0.398c-0.237,-0.04 -0.56,0.441 -1.066,0.725c-0.074,0.041 -0.155,0.074 -0.243,0.095c-0.434,0.102 -0.611,-0.29 -0.677,-0.514c-0.023,-0.079 -0.366,0.161 -0.817,0.106c-0.106,-0.012 -0.218,-0.042 -0.333,-0.099c-0.609,-0.305 -0.609,-0.813 -0.254,-2.284c0.356,-1.472 0.203,-3.958 0.102,-6.089c-0.102,-2.132 -1.066,-4.162 -1.776,-5.785" style="fill:#fff;fill-rule:nonzero;"/><path d="M49.552,29.122c0.014,-1.764 -1.2,-4.023 -0.027,-5.636c0.609,-0.838 1.696,-1.067 2.677,-0.992c0.593,0.045 1.175,0.191 1.734,0.391c0.04,0.015 0.204,0.074 0.324,0.117c0.275,0.02 0.549,0.027 0.819,0.002c0.484,-0.045 0.858,-0.179 1.077,-0.624c0.234,-0.255 -0.314,-0.902 -0.451,-1.056c-0.664,-0.752 -1.489,-1.339 -2.209,-2.032c0,0 0.001,0 0.001,0c-1.39,-1.081 -3.009,-2.691 -2.717,-4.616c-0.001,-0.041 -0.001,-0.082 0,-0.124c0,-0.007 0.001,-0.015 0.001,-0.023c0.003,-0.065 0.007,-0.13 0.014,-0.197c0,-0.001 0,-0.002 0,-0.004c0.024,-0.231 0.073,-0.475 0.144,-0.727c-0.626,-0.358 -1.292,-0.831 -1.934,-1.474c-1.32,-1.319 -1.512,-3.579 -0.99,-5.252c0.508,-1.623 2.208,-1.649 2.563,-1.294c-0.812,1.421 -1.243,2.842 -0.457,4.364c0.446,0.862 1.363,1.134 2.086,1.2c0.487,-0.659 1.074,-1.282 1.723,-1.799c0.008,-0.006 0.016,-0.013 0.025,-0.019c0.064,-0.052 0.129,-0.102 0.195,-0.151c0.019,-0.014 0.039,-0.028 0.059,-0.043c0.056,-0.04 0.112,-0.081 0.168,-0.12c0.031,-0.022 0.064,-0.042 0.095,-0.064c0.046,-0.03 0.092,-0.062 0.138,-0.091c0.046,-0.03 0.093,-0.057 0.14,-0.085c0.033,-0.021 0.066,-0.042 0.1,-0.061c0.081,-0.048 0.162,-0.093 0.245,-0.137c2.689,-1.42 7.408,-0.659 9.438,-0.203c2.03,0.457 4.872,0.812 4.872,0.812c0,0 1.471,-1.218 3.196,-1.725c0.49,-0.144 1.021,-0.231 1.529,-0.281c0.114,-1.16 0.46,-2.336 1.127,-3.4c0.005,-0.007 0.01,-0.015 0.015,-0.023c0.062,-0.099 0.127,-0.197 0.196,-0.294c0.005,-0.008 0.011,-0.015 0.017,-0.023c0.136,-0.192 0.284,-0.38 0.444,-0.562c0.012,-0.015 0.025,-0.03 0.038,-0.044c0.076,-0.086 0.154,-0.17 0.236,-0.253c0.014,-0.015 0.028,-0.029 0.043,-0.043c0.085,-0.086 0.172,-0.17 0.263,-0.253c2.938,-2.674 7.123,-2.739 10,-1.526c0.36,-0.091 0.86,-0.202 1.354,-0.263c-0.304,0.395 -0.301,0.7 -0.287,0.808c0.014,0.008 0.027,0.017 0.041,0.025c0.145,-0.073 0.75,-0.357 1.337,-0.313c-0.411,0.303 -0.591,0.705 -0.635,0.818c0.007,0.006 0.014,0.012 0.021,0.018c0.128,-0.051 0.627,-0.218 1.248,-0.011c-0.634,0.418 -0.418,0.837 -0.418,0.837c0,0 0.355,-0.089 0.824,0.026c-0.128,0.247 -0.221,0.514 -0.289,0.765c0.026,0.041 0.052,0.083 0.077,0.126c0.015,0.025 0.029,0.051 0.044,0.077c0.031,0.054 0.062,0.108 0.092,0.163c0.019,0.036 0.038,0.073 0.058,0.109c0.024,0.046 0.047,0.093 0.071,0.139c0.019,0.038 0.039,0.077 0.057,0.115c0.032,0.066 0.062,0.132 0.092,0.199c0.025,0.054 0.049,0.11 0.073,0.165c0.015,0.036 0.03,0.071 0.044,0.106c0.022,0.052 0.043,0.105 0.063,0.157c0.011,0.028 0.022,0.056 0.032,0.084c0.074,0.196 0.142,0.395 0.203,0.597c0.003,0.009 0.006,0.019 0.009,0.028c0.442,1.475 0.533,3.069 0.29,4.501c0.318,-0.041 0.633,0.044 0.876,0.338c0.363,0.438 0.307,1.125 0.112,1.617c-0.415,1.049 -1.483,1.471 -2.532,1.465c-0.439,0.535 -0.918,0.986 -1.36,1.348c-0.041,0.436 -0.155,1.001 -0.412,1.702l0,1.855l-1.208,0c-0.705,0.558 -1.75,0.889 -3.331,0.823c-0.911,-0.038 -1.649,-0.368 -2.239,-0.842c-0.601,0.554 -1.271,1.045 -1.948,1.487c-0.052,0.034 -0.104,0.068 -0.156,0.101c0.16,0.084 0.313,0.177 0.458,0.281c0.96,-0.001 1.739,-0.438 2.548,-0.897c-0.273,0.702 -0.562,1.264 -1.094,1.763c0.675,0.089 1.289,0.226 1.781,0.806c-0.142,0.075 -0.285,0.15 -0.427,0.226c0.549,0.201 1.77,0.759 2.46,2.231c0.35,0.747 0.218,1.228 0.045,1.5c-0.089,0.139 -0.207,0.253 -0.348,0.338c0.043,0.288 -0.026,0.638 -0.384,1.015c-0.187,0.197 -0.418,0.313 -0.674,0.339c-0.044,0.21 -0.153,0.404 -0.348,0.554c-0.19,0.146 -0.423,0.22 -0.692,0.22c-0.035,0 -0.069,-0.001 -0.104,-0.004c-0.084,0.208 -0.243,0.407 -0.51,0.559c-0.151,0.087 -0.315,0.13 -0.487,0.13c-0.755,0 -1.379,-0.851 -1.792,-1.414l-0.073,-0.099c-0.309,-0.417 -1.106,-0.978 -1.582,-1.313c-0.119,-0.084 -0.217,-0.153 -0.298,-0.212c-0.688,-0.115 -1.376,-0.291 -2.02,-0.505c-1.045,-0.347 -2.059,-0.796 -3.071,-1.225c-0.939,-0.398 -1.884,-0.749 -2.686,-1.399c-0.651,-0.528 -1.246,-1.203 -1.566,-1.989c-1.172,-0.125 -2.342,-0.268 -3.507,-0.422c0.175,0.418 0.337,0.841 0.483,1.271c0.384,1.142 0.769,2.568 0.088,3.673c-0.808,1.311 -2.277,2.028 -3.733,2.368c-2.013,0.47 -4.05,0.108 -6.087,0.096c-0.17,-0.001 -0.352,0.005 -0.54,0.012c0.448,1.218 0.594,2.496 0.306,3.803c-0.156,0.703 -0.479,1.385 -1.094,1.797c-0.214,0.7 -0.811,1.342 -1.586,1.342c-0.277,0 -0.547,-0.185 -0.797,-0.135c-0.338,0.067 -0.7,0.011 -1.001,-0.156c-0.139,-0.077 -0.264,-0.179 -0.365,-0.302c-0.128,-0.024 -0.253,-0.07 -0.366,-0.134c-0.223,-0.125 -0.401,-0.325 -0.525,-0.546c-0.232,-0.416 -0.206,-0.894 -0.12,-1.346c0.191,-1.014 0.539,-1.987 0.548,-3.031" style="fill:#fff;fill-rule:nonzero;"/></svg>