<?xml version="1.0" encoding="UTF-8" standalone="no"?><!DOCTYPE svg PUBLIC "-//W3C//DTD SVG 1.1//EN" "http://www.w3.org/Graphics/SVG/1.1/DTD/svg11.dtd"><svg width="100%" height="100%" viewBox="0 0 147 147" version="1.1" xmlns="http://www.w3.org/2000/svg" xmlns:xlink="http://www.w3.org/1999/xlink" xml:space="preserve" xmlns:serif="http://www.serif.com/" style="fill-rule:evenodd;clip-rule:evenodd;stroke-linejoin:round;stroke-miterlimit:2;"><path d="M146.068,75.56c-0.073,-0.146 -0.255,-1.314 -0.584,-1.679c-0.292,-0.365 -1.497,-0.73 -2.191,-1.132c-0.766,-0.438 -1.351,-0.949 -1.971,-1.46c-0.621,-0.512 -0.804,-0.95 -1.023,-1.169c-0.219,-0.255 -0.584,-0.621 -0.912,-1.387c-0.292,-0.804 -0.292,-1.461 -0.292,-1.461l0.657,0.95l0.109,-0.475l0.694,0.365c0,0 -0.037,-0.584 -0.146,-1.095c-0.11,-0.511 -0.584,-2.008 -1.168,-2.848c-0.548,-0.803 -1.169,-1.351 -1.169,-1.351c0,0 0.511,-0.037 0.767,0c0.256,0.073 0.986,0.475 0.986,0.475l-0.621,-0.694c0,0 0.292,0.073 0.657,0.182c0.365,0.11 1.351,0.365 1.351,0.365c0,0 -0.109,-0.511 -0.219,-0.657c-0.109,-0.146 -0.219,-0.803 -0.402,-1.278c-0.182,-0.438 -0.657,-0.693 -1.131,-1.278c-0.439,-0.547 -0.365,-0.949 -0.365,-0.949l1.35,0.621c0,0 -0.109,-0.475 -0.328,-1.095c-0.183,-0.621 -0.949,-1.972 -1.862,-2.848c-1.351,-1.388 -4.674,-2.118 -6.463,-2.958c-8.653,-4.345 -10.186,-8.58 -19.533,-11.355c-5.258,-1.57 -17.818,-3.286 -23.222,-2.519c-5.111,0.767 -10.332,0.73 -15.407,1.606c-2.885,0.548 -17.855,1.862 -23.514,2.155c-5.659,0.255 -13.911,1.533 -15.152,1.935c-1.241,0.401 -2.227,0.292 -2.775,-0.292c-1.716,-2.082 -0.475,-8.654 -0.584,-11.173c-0.365,-6.316 -1.351,-12.633 -3.067,-18.73c0,0 0.402,-0.584 0.657,-0.877c0.256,-0.328 0.84,-1.168 1.096,-1.643c0.255,-0.511 0.912,-2.92 0.985,-4.162c0.073,-1.241 0,-3.87 -0.219,-5.659c-0.255,-1.753 -1.132,-1.242 -1.387,-1.059c-0.256,0.183 -0.84,0.584 -1.351,0.876c-0.511,0.365 -1.716,1.497 -3.25,2.921c-1.497,1.461 -2.19,2.775 -2.19,2.775c0,0 -0.694,-0.292 -0.986,-0.438c-0.329,-0.146 -1.57,-0.219 -2.665,-0.256c-1.023,-0.036 -5.623,1.315 -5.623,1.315c-0.037,-0.84 -0.329,-1.242 -0.511,-1.461c-0.146,-0.255 -1.753,-1.825 -3.505,-3.103c-1.716,-1.242 -3.432,-2.045 -5.258,-3.067c-1.826,-0.986 -1.789,-0.219 -1.789,-0.037c0,0.183 0.182,1.534 0.328,2.118c0.183,0.621 0.658,2.629 2.483,6.207c1.862,3.615 3.359,4.491 3.359,4.491c0,0 -0.219,0.694 -0.292,0.803c-0.036,0.146 -0.584,1.68 -0.876,2.081c-0.292,0.402 -0.548,2.227 -0.694,2.739c-0.146,0.547 -2.008,2.409 -2.337,2.811c-0.328,0.475 -2.409,2.775 -2.993,3.177c-0.585,0.438 -1.132,0.985 -1.315,1.241c-0.182,0.255 0.11,0.803 0.11,0.803l-0.146,0.183c-0.146,0.182 -0.292,1.314 0,1.971c0.328,0.621 1.57,1.023 1.57,1.023c0,0 1.095,0.803 1.497,1.095c0.401,0.292 3.03,0.438 4.49,0.548c1.461,0.109 6.427,0.146 6.463,0.146c0.438,0 0.292,4.564 0.292,5.002c-0.109,3.651 -1.095,7.229 -1.533,10.807c-0.183,1.716 -0.183,7.266 -0.183,8.288c0,1.023 3.031,7.193 3.177,7.558c0.146,0.365 2.154,3.98 2.628,5.258c0.475,1.314 1.169,4.089 1.826,5.988c0.584,1.898 3.469,8.215 4.819,10.332c1.351,2.081 6.536,6.207 6.536,6.353c0,0.11 1.095,3.834 1.314,4.71c0.183,0.913 1.023,3.98 1.096,5.002c0.036,1.023 0.182,6.609 0.182,8.507c0,1.826 0.402,6.755 0.402,8.07c0,1.277 -0.913,12.632 -1.168,13.91c-0.256,1.278 -0.366,6.974 -0.621,8.325c-0.256,1.351 -0.621,4.637 -0.876,5.55c-0.256,0.912 5.768,-0.511 6.097,-1.388c0.292,-0.876 0.511,-5.221 0.511,-5.769c0,-0.584 0.11,-7.996 0.11,-8.215c0,-0.219 0.438,-5.513 0.511,-6.353c0.036,-0.803 1.168,-5.695 1.424,-6.937c0.255,-1.241 1.132,-6.718 1.935,-9.821c0.73,-3.104 1.497,-12.414 1.497,-12.414c0,0 0.913,0.949 1.059,1.132c0.146,0.219 1.424,2.336 1.716,3.541c0.255,1.278 1.095,7.449 1.168,8.653c0.037,1.169 0,4.199 0,5.404c0,1.169 1.205,6.645 1.424,7.521c0.292,0.877 0.913,2.483 1.132,3.725c0.219,1.241 0.475,4.637 0.475,6.024c0,1.387 -0.256,9.785 -0.256,10.625c0,0.803 -0.438,3.578 -0.767,4.381c-0.292,0.767 0.913,0.913 1.205,0.986c0.256,0.037 1.972,-0.11 2.885,-0.365c0.949,-0.256 1.679,-0.876 2.154,-1.57c0.474,-0.767 0.438,-1.388 0.182,-2.227c-0.292,-0.877 -0.913,-4.491 -1.205,-6.098c-0.292,-1.606 -0.766,-11.975 -0.766,-12.377c0,-0.438 0.255,-6.682 0.73,-8.763c0.438,-2.081 2.519,-22.71 2.519,-22.71c0,0 5.513,-0.986 7.047,-1.168c1.533,-0.219 8.105,-1.278 9.456,-1.497c1.315,-0.256 13.875,-3.834 13.875,-3.834c0,0 1.424,2.191 2.628,3.943c1.205,1.716 2.994,4.163 3.652,5.331c0.657,1.205 2.263,3.542 3.432,5.477c1.132,1.971 3.468,4.527 4.125,5.111c0.621,0.584 3.25,5.075 3.433,5.404c0.219,0.365 0.292,2.337 0.292,3.578c0,1.205 -0.548,7.193 -0.585,8.361c-0.073,1.132 -0.365,3.651 -0.584,4.491c-0.219,0.803 -1.132,4.674 -1.46,5.44c-0.292,0.804 -1.68,3.944 -2.337,5.075c-0.694,1.132 -1.351,2.082 -1.46,2.739c-0.11,0.62 0.803,1.314 1.862,1.351c1.022,0.073 4.454,-0.986 4.125,-0.438c-0.328,0.584 -2.081,2.263 -2.008,2.847c0.037,0.548 1.534,0.877 1.789,0.986c0.292,0.11 2.41,-0.547 3.104,-0.876c0.657,-0.256 2.775,-1.643 2.994,-1.972c0.219,-0.328 0.584,-1.971 0.62,-2.555c0.037,-0.548 1.534,-7.266 1.57,-7.412c0.074,-0.146 1.388,-4.236 1.717,-5.404c0.365,-1.168 1.898,-5.878 2.3,-7.083c0.365,-1.169 1.752,-5.513 3.286,-8.033c1.57,-2.555 -0.329,-5.221 -0.402,-5.367c-0.109,-0.182 -2.264,-4.016 -2.811,-4.71c-0.548,-0.657 -2.227,-4.126 -2.812,-5.805c-0.62,-1.716 -0.255,-4.82 0,-6.426c0.219,-1.607 1.789,-3.578 2.775,-4.856c0.986,-1.315 6.645,-9.274 7.96,-11.574c1.278,-2.264 2.3,-10.771 2.3,-10.771c0,0 4.527,2.045 4.856,2.884c0.292,0.84 1.168,2.264 1.387,2.812c0.219,0.474 1.169,2.409 1.716,3.14c0.512,0.693 2.191,1.716 2.958,2.409c0.767,0.658 3.98,1.388 5.221,1.534c1.241,0.182 2.373,0.548 2.373,0.548c0,0 -0.109,-0.475 -0.146,-0.658" style="fill:#fff;fill-rule:nonzero;"/></svg>