<?xml version="1.0" encoding="UTF-8" standalone="no"?><!DOCTYPE svg PUBLIC "-//W3C//DTD SVG 1.1//EN" "http://www.w3.org/Graphics/SVG/1.1/DTD/svg11.dtd"><svg width="100%" height="100%" viewBox="0 0 211 218" version="1.1" xmlns="http://www.w3.org/2000/svg" xmlns:xlink="http://www.w3.org/1999/xlink" xml:space="preserve" xmlns:serif="http://www.serif.com/" style="fill-rule:evenodd;clip-rule:evenodd;stroke-linejoin:round;stroke-miterlimit:2;"><path d="M96.898,51.691c1.041,-2.333 -0.509,-2.575 -0.113,-7.816c0.035,-0.474 0.074,-0.939 0.113,-1.399c-3.913,1.69 -7.989,2.306 -10.836,5.054c-1.48,1.429 -7.103,4.623 -14.023,5.459c-2.925,0.353 -6.003,0.379 -9.018,0.218c-0.467,0.517 -0.944,0.907 -1.451,1.236c7.538,6.447 15.381,9.951 22.339,8.054c3.102,-0.846 6.634,-2.666 9.307,-5.323c0.772,-0.951 4.465,-5.104 4.965,-6.225m-98.171,-3.383c-0.024,-0.33 0.132,-0.62 0.396,-0.947c0.002,-0.003 0.004,-0.004 0.006,-0.007c0.065,-0.121 0.204,-0.245 0.259,-0.497c0.032,-0.147 0.017,-0.273 -0.021,-0.389c-0.09,-0.134 -0.185,-0.285 -0.259,-0.46c-0.128,-0.194 -0.257,-0.406 -0.289,-0.7c-0.021,-0.195 0.256,-0.735 0.809,-1.807c0.225,-0.436 0.373,-0.707 0.532,-0.91c0.018,-0.421 0.173,-0.817 0.45,-0.98c0.212,-0.125 0.502,-0.118 0.685,-0.045c0.123,-0.052 0.246,-0.084 0.372,-0.066c0.297,0.043 0.506,0.294 0.625,0.468c0.352,-0.446 3.64,-0.874 4.228,-0.567c1.981,1.032 2.259,0.263 9.433,1.267c0.502,0.07 1.398,0.199 2.556,0.019c0.611,-0.096 1.132,-0.256 1.57,-0.422c-0.033,-0.036 -0.068,-0.071 -0.081,-0.112c-0.214,-0.636 1.868,-2.473 4.225,-2.572c0.089,-0.004 0.176,0.009 0.264,0.012c0.29,-0.031 0.548,-0.011 0.777,0.041c0.187,0.042 0.356,0.11 0.517,0.188c1.101,0.361 1.968,1.023 2.321,1.309c0.169,0.031 0.349,0.044 0.547,0.032c0.357,-0.023 0.615,-0.115 0.868,-0.207c0.025,-0.187 0.06,-0.427 0.117,-0.757c0.226,-1.334 0.473,-2.327 0.499,-2.431c0.465,-1.849 0.533,-1.639 0.753,-2.672c0.449,-2.108 0.042,-2.41 0.606,-3.308c0.025,-0.04 0.052,-0.079 0.078,-0.118c0.132,-0.312 0.299,-0.649 0.491,-1.028c0.138,-0.275 0.332,-0.62 0.577,-0.998c0.041,-0.106 0.082,-0.212 0.12,-0.319c0.188,-0.513 0.235,-0.708 0.44,-0.846c0.184,-0.124 0.533,-0.262 0.704,-0.122c0.235,0.192 -0.01,0.787 -0.109,1.199c-0.184,0.773 0.062,1.279 0.912,3.363c1.05,2.576 1.478,3.774 1.639,4.235c0.383,1.093 0.576,1.651 0.684,2.239c0.234,1.285 0.08,1.882 0.175,3.401c0.002,0.03 0.006,0.07 0.008,0.102c0.227,0.114 0.461,0.229 0.711,0.344c1.167,0.532 1.999,1.422 2.637,2.417c1.086,-0.273 2.013,-0.555 2.797,-0.842c0.486,-1.748 1.144,-2.371 1.665,-2.601c0.277,-0.566 0.574,-0.912 0.853,-1.123c-0.855,-1.682 -2.689,-3.344 -1.936,-5.187c0.179,-0.436 0.62,-1.163 1.177,-1.255c0.009,-0.025 0.012,-0.049 0.022,-0.073c0.161,-0.396 2.158,-1.033 2.644,-1.215c0,-0.034 0.72,-2.932 0.456,-3.897c-0.871,-3.191 -0.196,-2.385 0.283,-6.094c0.038,-0.299 0.312,-2.673 0.522,-2.858c0.175,-0.247 0.362,-0.49 0.576,-0.724c0.482,-0.527 0.994,-0.941 1.483,-1.267c0.446,-0.297 1.011,0.148 0.819,0.647c-0.731,1.907 -1.596,4.509 -1.344,4.691c0.462,0.335 3.008,-1.624 4.491,-2.295c1.772,-0.801 2.824,-1.019 4.185,-0.429c0.425,0.184 0.444,0.761 0.063,0.984c-0.302,0.388 -0.885,0.858 -1.163,0.977c-1.507,0.643 -2.787,1.707 -3.639,2.245c-0.784,0.495 -1.394,0.887 -1.92,1.326c-0.974,1.431 -1.193,2.916 -1.306,3.851c-0.47,3.857 -0.817,6.716 -0.883,8.933c0.085,0.016 0.171,0.024 0.262,0.011c0.137,-0.019 0.266,-0.07 0.392,-0.135c0.214,-0.349 0.428,-0.735 0.652,-1.144c1.649,-3.015 0.906,-5.39 1.669,-6.046c0.067,-0.084 0.186,-0.142 0.4,-0.171c2.273,-0.313 3.423,3.995 -0.198,8.857c-0.391,0.526 -0.877,1.077 -1.437,1.633c-0.115,0.144 -0.236,0.289 -0.363,0.436c1.45,0.233 2.426,0.101 3.09,-0.222c0.781,-1.959 -0.141,-5.081 1.819,-6.398c0.069,-0.047 0.154,-0.097 0.244,-0.146c0.2,-0.467 0.497,-0.875 0.954,-1.182c0.412,-0.277 1.233,-0.662 1.716,-0.368c1.429,0.871 -1.952,6.806 -0.312,7.672c0.762,0.402 1.931,-0.21 3.297,-0.924c1.047,-0.549 1.831,-1.193 2.452,-1.809c0.259,-0.304 0.484,-0.559 0.695,-0.74c0.961,-1.098 1.459,-1.903 2.159,-1.533c1.171,0.621 0.417,2.572 -1.595,4.476c-1.249,1.674 -3.65,3.573 -6.743,4.681c-1.813,0.649 -4.352,1.033 -7.153,0.906c0.337,0.378 0.694,0.776 1.074,1.197c0.182,0.201 0.364,0.399 0.547,0.597c12.014,1.683 22.268,-0.004 28.091,-5.812c2.969,-3.637 6.023,-10.558 4.967,-15.606c-0.506,-2.413 -2.534,-3.188 -5.312,-7.497c-3.173,-4.92 -5.766,-7.544 -5.035,-8.417c0.072,-0.086 0.15,-0.157 0.231,-0.22c0.471,-0.563 1.835,-1.273 2.822,-0.752c1.42,0.75 5.348,11.954 8.144,11.051c0.429,-0.139 1.211,-5.328 1.581,-5.625c1.431,-2.096 2.311,-5.395 2.896,-8.427c0.421,-2.181 0.597,-5.539 1.742,-6.69c0.133,-0.149 0.302,-0.267 0.524,-0.342c0.768,-0.26 1.965,2.022 1.953,3.789c-0.012,1.716 -0.385,4.911 -0.911,6.679c-1.173,3.946 -4.788,11.034 -4.194,11.758c1.413,1.727 1.795,2.286 7.677,-1.064c0.439,-0.25 1.828,-2.1 2.161,-2.409c2.667,-3.574 0.779,-6.196 2.963,-8.718c0.115,-0.132 0.395,-0.406 0.751,-0.728c0.134,-0.209 0.282,-0.409 0.448,-0.6c0.433,-0.5 1.996,-1.682 2.548,-1.231c0.745,0.609 -1.212,2.633 -1.425,3.237c-1.265,3.576 -0.338,4.333 0.293,4.852c1.58,1.298 5.99,-2.504 6.595,-2.223c0.113,-0.008 0.109,0.106 0.043,0.291c-0.034,0.117 -0.097,0.266 -0.2,0.462c-0.034,0.066 -0.074,0.128 -0.11,0.192c-0.02,0.039 -0.04,0.077 -0.061,0.117c-2.762,5.25 -12.263,7.895 -18.445,14.222c-0.078,0.095 -0.159,0.187 -0.237,0.284c-0.64,0.799 -5.151,9.553 -4.584,10.301c0.399,0.526 3.061,0.135 4.991,-0.475c0.392,-0.124 0.764,-0.256 1.118,-0.394c0.393,-2.987 0.897,-5.172 1.529,-5.713c0.061,-0.052 0.125,-0.092 0.199,-0.114c0.701,-0.206 1.261,0.083 1.72,1.089c0.195,0.429 0.26,1.437 0.324,2.663c2.298,-1.677 3.207,-3.145 4.221,-2.216c0.345,0.316 -0.484,2.257 -2.213,3.887c-0.016,0.016 -0.033,0.027 -0.049,0.042c-0.321,0.428 -0.705,0.868 -1.149,1.287c-0.181,0.17 -0.369,0.32 -0.554,0.478c0.247,2.01 -1.123,6.562 0.085,6.934c2.853,0.879 8.876,-5.279 12.187,-8.555c0.032,-0.031 0.06,-0.066 0.091,-0.097c0.285,-0.336 0.573,-0.683 0.861,-1.031c1.219,-1.667 1.976,-3.467 3.267,-3.091c0.753,0.218 0.331,2.837 -0.729,4.327c-0.641,0.901 -1.733,2.209 -2.818,3.356c-1.006,1.163 -2.167,2.377 -3.058,3.108c-2.278,1.866 -5.547,4.052 -7.301,5.525c-0.008,0.032 -1.751,2.569 -1.75,2.597c0.076,2.272 4.342,1.668 6.61,1.602c6.611,-0.194 8.428,-5.852 12.325,-6.93c0.634,-0.176 2.554,-0.282 2.717,0.417c0.012,0.054 0.013,0.107 0.007,0.159c0,0.002 0.001,0.002 0.001,0.003c0.218,0.942 -3.716,2.703 -4.241,3.092c-0.426,0.315 -0.783,0.608 -1.091,0.883c-0.618,0.944 -1.545,1.834 -1.432,2.324c0.474,2.071 7.608,1.001 7.538,1.698c-0.002,0.015 -0.002,0.03 -0.009,0.047c-0.044,0.247 0.882,2.043 0.322,2.113c-8.698,1.098 -11.406,-1.029 -24.576,-0.102c-0.781,0.055 -7.038,4.639 -9.472,6.409c0.25,0.689 2.391,1.774 4.145,2.328c5.835,1.841 9.223,-0.596 9.812,1.026c0.029,0.065 0.054,0.137 0.069,0.222c0.019,0.105 -0.063,0.246 -0.22,0.406c-0.722,0.863 -3.097,2.624 -5.012,2.948c-6.759,1.142 -9.546,-4.1 -15.114,-3.091c-2.002,0.363 -10.412,0.846 -16.301,-2.408c-4.187,-2.314 -8.159,-5.655 -11.511,-8.884c-1.068,0.715 -1.261,1.045 -2.687,1.535c-0.259,0.089 -0.535,0.181 -0.819,0.272c0,0 0.001,0 0.001,0.001c-0.293,0.178 -0.903,0.33 -1.851,0.445c-0.039,0.006 -0.079,0.011 -0.118,0.017c-0.064,0.008 -0.129,0.014 -0.194,0.021c-0.127,0.015 -0.256,0.027 -0.387,0.035c-0.032,0.003 -0.06,0.007 -0.092,0.009c-1.486,0.127 -1.751,0.076 -2.08,0.013c-0.86,-0.168 -0.81,-0.176 -1.654,-0.317c-0.817,-0.136 -0.832,-0.146 -2.177,-0.187c-0.082,-0.002 -0.153,0.01 -0.228,0.017c0.455,0.45 1.355,2.248 3.257,5.088c11.207,16.736 28.898,12.757 29.594,12.749c2.365,-0.03 5.868,0.782 6.614,0.689c1.36,-0.192 3.561,-0.201 7.681,0.143c2.506,0.209 18.963,4.221 34.02,3.159c8.068,-0.569 10.626,-1.289 17.97,-1.132c5.461,0.117 6.905,0.577 12.734,0.566c0.79,-0.001 1.51,-0.012 2.179,-0.028c0.745,-0.13 1.467,-0.156 1.84,-0.069c5.705,-0.29 6.545,-1.119 11.545,-0.894c4.732,0.214 14.313,0.647 21.083,7.075c1.235,1.173 2.498,2.365 4.217,5.244c2.051,1.259 5.237,4.896 6.128,9.447c0.323,1.648 0.008,1.698 -0.145,7.102c-0.295,10.403 0.822,11.843 1.449,12.466c1.664,1.65 3.906,1.541 4.956,2.262c0.275,0.189 0.473,0.432 0.552,0.781c0.311,1.372 -1.459,2.902 -2.464,3.769c-1.033,0.893 -2.839,2.452 -4.783,2.319c-4.211,-0.289 -6.591,-8.349 -7.537,-7.971c-0.66,0.262 0.5,4.179 0,4.347c-0.386,0.13 -1.765,-1.977 -2.464,-4.493c-0.154,-0.556 -0.3,-1.23 -0.364,-2.118c-1.23,1.156 -2.543,2.319 -3.965,3.459c-1.464,1.509 -3.2,3.856 -3.646,6.542c-0.057,0.348 -0.391,1.774 0.284,3.82c1.35,4.095 4.755,7.248 7.074,9.339c2.985,2.691 6.236,5.489 9.763,8.348c0.219,0.561 0.5,1.446 0.566,2.547c0.112,1.846 -0.442,3.216 -0.707,3.961c-1.613,4.539 -0.838,9.347 -0.566,11.037c0.155,0.958 0.46,2.45 1.132,4.246c-0.129,1.185 -0.226,2.411 -0.283,3.678c-0.165,3.66 0.973,11.037 1.698,16.98c0.075,0.62 0.862,2.134 0.495,3.979c-0.099,0.5 -0.468,1.18 -1.167,2.547c-0.433,0.847 -0.725,1.338 -0.937,1.674c0,0 -0.003,0.004 -0.003,0.005c-0.024,0.037 -0.046,0.07 -0.067,0.103c-0.127,0.204 -0.404,0.689 -0.65,1.375c-0.244,0.682 -0.235,0.963 -0.615,1.255c-0.001,0 -0.001,0 -0.001,0.001c-0.051,0.039 -0.106,0.071 -0.168,0.097c-0.004,0.002 -0.009,0.002 -0.014,0.003c-0.265,0.122 -0.621,0.168 -0.817,0.04c-0.1,-0.066 -0.156,-0.168 -0.192,-0.322c-0.028,-0.074 -0.036,-0.152 -0.035,-0.232c-0.014,-0.114 -0.026,-0.244 -0.038,-0.401c-0.008,-0.094 -0.011,-0.166 -0.012,-0.246c-0.002,-0.003 -0.003,-0.007 -0.006,-0.009c-0.201,-0.163 -0.646,0.035 -0.902,0.211c-0.398,0.275 -0.478,0.589 -0.743,1.009c-0.384,0.608 -0.588,0.539 -1.274,1.274c-0.837,0.897 -0.706,1.185 -1.273,1.697c0.075,0.166 -0.853,0.709 -1.786,0.848c-0.442,0.066 -4.183,0.36 -7.429,-1.778c-0.073,-0.085 -0.433,-0.328 -0.394,-0.648c0.003,-0.03 0.001,-0.128 0.029,-0.258l-0.002,0.002c0.001,-0.01 0.006,-0.017 0.008,-0.026c0.009,-0.04 0.023,-0.08 0.04,-0.124c0.009,-0.021 0.015,-0.039 0.025,-0.059c0.04,-0.086 0.097,-0.176 0.178,-0.267c0.013,-0.016 0.028,-0.033 0.028,-0.033l-0.08,-0.133c-0.085,-0.117 -0.17,-0.234 -0.256,-0.351c-0.007,-0.004 -0.01,-0.008 -0.018,-0.011c0.141,-0.111 0.308,-0.236 0.486,-0.368c1.994,-1.512 3.871,-2.355 4.59,-2.602l0,0.002c0.102,-0.045 0.21,-0.093 0.31,-0.136c0.694,-0.302 1.628,-0.68 2.759,-1.061c0.694,-0.75 1.255,-1.405 1.671,-1.911c0.701,-0.85 0.936,-1.202 1.114,-1.672c0.267,-0.702 0.27,-1.312 0.266,-1.617c-0.054,-3.814 -0.849,-7.058 -0.849,-7.058c-0.656,-2.671 -0.043,-1.881 -0.849,-7.746c-0.478,-3.471 -0.806,-5.859 -1.698,-8.967c-0.599,-2.089 -1.332,-4.586 -2.972,-7.588c-0.645,-1.183 -2.164,-3.783 -4.775,-6.58c-1.841,-1.971 -3.687,-3.464 -5.177,-4.527c0.779,1.374 1.645,2.621 2.577,3.573c0.307,0.313 1.524,1.517 2.016,3.395c0.343,1.307 0.151,2.239 0.107,2.441c-0.168,0.756 -0.509,1.35 -1.593,2.653c-1.704,2.051 -2.315,2.33 -3.289,3.608c-0.719,0.944 -1.08,1.726 -1.804,3.29c-0.019,0.042 -0.035,0.08 -0.054,0.122c-1.191,3.051 -2.038,6.617 -2.861,7.486c-0.002,0.002 -0.005,0.004 -0.007,0.006c-0.235,0.341 -0.522,0.662 -0.899,0.982c-0.214,0.181 -0.41,0.323 -0.601,0.458c-0.663,0.615 -1.359,1.278 -2.027,2.082c-0.709,1.116 -0.976,2.143 -1.086,2.553c-1.216,4.528 -3.648,5.573 -5.836,12.417c-0.155,0.484 -1.435,4.517 -2.972,7.534c-0.039,0.078 -0.264,0.504 -0.674,1.067c0.014,0.257 -0.393,0.611 -1.163,1.336c-0.001,0.001 -0.001,0.001 -0.002,0.002c-0.013,0.013 -0.046,0.044 -0.088,0.083c-0.004,0.004 -0.007,0.007 -0.011,0.01c-0.989,0.936 -1.358,1.378 -1.997,1.406c-0.101,0.005 -0.385,0.018 -0.522,-0.159c-0.098,-0.128 -0.081,-0.302 -0.044,-0.445c-0.236,0.243 -0.55,0.574 -0.911,0.98c-0.112,0.127 -0.608,0.687 -0.955,1.132c-0.871,1.116 -0.898,1.619 -1.344,2.193c-0.37,0.477 -0.863,0.713 -1.598,0.924c-0.146,0.052 -0.299,0.103 -0.465,0.152c-0.003,0 -0.005,0.002 -0.008,0.002c-0.399,0.146 -0.724,0.222 -1.15,0.285c-0.516,0.109 -1.036,0.196 -1.49,0.253c-0.223,0.028 -0.853,0.11 -1.858,0.071c-0.453,-0.01 -0.928,-0.047 -1.414,-0.121c-0.158,-0.02 -0.312,-0.038 -0.481,-0.064c-0.315,-0.049 -0.735,-0.098 -1.178,-0.346c-0.08,-0.038 -0.146,-0.08 -0.208,-0.124c-0.008,-0.006 -0.015,-0.008 -0.022,-0.014c-0.004,-0.002 -0.019,-0.016 -0.026,-0.021c-0.02,-0.017 -0.04,-0.034 -0.058,-0.052c-0.009,-0.008 -0.016,-0.017 -0.026,-0.026c-0.019,-0.019 -0.039,-0.037 -0.055,-0.057c-0.003,-0.004 -0.015,-0.018 -0.025,-0.031c-0.13,-0.146 -0.279,-0.364 -0.33,-0.638c-0.003,-0.006 -0.005,-0.013 -0.007,-0.02c-0.001,-0.006 -0.005,-0.011 -0.005,-0.017c0,0.001 0.001,0.001 0.001,0.001c-0.065,-0.224 -0.096,-0.483 -0.032,-0.754c0.036,-0.152 0.102,-0.31 0.424,-0.743c0.566,-0.759 1.062,-1.22 1.062,-1.22c1.172,-1.093 2.815,-2.383 3.024,-2.547c0.314,-0.285 0.709,-0.611 1.116,-1.058c0.572,-0.63 1.657,-1.371 2.05,-1.9c0.879,-1.185 0.765,-1.167 1.202,-1.698c1.159,-1.408 1.873,-1.437 3.114,-2.759c0.618,-0.66 0.957,-1.203 1.485,-2.051c1.329,-2.134 1.95,-4.018 2.122,-4.529c1.233,-3.645 2.138,-3.98 5.307,-11.46c1.46,-3.448 2.234,-5.658 2.677,-7.131c0.061,-0.353 0.126,-0.719 0.197,-1.116c0.337,-1.867 0.611,-2.901 0.825,-3.654c0.267,-1.967 0.233,-3.252 0.192,-3.947c-0.084,-1.396 -0.358,-3.598 -1.274,-6.013c-0.272,-0.718 -0.54,-1.288 -0.827,-1.796c-0.578,-0.891 -1.072,-1.466 -1.231,-1.792c-0.848,-1.071 -1.954,-2.327 -3.602,-4.69c-3.115,-4.467 -2.994,-5.472 -6.084,-9.409c-1.878,-2.392 -3.351,-3.84 -3.926,-4.457c-0.086,-0.092 -0.171,-0.192 -0.256,-0.289c-0.503,0.01 -0.982,0.063 -1.349,0.253c-3.328,1.716 -10.425,4.787 -15.964,12.791c-1.173,0.58 -2.638,-0.418 -3.067,-2.496c-0.388,-1.875 -1.117,-4.056 -7.291,-4.22l0,0c-1.684,0.159 -3.452,0.212 -5.289,0.116c-3.63,-0.19 -3.52,-0.744 -9.48,-1.698c-5.03,-0.805 -9.634,-0.992 -14.033,-1.065c-0.118,1.149 -0.218,2.42 -0.248,3.787c-0.083,3.781 -0.288,5.167 -0.53,6.377c-0.094,0.574 -0.21,1.163 -0.349,1.767c-0.005,0.032 -0.011,0.059 -0.016,0.092c-0.84,5.003 -2.348,7.903 -2.878,9.563c-0.117,0.67 -0.21,1.388 -0.27,2.189c-0.025,0.339 0.065,1.063 -0.071,2.052c-0.225,1.643 -0.742,2.379 -1.167,3.82c-0.328,1.112 -0.383,1.932 -0.495,3.572c-0.188,2.765 0.149,12.098 1.096,24.727c-0.106,0.665 -0.254,1.613 -0.424,2.759c-0.205,1.387 -0.308,2.089 -0.318,2.441c-0.011,0.382 -0.017,0.687 -0.025,0.968c0.195,0.403 0.095,0.89 -0.111,1.793c-0.018,0.08 -0.033,0.143 -0.049,0.218c-0.001,0 -0.001,0.001 -0.001,0.002c0,0 -0.003,0.011 -0.004,0.016c-0.339,1.485 -0.427,1.766 -0.688,1.851c-0.24,0.079 -0.573,-0.011 -0.743,-0.212c-0.065,-0.077 -0.129,-0.197 -0.142,-0.531c-0.012,-0.347 0.045,-0.545 0.099,-0.723c-0.004,-0.004 -0.003,-0.01 -0.008,-0.013c-0.124,-0.105 -0.408,-0.02 -0.583,0.133c-0.268,0.232 -0.283,0.617 -0.292,0.769c-0.025,0.406 -0.052,-0.146 -0.796,2.706c-0.25,0.958 -0.299,1.217 -0.505,1.751c0,0.002 -0.001,0.005 -0.002,0.008c0.001,0.012 0.004,0.027 0.005,0.039c0.017,0.331 -0.13,0.662 -0.525,1.088c-0.324,0.638 -1.722,1.836 -2.871,2.348c-2.229,0.989 -5.532,0.172 -6.211,-0.237c-0.065,-0.04 -0.101,-0.094 -0.123,-0.156c-0.225,-0.191 -0.073,-0.659 -0.246,-0.709c-0.121,-0.035 -0.202,0.123 -0.389,0.177c-0.19,0.055 -0.477,-0.002 -0.92,-0.425c0.065,-0.329 0.157,-0.673 0.284,-1.025c0.645,-1.803 1.893,-2.994 2.873,-3.716c0.081,-0.119 0.16,-0.237 0.247,-0.363c0.731,-1.082 0.992,-1.725 1.671,-2.043c0.118,-0.056 0.393,-0.169 0.61,-0.451c0.273,-0.355 0.259,-0.723 0.318,-1.087c0.006,-0.034 0.017,-0.057 0.023,-0.088c-0.002,0 -0.004,0.001 -0.006,0.001l-0.001,0.002c-0.501,0.131 -0.984,0.16 -1.429,0.203c-0.056,0.008 -0.103,0.014 -0.161,0.023c0,0 -0.101,0.014 -0.292,0.033l0,0c-2.072,0.337 -3.835,0.465 -5.137,0.078c-0.643,-0.192 -1.021,-0.47 -1.274,-0.744c-0.095,-0.102 0.294,-0.184 0.294,-0.184c0,0 -0.406,-0.218 -0.608,-0.358l-0.007,-0.004c0,0 0,-0.001 0.001,-0.001c-0.054,-0.037 -0.096,-0.07 -0.104,-0.089c0.178,-0.567 0.457,-1.25 0.901,-1.964c0.946,-1.518 2.074,-2.403 2.833,-2.864c0.139,-0.181 0.253,-0.336 0.351,-0.466c0.19,-0.248 0.429,-0.604 0.902,-0.848c0.516,-0.266 0.856,-0.165 1.274,-0.478c0.343,-0.257 0.481,-0.6 0.583,-0.849c1.019,-2.476 1.436,-2.593 1.805,-4.245c0.295,-1.327 0.278,-2.383 0.265,-3.024c-0.185,-8.409 -0.476,-11.063 -0.584,-15.493c-0.045,-1.864 -0.029,-2.821 -0.319,-4.351c-0.197,-1.045 -0.705,-3.241 -1.22,-5.041c-0.09,-0.314 -0.318,-1.101 -0.424,-2.176c-0.06,-0.605 -0.061,-1.106 -0.053,-1.432c-0.181,-0.32 -0.438,-0.828 -0.637,-1.486c-0.562,-1.861 -0.219,-3.473 -0.124,-3.98c0.606,-3.232 -0.178,-7.837 -1.132,-13.442c-0.139,-0.815 -0.324,-1.806 -0.571,-2.935c-2.681,-0.409 -4.731,-0.918 -7.07,-2.158c-4.448,-2.359 -7.046,-5.828 -8.206,-7.641c-1.305,-2.038 -1.244,-2.689 -2.405,-4.952c-0.464,-0.905 -0.946,-1.716 -1.446,-2.465c-1.975,-2.967 -13.553,-4.667 -19.019,-11.614c-7.58,-8.288 -6.458,-25.589 -9.475,-30.473c-0.23,-0.306 -0.47,-0.618 -0.718,-0.936c-3.132,-3.759 -14.506,-15.596 -15.469,-16.597c-1.352,-0.571 -2.493,-1.074 -2.98,-1.612c-1.172,-1.291 -3.256,-0.901 -5.329,-2.585c-0.131,-0.106 -0.229,-0.244 -0.312,-0.399c-0.045,-0.011 -0.09,-0.021 -0.134,-0.029c-0.748,-0.144 -1.113,-0.09 -1.513,-0.364c-0.29,-0.198 -0.554,-0.51 -0.709,-0.822c-0.053,-0.04 -0.106,-0.075 -0.158,-0.125c-0.068,-0.064 -0.758,-0.737 -0.653,-1.667c0.123,-1.071 1.199,-1.582 1.377,-1.667c0.563,-0.267 1.066,-0.185 2.076,0.127c-0.249,-0.658 -0.292,-1.256 -0.043,-1.663c0.447,-0.734 1.807,-0.822 3.341,-0.543c-0.258,-0.1 -0.532,-0.2 -0.827,-0.301c-1.236,-0.423 -3.87,-1.986 -5.126,-3.426c-0.486,-0.483 -0.818,-0.961 -0.877,-1.394c0,-0.002 -0.001,-0.005 -0.001,-0.007c-0.003,-0.022 -0.013,-0.045 -0.014,-0.067c0.002,-0.004 0.007,-0.01 0.01,-0.014" style="fill:#fff;fill-rule:nonzero;"/></svg>