<?xml version="1.0" encoding="UTF-8" standalone="no"?><!DOCTYPE svg PUBLIC "-//W3C//DTD SVG 1.1//EN" "http://www.w3.org/Graphics/SVG/1.1/DTD/svg11.dtd"><svg width="100%" height="100%" viewBox="0 0 34 27" version="1.1" xmlns="http://www.w3.org/2000/svg" xmlns:xlink="http://www.w3.org/1999/xlink" xml:space="preserve" xmlns:serif="http://www.serif.com/" style="fill-rule:evenodd;clip-rule:evenodd;stroke-linejoin:round;stroke-miterlimit:2;"><g><g><g id="Layer-1" serif:id="Layer 1"><path d="M33.043,17.856c1.311,-3.362 -4.956,-10.722 -8.905,-12.121c-1.83,-0.649 -4.236,-0.598 -6.199,-0.917c-2.768,-0.449 -4.106,-2.252 -7.139,-2.578c-0.363,-2.281 -3.472,-3.023 -5.235,-1.27c-0.566,0.562 -0.876,1.303 -0.748,2.101c-1.538,0.384 -5.686,1.663 -4.654,3.991c1.34,3.023 9.923,5.736 10.059,6.858c0.27,2.237 2.336,2.516 0.128,3.487c-1.694,0.746 -2.396,1.893 -3.453,2.408c-0.114,0.056 -1.191,-0.949 -2.08,-1.198c-0.65,-0.182 -1.717,-0.388 -2.404,-0.062c0.003,0.005 0.005,0.011 0.009,0.017c-0.014,0.008 -0.027,0.016 -0.04,0.025c0.541,0.949 2.656,0.721 3.379,2.035c-1.322,-0.183 -1.088,-0.798 -4.19,-0.188c-0.579,0.113 -1.018,0.289 -1.018,0.555c0,0.368 2.718,0.215 3.181,0.288c0.501,0.053 1.003,0.108 1.506,0.161c-1.119,0.219 -1.71,0.573 -2.791,1.507c-0.19,0.165 -0.83,0.708 -0.373,0.9c0.317,0.132 2.911,-1.265 3.829,-1.594c0.158,-0.057 0.322,-0.112 0.495,-0.166c-0.279,0.487 -2.15,2.778 -1.527,3.367c0.328,0.309 0.926,-1.077 1.276,-1.61c0.537,-0.628 1.073,-1.256 1.61,-1.884c0.386,-0.361 2.894,-1.107 3.669,-1.587c0.902,-0.557 1.847,-1.477 2.845,-2.186c2.615,2.265 5.678,3.227 9.063,3.314c-1.717,0.294 -6.509,-1.303 -6.694,-0.208c-0.559,-0.032 -3.378,-0.205 -3.458,0.512c-0.008,0.067 -0.016,0.135 -0.023,0.203c0.614,0.064 1.228,0.127 1.842,0.191c2.92,0.122 2.557,-0.022 5.218,0.603c-2.968,0.077 -4.59,0.098 -8.047,0.613c-0.801,0.119 -3.401,0.46 -3.292,1.191c0.102,0.684 6.247,-0.443 7.919,-0.618c0.061,-0.007 0.123,-0.014 0.185,-0.021c-0.56,0.16 -4.246,1.256 -4.605,1.941c0.413,0.826 3.576,-0.774 5.112,-1.246c1.693,-0.518 3.004,-0.649 4.262,-0.997c-0.317,0.139 -3.325,1.373 -2.852,2.012c0.46,0.62 2.343,-1.282 4.251,-1.803c1.097,-0.299 0.245,-0.553 2.428,-0.702c1.296,-0.089 1.706,-0.104 2.876,-0.6c0.364,-0.154 4.059,-1.601 3.526,-2.406c-0.234,-0.148 -0.467,-0.296 -0.701,-0.443c0.781,-0.474 1.406,-0.971 1.76,-1.875" style="fill:#fff;fill-rule:nonzero;"/></g></g></g></svg>