<?xml version="1.0" encoding="UTF-8" standalone="no"?><!DOCTYPE svg PUBLIC "-//W3C//DTD SVG 1.1//EN" "http://www.w3.org/Graphics/SVG/1.1/DTD/svg11.dtd"><svg width="100%" height="100%" viewBox="0 0 88 63" version="1.1" xmlns="http://www.w3.org/2000/svg" xmlns:xlink="http://www.w3.org/1999/xlink" xml:space="preserve" xmlns:serif="http://www.serif.com/" style="fill-rule:evenodd;clip-rule:evenodd;stroke-linejoin:round;stroke-miterlimit:2;"><path d="M45.48,42.474c-0.106,2.192 -0.427,2.781 -0.481,4.92c-0.053,2.14 -0.856,0.482 -0.641,1.605c0.213,1.123 0.053,3.904 -0.108,2.567c-0.16,-1.337 -0.588,-1.07 -0.642,0.695c-0.053,1.765 -0.534,-0.588 -0.801,0.482c-0.268,1.069 -0.749,1.55 -1.017,2.299c-0.267,0.749 0.375,1.284 1.765,1.605c1.391,0.321 4.172,0.802 4.172,0.588c0,-1.196 0.321,-5.348 0.588,-7.755c0.268,-2.407 1.765,-7.22 2.246,-9.199c0.482,-1.979 2.247,-5.562 1.605,-5.134c-0.642,0.428 -1.391,-0.161 -2.728,0.534c-1.337,0.696 -2.62,0.91 -3.316,1.605c0,0 -0.534,2.995 -0.642,5.188m-23.211,-22.621c0.321,-0.748 2.407,-2.463 0.991,-2.238c-1.67,0.266 -4.401,0.657 -6.044,2.037c-1.642,1.379 -4.401,6.208 -5.584,8.277c-1.182,2.069 -3.022,7.095 -3.908,9.262c-0.887,2.168 -1.511,5.617 -3.12,7.226c-1.61,1.61 -3.022,1.675 -4.27,2.135c-1.249,0.46 1.379,-1.215 1.773,-2.036c0.394,-0.821 -1.215,0.69 -1.018,0.033c0.197,-0.657 -0.263,-2.201 0.559,-3.712c0.82,-1.511 1.675,-2.496 2.266,-4.139c0.591,-1.642 -0.099,-1.543 1.248,-3.448c1.346,-1.905 1.97,-3.383 2.595,-4.533c0.624,-1.149 1.116,-2.463 2.365,-4.927c1.248,-2.463 2.66,-5.156 4.466,-7.456c1.807,-2.299 4.894,-3.614 7.818,-3.876c2.201,-0.197 7.949,2.172 11.069,1.249c1.511,-0.448 5.886,-1.647 10.684,-2.424c4.799,-0.776 7.339,-0.847 10.303,-2.187c2.964,-1.341 3.951,-1.976 7.056,-2.399c3.105,-0.423 3.767,-1.471 5.363,-1.835c0.392,-0.089 0.392,-0.418 -1.119,-0.483c-1.511,-0.066 0.493,-0.526 1.018,-0.526c0.526,0 -1.478,-0.788 0,-0.756c1.478,0.033 -0.307,-0.95 0.263,-0.886c0.887,0.098 0.695,-0.815 0.493,-1.051c-0.197,-0.23 -0.301,-0.634 0.755,0.032c1.248,0.789 0,-0.788 0.46,-0.656c0.46,0.131 1.39,0.315 0.887,-0.296c-0.46,-0.558 1.445,-0.033 2.759,0.46c0.935,0.351 -0.46,-1.051 0.525,-0.591c0.986,0.459 1.084,1.018 2.135,1.773c1.051,0.756 2.977,2.378 4.139,3.909c0.722,0.952 2.233,3.58 2.693,4.533c0.46,0.952 0.493,2.397 -0.131,3.251c-0.624,0.854 -2.103,0.789 -2.201,1.248c-0.099,0.46 0.263,1.479 0.46,1.971c0.197,0.493 0.624,1.413 1.084,2.135c0.459,0.723 1.051,1.051 0.689,1.839c-0.361,0.789 -0.607,0.953 -0.837,1.594c-0.109,0.303 -0.509,0.301 -0.756,0.427c-0.246,0.125 -0.393,0.567 -0.772,0.772c-1.395,0.755 -2.201,0.925 -3.596,0.114c-0.509,-0.295 -1.412,-1.034 -2.069,-1.379c-0.657,-0.345 -1.215,-1.133 -2.086,-1.758c-0.87,-0.623 -2.447,-1.675 -2.201,-0.853c0.247,0.821 0.641,1.625 1.232,2.332c0.591,0.706 1.885,4.262 2.201,5.419c0.345,1.265 1.084,5.748 0.837,9.591c-0.246,3.843 0.099,5.666 0.936,7.489c0.838,1.823 5.469,10.1 6.405,11.873c0.936,1.774 2.858,4.09 3.745,4.533c0.886,0.444 2.562,0.739 2.562,1.478c0,0.739 -0.592,0.394 -1.873,0.394c-1.281,0 -2.709,0.05 -4.729,0.099c-2.02,0.049 -1.922,-0.345 -2.07,-1.035c-0.148,-0.689 -0.394,-1.576 -1.379,-2.315c-0.986,-0.739 -2.562,-3.104 -3.498,-5.124c-0.936,-2.02 -1.974,-2.904 -2.808,-4.089c-0.278,-0.395 -1.49,-2.228 -1.922,-2.415c-0.758,-0.328 1.035,-0.739 -0.64,-1.231c-1.676,-0.493 -0.592,-0.936 -1.577,-1.232c-0.985,-0.296 0.345,-0.936 -0.837,-1.281c-1.183,-0.345 1.428,-0.641 -0.148,-0.887c-1.577,-0.246 0.098,-0.788 0.098,-0.788c0,0 -1.33,-0.788 -1.971,-0.049c-0.64,0.739 -0.295,-0.739 0,-1.528c0.566,-1.508 0.05,-3.104 -0.147,-2.069c-0.197,1.035 -0.542,-1.33 -0.542,-2.02c0,-0.69 -0.591,-2.168 -0.591,-0.788c0,1.379 -0.444,0.492 -0.592,-0.838c-0.109,-0.98 -0.492,-2.71 -1.231,-2.168c-0.739,0.542 -1.725,1.528 -2.07,2.661c-0.345,1.133 -1.478,4.73 -2.118,5.912c-0.641,1.182 -1.725,5.272 -2.365,6.553c-0.64,1.281 -1.72,5.191 -2.316,6.897c-0.329,0.944 -0.101,2.226 0.266,2.592c0.366,0.366 2.334,0.961 2.883,1.648c0.55,0.687 0.778,1.007 -0.641,0.87c-1.418,-0.137 -1.922,-0.321 -3.295,-0.55c-1.373,-0.228 -1.51,-0.228 -2.426,-0.137c-0.915,0.092 -1.465,0.412 -3.204,0.275c-1.739,-0.138 -2.883,-0.091 -5.035,-0.366c-2.151,-0.275 -3.524,-0.687 -4.348,-1.419c-0.824,-0.733 -1.23,-1.382 -0.961,-2.243c0.229,-0.732 1.144,-3.341 1.373,-4.714c0.229,-1.374 0.64,-4.074 0.915,-5.905c0.275,-1.831 0.321,-3.616 0.184,-4.394c-0.138,-0.778 -1.557,-1.876 -2.884,-3.387c-1.328,-1.511 -4.552,-4.349 -5.172,-5.218c-0.229,-0.32 -0.87,2.884 -1.602,4.257c-0.733,1.373 -2.335,3.066 -2.655,4.302c-0.321,1.236 -0.778,2.334 -2.426,3.57c-1.648,1.236 -4.348,3.708 -6.087,5.173c-1.74,1.464 -3.204,1.464 -5.173,2.288c-1.968,0.824 -3.844,1.19 -3.799,2.06c0.046,0.87 1.144,3.066 2.289,3.616c1.144,0.549 2.243,1.419 1.739,1.785c-0.503,0.366 -1.098,0.504 -2.884,0.549c-1.784,0.046 -3.295,-1.144 -3.89,-2.426c-0.595,-1.282 -1.419,-3.57 -1.693,-4.989c-0.275,-1.419 -1.099,-3.57 0.32,-4.073c1.419,-0.504 3.799,-1.603 4.943,-2.793c1.144,-1.19 3.753,-3.753 5.767,-4.44c2.014,-0.686 2.321,-1.768 2.609,-2.608c1.099,-3.205 0.616,-4.553 1.761,-7.299c1.144,-2.746 2.355,-5.344 2.817,-7.074c0.288,-1.082 0.192,-3.407 0.513,-4.156" style="fill:#fff;fill-rule:nonzero;"/></svg>