<?xml version="1.0" encoding="UTF-8" standalone="no"?>
<!DOCTYPE svg PUBLIC "-//W3C//DTD SVG 1.1//EN" "http://www.w3.org/Graphics/SVG/1.1/DTD/svg11.dtd">
<svg width="100%" height="100%" viewBox="0 0 152 53" version="1.1" xmlns="http://www.w3.org/2000/svg" xmlns:xlink="http://www.w3.org/1999/xlink" xml:space="preserve" xmlns:serif="http://www.serif.com/" style="fill-rule:evenodd;clip-rule:evenodd;stroke-linejoin:round;stroke-miterlimit:2;">
    <g transform="matrix(1,0,0,1,-1563.84,-6024.46)">
        <g transform="matrix(1.03112,0.151441,-0.151604,1.03001,1602.1,6023.84)">
            <g transform="matrix(1,0,0,1,29.95,6.47906)">
                <path d="M0,32.309C0.015,32.392 0.034,32.468 0.053,32.544C-0.093,32.531 -0.256,32.521 -0.438,32.514C-0.292,32.459 -0.145,32.39 0,32.309M82.809,18.949C82.837,18.932 82.868,18.918 82.891,18.894C83,18.774 83.001,18.591 82.985,18.412C82.931,17.782 82.336,15.824 80.336,14.144C80.343,14.132 80.36,14.124 80.367,14.111C80.444,13.941 80.426,13.747 80.313,13.563C80.102,13.218 77.554,11.431 75.468,10.601C75.259,10.252 74.775,9.829 73.887,9.437C73.227,9.146 72.773,8.889 72.374,8.661C71.88,8.379 71.488,8.156 70.959,8.032C70.649,7.959 70.231,7.922 69.717,7.922C69.54,7.922 69.368,7.926 69.209,7.933C69.069,7.124 66.938,6.67 65.674,6.472C64.279,6.252 62.811,6.046 62.155,5.955C61.88,5.445 60.336,5.019 59.015,4.877C58.109,4.78 57.072,4.554 56.238,4.372C55.935,4.307 55.655,4.247 55.4,4.196C55.05,3.767 54.057,3.333 52.063,3.176C51.357,3.12 50.765,3.064 50.253,3.016C49.417,2.937 48.802,2.881 48.243,2.874C48.24,2.861 48.246,2.847 48.241,2.834C48.107,2.434 44.939,1.86 42.859,1.86C42.364,1.86 41.929,1.897 41.524,1.951C41.54,1.925 41.563,1.898 41.575,1.872C41.616,1.778 41.614,1.681 41.569,1.591C41.405,1.263 40.683,1.082 39.418,0.791C39.001,0.696 38.569,0.597 38.161,0.486C37.525,0.313 36.632,0.21 35.771,0.21C35.517,0.21 35.218,0.225 34.905,0.25C34.917,0.21 34.945,0.172 34.944,0.128C34.935,-0.168 34.594,-0.464 33.871,-0.803L33.756,-0.858C32.76,-1.325 30.608,-2.334 28.504,-2.598C28.531,-2.688 28.547,-2.785 28.523,-2.911C28.439,-3.368 27.93,-3.409 27.224,-3.467C26.895,-3.494 26.521,-3.525 26.116,-3.6C25.855,-3.648 25.492,-3.758 25.07,-3.885C23.966,-4.219 22.453,-4.677 20.81,-4.677C20.419,-4.677 20.039,-4.649 19.669,-4.595C19.476,-4.708 19.185,-4.835 18.771,-5.011C18.399,-5.168 17.979,-5.346 17.591,-5.546C16.693,-6.005 14.341,-6.503 12.103,-6.503C11.553,-6.503 11.042,-6.464 10.56,-6.405C9.586,-6.971 6.681,-7.962 3.909,-8.093C3.253,-8.463 1.789,-8.768 0.464,-8.768C0.232,-8.768 0.002,-8.771 -0.227,-8.774C-0.451,-8.776 -0.674,-8.779 -0.894,-8.779C-1.539,-8.779 -2.199,-8.758 -2.835,-8.623C-3.032,-8.842 -3.599,-8.889 -4.616,-8.931C-4.938,-8.944 -5.271,-8.958 -5.575,-8.983C-5.791,-9 -6.007,-9.008 -6.219,-9.008C-7.189,-9.008 -8.463,-8.815 -9.582,-8.045C-9.591,-8.081 -9.594,-8.119 -9.616,-8.149C-9.795,-8.395 -10.004,-8.466 -10.549,-8.466C-10.61,-8.466 -10.677,-8.465 -10.748,-8.463C-10.908,-8.459 -11.069,-8.464 -11.241,-8.469C-11.382,-8.473 -11.531,-8.478 -11.69,-8.478C-12.152,-8.478 -12.805,-8.445 -13.757,-8.19C-14.949,-7.871 -16.586,-6.872 -17.279,-6.428C-17.314,-6.447 -17.345,-6.477 -17.387,-6.477L-17.419,-6.476C-17.91,-6.432 -18.933,-6.342 -20.772,-5.384C-21.833,-4.831 -22.604,-4.037 -23.056,-3.486C-23.156,-3.465 -23.27,-3.417 -23.443,-3.331C-23.563,-3.272 -23.711,-3.199 -23.892,-3.119C-24.062,-3.044 -24.281,-2.986 -24.536,-2.919C-25.124,-2.763 -25.856,-2.57 -26.588,-2.027C-27.486,-1.428 -28.552,-0.47 -29.364,0.307C-29.447,0.294 -29.545,0.285 -29.661,0.285C-30.407,0.285 -31.931,0.686 -33.89,3.162C-34.727,3.323 -36.434,4.057 -37.629,5.754C-37.729,5.749 -37.829,5.743 -37.934,5.743C-38.193,5.743 -38.429,5.77 -38.678,5.83L-38.82,5.863C-39.395,5.994 -40.356,6.214 -40.916,6.991C-41.024,7.14 -41.115,7.288 -41.193,7.432C-41.563,7.374 -41.929,7.334 -42.278,7.334C-43.815,7.334 -44.829,7.881 -45.379,8.298C-45.433,8.289 -45.487,8.282 -45.542,8.273C-45.776,8.234 -46.042,8.189 -46.416,8.189C-46.585,8.189 -46.762,8.198 -46.956,8.216C-48.172,8.333 -48.926,9.199 -49.162,9.512C-50.083,9.803 -51.071,10.401 -51.858,11.188C-52.589,11.919 -53.198,12.772 -53.788,13.597C-54.173,14.135 -54.536,14.643 -54.924,15.113C-55.691,15.929 -56.257,16.695 -56.813,17.514C-57.01,17.803 -57.206,18.099 -57.409,18.407C-57.928,19.191 -58.463,20.002 -59.178,20.946C-59.883,21.875 -60.405,22.791 -60.723,23.617C-61.156,23.714 -61.657,23.954 -61.994,24.359C-62.273,24.694 -62.397,25.097 -62.351,25.524C-62.258,26.389 -61.469,26.995 -60.432,26.995C-60.142,26.995 -59.859,26.946 -59.592,26.848C-59.478,26.807 -59.399,26.748 -59.313,26.694C-59.307,26.694 -59.301,26.693 -59.295,26.693L-59.292,26.706C-59.271,26.703 -59.251,26.695 -59.23,26.691C-56.044,26.583 -47.984,24.632 -45.886,23.705L-45.737,23.721L-45.625,23.732C-44.648,23.833 -43.638,23.937 -43,23.937C-42.781,23.937 -42.628,23.921 -42.511,23.896C-42.253,24.04 -40.489,25.019 -39.705,25.098C-39.67,25.101 -39.633,25.103 -39.593,25.103C-39.391,25.103 -39.115,25.052 -38.811,24.972C-38.673,25.174 -38.483,25.437 -38.259,25.727C-38.589,26.087 -39.053,26.674 -39.295,27.291C-39.797,27.493 -41.38,28.19 -41.913,29.124C-42.292,28.877 -42.85,28.731 -43.536,28.731C-44.316,28.731 -45.086,28.912 -45.597,29.213C-47.055,30.078 -47.48,31.351 -47.604,32.033C-47.641,32.235 -47.612,32.394 -47.518,32.505C-47.461,32.575 -47.353,32.656 -47.158,32.656C-47.026,32.656 -46.876,32.608 -46.722,32.539C-46.776,32.752 -46.802,32.952 -46.803,33.124C-46.803,33.426 -46.73,33.649 -46.597,33.75C-46.544,33.79 -46.477,33.811 -46.396,33.811C-46.122,33.811 -45.65,33.557 -45.104,33.262C-45.067,33.242 -45.029,33.222 -44.992,33.202C-45.13,33.472 -45.236,33.741 -45.273,33.978C-45.322,34.293 -45.279,34.536 -45.149,34.68C-45.105,34.73 -45.023,34.788 -44.889,34.788L-44.888,34.788C-44.583,34.788 -44.146,34.482 -43.605,34.08C-43.464,33.976 -43.331,33.877 -43.235,33.814C-43.14,33.757 -42.832,33.746 -42.561,33.735C-42.199,33.721 -41.789,33.705 -41.503,33.593C-41.059,33.418 -40.766,33.188 -40.76,32.744C-40.611,32.778 -40.451,32.802 -40.275,32.802C-39.897,32.802 -39.522,32.699 -39.18,32.516C-38.967,32.552 -38.732,32.568 -38.494,32.568C-38.238,32.568 -37.962,32.556 -37.73,32.546C-37.581,32.532 -37.455,32.46 -37.365,32.342C-37.274,32.221 -37.24,32.064 -37.222,31.909C-37.163,31.911 -37.103,31.914 -37.044,31.914C-36.521,31.914 -35.595,31.815 -34.951,31.226C-34.775,31.207 -34.565,31.163 -34.342,31.096C-34.457,31.285 -34.622,31.497 -34.861,31.7C-35.068,31.875 -35.231,32.085 -35.36,32.302C-35.395,32.301 -35.425,32.3 -35.462,32.3C-35.855,32.3 -36.411,32.337 -36.824,32.517C-37.423,32.779 -38.009,33.168 -38.358,33.402C-38.424,33.445 -38.481,33.484 -38.529,33.514L-38.555,33.535C-38.623,33.603 -38.647,33.699 -38.625,33.803C-38.624,33.806 -38.621,33.809 -38.62,33.812C-38.899,33.987 -39.3,34.286 -39.595,34.705C-39.63,34.757 -39.659,34.81 -39.692,34.863C-39.827,34.882 -40.052,34.923 -40.294,34.997C-40.458,34.945 -40.933,34.813 -41.594,34.813C-42.464,34.813 -43.264,35.044 -43.972,35.501C-44.602,35.909 -45.078,36.589 -45.213,37.278C-45.328,37.857 -45.205,38.427 -44.857,38.926L-44.85,38.938C-44.873,39.155 -44.884,39.378 -44.867,39.619L-44.861,39.651C-44.814,39.816 -44.681,39.911 -44.497,39.911C-44.077,39.911 -43.425,39.415 -43.235,39.264C-43.054,39.119 -42.781,38.955 -42.504,38.803C-42.688,39.22 -42.82,39.655 -42.884,40.049C-42.949,40.448 -42.972,40.977 -42.708,41.24C-42.669,41.275 -42.601,41.317 -42.492,41.317C-42.033,41.317 -41.034,40.48 -40.521,39.737L-40.51,39.744C-40.461,39.664 -40.42,39.585 -40.383,39.507C-40.367,39.478 -40.344,39.447 -40.33,39.418C-39.981,39.435 -39.72,39.443 -39.513,39.443C-39.118,39.443 -38.916,39.415 -38.619,39.372C-38.133,39.3 -37.713,39.05 -37.441,38.689C-37.382,38.71 -37.313,38.723 -37.23,38.723C-37.07,38.723 -36.873,38.684 -36.664,38.642C-36.505,38.611 -36.342,38.579 -36.189,38.563C-35.708,38.511 -35.07,38.208 -34.704,37.931C-34.656,37.918 -34.615,37.909 -34.564,37.896C-34.436,37.862 -34.302,37.826 -34.164,37.792L-33.959,37.744C-33.608,37.661 -33.27,37.576 -32.973,37.478C-32.951,37.54 -32.913,37.592 -32.844,37.63C-32.787,37.663 -32.708,37.678 -32.602,37.678C-32.246,37.678 -31.643,37.506 -31.224,37.189C-31.071,37.074 -30.851,36.997 -30.617,36.917C-30.285,36.803 -29.905,36.656 -29.602,36.361C-29.519,36.322 -29.437,36.268 -29.351,36.201C-29.219,36.097 -29.07,35.981 -28.87,35.914C-28.654,35.843 -28.403,35.79 -28.138,35.735C-27.103,35.516 -25.846,35.24 -25.326,33.655C-25.239,33.958 -25.112,34.234 -24.925,34.364C-24.785,34.46 -24.61,34.507 -24.39,34.507C-24.005,34.507 -23.537,34.36 -23.084,34.217C-22.911,34.163 -22.739,34.109 -22.575,34.064C-22.027,33.914 -21.317,33.467 -20.932,32.843C-20.714,32.716 -20.602,32.451 -20.524,32.185C-20.492,32.077 -20.454,31.961 -20.415,31.842C-20.179,31.128 -19.863,30.121 -20.532,29.354C-20.529,29.338 -20.526,29.318 -20.523,29.302C-19.907,29.566 -19.108,29.806 -18.193,29.806C-17.992,29.806 -17.79,29.794 -17.597,29.771C-17.203,29.735 -16.809,29.569 -16.353,29.376C-15.967,29.214 -15.543,29.042 -15.069,28.926C-14.914,28.898 -14.763,28.871 -14.615,28.842C-14.526,28.83 -14.442,28.812 -14.35,28.804C-13.131,28.712 -12.715,28.627 -12.563,28.183C-12.006,28.323 -11.164,28.488 -10.248,28.488C-9.408,28.488 -8.672,28.346 -8.061,28.068C-8.004,28.042 -7.94,28.021 -7.875,27.998C-7.707,27.942 -7.51,27.872 -7.388,27.722C-7.024,27.827 -6.61,27.937 -6.181,28.032C-6.568,28.112 -6.92,28.215 -7.191,28.37C-8.204,28.948 -9.072,30.09 -8.919,30.458C-8.828,30.679 -8.481,30.676 -8.19,30.648C-8.185,30.648 -8.177,30.646 -8.171,30.645C-8.487,30.95 -9.201,31.693 -9.05,32.075L-9.042,32.092C-8.977,32.201 -8.82,32.234 -8.517,32.205C-8.091,32.164 -7.439,32.004 -6.745,31.78C-7.352,32.328 -7.712,32.803 -7.738,33.127C-7.75,33.268 -7.701,33.358 -7.657,33.409C-7.574,33.505 -7.434,33.543 -7.228,33.524C-6.875,33.49 -6.339,33.296 -5.66,33.051L-5.573,33.019C-5.05,32.83 -4.442,32.7 -3.816,32.639C-3.538,32.613 -3.266,32.606 -3.005,32.609C-2.888,32.671 -2.711,32.713 -2.505,32.736C-2.635,32.777 -2.761,32.82 -2.876,32.871C-4.241,33.487 -5.488,34.84 -5.338,35.33C-5.248,35.622 -4.805,35.66 -4.43,35.66C-4.422,35.66 -4.413,35.659 -4.406,35.659C-4.847,36.009 -5.848,36.871 -5.701,37.376L-5.692,37.4C-5.624,37.546 -5.428,37.609 -5.037,37.609C-4.488,37.609 -3.636,37.483 -2.723,37.281C-3.564,37.907 -4.082,38.469 -4.155,38.88C-4.187,39.059 -4.135,39.18 -4.085,39.249C-3.991,39.383 -3.816,39.449 -3.551,39.449C-3.097,39.449 -2.389,39.266 -1.492,39.036L-1.377,39.006C-0.686,38.829 0.105,38.736 0.913,38.736C1.271,38.736 1.619,38.759 1.952,38.795C2.292,39.023 3.121,39.128 3.714,39.128C3.943,39.128 4.162,39.113 4.372,39.086C4.417,39.09 4.456,39.1 4.507,39.1C4.889,39.1 5.366,38.985 5.826,38.783C5.862,39.248 5.959,39.653 6.172,39.813C6.269,39.885 6.392,39.922 6.536,39.922C7.077,39.922 7.962,39.346 8.516,38.658C8.624,38.955 8.773,39.196 8.982,39.314L9.025,39.33C9.063,39.338 9.103,39.342 9.145,39.342C9.782,39.342 10.888,38.403 11.261,36.924C11.714,36.681 12.133,36.28 12.396,35.751C12.761,35.747 13.107,35.492 13.519,34.917C13.83,34.483 14.033,34.055 14.137,33.618C14.182,33.638 14.229,33.654 14.279,33.654C14.645,33.654 14.989,33.118 15.215,32.667C15.484,32.128 15.701,31.51 15.646,30.667C16.136,30.524 16.531,29.96 16.811,28.932C17.011,28.194 17.09,27.273 17.103,26.416C17.229,26.458 17.357,26.496 17.511,26.496C18.217,26.496 18.988,25.852 19.027,24.662C19.047,24.04 18.882,22.804 18.279,21.585C19.112,21.818 20.033,21.989 20.95,21.989C21.308,21.989 21.653,21.961 21.977,21.91C22.506,21.823 22.883,21.736 23.187,21.665C23.649,21.558 23.983,21.481 24.539,21.481L24.944,21.488C25.125,21.492 25.29,21.495 25.437,21.495C25.572,21.495 25.721,21.489 25.865,21.473C26.782,21.67 27.784,21.728 28.609,21.728C30.151,21.728 31.628,21.529 31.917,21.351C32.064,21.26 32.148,21.123 32.188,20.967C32.811,21.113 33.829,21.282 35.307,21.302C35.519,21.305 35.725,21.307 35.927,21.307C39.214,21.307 39.89,20.923 40.051,20.609C40.602,20.641 41.631,20.72 42.987,20.907C43.723,21.008 44.397,21.06 44.991,21.06C45.896,21.06 46.391,20.955 46.46,20.748C46.477,20.699 46.458,20.617 46.439,20.538C47.549,20.925 48.637,21.04 49.619,21.133C49.94,21.163 50.243,21.193 50.526,21.229L50.644,21.245C51.296,21.331 51.911,21.413 52.401,21.413C52.796,21.413 53.339,21.367 53.502,20.974L53.514,20.924C53.515,20.901 53.508,20.879 53.507,20.857C54.871,21.199 57.249,21.736 58.758,21.736L58.759,21.736C58.824,21.736 58.888,21.735 58.948,21.732C60.249,21.704 60.529,21.645 60.669,21.491C60.682,21.477 60.681,21.462 60.689,21.448C61.337,21.701 62.315,22.036 63.445,22.248C64.532,22.455 65.293,22.581 65.729,22.581C65.917,22.581 66.05,22.559 66.146,22.511C66.273,22.45 66.343,22.34 66.343,22.204C66.343,22.12 66.303,22.008 66.245,21.887C67.138,22.094 68.313,22.358 68.982,22.464C69.477,22.543 69.819,22.577 70.084,22.58C70.215,22.58 70.505,22.575 70.666,22.415C71.525,22.868 72.779,23.462 73.847,23.727C72.905,23.889 72.284,24.131 72.024,24.448C71.978,24.505 71.961,24.557 71.94,24.61C71.128,24.745 70.35,25.038 70.32,25.561L70.319,25.572L70.32,25.583C70.417,26.695 71.614,27.01 72.079,27.092C72.087,27.19 72.104,27.285 72.142,27.37C72.287,27.697 72.58,27.734 72.838,27.767C73.066,27.796 73.304,27.827 73.521,28.029C73.586,28.09 73.655,28.163 73.728,28.24C74.019,28.547 74.38,28.93 74.849,28.93C75.04,28.93 75.228,28.855 75.415,28.725C75.495,28.882 75.646,29.022 75.938,29.087C76.112,29.126 76.315,29.148 76.526,29.148C76.849,29.148 77.69,29.08 78.255,28.52C78.372,28.705 78.528,28.817 78.73,28.839C78.744,28.841 78.767,28.839 78.774,28.842C79.191,28.842 80.216,28.134 80.925,26.859C81.013,26.941 81.089,27.032 81.152,27.115C81.256,27.248 81.338,27.354 81.457,27.385C81.479,27.391 81.503,27.394 81.528,27.394C81.828,27.394 82.384,26.925 82.949,25.876C83.396,25.048 83.423,23.88 83.398,23.25C83.423,23.236 83.453,23.228 83.475,23.21L83.509,23.183L83.523,23.142C84,21.817 83.276,19.941 82.809,18.949" style="fill:white;fill-rule:nonzero;"/>
            </g>
        </g>
    </g>
</svg>
