<?xml version="1.0" encoding="UTF-8" standalone="no"?>
<!DOCTYPE svg PUBLIC "-//W3C//DTD SVG 1.1//EN" "http://www.w3.org/Graphics/SVG/1.1/DTD/svg11.dtd">
<svg width="100%" height="100%" viewBox="0 0 166 101" version="1.1" xmlns="http://www.w3.org/2000/svg" xmlns:xlink="http://www.w3.org/1999/xlink" xml:space="preserve" xmlns:serif="http://www.serif.com/" style="fill-rule:evenodd;clip-rule:evenodd;stroke-linejoin:round;stroke-miterlimit:2;">
    <g transform="matrix(1,0,0,1,-453.824,-5867.02)">
        <g transform="matrix(2.13778,0,0,2.13549,925.306,5984.12)">
            <g transform="matrix(0.870821,0,0,0.870821,-144.221,-29.5501)">
                <path d="M0,-3.826L-2.377,-3.826L-7.315,-8.852L-10.732,-13.261L-14.044,-20.672C-14.698,-24.795 -17.453,-27.189 -21.523,-28.5L-22.286,-27.362C-22.372,-26.785 -22.437,-26.232 -22.492,-25.693L-35.539,-29.035L-76.09,-19.133C-79.623,-17.753 -81.719,-15.762 -82.676,-13.287C-85.65,-9.516 -87.169,-4.553 -86.697,0.218C-89.473,3.473 -85.197,5.628 -86.108,9.374C-84.038,8.113 -82.738,2.564 -85.145,0.065C-85.466,-3.18 -84.785,-6.524 -83.299,-9.446C-83.246,-7.528 -82.751,-5.422 -81.883,-3.158C-79.59,1.206 -79.027,5.403 -81.883,9.27L-81.883,20.633L-80.546,21.45L-80.101,24.482C-78.399,25.074 -76.378,25.209 -74.828,24.482C-75.259,22.989 -76.318,22.066 -77.427,21.45L-78.764,12.24C-75.967,11.652 -73.776,10.344 -72.026,8.514C-72.071,9.829 -72.262,10.931 -72.674,11.712L-66.853,21.036L-65.841,21.07L-65.381,22.92C-63.597,23.593 -62.081,23.697 -60.216,22.852C-60.548,21.368 -61.504,20.238 -62.805,19.893L-68.579,11.786C-66.369,10.156 -64.682,8.237 -63.732,5.972C-57.408,8.104 -49.799,8.126 -42.148,6.522L-38.955,13.875L-38.897,21.003L-37.692,21.45L-37.766,24.482C-36.26,25.134 -34.189,25.074 -32.345,24.482C-32.647,23.057 -33.302,22.11 -34.722,21.45L-36.059,13.429L-34.021,8.954L-33.014,12.352L-32.956,19.48L-31.751,19.927L-31.824,22.959C-30.318,23.611 -28.248,23.551 -26.403,22.959C-26.706,21.534 -27.36,20.587 -28.78,19.927L-30.117,11.906L-27,3.41L-23.062,2.14C-17.7,4.691 -13.413,4.188 -4.754,1.174L-4.159,2.362L0,1.249L1.3,-4.322L0,-3.826Z" style="fill:white;fill-rule:nonzero;"/>
            </g>
        </g>
    </g>
</svg>
