<?xml version="1.0" encoding="UTF-8" standalone="no"?>
<!DOCTYPE svg PUBLIC "-//W3C//DTD SVG 1.1//EN" "http://www.w3.org/Graphics/SVG/1.1/DTD/svg11.dtd">
<svg width="100%" height="100%" viewBox="0 0 49 39" version="1.1" xmlns="http://www.w3.org/2000/svg" xmlns:xlink="http://www.w3.org/1999/xlink" xml:space="preserve" xmlns:serif="http://www.serif.com/" style="fill-rule:evenodd;clip-rule:evenodd;stroke-linejoin:round;stroke-miterlimit:2;">
    <g transform="matrix(1,0,0,1,-759.63,-5936.79)">
        <g transform="matrix(0.308955,0,0,0.308955,616.244,5920.63)">
            <g transform="matrix(0.602201,0,0,0.602201,620.143,153.659)">
                <path d="M0,-130.686C-2.311,-137.161 -10.015,-149.18 -13.098,-150.413C-16.181,-151.645 -26.814,-156.115 -31.592,-158.425C-36.368,-160.739 -40.838,-163.975 -57.02,-166.594C-73.202,-169.213 -89.536,-168.443 -101.095,-166.441C-112.652,-164.438 -126.677,-159.351 -126.677,-159.351L-123.557,-163.422C-124.29,-162.764 -126.292,-161.441 -131.762,-159.041C-140.547,-155.192 -164.742,-147.022 -168.903,-143.785C-173.064,-140.549 -192.484,-131.764 -192.484,-131.764L-191.094,-135.617C-191.094,-135.617 -196.952,-132.69 -198.337,-129.608C-199.725,-126.526 -210.823,-115.582 -210.823,-115.582L-211.285,-120.361C-211.285,-120.361 -212.825,-114.504 -214.983,-109.419C-217.14,-104.334 -233.476,-84.916 -233.476,-84.916C-233.476,-84.916 -232.397,-90.156 -231.779,-93.083C-231.163,-96.011 -237.792,-96.628 -243.338,-91.696C-248.888,-86.766 -253.356,-74.282 -254.897,-69.351C-256.439,-64.419 -257.055,-50.395 -258.441,-44.539C-259.827,-38.683 -258.902,-28.974 -257.362,-26.816C-255.821,-24.658 -251.044,-17.57 -251.044,-16.183C-251.044,-14.794 -249.813,-2.159 -248.733,3.544C-247.652,9.244 -247.037,26.197 -247.037,26.197C-247.348,30.05 -249.503,32.208 -249.658,33.903C-249.813,35.599 -244.571,38.218 -238.406,38.373C-232.242,38.527 -226.078,36.524 -226.078,36.524C-223.612,36.524 -220.376,31.591 -220.376,31.591C-220.376,31.591 -215.289,28.355 -211.591,25.427C-207.893,22.498 -197.259,8.166 -197.259,8.166C-197.259,8.166 -193.406,4.931 -190.169,1.078C-186.935,-2.776 -178.921,-19.418 -172.601,-28.202C-166.282,-36.988 -164.126,-34.676 -163.817,-33.289C-163.51,-31.901 -163.354,-17.262 -162.122,-11.096C-160.889,-4.934 -159.505,3.081 -162.892,15.872C-166.282,28.663 -171.676,34.828 -170.598,35.752C-169.52,36.678 -163.046,34.673 -163.046,34.673C-163.046,34.673 -159.811,36.988 -154.726,35.29C-149.64,33.595 -148.406,28.355 -148.406,28.355C-148.406,28.355 -145.171,30.821 -142.859,29.126C-140.547,27.43 -143.013,19.418 -143.013,19.418C-143.013,19.418 -139.159,20.187 -139.159,19.261C-139.159,18.336 -143.938,11.404 -143.32,7.55C-142.704,3.699 -138.851,-2.004 -137.772,-6.935C-136.693,-11.867 -135.153,-21.731 -134.075,-28.819C-132.995,-35.909 -126.523,-47.621 -125.752,-49.623C-124.984,-51.629 -106.644,-49.315 -93.389,-52.861C-80.137,-56.407 -76.129,-63.957 -72.585,-65.342C-69.04,-66.731 -62.566,-57.792 -59.021,-54.401C-55.478,-51.012 -45.461,-39.607 -43.611,-37.142C-41.764,-34.675 -40.375,-22.347 -40.375,-17.416C-40.375,-12.484 -38.526,0.616 -38.219,6.472C-37.909,12.329 -43.15,16.644 -44.382,17.875C-45.615,19.109 -46.54,21.882 -43.611,22.037C-40.685,22.192 -36.831,21.267 -35.597,20.496C-34.363,19.726 -30.975,20.496 -30.975,20.957C-30.975,21.42 -30.975,24.349 -29.742,24.349C-28.511,24.349 -28.047,26.505 -26.658,26.814C-25.271,27.123 -21.882,26.199 -20.804,27.123C-19.726,28.045 -16.796,25.273 -15.564,23.577C-14.329,21.882 -13.406,9.863 -12.328,9.554C-11.25,9.247 -10.48,14.947 -9.861,16.49C-9.246,18.031 -9.09,20.187 -7.55,17.567C-6.009,14.947 -7.858,7.706 -7.086,2.774C-6.317,-2.159 -8.628,-6.165 -9.09,-12.175C-9.553,-18.186 -7.55,-25.277 -7.55,-25.277C-6.626,-21.576 -3.697,-19.88 -3.697,-19.88C-3.697,-19.88 -5.547,-30.823 -4.159,-40.995C-2.772,-51.166 -6.933,-53.94 -13.251,-59.488C-19.57,-65.036 -23.423,-76.13 -24.348,-83.528C-25.271,-90.926 -22.037,-106.645 -21.573,-109.574C-21.111,-112.502 -15.255,-118.204 -15.255,-118.204C-15.255,-118.204 -11.866,-115.428 -13.098,-118.358C-14.331,-121.285 -12.173,-124.676 -12.173,-124.676C-12.173,-124.676 -11.404,-124.06 -12.328,-127.452C-13.251,-130.841 -12.636,-134.232 -12.636,-134.232C-8.63,-134.076 -5.701,-127.913 -5.239,-126.064C-4.776,-124.213 -5.855,-115.582 -2.311,-115.582C1.233,-115.582 2.313,-124.213 0,-130.686" style="fill:white;fill-rule:nonzero;"/>
            </g>
        </g>
    </g>
</svg>
