<?xml version="1.0" encoding="UTF-8" standalone="no"?>
<!DOCTYPE svg PUBLIC "-//W3C//DTD SVG 1.1//EN" "http://www.w3.org/Graphics/SVG/1.1/DTD/svg11.dtd">
<svg width="100%" height="100%" viewBox="0 0 73 43" version="1.1" xmlns="http://www.w3.org/2000/svg" xmlns:xlink="http://www.w3.org/1999/xlink" xml:space="preserve" xmlns:serif="http://www.serif.com/" style="fill-rule:evenodd;clip-rule:evenodd;stroke-linejoin:round;stroke-miterlimit:2;">
    <g transform="matrix(1,0,0,1,-656.031,-5923.07)">
        <g transform="matrix(0.211637,0,0,0.211637,656.031,5923.07)">
            <g transform="matrix(1,0,0,1,338.694,22.9712)">
                <path d="M0,154.972C-1.181,152.848 -1.89,148.138 -1.89,144.131C-1.89,140.122 -2.004,129.87 -2.242,124.214C-2.473,118.555 -3.184,108.423 -5.658,106.42C-8.134,104.414 -21.096,100.172 -25.691,92.04C-30.287,83.909 -31.115,71.417 -29.814,64.111C-28.519,56.806 -25.459,50.087 -25.459,45.372C-25.459,40.659 -28.167,33.707 -27.69,33.824C-27.227,33.941 -24.867,37.361 -23.454,42.191C-22.038,47.025 -21.801,55.626 -19.684,56.098C-17.562,56.57 -16.146,55.982 -16.855,51.502C-17.562,47.025 -21.331,36.652 -22.865,33.236C-24.395,29.818 -25.93,20.389 -35.593,17.091C-45.255,13.79 -59.752,14.616 -64.581,14.854C-69.409,15.086 -82.729,18.387 -86.852,19.331C-90.979,20.271 -103.352,19.093 -109.717,18.974C-116.082,18.862 -134.819,19.331 -138.236,18.862C-141.652,18.387 -154.029,14.854 -160.273,14.145C-166.519,13.437 -184.906,8.251 -187.378,7.783C-189.851,7.308 -197.276,8.251 -198.572,8.017C-199.872,7.783 -210.477,3.068 -212.832,1.183C-215.19,-0.704 -220.492,-2.826 -220.492,-2.826L-223.439,-4.473C-223.439,-4.473 -215.895,-14.137 -214.955,-15.435C-214.013,-16.731 -217.665,-19.795 -222.495,-21.799C-227.329,-23.803 -235.341,-23.097 -238.523,-20.737C-241.704,-18.382 -245.477,-12.37 -248.776,-11.075C-252.075,-9.779 -246.418,-15.317 -247.363,-16.261C-248.306,-17.204 -264.447,-17.438 -268.455,-17.085C-272.462,-16.731 -284.365,-14.257 -291.555,-7.305C-298.742,-0.351 -303.693,7.545 -306.875,12.143C-310.058,16.739 -317.952,26.283 -320.546,28.166C-320.546,28.166 -323.609,29.702 -324.905,31.349C-326.203,33.001 -329.029,37.361 -332.095,37.597C-335.158,37.832 -338.693,36.183 -338.693,41.013C-338.693,42.673 -337.921,44.262 -336.836,45.773C-336.519,46.497 -336.045,47.091 -335.464,47.489C-333.531,49.698 -331.256,51.716 -330.205,53.506C-330.006,53.847 -329.809,54.178 -329.614,54.502C-329.293,55.272 -328.877,55.93 -328.395,56.439C-327.158,58.28 -326.102,59.372 -325.378,58.808C-324.315,57.983 -322.549,54.333 -320.9,54.921C-319.253,55.509 -316.064,59.279 -311.118,60.107C-306.168,60.928 -295.561,61.634 -292.497,61.634C-289.435,61.634 -280.241,60.107 -277.768,58.808C-275.291,57.511 -272.462,57.278 -269.868,59.632C-267.281,61.99 -261.974,67.999 -257.025,70.712C-252.075,73.423 -244.064,77.076 -239.702,80.846C-235.341,84.615 -226.855,91.687 -222.732,97.579C-218.609,103.474 -216.485,123.036 -216.368,126.806C-216.248,130.577 -213.422,139.65 -213.422,141.774C-213.422,143.896 -212.951,152.024 -212.832,154.146C-212.718,156.269 -213.895,162.04 -214.249,164.165C-214.601,166.285 -214.952,168.286 -214.837,169.466C-214.721,170.646 -218.251,172.294 -219.199,173.827C-220.139,175.359 -221.789,178.775 -218.251,177.599C-214.721,176.419 -215.307,177.599 -212.598,177.718C-209.888,177.835 -201.399,177.48 -201.047,176.065C-200.697,174.652 -199.988,171.231 -198.809,170.53C-197.631,169.819 -197.749,164.99 -198.337,162.515C-198.925,160.038 -198.572,156.621 -197.864,154.972C-197.159,153.322 -193.214,143.026 -193.386,140.201C-193.625,136.431 -195.354,130.93 -196.135,127.551C-196.922,124.173 -199.437,115.611 -199.278,109.641C-199.122,103.669 -196.766,113.175 -195.746,117.026C-194.728,120.874 -192.21,130.381 -192.21,130.381C-192.21,130.381 -187.964,146.253 -186.906,149.549C-185.848,152.848 -185.612,160.513 -185.73,163.692C-185.848,166.874 -186.906,172.533 -187.022,174.298C-187.145,176.065 -187.378,177.951 -182.664,177.247C-177.948,176.535 -174.532,175.007 -172.884,175.242C-171.232,175.48 -167.108,177.835 -166.519,172.885C-165.931,167.933 -167.229,163.577 -168.758,160.513C-170.292,157.445 -170.642,149.905 -169.936,146.956C-169.233,144.012 -168.171,132.226 -168.284,127.516C-168.407,122.8 -170.292,109.365 -167.814,109.952C-165.34,110.544 -147.428,113.962 -141.417,113.962C-141.417,113.962 -121.516,114.072 -107.617,111.326C-93.715,108.583 -93.35,105.243 -87.68,105.357C-85.774,105.4 -77.193,107.831 -72.358,111.84C-67.529,115.847 -64.819,119.263 -61.045,120.326C-57.273,121.384 -49.731,125.509 -47.729,129.283C-45.727,133.052 -43.487,138.709 -44.426,143.068C-45.375,147.43 -45.606,155.56 -45.606,159.095C-45.606,162.633 -46.551,165.343 -47.14,166.638C-47.729,167.933 -50.321,172.412 -50.321,173.471C-50.321,174.533 -46.785,175.826 -44.904,175.007C-43.017,174.179 -40.067,174.768 -39.245,174.887C-38.423,175.007 -35.354,176.419 -33.826,176.419C-32.291,176.419 -31.466,175.242 -32.054,172.412C-32.647,169.583 -31.702,164.283 -31.352,162.988C-30.994,161.689 -29.577,148.609 -28.519,143.656C-27.457,138.709 -24.395,134.111 -24.395,130.697C-24.395,127.275 -20.272,132.462 -19.445,135.763C-18.626,139.066 -17.681,144.718 -17.089,147.902C-16.501,151.081 -15.793,156.504 -15.793,159.214C-15.793,161.922 -14.966,163.811 -14.732,165.46C-14.497,167.113 -16.973,169.702 -17.211,171.587C-17.441,173.471 -16.739,175.242 -14.26,174.062C-11.784,172.885 -8.722,170.41 -8.134,169.352C-7.543,168.286 -6.482,170.173 -4.123,170.173C-1.769,170.173 2.003,168.641 2.354,166.874C2.709,165.107 1.176,157.092 0,154.972" style="fill:white;fill-rule:nonzero;"/>
            </g>
        </g>
    </g>
</svg>
