<svg id="圖層_1" data-name="圖層 1" xmlns="http://www.w3.org/2000/svg" viewBox="0 0 379.21 247.79"><defs><style>.cls-1{fill:#fff;}</style></defs><title>想像力製造所 2019-LOGO-白底</title><path class="cls-1" d="M235.88,341.72V300.41a3.72,3.72,0,0,0-7.43,0v41.31a3.72,3.72,0,1,0,7.43,0Z" transform="translate(-117.13 -224.13)"/><path class="cls-1" d="M245.64,422a4.08,4.08,0,0,0,4-4.24V402.09a4,4,0,1,0-8,0v15.65A4.08,4.08,0,0,0,245.64,422Z" transform="translate(-117.13 -224.13)"/><path class="cls-1" d="M260,367.25a3.05,3.05,0,0,0,2.95-3.89l-2.29-8.29a5.37,5.37,0,0,0-5-3.9,3,3,0,0,0-2.95,3.9l2.19,8.29A5.38,5.38,0,0,0,260,367.25Z" transform="translate(-117.13 -224.13)"/><path class="cls-1" d="M247.64,368.73c0-2.19-1.72-3.28-4-3.28H219.25a1.83,1.83,0,0,1-1.91-1.81V353.12a3.85,3.85,0,0,0-3.9-3.9,3.94,3.94,0,0,0-4,3.9v12.66a6.93,6.93,0,0,0,6.95,7h27.25A4,4,0,0,0,247.64,368.73Z" transform="translate(-117.13 -224.13)"/><path class="cls-1" d="M201.56,363.36l2.18-8.29a3,3,0,0,0-3-3.9,5.38,5.38,0,0,0-5,3.9l-2.29,8.29a3.06,3.06,0,0,0,3,3.89A5.39,5.39,0,0,0,201.56,363.36Z" transform="translate(-117.13 -224.13)"/><path class="cls-1" d="M226.23,355.26l.55,2.14a6.66,6.66,0,0,0,6.3,4.62,3.5,3.5,0,0,0,3.25-4.62l-.44-2.14a6.76,6.76,0,0,0-6.3-4.62A3.51,3.51,0,0,0,226.23,355.26Z" transform="translate(-117.13 -224.13)"/><path class="cls-1" d="M256.72,296.7H243.84a3.61,3.61,0,0,0-3.61,3.61v.2a3.61,3.61,0,0,0,3.61,3.61h10.69a1.83,1.83,0,0,1,1.91,1.81v2.95a1.83,1.83,0,0,1-1.91,1.81H243.84a3.61,3.61,0,0,0-3.61,3.61v.1a3.62,3.62,0,0,0,3.61,3.62h10.69a1.83,1.83,0,0,1,1.91,1.81v2.86a1.83,1.83,0,0,1-1.91,1.8H243.84a3.62,3.62,0,0,0-3.61,3.62v.1a3.62,3.62,0,0,0,3.61,3.62h10.69a1.83,1.83,0,0,1,1.91,1.8v2.76a1.84,1.84,0,0,1-1.91,1.82H243.84a3.62,3.62,0,0,0,0,7.23h12.88a7,7,0,0,0,6.95-7V303.65A7,7,0,0,0,256.72,296.7Z" transform="translate(-117.13 -224.13)"/><path class="cls-1" d="M192.86,413.08H209.1c.82,0,1.47,1.45,1.47,2.24s-.65,2.46-1.47,2.46h-9.58c-3.7,0-6.75,2.36-6.75,6.3v5.52a3.56,3.56,0,1,0,7.12,0v-3.26a1.74,1.74,0,0,1,1.75-1.77h7.18a1.77,1.77,0,0,1,1.75,1.88V432a3.63,3.63,0,0,0,3.52,3.73A3.54,3.54,0,0,0,217.5,432v-5.52a1.85,1.85,0,0,1,1.85-1.88h7.46a1.6,1.6,0,0,1,1.56,1.68v2.57a3.63,3.63,0,0,0,3.52,3.73,3.7,3.7,0,0,0,3.6-3.73v-4.74c0-3.94-3.05-6.3-6.74-6.3H219c-.74,0-1.49-1.57-1.49-2.46s.75-2.24,1.49-2.24H234.2a3.56,3.56,0,0,0,3.42-3.75c0-2.07-1.48-3-3.42-3H192.86c-1.94,0-3.5.91-3.5,3A3.63,3.63,0,0,0,192.86,413.08Z" transform="translate(-117.13 -224.13)"/><path class="cls-1" d="M190.5,307.17a4,4,0,0,0,4,4h3.33a1.22,1.22,0,0,1,1.14,1.71l-7.9,19.9a2.7,2.7,0,0,0,2.48,3.71,6,6,0,0,0,5.42-3.62l4.1-9.9c.19-.28.76-.19.76.19v19.23a3.57,3.57,0,1,0,7.13,0V320.78a.45.45,0,0,1,.86-.19l1.62,2.76a6.62,6.62,0,0,0,5.9,3.52,2.39,2.39,0,0,0,2.2-3.52l-5.62-11a.83.83,0,0,1,.76-1.23h1.42a4,4,0,1,0,0-7.9h-5.32a1.88,1.88,0,0,1-1.82-1.81v-3.24a3.57,3.57,0,1,0-7.13,0v3.24a1.88,1.88,0,0,1-1.81,1.81H194.5A4,4,0,0,0,190.5,307.17Z" transform="translate(-117.13 -224.13)"/><path class="cls-1" d="M196.06,275.61H210.7c2.44,0,3.31-1.19,3.31-3.24V255.84h-6.42v15.28a.66.66,0,0,1-.68.69h-5.07a1.22,1.22,0,0,1-1.13-1.56l6.62-22.86h-7s-6.91,23.68-7.19,24.61A2.78,2.78,0,0,0,196.06,275.61Z" transform="translate(-117.13 -224.13)"/><path class="cls-1" d="M145.27,391l5.31-11.05,14.69,2.51a2.36,2.36,0,0,0,2.7-2.27l3.53-67.09a1.23,1.23,0,0,0-2.13-.95l-51.62,58.41a2.49,2.49,0,0,0,1.32,4.08l19.11,3.65,5.3,12.66A1,1,0,0,0,145.27,391Zm-5.42-16.71-14.25-2.8a2.49,2.49,0,0,1-1.29-4.09l41.78-46.71a1.22,1.22,0,0,1,2.11,1L164.31,376a2.36,2.36,0,0,1-2.7,2.22l-15-2.55,13.49-35.12a.35.35,0,0,0-.62-.33Z" transform="translate(-117.13 -224.13)"/><path class="cls-1" d="M265.37,444.64a4,4,0,0,0-3.88-4.14H233.81a1.1,1.1,0,0,1-1.11-1.18V439a4,4,0,0,0-3.79-4.13A4,4,0,0,0,225,439v.3a1.1,1.1,0,0,1-1.11,1.18H194.71a4.15,4.15,0,0,0,0,8.28h10.82a.54.54,0,0,1,.28,1l-10.41,6.56a4.29,4.29,0,0,0-1.4,5.59,3.74,3.74,0,0,0,5.33,1.52c2.87-1.82,6.67-4.21,7.67-4.8a.49.49,0,0,1,.74.39v5.32a6.89,6.89,0,0,0,6.66,7.19h3.88a4.15,4.15,0,0,0,0-8.28H216.8a1.4,1.4,0,0,1-1.38-1.47v-6.7a3.67,3.67,0,0,1,1.47-2.95l4.07-2.66a4.81,4.81,0,0,1,2.31-.69h38.22A4,4,0,0,0,265.37,444.64Z" transform="translate(-117.13 -224.13)"/><path class="cls-1" d="M275,224.2v4.93h-2.93a1.18,1.18,0,0,0-1.21,1.25v44.06a1.18,1.18,0,0,0,1.25,1.18h10.09a2.4,2.4,0,0,0,2.44-2.37V255.58a2.44,2.44,0,0,0-2.42-2.45h-5.85V249.9h5.8a2.41,2.41,0,0,0,2.47-2.43v-15.9a2.42,2.42,0,0,0-2.43-2.44h-1.68V224.2Zm1.38,32.13h2.14a.67.67,0,0,1,.69.69v14.67a.66.66,0,0,1-.7.72H276.4ZM279.22,246a.67.67,0,0,1-.68.68H276.4V232.36h2.11a.69.69,0,0,1,.71.71Z" transform="translate(-117.13 -224.13)"/><path class="cls-1" d="M152.66,418.23a97.84,97.84,0,0,0,21.94,18.63c2,1.27,4,2.47,6.12,3.61a2.86,2.86,0,0,0,4.3-1.6,2.69,2.69,0,0,0-1.39-3.07c-2-1.06-3.92-2.17-5.81-3.35A92.35,92.35,0,0,1,157,415.12a67.26,67.26,0,0,1-8.33-12.07,2.61,2.61,0,0,0-2.9-1.31l-.07,0a2.55,2.55,0,0,0-1.64,3.68A71,71,0,0,0,152.66,418.23Z" transform="translate(-117.13 -224.13)"/><path class="cls-1" d="M265.05,224.13l-2.77,5.55-2.55-3.89h-6.57l6,9.56-5.42,10.41H260l2.39-4.63c.74.57.53,6.23.53,6.23l-8.72,15h6.21l2.5-4.57v12.55a1.85,1.85,0,0,1-1.79,2.09h-5.92v3.22h9.4a3.89,3.89,0,0,0,3.81-4.45V246.75c0-2.8-.59-9.23-2.8-12l5.69-10.62Z" transform="translate(-117.13 -224.13)"/><path class="cls-1" d="M193.16,401.62h37.25a3.75,3.75,0,0,0,0-7.48H218.62a1.15,1.15,0,0,1-1.12-1.09v-.58a3.47,3.47,0,0,0-3.41-3.65,3.55,3.55,0,0,0-3.52,3.65v.58a1.07,1.07,0,0,1-1,1.09h-6.44a.46.46,0,0,1-.37-.69,2,2,0,0,0-1.66-2.56H199.7a5.51,5.51,0,0,0-5.17,3.93L193,399.26C192.67,400.08,192.07,401.62,193.16,401.62Z" transform="translate(-117.13 -224.13)"/><path class="cls-1" d="M258.35,455.21a2.34,2.34,0,0,0-1.48-4h-.09a12.85,12.85,0,0,0-9.47,3.61,1.82,1.82,0,0,1-2.4,0l-3.62-3.17a3.57,3.57,0,0,0-3.85-.6,4.14,4.14,0,0,0-1,6.74l11.12,10.14a16.13,16.13,0,0,0,10.72,4,2.36,2.36,0,0,0,1.39-4.13l-6.19-5.42a1.64,1.64,0,0,1,0-2.46Z" transform="translate(-117.13 -224.13)"/><path class="cls-1" d="M188,288.77l1.44-1.46a14.51,14.51,0,0,0,1.24-1.24,2.71,2.71,0,0,0,.59-2.37,1.77,1.77,0,0,0-1.22-1.11c-1.23-.27-2,.62-2.82,1.39l-2.66,2.63c-.85.86-1.7,1.72-2.53,2.6-3.4,3.61-6.66,7.36-9.73,11.24a2,2,0,0,0,.17,2.73,2.07,2.07,0,0,0,3.11-.17c3-3.89,6.24-7.66,9.61-11.31C186.11,290.71,187.05,289.74,188,288.77Z" transform="translate(-117.13 -224.13)"/><path class="cls-1" d="M264.12,395.91a4.11,4.11,0,0,0-4-4.34,4.19,4.19,0,0,0-4.06,4.34v31.32h-4.3a4.24,4.24,0,0,0,0,8.47h8.36l.12,0a4.07,4.07,0,0,0,3.85-4.21V395.91Z" transform="translate(-117.13 -224.13)"/><path class="cls-1" d="M220.85,224.15,209.31,244.8h7l2-3.85s0,30.31,0,30.34a4.22,4.22,0,0,0,4.43,4.31H247.8v-3.77h-8.07V260.11h8.07v-3.79h-8.07V246.2h8.07v-3.78h-8.07v-9.66h8.7V229h-8.7v-4.85h-7V229h-7.47l3-4.85Zm11.9,47.7h-4.92a2.5,2.5,0,0,1-2.54-2.66v-9.08h7.46Zm0-15.53h-7.46V246.2h7.46Zm0-23.56v9.66h-7.46v-9.66Z" transform="translate(-117.13 -224.13)"/><path class="cls-1" d="M423.43,471.16a4.35,4.35,0,0,0,4.32-4.44v-41.5a2,2,0,0,1,2-2.07h.83a4.34,4.34,0,0,0,4.31-4.44,4.44,4.44,0,0,0-4.31-4.55H415.37a4.5,4.5,0,0,0,0,9h1.84a1.93,1.93,0,0,1,1.9,2v41.61A4.41,4.41,0,0,0,423.43,471.16Z" transform="translate(-117.13 -224.13)"/><polygon class="cls-1" points="83.08 23.04 87.4 10.24 95.29 10.24 95.29 6.51 88.65 6.51 90.59 0.02 83.39 0.02 81.45 6.51 76.71 6.51 76.71 10.24 80.2 10.24 76.01 23.04 83.08 23.04"/><path class="cls-1" d="M422,224.32H383.76c-3.67,0-5.21,1.82-5.21,5.22v33.34h-4.23v3.94h7.83l-7.4,8.77h10l7.4-8.77h21.3l7.4,8.77h10l-7.4-8.77h7.88v-3.94H427V229.55C427,226.61,425.7,224.32,422,224.32Zm-2.51,38.56H386V257h33.49Zm0-9.8H386v-5.5h33.49Zm0-9.43H386v-5.49h33.49Zm0-9.42H386v-3.17c0-2,.87-2.83,2.63-2.83h28.16a2.37,2.37,0,0,1,2.7,2.66Z" transform="translate(-117.13 -224.13)"/><path class="cls-1" d="M349.64,361.91,330.12,348.4,346.26,340a3.72,3.72,0,1,0-3.44-6.59L326.38,342c-.81-3.19-1.78-6.35-2.88-9.47a10.86,10.86,0,0,1-.87-3.08h17.08a7,7,0,0,0,6.94-7v-8.07a6.93,6.93,0,0,0-6.94-7H327.9a1.08,1.08,0,0,1-.95-1.62l3.33-5.51a3.93,3.93,0,0,0-3.33-6H311A13.45,13.45,0,0,0,300,300l-4.29,5.9a2.94,2.94,0,0,0,2.38,4.66,1.5,1.5,0,0,1,1.52,1.53v10.36a7,7,0,0,0,7,7h2.82l-9.72,4.76a7,7,0,0,0-3.84,5.86,2.46,2.46,0,0,0,3.54,2.32l15.43-7.63a1.63,1.63,0,0,1,2.24.94l.25,1a2.11,2.11,0,0,1-1.05,2.63l-12.21,6a7,7,0,0,0-3.84,6,2.44,2.44,0,0,0,3.54,2.22l14.13-7.13c1.89-.95,2.63,1.81,2.84,3.13a1.3,1.3,0,0,1,0,.68,1.45,1.45,0,0,1-.75.62q-8.12,3.87-16.18,7.84l-.2.1a7,7,0,0,0-3.84,5.86,2.47,2.47,0,0,0,3.54,2.32l7.08-3.48,5.38-2.66c1.15-.56,3.13-2,4.42-2a1.14,1.14,0,0,1,.72.17,1.71,1.71,0,0,1,.51,1.24c.2,1.76.72,4.36-.69,5.77a4.25,4.25,0,0,1-2.8,1c-2.34.13-5.53.54-5.64,3.54-.17,4.72,7,3.66,9.86,3a10.15,10.15,0,0,0,3.48-1.4c2.94-2,3.07-5.77,3.23-9a59,59,0,0,0-.07-6.52l16.76,11.6a3.72,3.72,0,0,0,4.15-6.18Zm-22.88-46.2a1.83,1.83,0,0,1,1.81-1.9h9.71a1.83,1.83,0,0,1,1.81,1.9v5.42a1.75,1.75,0,0,1-1.81,1.8h-9.71a1.75,1.75,0,0,1-1.81-1.8Zm-6.38-12.66-1.71,2.76a3.09,3.09,0,0,1-2.77,1.62h-2.16a3.19,3.19,0,0,0,0,6.38h4a1.9,1.9,0,0,1,1.89,1.9v5.42a1.82,1.82,0,0,1-1.89,1.8H308a1.8,1.8,0,0,1-1.8-1.8v-12.5a1.18,1.18,0,0,0-1-1.16l0,0a1,1,0,0,1-.77-1.52l2.2-3a3.67,3.67,0,0,1,2.95-1.42h10A1,1,0,0,1,320.38,303.05Z" transform="translate(-117.13 -224.13)"/><path class="cls-1" d="M432.16,393a4.37,4.37,0,0,0-5.79-2.27l-23,11.92a4.45,4.45,0,1,0,3.55,8.15l23-11.92A4.38,4.38,0,0,0,432.16,393Z" transform="translate(-117.13 -224.13)"/><path class="cls-1" d="M424.53,319.74l-5.13,48.55a4.24,4.24,0,0,0,4.24,4.44,4.67,4.67,0,0,0,4.66-4.44l5.32-52a7.16,7.16,0,0,0-7.13-7.45H394.82a2.05,2.05,0,0,1-2-2.06v-7.74a4.48,4.48,0,0,0-4.44-4.45,4.39,4.39,0,0,0-4.34,4.45v7.74a2.06,2.06,0,0,1-2.06,2.06H365.92a4.45,4.45,0,0,0,0,8.9H381a1.52,1.52,0,0,1,1.45,2L370.29,365a3.6,3.6,0,0,0,3.51,4.45,6,6,0,0,0,5.69-4.45l11.91-45.29a2.45,2.45,0,0,1,2.39-2h28.77A2,2,0,0,1,424.53,319.74Z" transform="translate(-117.13 -224.13)"/><path class="cls-1" d="M367.75,410.75l23-11.92a4.45,4.45,0,0,0-3.55-8.15l-23,11.92a4.45,4.45,0,1,0,3.55,8.15Z" transform="translate(-117.13 -224.13)"/><path class="cls-1" d="M361,471.23a4.82,4.82,0,0,0,4.72-4.34l2.66-18.21a2.11,2.11,0,0,1,2.11-2h17.15a7.33,7.33,0,0,0,7.22-7.54V421.61a7.35,7.35,0,0,0-7.23-7.45h-9.75a4.24,4.24,0,0,0,0,8.48h6.85a2,2,0,0,1,2,2.06v11.58a1.93,1.93,0,0,1-1.9,2H371.17a2,2,0,0,1-2-2.07V418.22a4.06,4.06,0,0,0-8.12,0v22.5l-3.77,26.17A3.85,3.85,0,0,0,361,471.23Z" transform="translate(-117.13 -224.13)"/><path class="cls-1" d="M372.59,275.67l-23.06-15.4s11-7.38,12.8-8.64a6.05,6.05,0,0,0,2.8-5.56V233.61h6.17v-4.4H346.86v-5h-8.39v5H314v4.4h6.18v12c0,3,.8,4.79,3.13,6.34l12.48,8.35-23,15.4h13.74l16.14-10.81,16.18,10.81Zm-29.92-20s-12-8.07-13-8.68a2.37,2.37,0,0,1-1.19-2.38v-11h28.34v11.31a2,2,0,0,1-1,2Z" transform="translate(-117.13 -224.13)"/><path class="cls-1" d="M479.54,346.77a108.31,108.31,0,0,1-12.75,18.37,151.36,151.36,0,0,1-16.46,16.46l-.08.07a5.77,5.77,0,0,0-2.1,4.43c0,3.26,4.62,4.88,7.34,2.59l3.74-3.15c12.93-11.64,19.65-18.83,28.54-35.86a76.76,76.76,0,0,0,8.29-26.91,58.81,58.81,0,0,0-4-27.67A70.19,70.19,0,0,0,475,271.18,109.37,109.37,0,0,0,449,253.9c-1.35-.66-2.72-1.3-4.1-1.91-2.37-1.05-5.2.43-5.18,2.72a3,3,0,0,0,1.87,2.64q1.84.84,3.63,1.74a101.64,101.64,0,0,1,23.91,16.29,63.42,63.42,0,0,1,15.2,21.85,53.1,53.1,0,0,1,3.23,25A71,71,0,0,1,479.54,346.77Z" transform="translate(-117.13 -224.13)"/><path class="cls-1" d="M308.67,229.05v-3.27H286.78v3.27h8.28v3.19h-4.95a2.94,2.94,0,0,0-3,2.95V274h5.41V235.45h2.51V276h5.4V235.46h1.74a.69.69,0,0,1,.73.72c0,.32,0,37.8,0,37.8h5.41V235.17a2.86,2.86,0,0,0-3.13-2.94h-4.73v-3.18Z" transform="translate(-117.13 -224.13)"/><path class="cls-1" d="M274.43,470.25l8.78-6.89a1.9,1.9,0,0,1,2.68.19l2.5,2.66a16.13,16.13,0,0,0,11.55,5H346.5a4,4,0,0,0,3.79-4.13,3.88,3.88,0,0,0-3.79-4H298.19a4.26,4.26,0,0,1-3.06-1.38l-5.08-5.32a4.79,4.79,0,0,1-1.29-3.25V430.06a6.94,6.94,0,0,0-6.65-7.19h-6.74a4,4,0,0,0-3.8,4.14,3.88,3.88,0,0,0,3.8,4h4a1.83,1.83,0,0,1,1.76,1.88v19.5a4.09,4.09,0,0,1-1.39,3.05l-5.27,4.24a10.75,10.75,0,0,0-4,8.37A2.5,2.5,0,0,0,274.43,470.25Z" transform="translate(-117.13 -224.13)"/><path class="cls-1" d="M400.68,471.23a4.82,4.82,0,0,0,4.72-4.34l2-15.72,1.08-19.71V418.22a4.06,4.06,0,0,0-8.12,0v3.38h0v19.12L397,466.89A3.85,3.85,0,0,0,400.68,471.23Z" transform="translate(-117.13 -224.13)"/><path class="cls-1" d="M307.74,396.55a3,3,0,0,0-2.58-4.14,6.28,6.28,0,0,0-5.74,4.14l-4.52,11.32a3,3,0,0,0,2.58,4.24,6.22,6.22,0,0,0,5.82-4.24l.28-.58a1.87,1.87,0,0,1,1.76-1.19h10.41A1.82,1.82,0,0,1,317.5,408v7.11a1.81,1.81,0,0,1-1.75,1.87H299.11a4.15,4.15,0,0,0,0,8.28h43.16a4.15,4.15,0,0,0,0-8.28H327a1.75,1.75,0,0,1-1.75-1.87V408A1.75,1.75,0,0,1,327,406.1h14.54a4,4,0,0,0,3.88-4.14,4,4,0,0,0-3.88-4.13H326.93a1.8,1.8,0,0,1-1.66-1.87V393.2a3.89,3.89,0,1,0-7.77,0V396a1.88,1.88,0,0,1-1.75,1.87h-7.36a.79.79,0,0,1-.65-1.18Z" transform="translate(-117.13 -224.13)"/><path class="cls-1" d="M278.54,400.12a3.6,3.6,0,0,0-3.26,4.77l1,3a6.51,6.51,0,0,0,6.12,4.79,3.6,3.6,0,0,0,3.15-4.79l-.91-3A6.61,6.61,0,0,0,278.54,400.12Z" transform="translate(-117.13 -224.13)"/><path class="cls-1" d="M282.54,307.54l-10.67,18a3.71,3.71,0,1,0,6.39,3.79L282,323V369.6a3.72,3.72,0,1,0,7.44,0V309.44a3.72,3.72,0,0,0-6.92-1.9Z" transform="translate(-117.13 -224.13)"/><path class="cls-1" d="M308,442v-7.55a3.52,3.52,0,0,0-7,0v15.43a7,7,0,0,0,6.75,7.19h29a7,7,0,0,0,6.74-7.19V438.14a7,7,0,0,0-6.75-7.19H315.69a3.75,3.75,0,0,0,0,7.48h18.83a1.82,1.82,0,0,1,1.75,1.87v7.32a1.92,1.92,0,0,1-1.85,2H309.81a1.92,1.92,0,0,1-1.85-2V442Z" transform="translate(-117.13 -224.13)"/></svg>