<?xml version="1.0" encoding="UTF-8" standalone="no"?>
<!DOCTYPE svg PUBLIC "-//W3C//DTD SVG 1.1//EN" "http://www.w3.org/Graphics/SVG/1.1/DTD/svg11.dtd">
<svg width="100%" height="100%" viewBox="0 0 15 12" version="1.1" xmlns="http://www.w3.org/2000/svg" xmlns:xlink="http://www.w3.org/1999/xlink" xml:space="preserve" xmlns:serif="http://www.serif.com/" style="fill-rule:evenodd;clip-rule:evenodd;stroke-linejoin:round;stroke-miterlimit:2;">
    <g transform="matrix(1,0,0,1,-279.878,-1132.16)">
        <g transform="matrix(1,0,0,1,-24.4813,-602.879)">
            <g transform="matrix(1,0,0,1,-131.374,932.76)">
                <path d="M440.634,810.012L447.924,802.722C448.51,802.136 449.46,802.136 450.046,802.722C450.631,803.307 450.631,804.258 450.046,804.843L442.211,812.678C442.143,812.916 442.016,813.141 441.828,813.328C441.502,813.655 441.061,813.8 440.634,813.761C440.206,813.8 439.766,813.655 439.439,813.328C439.252,813.141 439.124,812.916 439.057,812.678L436.172,809.793C435.586,809.207 435.586,808.257 436.172,807.672C436.757,807.086 437.707,807.086 438.293,807.672L440.634,810.012Z" style="fill:rgb(76,208,224);"/>
            </g>
        </g>
    </g>
</svg>
