<?xml version="1.0" encoding="UTF-8" standalone="no"?>
<!DOCTYPE svg PUBLIC "-//W3C//DTD SVG 1.1//EN" "http://www.w3.org/Graphics/SVG/1.1/DTD/svg11.dtd">
<svg width="100%" height="100%" viewBox="0 0 20 20" version="1.1" xmlns="http://www.w3.org/2000/svg" xmlns:xlink="http://www.w3.org/1999/xlink" xml:space="preserve" xmlns:serif="http://www.serif.com/" style="fill-rule:evenodd;clip-rule:evenodd;stroke-linejoin:round;stroke-miterlimit:2;">
    <g transform="matrix(1,0,0,1,-1580.23,-634.581)">
        <g transform="matrix(0.281314,0,0,0.281314,1856.85,4746.1)">
            <g id="envelope" transform="matrix(0.138857,0,0,0.138857,-947.785,-14579.9)">
                <g transform="matrix(1,0,0,1,-256,-256)">
                    <clipPath id="_clip1">
                        <rect x="0" y="0" width="512.001" height="512.001"/>
                    </clipPath>
                    <g clip-path="url(#_clip1)">
                        <path d="M511.646,126.634C511.625,112.185 499.864,100.445 485.419,100.445L485.385,100.445L26.19,101.076C19.185,101.085 12.602,103.822 7.655,108.782C2.709,113.743 -0.009,120.334 0,127.337L0.355,385.366C0.364,392.371 3.101,398.954 8.061,403.901C13.012,408.839 19.587,411.556 26.58,411.556L26.615,411.556L485.809,410.925C500.267,410.905 512.016,399.126 511.999,384.664L511.646,126.634ZM456.611,126.71L256.02,266.154L55.04,127.262L456.611,126.71ZM340.846,292.471L459.817,384.736L51.845,385.296L171.541,292.471C177.263,288.032 178.305,279.796 173.867,274.072C169.428,268.35 161.192,267.308 155.468,271.746L26.561,371.715L26.241,139.24L248.585,292.897C250.829,294.448 253.434,295.222 256.04,295.222C258.657,295.222 261.276,294.439 263.525,292.876L485.437,138.612L485.773,371.678L356.917,271.747C351.198,267.31 342.958,268.351 338.52,274.073C334.081,279.795 335.122,288.033 340.846,292.471Z" style="fill-rule:nonzero;"/>
                        <path d="M511.646,126.634C511.625,112.185 499.864,100.445 485.419,100.445L485.385,100.445L26.19,101.076C19.185,101.085 12.602,103.822 7.655,108.782C2.709,113.743 -0.009,120.334 0,127.337L0.355,385.366C0.364,392.371 3.101,398.954 8.061,403.901C13.012,408.839 19.587,411.556 26.58,411.556L26.615,411.556L485.809,410.925C500.267,410.905 512.016,399.126 511.999,384.664L511.646,126.634ZM456.611,126.71L256.02,266.154L55.04,127.262L456.611,126.71ZM340.846,292.471L459.817,384.736L51.845,385.296L171.541,292.471C177.263,288.032 178.305,279.796 173.867,274.072C169.428,268.35 161.192,267.308 155.468,271.746L26.561,371.715L26.241,139.24L248.585,292.897C250.829,294.448 253.434,295.222 256.04,295.222C258.657,295.222 261.276,294.439 263.525,292.876L485.437,138.612L485.773,371.678L356.917,271.747C351.198,267.31 342.958,268.351 338.52,274.073C334.081,279.795 335.122,288.033 340.846,292.471Z" style="fill-rule:nonzero;"/>
                    </g>
                </g>
            </g>
        </g>
    </g>
</svg>
