<?xml version="1.0" encoding="UTF-8" standalone="no"?>
<!DOCTYPE svg PUBLIC "-//W3C//DTD SVG 1.1//EN" "http://www.w3.org/Graphics/SVG/1.1/DTD/svg11.dtd">
<svg width="100%" height="100%" viewBox="0 0 109 59" version="1.1" xmlns="http://www.w3.org/2000/svg" xmlns:xlink="http://www.w3.org/1999/xlink" xml:space="preserve" xmlns:serif="http://www.serif.com/" style="fill-rule:evenodd;clip-rule:evenodd;stroke-linejoin:round;stroke-miterlimit:2;">
    <g transform="matrix(1,0,0,1,-142.861,-630.605)">
        <g transform="matrix(-1,0,0,1,941.901,546.333)">
            <g transform="matrix(0.500843,0,0,0.500843,709.885,87.0927)">
                <path d="M0,3.743C1.899,3.176 15.486,-9.57 31.118,-4.401C33.484,-3.621 39.521,-1.689 45.107,-2.834C39.77,0.598 29.103,-0.914 23.774,-0.715C14.785,-0.373 7.73,7.37 5.253,8.26C5.253,8.26 10.044,6.029 8.857,8.396C8.095,9.925 7.459,11.108 6.648,11.026C4.034,10.747 3.349,11.973 -0.089,12.804C-2.186,13.313 -7.36,12.936 -11.148,10.982C-9.638,10.217 -9.645,9.094 -7.869,8.847C-21.507,1.87 -21.34,1.955 -27.256,2.909C-30.879,3.491 -36.116,1.87 -37.847,0.73C-31.062,1.575 -28.268,-0.304 -24.116,-1.646C-12.84,-5.289 -7.594,2.858 -4.28,3.833C-2.77,4.277 -1.363,4.147 0,3.743" style="fill:rgb(120,179,224);fill-rule:nonzero;"/>
            </g>
            <g transform="matrix(0.500843,0,0,0.500843,788.209,139.171)">
                <path d="M0,2.139C-1.085,1.815 -8.85,-5.468 -17.781,-2.514C-19.132,-2.067 -22.579,-0.964 -25.775,-1.618C-22.724,0.344 -16.629,-0.522 -13.584,-0.407C-8.45,-0.213 -4.418,4.212 -3.001,4.72C-3.001,4.72 -5.738,3.444 -5.06,4.799C-4.624,5.671 -4.261,6.349 -3.801,6.3C-2.305,6.143 -1.913,6.841 0.05,7.317C1.248,7.607 4.206,7.392 6.369,6.276C5.506,5.838 5.51,5.196 4.497,5.056C12.29,1.07 12.193,1.118 15.572,1.662C17.644,1.995 20.637,1.069 21.625,0.416C17.75,0.9 16.151,-0.174 13.779,-0.94C7.337,-3.022 4.339,1.633 2.445,2.191C1.582,2.445 0.779,2.371 0,2.139" style="fill:rgb(120,179,224);fill-rule:nonzero;"/>
            </g>
        </g>
    </g>
</svg>
