<?xml version="1.0" encoding="UTF-8" standalone="no"?>
<!DOCTYPE svg PUBLIC "-//W3C//DTD SVG 1.1//EN" "http://www.w3.org/Graphics/SVG/1.1/DTD/svg11.dtd">
<svg width="100%" height="100%" viewBox="0 0 45 42" version="1.1" xmlns="http://www.w3.org/2000/svg" xmlns:xlink="http://www.w3.org/1999/xlink" xml:space="preserve" xmlns:serif="http://www.serif.com/" style="fill-rule:evenodd;clip-rule:evenodd;stroke-linejoin:round;stroke-miterlimit:2;">
    <g transform="matrix(1,0,0,1,-414.814,-1691.62)">
        <g transform="matrix(0.416665,0,0,0.416665,414.814,1682.27)">
            <g transform="matrix(1,0,0,1,87.4144,74.2217)">
                <path d="M0,-4.509C0,3.854 -8.035,10.056 -18.991,10.056L-47.841,10.056C-58.797,10.056 -66.83,3.854 -66.83,-4.509L-66.83,-23.567C-66.83,-25.987 -64.868,-27.949 -62.447,-27.949L-4.382,-27.949C-1.962,-27.949 0,-25.987 0,-23.567L0,-4.509ZM-16.425,25.539C-18.823,25.539 -19.417,24.202 -19.417,23.3L-19.417,21.826C-19.417,20.136 -18.588,19.086 -16.904,18.589C-14.816,17.973 -9.864,16.601 -6.188,15.748C-2.42,14.873 -1.173,15.983 -1.173,18.041L-1.173,22.422C-1.173,22.422 -0.975,25.539 -4.795,25.539L-16.425,25.539ZM-47.414,23.3C-47.414,24.202 -48.007,25.539 -50.404,25.539L-62.034,25.539C-65.854,25.539 -65.657,22.422 -65.657,22.422L-65.657,18.041C-65.657,15.983 -64.409,14.873 -60.642,15.748C-56.965,16.601 -52.014,17.973 -49.926,18.589C-48.241,19.086 -47.414,20.136 -47.414,21.826L-47.414,23.3ZM-56.112,-41.783C-56.112,-42.836 -55.265,-43.686 -54.213,-43.698C-54.208,-43.698 -54.203,-43.7 -54.197,-43.7L-12.632,-43.7C-12.626,-43.7 -12.622,-43.698 -12.617,-43.698C-11.566,-43.686 -10.718,-42.836 -10.718,-41.783L-10.718,-37.72C-10.718,-36.667 -11.566,-35.818 -12.617,-35.806C-12.622,-35.806 -12.626,-35.803 -12.632,-35.803L-54.197,-35.803C-54.203,-35.803 -54.208,-35.806 -54.213,-35.806C-55.265,-35.818 -56.112,-36.667 -56.112,-37.72L-56.112,-41.783ZM20.457,-13.906C20.31,-17.096 20.062,-23.055 19.963,-24.936C19.866,-26.707 18.707,-27.985 15.466,-27.985L5.97,-27.985L5.97,-39.929C5.97,-44.696 2.978,-48.455 -1.598,-49.866C-6.175,-51.275 -26.067,-51.801 -32.05,-51.801L-34.778,-51.801C-40.765,-51.801 -60.654,-51.275 -65.231,-49.866C-69.808,-48.455 -72.799,-45.129 -72.799,-39.929L-72.799,-27.985L-82.983,-27.985C-85.503,-27.985 -86.695,-26.707 -86.792,-24.936C-86.89,-23.055 -87.138,-17.096 -87.286,-13.906C-87.418,-11.029 -87.878,-9.648 -85.602,-7.862C-84.041,-6.643 -80.949,-6.49 -79.154,-6.513C-78.391,-6.526 -77.774,-7.192 -77.774,-7.958L-77.774,-23.849L-72.799,-23.132L-72.799,32.741C-72.799,35.16 -70.838,37.123 -68.417,37.123L-66.618,37.123L-66.618,43.509C-66.618,45.597 -64.924,47.292 -62.835,47.292L-57.049,47.292C-54.958,47.292 -53.266,45.597 -53.266,43.509L-53.266,37.123L-13.565,37.123L-13.565,43.509C-13.565,45.597 -11.872,47.292 -9.78,47.292L-3.995,47.292C-1.907,47.292 -0.212,45.597 -0.212,43.509L-0.212,37.123L1.587,37.123C4.008,37.123 5.97,35.16 5.97,32.741L5.97,-23.132L10.946,-23.849L10.946,-7.958C10.946,-7.192 11.562,-6.526 12.326,-6.513C14.119,-6.49 17.211,-6.643 18.773,-7.862C21.05,-9.648 20.59,-11.029 20.457,-13.906" style="fill:white;fill-rule:nonzero;"/>
            </g>
        </g>
    </g>
</svg>
