<?xml version="1.0" encoding="UTF-8" standalone="no"?>
<!DOCTYPE svg PUBLIC "-//W3C//DTD SVG 1.1//EN" "http://www.w3.org/Graphics/SVG/1.1/DTD/svg11.dtd">
<svg width="100%" height="100%" viewBox="0 0 43 27" version="1.1" xmlns="http://www.w3.org/2000/svg" xmlns:xlink="http://www.w3.org/1999/xlink" xml:space="preserve" xmlns:serif="http://www.serif.com/" style="fill-rule:evenodd;clip-rule:evenodd;stroke-linejoin:round;stroke-miterlimit:2;">
    <g transform="matrix(1,0,0,1,-414.814,-1476.83)">
        <g transform="matrix(1,0,0,1,-1508.98,1018.23)">
            <g transform="matrix(0.465249,0,0,0.465249,1958.17,462.164)">
                <path d="M0,42.435C-2.208,42.435 -4.005,40.637 -4.005,38.427C-4.005,36.221 -2.208,34.425 0,34.425C2.208,34.425 4.003,36.221 4.003,38.427C4.003,40.637 2.208,42.435 0,42.435M-59.946,13.684C-57.951,6.247 -50.196,0 -37.536,0C-21.866,0 -15.126,13.684 -15.126,13.684L-59.946,13.684ZM-55.426,42.435C-57.634,42.435 -59.431,40.637 -59.431,38.427C-59.431,36.221 -57.634,34.425 -55.426,34.425C-53.219,34.425 -51.423,36.221 -51.423,38.427C-51.423,40.637 -53.219,42.435 -55.426,42.435M-5.265,13.674C-5.265,13.674 -14.215,-7.66 -36.759,-7.66C-76.915,-7.66 -74.123,31.103 -73.685,32.424C-73.685,37.879 -69.556,38.887 -69.556,38.887L-67.068,38.887C-66.825,45.118 -61.714,50.095 -55.426,50.095C-49.141,50.095 -44.029,45.118 -43.786,38.887L-11.642,38.887C-11.398,45.118 -6.288,50.095 0,50.095C6.285,50.095 11.397,45.118 11.64,38.887L14.366,38.887C17.012,38.887 17.99,35.682 18.322,33.657C18.322,33.657 22.396,13.674 -5.265,13.674" style="fill:white;fill-rule:nonzero;"/>
            </g>
        </g>
    </g>
</svg>
