<?xml version="1.0" encoding="UTF-8" standalone="no"?>
<!DOCTYPE svg PUBLIC "-//W3C//DTD SVG 1.1//EN" "http://www.w3.org/Graphics/SVG/1.1/DTD/svg11.dtd">
<svg width="100%" height="100%" viewBox="0 0 25 25" version="1.1" xmlns="http://www.w3.org/2000/svg" xmlns:xlink="http://www.w3.org/1999/xlink" xml:space="preserve" xmlns:serif="http://www.serif.com/" style="fill-rule:evenodd;clip-rule:evenodd;stroke-linejoin:round;stroke-miterlimit:2;">
    <g transform="matrix(1,0,0,1,-663.858,-654.345)">
        <g transform="matrix(0.136194,0,0,0.136194,663.858,654.345)">
            <g transform="matrix(1,0,0,1,167.242,91.7817)">
                <path d="M0,0C0,20.158 -7.849,39.108 -22.101,53.36C-36.353,67.612 -55.303,75.461 -75.461,75.461C-95.619,75.461 -114.569,67.612 -128.821,53.36C-143.072,39.108 -150.921,20.158 -150.921,0C-150.921,-20.158 -143.072,-39.108 -128.821,-53.36C-114.569,-67.612 -95.619,-75.46 -75.461,-75.46C-55.303,-75.46 -36.353,-67.612 -22.101,-53.36C-7.849,-39.108 0,-20.158 0,0M-10.563,-64.898C-27.898,-82.234 -50.946,-91.781 -75.461,-91.781C-99.975,-91.781 -123.022,-82.234 -140.359,-64.898C-157.695,-47.562 -167.242,-24.514 -167.242,0C-167.242,24.514 -157.695,47.562 -140.359,64.898C-123.023,82.234 -99.975,91.781 -75.461,91.781C-50.946,91.781 -27.897,82.234 -10.563,64.898C6.773,47.562 16.32,24.514 16.32,0C16.32,-24.514 6.773,-47.562 -10.563,-64.898" style="fill:rgb(236,136,66);fill-rule:nonzero;"/>
            </g>
        </g>
        <g transform="matrix(0.136194,0,0,0.136194,663.858,654.345)">
            <g transform="matrix(1,0,0,1,133.427,52.5377)">
                <path d="M0,63.163L-33.485,47.131L-33.485,-7.314C-33.485,-11.814 -37.146,-15.475 -41.646,-15.475C-46.145,-15.475 -49.806,-11.814 -49.806,-7.314L-49.806,52.244C-49.806,55.608 -47.706,58.657 -44.571,59.863L-7.021,77.843C-5.892,78.382 -4.699,78.638 -3.524,78.638C-0.486,78.638 2.434,76.931 3.828,74.013C5.765,69.966 4.047,65.099 0,63.163" style="fill:rgb(236,136,66);fill-rule:nonzero;"/>
            </g>
        </g>
    </g>
</svg>
