<?xml version="1.0" encoding="UTF-8" standalone="no"?>
<!DOCTYPE svg PUBLIC "-//W3C//DTD SVG 1.1//EN" "http://www.w3.org/Graphics/SVG/1.1/DTD/svg11.dtd">
<svg width="100%" height="100%" viewBox="0 0 38 58" version="1.1" xmlns="http://www.w3.org/2000/svg" xmlns:xlink="http://www.w3.org/1999/xlink" xml:space="preserve" xmlns:serif="http://www.serif.com/" style="fill-rule:evenodd;clip-rule:evenodd;stroke-linejoin:round;stroke-miterlimit:2;">
    <g transform="matrix(1,0,0,1,-418.314,-1917.31)">
        <g transform="matrix(1,0,0,1,-1508.98,1018.23)">
            <g transform="matrix(0.0316233,0,0,0.0316233,1927.29,899.08)">
                <g id="栝鍣-1" serif:id="栝鍣 1">
                    <g transform="matrix(1,0,0,1,306.97,437.367)">
                        <path d="M0,419.779C49.302,419.779 89.411,459.888 89.411,509.19C89.411,558.491 49.302,598.6 0,598.6C-49.302,598.6 -89.411,558.491 -89.411,509.19C-89.411,459.888 -49.302,419.779 0,419.779M-89.411,126.353C-89.411,-0.422 13.729,-103.562 140.504,-103.562L447.201,-103.562C573.977,-103.562 677.116,-0.422 677.116,126.353L677.116,223.545L-89.411,223.545L-89.411,126.353ZM187.151,-393.66L400.555,-393.66L400.555,-257.113L187.151,-257.113L187.151,-393.66ZM587.705,598.6C538.403,598.6 498.294,558.491 498.294,509.19C498.294,459.888 538.403,419.779 587.705,419.779C637.007,419.779 677.116,459.888 677.116,509.19C677.116,558.491 637.007,598.6 587.705,598.6M-25.463,832.451C-16.108,836.241 -6.555,839.64 3.19,842.597C3.19,842.597 26.427,850.103 47.44,852.818C58.032,854.523 68.787,855.732 79.678,856.434C86.9,856.9 94.18,857.148 101.518,857.148L486.188,857.148C496.573,857.148 506.845,856.652 516.996,855.734C516.996,855.734 549.236,853.324 562.838,848.413C572.899,846.081 582.785,843.285 592.484,840.076C727.631,795.372 825.422,667.855 825.422,517.913L825.422,82.12C825.422,-104.933 673.241,-257.114 486.188,-257.114L444.263,-257.114L444.263,-393.66L549.462,-393.66L549.462,-437.369L38.243,-437.369L38.243,-393.66L143.442,-393.66L143.442,-257.114L101.518,-257.114C-85.536,-257.114 -237.716,-104.933 -237.716,82.12L-237.716,517.913C-237.716,660.088 -149.786,782.082 -25.463,832.451" style="fill:white;fill-rule:nonzero;"/>
                    </g>
                    <g transform="matrix(1,0,0,1,237.009,1512.02)">
                        <path d="M0,103.002L67.542,-20.036L660.087,-20.036L727.63,103.002L0,103.002ZM674.881,-208.6C665.182,-205.391 655.296,-202.595 645.235,-200.262C631.633,-195.351 599.393,-192.941 599.393,-192.941C589.242,-192.023 578.97,-191.527 568.584,-191.527L565.946,-191.527L603.156,-123.745L124.474,-123.745L162.075,-192.241C151.184,-192.942 140.429,-194.152 129.837,-195.856C108.824,-198.572 85.587,-206.078 85.587,-206.078C75.842,-209.035 66.289,-212.435 56.934,-216.225L-237.009,319.227L-118.698,319.227L-56.931,206.71L784.561,206.71L846.328,319.227L964.638,319.227L674.881,-208.6Z" style="fill:white;fill-rule:nonzero;"/>
                    </g>
                </g>
            </g>
        </g>
    </g>
</svg>
