<?xml version="1.0" encoding="UTF-8" standalone="no"?><!DOCTYPE svg PUBLIC "-//W3C//DTD SVG 1.1//EN" "http://www.w3.org/Graphics/SVG/1.1/DTD/svg11.dtd"><svg width="100%" height="100%" viewBox="0 0 237 58" version="1.1" xmlns="http://www.w3.org/2000/svg" xmlns:xlink="http://www.w3.org/1999/xlink" xml:space="preserve" xmlns:serif="http://www.serif.com/" style="fill-rule:evenodd;clip-rule:evenodd;stroke-linejoin:round;stroke-miterlimit:2;"><path d="M129.765,0c38.237,1.645 72.693,8.717 103.284,21.134l0.246,0.083c3.783,1.479 3.865,3.453 0.246,5.92c-2.219,0.987 -4.522,1.891 -6.989,2.632c-2.303,0.658 -5.181,1.726 -8.634,3.125c-1.81,0.247 -3.651,0.082 -6.201,0.164l-4.078,-0.164l0,-0.345c-0.164,0.411 0.988,1.376 0.988,1.87c0.74,-0.082 4.028,0.284 4.851,0.284c0.164,1.397 -0.659,2.466 -2.303,3.125c-1.727,0.74 -2.879,1.151 -3.536,1.398l-14.144,4.687c-17.763,4.687 -33.141,7.976 -46.133,9.703c-31.884,4.238 -21.592,4.155 -30.426,3.618c-8.14,0.658 -25.985,-3.453 -53.698,-12.334c-1.809,0.493 -4.193,1.069 -7.153,1.809c-2.549,0.575 -5.017,1.562 -7.319,2.96c-0.575,0.329 -1.152,0.739 -1.563,1.316c-0.494,-2.139 -1.563,-4.276 -3.291,-6.415c-1.478,-2.056 -3.536,-3.453 -6.001,-4.275c-0.822,-0.247 -1.646,-0.576 -2.466,-1.069c1.807,-0.494 3.533,-1.152 5.425,-1.81c-3.946,-1.398 -8.057,-2.795 -12.336,-4.358c-1.808,0 -4.11,0.74 -6.823,2.138c-0.988,0.493 -1.892,1.152 -2.714,1.891c-0.822,-2.138 -2.385,-3.946 -4.852,-5.344c-0.492,-0.33 -1.15,-0.494 -1.725,-0.658c1.314,-0.658 2.878,-0.988 4.522,-1.152c-5.43,-1.07 -10.199,-1.563 -14.145,-1.398c-4.769,6.086 -2.626,-11.86 0.41,-11.022c1.259,0.347 2.576,0.486 3.949,0.414c5.591,-0.822 11.183,-1.727 16.776,-2.632c-1.975,-0.493 -4.03,-0.822 -6.087,-1.233c1.974,-0.74 3.372,-1.398 4.36,-1.973c0.986,-0.576 2.054,-1.317 3.125,-2.303c1.15,-0.986 2.219,-0.986 3.124,-0.082c1.891,1.809 4.03,3.043 6.333,3.701c15.869,-2.715 31.822,-5.839 48.022,-9.129l0.083,0c0.904,-0.246 0.739,-0.246 -0.083,0" style="fill:#76b07b;fill-rule:nonzero;"/></svg>