<?xml version="1.0" encoding="UTF-8" standalone="no"?><!DOCTYPE svg PUBLIC "-//W3C//DTD SVG 1.1//EN" "http://www.w3.org/Graphics/SVG/1.1/DTD/svg11.dtd"><svg width="100%" height="100%" viewBox="0 0 61 35" version="1.1" xmlns="http://www.w3.org/2000/svg" xmlns:xlink="http://www.w3.org/1999/xlink" xml:space="preserve" xmlns:serif="http://www.serif.com/" style="fill-rule:evenodd;clip-rule:evenodd;stroke-linejoin:round;stroke-miterlimit:2;"><path d="M0,32.243c1.892,-1.315 3.866,-2.878 5.757,-4.688c1.973,-1.644 3.7,-3.535 5.346,-5.427c1.725,-2.138 3.042,-4.44 3.946,-7.072c0.904,-2.549 1.315,-5.92 1.151,-9.95c-0.082,-4.029 0.247,-5.674 1.069,-4.934c5.592,2.386 9.95,6.085 13.076,11.102c4.357,7.071 10.031,12.581 16.857,16.529c1.315,0.822 2.796,1.397 4.359,1.726c38.237,1.645 -63.156,7.566 -46.956,4.276l0.083,0c0.904,-0.246 1.727,-0.411 2.549,-0.575c-0.904,0.164 -1.81,0.329 -2.632,0.575c-1.644,-0.411 -3.124,-0.905 -4.605,-1.562" style="fill:#76b07b;fill-rule:nonzero;"/></svg>