<?xml version="1.0" encoding="UTF-8" standalone="no"?><!DOCTYPE svg PUBLIC "-//W3C//DTD SVG 1.1//EN" "http://www.w3.org/Graphics/SVG/1.1/DTD/svg11.dtd"><svg width="100%" height="100%" viewBox="0 0 57 80" version="1.1" xmlns="http://www.w3.org/2000/svg" xmlns:xlink="http://www.w3.org/1999/xlink" xml:space="preserve" xmlns:serif="http://www.serif.com/" style="fill-rule:evenodd;clip-rule:evenodd;stroke-linejoin:round;stroke-miterlimit:2;"><path d="M56.125,46.626c-4.769,6.086 -10.36,12.089 -16.694,17.927c-6.413,5.838 -12.336,9.868 -17.845,12.088c-3.122,1.316 -6.083,2.138 -8.878,2.55c-1.647,-0.576 -0.741,-3.456 2.63,-8.471c3.452,-5.016 6.085,-11.842 8.059,-20.558c1.973,-8.717 -1.811,-19.489 -11.185,-32.4c-4.77,-5.837 -7.484,-9.374 -8.307,-10.526c-0.818,-1.232 -1.807,-2.466 -2.959,-3.782c-1.233,-1.398 -1.233,-2.55 -0.163,-3.454c17.103,2.878 32.975,12.746 47.695,29.521c2.173,2.988 4.668,4.971 7.463,5.902" style="fill:#76b07b;fill-rule:nonzero;"/></svg>