<?xml version="1.0" encoding="UTF-8" standalone="no"?>
<!DOCTYPE svg PUBLIC "-//W3C//DTD SVG 1.1//EN" "http://www.w3.org/Graphics/SVG/1.1/DTD/svg11.dtd">
<svg width="100%" height="100%" viewBox="0 0 17 24" version="1.1" xmlns="http://www.w3.org/2000/svg" xmlns:xlink="http://www.w3.org/1999/xlink" xml:space="preserve" xmlns:serif="http://www.serif.com/" style="fill-rule:evenodd;clip-rule:evenodd;stroke-linejoin:round;stroke-miterlimit:2;">
    <g transform="matrix(1,0,0,1,-503,-459.809)">
        <g transform="matrix(1,0,0,1,173.788,-52.9682)">
            <g transform="matrix(0.325546,0,0,0.325546,397.097,512.778)">
                <g>
                    <g id="Icons">
                        <g transform="matrix(1,0,0,1,-182.418,66.938)">
                            <path d="M0,-60.938C11.089,-60.938 20.11,-51.917 20.11,-40.827C20.11,-37.749 19.434,-34.796 18.099,-32.051C15.344,-26.38 4.746,-11.117 0.013,-4.39C-4.629,-11.051 -14.997,-26.085 -17.843,-31.54C-19.326,-34.38 -20.11,-37.592 -20.11,-40.827C-20.11,-51.917 -11.089,-60.938 0,-60.938M0,-66.938C-14.397,-66.938 -26.11,-55.225 -26.11,-40.827C-26.11,-36.63 -25.091,-32.459 -23.162,-28.763C-19.356,-21.469 -4.17,0.114 -2.451,2.551L-0.016,6L2.441,2.565C4.203,0.1 19.763,-21.747 23.497,-29.428C25.231,-32.999 26.11,-36.834 26.11,-40.827C26.11,-55.225 14.397,-66.938 0,-66.938" style="fill:rgb(19,191,215);fill-rule:nonzero;"/>
                        </g>
                        <g transform="matrix(1,0,0,1,-182.418,32.5278)">
                            <path d="M0,-12.835C3.539,-12.835 6.418,-9.956 6.418,-6.417C6.418,-2.878 3.539,0 0,0C-3.539,0 -6.418,-2.878 -6.418,-6.417C-6.418,-9.956 -3.539,-12.835 0,-12.835M0,6C6.848,6 12.418,0.43 12.418,-6.417C12.418,-13.264 6.848,-18.835 0,-18.835C-6.848,-18.835 -12.418,-13.264 -12.418,-6.417C-12.418,0.43 -6.848,6 0,6" style="fill:rgb(19,191,215);fill-rule:nonzero;"/>
                        </g>
                    </g>
                </g>
            </g>
        </g>
    </g>
</svg>
