<?xml version="1.0" encoding="UTF-8" standalone="no"?>
<!DOCTYPE svg PUBLIC "-//W3C//DTD SVG 1.1//EN" "http://www.w3.org/Graphics/SVG/1.1/DTD/svg11.dtd">
<svg width="100%" height="100%" viewBox="0 0 21 22" version="1.1" xmlns="http://www.w3.org/2000/svg" xmlns:xlink="http://www.w3.org/1999/xlink" xml:space="preserve" xmlns:serif="http://www.serif.com/" style="fill-rule:evenodd;clip-rule:evenodd;stroke-linejoin:round;stroke-miterlimit:2;">
    <g transform="matrix(1,0,0,1,-501,-497.657)">
        <g transform="matrix(1,0,0,1,173.788,-52.9682)">
            <g transform="matrix(0.290533,0,0,0.290533,341.513,553.446)">
                <path d="M0,52.864C2.083,49.717 3.85,46.028 5.16,42.057L11.903,42.057C9.033,46.63 4.933,50.408 0,52.864M-9.767,35.425L-9.767,17.438L0.04,17.438C0.713,20.413 1.054,23.433 1.054,26.431C1.054,29.456 0.745,32.475 0.134,35.425L-9.767,35.425ZM4.999,10.805C3.616,6.81 1.723,3.002 -0.461,-0.23C4.611,2.183 8.932,6.013 11.938,10.805L4.999,10.805ZM-9.767,10.805L-9.767,-1.035C-7.201,1.343 -4.207,5.573 -2.057,10.805L-9.767,10.805ZM-1.807,42.057C-3.978,47.711 -7.069,52.01 -9.767,54.252L-9.767,42.057L-1.807,42.057ZM6.855,35.425C7.407,32.437 7.686,29.42 7.686,26.431C7.686,23.469 7.385,20.453 6.791,17.438L15.021,17.438C15.954,20.341 16.426,23.361 16.426,26.431C16.426,30.78 15.454,34.971 13.693,38.763L13.693,35.425L6.855,35.425ZM-16.398,-1.035L-16.398,10.805L-24.108,10.805C-21.958,5.573 -18.964,1.343 -16.398,-1.035M-16.398,17.438L-16.398,35.425L-26.299,35.425C-26.91,32.475 -27.219,29.456 -27.219,26.431C-27.219,23.433 -26.878,20.413 -26.205,17.438L-16.398,17.438ZM-31.325,42.057C-30.016,46.026 -28.25,49.712 -26.168,52.859C-31.039,50.433 -35.192,46.688 -38.102,42.057L-31.325,42.057ZM-38.094,10.805C-35.134,6.078 -30.855,2.205 -25.697,-0.24C-27.884,2.993 -29.78,6.806 -31.164,10.805L-38.094,10.805ZM-33.02,35.425L-41.187,35.425C-42.119,32.522 -42.591,29.502 -42.591,26.431C-42.591,22.124 -41.649,17.982 -39.938,14.232L-39.938,17.438L-32.956,17.438C-33.55,20.453 -33.851,23.469 -33.851,26.431C-33.851,29.42 -33.572,32.437 -33.02,35.425M-16.398,42.057L-16.398,54.252C-19.096,52.01 -22.187,47.711 -24.358,42.057L-16.398,42.057ZM-9.767,-9.551L-9.767,-9.709L-14.498,-9.706L-16.398,-9.558L-16.398,-9.551C-34.917,-7.87 -49.223,7.668 -49.223,26.431C-49.223,46.36 -33.011,62.573 -13.083,62.573C6.846,62.573 23.058,46.36 23.058,26.431C23.058,7.668 8.752,-7.87 -9.767,-9.551" style="fill:rgb(19,191,215);fill-rule:nonzero;"/>
            </g>
        </g>
    </g>
</svg>
