<?xml version="1.0" encoding="UTF-8" standalone="no"?>
<!DOCTYPE svg PUBLIC "-//W3C//DTD SVG 1.1//EN" "http://www.w3.org/Graphics/SVG/1.1/DTD/svg11.dtd">
<svg width="100%" height="100%" viewBox="0 0 23 25" version="1.1" xmlns="http://www.w3.org/2000/svg" xmlns:xlink="http://www.w3.org/1999/xlink" xml:space="preserve" xmlns:serif="http://www.serif.com/" style="fill-rule:evenodd;clip-rule:evenodd;stroke-linejoin:round;stroke-miterlimit:2;">
    <g transform="matrix(1,0,0,1,-500,-420.455)">
        <g transform="matrix(1,0,0,1,173.788,-52.9682)">
            <g transform="matrix(0.0255458,0,0,0.0255458,329.707,495.356)">
                <g id="分離模式">
                    <path d="M0,-745.628C0,-749.409 3.077,-752.486 6.86,-752.486L587.027,-752.486L690.332,-659.507L587.022,-566.517L6.86,-566.517C3.077,-566.517 0,-569.593 0,-573.374L0,-745.628ZM631.753,-245.949C631.753,-242.168 628.678,-239.091 624.898,-239.091L39.672,-239.091L-63.636,-332.078L39.669,-425.051L624.898,-425.051C628.678,-425.051 631.753,-421.978 631.753,-418.201L631.753,-245.949ZM752.481,-684.263L618.595,-804.766C613.076,-809.731 605.952,-812.465 598.534,-812.465L322.804,-812.465L322.804,-828.585C322.804,-845.121 309.35,-858.575 292.812,-858.575C276.277,-858.575 262.824,-845.121 262.824,-828.585L262.824,-812.465L6.86,-812.465C-29.994,-812.465 -59.977,-782.482 -59.977,-745.628L-59.977,-573.374C-59.977,-536.52 -29.994,-505.538 6.86,-505.538L262.824,-504.538L262.824,-485.031L28.164,-485.031C20.742,-485.031 13.617,-482.297 8.102,-477.333L-125.751,-356.868C-132.795,-350.56 -136.831,-341.514 -136.824,-332.051C-136.815,-322.593 -132.788,-313.576 -125.804,-307.339L8.101,-186.81C13.618,-181.845 20.743,-179.111 28.164,-179.111L262.824,-179.111L262.824,82.956C262.824,99.493 276.277,112.947 292.812,112.947C309.35,112.947 322.804,99.493 322.804,82.956L322.804,-179.111L624.898,-179.111C661.75,-179.111 691.73,-209.094 691.73,-245.949L691.73,-418.201C691.73,-455.051 661.75,-485.031 624.898,-485.031L322.804,-485.031L322.804,-506.538L598.534,-505.538C605.955,-505.538 613.08,-509.273 618.596,-514.238L752.468,-634.738C759.504,-641.053 763.532,-650.097 763.521,-659.555C763.508,-669.002 759.483,-678.007 752.481,-684.263" style="fill:rgb(19,191,215);fill-rule:nonzero;"/>
                </g>
            </g>
        </g>
    </g>
</svg>
