<?xml version="1.0" encoding="UTF-8" standalone="no"?>
<!DOCTYPE svg PUBLIC "-//W3C//DTD SVG 1.1//EN" "http://www.w3.org/Graphics/SVG/1.1/DTD/svg11.dtd">
<svg width="100%" height="100%" viewBox="0 0 21 22" version="1.1" xmlns="http://www.w3.org/2000/svg" xmlns:xlink="http://www.w3.org/1999/xlink" xml:space="preserve" xmlns:serif="http://www.serif.com/" style="fill-rule:evenodd;clip-rule:evenodd;stroke-linejoin:round;stroke-miterlimit:2;">
    <g transform="matrix(1,0,0,1,-1040,-420)">
        <g transform="matrix(1,0,0,1,712.788,-52.9682)">
            <g transform="matrix(0.347401,0,0,0.347401,334.307,488.418)">
                <path d="M0,-29.591L-6.946,-23.447C-7.877,-22.624 -8.06,-21.223 -7.371,-20.189C-4.893,-16.468 -0.852,-11.654 3.175,-7.626L3.214,-7.588C7.231,-3.575 12.028,0.449 15.741,2.922C16.776,3.613 18.177,3.43 18.999,2.498L25.095,-4.398C25.375,-4.651 26.051,-4.244 26.38,-3.986L33.893,1.673C34.96,2.742 35.36,3.142 34.737,4.922L34.737,4.923C34.023,6.967 30.403,10.976 25.249,10.976C19.468,10.976 9.061,4.652 -0.058,-4.401L-0.172,-4.508C-0.206,-4.546 -0.24,-4.583 -0.274,-4.617C-9.35,-13.759 -15.438,-23.847 -15.424,-29.721C-15.424,-34.851 -11.415,-38.471 -9.37,-39.185C-8.791,-39.388 -8.357,-39.482 -8.001,-39.482C-7.264,-39.482 -6.857,-39.077 -6.168,-38.393L-0.46,-30.827C0.268,-29.864 0.112,-29.707 0,-29.591M37.33,-1.962C37.248,-2.043 37.162,-2.117 37.072,-2.186L29.431,-7.947C26.796,-10.019 23.625,-10.005 21.542,-7.917C21.506,-7.881 21.471,-7.843 21.44,-7.807L16.734,-2.488C13.548,-4.827 9.832,-8.041 6.711,-11.161C3.59,-14.283 0.376,-17.999 -1.96,-21.182L3.36,-25.887L3.47,-25.99C4.271,-26.79 6.643,-29.72 3.531,-33.839L-2.259,-41.514C-2.329,-41.608 -2.407,-41.697 -2.49,-41.779C-3.905,-43.196 -6.275,-45.567 -11.02,-43.905C-14.812,-42.581 -20.424,-37.158 -20.424,-29.727C-20.441,-22.522 -13.941,-11.3 -3.886,-1.159C-3.842,-1.109 -3.795,-1.061 -3.752,-1.019L-3.592,-0.856C-3.547,-0.811 -3.5,-0.768 -3.481,-0.754C6.787,9.409 18.062,15.976 25.271,15.976L25.273,15.976C32.708,15.976 38.132,10.365 39.457,6.573C41.117,1.827 38.748,-0.543 37.33,-1.962" style="fill:rgb(19,191,215);fill-rule:nonzero;"/>
            </g>
        </g>
    </g>
</svg>
