<?xml version="1.0" encoding="UTF-8" standalone="no"?>
<!DOCTYPE svg PUBLIC "-//W3C//DTD SVG 1.1//EN" "http://www.w3.org/Graphics/SVG/1.1/DTD/svg11.dtd">
<svg width="100%" height="100%" viewBox="0 0 21 20" version="1.1" xmlns="http://www.w3.org/2000/svg" xmlns:xlink="http://www.w3.org/1999/xlink" xml:space="preserve" xmlns:serif="http://www.serif.com/" style="fill-rule:evenodd;clip-rule:evenodd;stroke-linejoin:round;stroke-miterlimit:2;">
    <g transform="matrix(1,0,0,1,-1040,-460)">
        <g transform="matrix(1,0,0,1,712.788,-52.9682)">
            <g transform="matrix(0.0642896,0,0,0.0642896,396.25,512.968)">
                <g>
                    <g id="Layer-1" serif:id="Layer 1">
                        <g transform="matrix(0,-1,-1,0,-910.538,123.53)">
                            <path d="M-13.323,-13.323C-5.977,-13.323 0.001,-7.346 0.001,0C0.001,7.348 -5.977,13.323 -13.323,13.323C-20.67,13.323 -26.647,7.348 -26.647,0C-26.647,-7.346 -20.67,-13.323 -13.323,-13.323" style="fill:rgb(19,191,215);fill-rule:nonzero;"/>
                        </g>
                        <g transform="matrix(-1,0,0,1,-910.539,150.176)">
                            <path d="M-0.001,-26.647C7.346,-26.647 13.323,-20.67 13.323,-13.323C13.323,-5.977 7.346,0 -0.001,0C-7.348,0 -13.324,-5.977 -13.324,-13.323C-13.324,-20.67 -7.348,-26.647 -0.001,-26.647" style="fill:rgb(19,191,215);fill-rule:nonzero;"/>
                        </g>
                        <g transform="matrix(-1,0,0,1,-910.538,150.176)">
                            <path d="M0.001,-26.647C7.348,-26.647 13.324,-20.67 13.324,-13.323C13.324,-5.977 7.348,0 0.001,0C-7.346,0 -13.323,-5.977 -13.323,-13.323C-13.323,-20.67 -7.346,-26.647 0.001,-26.647" style="fill:rgb(19,191,215);fill-rule:nonzero;"/>
                        </g>
                        <g transform="matrix(1,0,0,1,-1020.92,132.529)">
                            <path d="M0,43.942L0,79.236L-26.294,79.236L-26.294,-17.646L247.059,-17.646L247.059,79.236L220.765,79.236L220.765,43.942L0,43.942ZM26.647,-105.882L194.118,-105.882L194.118,-44.294L26.647,-44.294L26.647,-105.882ZM194.118,149.824L26.647,149.824L26.647,70.589L194.118,70.589L194.118,149.824ZM248.03,-44.293L220.765,-44.293L220.765,-106.852C220.765,-121.01 209.247,-132.529 195.088,-132.529L25.676,-132.529C11.519,-132.529 0,-121.01 0,-106.852L0,-44.293L-27.265,-44.293C-41.423,-44.293 -52.941,-32.775 -52.941,-18.617L-52.941,80.207C-52.941,94.365 -41.423,105.883 -27.265,105.883L0,105.883L0,150.795C0,164.953 11.519,176.471 25.676,176.471L195.088,176.471C209.247,176.471 220.765,164.953 220.765,150.795L220.765,105.883L248.03,105.883C262.187,105.883 273.706,94.365 273.706,80.207L273.706,-18.617C273.706,-32.775 262.187,-44.293 248.03,-44.293" style="fill:rgb(19,191,215);fill-rule:nonzero;"/>
                        </g>
                        <g transform="matrix(-1,0,0,1,-747.214,211.765)">
                            <rect x="88.236" y="35.294" width="150.176" height="26.647" style="fill:rgb(19,191,215);"/>
                        </g>
                        <g transform="matrix(-1,0,0,1,-747.214,141.177)">
                            <rect x="88.236" y="70.588" width="150.176" height="26.647" style="fill:rgb(19,191,215);"/>
                        </g>
                    </g>
                </g>
            </g>
        </g>
    </g>
</svg>
