<?xml version="1.0" encoding="UTF-8" standalone="no"?>
<!DOCTYPE svg PUBLIC "-//W3C//DTD SVG 1.1//EN" "http://www.w3.org/Graphics/SVG/1.1/DTD/svg11.dtd">
<svg width="100%" height="100%" viewBox="0 0 25 25" version="1.1" xmlns="http://www.w3.org/2000/svg" xmlns:xlink="http://www.w3.org/1999/xlink" xml:space="preserve" xmlns:serif="http://www.serif.com/" style="fill-rule:evenodd;clip-rule:evenodd;stroke-linejoin:round;stroke-miterlimit:2;">
    <g transform="matrix(1,0,0,1,-1570.5,-698.836)">
        <g transform="matrix(1,0,0,1,7,-531.667)">
            <g transform="matrix(0.609575,0.609575,-0.609575,0.609575,1329.55,-434.98)">
                <circle cx="1578.5" cy="1174.21" r="14.5" style="fill:rgb(191,191,191);"/>
            </g>
        </g>
        <g transform="matrix(1,0,0,1,7,-531.667)">
            <g transform="matrix(0.456198,0.456198,-0.565685,0.565685,1483.46,-178.66)">
                <path d="M1667.33,1174.79C1667.33,1174.1 1666.64,1173.54 1665.78,1173.54L1653.38,1173.54C1652.53,1173.54 1651.83,1174.1 1651.83,1174.79C1651.83,1175.48 1652.53,1176.04 1653.38,1176.04L1665.78,1176.04C1666.64,1176.04 1667.33,1175.48 1667.33,1174.79Z" style="fill:white;"/>
            </g>
        </g>
        <g transform="matrix(1,0,0,1,7,-531.667)">
            <g transform="matrix(-0.456198,0.456198,-0.565685,-0.565685,2997.66,1150.47)">
                <path d="M1667.33,1174.79C1667.33,1174.1 1666.64,1173.54 1665.78,1173.54L1653.38,1173.54C1652.53,1173.54 1651.83,1174.1 1651.83,1174.79C1651.83,1175.48 1652.53,1176.04 1653.38,1176.04L1665.78,1176.04C1666.64,1176.04 1667.33,1175.48 1667.33,1174.79Z" style="fill:white;"/>
            </g>
        </g>
    </g>
</svg>
