<?xml version="1.0" encoding="UTF-8" standalone="no"?>
<!DOCTYPE svg PUBLIC "-//W3C//DTD SVG 1.1//EN" "http://www.w3.org/Graphics/SVG/1.1/DTD/svg11.dtd">
<svg width="100%" height="100%" viewBox="0 0 18 23" version="1.1" xmlns="http://www.w3.org/2000/svg" xmlns:xlink="http://www.w3.org/1999/xlink" xml:space="preserve" xmlns:serif="http://www.serif.com/" style="fill-rule:evenodd;clip-rule:evenodd;stroke-linejoin:round;stroke-miterlimit:2;">
    <g transform="matrix(1,0,0,1,-1572.23,-770.628)">
        <g transform="matrix(1,0,0,1,-1,-522.667)">
            <g transform="matrix(1,0,0,1,0,62.7702)">
                <g transform="matrix(0.0684067,0,0,0.0684067,1577.94,1237.77)">
                    <path d="M0,165.256C0.213,169.845 3.733,173.44 8.014,173.44C8.12,173.44 8.227,173.438 8.323,173.433L16.258,173.11C18.45,173.02 20.537,171.956 21.982,170.192C23.367,168.5 24.073,166.327 23.969,164.074L16.359,-0.002C16.146,-4.591 12.628,-8.184 8.349,-8.184C8.244,-8.184 8.14,-8.182 8.036,-8.179L0.102,-7.854C-2.091,-7.765 -4.178,-6.702 -5.623,-4.937C-7.008,-3.246 -7.714,-1.073 -7.609,1.18L0,165.256Z" style="fill:rgb(27,26,35);fill-rule:nonzero;"/>
                </g>
                <g transform="matrix(0.0684067,0,0,0.0684067,1585.49,1237.22)">
                    <path d="M0,181.139L7.938,181.41C8.025,181.413 8.11,181.414 8.195,181.414C12.512,181.414 16.033,177.789 16.213,173.161L22.573,9.115C22.66,6.864 21.939,4.7 20.545,3.022C19.09,1.27 16.998,0.223 14.809,0.149L6.87,-0.123C2.44,-0.275 -1.221,3.408 -1.404,8.126L-7.764,172.173C-7.851,174.424 -7.131,176.588 -5.736,178.266C-4.281,180.017 -2.19,181.065 0,181.139" style="fill:rgb(27,26,35);fill-rule:nonzero;"/>
                </g>
                <g transform="matrix(0.0684067,0,0,0.0684067,1581.96,1237.22)">
                    <path d="M0,181.271L7.942,181.271C12.368,181.271 15.969,177.408 15.969,172.659L15.969,8.612C15.969,3.864 12.368,0 7.942,0L0,0C-4.426,0 -8.026,3.864 -8.026,8.612L-8.026,172.659C-8.026,177.408 -4.426,181.271 0,181.271" style="fill:rgb(27,26,35);fill-rule:nonzero;"/>
                </g>
                <g transform="matrix(0.0684067,0,0,0.0684067,1574.78,1249.53)">
                    <path d="M0,-232.26C0.233,-236.119 0.684,-241.428 1.083,-242.839C1.165,-243.067 1.245,-243.278 1.323,-243.472L216.506,-243.472C216.584,-243.278 216.664,-243.067 216.746,-242.839C217.146,-241.428 217.596,-236.118 217.828,-232.26L0,-232.26ZM197.707,23.94L21.707,23.94L10.315,-209.766L207.579,-209.766L197.707,23.94ZM237.004,-248.406C235.589,-252.926 233.889,-256.609 231.951,-259.353C228.091,-264.819 223.722,-265.966 220.735,-265.966L152.54,-265.966L152.54,-267.807C152.54,-278.694 143.682,-277.864 132.795,-277.864L85.034,-277.864C74.146,-277.864 65.289,-278.694 65.289,-267.807L65.289,-265.966L-2.906,-265.966C-5.893,-265.966 -10.263,-264.819 -14.122,-259.353C-16.06,-256.609 -17.76,-252.926 -19.175,-248.406C-21.434,-241.192 -22.652,-232.787 -22.652,-228.542L-22.652,-216.021C-22.652,-212.567 -19.852,-209.766 -16.396,-209.766L-12.205,-209.766L-0.664,27.017C-0.487,37.736 8.342,46.434 19.078,46.434L200.349,46.434C211.106,46.434 219.938,37.716 220.093,26.974L230.093,-209.766L234.226,-209.766C237.68,-209.766 240.48,-212.567 240.48,-216.021L240.48,-228.542C240.48,-232.787 239.262,-241.193 237.004,-248.406" style="fill:rgb(27,26,35);fill-rule:nonzero;"/>
                </g>
            </g>
        </g>
    </g>
</svg>
