<?xml version="1.0" encoding="UTF-8" standalone="no"?><!DOCTYPE svg PUBLIC "-//W3C//DTD SVG 1.1//EN" "http://www.w3.org/Graphics/SVG/1.1/DTD/svg11.dtd"><svg width="100%" height="100%" viewBox="0 0 387 224" version="1.1" xmlns="http://www.w3.org/2000/svg" xmlns:xlink="http://www.w3.org/1999/xlink" xml:space="preserve" xmlns:serif="http://www.serif.com/" style="fill-rule:evenodd;clip-rule:evenodd;stroke-linejoin:round;stroke-miterlimit:2;"><path d="M322.118,198.944c-1.969,0.2 -5.068,0.845 -6.668,2.528c1.256,-0.097 2.772,0.185 3.985,0.101c-0.046,0.029 -1.982,0.428 -4.559,1.037c0.138,-1.101 0.241,-2.206 0.277,-3.309c0.201,-0.872 0.387,-1.774 0.566,-2.706c0.246,0.637 0.487,1.273 0.666,1.9c0.355,-3.565 0.574,-7.377 1.026,-11.006c0.403,0.789 0.693,1.569 1.033,2.376c-0.412,-1.839 -0.359,-3.891 -0.534,-5.845c0.436,2.036 1.221,4.489 2.724,6.657c-0.044,-0.287 -0.084,-0.915 -0.084,-1.486c0.486,1.429 0.212,3.928 2.097,8.31c-0.1,0.517 -0.284,1.002 -0.529,1.443m62.981,-118.386c0.4,0.125 0.85,0.344 1.123,0.496c-0.099,-4.185 -3.119,-6.901 -4.067,-8.432c2.385,2.807 1.51,1.48 3.747,3.444c-2.249,-5.204 -2.947,-7.791 -7.527,-10.072c1.173,0.426 2.344,0.826 3.523,1.193c-2.722,-6.366 -8.316,-8.857 -12.93,-10.054c-0.611,-0.761 -1.207,-1.519 -1.724,-2.27c0.657,0.242 1.355,0.486 2.028,0.728c-1.244,-1.729 -2.741,-3.615 -3.714,-5.369c0.77,0.143 1.614,0.241 2.371,0.413c-2.186,-1.898 -4.827,-3.397 -7.268,-4.954c1.556,0.712 1.254,-0.287 2.855,0.541c-2.128,-1.985 -6.669,-4.283 -7.469,-5.168c0.43,0.042 0.845,0.085 1.273,0.098c-0.674,-2.325 -2.115,-4.125 -3.915,-5.58c-0.099,-0.086 -0.2,-0.159 -0.299,-0.244c-1.271,-0.987 -2.697,-1.813 -4.155,-2.557c-1.371,-2.499 -4.384,-3.884 -7.039,-4.94c0.6,-0.044 1.027,0.1 1.627,0.171c-1.543,-1.428 -3.827,-2.412 -5.912,-3.271c1.043,0.045 2.285,-0.243 3.242,-0.243c-2.955,-1.813 -6.726,-2.454 -10.152,-2.885c1.599,-0.099 1.77,-0.341 3.413,-0.484c-7.727,-5.67 -15.965,-5.328 -19.122,-5.954c1.156,-0.202 2.599,-0.772 3.872,-0.944c-3.387,-0.727 -7.028,-0.499 -10.54,-0.47c1.628,-0.557 3.126,-1.741 4.655,-2.373c-3.027,0.089 -9.954,1.559 -10.554,1.489c0.814,-0.443 1.714,-0.857 2.743,-1.086c-3.242,-0.387 -11.024,0.682 -11.524,0.682c0.657,-0.37 1.328,-0.741 2.027,-1.097c-5.782,-1.058 -15.765,2.787 -16.522,2.9c0.3,-0.414 0.616,-0.829 0.957,-1.201c-1.528,0.585 -3.368,0.914 -4.87,1.615c0.757,-0.459 1.529,-0.958 2.314,-1.401c-3.156,0.515 -6.082,1.858 -9.224,2.37c0.414,-0.5 0.915,-1.327 1.455,-1.898c-2.668,0.642 -5.339,1.501 -7.795,2.77c2.342,-2.571 1.226,-2.642 4.412,-3.969c-7.025,-0.741 -19.664,5.44 -20.449,5.481c0.259,-0.554 0.543,-1.112 0.914,-1.611c-0.954,0.514 -2.613,0.798 -3.756,1.555c0.414,-0.584 0.814,-1.798 1.143,-2.328c-1.656,0.742 -3.827,1.086 -5.483,1.886c0.314,-0.328 0.77,-0.715 1.056,-1.099c-1.512,0.7 -8.624,1.885 -10.426,1.828c0.287,-0.157 0.587,-0.287 0.875,-0.458c-3.687,-1.645 -8.199,-1.1 -12.211,-0.513c0.243,-0.302 0.743,-0.457 0.957,-0.772c-1.957,-0.159 -4.069,-0.315 -6.084,-0.143c0.229,-0.285 0.985,-0.815 1.144,-0.984c-2.871,-0.545 -9.241,-0.273 -9.526,-0.344c2.37,-1.171 1.471,-1.471 3.784,-2.743c-5.154,-0.598 -11.837,0.102 -12.037,0.015c0.742,-0.699 1.498,-1.642 2.585,-2.156c-3.197,-0.799 -6.684,-0.943 -10.011,-1.185c0.927,-0.343 1.914,-1.113 2.597,-1.429c-2.84,-0.996 -5.98,-0.983 -9.008,-0.996c-0.016,0 -0.03,-0.015 -0.045,-0.015c0.501,-0.274 1.229,-0.658 1.816,-0.957c-1.757,-0.53 -5.741,-0.329 -5.856,-0.358c0.272,-0.114 0.543,-0.227 0.729,-0.286c-1.686,-0.585 -8.584,-1.443 -10.351,-1.642c0.485,-0.259 0.955,-0.5 1.439,-0.743c-2.013,-0.599 -4.268,-0.672 -6.522,-0.427c0.397,-0.357 0.795,-0.744 1.197,-1.101c-1.971,0.613 -4.728,-0.615 -8.197,1.071c0.586,-0.771 1.199,-1.584 1.685,-2.098c-3.254,0.299 -9.339,4.025 -9.511,4.071c1.029,-1.258 2.028,-2.544 3.215,-3.714c-3.544,0.811 -6.926,2.597 -9.741,4.955c0.686,-0.743 1.429,-1.443 2.214,-2.07c-6.081,-0.329 -12.15,5.582 -16.878,8.912c-0.071,0 -0.128,-0.929 -0.186,-1.389c-1.157,1.143 -3.471,1.972 -4.54,2.943c0.158,-0.771 0.027,-1.784 0.186,-2.585c-1.686,1.013 -3.571,2.213 -5.213,3.328c0.27,-0.543 0.584,-1.187 0.871,-1.772c-2.642,1.173 -4.941,2.943 -7.182,4.528c-1.755,-2.943 -3.566,-3.9 -3.736,-3.928c0.256,-0.172 -4.732,1.172 -4.488,0.987c-1.731,-0.472 -2.38,-1.435 -2.666,-1.493c0.398,-0.472 0.797,-1.001 1.155,-1.4c-2.412,-0.4 -5.1,-0.141 -7.595,0.015c0.556,-0.33 1.283,-0.844 1.755,-1.13c-2.129,-0.098 -4.555,-0.098 -6.568,-0.196c0.541,-0.405 1.257,-0.929 1.696,-1.273c-1.54,-0.058 -3.682,-0.7 -5.265,-0.458c0.47,-0.286 1.312,-0.886 1.897,-1.227c-1.321,0.171 -3.754,0.11 -5.169,0.457c0.386,-0.314 0.915,-0.572 1.313,-0.872c-1.384,0.141 -3.176,-0.345 -4.567,-0.214c0.002,-0.025 0.003,-0.05 0.004,-0.074c0.665,-0.5 1.294,-1.204 1.908,-1.655c-0.622,0.064 -1.238,0.164 -1.851,0.286c0.003,-0.188 0.008,-0.376 0.011,-0.566c-0.383,0.231 -0.746,0.485 -1.133,0.708c0.004,-0.12 0.119,-0.559 -0.235,-0.431c-0.069,-0.259 0.276,-0.618 0.139,-0.861c-0.82,-0.212 -0.454,-0.2 -0.594,-0.722c-0.498,-0.006 -0.978,0.032 -1.477,0.105c-0.041,-0.027 -0.086,-0.045 -0.13,-0.069c0.435,-0.339 0.87,-0.886 1.487,-1.153c-1.31,-0.413 -8.233,1.826 -9.308,2.389c-0.049,-0.007 -0.096,-0.014 -0.144,-0.022c0.225,-0.306 0.45,-0.612 0.67,-0.927c-0.647,0.095 -1.198,0.433 -1.793,0.704c-0.008,-0.049 0.695,-0.815 0.452,-0.846c-0.772,0.263 -1.622,0.506 -2.42,0.886c0.018,-0.177 0.575,-0.846 0.329,-1.067c-1.414,0.337 -2.469,1.237 -3.203,2.415c-0.085,0.05 -0.17,0.102 -0.253,0.154c-0.039,-0.037 -0.082,-0.055 -0.132,-0.052c0.002,-0.286 0.013,-0.582 0.029,-0.789c-0.142,0.093 -0.249,0.224 -0.38,0.331c-0.025,-0.189 -0.061,-0.368 -0.203,-0.457c-1.054,0.225 -0.636,0.033 -1.11,-0.463c-0.567,0.277 -1.087,0.583 -1.608,0.939c-0.063,-0.002 -0.124,0 -0.185,-0.002c0.287,-0.61 0.444,-1.447 0.981,-2.084c-1.738,0.279 -3.41,1.313 -4.282,2.525c-0.06,0.015 -0.119,0.035 -0.177,0.055c0.066,-0.46 0.136,-0.918 0.195,-1.384c-0.675,0.463 -1.091,1.138 -1.598,1.763c-0.038,-0.048 0.289,-1.275 -0.005,-1.171c-0.711,0.717 -1.522,1.453 -2.197,2.311c-0.084,-0.202 0.139,-1.244 -0.277,-1.347c-1.387,1.155 -2.034,2.727 -2.146,4.418c-0.101,0.156 -0.203,0.312 -0.293,0.472c-0.2,-0.354 -0.401,-0.749 -0.527,-1.028c-0.88,1.552 -0.999,3.411 -0.581,5.194c-1.088,0.86 -2.164,1.73 -3.183,2.591c0.013,-0.289 0.628,-2.23 0.872,-2.8c-1.286,0.784 -3.571,3.685 -3.756,3.869c0.155,-0.686 0.657,-2.556 -0.444,-2.013c-1.684,2.256 -2.67,4.667 -3.011,5.112c0.169,-1.255 0.328,-2.512 0.541,-3.672c-1.929,1.671 -3.54,4.614 -4.269,7.256c-0.058,-0.298 -0.144,-0.541 -0.273,-0.486c-1.271,2.201 -2.698,4.128 -3.855,6.356c-0.271,-0.387 0.214,-2.47 -0.172,-2.586c-2.913,3.511 -3.398,8.853 -4.569,12.852c-0.671,1.013 -1.485,2.071 -2.512,3.228c-6.7,7.504 -17.584,10.176 -22.541,14.65c-0.775,1.308 1.484,4.787 1.858,5.394c0.008,0.013 0.008,0.023 0.01,0.033c0.003,0.012 0.008,0.018 0.008,0.043c2.85,4.748 0.997,10.517 10.726,11.039c0.161,0.252 0.333,0.502 0.614,0.782c4.116,4.107 17.77,-0.679 20.663,0.316c2.456,0.842 10.439,9.024 12.724,10.651c1.356,2.501 3.242,4.898 5.51,6.484c-0.096,-0.759 -0.083,-1.644 -0.07,-2.485c1.014,0.699 4.629,3.827 5.283,4.826c0.713,-0.529 -0.198,-1.457 -0.243,-2.226c0.243,0.085 3.543,3.398 7.356,2.941c-0.089,-0.5 -0.272,-1.143 -0.457,-1.816c2.841,3.115 5.009,3.102 6.752,3.172c0.399,0.172 -0.556,-2.6 -0.214,-2.414c-0.04,-0.142 1.928,0.499 1.815,0.33c5.542,0.241 -0.157,2.798 6.311,6.77c-0.157,-1.428 -0.044,-3.742 -0.07,-4.728c0.52,1.625 1.173,3.197 1.908,4.728c1.017,2.115 2.193,4.151 3.402,6.139c-0.015,-0.727 -0.129,-1.927 0.044,-2.655c1.398,4.27 4.298,6.312 7.141,8.611c-0.359,-0.985 -1.016,-2.299 -1.273,-3.343c0.758,0.73 8.369,13.052 14.98,14.879c-0.202,-0.512 -1.571,-3.569 -1.784,-4.283c0.714,0.415 3.568,4.283 8.924,6.425c3.34,0.729 0.785,-2.97 0.357,-3.569c3.17,1.186 6.44,3.113 7.138,3.214c1.898,3.545 5.21,8.677 8.156,11.769c0.188,2.898 0.742,5.798 1.581,8.556c0.235,-1.072 0.649,-2.14 0.984,-3.217c0.138,0.584 0.27,1.176 0.4,1.77c0.095,2.659 0.403,5.31 1.019,7.878c0.056,-0.245 0.136,-0.594 0.222,-0.978c0.034,0.229 0.062,0.46 0.092,0.689c-0.349,3.069 -0.469,6.158 0.044,9.195c0.166,-1.075 0.345,-2.151 0.515,-3.226c0.01,0.227 0.027,0.453 0.037,0.68c-0.173,2.21 -0.298,4.469 -0.168,6.634c-2.057,3.091 -3.843,7.347 -4.718,10.656c1.135,-1.14 2.721,-2.313 4.089,-3.482c-1.689,1.818 -2.865,3.964 -2.609,6.271c-1.118,0.887 -2.136,1.902 -2.909,3.242c-0.049,0.013 1.064,0.522 1.108,0.603c-1.696,0.157 -4.196,0.883 -5.695,0.704c0.595,0.281 1.616,0.224 2.043,0.82c-3.167,-0.23 -6.399,-0.089 -9.495,0.42c0.646,0.29 1.718,0.927 2.618,1.405c-0.305,0.058 -0.608,0.118 -0.913,0.178c-2.572,-0.04 -5.361,0.385 -7.445,0.766c0.813,0.072 1.788,0.234 2.694,0.387c-0.401,0.119 -0.803,0.237 -1.195,0.371c-3.265,0.271 -6.348,1.322 -8.541,3.923c0.525,-0.102 1.512,-0.329 2.432,-0.546c-0.81,0.711 -1.706,1.696 -2.413,2.776c-2.251,1.354 -3.319,3.995 -2.659,4.213c0.22,0.073 0.659,-0.078 1.196,-0.329c-0.353,0.668 -0.643,1.358 -0.796,2.077c0.494,-0.171 1.068,-0.271 1.661,-0.356c0.163,0.241 0.37,0.477 0.608,0.712c-0.457,0.803 -0.626,1.467 -0.272,1.528c0.295,0.052 0.847,-0.187 1.503,-0.542c0.006,0.006 0.013,0.011 0.02,0.015c-0.232,0.307 -0.455,0.591 -0.67,0.814c0.4,-0.164 0.837,-0.304 1.286,-0.433c0.651,0.366 1.422,0.717 2.33,1.052c-0.121,0.22 -0.228,0.446 -0.31,0.683c0.101,-0.019 0.237,-0.03 0.353,-0.048c-0.207,0.526 -0.248,0.931 -0.034,1.001c0.318,0.107 1.184,-0.36 2.149,-0.932c0.654,0.197 1.308,0.395 2.001,0.574c-0.215,0.409 -0.406,0.834 -0.521,1.307c0.855,-0.362 1.857,-0.551 2.875,-0.744c0.782,0.17 1.587,0.326 2.401,0.477c-0.436,0.715 -0.885,1.475 -1.383,2.035c2.122,-0.149 4.228,-0.65 6.304,-1.269c1.142,0.15 2.297,0.283 3.461,0.398c-0.379,0.561 -0.767,1.128 -1.184,1.611c1.751,-0.51 3.566,-0.9 5.391,-1.255c1.219,0.084 2.436,0.153 3.645,0.209c-0.315,0.49 -0.585,0.966 -0.886,1.366c6.427,-1.117 13.214,1.344 19.37,-1.643c0.062,-0.005 0.119,-0.014 0.181,-0.018c-0.131,0.629 -0.261,1.258 -0.362,1.591c1.408,-0.762 2.867,-1.352 4.26,-2.072c1.011,-0.171 1.836,-0.353 2.442,-0.554c-0.244,0.482 -0.507,0.949 -0.653,1.226c0.796,-0.475 1.421,-1.098 1.918,-1.809c1.746,-1.035 3.184,-2.931 4.381,-5.413c-0.046,0.149 -0.083,0.304 -0.133,0.454c2.818,-3.776 3.884,-8.604 3.953,-13.33c0.009,-0.039 0.016,-0.081 0.025,-0.119c0.247,1.15 0.788,2.495 0.995,3.775c0.659,-3.099 1.025,-6.452 1.4,-9.543c0.07,0.379 0.549,1.052 0.65,1.1c-0.282,-2.245 0.084,-4.748 -0.293,-7.026c-0.048,0.101 0.667,0.728 0.661,0.789c0.05,-1.473 -0.327,-3.071 -0.234,-4.481c0.367,0.55 0.87,1.466 1.322,2.075c-0.205,-3.426 -0.275,-7.124 -0.743,-10.682c0.026,-0.128 0.049,-0.244 0.075,-0.367c0.428,1.488 0.81,2.98 1.076,4.352c0.202,-1.666 0.295,-3.344 0.344,-5.018c1.182,1.225 2.631,2.392 4.484,3.389c0.015,-0.487 0.083,-1.117 0.172,-1.771c0.127,-1.029 0.299,-2.128 0.357,-2.858c0.027,0.045 1.357,8.869 3.213,11.055c0.084,-0.914 0.457,-3.813 0.542,-4.813c0.015,0.027 0.527,7.669 3.7,11.065c-0.016,-0.927 0.056,-1.884 0.027,-2.827c0.942,3.387 1.384,7.527 3.556,10.197c-0.043,-0.642 -0.03,-1.299 -0.014,-1.956c0.757,2.6 1.099,4.684 1.027,6.011c-0.769,1.486 -2.271,2.728 -3.612,3.843c0.485,-0.13 1.527,-0.288 2.128,-0.489c-1.071,1.001 -2.201,2.531 -3.484,3.529c0.212,0.129 0.884,-0.158 1.012,0c-1.886,0.785 -5.069,3.541 -5.069,3.642c-3.198,0.485 -6.683,1.099 -9.81,2.398c0.514,0 1.212,0.072 1.942,0.127c-2.257,0.602 -4.325,1.229 -5.911,2.23c-2.386,0.87 -4.913,2.083 -6.498,4.241c0.995,0.131 2.005,0.053 3.027,-0.116c-2.23,1.503 -3.142,4.318 -2.456,4.49c0.19,0.045 0.524,-0.078 0.929,-0.29c-0.017,0.065 -0.045,0.119 -0.058,0.184c0.757,-0.527 1.685,-0.941 2.572,-1.369c-0.399,1.592 -0.268,2.166 -0.162,2.524c-0.731,1.178 -1.091,2.343 -0.614,2.39c0.377,0.037 1.116,-0.407 1.968,-0.99c-0.054,0.585 -0.111,1.185 -0.165,1.687c0.287,-0.415 1.914,-2.227 2.469,-2.813c0.566,0.309 1.199,0.606 1.861,0.893c-1.384,1.404 -1.979,3.295 -1.476,3.421c0.378,0.093 1.435,-0.635 2.529,-1.419c-0.029,0.52 -0.022,1.033 0.031,1.531c0.571,-0.927 1.313,-1.684 2.126,-2.371c0.542,0.16 1.071,0.303 1.584,0.416c-0.17,0.929 -0.314,1.857 -0.585,2.741c0.443,-0.801 1.257,-1.584 1.773,-2.399c-0.302,0.77 -0.545,1.727 -0.817,2.427c0.942,-0.784 3.686,-2.126 4.116,-2.099c-0.703,0.829 -1.401,1.655 -1.93,2.328c2.684,-0.528 5.641,-1.24 8.239,-2.441c0.643,-0.056 1.285,-0.114 1.927,-0.171c-0.671,0.813 -1.385,1.599 -2.155,2.355c2.014,-0.442 3.854,-1.428 5.569,-2.655c0.229,-0.03 0.485,-0.042 0.73,-0.058c-0.245,0.615 -0.473,1.257 -0.746,1.715c0.957,-0.288 1.917,-0.901 2.8,-1.345c0.142,0.045 -0.686,1.159 -0.714,1.172c0.714,-0.527 1.628,-1.085 2.386,-1.672l0.142,0c-0.17,0.359 -0.601,1.1 -0.399,1.202c0.714,-0.315 1.442,-0.67 2.156,-1.056c-0.728,0.871 -1.557,1.725 -2.115,2.47c2.756,-0.559 6.257,-1.344 8.896,-2.943c0.529,-0.043 1.045,-0.101 1.557,-0.142c-0.456,0.784 -0.927,1.569 -1.427,2.34c1.401,-0.758 2.713,-1.641 3.927,-2.657c0.329,-0.041 0.672,-0.083 0.984,-0.127c-0.343,0.715 -0.641,1.458 -1.056,2.158c1.442,-0.444 2.913,-1.427 4.183,-2.7c0.772,-0.143 1.515,-0.301 2.214,-0.457c-0.129,1.056 -0.47,1.113 -0.871,2c1.213,-1.244 4.869,-3.043 5.426,-3.213c-0.027,0.342 -0.043,0.686 -0.098,0.984c1.4,-0.571 2.469,-1.813 2.84,-1.969c0.086,0.399 0.171,0.843 0.258,1.098c3.114,-1.969 4.355,-4.698 4.971,-6.497c0.027,0.772 0.055,1.542 0.084,2.298c2.116,-5.174 1.227,-9.381 1.227,-11.636c0.458,0.956 0.973,1.9 1.315,2.685c0.016,-2.342 -1.413,-6.999 -1.429,-7.112c0.428,0.071 0.699,0.927 1.116,0.984c0.47,-2.085 -1.857,-7.482 -2.313,-9.381c0.641,1.885 1.327,3.643 1.841,5.57c-0.044,-4.314 -1.315,-9.268 -2.457,-13.767c0.856,0.543 1.472,1.5 2.257,2.144c-1.115,-3.484 0.613,-6.028 -1.886,-9.226c0.157,0.114 1.798,0.959 1.899,0.786c-0.642,-2.459 -1.227,-5.341 -1.87,-7.855c0.085,0.201 0.487,0.386 0.542,0.544c0.858,-3.501 -0.77,-5.342 -0.914,-7.883c0.113,-0.271 0.929,1.37 1.3,0.954c0.942,-3.355 -0.728,-4.252 -0.441,-7.066c0.07,0.013 0.754,1.827 0.868,1.713c1.257,-4.071 0.53,-7.91 -0.07,-10.053c0.013,-0.014 0,-0.027 0,-0.027c-0.299,-1.058 -0.556,-1.701 -0.529,-1.77c0.529,0.255 2.671,5.211 6.469,5.924c-0.257,-1.298 -0.4,-1.872 -0.471,-3.227c0.115,0.043 3.328,4.484 6.626,4.868c0.042,-0.256 -0.286,-1.968 -0.485,-2.198c2.457,2.399 5.712,3.401 8.197,5.497c-0.217,-0.77 -0.686,-2.185 -0.914,-3.212c3.056,2.658 6.796,4.285 10.409,5.984c-0.571,-0.941 -1.171,-2.029 -1.543,-3.043c3.184,2.485 6.299,2.856 9.853,4.1c-0.485,-0.702 -0.926,-1.601 -1.384,-2.47c3.084,0.655 4.826,0.772 8.039,2.44c-0.07,-0.127 -0.299,-0.528 -0.529,-0.998c0.444,0.075 1.939,0.532 3.657,1.019c0.058,0.109 0.103,0.231 0.167,0.337c0.026,-0.088 0.063,-0.177 0.094,-0.263c0.368,0.103 0.74,0.207 1.118,0.308c0.03,0.054 0.061,0.111 0.091,0.164c0.132,2.188 0.489,4.438 1.285,6.447c0.179,-0.612 0.741,-2.021 0.966,-2.616c0.016,0.027 0.032,0.054 0.046,0.082c0.37,2.139 1.365,4.282 1.754,6.265c0.074,-0.477 0.255,-1.856 0.457,-2.247c0.095,2.066 0.866,6.226 1.8,8.897c0.014,-0.634 -0.123,-1.321 0.057,-1.899c0.122,1.245 0.311,2.488 0.551,3.719c-0.694,2.698 -1.212,5.507 -1.665,8.212c0.711,-0.741 1.63,-1.476 2.472,-2.187c-0.027,0.296 -0.045,0.585 -0.078,0.888c-0.809,1.557 -1.272,3.197 -2.062,4.817c0.412,-0.327 1.021,-0.88 1.574,-1.27c-0.019,0.113 -0.032,0.218 -0.052,0.335c-0.47,2.73 -2.532,4.329 -5.347,5.512c-3.423,0.347 -6.849,1.231 -9.671,2.716c0.226,0 0.486,0.003 0.734,0.004c-0.22,0.062 -0.439,0.13 -0.66,0.195c-3.72,0.107 -7.37,0.508 -9.443,3.587c0.359,-0.092 0.737,-0.178 1.115,-0.261c-2.882,1.007 -5.341,2.769 -6.06,5.693c0.431,-0.203 0.895,-0.37 1.37,-0.528c-0.003,0.007 -0.006,0.012 -0.01,0.018c-2.116,1.5 -3.846,5.41 -1.376,4.103c-0.302,0.678 -0.563,1.38 -0.717,2.136c0.46,-0.321 1.051,-0.626 1.681,-0.929c0.222,0.338 0.521,0.673 0.889,0.994c-0.392,0.835 -0.512,1.511 -0.154,1.545c0.3,0.03 0.831,-0.251 1.456,-0.65c1.058,0.588 2.198,0.984 3.371,1.303c-1,2.179 0.045,1.755 1.891,0.458c0.468,0.105 0.941,0.207 1.427,0.3c-0.183,0.201 -0.355,0.386 -0.512,0.538c0.415,-0.161 0.872,-0.281 1.342,-0.386c1.03,0.182 2.098,0.34 3.195,0.476c-0.327,0.332 -0.65,0.666 -0.973,0.985c0.716,-0.337 1.628,-0.571 2.564,-0.804c0.731,0.081 1.47,0.148 2.222,0.208c-0.238,0.264 -0.453,0.551 -0.502,0.953c0.955,-0.157 1.904,-0.517 2.864,-0.792c0.372,0.02 0.748,0.036 1.124,0.053c-0.253,0.345 -0.734,0.789 0.052,1.088c1.301,-0.209 2.756,-0.536 4.253,-0.965c1.153,0.013 2.306,0.01 3.456,-0.005c-0.738,0.834 -1.509,1.615 -2.187,2.077c2.976,-0.276 5.826,-1.147 8.583,-2.289c0.687,-0.037 1.368,-0.077 2.039,-0.12c-0.094,0.065 -0.189,0.143 -0.283,0.203c2.04,0.037 4.28,-0.162 6.35,-0.721c1.066,-0.113 2.859,-0.311 4.83,-0.596c-1.428,1.516 -1.936,3.433 -1.374,3.572c0.481,0.119 1.833,-0.801 3.165,-1.711c0.003,0.013 0.004,0.023 0.008,0.035c-1.401,1.485 -2.371,3.341 -2.741,5.357c0.969,-0.835 1.907,-1.751 2.863,-2.653c-0.74,1.187 -1.106,2.366 -0.632,2.413c0.415,0.039 1.27,-0.501 2.231,-1.172c-0.137,0.5 -0.279,1.002 -0.379,1.509c0.413,-0.515 0.943,-1 1.484,-1.512c0.387,0.211 1.229,1.185 1.174,1.455c0.227,-0.214 0.482,-0.414 0.742,-0.6c0.035,0.013 0.078,0.023 0.114,0.034c-0.809,1.19 -1.102,2.386 -0.71,2.482c0.444,0.11 1.828,-0.914 3.106,-1.828c0.674,0.138 1.865,0.365 2.357,0.44c-0.354,0.772 -0.67,1.556 -0.855,2.383c0.871,-0.696 1.758,-1.44 2.671,-2.141c0.983,0.117 2.014,0.202 3.099,0.274c-0.343,0.827 -1.129,1.07 -1.544,1.785c1.943,-0.288 3.642,-1.672 3.843,-1.672c-0.299,0.729 -0.559,1.058 -0.873,1.742c1.486,-0.298 2.156,-0.77 2.957,-1.414c-0.286,0.616 -0.672,0.842 -0.929,1.47c2.212,-0.485 4,-1.783 4.114,-1.783c-0.6,0.671 -1.115,1.369 -1.501,2.142c3.814,-0.301 4.998,-2.028 8.369,-2.5c-0.401,0.657 -0.803,1.37 -1.255,1.857c1.155,-0.785 4.583,-2.172 4.897,-2.214c-0.287,0.572 -0.543,1.172 -0.844,1.686c0.971,-0.773 3.556,-2.014 3.67,-2.028c-0.213,0.514 -0.498,1.272 -0.612,1.542c1.283,-0.585 4.11,-2.071 4.225,-2.086c-0.458,0.357 -0.885,0.729 -1.27,1.144c3.841,0.585 7.953,-0.586 10.88,-3.186c-0.585,0.614 -1.2,1.214 -1.857,1.787c1.828,-0.501 6.355,-3.3 6.969,-3.526c-0.284,0.797 -0.556,1.611 -0.986,2.341c0.886,-1.059 2.315,-1.928 3.257,-3.057c0.071,0.514 -0.071,1.072 -0.014,1.586c0.872,-1.014 3.028,-3.4 3.497,-3.714c-0.127,0.973 -0.286,1.927 -0.397,2.756c2.127,-1.386 3.624,-3.527 4.01,-6.055c0.216,0.459 0.385,1.015 0.543,1.501c0.372,-2.228 0.357,-4.57 0.014,-6.8c0.315,0.558 0.885,1.428 1.185,2.143c0.274,-4.112 -1.455,-7.539 -3.64,-10.806c-0.585,-2.559 -1.385,-5.071 -2.413,-7.456c0.684,0.742 1.657,2.041 2.17,2.784c-0.6,-2.326 -0.172,-3.942 -1.799,-7.439c0.015,-0.087 1.671,0.599 1.742,0.884c-0.358,-1.798 -1.015,-6.124 -1.085,-6.712c0.242,0.501 0.471,1.015 0.698,1.5c-0.135,-4.779 -0.593,-9.704 -2.013,-14.28c0.143,0.159 0.301,0.4 0.416,0.659c0.226,0.456 0.384,0.927 0.314,0.97c1.095,-1.142 0.684,-3.347 1.784,-4.486c0.172,0.457 0.414,1.959 0.871,2.158c-0.543,-2.227 0.016,-4.956 -0.399,-7.27c0.141,0.246 1.142,2.356 1.198,2.356c1.898,-3.926 2.972,-6.909 2.228,-11.937c0.272,0.17 0.885,1.385 0.9,1.599c0.257,-1.141 0.129,-2.454 0.442,-3.627c0,0.23 0.402,1.23 0.472,1.241c0.701,-2.439 1.215,-5.023 1.885,-7.394c0.128,0.269 0.715,2.155 1.015,2.155c0.414,-0.384 -0.042,-3.326 0.312,-3.813c0.371,0.487 1.214,0.873 1.315,1.186c1.326,-5.156 1.03,-8.452 1.27,-13.809c0.486,1.172 1.343,2.543 1.858,3.798c0.442,-2.012 1.512,-4.982 0.799,-12.065c0.384,1.513 0.885,3.169 1.213,4.725c1.528,-7.881 -1.429,-16.892 -1.413,-17.493c0.2,0.331 0.584,0.988 1.03,1.815c0.335,-4.556 0.292,-8.759 0.025,-12.601c1.127,0.929 2.339,1.582 2.896,2.005c-0.01,-0.041 -0.111,-0.238 -0.25,-0.531c-0.28,-0.601 -0.689,-1.612 -0.74,-2.634l0.108,-0.024c0.837,1.04 1.952,1.708 2.614,2.721c0.076,-1.029 0.349,-2.131 0.262,-3.178c0.288,0.234 0.667,1.34 1.258,1.197c-0.235,-1.119 0.324,-3.106 -0.028,-4.491c0.541,0.171 1.198,0.538 1.68,0.764c0.898,-2.343 -1.225,-8.054 -1.238,-8.211" style="fill:#fff;fill-rule:nonzero;"/><clipPath id="_clip1"><path d="M322.118,198.944c-1.969,0.2 -5.068,0.845 -6.668,2.528c1.256,-0.097 2.772,0.185 3.985,0.101c-0.046,0.029 -1.982,0.428 -4.559,1.037c0.138,-1.101 0.241,-2.206 0.277,-3.309c0.201,-0.872 0.387,-1.774 0.566,-2.706c0.246,0.637 0.487,1.273 0.666,1.9c0.355,-3.565 0.574,-7.377 1.026,-11.006c0.403,0.789 0.693,1.569 1.033,2.376c-0.412,-1.839 -0.359,-3.891 -0.534,-5.845c0.436,2.036 1.221,4.489 2.724,6.657c-0.044,-0.287 -0.084,-0.915 -0.084,-1.486c0.486,1.429 0.212,3.928 2.097,8.31c-0.1,0.517 -0.284,1.002 -0.529,1.443m62.981,-118.386c0.4,0.125 0.85,0.344 1.123,0.496c-0.099,-4.185 -3.119,-6.901 -4.067,-8.432c2.385,2.807 1.51,1.48 3.747,3.444c-2.249,-5.204 -2.947,-7.791 -7.527,-10.072c1.173,0.426 2.344,0.826 3.523,1.193c-2.722,-6.366 -8.316,-8.857 -12.93,-10.054c-0.611,-0.761 -1.207,-1.519 -1.724,-2.27c0.657,0.242 1.355,0.486 2.028,0.728c-1.244,-1.729 -2.741,-3.615 -3.714,-5.369c0.77,0.143 1.614,0.241 2.371,0.413c-2.186,-1.898 -4.827,-3.397 -7.268,-4.954c1.556,0.712 1.254,-0.287 2.855,0.541c-2.128,-1.985 -6.669,-4.283 -7.469,-5.168c0.43,0.042 0.845,0.085 1.273,0.098c-0.674,-2.325 -2.115,-4.125 -3.915,-5.58c-0.099,-0.086 -0.2,-0.159 -0.299,-0.244c-1.271,-0.987 -2.697,-1.813 -4.155,-2.557c-1.371,-2.499 -4.384,-3.884 -7.039,-4.94c0.6,-0.044 1.027,0.1 1.627,0.171c-1.543,-1.428 -3.827,-2.412 -5.912,-3.271c1.043,0.045 2.285,-0.243 3.242,-0.243c-2.955,-1.813 -6.726,-2.454 -10.152,-2.885c1.599,-0.099 1.77,-0.341 3.413,-0.484c-7.727,-5.67 -15.965,-5.328 -19.122,-5.954c1.156,-0.202 2.599,-0.772 3.872,-0.944c-3.387,-0.727 -7.028,-0.499 -10.54,-0.47c1.628,-0.557 3.126,-1.741 4.655,-2.373c-3.027,0.089 -9.954,1.559 -10.554,1.489c0.814,-0.443 1.714,-0.857 2.743,-1.086c-3.242,-0.387 -11.024,0.682 -11.524,0.682c0.657,-0.37 1.328,-0.741 2.027,-1.097c-5.782,-1.058 -15.765,2.787 -16.522,2.9c0.3,-0.414 0.616,-0.829 0.957,-1.201c-1.528,0.585 -3.368,0.914 -4.87,1.615c0.757,-0.459 1.529,-0.958 2.314,-1.401c-3.156,0.515 -6.082,1.858 -9.224,2.37c0.414,-0.5 0.915,-1.327 1.455,-1.898c-2.668,0.642 -5.339,1.501 -7.795,2.77c2.342,-2.571 1.226,-2.642 4.412,-3.969c-7.025,-0.741 -19.664,5.44 -20.449,5.481c0.259,-0.554 0.543,-1.112 0.914,-1.611c-0.954,0.514 -2.613,0.798 -3.756,1.555c0.414,-0.584 0.814,-1.798 1.143,-2.328c-1.656,0.742 -3.827,1.086 -5.483,1.886c0.314,-0.328 0.77,-0.715 1.056,-1.099c-1.512,0.7 -8.624,1.885 -10.426,1.828c0.287,-0.157 0.587,-0.287 0.875,-0.458c-3.687,-1.645 -8.199,-1.1 -12.211,-0.513c0.243,-0.302 0.743,-0.457 0.957,-0.772c-1.957,-0.159 -4.069,-0.315 -6.084,-0.143c0.229,-0.285 0.985,-0.815 1.144,-0.984c-2.871,-0.545 -9.241,-0.273 -9.526,-0.344c2.37,-1.171 1.471,-1.471 3.784,-2.743c-5.154,-0.598 -11.837,0.102 -12.037,0.015c0.742,-0.699 1.498,-1.642 2.585,-2.156c-3.197,-0.799 -6.684,-0.943 -10.011,-1.185c0.927,-0.343 1.914,-1.113 2.597,-1.429c-2.84,-0.996 -5.98,-0.983 -9.008,-0.996c-0.016,0 -0.03,-0.015 -0.045,-0.015c0.501,-0.274 1.229,-0.658 1.816,-0.957c-1.757,-0.53 -5.741,-0.329 -5.856,-0.358c0.272,-0.114 0.543,-0.227 0.729,-0.286c-1.686,-0.585 -8.584,-1.443 -10.351,-1.642c0.485,-0.259 0.955,-0.5 1.439,-0.743c-2.013,-0.599 -4.268,-0.672 -6.522,-0.427c0.397,-0.357 0.795,-0.744 1.197,-1.101c-1.971,0.613 -4.728,-0.615 -8.197,1.071c0.586,-0.771 1.199,-1.584 1.685,-2.098c-3.254,0.299 -9.339,4.025 -9.511,4.071c1.029,-1.258 2.028,-2.544 3.215,-3.714c-3.544,0.811 -6.926,2.597 -9.741,4.955c0.686,-0.743 1.429,-1.443 2.214,-2.07c-6.081,-0.329 -12.15,5.582 -16.878,8.912c-0.071,0 -0.128,-0.929 -0.186,-1.389c-1.157,1.143 -3.471,1.972 -4.54,2.943c0.158,-0.771 0.027,-1.784 0.186,-2.585c-1.686,1.013 -3.571,2.213 -5.213,3.328c0.27,-0.543 0.584,-1.187 0.871,-1.772c-2.642,1.173 -4.941,2.943 -7.182,4.528c-1.755,-2.943 -3.566,-3.9 -3.736,-3.928c0.256,-0.172 -4.732,1.172 -4.488,0.987c-1.731,-0.472 -2.38,-1.435 -2.666,-1.493c0.398,-0.472 0.797,-1.001 1.155,-1.4c-2.412,-0.4 -5.1,-0.141 -7.595,0.015c0.556,-0.33 1.283,-0.844 1.755,-1.13c-2.129,-0.098 -4.555,-0.098 -6.568,-0.196c0.541,-0.405 1.257,-0.929 1.696,-1.273c-1.54,-0.058 -3.682,-0.7 -5.265,-0.458c0.47,-0.286 1.312,-0.886 1.897,-1.227c-1.321,0.171 -3.754,0.11 -5.169,0.457c0.386,-0.314 0.915,-0.572 1.313,-0.872c-1.384,0.141 -3.176,-0.345 -4.567,-0.214c0.002,-0.025 0.003,-0.05 0.004,-0.074c0.665,-0.5 1.294,-1.204 1.908,-1.655c-0.622,0.064 -1.238,0.164 -1.851,0.286c0.003,-0.188 0.008,-0.376 0.011,-0.566c-0.383,0.231 -0.746,0.485 -1.133,0.708c0.004,-0.12 0.119,-0.559 -0.235,-0.431c-0.069,-0.259 0.276,-0.618 0.139,-0.861c-0.82,-0.212 -0.454,-0.2 -0.594,-0.722c-0.498,-0.006 -0.978,0.032 -1.477,0.105c-0.041,-0.027 -0.086,-0.045 -0.13,-0.069c0.435,-0.339 0.87,-0.886 1.487,-1.153c-1.31,-0.413 -8.233,1.826 -9.308,2.389c-0.049,-0.007 -0.096,-0.014 -0.144,-0.022c0.225,-0.306 0.45,-0.612 0.67,-0.927c-0.647,0.095 -1.198,0.433 -1.793,0.704c-0.008,-0.049 0.695,-0.815 0.452,-0.846c-0.772,0.263 -1.622,0.506 -2.42,0.886c0.018,-0.177 0.575,-0.846 0.329,-1.067c-1.414,0.337 -2.469,1.237 -3.203,2.415c-0.085,0.05 -0.17,0.102 -0.253,0.154c-0.039,-0.037 -0.082,-0.055 -0.132,-0.052c0.002,-0.286 0.013,-0.582 0.029,-0.789c-0.142,0.093 -0.249,0.224 -0.38,0.331c-0.025,-0.189 -0.061,-0.368 -0.203,-0.457c-1.054,0.225 -0.636,0.033 -1.11,-0.463c-0.567,0.277 -1.087,0.583 -1.608,0.939c-0.063,-0.002 -0.124,0 -0.185,-0.002c0.287,-0.61 0.444,-1.447 0.981,-2.084c-1.738,0.279 -3.41,1.313 -4.282,2.525c-0.06,0.015 -0.119,0.035 -0.177,0.055c0.066,-0.46 0.136,-0.918 0.195,-1.384c-0.675,0.463 -1.091,1.138 -1.598,1.763c-0.038,-0.048 0.289,-1.275 -0.005,-1.171c-0.711,0.717 -1.522,1.453 -2.197,2.311c-0.084,-0.202 0.139,-1.244 -0.277,-1.347c-1.387,1.155 -2.034,2.727 -2.146,4.418c-0.101,0.156 -0.203,0.312 -0.293,0.472c-0.2,-0.354 -0.401,-0.749 -0.527,-1.028c-0.88,1.552 -0.999,3.411 -0.581,5.194c-1.088,0.86 -2.164,1.73 -3.183,2.591c0.013,-0.289 0.628,-2.23 0.872,-2.8c-1.286,0.784 -3.571,3.685 -3.756,3.869c0.155,-0.686 0.657,-2.556 -0.444,-2.013c-1.684,2.256 -2.67,4.667 -3.011,5.112c0.169,-1.255 0.328,-2.512 0.541,-3.672c-1.929,1.671 -3.54,4.614 -4.269,7.256c-0.058,-0.298 -0.144,-0.541 -0.273,-0.486c-1.271,2.201 -2.698,4.128 -3.855,6.356c-0.271,-0.387 0.214,-2.47 -0.172,-2.586c-2.913,3.511 -3.398,8.853 -4.569,12.852c-0.671,1.013 -1.485,2.071 -2.512,3.228c-6.7,7.504 -17.584,10.176 -22.541,14.65c-0.775,1.308 1.484,4.787 1.858,5.394c0.008,0.013 0.008,0.023 0.01,0.033c0.003,0.012 0.008,0.018 0.008,0.043c2.85,4.748 0.997,10.517 10.726,11.039c0.161,0.252 0.333,0.502 0.614,0.782c4.116,4.107 17.77,-0.679 20.663,0.316c2.456,0.842 10.439,9.024 12.724,10.651c1.356,2.501 3.242,4.898 5.51,6.484c-0.096,-0.759 -0.083,-1.644 -0.07,-2.485c1.014,0.699 4.629,3.827 5.283,4.826c0.713,-0.529 -0.198,-1.457 -0.243,-2.226c0.243,0.085 3.543,3.398 7.356,2.941c-0.089,-0.5 -0.272,-1.143 -0.457,-1.816c2.841,3.115 5.009,3.102 6.752,3.172c0.399,0.172 -0.556,-2.6 -0.214,-2.414c-0.04,-0.142 1.928,0.499 1.815,0.33c5.542,0.241 -0.157,2.798 6.311,6.77c-0.157,-1.428 -0.044,-3.742 -0.07,-4.728c0.52,1.625 1.173,3.197 1.908,4.728c1.017,2.115 2.193,4.151 3.402,6.139c-0.015,-0.727 -0.129,-1.927 0.044,-2.655c1.398,4.27 4.298,6.312 7.141,8.611c-0.359,-0.985 -1.016,-2.299 -1.273,-3.343c0.758,0.73 8.369,13.052 14.98,14.879c-0.202,-0.512 -1.571,-3.569 -1.784,-4.283c0.714,0.415 3.568,4.283 8.924,6.425c3.34,0.729 0.785,-2.97 0.357,-3.569c3.17,1.186 6.44,3.113 7.138,3.214c1.898,3.545 5.21,8.677 8.156,11.769c0.188,2.898 0.742,5.798 1.581,8.556c0.235,-1.072 0.649,-2.14 0.984,-3.217c0.138,0.584 0.27,1.176 0.4,1.77c0.095,2.659 0.403,5.31 1.019,7.878c0.056,-0.245 0.136,-0.594 0.222,-0.978c0.034,0.229 0.062,0.46 0.092,0.689c-0.349,3.069 -0.469,6.158 0.044,9.195c0.166,-1.075 0.345,-2.151 0.515,-3.226c0.01,0.227 0.027,0.453 0.037,0.68c-0.173,2.21 -0.298,4.469 -0.168,6.634c-2.057,3.091 -3.843,7.347 -4.718,10.656c1.135,-1.14 2.721,-2.313 4.089,-3.482c-1.689,1.818 -2.865,3.964 -2.609,6.271c-1.118,0.887 -2.136,1.902 -2.909,3.242c-0.049,0.013 1.064,0.522 1.108,0.603c-1.696,0.157 -4.196,0.883 -5.695,0.704c0.595,0.281 1.616,0.224 2.043,0.82c-3.167,-0.23 -6.399,-0.089 -9.495,0.42c0.646,0.29 1.718,0.927 2.618,1.405c-0.305,0.058 -0.608,0.118 -0.913,0.178c-2.572,-0.04 -5.361,0.385 -7.445,0.766c0.813,0.072 1.788,0.234 2.694,0.387c-0.401,0.119 -0.803,0.237 -1.195,0.371c-3.265,0.271 -6.348,1.322 -8.541,3.923c0.525,-0.102 1.512,-0.329 2.432,-0.546c-0.81,0.711 -1.706,1.696 -2.413,2.776c-2.251,1.354 -3.319,3.995 -2.659,4.213c0.22,0.073 0.659,-0.078 1.196,-0.329c-0.353,0.668 -0.643,1.358 -0.796,2.077c0.494,-0.171 1.068,-0.271 1.661,-0.356c0.163,0.241 0.37,0.477 0.608,0.712c-0.457,0.803 -0.626,1.467 -0.272,1.528c0.295,0.052 0.847,-0.187 1.503,-0.542c0.006,0.006 0.013,0.011 0.02,0.015c-0.232,0.307 -0.455,0.591 -0.67,0.814c0.4,-0.164 0.837,-0.304 1.286,-0.433c0.651,0.366 1.422,0.717 2.33,1.052c-0.121,0.22 -0.228,0.446 -0.31,0.683c0.101,-0.019 0.237,-0.03 0.353,-0.048c-0.207,0.526 -0.248,0.931 -0.034,1.001c0.318,0.107 1.184,-0.36 2.149,-0.932c0.654,0.197 1.308,0.395 2.001,0.574c-0.215,0.409 -0.406,0.834 -0.521,1.307c0.855,-0.362 1.857,-0.551 2.875,-0.744c0.782,0.17 1.587,0.326 2.401,0.477c-0.436,0.715 -0.885,1.475 -1.383,2.035c2.122,-0.149 4.228,-0.65 6.304,-1.269c1.142,0.15 2.297,0.283 3.461,0.398c-0.379,0.561 -0.767,1.128 -1.184,1.611c1.751,-0.51 3.566,-0.9 5.391,-1.255c1.219,0.084 2.436,0.153 3.645,0.209c-0.315,0.49 -0.585,0.966 -0.886,1.366c6.427,-1.117 13.214,1.344 19.37,-1.643c0.062,-0.005 0.119,-0.014 0.181,-0.018c-0.131,0.629 -0.261,1.258 -0.362,1.591c1.408,-0.762 2.867,-1.352 4.26,-2.072c1.011,-0.171 1.836,-0.353 2.442,-0.554c-0.244,0.482 -0.507,0.949 -0.653,1.226c0.796,-0.475 1.421,-1.098 1.918,-1.809c1.746,-1.035 3.184,-2.931 4.381,-5.413c-0.046,0.149 -0.083,0.304 -0.133,0.454c2.818,-3.776 3.884,-8.604 3.953,-13.33c0.009,-0.039 0.016,-0.081 0.025,-0.119c0.247,1.15 0.788,2.495 0.995,3.775c0.659,-3.099 1.025,-6.452 1.4,-9.543c0.07,0.379 0.549,1.052 0.65,1.1c-0.282,-2.245 0.084,-4.748 -0.293,-7.026c-0.048,0.101 0.667,0.728 0.661,0.789c0.05,-1.473 -0.327,-3.071 -0.234,-4.481c0.367,0.55 0.87,1.466 1.322,2.075c-0.205,-3.426 -0.275,-7.124 -0.743,-10.682c0.026,-0.128 0.049,-0.244 0.075,-0.367c0.428,1.488 0.81,2.98 1.076,4.352c0.202,-1.666 0.295,-3.344 0.344,-5.018c1.182,1.225 2.631,2.392 4.484,3.389c0.015,-0.487 0.083,-1.117 0.172,-1.771c0.127,-1.029 0.299,-2.128 0.357,-2.858c0.027,0.045 1.357,8.869 3.213,11.055c0.084,-0.914 0.457,-3.813 0.542,-4.813c0.015,0.027 0.527,7.669 3.7,11.065c-0.016,-0.927 0.056,-1.884 0.027,-2.827c0.942,3.387 1.384,7.527 3.556,10.197c-0.043,-0.642 -0.03,-1.299 -0.014,-1.956c0.757,2.6 1.099,4.684 1.027,6.011c-0.769,1.486 -2.271,2.728 -3.612,3.843c0.485,-0.13 1.527,-0.288 2.128,-0.489c-1.071,1.001 -2.201,2.531 -3.484,3.529c0.212,0.129 0.884,-0.158 1.012,0c-1.886,0.785 -5.069,3.541 -5.069,3.642c-3.198,0.485 -6.683,1.099 -9.81,2.398c0.514,0 1.212,0.072 1.942,0.127c-2.257,0.602 -4.325,1.229 -5.911,2.23c-2.386,0.87 -4.913,2.083 -6.498,4.241c0.995,0.131 2.005,0.053 3.027,-0.116c-2.23,1.503 -3.142,4.318 -2.456,4.49c0.19,0.045 0.524,-0.078 0.929,-0.29c-0.017,0.065 -0.045,0.119 -0.058,0.184c0.757,-0.527 1.685,-0.941 2.572,-1.369c-0.399,1.592 -0.268,2.166 -0.162,2.524c-0.731,1.178 -1.091,2.343 -0.614,2.39c0.377,0.037 1.116,-0.407 1.968,-0.99c-0.054,0.585 -0.111,1.185 -0.165,1.687c0.287,-0.415 1.914,-2.227 2.469,-2.813c0.566,0.309 1.199,0.606 1.861,0.893c-1.384,1.404 -1.979,3.295 -1.476,3.421c0.378,0.093 1.435,-0.635 2.529,-1.419c-0.029,0.52 -0.022,1.033 0.031,1.531c0.571,-0.927 1.313,-1.684 2.126,-2.371c0.542,0.16 1.071,0.303 1.584,0.416c-0.17,0.929 -0.314,1.857 -0.585,2.741c0.443,-0.801 1.257,-1.584 1.773,-2.399c-0.302,0.77 -0.545,1.727 -0.817,2.427c0.942,-0.784 3.686,-2.126 4.116,-2.099c-0.703,0.829 -1.401,1.655 -1.93,2.328c2.684,-0.528 5.641,-1.24 8.239,-2.441c0.643,-0.056 1.285,-0.114 1.927,-0.171c-0.671,0.813 -1.385,1.599 -2.155,2.355c2.014,-0.442 3.854,-1.428 5.569,-2.655c0.229,-0.03 0.485,-0.042 0.73,-0.058c-0.245,0.615 -0.473,1.257 -0.746,1.715c0.957,-0.288 1.917,-0.901 2.8,-1.345c0.142,0.045 -0.686,1.159 -0.714,1.172c0.714,-0.527 1.628,-1.085 2.386,-1.672l0.142,0c-0.17,0.359 -0.601,1.1 -0.399,1.202c0.714,-0.315 1.442,-0.67 2.156,-1.056c-0.728,0.871 -1.557,1.725 -2.115,2.47c2.756,-0.559 6.257,-1.344 8.896,-2.943c0.529,-0.043 1.045,-0.101 1.557,-0.142c-0.456,0.784 -0.927,1.569 -1.427,2.34c1.401,-0.758 2.713,-1.641 3.927,-2.657c0.329,-0.041 0.672,-0.083 0.984,-0.127c-0.343,0.715 -0.641,1.458 -1.056,2.158c1.442,-0.444 2.913,-1.427 4.183,-2.7c0.772,-0.143 1.515,-0.301 2.214,-0.457c-0.129,1.056 -0.47,1.113 -0.871,2c1.213,-1.244 4.869,-3.043 5.426,-3.213c-0.027,0.342 -0.043,0.686 -0.098,0.984c1.4,-0.571 2.469,-1.813 2.84,-1.969c0.086,0.399 0.171,0.843 0.258,1.098c3.114,-1.969 4.355,-4.698 4.971,-6.497c0.027,0.772 0.055,1.542 0.084,2.298c2.116,-5.174 1.227,-9.381 1.227,-11.636c0.458,0.956 0.973,1.9 1.315,2.685c0.016,-2.342 -1.413,-6.999 -1.429,-7.112c0.428,0.071 0.699,0.927 1.116,0.984c0.47,-2.085 -1.857,-7.482 -2.313,-9.381c0.641,1.885 1.327,3.643 1.841,5.57c-0.044,-4.314 -1.315,-9.268 -2.457,-13.767c0.856,0.543 1.472,1.5 2.257,2.144c-1.115,-3.484 0.613,-6.028 -1.886,-9.226c0.157,0.114 1.798,0.959 1.899,0.786c-0.642,-2.459 -1.227,-5.341 -1.87,-7.855c0.085,0.201 0.487,0.386 0.542,0.544c0.858,-3.501 -0.77,-5.342 -0.914,-7.883c0.113,-0.271 0.929,1.37 1.3,0.954c0.942,-3.355 -0.728,-4.252 -0.441,-7.066c0.07,0.013 0.754,1.827 0.868,1.713c1.257,-4.071 0.53,-7.91 -0.07,-10.053c0.013,-0.014 0,-0.027 0,-0.027c-0.299,-1.058 -0.556,-1.701 -0.529,-1.77c0.529,0.255 2.671,5.211 6.469,5.924c-0.257,-1.298 -0.4,-1.872 -0.471,-3.227c0.115,0.043 3.328,4.484 6.626,4.868c0.042,-0.256 -0.286,-1.968 -0.485,-2.198c2.457,2.399 5.712,3.401 8.197,5.497c-0.217,-0.77 -0.686,-2.185 -0.914,-3.212c3.056,2.658 6.796,4.285 10.409,5.984c-0.571,-0.941 -1.171,-2.029 -1.543,-3.043c3.184,2.485 6.299,2.856 9.853,4.1c-0.485,-0.702 -0.926,-1.601 -1.384,-2.47c3.084,0.655 4.826,0.772 8.039,2.44c-0.07,-0.127 -0.299,-0.528 -0.529,-0.998c0.444,0.075 1.939,0.532 3.657,1.019c0.058,0.109 0.103,0.231 0.167,0.337c0.026,-0.088 0.063,-0.177 0.094,-0.263c0.368,0.103 0.74,0.207 1.118,0.308c0.03,0.054 0.061,0.111 0.091,0.164c0.132,2.188 0.489,4.438 1.285,6.447c0.179,-0.612 0.741,-2.021 0.966,-2.616c0.016,0.027 0.032,0.054 0.046,0.082c0.37,2.139 1.365,4.282 1.754,6.265c0.074,-0.477 0.255,-1.856 0.457,-2.247c0.095,2.066 0.866,6.226 1.8,8.897c0.014,-0.634 -0.123,-1.321 0.057,-1.899c0.122,1.245 0.311,2.488 0.551,3.719c-0.694,2.698 -1.212,5.507 -1.665,8.212c0.711,-0.741 1.63,-1.476 2.472,-2.187c-0.027,0.296 -0.045,0.585 -0.078,0.888c-0.809,1.557 -1.272,3.197 -2.062,4.817c0.412,-0.327 1.021,-0.88 1.574,-1.27c-0.019,0.113 -0.032,0.218 -0.052,0.335c-0.47,2.73 -2.532,4.329 -5.347,5.512c-3.423,0.347 -6.849,1.231 -9.671,2.716c0.226,0 0.486,0.003 0.734,0.004c-0.22,0.062 -0.439,0.13 -0.66,0.195c-3.72,0.107 -7.37,0.508 -9.443,3.587c0.359,-0.092 0.737,-0.178 1.115,-0.261c-2.882,1.007 -5.341,2.769 -6.06,5.693c0.431,-0.203 0.895,-0.37 1.37,-0.528c-0.003,0.007 -0.006,0.012 -0.01,0.018c-2.116,1.5 -3.846,5.41 -1.376,4.103c-0.302,0.678 -0.563,1.38 -0.717,2.136c0.46,-0.321 1.051,-0.626 1.681,-0.929c0.222,0.338 0.521,0.673 0.889,0.994c-0.392,0.835 -0.512,1.511 -0.154,1.545c0.3,0.03 0.831,-0.251 1.456,-0.65c1.058,0.588 2.198,0.984 3.371,1.303c-1,2.179 0.045,1.755 1.891,0.458c0.468,0.105 0.941,0.207 1.427,0.3c-0.183,0.201 -0.355,0.386 -0.512,0.538c0.415,-0.161 0.872,-0.281 1.342,-0.386c1.03,0.182 2.098,0.34 3.195,0.476c-0.327,0.332 -0.65,0.666 -0.973,0.985c0.716,-0.337 1.628,-0.571 2.564,-0.804c0.731,0.081 1.47,0.148 2.222,0.208c-0.238,0.264 -0.453,0.551 -0.502,0.953c0.955,-0.157 1.904,-0.517 2.864,-0.792c0.372,0.02 0.748,0.036 1.124,0.053c-0.253,0.345 -0.734,0.789 0.052,1.088c1.301,-0.209 2.756,-0.536 4.253,-0.965c1.153,0.013 2.306,0.01 3.456,-0.005c-0.738,0.834 -1.509,1.615 -2.187,2.077c2.976,-0.276 5.826,-1.147 8.583,-2.289c0.687,-0.037 1.368,-0.077 2.039,-0.12c-0.094,0.065 -0.189,0.143 -0.283,0.203c2.04,0.037 4.28,-0.162 6.35,-0.721c1.066,-0.113 2.859,-0.311 4.83,-0.596c-1.428,1.516 -1.936,3.433 -1.374,3.572c0.481,0.119 1.833,-0.801 3.165,-1.711c0.003,0.013 0.004,0.023 0.008,0.035c-1.401,1.485 -2.371,3.341 -2.741,5.357c0.969,-0.835 1.907,-1.751 2.863,-2.653c-0.74,1.187 -1.106,2.366 -0.632,2.413c0.415,0.039 1.27,-0.501 2.231,-1.172c-0.137,0.5 -0.279,1.002 -0.379,1.509c0.413,-0.515 0.943,-1 1.484,-1.512c0.387,0.211 1.229,1.185 1.174,1.455c0.227,-0.214 0.482,-0.414 0.742,-0.6c0.035,0.013 0.078,0.023 0.114,0.034c-0.809,1.19 -1.102,2.386 -0.71,2.482c0.444,0.11 1.828,-0.914 3.106,-1.828c0.674,0.138 1.865,0.365 2.357,0.44c-0.354,0.772 -0.67,1.556 -0.855,2.383c0.871,-0.696 1.758,-1.44 2.671,-2.141c0.983,0.117 2.014,0.202 3.099,0.274c-0.343,0.827 -1.129,1.07 -1.544,1.785c1.943,-0.288 3.642,-1.672 3.843,-1.672c-0.299,0.729 -0.559,1.058 -0.873,1.742c1.486,-0.298 2.156,-0.77 2.957,-1.414c-0.286,0.616 -0.672,0.842 -0.929,1.47c2.212,-0.485 4,-1.783 4.114,-1.783c-0.6,0.671 -1.115,1.369 -1.501,2.142c3.814,-0.301 4.998,-2.028 8.369,-2.5c-0.401,0.657 -0.803,1.37 -1.255,1.857c1.155,-0.785 4.583,-2.172 4.897,-2.214c-0.287,0.572 -0.543,1.172 -0.844,1.686c0.971,-0.773 3.556,-2.014 3.67,-2.028c-0.213,0.514 -0.498,1.272 -0.612,1.542c1.283,-0.585 4.11,-2.071 4.225,-2.086c-0.458,0.357 -0.885,0.729 -1.27,1.144c3.841,0.585 7.953,-0.586 10.88,-3.186c-0.585,0.614 -1.2,1.214 -1.857,1.787c1.828,-0.501 6.355,-3.3 6.969,-3.526c-0.284,0.797 -0.556,1.611 -0.986,2.341c0.886,-1.059 2.315,-1.928 3.257,-3.057c0.071,0.514 -0.071,1.072 -0.014,1.586c0.872,-1.014 3.028,-3.4 3.497,-3.714c-0.127,0.973 -0.286,1.927 -0.397,2.756c2.127,-1.386 3.624,-3.527 4.01,-6.055c0.216,0.459 0.385,1.015 0.543,1.501c0.372,-2.228 0.357,-4.57 0.014,-6.8c0.315,0.558 0.885,1.428 1.185,2.143c0.274,-4.112 -1.455,-7.539 -3.64,-10.806c-0.585,-2.559 -1.385,-5.071 -2.413,-7.456c0.684,0.742 1.657,2.041 2.17,2.784c-0.6,-2.326 -0.172,-3.942 -1.799,-7.439c0.015,-0.087 1.671,0.599 1.742,0.884c-0.358,-1.798 -1.015,-6.124 -1.085,-6.712c0.242,0.501 0.471,1.015 0.698,1.5c-0.135,-4.779 -0.593,-9.704 -2.013,-14.28c0.143,0.159 0.301,0.4 0.416,0.659c0.226,0.456 0.384,0.927 0.314,0.97c1.095,-1.142 0.684,-3.347 1.784,-4.486c0.172,0.457 0.414,1.959 0.871,2.158c-0.543,-2.227 0.016,-4.956 -0.399,-7.27c0.141,0.246 1.142,2.356 1.198,2.356c1.898,-3.926 2.972,-6.909 2.228,-11.937c0.272,0.17 0.885,1.385 0.9,1.599c0.257,-1.141 0.129,-2.454 0.442,-3.627c0,0.23 0.402,1.23 0.472,1.241c0.701,-2.439 1.215,-5.023 1.885,-7.394c0.128,0.269 0.715,2.155 1.015,2.155c0.414,-0.384 -0.042,-3.326 0.312,-3.813c0.371,0.487 1.214,0.873 1.315,1.186c1.326,-5.156 1.03,-8.452 1.27,-13.809c0.486,1.172 1.343,2.543 1.858,3.798c0.442,-2.012 1.512,-4.982 0.799,-12.065c0.384,1.513 0.885,3.169 1.213,4.725c1.528,-7.881 -1.429,-16.892 -1.413,-17.493c0.2,0.331 0.584,0.988 1.03,1.815c0.335,-4.556 0.292,-8.759 0.025,-12.601c1.127,0.929 2.339,1.582 2.896,2.005c-0.01,-0.041 -0.111,-0.238 -0.25,-0.531c-0.28,-0.601 -0.689,-1.612 -0.74,-2.634l0.108,-0.024c0.837,1.04 1.952,1.708 2.614,2.721c0.076,-1.029 0.349,-2.131 0.262,-3.178c0.288,0.234 0.667,1.34 1.258,1.197c-0.235,-1.119 0.324,-3.106 -0.028,-4.491c0.541,0.171 1.198,0.538 1.68,0.764c0.898,-2.343 -1.225,-8.054 -1.238,-8.211" clip-rule="nonzero"/></clipPath><g clip-path="url(#_clip1)"><path d="M69.374,94.169c0.686,1.296 2.305,1.308 3.065,2.507c0.19,-0.221 0.69,-0.34 0.88,-0.56c1.12,1.026 1.885,2.467 2.973,3.53c0.142,-0.25 0.546,-0.417 0.684,-0.807c0.601,0.574 1.075,1.332 1.682,1.917c0.273,-0.301 0.907,-0.497 1.179,-0.799c0.993,0.966 1.717,2.256 2.724,3.201c1.116,-0.722 1.947,0.682 2.617,1.439c1.352,-1.382 1.954,0.279 2.914,1.183c0.628,-0.37 1.148,-0.909 1.776,-1.28c0.547,0.871 1.442,0.971 2.039,1.733c1.544,-1.016 2.739,2.277 4.283,1.261c0.519,0.648 1.577,1.224 2.379,1.483c-0.135,-2.618 3.424,0.121 4.86,-0.391c-0.099,-0.219 -0.199,-0.436 -0.302,-0.652c0.196,-0.033 0.446,-0.133 0.628,-0.143c0.038,-0.911 0.968,-0.888 1.533,-1.215c-0.485,-0.496 -0.655,-1.047 -0.343,-1.607c0.335,0.119 0.804,-0.004 1.035,0.047c-0.328,-0.732 -0.508,-1.498 -1.016,-2.122c0.766,-0.255 1.503,0.299 2.334,-0.079c0.171,-0.852 -0.854,-1.56 -1.287,-2.284c0.632,-0.259 1.429,-0.139 2.08,-0.254c-0.595,-1.04 -2.481,-2.385 -2.208,-3.65c0.801,-0.32 1.66,-0.03 2.333,-0.508c-0.301,-0.284 -0.51,-0.937 -0.819,-1.219c0.312,-0.467 0.76,-0.679 1.273,-0.65c-0.367,-0.663 -0.917,-1.205 -1.308,-1.852c0.495,-0.536 1.13,-0.929 1.626,-1.466c-0.531,-0.859 -1.295,-1.587 -1.802,-2.462c0.605,-0.12 1.117,0.15 1.709,0.413c-0.099,-0.844 -0.927,-2.525 -1.468,-3.151c0.641,-0.145 1.38,-0.021 1.838,-0.576c-0.414,-0.838 -0.627,-1.675 -1.257,-2.382c0.434,-0.401 0.895,-0.824 1.329,-1.225c-0.383,-0.642 -0.93,-1.181 -1.312,-1.823c0.585,-0.621 1.34,-1.086 1.924,-1.706c0.456,-3.048 -0.879,-6.16 -0.045,-7.148c-0.221,-0.229 0.174,-4.462 -0.055,-4.679c0.898,-0.168 -0.059,-3.042 0.774,-2.808c0.061,-0.911 0.758,-3.755 0.897,-4.524c0.561,0.693 3.279,2.838 3.82,3.55c0.307,0.404 2.479,0.751 2.573,0.482c0.491,0.371 -3.287,3.353 -2.652,3.309c1.255,-0.085 1.714,2.303 1.147,3.234c0.434,1.016 1.531,1.519 2.409,1.93c-0.405,0.578 -1.215,0.592 -1.825,0.605c0.633,1.104 1.643,2 2.291,3.091c-0.385,0.333 -0.896,0.458 -1.465,0.412c0.749,1.286 2.003,2.339 2.728,3.651c-0.424,-0.012 -1.012,-0.289 -1.392,-0.669c-0.258,1.601 4.078,5.755 1.772,7.05c0.515,0.844 1.682,1.625 1.498,2.697c-0.664,0.275 -1.534,0.259 -2.285,0.09c-0.041,1.237 1.932,3.615 2.668,4.682c-0.6,-0.017 -1.348,-0.514 -2.016,-0.305c0.476,0.701 0.793,1.609 0.792,2.32c-1.025,-0.145 -2.27,-1.213 -2.936,-0.056c1.234,1.36 1.636,3.393 2.382,5.039c-0.559,0.068 -1.068,-0.239 -1.537,-0.689c-0.445,0.862 1.11,4.182 1.66,5.14c-0.521,-0.017 -1.065,-0.299 -1.653,-0.495c0.257,1.011 1.13,1.867 1.145,2.917c-0.866,0.488 -1.775,0.231 -2.603,0.171c0.533,1.161 2.033,3.185 1.903,4.338c-0.889,-0.075 -1.694,-0.824 -2.517,-0.808c0.33,0.728 0.51,1.496 1.008,2.128c-0.237,-0.052 -0.959,0.113 -1.206,0.064c0.165,0.347 0.087,0.876 0.257,1.222c-0.951,0.188 -2.53,-0.74 -2.718,0.68c-0.077,0.594 1.085,2.461 1.095,3.156c-0.349,-0.492 -0.869,-1.054 -1.498,-1.1c0.682,1.506 1.269,2.718 1.832,4.246c-0.472,-0.177 -0.972,-0.363 -1.442,-0.541c0.272,1.135 0.776,2.302 0.874,3.515c-0.886,0.068 -1.832,0.332 -2.7,0.019c-0.258,0.726 1.264,3.688 1.805,4.37c-1.096,0.311 1.104,-2.225 0.258,-1.624c-0.548,0.39 -0.228,3.691 -0.247,4.645c-2.081,-0.596 -3.859,-6.576 -6.708,-3.723c-0.409,-0.447 -0.839,-0.922 -1.246,-1.372c-0.189,0.222 -0.692,0.341 -0.881,0.563c-0.842,-1.085 -1.769,-1.381 -2.721,-0.333c-0.544,-0.513 -0.95,-1.164 -1.493,-1.678c-0.271,0.303 -0.905,0.498 -1.177,0.799c-0.681,-0.437 -1.043,-1.715 -1.428,-2.284c-0.626,-0.921 -1.349,-1.572 -1.668,-2.639c-0.198,0.103 -0.397,0.205 -0.595,0.308c-0.662,-0.577 -1.108,-1.379 -1.75,-1.991c-0.189,0.23 -0.675,0.358 -0.867,0.577c-0.63,-0.608 -1.109,-1.381 -1.739,-1.987c-0.627,0.372 -1.147,0.911 -1.775,1.282c-0.423,-0.404 -0.939,-1.467 -1.495,-1.649c-0.734,-0.24 -1.287,0.592 -1.979,0.382c-1.113,-0.339 -2.195,-2.314 -3.283,-2.81c-1.224,-0.558 -1.1,0.007 -2.264,-0.156c-1.62,-0.229 -0.751,-0.494 -1.309,-1.37c-0.442,-0.694 -1.178,-2.63 -2.457,-1.782c-0.734,-0.498 -0.842,-1.681 -1.118,-2.411c-1.275,-0.168 -0.433,-1.214 -0.899,-1.916c-0.244,-0.367 -1.113,-0.582 -1.45,-0.905c-0.082,-0.077 -0.142,-0.91 -0.318,-1.147c-0.488,0.391 -1.11,0.74 -1.776,0.712c-0.133,-0.782 0.13,-1.797 -0.535,-2.397c-0.67,0.35 -1.154,0.937 -1.807,1.295c-0.796,-0.769 1.311,-5.151 -2.146,-3.361c0.166,-0.504 0.375,-1.011 0.612,-1.493c-0.99,-0.13 -2.356,-0.912 -1.185,-2.078c-1.74,0.107 -1.849,-1.79 -1.974,-3.17c0.123,0.176 0.253,0.349 0.389,0.517l3.671,-0.941Z" style="fill:#eefbfb;fill-rule:nonzero;"/></g></svg>