<?xml version="1.0" encoding="UTF-8" standalone="no"?><!DOCTYPE svg PUBLIC "-//W3C//DTD SVG 1.1//EN" "http://www.w3.org/Graphics/SVG/1.1/DTD/svg11.dtd"><svg width="100%" height="100%" viewBox="0 0 30 26" version="1.1" xmlns="http://www.w3.org/2000/svg" xmlns:xlink="http://www.w3.org/1999/xlink" xml:space="preserve" xmlns:serif="http://www.serif.com/" style="fill-rule:evenodd;clip-rule:evenodd;stroke-linejoin:round;stroke-miterlimit:2;"><path d="M0,12.69c0.348,-1.257 0.872,-2.58 0.666,-3.809c0.226,0.189 0.815,0.349 1.124,0.663c1.461,-0.88 0.685,-4.218 3.08,-1.372c0.701,-1.383 2.128,-3.173 2.637,-4.809c0.149,1.159 0.098,3.356 1.256,3.881c0.436,-0.953 1.457,-2.068 2.053,-3.183c-0.135,0.813 -0.145,1.631 0.218,2.323c0.862,-1.134 1.287,-2.476 2.241,-3.572c0.821,-0.944 2.502,-1.627 2.948,-2.812c-0.5,1.473 -1.338,3.202 -0.558,4.69c0.227,-0.285 0.897,-0.629 1.135,-0.958c0.082,0.578 0.143,1.012 -0.191,1.642c0.821,-0.548 1.724,-1.326 2.65,-1.702c0.369,1 -0.348,1.887 -0.354,2.898c1.157,-0.175 2.227,-1.574 3.35,-1.933c-0.45,1.359 -1.527,4.117 -0.753,5.412c1.41,-0.149 1.739,-2.28 3.459,-1.939c-0.05,1.749 -2.359,3.887 -1.374,5.497c1.136,0.039 2.214,-0.322 3.14,-0.917c0.369,0.858 -3.618,7.337 0.795,5.183c-0.653,1.292 -2.034,1.972 -1.084,3.582c0.593,0.005 0.695,0.306 1.043,0.393c-0.653,0.699 -1.784,1.658 -1.999,2.696c1.253,0.98 2.495,0.623 3.92,0.519" style="fill:#fff;fill-rule:nonzero;"/></svg>