<?xml version="1.0" encoding="UTF-8" standalone="no"?><!DOCTYPE svg PUBLIC "-//W3C//DTD SVG 1.1//EN" "http://www.w3.org/Graphics/SVG/1.1/DTD/svg11.dtd"><svg width="100%" height="100%" viewBox="0 0 27 27" version="1.1" xmlns="http://www.w3.org/2000/svg" xmlns:xlink="http://www.w3.org/1999/xlink" xml:space="preserve" xmlns:serif="http://www.serif.com/" style="fill-rule:evenodd;clip-rule:evenodd;stroke-linejoin:round;stroke-miterlimit:2;"><path d="M26.839,9.714c-0.559,-1.178 -1.302,-2.392 -1.311,-3.638c-0.19,0.225 -0.742,0.483 -0.993,0.846c-1.591,-0.616 -1.4,-4.037 -3.27,-0.823c-0.929,-1.242 -2.642,-2.76 -3.424,-4.284c0.052,1.168 0.48,3.323 -0.57,4.039c-0.593,-0.864 -1.792,-1.787 -2.57,-2.782c0.272,0.777 0.424,1.581 0.185,2.326c-1.045,-0.969 -1.694,-2.218 -2.822,-3.135c-0.971,-0.789 -2.744,-1.173 -3.387,-2.263c0.745,1.365 1.868,2.925 1.355,4.524c-0.273,-0.241 -0.992,-0.465 -1.282,-0.748c0.018,0.583 0.033,1.021 0.47,1.584c-0.903,-0.398 -1.926,-1.009 -2.903,-1.22c-0.192,1.047 0.667,1.798 0.846,2.794c-1.169,0.026 -2.464,-1.169 -3.632,-1.329c0.677,1.261 2.212,3.793 1.672,5.202c-1.415,0.095 -2.105,-1.948 -3.741,-1.316c0.35,1.714 2.992,3.424 2.298,5.179c-1.112,0.233 -2.236,0.064 -3.25,-0.364c-0.217,0.909 4.824,6.607 0.107,5.243c0.865,1.16 2.342,1.593 1.683,3.343c-0.583,0.106 -0.632,0.42 -0.959,0.565c0.763,0.577 2.042,1.327 2.432,2.313c-1.066,1.181 -2.351,1.043 -3.773,1.185" style="fill:#fff;fill-rule:nonzero;"/></svg>