<?xml version="1.0" encoding="UTF-8" standalone="no"?><!DOCTYPE svg PUBLIC "-//W3C//DTD SVG 1.1//EN" "http://www.w3.org/Graphics/SVG/1.1/DTD/svg11.dtd"><svg width="100%" height="100%" viewBox="0 0 224 76" version="1.1" xmlns="http://www.w3.org/2000/svg" xmlns:xlink="http://www.w3.org/1999/xlink" xml:space="preserve" xmlns:serif="http://www.serif.com/" style="fill-rule:evenodd;clip-rule:evenodd;stroke-linejoin:round;stroke-miterlimit:2;"><path d="M222.303,44.003c0.272,-0.511 -0.362,3.495 0.877,-9.441c-20.794,1.859 -36.92,5.331 -54.26,-4.556c-12.404,-7.009 -24.245,-11.854 -35.577,-14.524c-5.502,-1.233 -10.954,-2.253 -16.343,-3.008c5.842,-1.142 -22.76,-5.036 -25.985,-5.401l-15.962,-2.818c-15.062,-2.805 -27.583,-3.852 -37.591,-3.023c-9.216,1.092 -17.831,0.923 -25.87,-0.612c-7.43,-1.566 -11.304,-0.156 -11.592,4.11c0.152,3.996 4.16,7.706 11.919,11.155c3.429,1.717 6.963,4.363 10.709,7.909c17.977,17.633 36.678,31.176 55.971,40.55c5.217,21.064 106.631,10.616 142.763,-12.671l0.941,-7.67Z" style="fill:#b70f0f;fill-opacity:0.12;fill-rule:nonzero;"/></svg>