<?xml version="1.0" encoding="UTF-8" standalone="no"?><!DOCTYPE svg PUBLIC "-//W3C//DTD SVG 1.1//EN" "http://www.w3.org/Graphics/SVG/1.1/DTD/svg11.dtd"><svg width="100%" height="100%" viewBox="0 0 290 120" version="1.1" xmlns="http://www.w3.org/2000/svg" xmlns:xlink="http://www.w3.org/1999/xlink" xml:space="preserve" xmlns:serif="http://www.serif.com/" style="fill-rule:evenodd;clip-rule:evenodd;stroke-linejoin:round;stroke-miterlimit:2;"><path d="M131.532,32.243c1.892,-1.315 3.866,-2.878 5.757,-4.688c1.973,-1.644 3.7,-3.535 5.346,-5.427c1.725,-2.138 3.042,-4.44 3.946,-7.072c0.904,-2.549 1.315,-5.92 1.151,-9.95c-0.082,-4.029 0.247,-5.674 1.069,-4.934c5.592,2.386 9.95,6.085 13.076,11.102c4.357,7.071 10.031,12.581 16.857,16.529c1.315,0.822 2.796,1.397 4.359,1.726c38.237,1.645 72.693,8.717 103.284,21.134l0.246,0.083c3.783,1.479 3.865,3.453 0.246,5.92c-2.219,0.987 -4.522,1.891 -6.989,2.632c-2.303,0.658 -5.181,1.726 -8.634,3.125c-1.81,0.247 -3.651,0.082 -6.201,0.164l-4.078,-0.164l0,-0.345c-0.164,0.411 0.988,1.376 0.988,1.87c0.74,-0.082 4.028,0.284 4.851,0.284c0.164,1.397 -0.659,2.466 -2.303,3.125c-1.727,0.74 -2.879,1.151 -3.536,1.398l-14.144,4.687c-17.763,4.687 -33.141,7.976 -46.133,9.703c-14.884,23.93 -29.274,36.1 -43.171,36.511c-2.468,-0.164 -2.468,-1.645 0,-4.44c0.082,-0.083 1.067,-1.48 2.959,-4.194c1.892,-2.632 4.276,-7.154 7.073,-13.568c1.644,-3.537 2.547,-7.154 2.713,-10.691c-8.14,0.658 -25.985,-3.453 -53.698,-12.334c-1.809,0.493 -4.193,1.069 -7.153,1.809c-2.549,0.575 -5.017,1.562 -7.319,2.96c-0.575,0.329 -1.152,0.739 -1.563,1.316c-0.494,-2.139 -1.563,-4.276 -3.291,-6.415c-1.478,-2.056 -3.536,-3.453 -6.001,-4.275c-0.822,-0.247 -1.646,-0.576 -2.466,-1.069c1.807,-0.494 3.533,-1.152 5.425,-1.81c-3.946,-1.398 -8.057,-2.795 -12.336,-4.358c-1.808,0 -4.11,0.74 -6.823,2.138c-0.988,0.493 -1.892,1.152 -2.714,1.891c-0.822,-2.138 -2.385,-3.946 -4.852,-5.344c-0.492,-0.33 -1.15,-0.494 -1.725,-0.658c1.314,-0.658 2.878,-0.988 4.522,-1.152c-5.43,-1.07 -10.199,-1.563 -14.145,-1.398c-4.769,6.086 -10.36,12.089 -16.694,17.927c-6.413,5.838 -12.336,9.868 -17.845,12.088c-3.122,1.316 -6.083,2.138 -8.878,2.55c-1.647,-0.576 -0.741,-3.456 2.63,-8.471c3.452,-5.016 6.085,-11.842 8.059,-20.558c1.973,-8.717 -1.811,-19.489 -11.185,-32.4c-4.77,-5.837 -7.484,-9.374 -8.307,-10.526c-0.818,-1.232 -1.807,-2.466 -2.959,-3.782c-1.233,-1.398 -1.233,-2.55 -0.163,-3.454c17.103,2.878 32.975,12.746 47.695,29.521c3.29,4.523 7.317,6.744 12.006,6.497c5.591,-0.822 11.183,-1.727 16.776,-2.632c-1.975,-0.493 -4.03,-0.822 -6.087,-1.233c1.974,-0.74 3.372,-1.398 4.36,-1.973c0.986,-0.576 2.054,-1.317 3.125,-2.303c1.15,-0.986 2.219,-0.986 3.124,-0.082c1.891,1.809 4.03,3.043 6.333,3.701c15.869,-2.715 31.822,-5.839 48.022,-9.129l0.083,0c0.904,-0.246 1.727,-0.411 2.549,-0.575c-0.904,0.164 -1.81,0.329 -2.632,0.575c-1.644,-0.411 -3.124,-0.905 -4.605,-1.562" style="fill:#76b07b;fill-rule:nonzero;"/></svg>