<?xml version="1.0" encoding="UTF-8" standalone="no"?><!DOCTYPE svg PUBLIC "-//W3C//DTD SVG 1.1//EN" "http://www.w3.org/Graphics/SVG/1.1/DTD/svg11.dtd"><svg width="100%" height="100%" viewBox="0 0 76 90" version="1.1" xmlns="http://www.w3.org/2000/svg" xmlns:xlink="http://www.w3.org/1999/xlink" xml:space="preserve" xmlns:serif="http://www.serif.com/" style="fill-rule:evenodd;clip-rule:evenodd;stroke-linejoin:round;stroke-miterlimit:2;"><path d="M26.133,72.068c0.272,-0.511 0.625,-1.154 0.929,-2.009c3.426,-5.952 9.822,-10.471 19.241,-13.57c1.143,-0.38 2.034,-0.644 2.566,-0.768c9.059,-2.959 16.239,-6.765 21.685,-11.511c4.559,-5.657 6.163,-9.336 4.771,-10.97c-2.57,0.993 -5.314,1.243 -8.179,0.737c-0.397,-0.019 -0.872,-0.132 -1.531,-0.314l-0.196,-0.122c-0.107,0.025 -0.16,0.037 -0.226,-0.003c-8.396,-2.348 -16.535,-1.677 -24.296,2.043c-3.014,1.488 -4.867,1.474 -5.505,-0.057c-0.869,-2.988 -2.622,-3.53 -5.217,-1.691c-1.503,-6.648 -4.378,-11.742 -8.627,-15.284c-5.429,-5.225 -7.585,-10.6 -6.523,-16.112c0.5,-2.412 0.072,-3.04 -1.163,-1.855c-11.673,14.768 -11.005,30.289 1.867,46.708c7.614,12.16 5.042,21.273 -7.719,27.337c-18.794,6.859 1.378,14.963 1.378,14.963c7.988,-5.619 13.568,-11.46 16.745,-17.522" style="fill:#e34343;fill-opacity:0.12;fill-rule:nonzero;"/></svg>