<?xml version="1.0" encoding="UTF-8" standalone="no"?>
<!DOCTYPE svg PUBLIC "-//W3C//DTD SVG 1.1//EN" "http://www.w3.org/Graphics/SVG/1.1/DTD/svg11.dtd">
<svg width="100%" height="100%" viewBox="0 0 258 250" version="1.1" xmlns="http://www.w3.org/2000/svg" xmlns:xlink="http://www.w3.org/1999/xlink" xml:space="preserve" xmlns:serif="http://www.serif.com/" style="fill-rule:evenodd;clip-rule:evenodd;stroke-linejoin:round;stroke-miterlimit:2;">
    <g transform="matrix(1,0,0,1,-68.1188,-1952.25)">
        <g transform="matrix(0.971143,0,0,4.2523,-154.993,-2546.78)">
            <g transform="matrix(0.426422,-0.0410353,0.179679,0.0973866,-85.7395,944.355)">
                <path d="M473.071,1390C473.071,1390 461.821,1413.63 461.821,1423.75C461.821,1429.96 466.862,1435 473.071,1435C479.28,1435 484.321,1429.96 484.321,1423.75C484.321,1413.63 473.071,1390 473.071,1390Z" style="fill:rgb(242,230,240);"/>
            </g>
            <g transform="matrix(0.426422,-0.0410353,0.179679,0.0973866,-221.662,983.628)">
                <path d="M473.071,1390C473.071,1390 461.821,1413.63 461.821,1423.75C461.821,1429.96 466.862,1435 473.071,1435C479.28,1435 484.321,1429.96 484.321,1423.75C484.321,1413.63 473.071,1390 473.071,1390Z" style="fill:rgb(242,230,240);"/>
            </g>
            <g transform="matrix(0.426422,-0.0410353,0.179679,0.0973866,-120.75,996.327)">
                <path d="M473.071,1390C473.071,1390 461.821,1413.63 461.821,1423.75C461.821,1429.96 466.862,1435 473.071,1435C479.28,1435 484.321,1429.96 484.321,1423.75C484.321,1413.63 473.071,1390 473.071,1390Z" style="fill:rgb(242,230,240);"/>
            </g>
            <g transform="matrix(0.426422,-0.0410353,0.179679,0.0973866,-19.8915,948.326)">
                <path d="M473.071,1390C473.071,1390 461.821,1413.63 461.821,1423.75C461.821,1429.96 466.862,1435 473.071,1435C479.28,1435 484.321,1429.96 484.321,1423.75C484.321,1413.63 473.071,1390 473.071,1390Z" style="fill:rgb(242,230,240);"/>
            </g>
            <g transform="matrix(0.426422,-0.0410353,0.179679,0.0973866,-42.5452,973.018)">
                <path d="M473.071,1390C473.071,1390 461.821,1413.63 461.821,1423.75C461.821,1429.96 466.862,1435 473.071,1435C479.28,1435 484.321,1429.96 484.321,1423.75C484.321,1413.63 473.071,1390 473.071,1390Z" style="fill:rgb(242,230,240);"/>
            </g>
            <g transform="matrix(0.426422,-0.0410353,0.179679,0.0973866,32.4354,955.864)">
                <path d="M473.071,1390C473.071,1390 461.821,1413.63 461.821,1423.75C461.821,1429.96 466.862,1435 473.071,1435C479.28,1435 484.321,1429.96 484.321,1423.75C484.321,1413.63 473.071,1390 473.071,1390Z" style="fill:rgb(247,239,246);"/>
            </g>
            <g transform="matrix(0.426422,-0.0410353,0.179679,0.0973866,-173.89,983.329)">
                <path d="M473.071,1390C473.071,1390 461.821,1413.63 461.821,1423.75C461.821,1429.96 466.862,1435 473.071,1435C479.28,1435 484.321,1429.96 484.321,1423.75C484.321,1413.63 473.071,1390 473.071,1390Z" style="fill:rgb(242,230,240);"/>
            </g>
            <g transform="matrix(0.488966,-0.047054,0.206033,0.11167,-210.59,925.061)">
                <path d="M473.071,1390C473.071,1390 461.821,1413.63 461.821,1423.75C461.821,1429.96 466.862,1435 473.071,1435C479.28,1435 484.321,1429.96 484.321,1423.75C484.321,1413.63 473.071,1390 473.071,1390Z" style="fill:rgb(247,239,246);"/>
            </g>
            <g transform="matrix(0.554349,-0.0533459,0.233583,0.126603,-213.834,922.111)">
                <path d="M473.071,1390C473.071,1390 461.821,1413.63 461.821,1423.75C461.821,1429.96 466.862,1435 473.071,1435C479.28,1435 484.321,1429.96 484.321,1423.75C484.321,1413.63 473.071,1390 473.071,1390Z" style="fill:rgb(233,185,227);"/>
            </g>
            <g transform="matrix(0.511706,-0.0492424,0.215615,0.116864,-235.799,931.851)">
                <path d="M473.071,1390C473.071,1390 461.821,1413.63 461.821,1423.75C461.821,1429.96 466.862,1435 473.071,1435C479.28,1435 484.321,1429.96 484.321,1423.75C484.321,1413.63 473.071,1390 473.071,1390Z" style="fill:rgb(233,185,227);"/>
            </g>
            <g transform="matrix(0.511706,-0.0492424,0.215615,0.116864,-180.618,962.049)">
                <path d="M473.071,1390C473.071,1390 461.821,1413.63 461.821,1423.75C461.821,1429.96 466.862,1435 473.071,1435C479.28,1435 484.321,1429.96 484.321,1423.75C484.321,1413.63 473.071,1390 473.071,1390Z" style="fill:rgb(245,210,230);"/>
            </g>
            <g transform="matrix(0.511706,-0.0492424,0.215615,0.116864,-84.8549,958.991)">
                <path d="M473.071,1390C473.071,1390 461.821,1413.63 461.821,1423.75C461.821,1429.96 466.862,1435 473.071,1435C479.28,1435 484.321,1429.96 484.321,1423.75C484.321,1413.63 473.071,1390 473.071,1390Z" style="fill:rgb(245,210,230);"/>
            </g>
            <g transform="matrix(0.511706,-0.0492424,0.215615,0.116864,-253.499,948.495)">
                <path d="M473.071,1390C473.071,1390 461.821,1413.63 461.821,1423.75C461.821,1429.96 466.862,1435 473.071,1435C479.28,1435 484.321,1429.96 484.321,1423.75C484.321,1413.63 473.071,1390 473.071,1390Z" style="fill:rgb(245,210,230);"/>
            </g>
            <g transform="matrix(0.511706,-0.0492424,0.215615,0.116864,-288.898,935.418)">
                <path d="M473.071,1390C473.071,1390 461.821,1413.63 461.821,1423.75C461.821,1429.96 466.862,1435 473.071,1435C479.28,1435 484.321,1429.96 484.321,1423.75C484.321,1413.63 473.071,1390 473.071,1390Z" style="fill:rgb(233,185,227);"/>
            </g>
            <g transform="matrix(0.511706,-0.0492424,0.215615,0.116864,-188.948,946.593)">
                <path d="M473.071,1390C473.071,1390 461.821,1413.63 461.821,1423.75C461.821,1429.96 466.862,1435 473.071,1435C479.28,1435 484.321,1429.96 484.321,1423.75C484.321,1413.63 473.071,1390 473.071,1390Z" style="fill:rgb(247,231,244);"/>
            </g>
        </g>
    </g>
</svg>
