<?xml version="1.0" encoding="UTF-8" standalone="no"?>
<!DOCTYPE svg PUBLIC "-//W3C//DTD SVG 1.1//EN" "http://www.w3.org/Graphics/SVG/1.1/DTD/svg11.dtd">
<svg width="100%" height="100%" viewBox="0 0 12 12" version="1.1" xmlns="http://www.w3.org/2000/svg" xmlns:xlink="http://www.w3.org/1999/xlink" xml:space="preserve" xmlns:serif="http://www.serif.com/" style="fill-rule:evenodd;clip-rule:evenodd;stroke-linejoin:round;stroke-miterlimit:2;">
    <g transform="matrix(1,0,0,1,-1178,-901.326)">
        <g transform="matrix(1,0,0,1,-0.258205,-316)">
            <g transform="matrix(0.666667,0,0,0.666667,462.603,773.573)">
                <path d="M1091.48,674.63C1091.48,673.802 1090.81,673.13 1089.98,673.13L1074.98,673.13C1074.16,673.13 1073.48,673.802 1073.48,674.63C1073.48,675.457 1074.16,676.13 1074.98,676.13L1089.98,676.13C1090.81,676.13 1091.48,675.457 1091.48,674.63Z" style="fill:rgb(125,111,178);"/>
                <path d="M1089.98,673.13C1090.81,673.13 1091.48,673.802 1091.48,674.63C1091.48,675.457 1090.81,676.13 1089.98,676.13L1074.98,676.13C1074.16,676.13 1073.48,675.457 1073.48,674.63C1073.48,673.802 1074.16,673.13 1074.98,673.13L1089.98,673.13Z" style="fill:rgb(125,111,178);"/>
            </g>
        </g>
        <g transform="matrix(1,0,0,1,-0.258205,-316)">
            <g transform="matrix(-1.22465e-16,0.666667,-0.666667,-1.22465e-16,1634.01,501.67)">
                <path d="M1091.48,674.63C1091.48,673.802 1090.81,673.13 1089.98,673.13L1074.98,673.13C1074.16,673.13 1073.48,673.802 1073.48,674.63C1073.48,675.457 1074.16,676.13 1074.98,676.13L1089.98,676.13C1090.81,676.13 1091.48,675.457 1091.48,674.63Z" style="fill:rgb(125,111,178);"/>
                <path d="M1091.48,674.63C1091.48,673.802 1090.81,673.13 1089.98,673.13L1074.98,673.13C1074.16,673.13 1073.48,673.802 1073.48,674.63C1073.48,675.457 1074.16,676.13 1074.98,676.13L1089.98,676.13C1090.81,676.13 1091.48,675.457 1091.48,674.63Z" style="fill:rgb(125,111,178);"/>
            </g>
        </g>
    </g>
</svg>
