<?xml version="1.0" encoding="UTF-8" standalone="no"?>
<!DOCTYPE svg PUBLIC "-//W3C//DTD SVG 1.1//EN" "http://www.w3.org/Graphics/SVG/1.1/DTD/svg11.dtd">
<svg width="100%" height="100%" viewBox="0 0 21 41" version="1.1" xmlns="http://www.w3.org/2000/svg" xmlns:xlink="http://www.w3.org/1999/xlink" xml:space="preserve" xmlns:serif="http://www.serif.com/" style="fill-rule:evenodd;clip-rule:evenodd;stroke-linejoin:round;stroke-miterlimit:2;">
    <g transform="matrix(1,0,0,1,-1194.55,-1085.36)">
        <g transform="matrix(2.10628,0,0,2.10628,30.054,415.721)">
            <g transform="matrix(0,-1,-1,0,557.663,317.92)">
                <path d="M-1.87,-1.87C-2.901,-1.87 -3.736,-1.032 -3.736,0C-3.736,1.032 -2.901,1.87 -1.87,1.87C-0.839,1.87 -0.003,1.032 -0.003,0C-0.003,-1.032 -0.839,-1.87 -1.87,-1.87" style="fill:rgb(109,196,152);fill-rule:nonzero;"/>
            </g>
        </g>
        <g transform="matrix(2.10628,0,0,2.10628,30.054,415.721)">
            <g transform="matrix(0,-1,-1,0,555.778,320.025)">
                <path d="M-1.869,-1.869C-2.899,-1.869 -3.735,-1.032 -3.735,0C-3.735,1.032 -2.899,1.869 -1.869,1.869C-0.838,1.869 -0.003,1.032 -0.003,0C-0.003,-1.032 -0.838,-1.869 -1.869,-1.869" style="fill:rgb(109,196,152);fill-rule:nonzero;"/>
            </g>
        </g>
        <g transform="matrix(2.10628,0,0,2.10628,30.054,415.721)">
            <g transform="matrix(0,-1,-1,0,554.739,322.896)">
                <path d="M-1.87,-1.87C-2.899,-1.87 -3.736,-1.032 -3.736,0.001C-3.736,1.032 -2.899,1.87 -1.87,1.87C-0.839,1.87 -0.003,1.032 -0.003,0.001C-0.003,-1.032 -0.839,-1.87 -1.87,-1.87" style="fill:rgb(109,196,152);fill-rule:nonzero;"/>
            </g>
        </g>
        <g transform="matrix(2.10628,0,0,2.10628,30.054,415.721)">
            <g transform="matrix(0,-1,-1,0,556.848,323.949)">
                <path d="M-1.869,-1.869C-2.899,-1.869 -3.735,-1.032 -3.735,0C-3.735,1.032 -2.899,1.869 -1.869,1.869C-0.838,1.869 -0.003,1.032 -0.003,0C-0.003,-1.032 -0.838,-1.869 -1.869,-1.869" style="fill:rgb(109,196,152);fill-rule:nonzero;"/>
            </g>
        </g>
        <g transform="matrix(2.10628,0,0,2.10628,30.054,415.721)">
            <g transform="matrix(0,-1,-1,0,559.101,325.481)">
                <path d="M-1.15,-1.15C-1.785,-1.15 -2.298,-0.635 -2.298,0C-2.298,0.635 -1.785,1.15 -1.15,1.15C-0.516,1.15 -0.002,0.635 -0.002,0C-0.002,-0.635 -0.516,-1.15 -1.15,-1.15" style="fill:rgb(109,196,152);fill-rule:nonzero;"/>
            </g>
        </g>
        <g transform="matrix(2.10628,0,0,2.10628,30.054,415.721)">
            <g transform="matrix(0,-1,-1,0,555.793,319.021)">
                <path d="M-1.15,-1.15C-1.785,-1.15 -2.298,-0.635 -2.298,0C-2.298,0.635 -1.785,1.15 -1.15,1.15C-0.516,1.15 -0.002,0.635 -0.002,0C-0.002,-0.635 -0.516,-1.15 -1.15,-1.15" style="fill:rgb(109,196,152);fill-rule:nonzero;"/>
            </g>
        </g>
        <g transform="matrix(2.10628,0,0,2.10628,30.054,415.721)">
            <g transform="matrix(0,-1,-1,0,554.595,322.227)">
                <path d="M-1.15,-1.15C-1.785,-1.15 -2.298,-0.635 -2.298,0C-2.298,0.635 -1.785,1.15 -1.15,1.15C-0.516,1.15 -0.002,0.635 -0.002,0C-0.002,-0.635 -0.516,-1.15 -1.15,-1.15" style="fill:rgb(109,196,152);fill-rule:nonzero;"/>
            </g>
        </g>
        <g transform="matrix(2.10628,0,0,2.10628,30.054,415.721)">
            <g transform="matrix(0,-1,-1,0,560.06,322.8)">
                <path d="M-1.87,-1.87C-2.901,-1.87 -3.736,-1.032 -3.736,0C-3.736,1.031 -2.901,1.87 -1.87,1.87C-0.839,1.87 -0.003,1.031 -0.003,0C-0.003,-1.032 -0.839,-1.87 -1.87,-1.87" style="fill:rgb(109,196,152);fill-rule:nonzero;"/>
            </g>
        </g>
        <g transform="matrix(2.10628,0,0,2.10628,30.054,415.721)">
            <g transform="matrix(0,-1,-1,0,560.875,320.503)">
                <path d="M-1.87,-1.87C-2.899,-1.87 -3.736,-1.032 -3.736,0.001C-3.736,1.032 -2.899,1.87 -1.87,1.87C-0.839,1.87 -0.003,1.032 -0.003,0.001C-0.003,-1.032 -0.839,-1.87 -1.87,-1.87" style="fill:rgb(109,196,152);fill-rule:nonzero;"/>
            </g>
        </g>
        <g transform="matrix(2.10628,0,0,2.10628,30.054,415.721)">
            <g transform="matrix(0,-1,-1,0,559.533,319.02)">
                <path d="M-1.869,-1.869C-2.9,-1.869 -3.735,-1.032 -3.735,0C-3.735,1.032 -2.9,1.869 -1.869,1.869C-0.838,1.869 -0.003,1.032 -0.003,0C-0.003,-1.032 -0.838,-1.869 -1.869,-1.869" style="fill:rgb(109,196,152);fill-rule:nonzero;"/>
            </g>
        </g>
        <g transform="matrix(2.10628,0,0,2.10628,30.054,415.721)">
            <g transform="matrix(0,-1,-1,0,557.903,321.843)">
                <path d="M-1.869,-1.869C-2.9,-1.869 -3.735,-1.032 -3.735,0C-3.735,1.032 -2.9,1.869 -1.869,1.869C-0.839,1.869 -0.003,1.032 -0.003,0C-0.003,-1.032 -0.839,-1.869 -1.869,-1.869" style="fill:rgb(109,196,152);fill-rule:nonzero;"/>
            </g>
        </g>
        <g transform="matrix(2.10628,0,0,2.10628,30.054,415.721)">
            <g transform="matrix(1,0,0,1,557.626,337.023)">
                <path d="M0,-16.988L0.202,-0.123L1.312,0L0.323,-14.042L0.123,-16.629L0,-16.988Z" style="fill:white;fill-rule:nonzero;"/>
            </g>
        </g>
        <g transform="matrix(2.10628,0,0,2.10628,30.054,415.721)">
            <g transform="matrix(0.639495,0.768796,0.768796,-0.639495,557.964,325.613)">
                <path d="M0.806,-0.548C0.806,-0.548 0.703,1.543 0.64,1.757C0.577,1.97 0.806,2.02 0.806,2.02L1.319,-0.894L0.806,-0.548Z" style="fill:white;fill-rule:nonzero;"/>
            </g>
        </g>
        <g transform="matrix(2.10628,0,0,2.10628,30.054,415.721)">
            <g transform="matrix(-0.707768,-0.706445,-0.706445,0.707768,556.697,323.171)">
                <path d="M-1.792,0.306L0.474,0.306L0.315,0.552L-2.097,0.785L-1.792,0.306Z" style="fill:white;fill-rule:nonzero;"/>
            </g>
        </g>
        <g transform="matrix(2.10628,0,0,2.10628,30.054,415.721)">
            <g transform="matrix(-0.862014,-0.506885,-0.506885,0.862014,556.132,325.139)">
                <path d="M-1.959,0.262L0.308,0.262L0.224,0.399L-2.196,0.533L-1.959,0.262Z" style="fill:white;fill-rule:nonzero;"/>
            </g>
        </g>
        <g transform="matrix(2.10628,0,0,2.10628,30.054,415.721)">
            <g transform="matrix(0.579095,-0.81526,-0.81526,-0.579095,558.797,324.11)">
                <path d="M-0.233,0.842L2.109,0.842L1.932,0.665L-0.735,0.485L-0.233,0.842Z" style="fill:white;fill-rule:nonzero;"/>
            </g>
        </g>
        <g transform="matrix(2.10628,0,0,2.10628,30.054,415.721)">
            <g transform="matrix(1,0,0,1,557.723,320.41)">
                <path d="M0,-1.119C0,-1.119 -0.592,-0.416 -0.011,0L-0.011,-0.004C0.566,-0.421 0,-1.119 0,-1.119" style="fill:rgb(177,204,139);fill-rule:nonzero;"/>
            </g>
        </g>
        <g transform="matrix(2.10628,0,0,2.10628,30.054,415.721)">
            <g transform="matrix(1,0,0,1,558.616,321.292)">
                <path d="M0,-0.882C0,-0.882 -0.92,-0.88 -0.862,-0.168L-0.859,-0.171C-0.168,0 0,-0.882 0,-0.882" style="fill:rgb(110,196,152);fill-rule:nonzero;"/>
            </g>
        </g>
        <g transform="matrix(2.10628,0,0,2.10628,30.054,415.721)">
            <g transform="matrix(1,0,0,1,558.45,322.213)">
                <path d="M0,-0.672C0,-0.672 -0.751,-0.712 -0.737,-0.129L-0.734,-0.131C-0.178,0.04 0,-0.672 0,-0.672" style="fill:rgb(110,196,152);fill-rule:nonzero;"/>
            </g>
        </g>
        <g transform="matrix(2.10628,0,0,2.10628,30.054,415.721)">
            <g transform="matrix(1,0,0,1,559.971,322.25)">
                <path d="M0,-0.898C0,-0.898 -0.9,-0.714 -0.704,-0.028L-0.701,-0.031C0.011,0 0,-0.898 0,-0.898" style="fill:rgb(110,196,152);fill-rule:nonzero;"/>
            </g>
        </g>
        <g transform="matrix(2.10628,0,0,2.10628,30.054,415.721)">
            <g transform="matrix(1,0,0,1,560.48,325.129)">
                <path d="M0,-0.898C0,-0.898 -0.9,-0.714 -0.704,-0.028L-0.701,-0.031C0.011,0 0,-0.898 0,-0.898" style="fill:rgb(177,204,139);fill-rule:nonzero;"/>
            </g>
        </g>
        <g transform="matrix(2.10628,0,0,2.10628,30.054,415.721)">
            <g transform="matrix(1,0,0,1,555.478,323.484)">
                <path d="M0,-0.915C0,-0.915 0.081,0 0.786,-0.117L0.783,-0.12C0.896,-0.823 0,-0.915 0,-0.915" style="fill:rgb(110,196,152);fill-rule:nonzero;"/>
            </g>
        </g>
        <g transform="matrix(2.10628,0,0,2.10628,30.054,415.721)">
            <g transform="matrix(1,0,0,1,555.104,325.523)">
                <path d="M0,-0.78C0,-0.78 0.166,0.013 0.772,-0.163L0.77,-0.165C0.795,-0.793 0,-0.78 0,-0.78" style="fill:rgb(177,204,139);fill-rule:nonzero;"/>
            </g>
        </g>
        <g transform="matrix(2.10628,0,0,2.10628,30.054,415.721)">
            <g transform="matrix(1,0,0,1,558.707,322.582)">
                <path d="M0,-1.103C0,-1.103 -0.455,-0.305 0.191,0L0.19,-0.004C0.684,-0.518 0,-1.103 0,-1.103" style="fill:rgb(177,204,139);fill-rule:nonzero;"/>
            </g>
        </g>
        <g transform="matrix(2.10628,0,0,2.10628,30.054,415.721)">
            <g transform="matrix(1,0,0,1,559.08,325.37)">
                <path d="M0,-1.044C0,-1.044 -0.292,-0.173 0.402,0L0.4,-0.004C0.784,-0.604 0,-1.044 0,-1.044" style="fill:rgb(110,196,152);fill-rule:nonzero;"/>
            </g>
        </g>
        <g transform="matrix(2.10628,0,0,2.10628,30.054,415.721)">
            <g transform="matrix(1,0,0,1,560.367,325.573)">
                <path d="M0,0.279C0,0.279 -0.585,-0.429 -1.101,0.065L-1.097,0.066C-0.791,0.708 0,0.279 0,0.279" style="fill:rgb(177,204,139);fill-rule:nonzero;"/>
            </g>
        </g>
        <g transform="matrix(2.10628,0,0,2.10628,30.054,415.721)">
            <g transform="matrix(1,0,0,1,555.423,323.713)">
                <path d="M0,0.227C0,0.227 0.799,0.682 1.105,0.037L1.101,0.038C0.587,-0.455 0,0.227 0,0.227" style="fill:rgb(177,204,139);fill-rule:nonzero;"/>
            </g>
        </g>
        <g transform="matrix(2.10628,0,0,2.10628,30.054,415.721)">
            <g transform="matrix(1,0,0,1,555.361,325.632)">
                <path d="M0,0.176C0,0.176 0.622,0.53 0.86,0.029L0.857,0.029C0.457,-0.354 0,0.176 0,0.176" style="fill:rgb(110,196,152);fill-rule:nonzero;"/>
            </g>
        </g>
        <g transform="matrix(2.10628,0,0,2.10628,30.054,415.721)">
            <g transform="matrix(1,0,0,1,556.463,325.71)">
                <path d="M0,-0.87C0,-0.87 -0.482,-0.342 -0.043,0L-0.043,-0.003C0.419,-0.309 0,-0.87 0,-0.87" style="fill:rgb(177,204,139);fill-rule:nonzero;"/>
            </g>
        </g>
        <g transform="matrix(2.10628,0,0,2.10628,30.054,415.721)">
            <g transform="matrix(1,0,0,1,556.883,323.803)">
                <path d="M0,-1.11C0,-1.11 -0.67,-0.48 -0.141,0L-0.14,-0.004C0.481,-0.351 0,-1.11 0,-1.11" style="fill:rgb(177,204,139);fill-rule:nonzero;"/>
            </g>
        </g>
        <g transform="matrix(2.10628,0,0,2.10628,30.054,415.721)">
            <g transform="matrix(1,0,0,1,559.937,322.662)">
                <path d="M0,0.409C0,0.409 -0.514,-0.352 -1.074,0.091L-1.07,0.092C-0.828,0.761 0,0.409 0,0.409" style="fill:rgb(177,204,139);fill-rule:nonzero;"/>
            </g>
        </g>
        <g transform="matrix(2.10628,0,0,2.10628,30.054,415.721)">
            <g transform="matrix(1,0,0,1,556.795,321.077)">
                <path d="M0,-0.883C0,-0.883 0.92,-0.88 0.863,-0.169L0.86,-0.172C0.168,0 0,-0.883 0,-0.883" style="fill:rgb(177,204,139);fill-rule:nonzero;"/>
            </g>
        </g>
        <g transform="matrix(2.10628,0,0,2.10628,30.054,415.721)">
            <g transform="matrix(1,0,0,1,556.698,321.702)">
                <path d="M0,-0.413C0,-0.413 0.854,-0.755 1.068,-0.075L1.064,-0.076C0.488,0.342 0,-0.413 0,-0.413" style="fill:rgb(177,204,139);fill-rule:nonzero;"/>
            </g>
        </g>
    </g>
</svg>
