<?xml version="1.0" encoding="UTF-8" standalone="no"?>
<!DOCTYPE svg PUBLIC "-//W3C//DTD SVG 1.1//EN" "http://www.w3.org/Graphics/SVG/1.1/DTD/svg11.dtd">
<svg width="100%" height="100%" viewBox="0 0 26 49" version="1.1" xmlns="http://www.w3.org/2000/svg" xmlns:xlink="http://www.w3.org/1999/xlink" xml:space="preserve" xmlns:serif="http://www.serif.com/" style="fill-rule:evenodd;clip-rule:evenodd;stroke-linejoin:round;stroke-miterlimit:2;">
    <g transform="matrix(1,0,0,1,-1240.32,-1106.89)">
        <g transform="matrix(2.10628,0,0,2.10628,30.054,415.721)">
            <g transform="matrix(0,-1,-1,0,580.389,328.144)">
                <path d="M-2.258,-2.258C-3.503,-2.258 -4.511,-1.247 -4.511,0C-4.511,1.247 -3.503,2.258 -2.258,2.258C-1.013,2.258 -0.005,1.247 -0.005,0C-0.005,-1.247 -1.013,-2.258 -2.258,-2.258" style="fill:rgb(66,188,153);fill-rule:nonzero;"/>
            </g>
        </g>
        <g transform="matrix(2.10628,0,0,2.10628,30.054,415.721)">
            <g transform="matrix(0,-1,-1,0,578.112,330.687)">
                <path d="M-2.258,-2.258C-3.503,-2.258 -4.511,-1.247 -4.511,0C-4.511,1.246 -3.503,2.258 -2.258,2.258C-1.013,2.258 -0.005,1.246 -0.005,0C-0.005,-1.247 -1.013,-2.258 -2.258,-2.258" style="fill:rgb(66,188,153);fill-rule:nonzero;"/>
            </g>
        </g>
        <g transform="matrix(2.10628,0,0,2.10628,30.054,415.721)">
            <g transform="matrix(0,-1,-1,0,576.858,334.154)">
                <path d="M-2.258,-2.258C-3.503,-2.258 -4.511,-1.247 -4.511,0C-4.511,1.247 -3.503,2.258 -2.258,2.258C-1.013,2.258 -0.005,1.247 -0.005,0C-0.005,-1.247 -1.013,-2.258 -2.258,-2.258" style="fill:rgb(66,188,153);fill-rule:nonzero;"/>
            </g>
        </g>
        <g transform="matrix(2.10628,0,0,2.10628,30.054,415.721)">
            <g transform="matrix(0,-1,-1,0,579.405,335.425)">
                <path d="M-2.258,-2.258C-3.503,-2.258 -4.511,-1.247 -4.511,0C-4.511,1.247 -3.503,2.258 -2.258,2.258C-1.014,2.258 -0.005,1.247 -0.005,0C-0.005,-1.247 -1.014,-2.258 -2.258,-2.258" style="fill:rgb(66,188,153);fill-rule:nonzero;"/>
            </g>
        </g>
        <g transform="matrix(2.10628,0,0,2.10628,30.054,415.721)">
            <g transform="matrix(0,-1,-1,0,582.126,337.276)">
                <path d="M-1.389,-1.389C-2.155,-1.389 -2.776,-0.767 -2.776,0.001C-2.776,0.767 -2.155,1.389 -1.389,1.389C-0.623,1.389 -0.002,0.767 -0.002,0.001C-0.002,-0.767 -0.623,-1.389 -1.389,-1.389" style="fill:rgb(66,188,153);fill-rule:nonzero;"/>
            </g>
        </g>
        <g transform="matrix(2.10628,0,0,2.10628,30.054,415.721)">
            <g transform="matrix(0,-1,-1,0,578.131,329.475)">
                <path d="M-1.39,-1.39C-2.156,-1.39 -2.777,-0.768 -2.777,0.001C-2.777,0.768 -2.156,1.39 -1.39,1.39C-0.623,1.39 -0.002,0.768 -0.002,0.001C-0.002,-0.768 -0.623,-1.39 -1.39,-1.39" style="fill:rgb(66,188,153);fill-rule:nonzero;"/>
            </g>
        </g>
        <g transform="matrix(2.10628,0,0,2.10628,30.054,415.721)">
            <g transform="matrix(0,-1,-1,0,576.684,333.346)">
                <path d="M-1.39,-1.39C-2.156,-1.39 -2.777,-0.768 -2.777,0.001C-2.777,0.768 -2.156,1.39 -1.39,1.39C-0.623,1.39 -0.002,0.768 -0.002,0.001C-0.002,-0.768 -0.623,-1.39 -1.39,-1.39" style="fill:rgb(66,188,153);fill-rule:nonzero;"/>
            </g>
        </g>
        <g transform="matrix(2.10628,0,0,2.10628,30.054,415.721)">
            <g transform="matrix(0,-1,-1,0,583.283,334.038)">
                <path d="M-2.258,-2.258C-3.503,-2.258 -4.511,-1.247 -4.511,0C-4.511,1.247 -3.503,2.258 -2.258,2.258C-1.013,2.258 -0.005,1.247 -0.005,0C-0.005,-1.247 -1.013,-2.258 -2.258,-2.258" style="fill:rgb(66,188,153);fill-rule:nonzero;"/>
            </g>
        </g>
        <g transform="matrix(2.10628,0,0,2.10628,30.054,415.721)">
            <g transform="matrix(0,-1,-1,0,584.267,331.265)">
                <path d="M-2.258,-2.258C-3.502,-2.258 -4.511,-1.247 -4.511,0.001C-4.511,1.247 -3.502,2.258 -2.258,2.258C-1.012,2.258 -0.004,1.247 -0.004,0.001C-0.004,-1.247 -1.012,-2.258 -2.258,-2.258" style="fill:rgb(66,188,153);fill-rule:nonzero;"/>
            </g>
        </g>
        <g transform="matrix(2.10628,0,0,2.10628,30.054,415.721)">
            <g transform="matrix(0,-1,-1,0,582.647,329.473)">
                <path d="M-2.258,-2.258C-3.503,-2.258 -4.511,-1.246 -4.511,0C-4.511,1.247 -3.503,2.258 -2.258,2.258C-1.013,2.258 -0.005,1.247 -0.005,0C-0.005,-1.246 -1.013,-2.258 -2.258,-2.258" style="fill:rgb(66,188,153);fill-rule:nonzero;"/>
            </g>
        </g>
        <g transform="matrix(2.10628,0,0,2.10628,30.054,415.721)">
            <g transform="matrix(0,-1,-1,0,580.677,332.883)">
                <path d="M-2.258,-2.259C-3.502,-2.259 -4.512,-1.248 -4.512,-0.001C-4.512,1.246 -3.502,2.258 -2.258,2.258C-1.013,2.258 -0.004,1.246 -0.004,-0.001C-0.004,-1.248 -1.013,-2.259 -2.258,-2.259" style="fill:rgb(66,188,153);fill-rule:nonzero;"/>
            </g>
        </g>
        <g transform="matrix(2.10628,0,0,2.10628,30.054,415.721)">
            <g transform="matrix(1,0,0,1,580.344,351.214)">
                <path d="M0,-20.515L0.244,-0.148L1.585,0L0.392,-16.957L0.149,-20.081L0,-20.515Z" style="fill:white;fill-rule:nonzero;"/>
            </g>
        </g>
        <g transform="matrix(2.10628,0,0,2.10628,30.054,415.721)">
            <g transform="matrix(0.639486,0.768802,0.768802,-0.639486,580.752,337.436)">
                <path d="M0.973,-0.662C0.973,-0.662 0.849,1.863 0.773,2.122C0.697,2.379 0.973,2.439 0.973,2.439L1.592,-1.081L0.973,-0.662Z" style="fill:white;fill-rule:nonzero;"/>
            </g>
        </g>
        <g transform="matrix(2.10628,0,0,2.10628,30.054,415.721)">
            <g transform="matrix(-0.707655,-0.706559,-0.706559,0.707655,579.223,334.486)">
                <path d="M-2.165,0.369L0.572,0.369L0.38,0.669L-2.532,0.948L-2.165,0.369Z" style="fill:white;fill-rule:nonzero;"/>
            </g>
        </g>
        <g transform="matrix(2.10628,0,0,2.10628,30.054,415.721)">
            <g transform="matrix(-0.861878,-0.507116,-0.507116,0.861878,578.54,336.863)">
                <path d="M-2.365,0.316L0.372,0.316L0.271,0.482L-2.651,0.644L-2.365,0.316Z" style="fill:white;fill-rule:nonzero;"/>
            </g>
        </g>
        <g transform="matrix(2.10628,0,0,2.10628,30.054,415.721)">
            <g transform="matrix(0.579566,-0.814926,-0.814926,-0.579566,581.758,335.62)">
                <path d="M-0.281,1.017L2.548,1.017L2.334,0.804L-0.888,0.585L-0.281,1.017Z" style="fill:white;fill-rule:nonzero;"/>
            </g>
        </g>
        <g transform="matrix(2.10628,0,0,2.10628,30.054,415.721)">
            <g transform="matrix(1,0,0,1,580.461,331.152)">
                <path d="M0,-1.351C0,-1.351 -0.715,-0.503 -0.013,0L-0.013,-0.005C0.685,-0.508 0,-1.351 0,-1.351" style="fill:rgb(177,204,139);fill-rule:nonzero;"/>
            </g>
        </g>
        <g transform="matrix(2.10628,0,0,2.10628,30.054,415.721)">
            <g transform="matrix(1,0,0,1,581.54,332.217)">
                <path d="M0,-1.066C0,-1.066 -1.11,-1.063 -1.042,-0.204L-1.038,-0.207C-0.203,0 0,-1.066 0,-1.066" style="fill:rgb(110,196,152);fill-rule:nonzero;"/>
            </g>
        </g>
        <g transform="matrix(2.10628,0,0,2.10628,30.054,415.721)">
            <g transform="matrix(1,0,0,1,581.338,333.329)">
                <path d="M0,-0.811C0,-0.811 -0.906,-0.86 -0.89,-0.156L-0.887,-0.158C-0.215,0.049 0,-0.811 0,-0.811" style="fill:rgb(110,196,152);fill-rule:nonzero;"/>
            </g>
        </g>
        <g transform="matrix(2.10628,0,0,2.10628,30.054,415.721)">
            <g transform="matrix(1,0,0,1,583.176,333.374)">
                <path d="M0,-1.085C0,-1.085 -1.088,-0.862 -0.851,-0.034L-0.848,-0.038C0.013,0 0,-1.085 0,-1.085" style="fill:rgb(110,196,152);fill-rule:nonzero;"/>
            </g>
        </g>
        <g transform="matrix(2.10628,0,0,2.10628,30.054,415.721)">
            <g transform="matrix(1,0,0,1,583.792,336.851)">
                <path d="M0,-1.084C0,-1.084 -1.089,-0.862 -0.851,-0.033L-0.848,-0.037C0.012,0 0,-1.084 0,-1.084" style="fill:rgb(177,204,139);fill-rule:nonzero;"/>
            </g>
        </g>
        <g transform="matrix(2.10628,0,0,2.10628,30.054,415.721)">
            <g transform="matrix(1,0,0,1,577.75,334.864)">
                <path d="M0,-1.104C0,-1.104 0.097,0 0.948,-0.141L0.945,-0.145C1.081,-0.992 0,-1.104 0,-1.104" style="fill:rgb(110,196,152);fill-rule:nonzero;"/>
            </g>
        </g>
        <g transform="matrix(2.10628,0,0,2.10628,30.054,415.721)">
            <g transform="matrix(1,0,0,1,577.298,337.328)">
                <path d="M0,-0.943C0,-0.943 0.201,0.015 0.934,-0.197L0.93,-0.2C0.96,-0.958 0,-0.943 0,-0.943" style="fill:rgb(177,204,139);fill-rule:nonzero;"/>
            </g>
        </g>
        <g transform="matrix(2.10628,0,0,2.10628,30.054,415.721)">
            <g transform="matrix(1,0,0,1,581.65,333.776)">
                <path d="M0,-1.332C0,-1.332 -0.551,-0.369 0.23,0L0.229,-0.006C0.825,-0.626 0,-1.332 0,-1.332" style="fill:rgb(177,204,139);fill-rule:nonzero;"/>
            </g>
        </g>
        <g transform="matrix(2.10628,0,0,2.10628,30.054,415.721)">
            <g transform="matrix(1,0,0,1,582.099,337.141)">
                <path d="M0,-1.261C0,-1.261 -0.352,-0.209 0.486,0L0.484,-0.005C0.947,-0.728 0,-1.261 0,-1.261" style="fill:rgb(110,196,152);fill-rule:nonzero;"/>
            </g>
        </g>
        <g transform="matrix(2.10628,0,0,2.10628,30.054,415.721)">
            <g transform="matrix(1,0,0,1,583.654,337.388)">
                <path d="M0,0.336C0,0.336 -0.706,-0.519 -1.329,0.078L-1.324,0.079C-0.955,0.855 0,0.336 0,0.336" style="fill:rgb(177,204,139);fill-rule:nonzero;"/>
            </g>
        </g>
        <g transform="matrix(2.10628,0,0,2.10628,30.054,415.721)">
            <g transform="matrix(1,0,0,1,577.685,335.141)">
                <path d="M0,0.273C0,0.273 0.964,0.823 1.334,0.044L1.328,0.044C0.708,-0.55 0,0.273 0,0.273" style="fill:rgb(177,204,139);fill-rule:nonzero;"/>
            </g>
        </g>
        <g transform="matrix(2.10628,0,0,2.10628,30.054,415.721)">
            <g transform="matrix(1,0,0,1,577.609,337.458)">
                <path d="M0,0.213C0,0.213 0.751,0.641 1.039,0.034L1.035,0.035C0.552,-0.428 0,0.213 0,0.213" style="fill:rgb(110,196,152);fill-rule:nonzero;"/>
            </g>
        </g>
        <g transform="matrix(2.10628,0,0,2.10628,30.054,415.721)">
            <g transform="matrix(1,0,0,1,578.941,337.552)">
                <path d="M0,-1.051C0,-1.051 -0.583,-0.413 -0.053,0L-0.053,-0.004C0.506,-0.374 0,-1.051 0,-1.051" style="fill:rgb(177,204,139);fill-rule:nonzero;"/>
            </g>
        </g>
        <g transform="matrix(2.10628,0,0,2.10628,30.054,415.721)">
            <g transform="matrix(1,0,0,1,579.447,335.249)">
                <path d="M0,-1.34C0,-1.34 -0.808,-0.58 -0.17,0L-0.169,-0.005C0.582,-0.424 0,-1.34 0,-1.34" style="fill:rgb(177,204,139);fill-rule:nonzero;"/>
            </g>
        </g>
        <g transform="matrix(2.10628,0,0,2.10628,30.054,415.721)">
            <g transform="matrix(1,0,0,1,583.135,333.872)">
                <path d="M0,0.494C0,0.494 -0.621,-0.425 -1.298,0.11L-1.293,0.112C-1,0.919 0,0.494 0,0.494" style="fill:rgb(177,204,139);fill-rule:nonzero;"/>
            </g>
        </g>
        <g transform="matrix(2.10628,0,0,2.10628,30.054,415.721)">
            <g transform="matrix(1,0,0,1,579.341,331.957)">
                <path d="M0,-1.066C0,-1.066 1.111,-1.063 1.042,-0.204L1.038,-0.207C0.203,0 0,-1.066 0,-1.066" style="fill:rgb(177,204,139);fill-rule:nonzero;"/>
            </g>
        </g>
        <g transform="matrix(2.10628,0,0,2.10628,30.054,415.721)">
            <g transform="matrix(1,0,0,1,579.223,332.712)">
                <path d="M0,-0.499C0,-0.499 1.03,-0.912 1.29,-0.09L1.285,-0.092C0.589,0.413 0,-0.499 0,-0.499" style="fill:rgb(177,204,139);fill-rule:nonzero;"/>
            </g>
        </g>
    </g>
</svg>
