<?xml version="1.0" encoding="UTF-8" standalone="no"?>
<!DOCTYPE svg PUBLIC "-//W3C//DTD SVG 1.1//EN" "http://www.w3.org/Graphics/SVG/1.1/DTD/svg11.dtd">
<svg width="100%" height="100%" viewBox="0 0 22 41" version="1.1" xmlns="http://www.w3.org/2000/svg" xmlns:xlink="http://www.w3.org/1999/xlink" xml:space="preserve" xmlns:serif="http://www.serif.com/" style="fill-rule:evenodd;clip-rule:evenodd;stroke-linejoin:round;stroke-miterlimit:2;">
    <g transform="matrix(1,0,0,1,-805.905,-1195.82)">
        <g transform="matrix(2.10628,0,0,2.10628,30.054,415.721)">
            <g transform="matrix(0,-1,-1,0,373.208,370.364)">
                <path d="M-1.894,-1.895C-2.939,-1.895 -3.785,-1.047 -3.785,0C-3.785,1.045 -2.939,1.894 -1.894,1.894C-0.85,1.894 -0.004,1.045 -0.004,0C-0.004,-1.047 -0.85,-1.895 -1.894,-1.895" style="fill:rgb(239,225,73);fill-rule:nonzero;"/>
            </g>
        </g>
        <g transform="matrix(2.10628,0,0,2.10628,30.054,415.721)">
            <g transform="matrix(0,-1,-1,0,371.298,372.497)">
                <path d="M-1.894,-1.894C-2.938,-1.894 -3.785,-1.046 -3.785,0C-3.785,1.046 -2.938,1.894 -1.894,1.894C-0.849,1.894 -0.003,1.046 -0.003,0C-0.003,-1.046 -0.849,-1.894 -1.894,-1.894" style="fill:rgb(239,225,73);fill-rule:nonzero;"/>
            </g>
        </g>
        <g transform="matrix(2.10628,0,0,2.10628,30.054,415.721)">
            <g transform="matrix(0,-1,-1,0,370.246,375.405)">
                <path d="M-1.894,-1.894C-2.938,-1.894 -3.785,-1.046 -3.785,0C-3.785,1.046 -2.938,1.894 -1.894,1.894C-0.85,1.894 -0.003,1.046 -0.003,0C-0.003,-1.046 -0.85,-1.894 -1.894,-1.894" style="fill:rgb(239,225,73);fill-rule:nonzero;"/>
            </g>
        </g>
        <g transform="matrix(2.10628,0,0,2.10628,30.054,415.721)">
            <g transform="matrix(0,-1,-1,0,372.383,376.472)">
                <path d="M-1.894,-1.894C-2.938,-1.894 -3.785,-1.046 -3.785,0C-3.785,1.046 -2.938,1.894 -1.894,1.894C-0.85,1.894 -0.003,1.046 -0.003,0C-0.003,-1.046 -0.85,-1.894 -1.894,-1.894" style="fill:rgb(239,225,73);fill-rule:nonzero;"/>
            </g>
        </g>
        <g transform="matrix(2.10628,0,0,2.10628,30.054,415.721)">
            <g transform="matrix(0,-1,-1,0,374.666,378.024)">
                <path d="M-1.166,-1.165C-1.809,-1.165 -2.329,-0.643 -2.329,0.001C-2.329,0.644 -1.809,1.166 -1.166,1.166C-0.523,1.166 -0.002,0.644 -0.002,0.001C-0.002,-0.643 -0.523,-1.165 -1.166,-1.165" style="fill:rgb(239,225,73);fill-rule:nonzero;"/>
            </g>
        </g>
        <g transform="matrix(2.10628,0,0,2.10628,30.054,415.721)">
            <g transform="matrix(0,-1,-1,0,371.315,371.48)">
                <path d="M-1.166,-1.165C-1.809,-1.165 -2.329,-0.643 -2.329,0.001C-2.329,0.644 -1.809,1.166 -1.166,1.166C-0.523,1.166 -0.002,0.644 -0.002,0.001C-0.002,-0.643 -0.523,-1.165 -1.166,-1.165" style="fill:rgb(239,225,73);fill-rule:nonzero;"/>
            </g>
        </g>
        <g transform="matrix(2.10628,0,0,2.10628,30.054,415.721)">
            <g transform="matrix(0,-1,-1,0,370.1,374.728)">
                <path d="M-1.165,-1.166C-1.808,-1.166 -2.329,-0.644 -2.329,0C-2.329,0.644 -1.808,1.165 -1.165,1.165C-0.522,1.165 -0.002,0.644 -0.002,0C-0.002,-0.644 -0.522,-1.166 -1.165,-1.166" style="fill:rgb(239,225,73);fill-rule:nonzero;"/>
            </g>
        </g>
        <g transform="matrix(2.10628,0,0,2.10628,30.054,415.721)">
            <g transform="matrix(0,-1,-1,0,375.637,375.308)">
                <path d="M-1.894,-1.894C-2.938,-1.894 -3.785,-1.046 -3.785,0C-3.785,1.046 -2.938,1.894 -1.894,1.894C-0.849,1.894 -0.003,1.046 -0.003,0C-0.003,-1.046 -0.849,-1.894 -1.894,-1.894" style="fill:rgb(239,225,73);fill-rule:nonzero;"/>
            </g>
        </g>
        <g transform="matrix(2.10628,0,0,2.10628,30.054,415.721)">
            <g transform="matrix(0,-1,-1,0,376.462,372.981)">
                <path d="M-1.894,-1.894C-2.938,-1.894 -3.785,-1.046 -3.785,0C-3.785,1.046 -2.938,1.894 -1.894,1.894C-0.85,1.894 -0.003,1.046 -0.003,0C-0.003,-1.046 -0.85,-1.894 -1.894,-1.894" style="fill:rgb(239,225,73);fill-rule:nonzero;"/>
            </g>
        </g>
        <g transform="matrix(2.10628,0,0,2.10628,30.054,415.721)">
            <g transform="matrix(0,-1,-1,0,375.103,371.478)">
                <path d="M-1.894,-1.894C-2.938,-1.894 -3.785,-1.046 -3.785,0C-3.785,1.046 -2.938,1.894 -1.894,1.894C-0.85,1.894 -0.003,1.046 -0.003,0C-0.003,-1.046 -0.85,-1.894 -1.894,-1.894" style="fill:rgb(239,225,73);fill-rule:nonzero;"/>
            </g>
        </g>
        <g transform="matrix(2.10628,0,0,2.10628,30.054,415.721)">
            <g transform="matrix(0,-1,-1,0,373.452,374.339)">
                <path d="M-1.894,-1.894C-2.938,-1.894 -3.785,-1.046 -3.785,0C-3.785,1.046 -2.938,1.894 -1.894,1.894C-0.85,1.894 -0.003,1.046 -0.003,0C-0.003,-1.046 -0.85,-1.894 -1.894,-1.894" style="fill:rgb(239,225,73);fill-rule:nonzero;"/>
            </g>
        </g>
        <g transform="matrix(2.10628,0,0,2.10628,30.054,415.721)">
            <g transform="matrix(1,0,0,1,373.171,389.718)">
                <path d="M0,-17.211L0.205,-0.125L1.33,0L0.328,-14.227L0.125,-16.848L0,-17.211Z" style="fill:white;fill-rule:nonzero;"/>
            </g>
        </g>
        <g transform="matrix(2.10628,0,0,2.10628,30.054,415.721)">
            <g transform="matrix(0.639579,0.768725,0.768725,-0.639579,373.513,378.159)">
                <path d="M0.816,-0.555C0.816,-0.555 0.713,1.564 0.649,1.78C0.584,1.996 0.816,2.047 0.816,2.047L1.336,-0.906L0.816,-0.555Z" style="fill:white;fill-rule:nonzero;"/>
            </g>
        </g>
        <g transform="matrix(2.10628,0,0,2.10628,30.054,415.721)">
            <g transform="matrix(-0.70776,-0.706453,-0.706453,0.70776,372.23,375.685)">
                <path d="M-1.815,0.309L0.481,0.309L0.319,0.559L-2.123,0.795L-1.815,0.309Z" style="fill:white;fill-rule:nonzero;"/>
            </g>
        </g>
        <g transform="matrix(2.10628,0,0,2.10628,30.054,415.721)">
            <g transform="matrix(-0.861766,-0.507306,-0.507306,0.861766,371.658,377.676)">
                <path d="M-1.985,0.266L0.312,0.266L0.228,0.407L-2.224,0.541L-1.985,0.266Z" style="fill:white;fill-rule:nonzero;"/>
            </g>
        </g>
        <g transform="matrix(2.10628,0,0,2.10628,30.054,415.721)">
            <g transform="matrix(0.579443,-0.815013,-0.815013,-0.579443,374.357,376.635)">
                <path d="M-0.236,0.853L2.137,0.853L1.958,0.674L-0.744,0.491L-0.236,0.853Z" style="fill:white;fill-rule:nonzero;"/>
            </g>
        </g>
        <g transform="matrix(2.10628,0,0,2.10628,30.054,415.721)">
            <g transform="matrix(1,0,0,1,373.269,372.886)">
                <path d="M0,-1.133C0,-1.133 -0.6,-0.421 -0.011,0L-0.011,-0.004C0.574,-0.426 0,-1.133 0,-1.133" style="fill:rgb(177,204,139);fill-rule:nonzero;"/>
            </g>
        </g>
        <g transform="matrix(2.10628,0,0,2.10628,30.054,415.721)">
            <g transform="matrix(1,0,0,1,374.174,373.781)">
                <path d="M0,-0.895C0,-0.895 -0.932,-0.892 -0.874,-0.171L-0.871,-0.174C-0.17,0 0,-0.895 0,-0.895" style="fill:rgb(110,196,152);fill-rule:nonzero;"/>
            </g>
        </g>
        <g transform="matrix(2.10628,0,0,2.10628,30.054,415.721)">
            <g transform="matrix(1,0,0,1,374.005,374.715)">
                <path d="M0,-0.682C0,-0.682 -0.76,-0.722 -0.747,-0.131L-0.744,-0.134C-0.18,0.04 0,-0.682 0,-0.682" style="fill:rgb(110,196,152);fill-rule:nonzero;"/>
            </g>
        </g>
        <g transform="matrix(2.10628,0,0,2.10628,30.054,415.721)">
            <g transform="matrix(1,0,0,1,375.547,374.751)">
                <path d="M0,-0.91C0,-0.91 -0.913,-0.723 -0.714,-0.028L-0.711,-0.032C0.01,0 0,-0.91 0,-0.91" style="fill:rgb(110,196,152);fill-rule:nonzero;"/>
            </g>
        </g>
        <g transform="matrix(2.10628,0,0,2.10628,30.054,415.721)">
            <g transform="matrix(1,0,0,1,376.063,377.668)">
                <path d="M0,-0.91C0,-0.91 -0.913,-0.723 -0.714,-0.028L-0.711,-0.032C0.01,0 0,-0.91 0,-0.91" style="fill:rgb(177,204,139);fill-rule:nonzero;"/>
            </g>
        </g>
        <g transform="matrix(2.10628,0,0,2.10628,30.054,415.721)">
            <g transform="matrix(1,0,0,1,370.995,376.001)">
                <path d="M0,-0.926C0,-0.926 0.082,0 0.796,-0.118L0.793,-0.121C0.907,-0.832 0,-0.926 0,-0.926" style="fill:rgb(110,196,152);fill-rule:nonzero;"/>
            </g>
        </g>
        <g transform="matrix(2.10628,0,0,2.10628,30.054,415.721)">
            <g transform="matrix(1,0,0,1,370.615,378.068)">
                <path d="M0,-0.791C0,-0.791 0.169,0.013 0.783,-0.166L0.78,-0.168C0.805,-0.804 0,-0.791 0,-0.791" style="fill:rgb(177,204,139);fill-rule:nonzero;"/>
            </g>
        </g>
        <g transform="matrix(2.10628,0,0,2.10628,30.054,415.721)">
            <g transform="matrix(1,0,0,1,374.266,375.087)">
                <path d="M0,-1.117C0,-1.117 -0.461,-0.308 0.193,0L0.193,-0.004C0.692,-0.524 0,-1.117 0,-1.117" style="fill:rgb(177,204,139);fill-rule:nonzero;"/>
            </g>
        </g>
        <g transform="matrix(2.10628,0,0,2.10628,30.054,415.721)">
            <g transform="matrix(1,0,0,1,374.643,377.912)">
                <path d="M0,-1.058C0,-1.058 -0.295,-0.176 0.408,0L0.406,-0.004C0.795,-0.612 0,-1.058 0,-1.058" style="fill:rgb(110,196,152);fill-rule:nonzero;"/>
            </g>
        </g>
        <g transform="matrix(2.10628,0,0,2.10628,30.054,415.721)">
            <g transform="matrix(1,0,0,1,375.947,378.118)">
                <path d="M0,0.282C0,0.282 -0.592,-0.436 -1.114,0.066L-1.11,0.066C-0.801,0.718 0,0.282 0,0.282" style="fill:rgb(177,204,139);fill-rule:nonzero;"/>
            </g>
        </g>
        <g transform="matrix(2.10628,0,0,2.10628,30.054,415.721)">
            <g transform="matrix(1,0,0,1,370.94,376.233)">
                <path d="M0,0.23C0,0.23 0.809,0.691 1.119,0.037L1.115,0.038C0.594,-0.461 0,0.23 0,0.23" style="fill:rgb(177,204,139);fill-rule:nonzero;"/>
            </g>
        </g>
        <g transform="matrix(2.10628,0,0,2.10628,30.054,415.721)">
            <g transform="matrix(1,0,0,1,370.876,378.176)">
                <path d="M0,0.18C0,0.18 0.63,0.538 0.871,0.03L0.868,0.031C0.462,-0.358 0,0.18 0,0.18" style="fill:rgb(110,196,152);fill-rule:nonzero;"/>
            </g>
        </g>
        <g transform="matrix(2.10628,0,0,2.10628,30.054,415.721)">
            <g transform="matrix(1,0,0,1,371.993,378.256)">
                <path d="M0,-0.882C0,-0.882 -0.488,-0.347 -0.043,0L-0.043,-0.003C0.425,-0.314 0,-0.882 0,-0.882" style="fill:rgb(177,204,139);fill-rule:nonzero;"/>
            </g>
        </g>
        <g transform="matrix(2.10628,0,0,2.10628,30.054,415.721)">
            <g transform="matrix(1,0,0,1,372.418,376.325)">
                <path d="M0,-1.125C0,-1.125 -0.678,-0.487 -0.143,0L-0.142,-0.005C0.488,-0.356 0,-1.125 0,-1.125" style="fill:rgb(177,204,139);fill-rule:nonzero;"/>
            </g>
        </g>
        <g transform="matrix(2.10628,0,0,2.10628,30.054,415.721)">
            <g transform="matrix(1,0,0,1,375.512,375.168)">
                <path d="M0,0.414C0,0.414 -0.521,-0.357 -1.088,0.093L-1.084,0.094C-0.839,0.771 0,0.414 0,0.414" style="fill:rgb(177,204,139);fill-rule:nonzero;"/>
            </g>
        </g>
        <g transform="matrix(2.10628,0,0,2.10628,30.054,415.721)">
            <g transform="matrix(1,0,0,1,372.33,373.562)">
                <path d="M0,-0.895C0,-0.895 0.932,-0.892 0.875,-0.171L0.871,-0.174C0.17,0 0,-0.895 0,-0.895" style="fill:rgb(177,204,139);fill-rule:nonzero;"/>
            </g>
        </g>
        <g transform="matrix(2.10628,0,0,2.10628,30.054,415.721)">
            <g transform="matrix(1,0,0,1,372.23,374.196)">
                <path d="M0,-0.419C0,-0.419 0.865,-0.766 1.083,-0.076L1.079,-0.077C0.495,0.347 0,-0.419 0,-0.419" style="fill:rgb(177,204,139);fill-rule:nonzero;"/>
            </g>
        </g>
    </g>
</svg>
