<?xml version="1.0" encoding="UTF-8" standalone="no"?>
<!DOCTYPE svg PUBLIC "-//W3C//DTD SVG 1.1//EN" "http://www.w3.org/Graphics/SVG/1.1/DTD/svg11.dtd">
<svg width="100%" height="100%" viewBox="0 0 22 41" version="1.1" xmlns="http://www.w3.org/2000/svg" xmlns:xlink="http://www.w3.org/1999/xlink" xml:space="preserve" xmlns:serif="http://www.serif.com/" style="fill-rule:evenodd;clip-rule:evenodd;stroke-linejoin:round;stroke-miterlimit:2;">
    <g transform="matrix(1,0,0,1,-809.163,-1170.77)">
        <g transform="matrix(2.10628,0,0,2.10628,30.054,415.721)">
            <g transform="matrix(0,-1,-1,0,374.755,358.473)">
                <path d="M-1.894,-1.894C-2.938,-1.894 -3.785,-1.046 -3.785,0.001C-3.785,1.046 -2.938,1.894 -1.894,1.894C-0.85,1.894 -0.003,1.046 -0.003,0.001C-0.003,-1.046 -0.85,-1.894 -1.894,-1.894" style="fill:rgb(233,187,71);fill-rule:nonzero;"/>
            </g>
        </g>
        <g transform="matrix(2.10628,0,0,2.10628,30.054,415.721)">
            <g transform="matrix(0,-1,-1,0,372.845,360.605)">
                <path d="M-1.894,-1.894C-2.939,-1.894 -3.785,-1.046 -3.785,0C-3.785,1.046 -2.939,1.894 -1.894,1.894C-0.85,1.894 -0.003,1.046 -0.003,0C-0.003,-1.046 -0.85,-1.894 -1.894,-1.894" style="fill:rgb(233,187,71);fill-rule:nonzero;"/>
            </g>
        </g>
        <g transform="matrix(2.10628,0,0,2.10628,30.054,415.721)">
            <g transform="matrix(0,-1,-1,0,371.792,363.515)">
                <path d="M-1.894,-1.894C-2.938,-1.894 -3.785,-1.046 -3.785,0C-3.785,1.046 -2.938,1.894 -1.894,1.894C-0.85,1.894 -0.003,1.046 -0.003,0C-0.003,-1.046 -0.85,-1.894 -1.894,-1.894" style="fill:rgb(233,187,71);fill-rule:nonzero;"/>
            </g>
        </g>
        <g transform="matrix(2.10628,0,0,2.10628,30.054,415.721)">
            <g transform="matrix(0,-1,-1,0,373.93,364.581)">
                <path d="M-1.894,-1.894C-2.938,-1.894 -3.785,-1.046 -3.785,0C-3.785,1.046 -2.938,1.894 -1.894,1.894C-0.85,1.894 -0.003,1.046 -0.003,0C-0.003,-1.046 -0.85,-1.894 -1.894,-1.894" style="fill:rgb(233,187,71);fill-rule:nonzero;"/>
            </g>
        </g>
        <g transform="matrix(2.10628,0,0,2.10628,30.054,415.721)">
            <g transform="matrix(0,-1,-1,0,376.212,366.133)">
                <path d="M-1.166,-1.165C-1.809,-1.165 -2.329,-0.643 -2.329,0.001C-2.329,0.645 -1.809,1.166 -1.166,1.166C-0.523,1.166 -0.002,0.645 -0.002,0.001C-0.002,-0.643 -0.523,-1.165 -1.166,-1.165" style="fill:rgb(233,187,71);fill-rule:nonzero;"/>
            </g>
        </g>
        <g transform="matrix(2.10628,0,0,2.10628,30.054,415.721)">
            <g transform="matrix(0,-1,-1,0,372.86,359.589)">
                <path d="M-1.165,-1.166C-1.808,-1.166 -2.329,-0.645 -2.329,-0.001C-2.329,0.643 -1.808,1.165 -1.165,1.165C-0.522,1.165 -0.002,0.643 -0.002,-0.001C-0.002,-0.645 -0.522,-1.166 -1.165,-1.166" style="fill:rgb(233,187,71);fill-rule:nonzero;"/>
            </g>
        </g>
        <g transform="matrix(2.10628,0,0,2.10628,30.054,415.721)">
            <g transform="matrix(0,-1,-1,0,371.647,362.837)">
                <path d="M-1.165,-1.166C-1.808,-1.166 -2.329,-0.644 -2.329,0C-2.329,0.643 -1.808,1.165 -1.165,1.165C-0.522,1.165 -0.002,0.643 -0.002,0C-0.002,-0.644 -0.522,-1.166 -1.165,-1.166" style="fill:rgb(233,187,71);fill-rule:nonzero;"/>
            </g>
        </g>
        <g transform="matrix(2.10628,0,0,2.10628,30.054,415.721)">
            <g transform="matrix(0,-1,-1,0,377.183,363.416)">
                <path d="M-1.895,-1.895C-2.939,-1.895 -3.786,-1.047 -3.786,0C-3.786,1.045 -2.939,1.895 -1.895,1.895C-0.851,1.895 -0.004,1.045 -0.004,0C-0.004,-1.047 -0.851,-1.895 -1.895,-1.895" style="fill:rgb(233,187,71);fill-rule:nonzero;"/>
            </g>
        </g>
        <g transform="matrix(2.10628,0,0,2.10628,30.054,415.721)">
            <g transform="matrix(0,-1,-1,0,378.009,361.091)">
                <path d="M-1.894,-1.894C-2.938,-1.894 -3.785,-1.046 -3.785,0C-3.785,1.046 -2.938,1.894 -1.894,1.894C-0.85,1.894 -0.003,1.046 -0.003,0C-0.003,-1.046 -0.85,-1.894 -1.894,-1.894" style="fill:rgb(233,187,71);fill-rule:nonzero;"/>
            </g>
        </g>
        <g transform="matrix(2.10628,0,0,2.10628,30.054,415.721)">
            <g transform="matrix(0,-1,-1,0,376.649,359.588)">
                <path d="M-1.894,-1.894C-2.938,-1.894 -3.785,-1.046 -3.785,0C-3.785,1.046 -2.938,1.894 -1.894,1.894C-0.85,1.894 -0.003,1.046 -0.003,0C-0.003,-1.046 -0.85,-1.894 -1.894,-1.894" style="fill:rgb(233,187,71);fill-rule:nonzero;"/>
            </g>
        </g>
        <g transform="matrix(2.10628,0,0,2.10628,30.054,415.721)">
            <g transform="matrix(0,-1,-1,0,374.998,362.448)">
                <path d="M-1.894,-1.894C-2.938,-1.894 -3.785,-1.046 -3.785,0C-3.785,1.046 -2.938,1.894 -1.894,1.894C-0.849,1.894 -0.003,1.046 -0.003,0C-0.003,-1.046 -0.849,-1.894 -1.894,-1.894" style="fill:rgb(233,187,71);fill-rule:nonzero;"/>
            </g>
        </g>
        <g transform="matrix(2.10628,0,0,2.10628,30.054,415.721)">
            <g transform="matrix(1,0,0,1,374.718,377.828)">
                <path d="M0,-17.211L0.205,-0.125L1.33,0L0.328,-14.228L0.125,-16.848L0,-17.211Z" style="fill:white;fill-rule:nonzero;"/>
            </g>
        </g>
        <g transform="matrix(2.10628,0,0,2.10628,30.054,415.721)">
            <g transform="matrix(0.639579,0.768725,0.768725,-0.639579,375.06,366.268)">
                <path d="M0.816,-0.555C0.816,-0.555 0.711,1.564 0.648,1.779C0.584,1.996 0.816,2.047 0.816,2.047L1.336,-0.906L0.816,-0.555Z" style="fill:white;fill-rule:nonzero;"/>
            </g>
        </g>
        <g transform="matrix(2.10628,0,0,2.10628,30.054,415.721)">
            <g transform="matrix(-0.70776,-0.706453,-0.706453,0.70776,373.776,363.794)">
                <path d="M-1.816,0.309L0.48,0.309L0.319,0.559L-2.124,0.795L-1.816,0.309Z" style="fill:white;fill-rule:nonzero;"/>
            </g>
        </g>
        <g transform="matrix(2.10628,0,0,2.10628,30.054,415.721)">
            <g transform="matrix(-0.861766,-0.507306,-0.507306,0.861766,373.205,365.786)">
                <path d="M-1.985,0.266L0.312,0.266L0.228,0.407L-2.224,0.541L-1.985,0.266Z" style="fill:white;fill-rule:nonzero;"/>
            </g>
        </g>
        <g transform="matrix(2.10628,0,0,2.10628,30.054,415.721)">
            <g transform="matrix(0.579244,-0.815154,-0.815154,-0.579244,375.904,364.745)">
                <path d="M-0.236,0.853L2.138,0.853L1.958,0.674L-0.745,0.492L-0.236,0.853Z" style="fill:white;fill-rule:nonzero;"/>
            </g>
        </g>
        <g transform="matrix(2.10628,0,0,2.10628,30.054,415.721)">
            <g transform="matrix(1,0,0,1,374.816,360.996)">
                <path d="M0,-1.133C0,-1.133 -0.6,-0.422 -0.012,0L-0.012,-0.004C0.574,-0.426 0,-1.133 0,-1.133" style="fill:rgb(177,204,139);fill-rule:nonzero;"/>
            </g>
        </g>
        <g transform="matrix(2.10628,0,0,2.10628,30.054,415.721)">
            <g transform="matrix(1,0,0,1,375.72,361.89)">
                <path d="M0,-0.894C0,-0.894 -0.932,-0.891 -0.874,-0.17L-0.871,-0.173C-0.17,0 0,-0.894 0,-0.894" style="fill:rgb(110,196,152);fill-rule:nonzero;"/>
            </g>
        </g>
        <g transform="matrix(2.10628,0,0,2.10628,30.054,415.721)">
            <g transform="matrix(1,0,0,1,375.552,362.824)">
                <path d="M0,-0.682C0,-0.682 -0.76,-0.722 -0.747,-0.132L-0.744,-0.134C-0.18,0.04 0,-0.682 0,-0.682" style="fill:rgb(110,196,152);fill-rule:nonzero;"/>
            </g>
        </g>
        <g transform="matrix(2.10628,0,0,2.10628,30.054,415.721)">
            <g transform="matrix(1,0,0,1,377.094,362.861)">
                <path d="M0,-0.91C0,-0.91 -0.913,-0.723 -0.714,-0.028L-0.711,-0.032C0.01,0 0,-0.91 0,-0.91" style="fill:rgb(110,196,152);fill-rule:nonzero;"/>
            </g>
        </g>
        <g transform="matrix(2.10628,0,0,2.10628,30.054,415.721)">
            <g transform="matrix(1,0,0,1,377.609,365.777)">
                <path d="M0,-0.91C0,-0.91 -0.913,-0.723 -0.713,-0.028L-0.711,-0.031C0.01,0 0,-0.91 0,-0.91" style="fill:rgb(177,204,139);fill-rule:nonzero;"/>
            </g>
        </g>
        <g transform="matrix(2.10628,0,0,2.10628,30.054,415.721)">
            <g transform="matrix(1,0,0,1,372.541,364.11)">
                <path d="M0,-0.926C0,-0.926 0.082,0 0.796,-0.118L0.793,-0.121C0.907,-0.833 0,-0.926 0,-0.926" style="fill:rgb(110,196,152);fill-rule:nonzero;"/>
            </g>
        </g>
        <g transform="matrix(2.10628,0,0,2.10628,30.054,415.721)">
            <g transform="matrix(1,0,0,1,372.162,366.177)">
                <path d="M0,-0.791C0,-0.791 0.169,0.013 0.783,-0.166L0.78,-0.168C0.806,-0.804 0,-0.791 0,-0.791" style="fill:rgb(177,204,139);fill-rule:nonzero;"/>
            </g>
        </g>
        <g transform="matrix(2.10628,0,0,2.10628,30.054,415.721)">
            <g transform="matrix(1,0,0,1,375.813,363.197)">
                <path d="M0,-1.117C0,-1.117 -0.461,-0.308 0.194,0L0.193,-0.005C0.692,-0.524 0,-1.117 0,-1.117" style="fill:rgb(177,204,139);fill-rule:nonzero;"/>
            </g>
        </g>
        <g transform="matrix(2.10628,0,0,2.10628,30.054,415.721)">
            <g transform="matrix(1,0,0,1,376.19,366.021)">
                <path d="M0,-1.059C0,-1.059 -0.295,-0.176 0.408,0L0.406,-0.004C0.794,-0.612 0,-1.059 0,-1.059" style="fill:rgb(110,196,152);fill-rule:nonzero;"/>
            </g>
        </g>
        <g transform="matrix(2.10628,0,0,2.10628,30.054,415.721)">
            <g transform="matrix(1,0,0,1,377.494,366.227)">
                <path d="M0,0.282C0,0.282 -0.593,-0.436 -1.115,0.065L-1.111,0.066C-0.801,0.718 0,0.282 0,0.282" style="fill:rgb(177,204,139);fill-rule:nonzero;"/>
            </g>
        </g>
        <g transform="matrix(2.10628,0,0,2.10628,30.054,415.721)">
            <g transform="matrix(1,0,0,1,372.486,364.344)">
                <path d="M0,0.228C0,0.228 0.809,0.69 1.119,0.036L1.115,0.037C0.594,-0.462 0,0.228 0,0.228" style="fill:rgb(177,204,139);fill-rule:nonzero;"/>
            </g>
        </g>
        <g transform="matrix(2.10628,0,0,2.10628,30.054,415.721)">
            <g transform="matrix(1,0,0,1,372.423,366.285)">
                <path d="M0,0.18C0,0.18 0.63,0.538 0.871,0.03L0.868,0.031C0.462,-0.358 0,0.18 0,0.18" style="fill:rgb(110,196,152);fill-rule:nonzero;"/>
            </g>
        </g>
        <g transform="matrix(2.10628,0,0,2.10628,30.054,415.721)">
            <g transform="matrix(1,0,0,1,373.54,366.366)">
                <path d="M0,-0.882C0,-0.882 -0.489,-0.347 -0.044,0L-0.044,-0.004C0.424,-0.314 0,-0.882 0,-0.882" style="fill:rgb(177,204,139);fill-rule:nonzero;"/>
            </g>
        </g>
        <g transform="matrix(2.10628,0,0,2.10628,30.054,415.721)">
            <g transform="matrix(1,0,0,1,373.965,364.433)">
                <path d="M0,-1.124C0,-1.124 -0.678,-0.486 -0.143,0L-0.142,-0.004C0.488,-0.355 0,-1.124 0,-1.124" style="fill:rgb(177,204,139);fill-rule:nonzero;"/>
            </g>
        </g>
        <g transform="matrix(2.10628,0,0,2.10628,30.054,415.721)">
            <g transform="matrix(1,0,0,1,377.059,363.277)">
                <path d="M0,0.415C0,0.415 -0.521,-0.356 -1.089,0.093L-1.085,0.095C-0.839,0.771 0,0.415 0,0.415" style="fill:rgb(177,204,139);fill-rule:nonzero;"/>
            </g>
        </g>
        <g transform="matrix(2.10628,0,0,2.10628,30.054,415.721)">
            <g transform="matrix(1,0,0,1,373.876,361.672)">
                <path d="M0,-0.895C0,-0.895 0.932,-0.892 0.874,-0.171L0.871,-0.174C0.17,0 0,-0.895 0,-0.895" style="fill:rgb(177,204,139);fill-rule:nonzero;"/>
            </g>
        </g>
        <g transform="matrix(2.10628,0,0,2.10628,30.054,415.721)">
            <g transform="matrix(1,0,0,1,373.777,362.304)">
                <path d="M0,-0.418C0,-0.418 0.864,-0.765 1.082,-0.075L1.078,-0.076C0.494,0.347 0,-0.418 0,-0.418" style="fill:rgb(177,204,139);fill-rule:nonzero;"/>
            </g>
        </g>
    </g>
</svg>
