<?xml version="1.0" encoding="UTF-8" standalone="no"?>
<!DOCTYPE svg PUBLIC "-//W3C//DTD SVG 1.1//EN" "http://www.w3.org/Graphics/SVG/1.1/DTD/svg11.dtd">
<svg width="100%" height="100%" viewBox="0 0 25 31" version="1.1" xmlns="http://www.w3.org/2000/svg" xmlns:xlink="http://www.w3.org/1999/xlink" xml:space="preserve" xmlns:serif="http://www.serif.com/" style="fill-rule:evenodd;clip-rule:evenodd;stroke-linejoin:round;stroke-miterlimit:2;">
    <g transform="matrix(1,0,0,1,-718.964,-1635.61)">
        <g transform="matrix(1,0,0,1,718.964,1635.61)">
            <g transform="matrix(0,-1,-1,0,4.2795,0.0004)">
                <path d="M-4.233,-4.234C-6.571,-4.234 -8.467,-2.339 -8.467,-0.001C-8.467,2.338 -6.571,4.233 -4.233,4.233C-1.895,4.233 0,2.338 0,-0.001C0,-2.339 -1.895,-4.234 -4.233,-4.234" style="fill:white;fill-rule:nonzero;"/>
            </g>
        </g>
        <g transform="matrix(1,0,0,1,718.964,1635.61)">
            <g transform="matrix(1,0,0,1,4.2801,10.4208)">
                <path d="M0,19.648C-1.223,19.648 -2.255,18.737 -2.407,17.524L-4.261,2.728C-4.442,1.279 -3.313,0 -1.854,0L1.854,0C3.313,0 4.442,1.279 4.261,2.728L2.407,17.524C2.255,18.737 1.223,19.648 0,19.648" style="fill:white;fill-rule:nonzero;"/>
            </g>
        </g>
        <g transform="matrix(1,0,0,1,718.964,1635.61)">
            <g transform="matrix(0,-1,-1,0,20.5061,0.0004)">
                <path d="M-4.233,-4.234C-6.571,-4.234 -8.467,-2.338 -8.467,0C-8.467,2.338 -6.571,4.233 -4.233,4.233C-1.895,4.233 0,2.338 0,0C0,-2.338 -1.895,-4.234 -4.233,-4.234" style="fill:white;fill-rule:nonzero;"/>
            </g>
        </g>
        <g transform="matrix(1,0,0,1,718.964,1635.61)">
            <g transform="matrix(1,0,0,1,20.5062,30.0689)">
                <path d="M0,-19.648C1.223,-19.648 2.255,-18.737 2.407,-17.523L4.261,-2.728C4.442,-1.279 3.313,0 1.854,0L-1.854,0C-3.313,0 -4.442,-1.279 -4.261,-2.728L-2.407,-17.523C-2.255,-18.737 -1.223,-19.648 0,-19.648" style="fill:white;fill-rule:nonzero;"/>
            </g>
        </g>
    </g>
</svg>
