<?xml version="1.0" encoding="UTF-8" standalone="no"?>
<!DOCTYPE svg PUBLIC "-//W3C//DTD SVG 1.1//EN" "http://www.w3.org/Graphics/SVG/1.1/DTD/svg11.dtd">
<svg width="100%" height="100%" viewBox="0 0 27 29" version="1.1" xmlns="http://www.w3.org/2000/svg" xmlns:xlink="http://www.w3.org/1999/xlink" xml:space="preserve" xmlns:serif="http://www.serif.com/" style="fill-rule:evenodd;clip-rule:evenodd;stroke-linejoin:round;stroke-miterlimit:2;">
    <g transform="matrix(1,0,0,1,-1105.23,-1633.9)">
        <g transform="matrix(1.04187,0,0,1.04187,1105.23,1633.9)">
            <g transform="matrix(1,0,0,1,5.1706,3.1291)">
                <path d="M0,2.44C0,3.396 0.777,4.173 1.734,4.173C2.689,4.173 3.466,3.396 3.466,2.44C3.466,1.534 2.739,0.279 1.889,-0.957C1.625,-0.506 1.319,-0.118 1.035,0.242C0.457,0.977 0,1.558 0,2.44M4.9,2.44C4.9,4.187 3.48,5.607 1.734,5.607C-0.013,5.607 -1.434,4.187 -1.434,2.44C-1.434,1.06 -0.721,0.154 -0.091,-0.645C0.384,-1.248 0.833,-1.818 1.041,-2.597C1.112,-2.864 1.331,-3.066 1.602,-3.117C1.874,-3.167 2.15,-3.058 2.313,-2.834C3.622,-1.039 4.9,0.847 4.9,2.44" style="fill:white;fill-rule:nonzero;"/>
            </g>
        </g>
        <g transform="matrix(1.04187,0,0,1.04187,1105.23,1633.9)">
            <g transform="matrix(1,0,0,1,20.6545,22.2396)">
                <path d="M0,-5.13L0,-8.711L1.588,-8.711C3.104,-8.711 3.78,-8.324 3.78,-6.035C3.78,-3.53 1.031,-1.763 -0.961,-0.811C-0.345,-2.123 0,-3.587 0,-5.13M-2.333,1.353C-1.058,0.923 5.261,-1.441 5.261,-6.035C5.261,-8.91 4.128,-10.192 1.588,-10.192L-19.914,-10.192C-20.323,-10.192 -20.654,-9.86 -20.654,-9.451L-20.654,-5.13C-20.654,-1.444 -18.687,1.791 -15.749,3.581L-17.92,3.581C-18.329,3.581 -18.66,3.913 -18.66,4.322C-18.66,4.731 -18.329,5.062 -17.92,5.062L-2.734,5.062C-2.325,5.062 -1.993,4.731 -1.993,4.322C-1.993,3.913 -2.325,3.581 -2.734,3.581L-4.906,3.581C-3.929,2.986 -3.059,2.231 -2.333,1.353" style="fill:white;fill-rule:nonzero;"/>
            </g>
        </g>
    </g>
</svg>
