<?xml version="1.0" encoding="UTF-8" standalone="no"?>
<!DOCTYPE svg PUBLIC "-//W3C//DTD SVG 1.1//EN" "http://www.w3.org/Graphics/SVG/1.1/DTD/svg11.dtd">
<svg width="100%" height="100%" viewBox="0 0 19 35" version="1.1" xmlns="http://www.w3.org/2000/svg" xmlns:xlink="http://www.w3.org/1999/xlink" xml:space="preserve" xmlns:serif="http://www.serif.com/" style="fill-rule:evenodd;clip-rule:evenodd;stroke-linejoin:round;stroke-miterlimit:2;">
    <g transform="matrix(1,0,0,1,-923.024,-1633.37)">
        <g transform="matrix(1.13713,0,0,1.13713,923.024,1633.37)">
            <g transform="matrix(1,0,0,1,8.3562,-0.0005)">
                <path d="M0,8.812C2.433,8.812 4.406,6.84 4.406,4.406C4.406,1.973 2.433,0 0,0C-2.434,0 -4.406,1.973 -4.406,4.406C-4.406,6.84 -2.434,8.812 0,8.812" style="fill:white;fill-rule:nonzero;"/>
            </g>
        </g>
        <g transform="matrix(1.13713,0,0,1.13713,923.024,1633.37)">
            <g transform="matrix(1,0,0,1,8.1882,17.9153)">
                <path d="M0,5.136L-2.125,4.236L-3.947,5.737C-4.242,5.975 -4.676,5.978 -4.979,5.706C-5.322,5.399 -5.305,4.855 -4.975,4.534L-2.403,2.075C-2.175,1.857 -1.891,1.721 -1.592,1.672L-0.098,1.672L1.594,0.056C1.815,-0.189 2.164,-0.267 2.463,-0.14L2.615,-0.076C2.914,0.05 3.099,0.353 3.08,0.68L3.107,3.052C3.125,4.663 1.484,5.764 0,5.136M8.233,7.869L4.397,-1.039C4.022,-0.746 3.551,-0.571 3.038,-0.571C1.813,-0.571 0.82,-1.564 0.82,-2.789C0.82,-3.899 1.636,-4.816 2.701,-4.979L2.259,-6.004C1.984,-6.795 1.248,-7.325 0.421,-7.325L0.002,-7.325C-0.821,-7.325 -1.555,-6.801 -1.833,-6.015L-7.901,7.869C-8.795,9.979 -7.495,12.461 -5.496,12.461L5.828,12.461C7.827,12.461 9.127,9.979 8.233,7.869" style="fill:white;fill-rule:nonzero;"/>
            </g>
        </g>
        <g transform="matrix(1.13713,0,0,1.13713,923.024,1633.37)">
            <g transform="matrix(1,0,0,1,12.6638,12.7811)">
                <path d="M0,4.196L-0.157,3.995C0.358,3.595 0.653,2.994 0.653,2.345C0.653,1.193 -0.285,0.255 -1.437,0.255C-1.534,0.255 -1.635,0.263 -1.755,0.282L-1.794,0.029C-1.661,0.009 -1.547,0 -1.437,0C-0.144,0 0.908,1.052 0.908,2.345C0.908,3.073 0.577,3.748 0,4.196" style="fill:white;fill-rule:nonzero;"/>
            </g>
        </g>
    </g>
</svg>
