<?xml version="1.0" encoding="UTF-8" standalone="no"?>
<!DOCTYPE svg PUBLIC "-//W3C//DTD SVG 1.1//EN" "http://www.w3.org/Graphics/SVG/1.1/DTD/svg11.dtd">
<svg width="100%" height="100%" viewBox="0 0 32 29" version="1.1" xmlns="http://www.w3.org/2000/svg" xmlns:xlink="http://www.w3.org/1999/xlink" xml:space="preserve" xmlns:serif="http://www.serif.com/" style="fill-rule:evenodd;clip-rule:evenodd;stroke-linejoin:round;stroke-miterlimit:2;">
    <g transform="matrix(1,0,0,1,-616.928,-1635.07)">
        <g transform="matrix(1,0,0,1,616.928,1635.07)">
            <g transform="matrix(1,0,0,1,18.5823,23.5921)">
                <path d="M0,-18.52L-5.385,-18.52L-5.385,-19.145C-5.385,-19.506 -4.959,-19.811 -4.455,-19.811L-0.93,-19.811C-0.426,-19.811 0,-19.506 0,-19.145L0,-18.52ZM-6.321,-22.117L0.936,-22.117C2.423,-22.117 3.634,-21.15 3.634,-19.963L3.634,-18.52L1.477,-18.52L1.477,-19.145C1.477,-20.327 0.397,-21.288 -0.93,-21.288L-4.455,-21.288C-5.782,-21.288 -6.861,-20.327 -6.861,-19.145L-6.861,-18.52L-9.018,-18.52L-9.018,-19.963C-9.018,-21.15 -7.808,-22.117 -6.321,-22.117M11.722,1.486C11.722,2.649 10.775,3.596 9.612,3.596L-14.997,3.596C-16.16,3.596 -17.106,2.649 -17.106,1.486L-17.106,-14.935C-17.106,-16.097 -16.16,-17.044 -14.997,-17.044L9.612,-17.044C10.775,-17.044 11.722,-16.097 11.722,-14.935L11.722,1.486ZM5.109,-18.52L5.109,-19.963C5.109,-21.964 3.238,-23.592 0.936,-23.592L-6.321,-23.592C-8.622,-23.592 -10.494,-21.964 -10.494,-19.963L-10.494,-18.52L-14.997,-18.52C-16.974,-18.52 -18.583,-16.912 -18.583,-14.935L-18.583,1.486C-18.583,3.463 -16.974,5.072 -14.997,5.072L9.612,5.072C11.589,5.072 13.197,3.463 13.197,1.486L13.197,-14.935C13.197,-16.912 11.589,-18.52 9.612,-18.52L5.109,-18.52Z" style="fill:white;fill-rule:nonzero;"/>
            </g>
        </g>
        <g transform="matrix(1,0,0,1,616.928,1635.07)">
            <g transform="matrix(1,0,0,1,21.7684,19.1908)">
                <path d="M0,-4.645L-3.261,-4.645L-3.261,-7.906C-3.261,-8.149 -3.459,-8.349 -3.704,-8.349L-7.462,-8.349C-7.707,-8.349 -7.905,-8.149 -7.905,-7.906L-7.905,-4.645L-11.166,-4.645C-11.411,-4.645 -11.609,-4.447 -11.609,-4.203L-11.609,-0.443C-11.609,-0.198 -11.411,-0.001 -11.166,-0.001L-7.905,-0.001L-7.905,3.261C-7.905,3.504 -7.707,3.704 -7.462,3.704L-3.704,3.704C-3.459,3.704 -3.261,3.504 -3.261,3.261L-3.261,-0.001L0,-0.001C0.244,-0.001 0.442,-0.198 0.442,-0.443L0.442,-4.203C0.442,-4.447 0.244,-4.645 0,-4.645" style="fill:white;fill-rule:nonzero;"/>
            </g>
        </g>
    </g>
</svg>
