<?xml version="1.0" encoding="UTF-8" standalone="no"?>
<!DOCTYPE svg PUBLIC "-//W3C//DTD SVG 1.1//EN" "http://www.w3.org/Graphics/SVG/1.1/DTD/svg11.dtd">
<svg width="100%" height="100%" viewBox="0 0 10 36" version="1.1" xmlns="http://www.w3.org/2000/svg" xmlns:xlink="http://www.w3.org/1999/xlink" xml:space="preserve" xmlns:serif="http://www.serif.com/" style="fill-rule:evenodd;clip-rule:evenodd;stroke-linejoin:round;stroke-miterlimit:2;">
    <g transform="matrix(1,0,0,1,-817.026,-1631.02)">
        <g transform="matrix(1.1682,0,0,1.1682,817.026,1631.02)">
            <g transform="matrix(0,-1,-1,0,4.2804,-8.88178e-16)">
                <path d="M-4.234,-4.234C-6.572,-4.234 -8.467,-2.338 -8.467,0C-8.467,2.338 -6.572,4.234 -4.234,4.234C-1.896,4.234 0,2.338 0,0C0,-2.338 -1.896,-4.234 -4.234,-4.234" style="fill:white;fill-rule:nonzero;"/>
            </g>
        </g>
        <g transform="matrix(1.1682,0,0,1.1682,817.026,1631.02)">
            <g transform="matrix(1,0,0,1,4.28,30.069)">
                <path d="M0,-19.648C1.223,-19.648 2.255,-18.737 2.407,-17.523L4.261,-2.728C4.442,-1.279 3.313,0 1.854,0L-1.854,0C-3.313,0 -4.442,-1.279 -4.261,-2.728L-2.407,-17.523C-2.255,-18.737 -1.223,-19.648 0,-19.648" style="fill:white;fill-rule:nonzero;"/>
            </g>
        </g>
    </g>
</svg>
