<?xml version="1.0" encoding="UTF-8" standalone="no"?>
<!DOCTYPE svg PUBLIC "-//W3C//DTD SVG 1.1//EN" "http://www.w3.org/Graphics/SVG/1.1/DTD/svg11.dtd">
<svg width="100%" height="100%" viewBox="0 0 24 35" version="1.1" xmlns="http://www.w3.org/2000/svg" xmlns:xlink="http://www.w3.org/1999/xlink" xml:space="preserve" xmlns:serif="http://www.serif.com/" style="fill-rule:evenodd;clip-rule:evenodd;stroke-linejoin:round;stroke-miterlimit:2;">
    <g transform="matrix(1,0,0,1,-984.678,-1632.06)">
        <g transform="matrix(1.05091,0,0,1.05091,985.179,1632.56)">
            <g transform="matrix(0,-1,-1,0,10.2094,0.0003)">
                <path d="M-4.511,-4.512C-7.003,-4.512 -9.023,-2.492 -9.023,0C-9.023,2.491 -7.003,4.511 -4.511,4.511C-2.02,4.511 0,2.491 0,0C0,-2.492 -2.02,-4.512 -4.511,-4.512" style="fill:white;fill-rule:nonzero;stroke:white;stroke-width:0.95px;"/>
            </g>
        </g>
        <g transform="matrix(1.05091,0,0,1.05091,985.179,1632.56)">
            <g transform="matrix(1,0,0,1,5.7542,19.2434)">
                <path d="M0,10.62C-3.287,9.304 -4.89,5.559 -3.574,2.272C-3.127,1.156 -2.401,0.213 -1.453,-0.489C-1.103,-0.749 -1.002,-1.229 -1.219,-1.607L-1.22,-1.608C-1.474,-2.05 -2.06,-2.18 -2.47,-1.877C-3.677,-0.985 -4.602,0.214 -5.171,1.633C-6.839,5.8 -4.807,10.548 -0.64,12.217C0.35,12.613 1.371,12.8 2.376,12.8C5.303,12.8 8.092,11.211 9.537,8.552C9.782,8.101 9.573,7.537 9.097,7.346C8.695,7.185 8.234,7.347 8.027,7.727C6.496,10.548 3.051,11.842 0,10.62" style="fill:white;fill-rule:nonzero;stroke:white;stroke-width:0.95px;"/>
            </g>
        </g>
        <g transform="matrix(1.05091,0,0,1.05091,985.179,1632.56)">
            <g transform="matrix(1,0,0,1,21.7419,13.7719)">
                <path d="M0,13.173L-3.101,5.991C-3.104,5.985 -3.106,5.979 -3.109,5.972C-3.514,5.048 -4.458,4.479 -5.466,4.479L-6.877,4.479L-7.619,2.759L-9.463,-1.523C-9.701,-2.208 -10.338,-2.667 -11.054,-2.667L-11.417,-2.667C-12.128,-2.667 -12.764,-2.213 -13.005,-1.533L-15.093,3.245C-16.512,6.492 -14.133,10.128 -10.589,10.128L-5.516,10.128L-3.113,14.728C-2.72,15.463 -1.843,15.84 -0.997,15.55C-0.04,15.223 0.391,14.105 0,13.173" style="fill:white;fill-rule:nonzero;stroke:white;stroke-width:0.95px;"/>
            </g>
        </g>
    </g>
</svg>
