<?xml version="1.0" encoding="UTF-8" standalone="no"?><!DOCTYPE svg PUBLIC "-//W3C//DTD SVG 1.1//EN" "http://www.w3.org/Graphics/SVG/1.1/DTD/svg11.dtd"><svg width="100%" height="100%" viewBox="0 0 170 93" version="1.1" xmlns="http://www.w3.org/2000/svg" xmlns:xlink="http://www.w3.org/1999/xlink" xml:space="preserve" xmlns:serif="http://www.serif.com/" style="fill-rule:evenodd;clip-rule:evenodd;stroke-linejoin:round;stroke-miterlimit:2;"><path d="M127.612,56.926c-2.154,1.212 -3.702,2.222 -4.51,2.895c-0.875,0.74 -1.481,1.144 -1.616,1.278c0.337,0.202 0.673,0.27 1.077,0.337c1.684,0.202 2.491,1.144 2.424,2.76c-4.577,2.76 -10.098,2.356 -16.627,-1.346c-8.01,-4.51 -8.615,-1.818 -1.951,8.212l0,0.336c-7.674,8.819 -7.203,11.242 1.548,7.27c8.144,-3.702 13.463,-4.442 16.02,-2.154c-1.346,0.472 -2.491,1.279 -3.366,2.288c0.27,1.415 0.404,2.895 0.539,4.578c0.135,1.75 0.875,2.962 2.356,3.635c1.009,0.471 1.682,-0.068 2.154,-1.548c0.472,-1.481 1.279,-2.76 2.355,-3.837c0.069,-0.067 0.135,-0.067 0.202,-0.135c0.135,-0.202 0.337,-0.404 0.607,-0.606c0.403,-0.336 0.942,-0.605 1.548,-0.672c1.077,0.538 2.22,1.144 3.299,1.75c1.211,0.673 2.422,1.077 3.768,1.144c0.944,0 1.751,0 2.626,-0.202c-0.942,0.875 -1.481,2.154 -1.481,3.837c-0.067,1.615 0.404,3.163 1.346,4.442c0.404,0.606 0.741,1.01 1.077,1.346c1.346,-1.884 2.626,-3.903 3.77,-6.058c0.538,-0.942 0.808,-1.952 0.941,-2.962c1.415,0.203 2.896,0.337 4.579,0.203c1.615,-0.068 3.231,-0.337 4.711,-0.808c1.548,-0.404 3.03,-1.077 4.443,-1.818c0.807,-0.471 1.616,-1.009 2.356,-1.548c2.288,-1.481 4.443,-3.096 6.461,-4.913c1.213,-1.078 1.616,-2.155 1.145,-3.299c-0.471,-1.077 -1.75,-2.289 -3.904,-3.635c-2.086,-1.279 -4.914,-2.961 -8.414,-4.981c-2.828,-1.548 -6.53,-2.491 -11.173,-2.827c-1.482,-3.231 -3.434,-5.654 -5.79,-7.27c-1.009,0.067 -2.828,0.472 -5.385,1.279c-2.625,0.74 -4.981,1.75 -7.135,3.029" style="fill:#e8efe9;fill-rule:nonzero;"/><path d="M17.69,2.864c-1.432,0.805 -2.461,1.477 -2.998,1.924c-0.582,0.492 -0.985,0.761 -1.074,0.85c0.224,0.134 0.447,0.179 0.716,0.224c1.119,0.134 1.656,0.76 1.611,1.834c-3.043,1.835 -6.713,1.567 -11.053,-0.894c-5.324,-2.998 -5.726,-1.209 -1.297,5.459l0,0.223c-5.101,5.862 -4.788,7.473 1.029,4.833c5.414,-2.461 8.95,-2.953 10.65,-1.432c-0.895,0.313 -1.656,0.85 -2.238,1.521c0.18,0.94 0.269,1.924 0.358,3.043c0.09,1.163 0.582,1.969 1.566,2.416c0.671,0.313 1.119,-0.045 1.432,-1.029c0.314,-0.984 0.851,-1.835 1.566,-2.55c0.046,-0.045 0.09,-0.045 0.134,-0.09c0.09,-0.134 0.224,-0.269 0.404,-0.403c0.267,-0.223 0.626,-0.402 1.029,-0.447c0.716,0.358 1.475,0.761 2.193,1.164c0.805,0.447 1.61,0.715 2.504,0.76c0.628,0 1.164,0 1.746,-0.134c-0.626,0.581 -0.984,1.432 -0.984,2.55c-0.045,1.074 0.268,2.103 0.894,2.953c0.269,0.403 0.493,0.672 0.716,0.895c0.895,-1.252 1.746,-2.595 2.506,-4.027c0.358,-0.626 0.537,-1.298 0.626,-1.969c0.94,0.135 1.925,0.224 3.044,0.135c1.073,-0.045 2.147,-0.224 3.131,-0.537c1.029,-0.269 2.014,-0.716 2.954,-1.209c0.536,-0.313 1.074,-0.67 1.566,-1.029c1.521,-0.984 2.953,-2.058 4.295,-3.266c0.806,-0.716 1.074,-1.432 0.761,-2.193c-0.313,-0.716 -1.163,-1.521 -2.595,-2.416c-1.387,-0.85 -3.267,-1.968 -5.593,-3.311c-1.88,-1.029 -4.341,-1.656 -7.428,-1.879c-0.985,-2.148 -2.282,-3.759 -3.848,-4.833c-0.671,0.045 -1.88,0.314 -3.58,0.85c-1.745,0.492 -3.311,1.164 -4.743,2.014" style="fill:#e8efe9;fill-rule:nonzero;"/></svg>