<?xml version="1.0" encoding="UTF-8" standalone="no"?><!DOCTYPE svg PUBLIC "-//W3C//DTD SVG 1.1//EN" "http://www.w3.org/Graphics/SVG/1.1/DTD/svg11.dtd"><svg width="100%" height="100%" viewBox="0 0 253 102" version="1.1" xmlns="http://www.w3.org/2000/svg" xmlns:xlink="http://www.w3.org/1999/xlink" xml:space="preserve" xmlns:serif="http://www.serif.com/" style="fill-rule:evenodd;clip-rule:evenodd;stroke-linejoin:round;stroke-miterlimit:2;"><g><g><path d="M146.635,95.237c0,0 7.599,-6.281 17.314,-9.382c12.527,-4.004 30.265,-2.336 31.129,0.094c1.457,4.133 -12.966,15.825 -29.349,15.365c-9.433,-0.261 -18.699,-3.695 -19.094,-6.077" style="fill:#bedb9c;fill-rule:nonzero;"/><path d="M195.18,85.862l11.93,-7.474l1.181,10.114l-13.111,-2.64Z" style="fill:#bedb9c;fill-rule:nonzero;"/><path d="M162.386,94.028c0.145,0.872 -0.5,1.707 -1.442,1.864c-0.938,0.155 -1.823,-0.426 -1.967,-1.298c-0.146,-0.877 0.504,-1.713 1.442,-1.869c0.942,-0.156 1.822,0.426 1.967,1.303" style="fill:#e6f1d5;fill-rule:nonzero;"/></g><g><path d="M78.074,64.518c0,0 7.948,-5.692 17.77,-8.092c12.667,-3.101 30.098,-0.233 30.786,2.23c1.158,4.188 -13.913,14.764 -30.086,13.184c-9.313,-0.906 -18.243,-4.939 -18.47,-7.322" style="fill:#d2e6ba;fill-rule:nonzero;"/><path d="M126.737,58.577l12.313,-6.574l0.475,10.086l-12.788,-3.512Z" style="fill:#bedb9c;fill-rule:nonzero;"/><path d="M93.738,64.404c0.083,0.872 -0.612,1.654 -1.555,1.744c-0.938,0.089 -1.774,-0.547 -1.857,-1.419c-0.084,-0.878 0.617,-1.66 1.555,-1.749c0.943,-0.09 1.773,0.546 1.857,1.424" style="fill:#e6f1d5;fill-rule:nonzero;"/></g><g><path d="M187.185,18.788c0,0 7.836,-7.276 17.995,-10.818c13.109,-4.566 31.901,-2.435 32.883,0.422c1.672,4.863 -13.213,18.412 -30.525,17.708c-9.977,-0.4 -19.863,-4.517 -20.353,-7.312" style="fill:#b9d894;fill-rule:nonzero;"/><path d="M238.191,7.989l12.486,-7.989l1.342,10.637l-13.828,-2.648Z" style="fill:#b9d894;fill-rule:nonzero;"/><path d="M200.957,17.105c0.16,0.916 -0.509,1.807 -1.5,1.981c-0.986,0.173 -1.918,-0.437 -2.079,-1.354c-0.161,-0.922 0.509,-1.807 1.494,-1.98c0.991,-0.174 1.923,0.431 2.085,1.353" style="fill:#dfedc8;fill-rule:nonzero;"/></g><g><path d="M0,30.5c0,0 7.855,-6.438 17.694,-9.199c12.696,-3.559 30.386,-0.436 31.149,2.331c1.3,4.708 -13.607,16.679 -29.977,14.995c-9.435,-0.965 -18.566,-5.449 -18.866,-8.127" style="fill:#b9d894;fill-opacity:0.65;fill-rule:nonzero;"/><path d="M48.989,23.257l12.305,-6.84l0.648,10.162l-12.953,-3.322Z" style="fill:#d2e5ba;fill-rule:nonzero;"/><path d="M13.154,29.713c0.099,0.878 -0.588,1.683 -1.538,1.79c-0.944,0.106 -1.792,-0.527 -1.891,-1.406c-0.099,-0.883 0.589,-1.683 1.533,-1.789c0.95,-0.106 1.797,0.522 1.896,1.405" style="fill:#dfedc8;fill-rule:nonzero;"/></g></g></svg>