<?xml version="1.0" encoding="UTF-8" standalone="no"?><!DOCTYPE svg PUBLIC "-//W3C//DTD SVG 1.1//EN" "http://www.w3.org/Graphics/SVG/1.1/DTD/svg11.dtd"><svg width="100%" height="100%" viewBox="0 0 381 134" version="1.1" xmlns="http://www.w3.org/2000/svg" xmlns:xlink="http://www.w3.org/1999/xlink" xml:space="preserve" xmlns:serif="http://www.serif.com/" style="fill-rule:evenodd;clip-rule:evenodd;stroke-linejoin:round;stroke-miterlimit:2;"><g><path d="M83.847,6.73c0,0 9.405,-4.846 20.525,-6.286c14.349,-1.862 33.342,2.58 33.845,5.073c0.845,4.234 -16.96,13.222 -34.691,10.152c-10.219,-1.77 -19.679,-6.574 -19.679,-8.939" style="fill:#e0f0c7;fill-rule:nonzero;"/><path d="M137.675,6.659l14.325,-6.434l-0.54,12.064l-13.785,-5.63Z" style="fill:#e0f0c7;fill-rule:nonzero;"/><path d="M101.198,6.362c0,1.054 -0.858,1.906 -1.905,1.906c-1.048,0 -1.906,-0.852 -1.906,-1.906c0,-1.054 0.858,-1.905 1.906,-1.905c1.047,0 1.905,0.851 1.905,1.905" style="fill:#b0d27a;fill-rule:nonzero;"/><g><path d="M118.356,124.122c0,0 9.404,-4.846 20.525,-6.292c14.349,-1.863 33.342,2.591 33.838,5.079c0.852,4.227 -16.953,13.222 -34.684,10.152c-10.226,-1.771 -19.679,-6.574 -19.679,-8.939" style="fill:#e0f0c7;fill-rule:nonzero;"/><path d="M172.184,124.05l14.325,-6.433l-0.539,12.058l-13.786,-5.625Z" style="fill:#e0f0c7;fill-rule:nonzero;"/><path d="M135.708,123.754c0,1.054 -0.852,1.906 -1.906,1.906c-1.054,0 -1.905,-0.852 -1.905,-1.906c0,-1.047 0.851,-1.905 1.905,-1.905c1.054,0 1.906,0.858 1.906,1.905" style="fill:#b0d27a;fill-rule:nonzero;"/></g><path d="M226.422,21.162c0,0 9.399,-4.853 20.525,-6.293c14.349,-1.862 33.342,2.592 33.845,5.079c0.839,4.228 -16.959,13.216 -34.697,10.146c-10.213,-1.764 -19.673,-6.568 -19.673,-8.932" style="fill:#e0f0c7;fill-rule:nonzero;"/><path d="M280.25,21.087l14.325,-6.427l-0.539,12.057l-13.786,-5.63Z" style="fill:#e0f0c7;fill-rule:nonzero;"/><path d="M243.773,20.794c0,1.048 -0.851,1.899 -1.905,1.899c-1.048,0 -1.906,-0.851 -1.906,-1.899c0,-1.054 0.858,-1.906 1.906,-1.906c1.054,0 1.905,0.852 1.905,1.906" style="fill:#b0d27a;fill-rule:nonzero;"/><g><path d="M311.901,124.127c0,0 9.398,-4.846 20.519,-6.292c14.349,-1.862 33.348,2.592 33.844,5.079c0.846,4.234 -16.959,13.216 -34.69,10.146c-10.22,-1.764 -19.673,-6.568 -19.673,-8.933" style="fill:#e0f0c7;fill-rule:nonzero;"/><path d="M365.723,124.055l14.325,-6.433l-0.539,12.058l-13.786,-5.625Z" style="fill:#e0f0c7;fill-rule:nonzero;"/><path d="M329.246,123.759c0,1.048 -0.851,1.906 -1.905,1.906c-1.048,0 -1.899,-0.858 -1.899,-1.906c0,-1.054 0.851,-1.905 1.899,-1.905c1.054,0 1.905,0.851 1.905,1.905" style="fill:#b0d27a;fill-rule:nonzero;"/></g><path d="M47.37,55.604c0,0 7.64,-3.939 16.677,-5.11c11.66,-1.519 27.093,2.096 27.491,4.118c0.693,3.437 -13.773,10.746 -28.183,8.253c-8.302,-1.44 -15.985,-5.343 -15.985,-7.261" style="fill:#e0f0c7;fill-rule:nonzero;"/><path d="M91.105,55.539l11.641,-5.22l-0.435,9.797l-11.206,-4.577Z" style="fill:#e0f0c7;fill-rule:nonzero;"/><path d="M61.467,55.302c0,0.852 -0.693,1.544 -1.544,1.544c-0.858,0 -1.551,-0.692 -1.551,-1.544c0,-0.851 0.693,-1.544 1.551,-1.544c0.851,0 1.544,0.693 1.544,1.544" style="fill:#b0d27a;fill-rule:nonzero;"/><path d="M0,22.505c0,0 7.64,-3.939 16.671,-5.11c11.66,-1.513 27.093,2.102 27.498,4.124c0.686,3.437 -13.774,10.74 -28.184,8.253c-8.302,-1.44 -15.985,-5.349 -15.985,-7.267" style="fill:#e0f0c7;fill-rule:nonzero;"/><path d="M43.735,22.445l11.635,-5.22l-0.435,9.797l-11.2,-4.577Z" style="fill:#e0f0c7;fill-rule:nonzero;"/><path d="M14.094,22.206c0,0.858 -0.693,1.544 -1.544,1.544c-0.858,0 -1.55,-0.686 -1.55,-1.544c0,-0.858 0.692,-1.544 1.55,-1.544c0.851,0 1.544,0.686 1.544,1.544" style="fill:#b0d27a;fill-rule:nonzero;"/><path d="M211.326,65.632c0,0 7.64,-3.933 16.677,-5.11c11.654,-1.513 27.093,2.102 27.492,4.124c0.692,3.437 -13.774,10.74 -28.184,8.246c-8.296,-1.433 -15.985,-5.342 -15.985,-7.26" style="fill:#e0f0c7;fill-rule:nonzero;"/><path d="M255.064,65.576l11.641,-5.226l-0.441,9.796l-11.2,-4.57Z" style="fill:#e0f0c7;fill-rule:nonzero;"/><path d="M225.426,65.333c0,0.858 -0.693,1.544 -1.544,1.544c-0.858,0 -1.55,-0.686 -1.55,-1.544c0,-0.858 0.692,-1.544 1.55,-1.544c0.851,0 1.544,0.686 1.544,1.544" style="fill:#b0d27a;fill-rule:nonzero;"/><path d="M135.853,41.912c0,0 7.641,-3.94 16.678,-5.11c11.659,-1.513 27.093,2.108 27.491,4.13c0.692,3.431 -13.773,10.74 -28.184,8.24c-8.301,-1.433 -15.985,-5.342 -15.985,-7.26" style="fill:#e0f0c7;fill-rule:nonzero;"/><path d="M179.588,41.855l11.641,-5.226l-0.435,9.803l-11.206,-4.577Z" style="fill:#e0f0c7;fill-rule:nonzero;"/><path d="M149.95,41.615c0,0.858 -0.692,1.544 -1.544,1.544c-0.858,0 -1.55,-0.686 -1.55,-1.544c0,-0.857 0.692,-1.544 1.55,-1.544c0.852,0 1.544,0.687 1.544,1.544" style="fill:#b0d27a;fill-rule:nonzero;"/></g></svg>