<?xml version="1.0" encoding="UTF-8" standalone="no"?><!DOCTYPE svg PUBLIC "-//W3C//DTD SVG 1.1//EN" "http://www.w3.org/Graphics/SVG/1.1/DTD/svg11.dtd"><svg width="100%" height="100%" viewBox="0 0 330 107" version="1.1" xmlns="http://www.w3.org/2000/svg" xmlns:xlink="http://www.w3.org/1999/xlink" xml:space="preserve" xmlns:serif="http://www.serif.com/" style="fill-rule:evenodd;clip-rule:evenodd;stroke-linejoin:round;stroke-miterlimit:2;"><g><path d="M72.595,5.355c0,0 8.143,-3.856 17.771,-5.002c12.423,-1.482 28.868,2.053 29.303,4.037c0.732,3.368 -14.684,10.519 -30.035,8.077c-8.848,-1.409 -17.039,-5.231 -17.039,-7.112" style="fill:#e0f0c7;fill-rule:nonzero;"/><path d="M119.2,5.298l12.402,-5.119l-0.467,9.599l-11.935,-4.48Z" style="fill:#e0f0c7;fill-rule:nonzero;"/><path d="M87.618,5.062c0,0.838 -0.743,1.516 -1.65,1.516c-0.907,0 -1.65,-0.678 -1.65,-1.516c0,-0.839 0.743,-1.516 1.65,-1.516c0.907,0 1.65,0.677 1.65,1.516" style="fill:#b0d27a;fill-rule:nonzero;"/><g><path d="M102.473,98.754c0,0 8.143,-3.855 17.771,-5.006c12.423,-1.482 28.868,2.062 29.298,4.041c0.737,3.364 -14.679,10.52 -30.03,8.078c-8.854,-1.409 -17.039,-5.231 -17.039,-7.113" style="fill:#e0f0c7;fill-rule:nonzero;"/><path d="M149.078,98.697l12.403,-5.118l-0.467,9.593l-11.936,-4.475Z" style="fill:#e0f0c7;fill-rule:nonzero;"/><path d="M117.496,98.462c0,0.838 -0.737,1.516 -1.649,1.516c-0.913,0 -1.65,-0.678 -1.65,-1.516c0,-0.834 0.737,-1.516 1.65,-1.516c0.912,0 1.649,0.682 1.649,1.516" style="fill:#b0d27a;fill-rule:nonzero;"/></g><path d="M196.038,16.837c0,0 8.137,-3.861 17.77,-5.007c12.424,-1.482 28.868,2.062 29.303,4.041c0.727,3.364 -14.683,10.515 -30.04,8.073c-8.843,-1.404 -17.033,-5.226 -17.033,-7.107" style="fill:#e0f0c7;fill-rule:nonzero;"/><path d="M242.642,16.777l12.403,-5.113l-0.467,9.593l-11.936,-4.48Z" style="fill:#e0f0c7;fill-rule:nonzero;"/><path d="M211.06,16.544c0,0.834 -0.737,1.511 -1.649,1.511c-0.907,0 -1.65,-0.677 -1.65,-1.511c0,-0.838 0.743,-1.516 1.65,-1.516c0.912,0 1.649,0.678 1.649,1.516" style="fill:#b0d27a;fill-rule:nonzero;"/><g><path d="M270.046,98.759c0,0 8.137,-3.856 17.765,-5.007c12.424,-1.481 28.873,2.062 29.303,4.042c0.732,3.368 -14.683,10.514 -30.035,8.072c-8.848,-1.404 -17.033,-5.226 -17.033,-7.107" style="fill:#e0f0c7;fill-rule:nonzero;"/><path d="M316.646,98.701l12.402,-5.118l-0.467,9.593l-11.935,-4.475Z" style="fill:#e0f0c7;fill-rule:nonzero;"/><path d="M285.064,98.466c0,0.833 -0.738,1.516 -1.65,1.516c-0.907,0 -1.644,-0.683 -1.644,-1.516c0,-0.839 0.737,-1.516 1.644,-1.516c0.912,0 1.65,0.677 1.65,1.516" style="fill:#b0d27a;fill-rule:nonzero;"/></g><path d="M41.013,44.24c0,0 6.615,-3.134 14.439,-4.065c10.095,-1.209 23.458,1.667 23.803,3.275c0.599,2.735 -11.925,8.551 -24.402,6.567c-7.188,-1.146 -13.84,-4.251 -13.84,-5.777" style="fill:#e0f0c7;fill-rule:nonzero;"/><path d="M78.879,44.188l10.079,-4.153l-0.377,7.794l-9.702,-3.641Z" style="fill:#e0f0c7;fill-rule:nonzero;"/><path d="M53.218,44c0,0.677 -0.599,1.228 -1.337,1.228c-0.742,0 -1.342,-0.551 -1.342,-1.228c0,-0.678 0.6,-1.229 1.342,-1.229c0.738,0 1.337,0.551 1.337,1.229" style="fill:#b0d27a;fill-rule:nonzero;"/><path d="M0,17.906c0,0 6.615,-3.135 14.434,-4.066c10.095,-1.204 23.457,1.672 23.807,3.281c0.595,2.734 -11.924,8.545 -24.401,6.566c-7.188,-1.146 -13.84,-4.256 -13.84,-5.781" style="fill:#e0f0c7;fill-rule:nonzero;"/><path d="M37.866,17.858l10.073,-4.153l-0.376,7.794l-9.697,-3.641Z" style="fill:#e0f0c7;fill-rule:nonzero;"/><path d="M12.202,17.668c0,0.682 -0.599,1.228 -1.336,1.228c-0.743,0 -1.343,-0.546 -1.343,-1.228c0,-0.683 0.6,-1.229 1.343,-1.229c0.737,0 1.336,0.546 1.336,1.229" style="fill:#b0d27a;fill-rule:nonzero;"/><path d="M182.967,52.219c0,0 6.615,-3.13 14.44,-4.066c10.089,-1.204 23.457,1.672 23.802,3.281c0.599,2.734 -11.925,8.545 -24.402,6.561c-7.182,-1.141 -13.84,-4.251 -13.84,-5.776" style="fill:#e0f0c7;fill-rule:nonzero;"/><path d="M220.836,52.174l10.079,-4.158l-0.382,7.794l-9.697,-3.636Z" style="fill:#e0f0c7;fill-rule:nonzero;"/><path d="M195.175,51.981c0,0.682 -0.599,1.228 -1.337,1.228c-0.742,0 -1.342,-0.546 -1.342,-1.228c0,-0.683 0.6,-1.229 1.342,-1.229c0.738,0 1.337,0.546 1.337,1.229" style="fill:#b0d27a;fill-rule:nonzero;"/><path d="M117.623,33.346c0,0 6.615,-3.134 14.439,-4.065c10.095,-1.204 23.457,1.677 23.802,3.285c0.6,2.73 -11.925,8.546 -24.401,6.557c-7.188,-1.141 -13.84,-4.251 -13.84,-5.777" style="fill:#e0f0c7;fill-rule:nonzero;"/><path d="M155.489,33.301l10.079,-4.158l-0.377,7.799l-9.702,-3.641Z" style="fill:#e0f0c7;fill-rule:nonzero;"/><path d="M129.828,33.11c0,0.683 -0.6,1.229 -1.337,1.229c-0.743,0 -1.342,-0.546 -1.342,-1.229c0,-0.682 0.599,-1.228 1.342,-1.228c0.737,0 1.337,0.546 1.337,1.228" style="fill:#b0d27a;fill-rule:nonzero;"/></g></svg>