<?xml version="1.0" encoding="UTF-8" standalone="no"?>
<!DOCTYPE svg PUBLIC "-//W3C//DTD SVG 1.1//EN" "http://www.w3.org/Graphics/SVG/1.1/DTD/svg11.dtd">
<svg width="100%" height="100%" viewBox="0 0 361 262" version="1.1" xmlns="http://www.w3.org/2000/svg" xmlns:xlink="http://www.w3.org/1999/xlink" xml:space="preserve" xmlns:serif="http://www.serif.com/" style="fill-rule:evenodd;clip-rule:evenodd;stroke-linejoin:round;stroke-miterlimit:2;">
    <g transform="matrix(1,0,0,1,54.4263,-4732.97)">
        <g transform="matrix(-1.46954,0.922071,0.95093,1.42189,418.637,4429.72)">
            <g transform="matrix(149,-243,-243,-149,250.273,194.053)">
                <clipPath id="_clip1">
                    <path d="M-0.173,0.01L0.091,-0.421L0.69,-0.053L0.426,0.378L-0.173,0.01Z" clip-rule="nonzero"/>
                </clipPath>
                <g clip-path="url(#_clip1)">
                    <path d="M0.514,0.142C0.515,0.139 0.516,0.136 0.519,0.133C0.523,0.127 0.53,0.123 0.533,0.117C0.534,0.113 0.534,0.109 0.533,0.105C0.533,0.103 0.531,0.102 0.531,0.105C0.53,0.107 0.53,0.109 0.53,0.111C0.53,0.113 0.529,0.114 0.528,0.116C0.527,0.116 0.527,0.117 0.527,0.118C0.526,0.122 0.522,0.125 0.52,0.127C0.518,0.129 0.517,0.13 0.515,0.132C0.514,0.135 0.512,0.137 0.512,0.14C0.512,0.142 0.511,0.143 0.511,0.145C0.513,0.145 0.513,0.143 0.514,0.142ZM0.52,0.097C0.518,0.098 0.516,0.098 0.515,0.098L0.515,0.1C0.516,0.1 0.517,0.1 0.518,0.1C0.519,0.1 0.521,0.1 0.522,0.099C0.522,0.099 0.523,0.098 0.523,0.098C0.523,0.096 0.52,0.097 0.52,0.097ZM0.446,0.033C0.446,0.032 0.448,0.031 0.448,0.03C0.448,0.029 0.447,0.028 0.446,0.026C0.445,0.025 0.444,0.023 0.443,0.023C0.441,0.024 0.438,0.027 0.436,0.029C0.428,0.036 0.423,0.04 0.411,0.047C0.406,0.05 0.402,0.053 0.407,0.052L0.416,0.052C0.419,0.052 0.422,0.052 0.424,0.053C0.428,0.053 0.428,0.053 0.43,0.05C0.435,0.044 0.441,0.039 0.446,0.033ZM0.521,0.073C0.523,0.068 0.524,0.069 0.518,0.069C0.514,0.069 0.516,0.069 0.517,0.071C0.518,0.072 0.518,0.074 0.518,0.074C0.519,0.076 0.52,0.074 0.521,0.073ZM0.513,0.059C0.515,0.057 0.517,0.055 0.518,0.053C0.521,0.051 0.525,0.049 0.53,0.048C0.534,0.047 0.539,0.046 0.544,0.045C0.548,0.043 0.549,0.044 0.546,0.042C0.533,0.034 0.526,0.029 0.522,0.014C0.521,0.012 0.521,0.01 0.521,0.008C0.52,0.007 0.517,0.009 0.516,0.01C0.513,0.012 0.508,0.017 0.507,0.021C0.507,0.023 0.507,0.026 0.506,0.028C0.505,0.031 0.503,0.033 0.501,0.035L0.499,0.039C0.498,0.037 0.497,0.035 0.497,0.033C0.497,0.031 0.497,0.029 0.498,0.026C0.498,0.025 0.499,0.023 0.498,0.021C0.498,0.02 0.496,0.02 0.496,0.021C0.495,0.021 0.494,0.025 0.494,0.027C0.493,0.032 0.495,0.033 0.491,0.038C0.491,0.039 0.49,0.04 0.49,0.041C0.49,0.043 0.497,0.047 0.499,0.048C0.502,0.05 0.506,0.055 0.508,0.057C0.512,0.062 0.511,0.061 0.513,0.059ZM0.463,-0.033C0.468,-0.033 0.473,-0.032 0.478,-0.03C0.479,-0.029 0.49,-0.026 0.491,-0.03C0.491,-0.031 0.481,-0.038 0.479,-0.039C0.47,-0.043 0.462,-0.044 0.453,-0.046C0.442,-0.048 0.429,-0.049 0.42,-0.056C0.418,-0.057 0.406,-0.059 0.41,-0.054C0.413,-0.049 0.417,-0.044 0.418,-0.038C0.42,-0.034 0.419,-0.034 0.423,-0.034C0.429,-0.034 0.436,-0.033 0.441,-0.031C0.445,-0.031 0.446,-0.03 0.449,-0.031C0.453,-0.033 0.459,-0.034 0.463,-0.033ZM0.488,-0.02C0.489,-0.02 0.49,-0.02 0.491,-0.02C0.492,-0.02 0.493,-0.021 0.494,-0.021C0.498,-0.023 0.494,-0.023 0.489,-0.023C0.488,-0.023 0.487,-0.023 0.486,-0.022C0.486,-0.021 0.487,-0.02 0.488,-0.02ZM0.491,-0.034L0.495,-0.032C0.496,-0.032 0.495,-0.034 0.494,-0.034L0.486,-0.038C0.486,-0.038 0.485,-0.038 0.485,-0.037C0.486,-0.036 0.489,-0.035 0.491,-0.034ZM0.385,-0.086C0.381,-0.086 0.374,-0.086 0.368,-0.089C0.365,-0.091 0.361,-0.093 0.361,-0.092C0.363,-0.089 0.365,-0.088 0.367,-0.087C0.372,-0.084 0.376,-0.084 0.384,-0.081C0.387,-0.08 0.389,-0.079 0.391,-0.078C0.398,-0.074 0.39,-0.085 0.385,-0.086ZM0.38,-0.066C0.388,-0.066 0.386,-0.068 0.381,-0.068C0.372,-0.069 0.378,-0.066 0.38,-0.066ZM0.371,-0.082C0.37,-0.082 0.369,-0.082 0.368,-0.082C0.365,-0.081 0.361,-0.08 0.358,-0.079C0.352,-0.078 0.357,-0.077 0.364,-0.073C0.369,-0.071 0.374,-0.071 0.379,-0.07C0.382,-0.07 0.386,-0.07 0.389,-0.07C0.39,-0.07 0.392,-0.069 0.393,-0.07C0.394,-0.071 0.392,-0.073 0.391,-0.074C0.387,-0.078 0.38,-0.079 0.375,-0.081C0.374,-0.081 0.372,-0.082 0.371,-0.082ZM0.37,-0.06C0.366,-0.058 0.358,-0.052 0.364,-0.054C0.366,-0.055 0.368,-0.055 0.369,-0.055C0.373,-0.056 0.376,-0.057 0.38,-0.058C0.38,-0.058 0.385,-0.06 0.385,-0.06C0.385,-0.061 0.384,-0.061 0.383,-0.062C0.382,-0.063 0.383,-0.064 0.38,-0.064C0.378,-0.063 0.377,-0.062 0.375,-0.061C0.373,-0.061 0.371,-0.061 0.37,-0.06ZM0.51,0.098C0.511,0.097 0.511,0.097 0.51,0.097C0.508,0.096 0.506,0.095 0.505,0.095C0.503,0.095 0.501,0.096 0.5,0.097C0.493,0.102 0.5,0.101 0.504,0.1C0.506,0.099 0.508,0.098 0.51,0.098ZM0.511,0.118L0.52,0.117C0.521,0.117 0.523,0.116 0.525,0.116C0.525,0.115 0.526,0.113 0.526,0.112C0.527,0.11 0.528,0.106 0.528,0.103C0.528,0.102 0.527,0.101 0.527,0.101C0.526,0.1 0.525,0.102 0.524,0.102C0.523,0.104 0.522,0.105 0.52,0.107C0.517,0.111 0.514,0.113 0.51,0.117C0.508,0.118 0.509,0.118 0.511,0.118ZM0.507,0.116C0.507,0.115 0.51,0.113 0.515,0.108C0.519,0.104 0.518,0.103 0.515,0.105C0.513,0.107 0.511,0.109 0.509,0.111C0.508,0.112 0.506,0.113 0.506,0.114C0.505,0.115 0.502,0.118 0.507,0.116ZM0.483,-0.048C0.487,-0.046 0.491,-0.044 0.495,-0.042C0.499,-0.041 0.498,-0.041 0.498,-0.044C0.497,-0.046 0.497,-0.05 0.496,-0.05C0.496,-0.051 0.495,-0.053 0.493,-0.054C0.49,-0.059 0.485,-0.063 0.481,-0.068C0.478,-0.072 0.476,-0.078 0.472,-0.082C0.468,-0.085 0.473,-0.076 0.475,-0.072C0.477,-0.064 0.478,-0.06 0.479,-0.054C0.48,-0.051 0.48,-0.05 0.483,-0.048ZM0.178,-0.074L0.175,-0.078C0.174,-0.078 0.174,-0.077 0.174,-0.077C0.175,-0.076 0.176,-0.074 0.177,-0.074C0.178,-0.073 0.179,-0.071 0.18,-0.071L0.178,-0.074ZM0.167,-0.084C0.168,-0.086 0.171,-0.087 0.17,-0.09C0.17,-0.091 0.169,-0.092 0.169,-0.092C0.166,-0.094 0.161,-0.096 0.159,-0.098C0.158,-0.099 0.157,-0.101 0.156,-0.1C0.156,-0.099 0.158,-0.097 0.158,-0.095C0.159,-0.092 0.16,-0.089 0.163,-0.086C0.163,-0.086 0.166,-0.082 0.167,-0.083C0.167,-0.083 0.167,-0.084 0.167,-0.084ZM0.208,-0.052L0.211,-0.048L0.22,-0.039C0.222,-0.037 0.224,-0.035 0.227,-0.034C0.227,-0.034 0.229,-0.032 0.229,-0.033C0.229,-0.034 0.228,-0.036 0.227,-0.037C0.226,-0.039 0.225,-0.041 0.224,-0.043C0.22,-0.045 0.219,-0.046 0.214,-0.049C0.212,-0.05 0.21,-0.051 0.208,-0.052ZM0.235,-0.024C0.237,-0.023 0.238,-0.025 0.237,-0.027C0.235,-0.027 0.234,-0.025 0.235,-0.024ZM0.224,-0.029C0.215,-0.032 0.206,-0.033 0.197,-0.033C0.19,-0.034 0.183,-0.034 0.177,-0.036C0.172,-0.038 0.168,-0.04 0.164,-0.044C0.159,-0.048 0.156,-0.055 0.157,-0.062L0.157,-0.063C0.156,-0.063 0.155,-0.063 0.154,-0.063C0.152,-0.062 0.15,-0.061 0.148,-0.06C0.145,-0.058 0.143,-0.055 0.14,-0.053C0.138,-0.051 0.136,-0.049 0.134,-0.047C0.13,-0.045 0.127,-0.044 0.123,-0.042C0.122,-0.041 0.119,-0.039 0.12,-0.042C0.12,-0.043 0.121,-0.044 0.121,-0.045C0.121,-0.046 0.12,-0.048 0.12,-0.049C0.117,-0.058 0.125,-0.067 0.133,-0.07C0.135,-0.07 0.137,-0.071 0.139,-0.071C0.14,-0.071 0.14,-0.071 0.138,-0.072C0.135,-0.072 0.132,-0.072 0.128,-0.071C0.12,-0.068 0.112,-0.068 0.103,-0.067C0.095,-0.066 0.087,-0.066 0.079,-0.064C0.077,-0.064 0.073,-0.063 0.073,-0.062C0.072,-0.062 0.072,-0.057 0.073,-0.057C0.074,-0.056 0.075,-0.061 0.076,-0.059C0.077,-0.059 0.077,-0.057 0.077,-0.056C0.077,-0.055 0.075,-0.053 0.075,-0.053C0.074,-0.052 0.073,-0.052 0.073,-0.052L0.071,-0.048C0.07,-0.044 0.071,-0.038 0.071,-0.033C0.071,-0.03 0.071,-0.026 0.072,-0.022C0.072,-0.017 0.073,-0.01 0.073,-0.005C0.073,-0.004 0.073,-0.002 0.073,-0.002C0.074,0.001 0.074,-0.001 0.075,-0.002C0.077,-0.009 0.081,-0.012 0.081,-0.012C0.082,-0.011 0.081,-0.01 0.08,-0.009C0.078,-0.004 0.074,0 0.075,0.003C0.076,0.004 0.077,0.005 0.078,0.005C0.083,0.009 0.089,0.013 0.094,0.017C0.102,0.022 0.11,0.026 0.119,0.03C0.119,0.03 0.127,0.032 0.127,0.032C0.127,0.032 0.128,0.032 0.128,0.031C0.128,0.031 0.124,0.028 0.121,0.022C0.119,0.019 0.118,0.016 0.116,0.013C0.114,0.01 0.111,0.008 0.109,0.004C0.107,0 0.106,-0.005 0.108,-0.01C0.109,-0.013 0.113,-0.016 0.113,-0.016L0.111,-0.022C0.111,-0.023 0.115,-0.024 0.116,-0.024C0.118,-0.024 0.121,-0.022 0.123,-0.021C0.131,-0.018 0.141,-0.02 0.15,-0.019C0.155,-0.019 0.161,-0.019 0.167,-0.019C0.178,-0.018 0.19,-0.019 0.202,-0.019C0.206,-0.019 0.209,-0.018 0.212,-0.021C0.213,-0.023 0.213,-0.024 0.216,-0.026C0.218,-0.027 0.221,-0.027 0.223,-0.027C0.225,-0.027 0.227,-0.026 0.228,-0.027C0.227,-0.029 0.226,-0.029 0.224,-0.029ZM0.07,-0.004C0.07,-0.011 0.07,-0.019 0.069,-0.025C0.067,-0.024 0.068,-0.021 0.068,-0.019C0.067,-0.017 0.067,-0.015 0.067,-0.014C0.067,-0.012 0.068,-0.005 0.07,-0.004ZM0.042,-0.068C0.038,-0.069 0.036,-0.071 0.033,-0.072L0.036,-0.068C0.039,-0.063 0.042,-0.058 0.044,-0.052C0.048,-0.042 0.048,-0.032 0.053,-0.022C0.054,-0.02 0.054,-0.016 0.055,-0.015C0.056,-0.014 0.057,-0.012 0.058,-0.013C0.059,-0.013 0.061,-0.015 0.063,-0.014C0.063,-0.016 0.063,-0.016 0.062,-0.017C0.062,-0.018 0.06,-0.019 0.059,-0.02C0.048,-0.027 0.05,-0.04 0.049,-0.051C0.049,-0.056 0.047,-0.06 0.046,-0.063C0.046,-0.065 0.046,-0.066 0.046,-0.067C0.045,-0.067 0.043,-0.068 0.042,-0.068ZM0.128,0.038C0.127,0.038 0.126,0.039 0.125,0.039C0.124,0.039 0.122,0.04 0.123,0.041L0.129,0.041C0.131,0.041 0.132,0.042 0.134,0.042C0.135,0.042 0.137,0.042 0.138,0.041C0.138,0.041 0.138,0.041 0.138,0.041C0.139,0.039 0.135,0.039 0.134,0.039C0.132,0.039 0.13,0.038 0.128,0.038ZM0.127,0.045L0.129,0.047C0.129,0.048 0.13,0.048 0.131,0.048C0.132,0.048 0.142,0.047 0.142,0.046L0.13,0.044C0.129,0.044 0.128,0.044 0.127,0.045ZM0.127,0.052C0.127,0.053 0.126,0.054 0.125,0.055C0.119,0.061 0.119,0.062 0.126,0.058C0.129,0.056 0.132,0.055 0.135,0.053C0.137,0.05 0.138,0.049 0.134,0.05C0.132,0.05 0.129,0.051 0.127,0.052ZM0.146,0.036C0.147,0.036 0.149,0.036 0.149,0.035L0.14,0.02C0.139,0.019 0.138,0.018 0.139,0.017C0.14,0.017 0.144,0.02 0.145,0.021C0.149,0.023 0.155,0.025 0.156,0.029C0.158,0.032 0.156,0.033 0.155,0.033C0.153,0.034 0.153,0.035 0.154,0.035C0.155,0.035 0.157,0.034 0.158,0.033C0.175,0.023 0.179,0.02 0.179,0.02C0.188,0.015 0.205,0.001 0.208,-0.001C0.216,-0.008 0.218,-0.008 0.224,-0.012C0.224,-0.013 0.227,-0.016 0.226,-0.015C0.225,-0.015 0.224,-0.014 0.223,-0.013C0.22,-0.011 0.217,-0.01 0.212,-0.01C0.21,-0.01 0.208,-0.01 0.205,-0.01C0.201,-0.009 0.197,-0.005 0.194,-0.003C0.189,-0.001 0.185,0.001 0.18,0.002C0.17,0.004 0.16,0.005 0.15,0.002C0.143,-0.001 0.135,-0.008 0.13,-0.013C0.127,-0.016 0.127,-0.016 0.132,-0.009C0.136,-0.001 0.138,0.019 0.139,0.024C0.139,0.027 0.14,0.031 0.142,0.033C0.142,0.035 0.144,0.036 0.146,0.036ZM0.518,0.216C0.513,0.213 0.507,0.211 0.504,0.207C0.499,0.198 0.502,0.186 0.503,0.176C0.504,0.173 0.505,0.17 0.504,0.166L0.499,0.176C0.497,0.178 0.494,0.181 0.491,0.183C0.487,0.186 0.481,0.189 0.474,0.189C0.47,0.189 0.464,0.19 0.464,0.185C0.464,0.18 0.468,0.175 0.47,0.172C0.477,0.163 0.485,0.155 0.493,0.147C0.496,0.144 0.499,0.141 0.495,0.142C0.493,0.142 0.492,0.142 0.491,0.143C0.491,0.143 0.482,0.155 0.466,0.169C0.454,0.179 0.439,0.188 0.424,0.193C0.42,0.195 0.414,0.197 0.41,0.197C0.408,0.196 0.405,0.194 0.404,0.192C0.4,0.187 0.397,0.181 0.399,0.175C0.401,0.168 0.406,0.162 0.411,0.157C0.418,0.151 0.425,0.145 0.434,0.141C0.438,0.139 0.444,0.137 0.448,0.135C0.45,0.134 0.451,0.133 0.449,0.132C0.447,0.131 0.445,0.129 0.444,0.129C0.442,0.129 0.44,0.131 0.439,0.132C0.431,0.136 0.423,0.141 0.414,0.139C0.412,0.139 0.409,0.138 0.409,0.136C0.408,0.133 0.411,0.129 0.412,0.127C0.413,0.125 0.414,0.124 0.411,0.125C0.406,0.126 0.4,0.126 0.395,0.125C0.389,0.123 0.385,0.119 0.381,0.115C0.378,0.11 0.378,0.109 0.378,0.103C0.378,0.101 0.373,0.1 0.371,0.099C0.368,0.098 0.366,0.096 0.364,0.095C0.36,0.091 0.358,0.085 0.361,0.08C0.363,0.075 0.369,0.071 0.374,0.068C0.377,0.067 0.379,0.066 0.381,0.065C0.384,0.062 0.382,0.061 0.381,0.058C0.379,0.053 0.379,0.046 0.381,0.041C0.383,0.033 0.39,0.026 0.396,0.021C0.399,0.019 0.402,0.017 0.405,0.015C0.406,0.014 0.407,0.014 0.407,0.013C0.408,0.012 0.407,0.01 0.406,0.01C0.404,0.009 0.401,0.01 0.399,0.01C0.397,0.01 0.393,0.009 0.392,0.01C0.392,0.01 0.391,0.011 0.391,0.012C0.386,0.024 0.378,0.036 0.364,0.038C0.363,0.038 0.361,0.039 0.36,0.039C0.359,0.038 0.358,0.037 0.358,0.036C0.356,0.032 0.352,0.03 0.35,0.027C0.347,0.024 0.345,0.02 0.346,0.016C0.347,0.005 0.354,-0.007 0.36,-0.016C0.361,-0.017 0.362,-0.02 0.362,-0.022C0.362,-0.023 0.361,-0.024 0.36,-0.023C0.358,-0.019 0.356,-0.015 0.353,-0.011C0.347,-0.001 0.339,0.01 0.33,0.018C0.327,0.022 0.322,0.025 0.318,0.028C0.308,0.034 0.299,0.037 0.288,0.036C0.28,0.036 0.274,0.032 0.268,0.028C0.265,0.027 0.263,0.026 0.262,0.023C0.258,0.018 0.256,0.012 0.256,0.005C0.256,-0.002 0.258,-0.009 0.261,-0.015C0.263,-0.018 0.265,-0.021 0.267,-0.024L0.269,-0.028L0.257,-0.026C0.254,-0.025 0.249,-0.025 0.247,-0.022C0.246,-0.02 0.248,-0.016 0.248,-0.013C0.248,-0.012 0.247,-0.011 0.247,-0.01C0.247,-0.009 0.248,-0.008 0.248,-0.007C0.243,-0.009 0.245,-0.017 0.245,-0.022C0.245,-0.022 0.24,-0.019 0.24,-0.019C0.238,-0.017 0.235,-0.016 0.234,-0.014C0.227,-0.006 0.225,0.006 0.219,0.015C0.215,0.019 0.211,0.022 0.207,0.025C0.203,0.028 0.199,0.032 0.195,0.033C0.191,0.034 0.188,0.032 0.187,0.029C0.186,0.027 0.187,0.024 0.187,0.021C0.187,0.021 0.181,0.025 0.18,0.025C0.174,0.03 0.166,0.034 0.159,0.038C0.156,0.04 0.153,0.043 0.151,0.046C0.148,0.048 0.145,0.049 0.144,0.052C0.139,0.059 0.135,0.065 0.134,0.073C0.134,0.081 0.136,0.088 0.136,0.096C0.137,0.108 0.132,0.116 0.121,0.121C0.107,0.127 0.105,0.108 0.107,0.099C0.107,0.092 0.111,0.087 0.115,0.082C0.119,0.078 0.124,0.076 0.128,0.072C0.131,0.069 0.133,0.065 0.135,0.062C0.137,0.06 0.138,0.058 0.139,0.055C0.139,0.054 0.139,0.052 0.138,0.053C0.136,0.054 0.134,0.055 0.133,0.057C0.132,0.057 0.132,0.058 0.131,0.059C0.128,0.062 0.125,0.065 0.122,0.069C0.114,0.077 0.108,0.086 0.1,0.095C0.093,0.102 0.087,0.107 0.079,0.111C0.076,0.112 0.072,0.116 0.069,0.115C0.067,0.115 0.066,0.113 0.065,0.113C0.064,0.113 0.064,0.114 0.062,0.117C0.059,0.12 0.054,0.123 0.056,0.119C0.058,0.116 0.059,0.112 0.06,0.109C0.062,0.102 0.064,0.096 0.066,0.092C0.064,0.091 0.061,0.093 0.059,0.09C0.057,0.088 0.058,0.084 0.059,0.082C0.06,0.077 0.062,0.073 0.065,0.07C0.068,0.066 0.071,0.063 0.074,0.059C0.075,0.058 0.076,0.058 0.077,0.056C0.071,0.057 0.065,0.056 0.059,0.057C0.051,0.059 0.041,0.059 0.033,0.058C0.027,0.057 0.02,0.057 0.015,0.057C0.011,0.057 0.006,0.059 0.003,0.056C-0.001,0.053 0.003,0.05 0.006,0.047C0.008,0.045 0.02,0.042 0.02,0.039C0.021,0.038 0.014,0.033 0.013,0.032C0.011,0.029 0.009,0.025 0.011,0.021C0.014,0.015 0.024,0.011 0.029,0.008C0.03,0.007 0.032,0.006 0.032,0.005C0.032,0.005 0.027,0.005 0.027,0.005C0.023,0.005 0.02,0.004 0.017,0.004C0.012,0.004 0.008,0.003 0.004,0.003C0,0.002 -0.005,0.001 -0.009,0.002C-0.01,0.002 -0.011,0.002 -0.012,0.002C-0.013,0.002 -0.013,0.003 -0.014,0.003C-0.016,0.005 -0.017,0.006 -0.019,0.008C-0.023,0.011 -0.024,0.017 -0.025,0.022C-0.028,0.028 -0.03,0.034 -0.033,0.039C-0.04,0.05 -0.051,0.064 -0.066,0.062C-0.067,0.062 -0.069,0.061 -0.071,0.061C-0.072,0.06 -0.074,0.061 -0.076,0.06C-0.077,0.06 -0.077,0.055 -0.077,0.054C-0.08,0.042 -0.076,0.031 -0.066,0.023C-0.056,0.014 -0.043,0.011 -0.031,0.007C-0.029,0.006 -0.026,0.005 -0.023,0.005C-0.022,0.005 -0.02,0.005 -0.019,0.005L-0.014,0.001C-0.014,-0.001 -0.019,-0.001 -0.02,-0.001C-0.023,-0.001 -0.025,-0.002 -0.028,-0.002C-0.033,-0.003 -0.038,-0.004 -0.042,-0.004C-0.044,-0.004 -0.045,-0.003 -0.047,-0.003C-0.048,-0.003 -0.049,-0.004 -0.049,-0.004C-0.05,-0.004 -0.051,-0.004 -0.051,-0.003C-0.056,-0.002 -0.06,-0.002 -0.064,-0.002C-0.067,-0.001 -0.07,-0.001 -0.072,0.001C-0.075,0.004 -0.079,0.006 -0.082,0.008C-0.086,0.01 -0.09,0.011 -0.094,0.012C-0.098,0.013 -0.103,0.013 -0.107,0.015C-0.116,0.018 -0.126,0.024 -0.135,0.029C-0.136,0.029 -0.138,0.031 -0.139,0.031C-0.14,0.031 -0.14,0.027 -0.141,0.026C-0.142,0.024 -0.143,0.022 -0.145,0.021C-0.148,0.02 -0.149,0.018 -0.149,0.015C-0.148,0.012 -0.147,0.01 -0.147,0.007C-0.146,0.004 -0.146,0.001 -0.146,-0.002C-0.144,-0.01 -0.136,-0.015 -0.129,-0.017C-0.125,-0.018 -0.12,-0.019 -0.115,-0.019C-0.109,-0.019 -0.102,-0.017 -0.096,-0.015C-0.089,-0.012 -0.082,-0.008 -0.074,-0.006C-0.07,-0.004 -0.065,-0.005 -0.061,-0.005C-0.059,-0.005 -0.057,-0.005 -0.057,-0.006L-0.063,-0.01C-0.067,-0.012 -0.072,-0.011 -0.076,-0.013C-0.081,-0.014 -0.085,-0.018 -0.088,-0.02C-0.097,-0.026 -0.103,-0.034 -0.11,-0.042C-0.114,-0.045 -0.117,-0.05 -0.118,-0.055C-0.12,-0.06 -0.122,-0.064 -0.123,-0.069C-0.123,-0.074 -0.121,-0.076 -0.116,-0.077C-0.112,-0.078 -0.107,-0.078 -0.103,-0.077C-0.098,-0.075 -0.094,-0.071 -0.091,-0.067C-0.087,-0.063 -0.083,-0.059 -0.079,-0.055C-0.073,-0.048 -0.067,-0.039 -0.063,-0.03C-0.062,-0.028 -0.061,-0.025 -0.06,-0.023C-0.059,-0.023 -0.057,-0.023 -0.056,-0.023C-0.053,-0.022 -0.052,-0.018 -0.051,-0.015C-0.05,-0.014 -0.05,-0.013 -0.049,-0.012C-0.048,-0.011 -0.045,-0.01 -0.043,-0.009C-0.039,-0.007 -0.032,-0.006 -0.027,-0.005L-0.012,-0.003L0.007,0C0.016,0 0.025,0.001 0.033,0.002C0.041,0.003 0.049,0.003 0.056,0.003C0.058,0.003 0.063,0.003 0.064,0.002C0.064,0.001 0.062,-0.001 0.061,-0.002C0.06,-0.003 0.059,-0.004 0.058,-0.005C0.057,-0.008 0.055,-0.011 0.052,-0.012C0.051,-0.013 0.049,-0.013 0.048,-0.014C0.038,-0.019 0.027,-0.023 0.017,-0.028C0.011,-0.031 0.006,-0.034 0.002,-0.038C-0.003,-0.042 -0.007,-0.047 -0.011,-0.051C-0.013,-0.053 -0.016,-0.053 -0.019,-0.054C-0.02,-0.055 -0.026,-0.055 -0.026,-0.056C-0.026,-0.057 -0.022,-0.058 -0.021,-0.058C-0.019,-0.058 -0.018,-0.058 -0.016,-0.058C-0.018,-0.063 -0.022,-0.067 -0.024,-0.074C-0.025,-0.077 -0.026,-0.082 -0.024,-0.086C-0.023,-0.089 -0.019,-0.088 -0.016,-0.089C-0.01,-0.09 -0.003,-0.09 0.003,-0.09C0.009,-0.089 0.015,-0.087 0.019,-0.084C0.02,-0.084 0.022,-0.082 0.023,-0.082C0.024,-0.084 0.02,-0.085 0.021,-0.087C0.022,-0.087 0.024,-0.087 0.025,-0.086C0.026,-0.086 0.027,-0.086 0.028,-0.085C0.034,-0.083 0.039,-0.081 0.044,-0.078C0.045,-0.078 0.047,-0.076 0.047,-0.076C0.048,-0.077 0.049,-0.08 0.049,-0.08C0.049,-0.081 0.048,-0.082 0.047,-0.083C0.045,-0.085 0.042,-0.088 0.041,-0.089C0.038,-0.094 0.039,-0.098 0.041,-0.102C0.044,-0.107 0.048,-0.108 0.053,-0.112C0.055,-0.113 0.056,-0.118 0.06,-0.118C0.062,-0.118 0.064,-0.114 0.066,-0.114C0.069,-0.113 0.072,-0.113 0.074,-0.112C0.08,-0.11 0.085,-0.104 0.086,-0.098C0.086,-0.097 0.085,-0.095 0.086,-0.095C0.088,-0.093 0.091,-0.095 0.093,-0.095C0.1,-0.097 0.107,-0.097 0.114,-0.095C0.119,-0.094 0.124,-0.091 0.129,-0.089C0.136,-0.086 0.141,-0.079 0.148,-0.075C0.15,-0.074 0.153,-0.072 0.155,-0.071C0.157,-0.07 0.16,-0.068 0.162,-0.069C0.162,-0.069 0.163,-0.069 0.164,-0.069C0.166,-0.071 0.169,-0.07 0.171,-0.071C0.172,-0.072 0.172,-0.073 0.171,-0.073C0.17,-0.074 0.169,-0.073 0.168,-0.073C0.165,-0.071 0.161,-0.072 0.158,-0.073L0.155,-0.074C0.153,-0.075 0.157,-0.076 0.157,-0.077L0.163,-0.081C0.163,-0.083 0.16,-0.084 0.158,-0.085C0.157,-0.085 0.155,-0.085 0.154,-0.086C0.15,-0.087 0.147,-0.088 0.143,-0.089C0.134,-0.092 0.124,-0.095 0.117,-0.101C0.112,-0.105 0.108,-0.109 0.102,-0.111C0.097,-0.113 0.092,-0.115 0.088,-0.119C0.085,-0.123 0.083,-0.128 0.081,-0.133C0.081,-0.136 0.078,-0.148 0.083,-0.15C0.088,-0.153 0.096,-0.152 0.102,-0.15C0.121,-0.144 0.136,-0.131 0.136,-0.131C0.135,-0.133 0.134,-0.136 0.133,-0.138C0.126,-0.158 0.133,-0.163 0.143,-0.175C0.144,-0.176 0.152,-0.186 0.154,-0.185C0.154,-0.185 0.153,-0.183 0.153,-0.182C0.153,-0.178 0.157,-0.174 0.159,-0.171C0.161,-0.166 0.164,-0.162 0.164,-0.157C0.165,-0.156 0.167,-0.145 0.167,-0.145C0.169,-0.147 0.172,-0.148 0.175,-0.148C0.178,-0.148 0.183,-0.148 0.185,-0.147C0.191,-0.143 0.189,-0.133 0.186,-0.128C0.184,-0.124 0.186,-0.12 0.186,-0.115C0.187,-0.107 0.186,-0.097 0.182,-0.09C0.18,-0.087 0.178,-0.086 0.178,-0.083C0.177,-0.08 0.179,-0.079 0.18,-0.077C0.182,-0.073 0.185,-0.069 0.189,-0.067C0.192,-0.065 0.196,-0.063 0.199,-0.061C0.203,-0.059 0.206,-0.057 0.21,-0.055L0.219,-0.05C0.219,-0.051 0.218,-0.052 0.218,-0.053C0.216,-0.055 0.215,-0.058 0.214,-0.061C0.212,-0.066 0.209,-0.077 0.216,-0.081C0.218,-0.082 0.22,-0.08 0.222,-0.079C0.225,-0.077 0.229,-0.074 0.231,-0.07C0.232,-0.068 0.233,-0.065 0.234,-0.063C0.235,-0.061 0.235,-0.058 0.237,-0.057C0.239,-0.054 0.241,-0.054 0.241,-0.05C0.242,-0.044 0.241,-0.037 0.246,-0.033C0.248,-0.031 0.251,-0.032 0.255,-0.032C0.261,-0.033 0.267,-0.034 0.273,-0.034C0.274,-0.035 0.277,-0.034 0.277,-0.035C0.277,-0.036 0.276,-0.036 0.275,-0.036C0.267,-0.037 0.258,-0.041 0.251,-0.046C0.246,-0.05 0.242,-0.056 0.24,-0.063C0.24,-0.065 0.24,-0.068 0.241,-0.07C0.242,-0.072 0.243,-0.074 0.244,-0.076C0.246,-0.08 0.248,-0.084 0.251,-0.087C0.256,-0.094 0.265,-0.099 0.274,-0.099C0.276,-0.1 0.279,-0.099 0.282,-0.099C0.282,-0.099 0.285,-0.097 0.285,-0.098C0.286,-0.098 0.285,-0.099 0.285,-0.1C0.283,-0.104 0.287,-0.109 0.289,-0.113C0.29,-0.114 0.292,-0.116 0.292,-0.119C0.292,-0.121 0.292,-0.127 0.293,-0.128C0.294,-0.128 0.297,-0.128 0.298,-0.128C0.303,-0.129 0.306,-0.128 0.311,-0.127C0.32,-0.125 0.33,-0.119 0.338,-0.112C0.34,-0.11 0.342,-0.108 0.344,-0.106C0.347,-0.104 0.348,-0.104 0.346,-0.107C0.343,-0.111 0.341,-0.116 0.338,-0.121C0.329,-0.137 0.331,-0.158 0.343,-0.171C0.345,-0.174 0.347,-0.176 0.35,-0.177C0.35,-0.181 0.349,-0.184 0.349,-0.188C0.348,-0.195 0.35,-0.216 0.36,-0.217C0.362,-0.217 0.365,-0.215 0.367,-0.214C0.372,-0.21 0.379,-0.209 0.385,-0.205C0.403,-0.192 0.406,-0.163 0.407,-0.143C0.408,-0.134 0.406,-0.125 0.406,-0.117C0.421,-0.117 0.436,-0.115 0.449,-0.106C0.452,-0.104 0.454,-0.102 0.456,-0.1C0.459,-0.097 0.46,-0.097 0.457,-0.102C0.455,-0.105 0.453,-0.11 0.452,-0.114C0.45,-0.12 0.449,-0.128 0.449,-0.135C0.447,-0.145 0.453,-0.152 0.459,-0.159C0.461,-0.16 0.465,-0.163 0.468,-0.163C0.473,-0.162 0.479,-0.157 0.484,-0.154C0.499,-0.143 0.505,-0.129 0.509,-0.111C0.511,-0.102 0.508,-0.093 0.506,-0.084C0.503,-0.073 0.501,-0.061 0.5,-0.049C0.499,-0.047 0.5,-0.045 0.501,-0.043C0.501,-0.042 0.501,-0.039 0.503,-0.039C0.504,-0.038 0.504,-0.039 0.505,-0.04C0.508,-0.042 0.511,-0.044 0.516,-0.051C0.52,-0.056 0.52,-0.065 0.521,-0.071C0.523,-0.08 0.525,-0.088 0.528,-0.096C0.535,-0.112 0.545,-0.129 0.562,-0.131L0.589,-0.115C0.592,-0.102 0.589,-0.088 0.579,-0.077C0.567,-0.064 0.549,-0.059 0.534,-0.051C0.53,-0.049 0.527,-0.047 0.523,-0.047C0.521,-0.047 0.519,-0.047 0.517,-0.047C0.515,-0.046 0.507,-0.037 0.508,-0.035C0.511,-0.032 0.514,-0.03 0.517,-0.029C0.518,-0.028 0.52,-0.029 0.521,-0.029C0.523,-0.028 0.523,-0.026 0.525,-0.025C0.531,-0.023 0.539,-0.022 0.546,-0.02C0.579,-0.011 0.601,-0.001 0.618,0.009C0.627,0.015 0.635,0.02 0.642,0.026L0.637,0.034C0.629,0.028 0.621,0.023 0.613,0.018C0.613,0.017 0.613,0.017 0.613,0.017C0.6,0.009 0.587,0.003 0.573,-0.002C0.564,-0.006 0.553,-0.009 0.543,-0.011C0.533,-0.012 0.535,-0.01 0.538,-0.007C0.54,-0.006 0.541,-0.004 0.543,-0.002C0.548,0.005 0.55,0.012 0.556,0.019C0.56,0.024 0.565,0.029 0.568,0.036C0.569,0.037 0.57,0.039 0.571,0.039C0.572,0.04 0.575,0.039 0.576,0.039C0.579,0.039 0.582,0.039 0.584,0.039C0.597,0.04 0.608,0.044 0.621,0.047C0.623,0.048 0.625,0.049 0.628,0.049L0.626,0.053L0.597,0.099C0.591,0.102 0.584,0.104 0.577,0.104C0.568,0.106 0.559,0.106 0.549,0.105C0.546,0.105 0.542,0.104 0.539,0.104C0.536,0.104 0.536,0.103 0.536,0.105C0.537,0.107 0.538,0.11 0.539,0.111C0.542,0.113 0.544,0.113 0.546,0.114C0.551,0.117 0.558,0.12 0.561,0.125C0.562,0.128 0.561,0.128 0.563,0.126C0.567,0.124 0.575,0.118 0.575,0.118C0.58,0.114 0.586,0.11 0.593,0.107L0.576,0.134C0.576,0.134 0.575,0.134 0.575,0.134C0.571,0.138 0.55,0.148 0.55,0.144C0.55,0.143 0.55,0.142 0.551,0.141C0.551,0.139 0.552,0.137 0.55,0.139C0.548,0.141 0.547,0.143 0.545,0.143C0.544,0.144 0.542,0.143 0.542,0.144C0.54,0.145 0.542,0.149 0.543,0.15C0.544,0.154 0.545,0.157 0.546,0.16C0.548,0.165 0.55,0.17 0.551,0.175L0.526,0.216C0.524,0.216 0.523,0.216 0.522,0.217C0.52,0.217 0.519,0.216 0.518,0.216Z" style="fill:rgb(152,195,32);fill-rule:nonzero;"/>
                </g>
            </g>
        </g>
    </g>
</svg>
