<?xml version="1.0" encoding="UTF-8" standalone="no"?>
<!DOCTYPE svg PUBLIC "-//W3C//DTD SVG 1.1//EN" "http://www.w3.org/Graphics/SVG/1.1/DTD/svg11.dtd">
<svg width="100%" height="100%" viewBox="0 0 135 103" version="1.1" xmlns="http://www.w3.org/2000/svg" xmlns:xlink="http://www.w3.org/1999/xlink" xml:space="preserve" xmlns:serif="http://www.serif.com/" style="fill-rule:evenodd;clip-rule:evenodd;stroke-linejoin:round;stroke-miterlimit:2;">
    <g transform="matrix(1,0,0,1,2.79271,-4824.46)">
        <g transform="matrix(-1.75093,0,0,1.69416,476.54,4666.29)">
            <g transform="matrix(43.5003,-102.501,-102.501,-43.5003,211.228,176.726)">
                <path d="M0.639,-0.123C0.63,-0.123 0.618,-0.122 0.611,-0.119C0.599,-0.114 0.583,-0.105 0.555,-0.099C0.552,-0.099 0.549,-0.098 0.546,-0.098C0.545,-0.098 0.544,-0.096 0.545,-0.095C0.549,-0.085 0.551,-0.073 0.56,-0.068C0.57,-0.062 0.591,-0.074 0.61,-0.087C0.612,-0.088 0.613,-0.09 0.615,-0.092C0.621,-0.1 0.628,-0.108 0.637,-0.116C0.638,-0.118 0.64,-0.12 0.642,-0.121C0.642,-0.122 0.64,-0.123 0.639,-0.123ZM0.714,-0.174C0.713,-0.173 0.712,-0.171 0.711,-0.169C0.704,-0.149 0.712,-0.137 0.717,-0.13C0.734,-0.107 0.765,-0.09 0.776,-0.061C0.797,-0.01 0.762,0.044 0.763,0.062C0.763,0.081 0.77,0.09 0.771,0.098C0.772,0.1 0.77,0.1 0.769,0.099C0.757,0.085 0.73,0.082 0.707,0.062C0.694,0.05 0.677,0.032 0.668,0.019C0.647,-0.015 0.647,-0.053 0.663,-0.091C0.675,-0.117 0.688,-0.13 0.695,-0.141C0.699,-0.146 0.701,-0.154 0.704,-0.162C0.704,-0.163 0.703,-0.164 0.703,-0.164C0.684,-0.147 0.666,-0.129 0.646,-0.11C0.573,-0.037 0.562,0.009 0.559,0.028C0.555,0.06 0.583,0.109 0.578,0.172C0.575,0.207 0.562,0.234 0.585,0.257C0.586,0.259 0.585,0.26 0.583,0.26C0.568,0.254 0.53,0.237 0.503,0.195C0.484,0.165 0.476,0.134 0.484,0.104C0.484,0.103 0.483,0.103 0.482,0.104C0.477,0.111 0.473,0.117 0.471,0.121C0.457,0.143 0.44,0.163 0.418,0.178C0.395,0.195 0.367,0.2 0.342,0.212C0.331,0.217 0.319,0.224 0.311,0.234C0.305,0.243 0.299,0.255 0.295,0.264C0.295,0.264 0.294,0.264 0.294,0.263C0.293,0.258 0.295,0.253 0.296,0.248C0.301,0.229 0.3,0.209 0.305,0.19C0.314,0.155 0.338,0.113 0.368,0.093C0.397,0.073 0.424,0.066 0.458,0.077C0.474,0.082 0.476,0.094 0.483,0.092C0.485,0.091 0.489,0.088 0.492,0.083C0.492,0.082 0.493,0.081 0.494,0.079C0.505,0.059 0.533,0.039 0.547,0.025C0.552,0.019 0.563,-0.022 0.601,-0.074C0.601,-0.075 0.6,-0.075 0.6,-0.075C0.579,-0.063 0.557,-0.054 0.538,-0.04C0.517,-0.025 0.5,-0.006 0.476,0.002C0.451,0.01 0.424,0.005 0.4,-0.002C0.372,-0.011 0.349,-0.03 0.331,-0.054C0.321,-0.068 0.316,-0.082 0.307,-0.098C0.303,-0.106 0.297,-0.111 0.291,-0.12C0.288,-0.126 0.284,-0.132 0.282,-0.139C0.282,-0.14 0.282,-0.14 0.283,-0.14C0.3,-0.12 0.323,-0.111 0.351,-0.109C0.377,-0.107 0.402,-0.112 0.428,-0.117C0.435,-0.119 0.444,-0.12 0.454,-0.121C0.456,-0.121 0.456,-0.122 0.456,-0.123C0.453,-0.125 0.451,-0.127 0.449,-0.129C0.438,-0.14 0.424,-0.161 0.416,-0.177C0.401,-0.203 0.405,-0.23 0.393,-0.245C0.392,-0.246 0.394,-0.248 0.395,-0.247C0.403,-0.244 0.41,-0.235 0.428,-0.231C0.446,-0.226 0.506,-0.248 0.551,-0.216C0.576,-0.198 0.587,-0.164 0.605,-0.143C0.612,-0.136 0.622,-0.124 0.647,-0.129C0.649,-0.129 0.651,-0.131 0.652,-0.132C0.702,-0.183 0.75,-0.224 0.811,-0.263L0.814,-0.265L0.826,-0.26C0.823,-0.258 0.82,-0.255 0.817,-0.253C0.779,-0.229 0.747,-0.203 0.714,-0.174Z" style="fill:rgb(152,195,32);fill-rule:nonzero;"/>
            </g>
        </g>
        <g transform="matrix(-1.75093,0,0,1.69416,476.54,4666.29)">
            <g transform="matrix(43.4998,-102.5,-102.5,-43.4998,238.443,188.275)">
                <path d="M0.696,0.055C0.662,0.057 0.628,0.036 0.604,0.012C0.592,0 0.583,-0.017 0.571,-0.03C0.568,-0.033 0.564,-0.036 0.562,-0.04C0.562,-0.041 0.563,-0.042 0.563,-0.041C0.578,-0.031 0.594,-0.024 0.611,-0.032C0.632,-0.042 0.653,-0.053 0.675,-0.058L0.805,-0.003C0.799,-0.004 0.792,-0.004 0.786,-0.001C0.752,0.013 0.737,0.053 0.696,0.055Z" style="fill:rgb(152,195,32);fill-rule:nonzero;"/>
            </g>
        </g>
    </g>
</svg>
