<?xml version="1.0" encoding="UTF-8" standalone="no"?><!DOCTYPE svg PUBLIC "-//W3C//DTD SVG 1.1//EN" "http://www.w3.org/Graphics/SVG/1.1/DTD/svg11.dtd"><svg width="100%" height="100%" viewBox="0 0 105 116" version="1.1" xmlns="http://www.w3.org/2000/svg" xmlns:xlink="http://www.w3.org/1999/xlink" xml:space="preserve" xmlns:serif="http://www.serif.com/" style="fill-rule:evenodd;clip-rule:evenodd;stroke-linejoin:round;stroke-miterlimit:2;"><g id="分離模式"><path d="M81.992,63.694l-55.591,0c-0.902,0 -1.639,-0.755 -1.639,-1.677l0,-2.464c0,-0.922 0.737,-1.677 1.639,-1.677l55.591,0c0.902,0 1.639,0.755 1.639,1.677l0,2.464c0,0.922 -0.737,1.677 -1.639,1.677" style="fill:#fcb764;fill-rule:nonzero;"/><path d="M40.268,97.244l-12.515,-34.26l1.487,-0.342l12.516,34.26l-1.488,0.342Z" style="fill:#f9b373;fill-rule:nonzero;"/><path d="M44.549,62.872l3.675,38.523l1.543,-0.105l-3.675,-38.523l-1.543,0.105Z" style="fill:#f9b373;"/><path d="M68.125,97.244l12.515,-34.26l-1.487,-0.342l-12.516,34.26l1.488,0.342Z" style="fill:#f9b373;fill-rule:nonzero;"/><path d="M62.3,62.767l-3.675,38.523l1.543,0.105l3.675,-38.523l-1.543,-0.105Z" style="fill:#f9b373;"/><path d="M63.123,115.73l-17.834,0.013c-3.339,0.001 -6.073,-2.793 -6.075,-6.212l-0.012,-15.417l29.976,-0.021l0.012,15.416c0.002,3.419 -2.728,6.219 -6.067,6.221" style="fill:#f4ce85;fill-rule:nonzero;"/><path d="M70.208,99.098l-32.023,0c-0.979,0 -1.773,-0.812 -1.773,-1.814l0,-2.667c0,-1.002 0.794,-1.814 1.773,-1.814l32.023,0c0.979,0 1.773,0.812 1.773,1.814l0,2.667c0,1.002 -0.794,1.814 -1.773,1.814" style="fill:#f9b373;fill-rule:nonzero;"/></g><g><path d="M102.433,0l1.806,0.415l-24.382,58.092l-1.806,-0.415l24.382,-58.092Z" style="fill:#fe9898;"/><path d="M74.638,11.118l1.845,0.17l-8.023,47.505l-1.845,-0.171l8.023,-47.504Z" style="fill:#fe9898;"/><path d="M28.314,20.383l1.817,-0.243l9.235,37.8l-1.817,0.243l-9.235,-37.8Z" style="fill:#fe9898;"/><path d="M0,3.612l1.796,-0.455l26.089,56.326l-1.796,0.455l-26.089,-56.326Z" style="fill:#fe9898;"/><path d="M51.476,22.243l1.853,-0.05l1.822,37.014l-1.852,0.05l-1.823,-37.014Z" style="fill:#fe9898;"/></g></svg>