<?xml version="1.0" encoding="UTF-8" standalone="no"?><!DOCTYPE svg PUBLIC "-//W3C//DTD SVG 1.1//EN" "http://www.w3.org/Graphics/SVG/1.1/DTD/svg11.dtd"><svg width="100%" height="100%" viewBox="0 0 346 94" version="1.1" xmlns="http://www.w3.org/2000/svg" xmlns:xlink="http://www.w3.org/1999/xlink" xml:space="preserve" xmlns:serif="http://www.serif.com/" style="fill-rule:evenodd;clip-rule:evenodd;stroke-linejoin:round;stroke-miterlimit:2;"><g><path d="M266.866,31.03c0,0 -8.77,-4.519 -19.139,-5.862c-13.379,-1.737 -31.089,2.405 -31.558,4.73c-0.788,3.948 15.814,12.329 32.347,9.467c9.529,-1.651 18.35,-6.13 18.35,-8.335" style="fill:#fff;fill-rule:nonzero;"/><path d="M216.674,30.963l-13.357,-5.999l0.503,11.249l12.854,-5.25Z" style="fill:#fff;fill-rule:nonzero;"/><path d="M250.687,30.686c0,0.983 0.8,1.777 1.776,1.777c0.977,0 1.777,-0.794 1.777,-1.777c0,-0.982 -0.8,-1.777 -1.777,-1.777c-0.976,0 -1.776,0.795 -1.776,1.777" style="fill:#8eb0dd;fill-rule:nonzero;"/><path d="M186.201,6.281c0,0 -8.769,-4.519 -19.138,-5.868c-13.38,-1.736 -31.09,2.417 -31.553,4.736c-0.794,3.942 15.808,12.329 32.341,9.467c9.535,-1.651 18.35,-6.13 18.35,-8.335" style="fill:#fff;fill-rule:nonzero;"/><path d="M136.009,6.214l-13.357,-5.999l0.503,11.243l12.854,-5.244Z" style="fill:#fff;fill-rule:nonzero;"/><path d="M170.022,5.938c0,0.982 0.794,1.776 1.776,1.776c0.983,0 1.777,-0.794 1.777,-1.776c0,-0.977 -0.794,-1.777 -1.777,-1.777c-0.982,0 -1.776,0.8 -1.776,1.777" style="fill:#8eb0dd;fill-rule:nonzero;"/><path d="M133.923,44.486c0,0 -8.764,-4.525 -19.139,-5.867c-13.379,-1.737 -31.089,2.416 -31.558,4.736c-0.783,3.942 15.814,12.322 32.353,9.46c9.523,-1.645 18.344,-6.124 18.344,-8.329" style="fill:#fff;fill-rule:nonzero;"/><path d="M83.731,44.416l-13.357,-5.993l0.503,11.243l12.854,-5.25Z" style="fill:#fff;fill-rule:nonzero;"/><path d="M117.744,44.143c0,0.977 0.794,1.771 1.776,1.771c0.977,0 1.777,-0.794 1.777,-1.771c0,-0.983 -0.8,-1.777 -1.777,-1.777c-0.982,0 -1.776,0.794 -1.776,1.777" style="fill:#8eb0dd;fill-rule:nonzero;"/><path d="M63.543,18.346c0,0 -8.763,-4.519 -19.132,-5.868c-13.38,-1.736 -31.096,2.417 -31.559,4.737c-0.788,3.947 15.814,12.322 32.347,9.46c9.529,-1.645 18.344,-6.124 18.344,-8.329" style="fill:#fff;fill-rule:nonzero;"/><path d="M13.357,18.278l-13.357,-5.998l0.503,11.243l12.854,-5.245Z" style="fill:#fff;fill-rule:nonzero;"/><path d="M47.369,18.002c0,0.977 0.795,1.777 1.777,1.777c0.977,0 1.771,-0.8 1.771,-1.777c0,-0.982 -0.794,-1.776 -1.771,-1.776c-0.982,0 -1.777,0.794 -1.777,1.776" style="fill:#8eb0dd;fill-rule:nonzero;"/><path d="M300.878,76.602c0,0 -7.124,-3.674 -15.55,-4.765c-10.872,-1.417 -25.263,1.954 -25.634,3.839c-0.646,3.205 12.842,10.021 26.279,7.696c7.741,-1.343 14.905,-4.982 14.905,-6.77" style="fill:#fff;fill-rule:nonzero;"/><path d="M260.098,76.541l-10.854,-4.868l0.405,9.135l10.449,-4.267Z" style="fill:#fff;fill-rule:nonzero;"/><path d="M287.734,76.32c0,0.794 0.646,1.44 1.44,1.44c0.8,0 1.445,-0.646 1.445,-1.44c0,-0.794 -0.645,-1.44 -1.445,-1.44c-0.794,0 -1.44,0.646 -1.44,1.44" style="fill:#8eb0dd;fill-rule:nonzero;"/><path d="M345.048,45.739c0,0 -7.124,-3.674 -15.545,-4.765c-10.872,-1.411 -25.263,1.96 -25.64,3.845c-0.639,3.205 12.843,10.015 26.28,7.695c7.741,-1.342 14.905,-4.987 14.905,-6.775" style="fill:#fff;fill-rule:nonzero;"/><path d="M304.268,45.683l-10.849,-4.868l0.406,9.135l10.443,-4.267Z" style="fill:#fff;fill-rule:nonzero;"/><path d="M331.907,45.46c0,0.8 0.645,1.44 1.439,1.44c0.8,0 1.446,-0.64 1.446,-1.44c0,-0.8 -0.646,-1.44 -1.446,-1.44c-0.794,0 -1.439,0.64 -1.439,1.44" style="fill:#8eb0dd;fill-rule:nonzero;"/><path d="M147.999,85.952c0,0 -7.124,-3.668 -15.551,-4.765c-10.866,-1.411 -25.262,1.96 -25.634,3.845c-0.645,3.205 12.843,10.015 26.28,7.69c7.735,-1.337 14.905,-4.982 14.905,-6.77" style="fill:#fff;fill-rule:nonzero;"/><path d="M107.216,85.899l-10.855,-4.873l0.412,9.135l10.443,-4.262Z" style="fill:#fff;fill-rule:nonzero;"/><path d="M134.852,85.673c0,0.8 0.645,1.44 1.439,1.44c0.8,0 1.446,-0.64 1.446,-1.44c0,-0.8 -0.646,-1.439 -1.446,-1.439c-0.794,0 -1.439,0.639 -1.439,1.439" style="fill:#8eb0dd;fill-rule:nonzero;"/><path d="M218.373,63.834c0,0 -7.124,-3.673 -15.551,-4.764c-10.872,-1.411 -25.263,1.965 -25.634,3.85c-0.646,3.2 12.843,10.015 26.28,7.684c7.741,-1.337 14.905,-4.981 14.905,-6.77" style="fill:#fff;fill-rule:nonzero;"/><path d="M177.593,63.781l-10.855,-4.873l0.406,9.141l10.449,-4.268Z" style="fill:#fff;fill-rule:nonzero;"/><path d="M205.228,63.558c0,0.8 0.646,1.44 1.44,1.44c0.8,0 1.445,-0.64 1.445,-1.44c0,-0.8 -0.645,-1.44 -1.445,-1.44c-0.794,0 -1.44,0.64 -1.44,1.44" style="fill:#8eb0dd;fill-rule:nonzero;"/></g></svg>