<?xml version="1.0" encoding="UTF-8" standalone="no"?>
<!DOCTYPE svg PUBLIC "-//W3C//DTD SVG 1.1//EN" "http://www.w3.org/Graphics/SVG/1.1/DTD/svg11.dtd">
<svg width="100%" height="100%" viewBox="0 0 395 404" version="1.1" xmlns="http://www.w3.org/2000/svg" xmlns:xlink="http://www.w3.org/1999/xlink" xml:space="preserve" xmlns:serif="http://www.serif.com/" style="fill-rule:evenodd;clip-rule:evenodd;stroke-linejoin:round;stroke-miterlimit:2;">
    <g transform="matrix(1,0,0,1,-0.261423,-0.0534321)">
        <g transform="matrix(1,0,0,1,100.239,-2139.17)">
            <g transform="matrix(-358.084,-429.351,-422.187,364.159,130.887,2393.77)">
                <g>
                    <path d="M0.367,0.162C0.368,0.162 0.369,0.162 0.369,0.161C0.369,0.16 0.366,0.158 0.365,0.157C0.364,0.157 0.364,0.156 0.363,0.157C0.362,0.157 0.363,0.159 0.363,0.16C0.363,0.162 0.364,0.162 0.367,0.162ZM0.443,0.128L0.447,0.127C0.448,0.126 0.448,0.124 0.446,0.124C0.446,0.124 0.442,0.128 0.443,0.128ZM0.428,0.119C0.42,0.107 0.406,0.112 0.398,0.104C0.398,0.103 0.396,0.101 0.395,0.099C0.394,0.099 0.394,0.098 0.394,0.099C0.392,0.1 0.391,0.103 0.39,0.105C0.39,0.105 0.39,0.106 0.391,0.106C0.399,0.111 0.407,0.115 0.415,0.12L0.417,0.12C0.42,0.12 0.424,0.12 0.428,0.121C0.429,0.121 0.429,0.12 0.428,0.119ZM0.433,0.097C0.435,0.093 0.438,0.089 0.442,0.086L0.442,0.085C0.439,0.082 0.437,0.079 0.434,0.076L0.432,0.076C0.43,0.076 0.428,0.078 0.427,0.081L0.427,0.083C0.43,0.087 0.431,0.092 0.432,0.097L0.433,0.097ZM0.391,0.091C0.391,0.089 0.39,0.087 0.389,0.085C0.388,0.081 0.387,0.075 0.389,0.07C0.389,0.068 0.391,0.067 0.394,0.066L0.398,0.066C0.405,0.066 0.413,0.07 0.418,0.073L0.42,0.074C0.42,0.073 0.419,0.072 0.418,0.071C0.414,0.068 0.41,0.065 0.406,0.061C0.404,0.059 0.404,0.057 0.403,0.054C0.403,0.052 0.395,0.05 0.394,0.051C0.39,0.051 0.388,0.054 0.386,0.057C0.382,0.061 0.378,0.066 0.374,0.071C0.365,0.082 0.358,0.084 0.359,0.084C0.365,0.085 0.373,0.085 0.378,0.088C0.382,0.091 0.386,0.093 0.39,0.092C0.391,0.092 0.391,0.092 0.391,0.091ZM0.428,0.069C0.428,0.07 0.428,0.07 0.429,0.071C0.429,0.071 0.431,0.073 0.432,0.072C0.435,0.071 0.427,0.063 0.428,0.069ZM0.442,0.067C0.443,0.064 0.439,0.062 0.438,0.061C0.437,0.06 0.436,0.059 0.435,0.058C0.434,0.058 0.433,0.056 0.432,0.056C0.431,0.056 0.43,0.061 0.43,0.062C0.43,0.064 0.431,0.066 0.433,0.067C0.434,0.069 0.436,0.07 0.438,0.07C0.439,0.07 0.442,0.068 0.442,0.067ZM0.439,0.053C0.439,0.053 0.438,0.051 0.438,0.05C0.437,0.05 0.434,0.052 0.434,0.053C0.434,0.054 0.436,0.055 0.437,0.056C0.438,0.057 0.439,0.059 0.44,0.058C0.441,0.058 0.44,0.055 0.439,0.053ZM0.385,0.112C0.384,0.114 0.381,0.117 0.38,0.118C0.38,0.118 0.386,0.119 0.389,0.12C0.395,0.124 0.397,0.13 0.398,0.129C0.4,0.126 0.403,0.124 0.405,0.123C0.406,0.123 0.406,0.122 0.406,0.122C0.404,0.121 0.402,0.12 0.4,0.119C0.396,0.116 0.391,0.114 0.387,0.112L0.385,0.112ZM0.51,0.089L0.51,0.091C0.511,0.091 0.512,0.092 0.513,0.091C0.514,0.09 0.512,0.088 0.514,0.087C0.514,0.087 0.516,0.088 0.516,0.087C0.517,0.087 0.517,0.085 0.517,0.083C0.516,0.082 0.515,0.081 0.514,0.081C0.513,0.08 0.513,0.081 0.513,0.082C0.512,0.084 0.511,0.087 0.51,0.089ZM0.545,0.011C0.545,0.009 0.541,0.006 0.54,0.008C0.54,0.009 0.541,0.012 0.542,0.012C0.543,0.012 0.545,0.011 0.545,0.011ZM0.534,0.004C0.533,0.003 0.527,0.002 0.527,0.003C0.527,0.004 0.529,0.006 0.53,0.007C0.531,0.008 0.533,0.009 0.535,0.011C0.536,0.011 0.538,0.013 0.539,0.013C0.539,0.012 0.538,0.011 0.537,0.01C0.536,0.008 0.536,0.005 0.534,0.004ZM0.29,0.005C0.29,0.002 0.291,0 0.291,-0.004C0.291,-0.006 0.291,-0.011 0.288,-0.008C0.287,-0.007 0.287,-0.002 0.287,0C0.288,0.003 0.287,0.005 0.288,0.008L0.288,0.01C0.289,0.01 0.29,0.006 0.29,0.005ZM0.307,-0.015C0.309,-0.018 0.31,-0.021 0.311,-0.025C0.312,-0.027 0.314,-0.03 0.313,-0.031C0.312,-0.031 0.309,-0.029 0.307,-0.028C0.305,-0.027 0.301,-0.026 0.3,-0.024L0.301,-0.024C0.301,-0.022 0.302,-0.02 0.303,-0.018C0.303,-0.017 0.304,-0.015 0.304,-0.013C0.304,-0.013 0.303,-0.01 0.305,-0.01C0.306,-0.009 0.307,-0.014 0.307,-0.015ZM0.286,-0.024C0.285,-0.025 0.282,-0.028 0.282,-0.027L0.282,-0.025C0.282,-0.024 0.283,-0.023 0.285,-0.022C0.285,-0.021 0.288,-0.019 0.288,-0.02C0.289,-0.021 0.286,-0.023 0.286,-0.024ZM0.288,-0.031C0.287,-0.033 0.285,-0.036 0.284,-0.038C0.283,-0.039 0.279,-0.047 0.278,-0.044L0.278,-0.043L0.288,-0.026C0.288,-0.026 0.289,-0.024 0.29,-0.024C0.292,-0.025 0.289,-0.03 0.288,-0.031ZM0.33,-0.063L0.333,-0.067C0.333,-0.068 0.334,-0.07 0.333,-0.07C0.333,-0.072 0.33,-0.072 0.328,-0.072C0.324,-0.073 0.32,-0.073 0.316,-0.073C0.314,-0.074 0.312,-0.074 0.31,-0.074L0.312,-0.07L0.315,-0.07C0.317,-0.069 0.321,-0.066 0.323,-0.063L0.326,-0.057C0.327,-0.058 0.33,-0.062 0.33,-0.063ZM0.275,-0.014C0.278,-0.013 0.281,-0.013 0.284,-0.013C0.285,-0.014 0.288,-0.015 0.288,-0.015C0.288,-0.016 0.284,-0.018 0.283,-0.018C0.271,-0.021 0.253,-0.019 0.253,-0.018C0.252,-0.018 0.273,-0.014 0.275,-0.014ZM0.297,-0.014L0.3,-0.011C0.301,-0.012 0.301,-0.015 0.301,-0.016C0.3,-0.018 0.298,-0.022 0.297,-0.022C0.296,-0.023 0.294,-0.02 0.294,-0.02L0.297,-0.014ZM0.282,-0.01C0.276,-0.007 0.272,-0.002 0.27,0C0.268,0.002 0.263,0.007 0.263,0.008C0.263,0.009 0.266,0.007 0.267,0.007C0.271,0.004 0.275,0.002 0.277,0C0.281,-0.003 0.282,-0.006 0.285,-0.009C0.286,-0.009 0.288,-0.011 0.288,-0.012C0.287,-0.012 0.283,-0.011 0.282,-0.01ZM0.213,0.098C0.212,0.097 0.21,0.098 0.21,0.099C0.209,0.1 0.21,0.101 0.21,0.102C0.21,0.103 0.21,0.105 0.211,0.103L0.213,0.098ZM0.076,0.146C0.071,0.146 0.064,0.148 0.058,0.151C0.055,0.152 0.05,0.154 0.046,0.155C0.042,0.157 0.038,0.158 0.033,0.159L0.021,0.16L0.021,0.166C0.022,0.168 0.024,0.169 0.027,0.168L0.033,0.164C0.037,0.161 0.041,0.159 0.045,0.157C0.053,0.155 0.061,0.158 0.069,0.155C0.071,0.154 0.074,0.152 0.077,0.15C0.078,0.15 0.08,0.148 0.08,0.147C0.08,0.146 0.077,0.146 0.076,0.146ZM0.215,0.092C0.216,0.091 0.216,0.089 0.216,0.087C0.216,0.086 0.217,0.083 0.216,0.082L0.212,0.081C0.211,0.082 0.21,0.084 0.21,0.085C0.209,0.087 0.209,0.089 0.209,0.091L0.21,0.093C0.21,0.094 0.214,0.093 0.215,0.092ZM0.201,0.084C0.201,0.083 0.205,0.082 0.205,0.081C0.205,0.08 0.202,0.08 0.2,0.08C0.198,0.081 0.197,0.083 0.195,0.084C0.19,0.088 0.186,0.092 0.182,0.095C0.177,0.1 0.17,0.106 0.159,0.109C0.156,0.109 0.152,0.109 0.148,0.11C0.145,0.11 0.141,0.11 0.138,0.109C0.128,0.108 0.12,0.099 0.121,0.089C0.121,0.084 0.124,0.079 0.126,0.076C0.13,0.07 0.136,0.065 0.147,0.063C0.154,0.061 0.162,0.062 0.168,0.063C0.168,0.063 0.17,0.064 0.17,0.063C0.17,0.062 0.168,0.061 0.168,0.061C0.153,0.056 0.138,0.05 0.124,0.045C0.116,0.041 0.109,0.039 0.101,0.036C0.094,0.033 0.088,0.03 0.081,0.027L0.078,0.026C0.077,0.027 0.079,0.03 0.079,0.031C0.083,0.036 0.091,0.04 0.097,0.044C0.103,0.049 0.11,0.053 0.114,0.06C0.116,0.063 0.117,0.065 0.118,0.068C0.119,0.075 0.116,0.082 0.112,0.086C0.108,0.09 0.104,0.096 0.098,0.095C0.086,0.093 0.083,0.083 0.079,0.073C0.078,0.071 0.075,0.055 0.073,0.055C0.072,0.054 0.071,0.057 0.071,0.057L0.065,0.065C0.065,0.067 0.068,0.071 0.069,0.072C0.07,0.074 0.071,0.076 0.072,0.078C0.075,0.085 0.08,0.091 0.084,0.098C0.087,0.103 0.086,0.108 0.086,0.112C0.085,0.117 0.084,0.122 0.083,0.126C0.082,0.128 0.082,0.129 0.081,0.13C0.081,0.131 0.08,0.133 0.08,0.134C0.081,0.135 0.083,0.136 0.084,0.136C0.085,0.135 0.084,0.132 0.085,0.13C0.086,0.128 0.09,0.128 0.092,0.129C0.093,0.13 0.097,0.132 0.098,0.133C0.098,0.134 0.098,0.136 0.099,0.137C0.1,0.137 0.103,0.136 0.105,0.136C0.106,0.135 0.108,0.134 0.109,0.133C0.113,0.132 0.116,0.131 0.119,0.129C0.135,0.122 0.152,0.115 0.17,0.108L0.18,0.104C0.181,0.104 0.182,0.102 0.182,0.101C0.184,0.099 0.187,0.096 0.189,0.093C0.193,0.09 0.196,0.087 0.201,0.084ZM0.206,0.076C0.205,0.076 0.187,0.069 0.185,0.069C0.186,0.071 0.19,0.072 0.193,0.074C0.196,0.076 0.199,0.077 0.201,0.078C0.202,0.078 0.209,0.078 0.206,0.076ZM0.072,0.029C0.07,0.031 0.071,0.034 0.072,0.037L0.072,0.04L0.074,0.034C0.074,0.033 0.075,0.029 0.074,0.028C0.073,0.028 0.072,0.029 0.072,0.029ZM0.086,0.142C0.087,0.141 0.084,0.139 0.083,0.138C0.082,0.138 0.081,0.137 0.08,0.137C0.078,0.138 0.08,0.141 0.081,0.141C0.082,0.142 0.086,0.143 0.086,0.142ZM0.05,0.126C0.05,0.126 0.052,0.128 0.053,0.129C0.058,0.134 0.064,0.143 0.072,0.144C0.074,0.144 0.078,0.143 0.078,0.143C0.079,0.142 0.077,0.141 0.076,0.14C0.074,0.138 0.073,0.134 0.071,0.133L0.053,0.126C0.052,0.126 0.05,0.125 0.05,0.126ZM0.016,0.168C0.015,0.17 0.017,0.175 0.02,0.177L0.021,0.177C0.022,0.175 0.023,0.173 0.024,0.172C0.025,0.171 0.024,0.171 0.024,0.171C0.022,0.17 0.02,0.169 0.018,0.168C0.017,0.167 0.016,0.166 0.016,0.168ZM-0.006,0.181C-0.006,0.182 -0.007,0.182 -0.007,0.182C-0.007,0.183 -0.003,0.182 -0.001,0.182C0.001,0.182 0.003,0.181 0.006,0.18C0.008,0.18 0.011,0.18 0.013,0.179C0.013,0.179 0.015,0.178 0.015,0.177L0.007,0.177C0.003,0.178 -0.003,0.179 -0.006,0.181ZM0.073,0.157C0.072,0.159 0.072,0.16 0.071,0.161C0.071,0.161 0.071,0.162 0.072,0.162C0.073,0.161 0.075,0.159 0.076,0.159C0.078,0.157 0.079,0.155 0.081,0.153C0.082,0.153 0.082,0.152 0.083,0.152C0.083,0.15 0.078,0.152 0.078,0.153L0.073,0.157ZM0.091,0.154C0.091,0.154 0.094,0.158 0.095,0.158L0.096,0.15C0.096,0.149 0.097,0.146 0.095,0.146C0.093,0.147 0.091,0.147 0.09,0.149C0.09,0.15 0.09,0.152 0.091,0.154ZM0.031,0.012C0.032,0.011 0.034,0.01 0.034,0.01C0.034,0.009 0.032,0.007 0.031,0.008C0.03,0.008 0.03,0.009 0.029,0.01C0.028,0.011 0.027,0.012 0.027,0.013C0.028,0.016 0.03,0.013 0.031,0.012ZM0.017,-0.016C0.019,-0.019 0.019,-0.022 0.019,-0.025C0.018,-0.029 0.018,-0.034 0.016,-0.037C0.016,-0.038 0.014,-0.034 0.013,-0.031C0.012,-0.026 0.014,-0.02 0.016,-0.016C0.016,-0.015 0.017,-0.015 0.017,-0.016ZM0.013,-0.038C0.013,-0.039 0.012,-0.039 0.011,-0.039L0.006,-0.033C0.003,-0.029 -0.003,-0.028 -0.007,-0.027C-0.009,-0.027 -0.01,-0.026 -0.011,-0.026C-0.011,-0.026 -0.012,-0.026 -0.012,-0.025C-0.012,-0.023 -0.011,-0.022 -0.01,-0.019C-0.01,-0.018 -0.007,-0.012 -0.006,-0.012C-0.005,-0.012 -0.004,-0.014 -0.004,-0.014C-0.003,-0.016 0,-0.019 0.001,-0.02C0.003,-0.023 0.006,-0.025 0.008,-0.027C0.009,-0.03 0.011,-0.032 0.012,-0.035C0.013,-0.036 0.014,-0.038 0.013,-0.038ZM0.021,-0.059C0.02,-0.059 0.019,-0.056 0.019,-0.055C0.019,-0.054 0.02,-0.053 0.02,-0.052C0.02,-0.052 0.022,-0.051 0.023,-0.051C0.025,-0.052 0.023,-0.06 0.021,-0.059ZM0.028,-0.056C0.028,-0.057 0.031,-0.059 0.03,-0.06C0.028,-0.061 0.026,-0.058 0.026,-0.057C0.026,-0.055 0.027,-0.055 0.028,-0.056ZM-0.003,-0.073C-0.007,-0.076 -0.011,-0.078 -0.014,-0.081C-0.017,-0.086 -0.018,-0.091 -0.017,-0.096C-0.017,-0.096 -0.017,-0.097 -0.018,-0.097C-0.025,-0.099 -0.033,-0.103 -0.039,-0.108L-0.04,-0.108C-0.036,-0.099 -0.035,-0.091 -0.036,-0.082L-0.036,-0.08L-0.024,-0.072C-0.02,-0.069 -0.016,-0.067 -0.012,-0.064C-0.005,-0.061 0.003,-0.059 0.01,-0.056L0.016,-0.052C0.017,-0.053 0.013,-0.059 0.013,-0.059C0.009,-0.065 0.003,-0.069 -0.003,-0.073ZM-0.085,-0.037C-0.089,-0.033 -0.092,-0.029 -0.095,-0.025C-0.098,-0.022 -0.104,-0.017 -0.108,-0.017L-0.11,-0.017C-0.114,-0.017 -0.115,-0.015 -0.117,-0.012C-0.117,-0.011 -0.118,-0.01 -0.118,-0.009C-0.118,-0.006 -0.115,-0.006 -0.115,-0.004C-0.115,-0.003 -0.117,-0.003 -0.118,-0.004C-0.119,-0.005 -0.119,-0.008 -0.119,-0.008C-0.12,-0.009 -0.123,-0.009 -0.123,-0.007L-0.121,-0.004C-0.119,-0.002 -0.117,0 -0.115,0.002C-0.114,0.003 -0.114,0.003 -0.113,0.002C-0.111,-0.001 -0.109,-0.004 -0.107,-0.007L-0.101,-0.012C-0.094,-0.018 -0.087,-0.024 -0.078,-0.028C-0.071,-0.031 -0.064,-0.032 -0.057,-0.035L-0.057,-0.036C-0.06,-0.038 -0.063,-0.04 -0.066,-0.043C-0.066,-0.044 -0.067,-0.044 -0.068,-0.044C-0.074,-0.043 -0.08,-0.041 -0.085,-0.037ZM-0.124,-0.01C-0.124,-0.008 -0.121,-0.01 -0.12,-0.011C-0.12,-0.012 -0.119,-0.013 -0.119,-0.014C-0.12,-0.015 -0.124,-0.011 -0.124,-0.01ZM0.007,-0.05C0.009,-0.05 0.014,-0.048 0.011,-0.051C0.009,-0.053 0.005,-0.055 0.001,-0.056C-0.002,-0.057 -0.006,-0.059 -0.01,-0.059L-0.016,-0.059C-0.017,-0.059 -0.027,-0.057 -0.027,-0.056C-0.027,-0.056 -0.02,-0.055 -0.019,-0.055C-0.01,-0.053 -0.002,-0.051 0.007,-0.05ZM-0.114,-0.154C-0.115,-0.157 -0.115,-0.159 -0.115,-0.16C-0.115,-0.161 -0.116,-0.161 -0.116,-0.161C-0.119,-0.161 -0.123,-0.16 -0.122,-0.158C-0.12,-0.157 -0.119,-0.155 -0.117,-0.154C-0.115,-0.152 -0.114,-0.152 -0.114,-0.154ZM0.361,0.165L0.348,0.164C0.347,0.164 0.346,0.165 0.344,0.166C0.34,0.169 0.331,0.172 0.324,0.173C0.314,0.173 0.306,0.17 0.299,0.164C0.299,0.163 0.295,0.159 0.296,0.157L0.301,0.154C0.301,0.153 0.299,0.151 0.299,0.15C0.298,0.145 0.303,0.141 0.307,0.139C0.308,0.138 0.311,0.138 0.311,0.137C0.311,0.136 0.31,0.136 0.309,0.135C0.307,0.133 0.306,0.129 0.306,0.125C0.305,0.115 0.313,0.105 0.321,0.099C0.321,0.099 0.321,0.098 0.32,0.098C0.316,0.097 0.311,0.097 0.306,0.096C0.287,0.094 0.268,0.09 0.248,0.089C0.244,0.089 0.24,0.089 0.236,0.09C0.234,0.091 0.234,0.092 0.233,0.094C0.231,0.097 0.229,0.099 0.227,0.101C0.225,0.102 0.224,0.103 0.222,0.104L0.215,0.114L0.211,0.115C0.21,0.116 0.21,0.118 0.21,0.12C0.21,0.124 0.208,0.128 0.207,0.131C0.206,0.135 0.204,0.138 0.201,0.141C0.199,0.143 0.197,0.145 0.193,0.144C0.191,0.144 0.19,0.142 0.188,0.142C0.187,0.141 0.186,0.142 0.185,0.142C0.18,0.141 0.176,0.134 0.176,0.127C0.176,0.122 0.177,0.117 0.178,0.112L0.178,0.109C0.178,0.109 0.174,0.11 0.173,0.111C0.167,0.113 0.162,0.115 0.157,0.117C0.142,0.123 0.131,0.127 0.118,0.134L0.1,0.144L0.098,0.158C0.098,0.159 0.098,0.159 0.099,0.159C0.1,0.16 0.102,0.16 0.103,0.161C0.113,0.163 0.122,0.166 0.13,0.172C0.136,0.177 0.143,0.184 0.145,0.193C0.146,0.197 0.147,0.202 0.145,0.206C0.145,0.207 0.144,0.209 0.143,0.21C0.142,0.212 0.141,0.213 0.14,0.214C0.139,0.215 0.137,0.216 0.136,0.217C0.134,0.218 0.134,0.22 0.132,0.222C0.123,0.229 0.109,0.226 0.1,0.22L0.091,0.211C0.09,0.211 0.09,0.213 0.089,0.214C0.087,0.22 0.084,0.224 0.082,0.23C0.081,0.231 0.079,0.235 0.078,0.235C0.075,0.235 0.075,0.228 0.075,0.226C0.076,0.218 0.081,0.214 0.085,0.208C0.087,0.207 0.088,0.206 0.088,0.203C0.088,0.201 0.087,0.199 0.087,0.197C0.084,0.187 0.085,0.175 0.087,0.165C0.087,0.163 0.088,0.161 0.088,0.159C0.088,0.158 0.087,0.15 0.086,0.152C0.082,0.155 0.081,0.157 0.077,0.16C0.075,0.161 0.072,0.163 0.071,0.166L0.07,0.17L0.07,0.174C0.069,0.18 0.069,0.187 0.066,0.191C0.065,0.194 0.064,0.196 0.062,0.198C0.057,0.204 0.051,0.208 0.044,0.212C0.04,0.214 0.037,0.217 0.032,0.219C0.024,0.224 0.021,0.215 0.019,0.208C0.018,0.205 0.017,0.203 0.017,0.2C0.016,0.194 0.016,0.189 0.018,0.184C0.018,0.182 0.018,0.181 0.017,0.182C0.014,0.182 0.009,0.182 0.006,0.185C0.003,0.188 0.002,0.192 0.001,0.196C-0.001,0.202 -0.002,0.207 -0.005,0.212C-0.007,0.215 -0.009,0.217 -0.011,0.22C-0.013,0.223 -0.015,0.225 -0.018,0.228C-0.022,0.232 -0.03,0.236 -0.036,0.237C-0.04,0.237 -0.043,0.235 -0.045,0.233C-0.053,0.228 -0.059,0.218 -0.055,0.209C-0.052,0.201 -0.046,0.195 -0.037,0.191L-0.029,0.187C-0.027,0.185 -0.031,0.185 -0.032,0.185C-0.035,0.185 -0.038,0.184 -0.041,0.183C-0.051,0.18 -0.06,0.177 -0.069,0.171C-0.07,0.169 -0.073,0.168 -0.074,0.167C-0.074,0.166 -0.072,0.164 -0.071,0.163C-0.069,0.162 -0.066,0.161 -0.064,0.161C-0.057,0.16 -0.052,0.161 -0.046,0.161C-0.041,0.162 -0.035,0.162 -0.03,0.163C-0.023,0.165 -0.015,0.167 -0.009,0.169C-0.006,0.17 -0.002,0.171 0.001,0.172C0.004,0.173 0.007,0.175 0.011,0.175C0.013,0.174 0.014,0.174 0.014,0.173C0.015,0.172 0.011,0.17 0.01,0.17C0.006,0.168 0.001,0.166 -0.003,0.164C-0.009,0.161 -0.014,0.157 -0.019,0.152C-0.023,0.148 -0.027,0.144 -0.03,0.14C-0.033,0.136 -0.036,0.13 -0.035,0.124C-0.034,0.121 -0.034,0.118 -0.03,0.116C-0.025,0.113 -0.02,0.114 -0.016,0.115C-0.005,0.118 0.004,0.13 0.008,0.14L0.01,0.142C0.013,0.134 0.019,0.13 0.027,0.126C0.031,0.124 0.034,0.123 0.037,0.122C0.039,0.122 0.041,0.123 0.043,0.123C0.044,0.123 0.046,0.124 0.045,0.122C0.044,0.121 0.041,0.12 0.04,0.119C0.027,0.112 0.008,0.105 0.005,0.088C0.005,0.086 0.005,0.085 0.007,0.084C0.01,0.082 0.016,0.081 0.02,0.08C0.029,0.079 0.039,0.085 0.046,0.091C0.046,0.091 0.048,0.093 0.048,0.092C0.049,0.091 0.047,0.088 0.047,0.088C0.045,0.084 0.043,0.08 0.044,0.076L0.048,0.07C0.047,0.07 0.045,0.069 0.044,0.069C0.038,0.067 0.034,0.064 0.03,0.059C0.028,0.057 0.023,0.049 0.029,0.047C0.033,0.046 0.037,0.046 0.042,0.045C0.05,0.042 0.057,0.039 0.062,0.034L0.07,0.027C0.072,0.026 0.075,0.025 0.075,0.023C0.074,0.022 0.073,0.022 0.072,0.022C0.07,0.021 0.067,0.021 0.065,0.02L0.044,0.017L0.041,0.028C0.039,0.035 0.034,0.04 0.027,0.044C0.025,0.046 0.016,0.051 0.014,0.048C0.012,0.046 0.013,0.042 0.013,0.04C0.013,0.038 0.014,0.035 0.013,0.034C0.012,0.034 0.008,0.037 0.007,0.038C0.006,0.039 0.003,0.04 0.001,0.04C-0.004,0.041 -0.007,0.038 -0.009,0.034C-0.01,0.032 -0.012,0.028 -0.013,0.024L-0.013,0.021C-0.013,0.021 -0.014,0.02 -0.014,0.021C-0.02,0.026 -0.027,0.036 -0.037,0.035C-0.043,0.034 -0.045,0.026 -0.045,0.019C-0.046,0.018 -0.046,0.017 -0.046,0.016C-0.046,0.006 -0.045,-0.004 -0.038,-0.012C-0.034,-0.016 -0.029,-0.02 -0.024,-0.023C-0.023,-0.024 -0.022,-0.024 -0.021,-0.025L-0.021,-0.026C-0.027,-0.026 -0.033,-0.027 -0.038,-0.028C-0.04,-0.029 -0.042,-0.029 -0.043,-0.03C-0.044,-0.03 -0.044,-0.03 -0.045,-0.029C-0.048,-0.021 -0.05,-0.012 -0.052,-0.002C-0.056,0.014 -0.065,0.032 -0.079,0.042C-0.084,0.046 -0.091,0.049 -0.097,0.051C-0.103,0.054 -0.114,0.061 -0.12,0.053C-0.125,0.048 -0.125,0.038 -0.124,0.031L-0.124,0.029C-0.127,0.025 -0.128,0.021 -0.129,0.015C-0.13,0.01 -0.13,0.006 -0.129,0.002L-0.129,-0.001C-0.13,-0.002 -0.131,0.001 -0.131,0.002C-0.132,0.005 -0.133,0.009 -0.134,0.012C-0.134,0.017 -0.133,0.023 -0.133,0.028L-0.133,0.036C-0.133,0.039 -0.134,0.041 -0.135,0.043C-0.137,0.046 -0.142,0.05 -0.147,0.052C-0.15,0.053 -0.152,0.051 -0.154,0.05C-0.157,0.047 -0.174,0.054 -0.177,0.052C-0.181,0.05 -0.171,0.038 -0.175,0.036C-0.177,0.036 -0.178,0.035 -0.179,0.034C-0.184,0.031 -0.179,0.026 -0.177,0.023C-0.173,0.018 -0.168,0.014 -0.162,0.011C-0.156,0.008 -0.147,0.007 -0.14,0.004C-0.137,0.003 -0.134,0.001 -0.133,-0.001C-0.131,-0.004 -0.129,-0.007 -0.128,-0.009C-0.127,-0.01 -0.126,-0.011 -0.125,-0.012C-0.124,-0.014 -0.123,-0.015 -0.124,-0.016C-0.125,-0.017 -0.127,-0.015 -0.127,-0.014C-0.128,-0.013 -0.129,-0.012 -0.13,-0.011C-0.135,-0.007 -0.144,-0.008 -0.147,-0.012C-0.147,-0.013 -0.148,-0.015 -0.149,-0.015C-0.149,-0.016 -0.153,-0.015 -0.154,-0.015C-0.16,-0.013 -0.167,-0.013 -0.172,-0.013C-0.178,-0.014 -0.185,-0.015 -0.19,-0.018C-0.204,-0.027 -0.214,-0.043 -0.217,-0.059C-0.218,-0.067 -0.211,-0.068 -0.204,-0.066C-0.194,-0.062 -0.184,-0.065 -0.175,-0.057C-0.167,-0.051 -0.164,-0.044 -0.162,-0.034C-0.159,-0.024 -0.158,-0.018 -0.15,-0.019C-0.149,-0.019 -0.154,-0.026 -0.15,-0.032C-0.143,-0.04 -0.13,-0.031 -0.125,-0.024C-0.124,-0.024 -0.124,-0.022 -0.123,-0.021C-0.122,-0.02 -0.12,-0.02 -0.119,-0.02C-0.118,-0.02 -0.113,-0.02 -0.113,-0.021C-0.113,-0.022 -0.114,-0.025 -0.115,-0.026L-0.121,-0.038C-0.122,-0.04 -0.124,-0.042 -0.125,-0.045C-0.127,-0.051 -0.125,-0.056 -0.121,-0.059C-0.12,-0.06 -0.116,-0.061 -0.113,-0.062L-0.111,-0.063C-0.114,-0.069 -0.12,-0.072 -0.122,-0.078C-0.124,-0.083 -0.119,-0.087 -0.115,-0.09C-0.109,-0.093 -0.102,-0.095 -0.096,-0.096C-0.09,-0.098 -0.084,-0.098 -0.078,-0.098L-0.079,-0.1C-0.082,-0.105 -0.086,-0.11 -0.088,-0.116C-0.089,-0.118 -0.089,-0.122 -0.09,-0.124C-0.091,-0.126 -0.094,-0.128 -0.096,-0.13C-0.101,-0.134 -0.104,-0.137 -0.108,-0.141C-0.11,-0.143 -0.113,-0.145 -0.115,-0.145C-0.116,-0.146 -0.117,-0.147 -0.119,-0.145C-0.122,-0.141 -0.117,-0.138 -0.119,-0.13C-0.12,-0.128 -0.122,-0.126 -0.123,-0.123C-0.125,-0.121 -0.125,-0.117 -0.125,-0.114C-0.125,-0.111 -0.125,-0.108 -0.128,-0.106C-0.13,-0.105 -0.133,-0.106 -0.136,-0.108C-0.139,-0.111 -0.142,-0.115 -0.143,-0.12C-0.144,-0.126 -0.142,-0.131 -0.14,-0.134C-0.138,-0.137 -0.137,-0.138 -0.133,-0.14C-0.131,-0.142 -0.129,-0.142 -0.125,-0.143C-0.121,-0.144 -0.118,-0.148 -0.122,-0.149C-0.126,-0.149 -0.13,-0.146 -0.133,-0.143C-0.136,-0.141 -0.139,-0.139 -0.142,-0.137C-0.146,-0.135 -0.148,-0.133 -0.152,-0.132C-0.164,-0.127 -0.176,-0.128 -0.186,-0.129C-0.191,-0.129 -0.226,-0.125 -0.217,-0.136C-0.208,-0.148 -0.198,-0.155 -0.183,-0.154C-0.167,-0.153 -0.151,-0.145 -0.135,-0.147C-0.132,-0.148 -0.127,-0.15 -0.123,-0.151C-0.121,-0.151 -0.119,-0.151 -0.121,-0.153C-0.122,-0.154 -0.125,-0.155 -0.125,-0.155C-0.128,-0.157 -0.13,-0.158 -0.131,-0.159C-0.135,-0.16 -0.14,-0.159 -0.143,-0.159C-0.154,-0.158 -0.169,-0.156 -0.176,-0.166C-0.18,-0.171 -0.185,-0.178 -0.191,-0.181C-0.198,-0.185 -0.213,-0.195 -0.214,-0.204C-0.216,-0.214 -0.184,-0.212 -0.179,-0.211C-0.172,-0.209 -0.163,-0.207 -0.157,-0.201C-0.148,-0.192 -0.142,-0.178 -0.135,-0.167C-0.133,-0.166 -0.132,-0.164 -0.13,-0.162C-0.13,-0.161 -0.129,-0.16 -0.128,-0.16C-0.128,-0.159 -0.126,-0.158 -0.125,-0.159C-0.125,-0.16 -0.131,-0.17 -0.132,-0.174C-0.137,-0.186 -0.14,-0.2 -0.134,-0.213C-0.132,-0.217 -0.129,-0.222 -0.125,-0.223C-0.121,-0.224 -0.117,-0.222 -0.114,-0.219C-0.106,-0.213 -0.1,-0.203 -0.097,-0.193C-0.095,-0.189 -0.096,-0.183 -0.098,-0.179C-0.1,-0.173 -0.107,-0.167 -0.109,-0.165C-0.11,-0.165 -0.109,-0.164 -0.109,-0.164C-0.107,-0.164 -0.106,-0.163 -0.105,-0.16C-0.105,-0.159 -0.106,-0.157 -0.107,-0.156C-0.108,-0.155 -0.11,-0.155 -0.11,-0.153C-0.111,-0.152 -0.11,-0.149 -0.109,-0.148C-0.107,-0.144 -0.103,-0.141 -0.099,-0.137C-0.097,-0.136 -0.096,-0.135 -0.094,-0.133C-0.094,-0.132 -0.093,-0.131 -0.092,-0.131C-0.091,-0.132 -0.092,-0.135 -0.092,-0.136C-0.092,-0.142 -0.091,-0.146 -0.089,-0.15C-0.088,-0.153 -0.086,-0.156 -0.084,-0.158C-0.076,-0.164 -0.069,-0.159 -0.061,-0.155C-0.06,-0.154 -0.059,-0.153 -0.058,-0.154C-0.057,-0.154 -0.056,-0.157 -0.056,-0.158C-0.055,-0.159 -0.054,-0.161 -0.053,-0.162C-0.052,-0.164 -0.049,-0.167 -0.046,-0.168C-0.042,-0.17 -0.037,-0.17 -0.034,-0.17C-0.031,-0.169 -0.028,-0.168 -0.026,-0.167C-0.015,-0.161 -0.007,-0.154 0,-0.144C0.005,-0.137 0.008,-0.129 0.009,-0.12L0.01,-0.118L0.01,-0.121C0.011,-0.134 0.007,-0.148 0.004,-0.16C0.002,-0.168 -0.001,-0.175 -0.002,-0.183C-0.003,-0.188 -0.003,-0.192 -0.002,-0.197C0,-0.213 0.008,-0.228 0.024,-0.234C0.026,-0.234 0.028,-0.235 0.03,-0.235C0.035,-0.237 0.038,-0.236 0.041,-0.234C0.057,-0.222 0.06,-0.192 0.051,-0.175C0.05,-0.172 0.049,-0.169 0.047,-0.167C0.043,-0.162 0.038,-0.157 0.033,-0.153C0.026,-0.147 0.017,-0.14 0.014,-0.131C0.013,-0.128 0.013,-0.123 0.013,-0.119L0.013,-0.116C0.014,-0.116 0.014,-0.117 0.014,-0.117C0.017,-0.119 0.023,-0.123 0.028,-0.123C0.031,-0.123 0.035,-0.121 0.036,-0.12L0.042,-0.113L0.044,-0.116C0.044,-0.118 0.045,-0.119 0.045,-0.12C0.048,-0.125 0.05,-0.129 0.055,-0.132C0.06,-0.137 0.072,-0.144 0.08,-0.142C0.085,-0.14 0.088,-0.136 0.09,-0.128C0.092,-0.117 0.09,-0.104 0.082,-0.096C0.079,-0.093 0.076,-0.09 0.073,-0.088C0.069,-0.084 0.064,-0.081 0.06,-0.078C0.055,-0.075 0.05,-0.072 0.044,-0.069C0.042,-0.067 0.04,-0.066 0.038,-0.063C0.038,-0.063 0.038,-0.062 0.039,-0.062C0.042,-0.061 0.045,-0.061 0.049,-0.06L0.051,-0.06C0.062,-0.061 0.071,-0.069 0.08,-0.075C0.091,-0.081 0.101,-0.08 0.11,-0.072C0.123,-0.062 0.106,-0.051 0.096,-0.048C0.09,-0.046 0.083,-0.046 0.077,-0.048C0.071,-0.05 0.066,-0.053 0.061,-0.055C0.062,-0.053 0.064,-0.052 0.065,-0.05C0.071,-0.042 0.071,-0.032 0.066,-0.022C0.064,-0.018 0.06,-0.014 0.055,-0.012C0.055,-0.011 0.054,-0.011 0.055,-0.01C0.06,-0.003 0.064,0.005 0.068,0.014C0.069,0.015 0.072,0.02 0.075,0.018C0.076,0.018 0.075,0.014 0.074,0.011C0.073,0.002 0.067,-0.004 0.068,-0.011C0.07,-0.02 0.077,-0.027 0.083,-0.033C0.086,-0.036 0.093,-0.04 0.097,-0.037C0.101,-0.032 0.103,-0.025 0.104,-0.02C0.105,-0.013 0.104,-0.007 0.101,-0.001C0.099,0.003 0.095,0.007 0.091,0.009C0.09,0.011 0.078,0.016 0.08,0.019C0.08,0.02 0.083,0.022 0.086,0.023C0.09,0.025 0.093,0.026 0.097,0.027C0.106,0.032 0.116,0.035 0.125,0.039C0.135,0.043 0.144,0.047 0.154,0.051C0.168,0.056 0.183,0.061 0.198,0.067C0.201,0.068 0.206,0.07 0.209,0.071C0.209,0.071 0.212,0.072 0.213,0.072C0.213,0.071 0.211,0.07 0.211,0.069C0.202,0.062 0.194,0.053 0.185,0.049C0.183,0.048 0.181,0.047 0.179,0.046C0.177,0.044 0.173,0.04 0.176,0.038C0.179,0.036 0.186,0.036 0.19,0.036C0.192,0.036 0.194,0.036 0.196,0.035C0.198,0.035 0.201,0.034 0.203,0.033L0.21,0.033C0.216,0.034 0.233,0.037 0.228,0.045C0.227,0.047 0.225,0.049 0.224,0.051C0.221,0.055 0.218,0.059 0.217,0.064C0.216,0.067 0.214,0.072 0.217,0.074C0.218,0.075 0.221,0.076 0.223,0.076C0.232,0.079 0.241,0.08 0.25,0.081C0.265,0.084 0.28,0.087 0.296,0.089C0.298,0.089 0.302,0.09 0.306,0.09C0.307,0.09 0.307,0.09 0.307,0.089C0.308,0.089 0.306,0.087 0.306,0.086C0.303,0.078 0.304,0.072 0.306,0.066C0.307,0.065 0.307,0.065 0.307,0.064C0.307,0.063 0.306,0.061 0.305,0.06C0.302,0.057 0.3,0.053 0.299,0.048C0.298,0.045 0.299,0.042 0.3,0.04C0.3,0.037 0.301,0.034 0.304,0.033C0.306,0.031 0.311,0.031 0.313,0.031L0.316,0.031C0.317,0.03 0.314,0.026 0.314,0.025C0.313,0.024 0.312,0.021 0.311,0.021C0.31,0.021 0.309,0.022 0.309,0.022C0.305,0.026 0.3,0.029 0.295,0.027L0.29,0.026L0.29,0.029C0.29,0.033 0.289,0.036 0.288,0.039C0.287,0.043 0.284,0.047 0.282,0.049C0.275,0.056 0.265,0.057 0.26,0.051C0.259,0.051 0.259,0.049 0.258,0.049C0.256,0.048 0.254,0.049 0.253,0.049C0.249,0.049 0.246,0.047 0.243,0.044C0.241,0.04 0.239,0.036 0.24,0.031C0.24,0.03 0.241,0.027 0.24,0.027C0.239,0.026 0.236,0.028 0.235,0.028C0.227,0.03 0.207,0.034 0.205,0.022C0.205,0.02 0.206,0.017 0.206,0.016L0.208,0.01L0.203,0.005C0.201,0.003 0.199,0.001 0.199,-0.003C0.198,-0.009 0.205,-0.013 0.211,-0.016C0.215,-0.018 0.224,-0.021 0.23,-0.022C0.231,-0.022 0.233,-0.022 0.232,-0.023C0.231,-0.025 0.227,-0.026 0.226,-0.027C0.224,-0.029 0.222,-0.031 0.22,-0.033C0.216,-0.038 0.211,-0.049 0.216,-0.053C0.217,-0.054 0.22,-0.055 0.22,-0.056C0.221,-0.057 0.219,-0.058 0.219,-0.059C0.217,-0.063 0.216,-0.068 0.215,-0.071C0.214,-0.077 0.214,-0.082 0.215,-0.086C0.216,-0.091 0.217,-0.095 0.223,-0.096C0.225,-0.097 0.228,-0.096 0.23,-0.096C0.24,-0.094 0.252,-0.092 0.26,-0.085C0.265,-0.079 0.269,-0.071 0.272,-0.061C0.272,-0.06 0.273,-0.057 0.273,-0.057C0.274,-0.057 0.274,-0.061 0.275,-0.062C0.276,-0.065 0.279,-0.067 0.283,-0.069C0.285,-0.07 0.288,-0.072 0.291,-0.073C0.293,-0.074 0.295,-0.074 0.293,-0.075C0.288,-0.078 0.283,-0.082 0.28,-0.088C0.276,-0.095 0.278,-0.1 0.281,-0.104C0.282,-0.105 0.283,-0.105 0.285,-0.107C0.287,-0.108 0.287,-0.112 0.289,-0.114C0.291,-0.116 0.295,-0.117 0.298,-0.117C0.305,-0.119 0.312,-0.118 0.317,-0.112C0.32,-0.108 0.322,-0.103 0.324,-0.099C0.326,-0.095 0.327,-0.09 0.328,-0.085C0.329,-0.082 0.33,-0.079 0.331,-0.076C0.332,-0.075 0.334,-0.073 0.335,-0.073C0.336,-0.073 0.336,-0.076 0.336,-0.077C0.337,-0.085 0.338,-0.093 0.342,-0.1C0.345,-0.107 0.353,-0.112 0.36,-0.107C0.363,-0.105 0.365,-0.103 0.367,-0.1C0.367,-0.098 0.371,-0.098 0.372,-0.096C0.375,-0.094 0.379,-0.088 0.376,-0.084C0.375,-0.082 0.372,-0.08 0.369,-0.079C0.363,-0.076 0.356,-0.075 0.349,-0.074C0.346,-0.074 0.34,-0.072 0.34,-0.07C0.339,-0.066 0.343,-0.065 0.345,-0.065C0.348,-0.065 0.352,-0.066 0.355,-0.066C0.361,-0.066 0.368,-0.066 0.373,-0.064C0.38,-0.061 0.387,-0.056 0.388,-0.044C0.389,-0.041 0.388,-0.038 0.388,-0.035C0.388,-0.033 0.387,-0.032 0.387,-0.031C0.387,-0.027 0.387,-0.023 0.384,-0.021C0.381,-0.02 0.378,-0.02 0.375,-0.02C0.371,-0.019 0.369,-0.019 0.366,-0.02C0.363,-0.02 0.361,-0.021 0.359,-0.022C0.357,-0.024 0.356,-0.025 0.354,-0.027C0.348,-0.035 0.347,-0.043 0.344,-0.053C0.343,-0.058 0.342,-0.067 0.338,-0.066C0.336,-0.065 0.336,-0.064 0.335,-0.063C0.331,-0.06 0.327,-0.056 0.328,-0.055C0.328,-0.053 0.329,-0.051 0.329,-0.049C0.329,-0.046 0.327,-0.043 0.325,-0.041C0.324,-0.04 0.323,-0.039 0.321,-0.037C0.32,-0.036 0.318,-0.035 0.317,-0.034C0.317,-0.033 0.317,-0.032 0.316,-0.031C0.314,-0.027 0.313,-0.022 0.311,-0.017C0.31,-0.017 0.309,-0.013 0.309,-0.011C0.31,-0.01 0.313,-0.011 0.314,-0.01C0.317,-0.009 0.32,-0.005 0.321,-0.001C0.322,0.004 0.321,0.008 0.318,0.011C0.317,0.012 0.313,0.013 0.313,0.014C0.313,0.015 0.314,0.017 0.315,0.018C0.318,0.026 0.322,0.034 0.327,0.041C0.328,0.043 0.328,0.044 0.329,0.044C0.331,0.045 0.336,0.042 0.338,0.042C0.345,0.04 0.35,0.04 0.357,0.041C0.366,0.042 0.377,0.042 0.386,0.044C0.386,0.044 0.387,0.044 0.386,0.043C0.379,0.037 0.369,0.036 0.36,0.032C0.348,0.027 0.343,0.019 0.343,0.006C0.344,-0.01 0.363,-0.003 0.371,0.002C0.377,0.006 0.38,0.012 0.383,0.018C0.386,0.027 0.386,0.037 0.391,0.045L0.393,0.045C0.396,0.046 0.399,0.048 0.401,0.049C0.402,0.05 0.402,0.05 0.402,0.049L0.402,0.045C0.4,0.04 0.394,0.037 0.391,0.032C0.39,0.03 0.387,0.026 0.387,0.022C0.387,0.021 0.387,0.02 0.388,0.02C0.389,0.019 0.39,0.02 0.391,0.02C0.394,0.022 0.397,0.022 0.399,0.024C0.401,0.026 0.403,0.029 0.405,0.032C0.406,0.033 0.406,0.034 0.407,0.035C0.407,0.035 0.413,0.036 0.414,0.035C0.415,0.034 0.413,0.031 0.412,0.03C0.41,0.024 0.409,0.017 0.41,0.013C0.41,0.008 0.414,-0.005 0.421,-0.004C0.424,-0.004 0.426,-0.002 0.427,0.001C0.432,0.008 0.434,0.015 0.437,0.023C0.437,0.024 0.438,0.028 0.439,0.028L0.44,0.027C0.44,0.026 0.441,0.023 0.442,0.022C0.443,0.02 0.444,0.018 0.446,0.017C0.45,0.017 0.453,0.024 0.454,0.028C0.456,0.033 0.457,0.038 0.457,0.042C0.457,0.047 0.456,0.051 0.455,0.055C0.454,0.056 0.452,0.058 0.45,0.059C0.449,0.059 0.444,0.06 0.443,0.061C0.443,0.062 0.444,0.064 0.445,0.064C0.446,0.065 0.446,0.065 0.447,0.065C0.452,0.062 0.458,0.063 0.463,0.064C0.466,0.064 0.469,0.065 0.47,0.068C0.472,0.07 0.47,0.074 0.469,0.077L0.469,0.079C0.474,0.081 0.478,0.082 0.483,0.084L0.498,0.088L0.499,0.088L0.499,0.076C0.499,0.072 0.498,0.069 0.497,0.066L0.494,0.06C0.493,0.058 0.493,0.054 0.494,0.052C0.494,0.05 0.494,0.049 0.496,0.051C0.498,0.055 0.501,0.059 0.503,0.063C0.505,0.065 0.506,0.068 0.507,0.07L0.512,0.077C0.513,0.078 0.514,0.078 0.516,0.079C0.517,0.08 0.518,0.081 0.519,0.082C0.52,0.083 0.52,0.087 0.521,0.085C0.522,0.084 0.523,0.08 0.523,0.079C0.525,0.073 0.526,0.067 0.528,0.061C0.529,0.056 0.531,0.05 0.533,0.045C0.535,0.039 0.537,0.034 0.538,0.029C0.539,0.027 0.542,0.022 0.541,0.019C0.541,0.018 0.539,0.016 0.536,0.017C0.528,0.017 0.519,0.02 0.51,0.021C0.501,0.022 0.493,0.023 0.485,0.021C0.476,0.018 0.46,0.009 0.457,0C0.456,-0.005 0.455,-0.01 0.456,-0.014C0.456,-0.015 0.458,-0.017 0.46,-0.017C0.466,-0.021 0.475,-0.019 0.481,-0.019L0.484,-0.019C0.484,-0.02 0.481,-0.024 0.481,-0.025C0.479,-0.027 0.477,-0.03 0.478,-0.033C0.479,-0.04 0.489,-0.042 0.497,-0.043C0.504,-0.043 0.511,-0.04 0.517,-0.037C0.52,-0.035 0.522,-0.034 0.525,-0.031C0.529,-0.027 0.534,-0.02 0.535,-0.011C0.536,-0.007 0.536,-0.002 0.538,0.001C0.538,0.002 0.539,0.003 0.541,0.004C0.541,0.005 0.544,0.006 0.544,0.005C0.545,0.004 0.542,0.001 0.542,0.001C0.54,-0.003 0.538,-0.009 0.543,-0.01C0.547,-0.01 0.547,-0.006 0.546,-0.002C0.546,0 0.545,0.003 0.547,0.005C0.547,0.006 0.548,0.006 0.549,0.006L0.554,0.004L0.556,0.001C0.557,-0.004 0.558,-0.008 0.558,-0.013C0.557,-0.017 0.555,-0.022 0.554,-0.026C0.553,-0.032 0.552,-0.039 0.553,-0.045L0.553,-0.047L0.566,-0.013C0.562,-0.009 0.558,-0.004 0.557,0.002L0.559,0.005L0.563,0.004C0.566,0.003 0.569,0.001 0.571,-0.001L0.582,0.027C0.58,0.028 0.579,0.029 0.577,0.029C0.568,0.03 0.566,0.023 0.567,0.016C0.567,0.014 0.567,0.009 0.565,0.008L0.561,0.008L0.56,0.009C0.559,0.012 0.554,0.012 0.552,0.013C0.55,0.014 0.549,0.016 0.548,0.017C0.544,0.022 0.543,0.027 0.541,0.033C0.537,0.041 0.534,0.049 0.531,0.057C0.528,0.065 0.526,0.074 0.524,0.083C0.524,0.086 0.522,0.09 0.523,0.093C0.523,0.094 0.525,0.096 0.527,0.098L0.528,0.099L0.523,0.101C0.522,0.101 0.521,0.1 0.52,0.099C0.518,0.098 0.515,0.097 0.513,0.096C0.511,0.096 0.51,0.095 0.508,0.095L0.507,0.095C0.506,0.097 0.505,0.098 0.503,0.098C0.501,0.098 0.5,0.096 0.5,0.094C0.5,0.093 0.499,0.092 0.499,0.092C0.496,0.092 0.494,0.091 0.492,0.09C0.484,0.088 0.476,0.085 0.467,0.083L0.464,0.087C0.464,0.088 0.465,0.088 0.465,0.089C0.467,0.092 0.467,0.097 0.467,0.101C0.466,0.106 0.465,0.112 0.461,0.115L0.456,0.119C0.456,0.119 0.455,0.122 0.455,0.123L0.464,0.123C0.465,0.123 0.465,0.124 0.466,0.124L0.361,0.165Z" style="fill:rgb(226,100,13);fill-rule:nonzero;"/>
                </g>
            </g>
            <g transform="matrix(-120.772,84.7032,-83.2904,-122.821,176.407,2412.59)">
                <g>
                    <path d="M0.687,0.058C0.677,0.057 0.668,0.054 0.658,0.052C0.599,0.037 0.565,-0.012 0.515,-0.043C0.51,-0.046 0.504,-0.049 0.498,-0.052C0.491,-0.056 0.463,-0.065 0.498,-0.065C0.513,-0.065 0.523,-0.067 0.539,-0.071C0.557,-0.077 0.575,-0.081 0.594,-0.082C0.639,-0.083 0.681,-0.061 0.707,-0.025C0.72,-0.007 0.728,0.015 0.729,0.038L0.729,0.047C0.729,0.061 0.744,0.068 0.753,0.076C0.755,0.077 0.756,0.079 0.758,0.081L0.752,0.084C0.742,0.074 0.732,0.066 0.718,0.06C0.708,0.056 0.698,0.058 0.687,0.058Z" style="fill:rgb(226,100,13);fill-rule:nonzero;"/>
                </g>
            </g>
            <g transform="matrix(-120.772,84.7028,-83.29,-122.821,199.26,2446.29)">
                <g>
                    <path d="M0.725,0.075C0.727,0.072 0.731,0.066 0.732,0.061C0.732,0.059 0.734,0.058 0.732,0.057C0.73,0.055 0.727,0.057 0.726,0.058C0.724,0.06 0.721,0.065 0.718,0.07C0.716,0.074 0.713,0.082 0.714,0.084C0.717,0.087 0.723,0.078 0.725,0.075ZM0.72,0.051C0.724,0.043 0.724,0.032 0.725,0.022C0.726,0.015 0.728,0.008 0.729,-0.001C0.729,-0.008 0.73,-0.023 0.731,-0.034C0.731,-0.038 0.732,-0.043 0.731,-0.044C0.73,-0.045 0.73,-0.045 0.729,-0.045C0.727,-0.044 0.724,-0.042 0.722,-0.041C0.717,-0.039 0.71,-0.037 0.706,-0.033C0.703,-0.031 0.698,-0.024 0.697,-0.021C0.695,-0.014 0.697,-0.004 0.698,0.003C0.7,0.023 0.702,0.039 0.705,0.06C0.705,0.061 0.705,0.069 0.708,0.07C0.71,0.07 0.713,0.062 0.714,0.061C0.717,0.057 0.718,0.054 0.72,0.051ZM0.709,-0.051C0.715,-0.065 0.71,-0.079 0.708,-0.092C0.707,-0.1 0.706,-0.107 0.707,-0.115C0.708,-0.128 0.716,-0.138 0.723,-0.148C0.725,-0.151 0.723,-0.155 0.722,-0.157C0.72,-0.159 0.718,-0.162 0.716,-0.163C0.714,-0.163 0.714,-0.16 0.713,-0.158C0.712,-0.15 0.71,-0.142 0.709,-0.134C0.707,-0.128 0.706,-0.12 0.703,-0.114C0.701,-0.107 0.697,-0.099 0.696,-0.092C0.694,-0.084 0.695,-0.076 0.695,-0.068C0.695,-0.061 0.694,-0.054 0.695,-0.047C0.695,-0.046 0.693,-0.035 0.696,-0.034C0.701,-0.031 0.706,-0.045 0.709,-0.051ZM0.726,0.186C0.72,0.16 0.713,0.135 0.706,0.11C0.705,0.105 0.703,0.101 0.701,0.096C0.697,0.084 0.69,0.073 0.682,0.064C0.675,0.057 0.664,0.055 0.655,0.054C0.627,0.052 0.601,0.039 0.576,0.025C0.529,0.001 0.483,-0.014 0.454,-0.062C0.446,-0.075 0.434,-0.084 0.423,-0.093C0.411,-0.103 0.41,-0.108 0.421,-0.104C0.443,-0.096 0.454,-0.097 0.463,-0.103C0.481,-0.115 0.499,-0.118 0.52,-0.119C0.599,-0.126 0.697,-0.053 0.684,0.034C0.683,0.041 0.679,0.048 0.683,0.056C0.685,0.059 0.687,0.061 0.689,0.063C0.693,0.067 0.696,0.072 0.699,0.077L0.701,0.077C0.7,0.052 0.695,0.03 0.693,0.004C0.692,-0.006 0.687,-0.015 0.689,-0.025C0.69,-0.034 0.691,-0.049 0.691,-0.06C0.69,-0.07 0.691,-0.079 0.691,-0.088C0.69,-0.107 0.684,-0.126 0.679,-0.145C0.67,-0.182 0.66,-0.216 0.648,-0.253C0.64,-0.28 0.629,-0.308 0.608,-0.328C0.602,-0.333 0.596,-0.338 0.591,-0.344C0.59,-0.346 0.587,-0.35 0.593,-0.346C0.596,-0.343 0.6,-0.341 0.603,-0.339C0.61,-0.335 0.612,-0.333 0.616,-0.331C0.63,-0.325 0.644,-0.319 0.656,-0.311C0.67,-0.302 0.682,-0.286 0.693,-0.272C0.697,-0.266 0.702,-0.259 0.705,-0.251C0.714,-0.233 0.72,-0.211 0.718,-0.191C0.718,-0.183 0.713,-0.168 0.724,-0.167C0.729,-0.167 0.728,-0.184 0.728,-0.187C0.728,-0.198 0.734,-0.205 0.742,-0.212C0.757,-0.225 0.781,-0.22 0.798,-0.216C0.804,-0.214 0.811,-0.212 0.817,-0.21C0.821,-0.209 0.825,-0.209 0.829,-0.209C0.835,-0.209 0.837,-0.208 0.83,-0.206C0.828,-0.205 0.826,-0.205 0.825,-0.204C0.819,-0.201 0.815,-0.193 0.811,-0.187C0.802,-0.173 0.789,-0.161 0.776,-0.153C0.775,-0.152 0.772,-0.15 0.769,-0.149C0.766,-0.148 0.765,-0.145 0.766,-0.143C0.768,-0.14 0.769,-0.138 0.77,-0.136C0.771,-0.132 0.772,-0.129 0.772,-0.125C0.772,-0.124 0.773,-0.123 0.774,-0.122C0.779,-0.12 0.783,-0.118 0.787,-0.115C0.796,-0.107 0.8,-0.097 0.804,-0.086C0.805,-0.081 0.805,-0.075 0.808,-0.069C0.814,-0.055 0.821,-0.039 0.821,-0.021C0.821,-0.008 0.82,0.007 0.814,0.02C0.799,0.054 0.772,0.077 0.734,0.081C0.729,0.082 0.726,0.086 0.722,0.09C0.718,0.093 0.714,0.092 0.713,0.098C0.712,0.102 0.714,0.111 0.715,0.116C0.72,0.141 0.727,0.165 0.733,0.19C0.739,0.215 0.743,0.24 0.749,0.265C0.752,0.279 0.755,0.294 0.759,0.309C0.762,0.322 0.765,0.335 0.769,0.349L0.761,0.353C0.752,0.311 0.74,0.27 0.733,0.228C0.731,0.214 0.728,0.2 0.726,0.186Z" style="fill:rgb(226,100,13);fill-rule:nonzero;"/>
                </g>
            </g>
        </g>
    </g>
</svg>
