<?xml version="1.0" encoding="UTF-8" standalone="no"?><!DOCTYPE svg PUBLIC "-//W3C//DTD SVG 1.1//EN" "http://www.w3.org/Graphics/SVG/1.1/DTD/svg11.dtd"><svg width="100%" height="100%" viewBox="0 0 474 572" version="1.1" xmlns="http://www.w3.org/2000/svg" xmlns:xlink="http://www.w3.org/1999/xlink" xml:space="preserve" xmlns:serif="http://www.serif.com/" style="fill-rule:evenodd;clip-rule:evenodd;stroke-linejoin:round;stroke-miterlimit:2;"><g><g><path d="M51.696,157.214c-0.557,-0.478 -1.032,-1.135 -0.738,-1.54c0.32,-0.43 2.422,0.006 3.185,0.04c0.194,0.008 0.653,-0.211 0.826,0.16c0.199,0.422 -0.529,1.094 -1.016,1.535c-0.765,0.692 -1.303,0.625 -2.257,-0.195Zm-24.24,-42.646c-0.054,-0.166 -0.091,-0.307 -0.081,-0.39c0.053,-0.414 0.855,-1.43 1.473,-0.956c0.19,0.143 0.446,2.932 0.238,3.138c-0.067,0.061 -0.256,0.257 -0.472,0.143c-0.14,-0.073 -0.333,-0.32 -0.526,-0.624c-0.206,-0.433 -0.418,-0.873 -0.632,-1.311Zm10.856,2.412c7.874,-2.575 12.389,4.442 18.451,3.06c0.188,-0.041 1.844,-0.354 3.167,-0.854c0.247,-0.093 0.58,-0.066 0.595,0.198c0.062,1.053 -0.315,2.551 -0.602,3.876c-0.068,0.322 -0.316,0.608 -0.636,0.561c-5.083,-0.727 -10.182,-1.321 -15.251,-2.113c-0.294,-0.047 -0.578,-0.147 -0.809,-0.34c-1.591,-1.307 -3.222,-2.68 -5.145,-3.427c-0.515,-0.203 -0.306,-0.784 0.23,-0.961Zm5.177,-11.479c0.314,-2.733 0.38,-5.421 -0.238,-8.061c-0.06,-0.258 0.055,-0.548 0.313,-0.587c2.091,-0.306 4.217,-0.933 6.352,-1.061c0.323,-0.019 0.62,0.152 0.85,0.383c1.037,1.046 1.274,2.693 0.773,4.053c-0.136,0.37 -0.449,0.634 -0.807,0.785c-2.545,1.077 -4.869,2.716 -6.909,4.677c-0.138,0.13 -0.355,0.002 -0.334,-0.189Zm20.554,11.286c0.887,-0.851 1.925,-1.483 2.866,-2.26c1.946,-1.603 4.195,-3.845 5.021,-6.314c0.384,-1.145 0.315,-2.332 -0.662,-3.539c-0.51,-0.635 -1.162,-1.142 -1.885,-1.571c-3.002,-2.354 -7.772,-3.243 -10.981,-3.45c-0.527,-0.032 -1.048,-0.035 -1.564,-0.015c-0.15,0.009 -0.326,-0.189 -0.189,-0.254c0.533,-0.251 1.576,-0.403 2.102,-0.494c2.873,-0.489 5.812,-0.3 8.681,-0.843c1.495,-0.286 2.555,-1.061 3.509,-1.992c1.013,-0.981 4.702,0.79 5.408,1.578c1.239,1.386 1.354,3.579 1.514,5.359c0.317,3.524 0.426,7.039 0.65,10.575c0.497,7.763 2.823,10.841 2.538,10.685c-3.04,-1.632 -6.934,-3.98 -10.402,-4.409c-2.365,-0.293 -4.771,-0.553 -6.591,-2.264c-0.248,-0.229 -0.267,-0.55 -0.015,-0.792Zm-9.147,-22.378c-0.215,0.233 -0.367,0.454 -0.716,0.58c-0.388,0.139 -1.835,0.074 -2.097,-0.442c-0.8,-1.562 5.249,-2.812 2.813,-0.138Zm-5.495,-5.53c0.691,-1.513 3.137,-1.249 3.984,-1.327c0.708,-0.064 1.3,-0.106 2.044,-0.225c0.416,-0.065 1.484,-0.579 1.954,-0.037c0.39,0.445 -0.38,2.8 -0.98,3.527c-0.742,0.897 -1.842,0.97 -3.057,1.162c-1.019,0.165 -2.191,0.412 -2.955,-0.34c-0.685,-0.68 -1.264,-2.166 -0.99,-2.76Zm5.682,-5.428c0.312,-0.211 1.381,-0.821 1.641,-0.737c0.584,0.192 0.887,1.96 0.58,2.382c-0.434,0.602 -1.246,0.323 -2.327,0.462c-0.761,0.095 -1.587,0.572 -1.829,0.051c-0.228,-0.496 1.083,-1.585 1.935,-2.158Zm4.59,44.921c0.092,1.24 0.413,3.241 0.511,4.229c0.036,0.386 -3.061,-1.704 -4.843,-1.888c-3.921,-0.412 -6.727,1.622 -6.757,0.613c-0.044,-1.69 -0.533,-3.352 -1.292,-4.888c-0.124,-0.249 -0.118,-0.628 0.155,-0.599c1.161,0.121 2.324,0.245 3.483,0.387c2.763,0.343 5.454,1 8.173,1.555c0.297,0.061 0.546,0.285 0.57,0.591Zm-47.982,-52.198c-0.062,0.328 -0.277,0.652 -0.604,0.621c-0.516,-0.05 -1.057,-0.263 -1.121,-0.555c-0.172,-0.771 1.213,-1.225 0.763,-2.163c-0.129,-0.264 -0.93,-0.557 -1.071,-0.916c-0.194,-0.515 0.503,-1.47 1.192,-1.914c0.53,-0.34 1.427,-0.468 1.987,-0.31c0.418,0.119 0.367,0.67 0.162,1.054c-0.667,1.251 -1.034,2.746 -1.308,4.183Zm10.336,-47.225c0.364,-0.854 3.291,-0.543 3.068,0.484c-0.055,0.254 -1.451,1.247 -1.887,1.173c-0.678,-0.116 -1.308,-1.355 -1.181,-1.657Zm6.909,0.468c0.836,0.047 3.649,1.641 3.536,2.13c-0.141,0.59 -1.661,0.693 -2.231,0.733c-1.273,0.091 -2.636,-0.056 -4.024,-0.07c-0.199,-0.004 -1.891,0.144 -1.985,-0.296c-0.129,-0.603 1.09,-0.601 1.656,-0.866c1.111,-0.515 1.97,-1.691 3.048,-1.631Zm108.562,82.5c0.859,-1.667 1.533,-2.967 2.595,-4.593c0.58,-0.885 2.318,-3.319 2.628,-0.819c0.117,0.921 -1.66,2.74 -2.35,3.561c-1.273,1.52 -1.727,2.558 -2.88,3.639c-0.304,0.285 -0.499,0.737 -0.841,0.563c-0.422,-0.212 0.72,-2.102 0.848,-2.351Zm-1.304,-15.101c0.621,-2.11 1.072,-3.874 1.736,-6.15c0.202,-0.718 0.481,-2.859 0.976,-2.93c0.665,-0.098 1.464,2.352 2.031,3.345c0.465,0.816 1.992,2.925 1.603,3.691c-0.037,0.078 -0.167,0.107 -0.214,0.176c-0.491,0.703 -1.912,1.125 -3.088,2.022c-0.592,0.452 -1.352,1.207 -1.819,1.707c-0.294,0.315 -0.865,1.439 -1.502,1.216c-1.002,-0.351 0.121,-2.531 0.277,-3.077Zm12.868,3.012c0.598,-0.199 2.755,-0.831 2.515,0.227c-0.018,0.078 -0.335,0.453 -0.66,0.65c-0.445,0.274 -1.451,0.57 -2.286,0.663c-0.628,0.067 -2.093,0.098 -2.109,-0.314c-0.029,-0.571 1.945,-1.027 2.54,-1.226Zm1.098,-3.973c0.935,-0.427 2.85,-1.066 4.485,-1.73c0.458,-0.186 4.745,-2.178 4.245,-0.7c-0.027,0.071 -0.187,0.316 -0.517,0.539l-10.033,4.191c-0.07,0.029 -1.071,0.679 -1.327,0.248c-0.435,-0.738 2.554,-2.278 3.147,-2.548Zm-8.345,-28.289l0.465,-2.988c0.079,-0.427 0.486,-1.486 0.705,-1.64c0.622,-0.438 1.899,0.548 2.937,1.068c1.838,0.921 4.005,2.124 5.744,3.312c0.831,0.57 2.162,1.01 2.706,1.968c0.105,0.182 0.027,0.106 -0.031,0.261c-0.138,0.401 -1.42,0.686 -1.699,0.662c-0.505,-0.044 -0.931,-0.468 -1.609,-0.714c-1.37,-0.499 -4.017,-0.494 -5.886,0.243c-0.611,0.242 -1.066,0.47 -1.644,0.737c-0.17,0.079 -1.961,1.297 -1.944,0.938c0.039,-0.878 0.146,-3.223 0.256,-3.847Zm8.591,40.669c-1.493,-0.805 -3.068,-1.562 -4.168,-2.915c-0.542,-0.664 -1.31,-1.918 -1.192,-2.119c0.221,-0.39 2.53,-0.027 3.209,0.249c6.262,2.535 13.658,9.954 13.649,10.048c-0.073,0.641 -10.652,-4.803 -11.498,-5.263Zm-9.581,-7.445c-0.291,0.077 -2.452,0.164 -2.539,0.04c-0.273,-0.381 1.017,-1.98 1.576,-2.465c0.863,-0.749 2.947,-1.89 3.43,-1.586c0.601,0.377 0.619,2.08 0.449,2.367c-0.261,0.45 -0.747,0.575 -1.4,0.896c-0.514,0.253 -1.009,0.625 -1.516,0.748Zm5.136,6.418c1.844,3.769 2.094,7.213 2.158,9.183c0.034,1.008 0.517,5.244 0.441,5.341c-0.617,0.84 -1.154,-0.976 -1.433,-1.686c-0.891,-2.251 -1.775,-4.593 -2.253,-6.612c-0.596,-2.51 -0.518,-4.04 -0.837,-6.448c-0.034,-0.235 -0.633,-1.964 -0.154,-2.134c0.417,-0.147 1.781,1.748 2.078,2.356Zm-4.452,72.252c0.602,0.001 0.942,1.241 0.869,1.559c-0.112,0.452 -0.642,0.841 -1.19,1.316c-0.182,0.158 -1.086,1.202 -0.985,0.087c0.025,-0.302 0.297,-0.852 0.475,-1.336c0.135,-0.371 0.302,-1.623 0.831,-1.626Zm44.824,67.312c2.492,1.9 4.508,5.242 6.43,8.22c1.228,1.903 2.605,4.158 3.981,6.285c1.216,1.879 2.807,4.157 4.795,5.976c1.075,0.987 2.559,2.397 3.916,3.367c0.316,0.225 1.181,0.705 1.18,1.061c0.002,0.44 -1.012,0.98 -1.688,1.724c-0.476,0.527 -0.46,0.843 -0.843,1.159c-0.945,0.772 -2.077,0.018 -3.105,-1.26l-1.206,-3.671c-0.826,-2.544 -1.88,-5.059 -3.494,-7.194c-2.661,-3.524 -7.368,-4.818 -9.631,-8.708c-0.871,-1.5 -1.184,-3.382 -1.923,-4.96c-0.286,-0.609 -0.817,-2.34 -0.622,-2.583c0.48,-0.599 1.868,0.324 2.21,0.584Zm-43.959,-70.387c-0.139,-0.718 0.541,-1.733 1.024,-2.724c0.399,-0.828 0.932,-2.49 1.644,-2.522c0.259,-0.01 0.584,0.479 0.841,0.628c0.308,0.174 1.011,0.248 1.243,0.537c0.462,0.589 -0.039,2.043 -0.292,2.613c-0.315,0.709 -1.109,1.959 -1.595,2.595c-0.213,0.284 -0.474,0.526 -0.656,0.652c-0.072,0.051 -0.188,0.261 -0.358,0.288c-0.524,0.089 -1.709,-1.346 -1.851,-2.067Zm9.02,0.781c-0.121,-0.342 -1.366,-2.481 -0.848,-2.876c0.44,-0.337 1.682,0.754 2.125,1.369c0.664,0.926 0.833,2.439 1.201,3.78c0.86,3.124 1.341,6.066 1.959,9.221c0.776,3.969 1.835,9.108 5.775,13.503c1.272,1.423 2.965,2.825 4.538,4.166c1.615,1.373 3.138,2.625 4.631,3.38c4.985,2.521 11.414,0.989 14.471,-3.748c1.459,-2.257 1.778,-5.017 1.862,-7.325c0.158,-4.357 -0.92,-8.512 -5.087,-13.224c-2.349,-2.656 -6.273,-5.033 -9.091,-6.545c-0.287,-0.155 -1.214,-0.596 -1.136,-0.86c0.142,-0.512 1.515,-0.06 1.75,0.007c8.173,2.319 16.811,4.791 24.848,6.98c4.565,1.241 8.673,2.686 13.296,3.856c3.726,0.938 7.611,1.965 11.651,2.803l1.176,0.245c0.196,0.065 0.414,0.175 0.451,0.342c0.163,0.67 -1.541,1.423 -1.931,1.561c-3.604,1.287 -8.54,0.309 -12.293,0.133c-4.524,-0.21 -9.012,-0.142 -13.32,1.466c-1.343,0.501 -2.772,1.173 -3.817,2.134c-3.256,3.005 -3.955,6.807 -3.496,10.315c0.395,3.018 0.197,6.876 3.201,8.572c6.147,3.47 10.66,-0.304 15.758,-3.599c1.057,-0.686 7.525,-6.672 8.694,-6.203c0.42,0.174 0.007,1.665 -0.016,1.919c-0.181,1.602 -0.133,2.04 -0.027,3.699c0.039,0.592 0.199,1.484 -0.079,1.844c-0.408,0.538 -2.967,1.34 -3.628,1.63c-1.313,0.581 -2.654,1.273 -3.589,1.834c-3.822,2.302 -7.992,3.25 -11.889,5.107c-2.663,1.267 -3.979,3.586 -5.111,5.56c-1.425,2.481 -2.736,5.029 -3.518,7.593c-0.241,0.783 -0.362,1.593 -0.539,2.389c-0.157,0.709 -0.22,1.76 -1.041,1.97c-0.571,0.149 -2.01,0.028 -2.214,-0.696c-0.191,-0.667 1.382,-1.531 1.507,-2.403c0.194,-1.359 -1.418,-2.541 -2.535,-2.942c-1.055,-0.378 -3.122,-0.536 -4.082,-0.142c-0.715,0.296 -1.36,1.228 -2.015,1.154c-0.547,-0.058 -1.474,-1.539 -1.948,-2.34c-0.557,-0.939 -1.04,-2.003 -1.334,-2.602c-1.03,-2.089 -2.037,-3.539 -2.926,-5.234c-4.535,-8.642 -9.787,-17.454 -15.646,-26.42l-3.44,-5.297c-0.161,-0.458 0.074,-1.434 0.091,-1.973c0.056,-1.889 -0.222,-4.12 -0.497,-6.011c-0.419,-2.856 -0.965,-5.462 -1.892,-8.092Zm-0.001,-5.225c0.537,0.049 10.821,3.019 11.895,3.562c0.147,0.072 0.107,0.213 0.102,0.276c-0.021,0.178 -0.04,0.087 -0.141,0.117c-1.177,0.306 -3.387,-0.259 -5.082,-0.526c-1.961,-0.306 -3.721,-0.438 -4.953,-1.1c-0.463,-0.25 -3.84,-2.52 -1.821,-2.329Zm75.478,23.627c0.038,1.269 -1.432,2.573 -2.692,3.726c-0.099,0.088 -0.913,1.179 -1.344,0.968c-0.375,-0.183 0.405,-1.408 0.503,-1.596c0.34,-0.661 0.521,-0.879 0.816,-1.494c0.408,-0.845 0.994,-2.823 1.821,-2.897c0.543,-0.048 0.89,1.026 0.896,1.293Zm-43.62,46.216c0.1,-0.887 2.012,-0.633 2.539,-0.555c0.506,0.078 1.584,0.21 1.843,0.737c0.48,0.987 -1.3,1.299 -1.875,1.232c-0.754,-0.087 -2.582,-0.744 -2.507,-1.414Zm21.456,4.734c-0.05,0.424 -1.859,0.376 -2.331,0.459c-4.058,0.724 -9.531,2.535 -13.444,0.428c-0.773,-0.417 -2.656,-2.285 -2.493,-2.74c0.213,-0.584 1.461,-0.171 1.986,-0.296c1.586,-0.377 3.412,-1.634 4.743,-1.7l10.071,3.018c0.352,0.079 1.524,0.316 1.468,0.831Zm1.388,30.592c-0.555,0.997 -3.022,2.511 -4.695,2.629c-0.329,0.025 -0.635,-0.227 -0.6,-0.56c0.112,-1.065 0.148,-2.141 0.108,-3.22c-0.01,-0.245 0.255,-0.37 0.49,-0.305c1.202,0.342 2.477,0.479 3.755,0.554c0.718,0.039 1.45,-0.016 0.942,0.902Zm5.258,13.443c0.052,0.163 0.115,0.19 0.029,0.334c-0.347,0.591 -1.686,-0.934 -2.354,-1.664c-0.772,-0.843 -1.566,-2.128 -2.503,-3.2c-1.062,-1.212 -2.181,-2.06 -2.732,-2.896c-0.196,-0.297 -0.633,-1.184 -0.296,-1.424c0.333,-0.239 0.694,0.307 1.341,0.818c0.517,0.41 1.319,0.819 1.979,1.488c1.858,1.879 3.867,4.395 4.536,6.544Zm-27.174,-37.197c-0.117,0.707 -0.325,1.396 -0.597,2.07c-0.081,0.199 -0.363,0.438 -0.425,0.231c-0.328,-1.044 -0.665,-2.244 -0.764,-2.728c-0.316,-1.493 -0.6,-2.768 -0.747,-4.464c-0.024,-0.239 -0.096,-0.879 0.038,-1.083c0.437,-0.673 1.684,1.862 1.786,2.115l0.709,3.859Zm-6.886,-7.559c-0.255,0.102 -3.054,0.597 -3.061,0.255l2.023,-3.951c0.248,-0.424 1.064,-2.111 1.753,-1.24c0.572,0.718 1.464,1.627 1.201,2.638c-0.258,1.005 -0.957,1.914 -1.916,2.298Zm73.329,-44.499c-0.282,-0.789 -1.049,-1.691 -0.809,-2.076c0.262,-0.418 1.747,-0.282 2.183,0.252c0.258,0.309 0.159,1.013 0.154,1.537c-0.003,0.821 0.251,1.659 -0.446,2.264c-1.008,0.87 -0.752,-1.064 -1.082,-1.977Zm15.071,-7.894c0.219,-1.979 1.283,-3.479 2.577,-4.823c1.294,-1.348 3.447,-3.58 4.829,-4.483c0.445,-0.296 0.261,2.066 -0.341,3.687c-1.073,2.884 -3.825,4.741 -6.386,6.131c-0.335,0.184 -0.718,-0.166 -0.679,-0.512Zm9.186,-8.877c0.174,-0.079 0.7,0.193 1.18,0.499c0.278,0.175 0.404,0.519 0.354,0.85c-0.193,1.262 -0.187,2.432 -0.009,3.517c0.451,2.751 2.335,5.127 4.047,7.21c0.416,0.505 0.86,0.993 1.326,1.466c0.228,0.232 0.392,0.581 0.176,0.822c-0.717,0.8 -1.608,1.405 -2.793,2.004c-0.609,0.315 -3.787,2.273 -4.374,1.883c-0.474,-0.32 -0.227,-1.451 -0.222,-1.486c0.067,-1.245 0.062,-3.253 0.008,-4.167c-0.121,-2.078 -0.685,-4.128 -0.726,-5.705c-0.039,-1.595 0.375,-3.346 0.584,-5.223c0.071,-0.622 0.136,-1.527 0.449,-1.67Zm3.571,-12.155c0.497,0.499 -0.241,1.931 -0.591,2.379c-0.37,0.47 -0.887,0.921 -1.36,1.098c-0.2,0.076 -1.301,0.218 -1.595,-0.251c-0.578,-0.911 2.706,-4.079 3.546,-3.226Zm-4.008,-0.795c-0.081,-0.331 -0.455,-2.581 0.534,-2.451c1.195,0.153 0.998,2.414 0.451,2.96c-0.577,0.582 -0.795,0.26 -0.985,-0.509Zm19.32,2.814c2.532,0.114 5.156,0.481 7.638,-0.223c2.804,-0.785 4.627,-3.207 5.993,-5.698c0.108,-0.194 0.386,-0.239 0.574,-0.171c3.915,1.427 8.85,2.722 13.301,2.248c0.113,-0.01 0.122,0.146 0.028,0.209c-4.133,2.708 -7.672,6.218 -9.977,10.691c-0.135,0.261 -0.338,0.506 -0.625,0.551l-7.859,-0.253c-2.888,-0.118 -5.441,-0.205 -8.32,-0.634c-3.887,-0.577 -7.954,-2.538 -12.254,-3.27c-1.179,-0.201 -1.94,-0.264 -3.082,-0.358c-0.169,-0.015 -0.943,0.123 -1.011,-0.248c-0.112,-0.587 3.6,-1.879 3.931,-1.992c3.753,-1.289 7.767,-1.023 11.663,-0.852Zm24.581,43.823c0.669,2.859 0.219,5.737 0.478,8.633c0.194,2.207 1.216,6.52 2.984,7.969c0.289,0.237 1.111,0.456 1.297,0.613c1.559,1.294 1.336,2.846 1.217,4.242c-0.077,0.879 -0.199,1.764 -0.636,2.176c-1.035,0.985 -2.313,-0.014 -2.827,0.863c-0.412,0.697 0.723,1.202 1.311,1.077c0.699,-0.152 1.456,-1.192 2.028,-1.286c0.787,-0.128 1.691,1.118 1.365,1.747c-0.1,0.195 -0.45,0.403 -0.925,0.597c-0.408,0.167 -0.846,0.232 -1.282,0.285c-1.572,0.187 -3.148,0.349 -4.721,0.524c-0.293,0.032 -0.66,-0.048 -0.634,-0.345c0.177,-2.109 0.205,-4.245 -0.071,-6.345l-0.687,-4.162c-1.185,-5.107 -2.492,-10.193 -5.041,-14.801c-2.05,-3.706 -4.844,-6.973 -6.896,-10.675c-0.088,-0.161 0.065,-0.335 0.245,-0.321c2.066,0.156 4.143,0.107 6.199,-0.177c0.359,-0.051 0.689,0.158 0.965,0.394c2.73,2.325 4.819,5.541 5.631,8.992Zm8.622,25.137c-0.682,0.851 -1.321,-0.895 -1.439,-1.69c-0.106,-0.702 0.038,-1.677 0.388,-1.739c0.746,-0.135 1.383,3.013 1.051,3.429Zm-45.484,-62.029c-0.691,-0.401 -3.754,-1.564 -1.55,-1.831c2.052,-0.252 4.179,0.429 6.111,1.046c1.9,0.601 4.282,1.034 5.958,2.137c0.652,0.428 2.112,1.786 2.717,2.429c0.367,0.392 4.1,4.29 4.03,4.609c-0.115,0.514 -3.666,-1.482 -3.946,-1.639c-4.37,-2.416 -8.981,-4.239 -13.32,-6.751Zm88.493,-6.615c1.129,-0.734 1.932,-1.678 2.376,-2.284c0.199,-0.267 0.544,-0.487 0.783,-0.257c0.991,0.947 2.568,2.776 1.262,3.191c-0.991,0.319 -1.992,0.596 -3.336,0.572c-1.337,-0.021 -2.239,-0.474 -1.085,-1.222Zm-312.367,-11.579c0.636,0.374 1.473,0.686 1.882,1.208c0.322,0.413 0.482,1.259 0.75,2.005c1.008,2.801 4.18,7.276 6.851,9.658c4.184,3.734 9.09,5.076 14.077,4.409c0.553,-0.071 3.247,-0.789 3.588,-1.832l-1.289,-2.994c0.212,-0.577 1.873,-1.019 2.3,-1.389c2.35,-2.003 1.395,-5.225 0.022,-7.736c-0.339,-0.623 -1.21,-1.713 -1.135,-2.052c0.122,-0.546 0.768,-0.272 1.544,-0.414c1.51,-0.281 3.418,-1.354 4.763,-3.02c3.734,-4.645 3.471,-11.593 1.998,-17.141c-0.056,-0.213 0.222,-0.297 0.413,-0.192c2.319,1.28 4.667,2.497 6.974,3.801c9.312,5.266 19.095,10.209 27.977,16.207c1.941,1.311 4.052,2.684 5.282,4.511c0.512,0.764 -0.009,1.627 -0.123,2.831c-0.171,1.836 0.016,3.623 0.559,5.492c0.261,0.911 0.737,1.854 0.917,2.819l0.284,6.779c0.021,0.152 0.097,0.377 0.141,0.48c0.272,0.647 1.122,1.122 1.195,1.527c0.08,0.472 -0.805,1.499 -1.15,2.116c-1.107,1.983 -2.044,4.346 -2.713,6.237c-0.688,1.933 -0.785,4.236 -0.275,6.516c0.295,1.317 0.617,3.139 2.345,4.042c1.02,0.534 1.999,-0.058 3.067,0.488c0.572,0.289 0.821,0.789 1.31,1.079c2.54,1.504 6.609,-0.421 8.988,-3.589c1.746,-2.331 3.099,-4.932 4.232,-7.585c0.019,-0.044 0.31,-1.041 0.702,-1.042c0.231,0.001 1.251,1.566 1.863,2.532c1.633,2.58 3.571,5.533 5.033,7.929c4.741,7.761 8.068,13.308 11.576,20.918l4.699,10.339l-3.377,7.161c-0.255,0.374 -0.777,0.297 -1.201,0.153c-0.717,-0.251 -1.447,-0.538 -2.189,-0.825c-5.071,-1.933 -10.111,-3.819 -15.61,-3.664c-4.629,0.131 -10.064,1.071 -13.749,4.127c-1.701,1.412 -3.573,3.848 -4.166,6.038c-0.205,0.762 -0.374,1.829 -0.434,2.728c-0.065,0.915 -0.154,1.887 0.02,2.717c0.183,0.88 0.792,1.686 1.022,2.501c0.341,1.223 -0.186,2.336 0.059,3.512c1.367,6.549 8.701,9.729 14.635,9.899c1.501,0.042 3.367,-0.156 5.209,-0.654c0.422,-0.113 1.478,-0.411 1.717,-0.201c0.35,0.32 0.073,1.327 -0.093,1.978c-0.84,3.29 -1.22,6.169 -1.709,9.46c-0.14,0.93 -0.66,3.219 0.088,3.847c1.135,0.952 3.427,-2.373 3.935,-3.182c2.334,-3.725 1.518,-7.541 1.36,-11.553c-0.043,-1.041 -0.373,-2.136 0.406,-3.061c0.766,-0.913 1.738,-1.586 2.605,-2.345c4.543,-3.966 7.953,-9.424 10.646,-14.8c0.525,-1.045 1.023,-2.114 1.669,-3.096c0.248,-0.377 2.879,-3.661 3.082,-2.212c0.357,2.566 0.464,3.7 1.154,6.209c0.429,1.555 1.111,3.229 0.789,4.859l-0.958,2.366c-0.386,0.691 -0.825,1.365 -1.223,2.013c-1.783,2.904 -3.606,5.768 -4.237,8.774c-0.31,1.488 -0.319,2.961 -0.256,4.598c0.171,4.234 1.748,8.038 3.465,11.879c1.087,2.442 1.708,5.114 2.847,7.506c2.265,4.766 6.708,1.94 9.604,-0.487c1.244,-1.044 2.56,-2.095 3.702,-3.249c2.125,-2.156 4.025,-4.622 4.919,-7.569c0.267,-0.927 0.528,-1.044 0.82,-0.794c1.67,1.447 3.833,2.927 4.158,5.336c0.327,2.424 -0.554,4.627 -1.391,6.858c-1.143,3.061 -2.42,6.153 -2.747,9.444c-0.167,1.705 -0.187,3.405 -0.16,5.109c0.265,2.174 0.335,4.102 0.714,6.283c0.56,3.244 2.555,7.277 5.14,9.855c1.385,1.381 3.493,1.323 5.249,1.336c5.071,0.039 10.795,-2.01 12.412,-7.428c1.399,-4.692 0.605,-9.264 -2.033,-14.39c-0.531,-1.035 -1.247,-2.52 -1.917,-3.797c-0.312,-0.593 -0.084,0.108 -0.381,-0.638c-0.577,-1.425 1.162,-0.156 1.61,0.121c1.438,0.894 3.322,1.476 4.85,2.015c5.656,2.014 10.503,3.771 16.544,3.838c1.062,0.012 2.815,0.412 3.402,-0.135c0.495,-0.464 0.437,-1.872 -0.063,-2.92c-0.543,-1.133 -1.702,-2.207 -2.405,-2.923c-2.803,-2.849 -5.182,-4.262 -7.921,-5.945c-2.588,-1.594 -5.488,-3.342 -8.082,-4.508c-3.295,-1.484 -7.588,-3.366 -10.952,-4.445c-1.769,-0.569 -3.543,-1.338 -5.518,-1.831c-1.64,-0.407 -3.901,-0.74 -5.462,-2.352c-0.543,-0.562 -0.989,-1.377 -0.851,-1.688c0.268,-0.604 2.266,-0.109 2.671,-0.019c2.79,0.609 5.4,1.232 8.073,1.662c3.78,0.608 7.387,0.7 11.048,0.088c2.846,-0.477 5.796,-1.022 8.542,-1.919c2.673,-0.88 6.374,-2.348 7.696,-5.395c0.809,-1.874 1.872,-3.259 0.612,-5.485c-1.689,-2.988 -3.978,-4.287 -6.122,-5.142c-5.959,-2.369 -13.732,0.29 -19.039,3.287c-0.153,0.088 -0.347,0.209 -0.553,0.328c-0.207,0.12 -0.558,0.114 -0.493,-0.12c1.237,-4.527 -0.401,-8.638 -2.697,-12.938c-0.901,-1.947 -1.967,-3.763 -3.317,-4.96c-0.768,-0.679 -1.896,-1.258 -2.92,-1.79c-0.377,-0.198 -1.468,-0.596 -0.297,-0.829c0.775,-0.158 2.565,0.361 3.137,0.428c8.206,0.952 19.081,4.2 25.674,-2.714c0.615,-0.643 0.947,-1.417 0.705,-2.232c-0.593,-1.99 -3.007,-4.329 -4.664,-5.968c-3.763,-3.714 -10.28,-4.585 -15.279,-4.15c-0.113,0.009 -1.322,0.409 -1.342,-0.222c-0.011,-0.447 1.844,-1.199 2.033,-1.286c2.046,-0.965 4.308,-2.52 5.006,-4.647c0.131,-0.397 0.289,-1.262 0.336,-1.812c0.039,-0.464 -0.161,-1.592 0.2,-1.829c0.344,-0.222 1.342,0.427 1.887,0.615c3.208,1.097 6.164,1.12 9.535,0.243c1.83,-0.474 6.602,-2.254 4.34,-5.052c-1.459,-1.801 -3.306,-3.13 -4.926,-5.397c-2.72,-3.808 -4.598,-7.865 -5.45,-11.746l-1.181,-5.697c-0.399,-1.127 -1.75,-2.458 -0.736,-3.327c0.424,-0.363 1.01,-0.167 1.557,0.047c1.43,0.566 2.459,1.259 3.504,1.799c2.715,1.4 5.696,3.136 8.711,4.711c0.649,0.341 1.542,0.586 1.709,0.995c0.143,0.338 -0.297,0.88 -0.617,1.447c-0.803,1.416 -1.252,2.849 -1.653,4.308c-1.082,3.962 -0.457,7.767 1.11,12.169c0.496,1.398 2.444,6.89 4.797,5.978c1.225,-0.475 2.214,-2.062 3.034,-3.285c0.376,-0.563 1.219,-2.639 1.717,-2.582c0.382,0.048 1.085,2.957 1.247,3.389c0.464,1.226 1.252,2.647 2.203,3.56c1.815,1.744 4.134,1.537 6.251,0.53c1.41,-0.676 3.45,-2.163 5.033,-3.717c0.213,-0.207 0.618,-0.67 0.958,-0.981c0.201,-0.182 0.534,-0.137 0.593,0.128c1.038,4.582 0.949,11.589 5.521,14.002c3.133,1.657 6.815,-1.392 9.198,-4.317c0.326,-0.397 0.675,-0.77 0.99,-1.176c3.477,-4.457 6.024,-9.183 5.548,-15.329c-0.27,-3.468 -1.321,-6.45 -2.354,-9.728c-0.184,-0.583 -0.383,-1.182 -0.577,-1.795c-0.064,-0.202 0.166,-0.365 0.339,-0.249c2.676,1.812 5.572,3.281 8.214,4.429c0.958,0.418 1.934,0.792 2.924,1.124c0.256,0.085 0.383,0.367 0.329,0.636c-1.05,5.118 -3.537,9.763 -5.75,14.513c-3.259,8.974 -5.176,20.214 -2.335,29.23c1.133,3.594 2.999,6.909 4.943,10.104c2.066,3.392 4.562,10.313 9.692,8.945c3.926,-1.044 7.026,-5.261 9.057,-9.12c0.147,-0.279 0.41,-0.466 0.693,-0.597c2.458,-1.138 4.316,-2.516 6.628,-4.766c1.834,-1.911 3.282,-3.875 4.524,-6.043c0.105,-0.187 0.561,-1.188 0.973,-1.145c0.63,0.07 -0.03,1.699 -0.077,1.843c-0.563,1.826 -1.339,3.861 -2.313,5.555c-1.341,2.334 -3.872,4.894 -5.543,7.098c-0.848,1.115 -1.585,2.391 -2.425,3.622c-0.86,1.264 -1.484,2.349 -1.451,3.667c0.055,2.179 0.719,5.653 2.164,7.991c1.132,1.829 2.472,1.524 4.066,1.466c2.32,-0.088 7.184,8.75 9.563,8.899c2.51,0.154 1.95,-8.514 4.307,-7.89c0.724,0.192 1.518,0.429 2.224,0.457c3.069,0.121 2.752,-3.921 2.759,-6.031c0.01,-3.423 -1.007,-7.113 -2.642,-10.098c-1.916,-3.488 -5.252,-6.894 -7.338,-10.576c-0.906,-1.6 -1.598,-3.542 -1.714,-5.024c-0.121,-1.61 0.308,-3.432 0.285,-4.863c-0.008,-0.698 -0.028,-1.585 -0.052,-2.455c-0.028,-1.198 -0.004,-2.175 0.765,-2.159c0.916,0.015 0.942,1.722 0.951,1.961c0.03,0.679 -0.011,1.514 0.15,2.134c0.994,3.793 5.196,6.334 7.938,5.219c0.359,-0.145 1.184,-0.893 1.659,-0.865c0.654,0.037 1.707,1.551 2.405,2.329c2.215,2.466 4.971,5.001 7.295,6.337c3.126,1.799 6.278,3.802 9.969,3.971c8.797,0.402 18.694,-3.379 24.962,-9.58c3.198,-3.162 0.297,-6.027 -3.355,-7.192c-5.544,-1.765 -9.12,-6.49 -15.909,-6.071c-5.25,0.319 -8.905,2.646 -13.228,6.067c-4.471,3.529 -7.212,6.334 -10.519,3.158c-0.329,-0.318 4.556,-1.847 4.277,-5.885c-0.436,-6.297 -9.111,-6.554 -13.403,-5.117c-0.519,0.173 -1.042,0.718 -1.786,0.852c-0.741,0.132 -1.545,-0.503 -2.424,-1.008c-0.505,-0.292 -2.432,-1.567 -2.006,-2.421c0.196,-0.384 1.475,-1.071 2.118,-1.468l6.616,-3.338c1.475,-0.636 3.057,-0.993 4.389,-2.003c2.716,-2.058 3.278,-4.819 2.717,-7.426c-0.247,-1.161 -1.464,-2.818 -2.73,-4.085c-0.113,-0.116 -0.253,-0.248 -0.387,-0.392c-0.235,-0.247 -0.111,-0.64 0.181,-0.811c2.815,-1.639 6.672,-0.976 9.444,-2.975c2.566,-1.849 1.883,-5.501 0.845,-7.976c-1.426,-3.402 -3.954,-6.285 -6.224,-9.123c-2.216,-2.77 -4.579,-4.85 -7.34,-6.568c-0.234,-0.147 -0.281,-0.507 -0.023,-0.6c0.351,-0.123 0.751,-0.217 0.999,-0.291c3.073,-0.93 6.054,-2.07 9.25,-4.156c1.247,-0.814 2.393,-2.181 3.848,-2.997c1.065,-0.597 2.887,-0.611 4.512,-0.796c3.329,-0.387 5.752,-0.654 8.936,-0.82c1.417,-0.073 3.282,-0.329 4.343,0.172c0.399,0.192 1.445,0.307 1.506,1.63c0.111,2.543 -3.175,2.629 -4.665,6.63c-0.527,1.42 -0.277,2.958 -0.451,4.445c-0.22,1.882 -1.149,3.539 -2.126,5.109c-0.758,1.222 -1.903,2.734 -1.218,4.302c0.535,1.211 2.284,1.88 4.071,1.809c2.554,-0.101 4.867,-1.166 6.807,-2.823c2.954,-2.527 3.609,-5.411 3.714,-7.448c0.108,-2.042 -0.138,-3.074 -1.133,-5.079c-0.752,-1.52 -1.245,-2.324 -2.75,-4.25c-1.336,-1.709 -1.441,-4.276 0.364,-3.381c2.383,1.174 2.682,3.877 3.381,6.408c0.522,1.907 1.29,3.916 2.042,5.597c0.849,1.901 1.468,3.832 2.609,5.726c3.696,6.117 9.527,9.913 14.168,12.885c1.985,1.276 16.545,14.835 16.373,6.853c-0.179,-8.165 -2.534,-15.136 -9.556,-19.787c-7.395,-4.894 -17.331,-6.143 -23.52,-12.748c-1.098,-1.172 -2.462,-3.744 -4.008,-5.427c-0.879,-0.949 -2.01,-1.708 -0.453,-1.77c0.668,-0.026 2.294,0.417 2.811,0.457c1.591,0.119 2.843,0.064 3.795,0.374c1.905,0.624 3.889,2.73 5.399,4.067c4.444,3.921 10.299,9.544 16.637,7.681c3.823,-1.121 8.242,-2.608 11.939,-2.056c4.098,0.61 14.559,1.089 17.904,-2.449c3.731,-3.941 -10.749,-13.561 -13.635,-14.718c-3.978,-1.592 -8.318,-3.616 -12.695,-3.034c-7.263,0.968 -14.336,5.433 -21.329,7.692c-1.022,0.328 -2.263,0.754 -3.645,1.163c-0.353,0.105 -1.176,0.182 -1.769,0.129c-0.29,-0.03 -1.629,0.012 -1.555,-0.647c0.05,-0.458 6.084,-3.154 7.848,-4.443c6.628,-3.825 12.217,-9.384 13.942,-17.22c0.549,-2.486 0.822,-5.444 -1.016,-7.45c-1.432,-1.561 -3.759,-1.898 -5.744,-1.923c-5.836,-0.065 -11.964,2.686 -16.576,6.155c-1.997,1.502 -3.443,4.263 -4.061,6.744c-0.885,3.543 0.183,8.362 0.511,10.165c0.046,0.264 -0.291,0.358 -0.518,0.219c-0.617,-0.376 -1.663,-0.642 -2.826,0.632c-0.584,0.643 -0.653,1.499 -0.492,2.323c0.149,0.761 0.752,1.716 0.476,2.496c-0.139,0.38 -1.607,1.863 -2.119,2.071c-2.175,0.868 -5.519,1.048 -8.284,1.355c-1.149,0.13 -1.964,0.228 -3.3,0.411c-0.676,0.095 -1.48,0.215 -1.626,0.01c-0.325,-0.461 1.08,-1.842 1.505,-2.407c1.863,-2.487 2.754,-4.862 3.416,-7.277c0.407,-1.48 0.598,-3.306 0.061,-5.151c-1.533,-5.223 -6.235,-5.789 -10.876,-6.289c-0.665,-0.075 -1.782,-0.098 -2.084,-0.571c-0.356,-0.555 0.356,-1.847 0.476,-2.526c0.168,-0.92 0.243,-1.829 0.279,-2.483c0.092,-1.551 -0.145,-3.558 -1.04,-5.212c-1.315,-2.425 -3.382,-3.93 -5.04,-4.952c-1.278,-0.784 -2.968,-1.236 -4.52,-1.448c-6.689,-0.914 -12.478,-0.333 -18.936,1.774c-4.805,1.568 -8.686,4.302 -12.327,7.833c-0.151,0.151 -0.435,0.438 -0.76,0.749c-0.092,0.09 -0.001,-0.249 0.067,-0.359c0.381,-0.65 0.713,-1.197 0.91,-1.495c4.017,-6.032 10.004,-10.855 15.484,-15.391c3.469,-2.866 7.366,-5.253 10.394,-8.233c1.872,-1.842 3.343,-4.131 4.539,-6.422c4.227,-8.087 5.679,-17.299 0.399,-25.331c-0.597,-0.905 -1.293,-1.756 -2.043,-2.76c-1.794,-2.42 -3.138,-2.975 -5.381,-3.023c-11.203,-0.242 -22.296,12.663 -24.152,23.258c-0.286,1.629 -0.496,3.458 -0.489,5.162c0.009,3.42 0.82,7.184 1.602,10.925c1.071,5.131 2.937,10.934 1.235,16.123c-0.638,1.952 -1.977,4.085 -3.266,5.866c-0.301,0.416 -0.645,0.905 -1.01,1.426c-0.115,0.172 -0.405,0.304 -0.429,0.103c-0.05,-0.432 -0.079,-0.84 -0.109,-1.011c-0.371,-2.059 -1.854,-5.596 -4.32,-7.315c-1.368,-0.953 -3.276,-1.404 -4.593,-1.393c-0.627,0.007 -1.378,0.113 -2.385,0.387c-0.804,0.219 -2.152,0.878 -2.415,0.644l0.294,-1.885c0.258,-0.778 0.563,-1.582 0.704,-2.362c0.554,-3.095 0.681,-5.613 -0.205,-8.624c-1.075,-3.663 -3.998,-10.761 -8.344,-12.611c-2.779,-1.184 -5.454,-0.157 -8.661,2.967c-4.549,4.437 -7.734,10.662 -7.109,17.211c0.209,2.188 0.763,4.335 1.318,6.456c0.789,3.033 1.517,6.052 2.616,8.994c1.177,3.142 2.549,6.203 3.773,9.328c0.562,1.43 1.138,3.003 0.916,4.568c-0.043,0.311 -0.362,0.537 -0.663,0.408c-1.688,-0.73 -3.27,-1.715 -4.916,-2.548c-0.41,-0.204 -0.82,-0.429 -1.158,-0.746c-4.512,-4.213 -5.514,-10.776 -7.898,-16.306c-2.758,-6.398 -7.497,-9.295 -14.385,-9c-8.995,0.388 -4.936,10.909 -1.751,15.558c2.143,3.133 5.32,5.151 8.769,6.49c2.862,1.111 6.055,1.444 9.052,2.208c0.088,0.02 0.223,0.176 0.135,0.183c-1.079,0.075 -2.147,0.275 -3.154,0.636c-5.475,1.965 -9.099,6.392 -9.884,12.202c-0.39,2.895 0.273,5.812 1.475,8.634c0.119,0.275 0.058,0.624 -0.22,0.72c-4.848,1.637 -9.349,4.007 -13.828,6.503c-0.977,0.398 -4.044,1.568 -4.577,-0.164c-0.195,-0.638 1.488,-2.26 2.506,-3.217c3.601,-3.385 8.166,-4.202 10.157,-8.218c2.065,-4.158 1.533,-10.013 0.639,-14.411c-0.487,-2.412 -2.082,-6.898 -5.059,-6.476c-3.276,0.462 -6.5,2.924 -8.871,5.149c-2.631,2.469 -4.26,5.818 -4.663,9.436c-0.297,2.67 -0.049,5.457 0.827,7.994c0.398,1.152 3.686,7.292 2.083,8.343c-0.441,0.288 -2.677,0.029 -4.418,-0.342c-2.068,-0.438 -4.023,-1.148 -6.078,-1.622c-5.591,-1.293 -11.021,-2.738 -16.605,-4.125c-5.651,-1.411 -10.866,-3.081 -16.383,-4.533c-8.091,-2.135 -16.321,-4.893 -24.957,-7.298c-1.844,-0.514 -4.403,-1.184 -6.247,-1.716c-0.221,-0.064 -1.895,-0.494 -1.841,-1.004c0.061,-0.508 1.303,-0.456 1.619,-0.477c6.076,-0.412 12.495,-1.759 18.4,-0.516c1.083,0.23 2.182,0.457 3.269,0.445c1.31,-0.011 4.539,-0.579 3.874,-2.658c-0.583,-1.821 -3.848,-4.042 -5.211,-5.171c-0.928,-0.768 -1.761,-1.662 -2.635,-2.617c-0.891,-0.977 -1.439,-2.186 -2.315,-3.115c-0.931,-0.985 -2.33,-1.83 -3.493,-2.521c-2.521,-1.502 -11.14,-5.894 -11.9,-0.586c-0.173,1.191 0.22,2.762 0.242,4.199c0.043,2.636 -0.368,5.436 -1.107,8.138c-0.452,1.659 -1.461,4.34 -3.75,4.462c-0.679,0.035 -1.877,-0.476 -2.897,-0.865c-4.942,-1.889 -9.424,-4.652 -14.183,-6.936c-7.319,-3.512 -14.918,-7.63 -22.536,-11.938c-1.302,-0.736 -3.3,-1.818 -4.873,-2.946c-0.373,-0.266 -0.559,-0.261 -0.527,-0.525c0.034,-0.311 1.246,-0.94 1.629,-1.201c3.927,-2.648 5.672,-5.689 6.463,-8.908c0.132,-0.525 0.055,-1.157 0.432,-1.538c0.434,-0.432 1.435,-0.508 2.229,-0.735c2.285,-0.649 4.456,-1.542 6.776,-3.582c1.402,-1.227 1.89,-2.549 2.337,-4.028c0.473,-1.561 1.161,-2.952 0.441,-4.51c-0.61,-1.325 -2.518,-3.205 -3.713,-4.007c-0.247,-0.161 -1.169,-0.611 -1.126,-0.989c0.069,-0.629 2.352,-1.556 2.802,-1.791c0.842,-0.44 2.263,-1.432 2.788,-1.068c0.379,0.266 0.351,1.199 0.408,1.572c0.378,2.467 1.664,5.527 4.38,6.79c0.347,0.162 0.863,0.311 1.382,0.425c0.392,0.085 1.247,0.044 1.368,0.556c0.058,0.232 -0.891,1.3 -1.161,1.65c-1.297,1.689 -1.973,3.205 -2.367,4.887c-0.563,2.393 -0.76,4.805 -0.449,6.893c0.755,5.026 4.799,8.768 8.986,8.053c0.508,-0.087 1.37,-0.543 1.986,-0.299c0.598,0.238 1.316,1.152 1.91,1.545c1.89,1.255 3.804,1.762 6.063,1.032c2.175,-0.697 4.504,-2.379 5.851,-4.613c0.156,-0.263 0.702,-1.868 1.188,-1.914c0.449,-0.039 1.429,1.528 2.021,2.284c2.692,3.441 10.344,12.275 15.125,7.246c0.841,-0.887 1.254,-2.321 1.48,-3.336c0.102,-0.445 0.205,-1.026 0.39,-1.741c0.126,-0.492 0.202,-1.329 0.576,-1.651l4.213,-0.441c1.236,-0.154 2.85,-0.247 4.257,-2.017c2.097,-2.643 0.445,-6.807 -0.972,-9.906c-1.236,-2.715 -4.206,-6.48 -6.725,-9.05c-0.58,-0.59 -1.397,-1.105 -0.437,-1.307c1.139,-0.238 2.843,0.277 4.009,0.202c1.462,-0.1 3.085,-0.382 4.641,-0.789c3.146,-0.818 8.979,-4.242 8.455,-7.551c-0.134,-0.871 -1.363,-2.406 -1.019,-3.095c0.234,-0.459 1.195,-0.564 1.788,-0.853c1.876,-0.907 3.927,-2.82 5.492,-4.323c2.17,-2.088 3.891,-4.191 5.029,-6.563c1.13,-2.346 1.942,-4.853 -0.238,-7.171c-0.932,-0.994 -2.174,-1.581 -3.275,-2.101c-5.401,-2.539 -11.234,-5.881 -17.003,-5.011c-4.093,0.615 -8.441,3.142 -13.038,6.623c-0.372,0.287 -1.689,1.498 -1.916,1.436c-0.365,-0.108 0.668,-2.273 0.751,-2.627c0.417,-1.822 -0.333,-3.877 -1.213,-6.029c-0.513,-1.266 -1.186,-2.933 -2.343,-4.638c-0.587,-0.862 -1.624,-1.828 -0.266,-1.683c3.245,0.347 6.896,0.253 10.168,-1.336c3.736,-1.816 4.868,-4.76 4.66,-7.33c-0.08,-0.992 -0.525,-1.651 -0.793,-2.81c-0.35,-1.505 0.709,-3.049 0.456,-4.641c-0.228,-1.425 -1.519,-3.079 -2.685,-4.479c-2.565,-3.069 -6.32,-5.012 -10.312,-3.977c-2.533,0.655 -5.002,2.163 -7.213,3.541c-2.324,1.451 -4.571,3.031 -6.686,4.783c-1.363,1.129 -2.669,2.47 -4.272,3.245c-0.524,0.255 -2.08,0.654 -2.558,0.056c-0.311,-0.386 0.737,-1.729 0.945,-2.092c2.189,-3.819 4.274,-7.788 4.857,-12.234c0.566,-4.339 -1.094,-9.156 -5.937,-9.439c-1.74,-0.097 -3.252,0.109 -5.257,1.049c-0.779,0.363 -2.441,-0.366 -3.553,-0.215c-1.975,0.27 -5.766,1.553 -6.063,4.192c-0.149,1.298 0.833,3.037 1.741,4.767c1.818,3.461 4.266,6.045 7.213,8.774c1.351,1.248 3.63,3.833 2.957,4.972c-1.079,1.844 -3.199,1.074 -4.212,0.442c-1.517,-0.955 -2.674,-2.459 -4.086,-3.585c-2.611,-2.082 -5.524,-4.27 -8.412,-5.076c-3.994,-1.115 -9.041,-0.977 -13.501,3.793c-1.28,1.378 -2.227,2.806 -2.877,4.234c-0.332,0.729 -0.582,1.465 -1.021,2.13c-1.026,1.561 -2.378,3.394 -1.625,5.238c0.666,1.632 2.318,2.636 3.546,3.783c1.487,1.39 2.611,2.368 3.759,3.015c1.341,0.756 2.646,0.902 3.977,1.055c1.329,0.154 2.637,-0.038 4.086,-0.453c5.085,-1.46 8.087,-4.638 12.927,-8.556c2.129,-1.724 5.235,-5.24 6.947,-3.362c0.609,0.666 0.125,1.403 0.334,2.219c0.681,2.637 0.957,5.761 0.502,6.073c-0.879,0.609 -1.86,1.452 -2.32,2.053c-1.234,1.613 -0.992,3.38 -0.843,5.193c0.067,0.829 0.055,1.761 0.22,2.675c0.188,1.009 0.576,2.01 0.58,2.976c-0.001,0.443 -0.208,1.092 -0.321,1.683c-0.502,2.578 -1.325,5.219 -2.134,8.023c-0.138,0.472 -0.592,2.833 -1.393,3.147c-0.56,0.213 -1.685,-0.885 -2.225,-1.054c-1.799,-0.57 -4.539,0.242 -6.414,2.102c-1.754,1.739 -2.652,3.809 -2.244,6.093c0.152,0.841 1.131,2.516 0.745,3.193c-0.224,0.412 -1.232,0.81 -2.026,1.286c-4.021,2.407 -8.325,4.955 -12.808,6.322c-0.953,0.289 -1.589,0.677 -2.071,0.489c-1.069,-0.42 -2.399,-3.012 -3.243,-4.146c-2.163,-2.904 -4.972,-4.633 -8.017,-6.422c-4.553,-2.68 -9.107,-6.202 -14.03,-8.567c-0.125,-0.057 -0.096,-0.25 0.045,-0.258c5.365,-0.262 10.528,2.418 15.711,3.695c6.68,1.646 11.817,-0.434 15.757,-6.183c5.149,-7.513 -5.542,-10.605 -11.109,-10.846c-3.746,-0.16 -7.254,1.187 -10.39,3.166c-4.345,2.741 -7.545,7.569 -12.545,9.01c-0.284,0.082 -0.592,0.091 -0.873,-0.004c-1.688,-0.57 -3.424,-0.963 -5.226,-1.102c-0.287,-0.021 -0.499,-0.34 -0.292,-0.549c0.49,-0.499 1.012,-0.975 1.603,-1.389c2.641,-1.818 6.045,-1.484 8.982,-2.428c1.199,-0.385 3.964,-1.384 5.149,-2.975c0.349,-0.466 0.662,-1.246 0.392,-1.742c-0.314,-0.572 -1.057,-0.636 -1.611,-0.714c-1.578,-0.226 -3.458,-1.015 -4.911,-0.901c-1.694,0.135 -3.307,0.977 -5.257,1.638c-0.634,0.219 -1.287,0.571 -1.683,0.535c-0.284,-0.027 -3.227,-1.703 -3.224,-2.028c0.005,-0.728 2.07,-1.632 2.562,-1.95c3.02,-1.964 5.407,-4.789 6.557,-6.85c1.482,-2.66 4.093,-9.333 0.572,-11.509c-1.505,-0.932 -2.806,-0.56 -4.367,0.087c-4.141,1.726 -7.945,4.222 -11.568,6.864c-0.663,0.486 -2.041,1.722 -2.33,1.647c-0.34,-0.084 -0.169,-0.874 -0.155,-0.942c0.112,-0.629 0.561,-2.101 0.619,-2.639c0.141,-1.239 0.348,-2.868 -0.49,-3.764c-1.47,-1.582 -4.943,0.881 -6.812,2.19c-2.698,1.887 -4.506,3.655 -5.969,5.658c-1.636,2.241 -2.831,4.092 -3.171,6.248c-0.154,0.966 0.037,2.26 0.663,3.383c0.408,0.736 2.524,2.589 2.216,3.431c-0.206,0.563 -1.265,0.71 -1.955,0.751c-0.333,0.019 -0.623,-0.208 -0.791,-0.5c-1.442,-2.507 -4.2,-4.192 -6.788,-5.587c-1.432,-0.772 -2.958,-1.368 -4.544,-0.813c-1.611,0.562 -2.039,3.193 -2.481,4.57c-0.064,0.188 -0.119,0.381 -0.175,0.57c-0.086,0.306 -0.386,0.507 -0.687,0.42c-2.654,-0.77 -5.174,-1.529 -7.938,-2.414l-7.861,-3.014c-0.317,-0.124 -0.616,-0.448 -0.395,-0.71c1.459,-1.726 2.679,-3.651 4.111,-5.404c1.142,-1.394 2.488,-2.594 3.901,-3.702l3.496,-1.678c1.102,-0.852 2.017,-2.34 2.752,-3.647c0.542,-0.965 0.845,-1.584 -0.611,-0.932c-2.447,1.09 -5.03,1.893 -7.275,2.795c-1.464,0.588 -2.832,1.41 -4.202,2.091l-4.328,1.485c-0.88,0.021 -1.31,-0.527 -2.668,-0.574c-0.525,-0.018 -1.402,0.077 -1.984,0.298c-0.858,0.332 -2.392,1.975 -2.159,0.675c0.163,-0.903 0.958,-2.596 1.296,-3.418c1.254,-3.093 2.679,-6.114 3.688,-9.302c1.012,-3.195 1.998,-6.4 2.967,-9.61c0.876,-2.896 1.981,-5.719 2.774,-8.644c0.366,-1.335 1.011,-4.657 1.959,-5.534c0.546,-0.508 1.988,-0.648 3.43,0.67c3.23,2.948 6.497,6.99 9.823,10.464c3.563,3.725 7.183,6.872 11.595,8.554c4.774,1.826 14.526,2.833 18.898,-0.323c2.136,-1.536 4.305,-3.527 5.053,-5.634c0.272,-0.76 -0.018,-2.203 -0.492,-3.164c-1.74,-3.577 -6.248,-5.792 -8.895,-7.645c-0.107,-0.075 -1.151,-0.778 -1.111,-1.122c0.054,-0.486 2.817,-1.257 3.216,-1.413c1.473,-0.588 3.419,-1.224 4.002,-2.646c1.59,-3.887 -2.126,-8.116 -5.338,-11.004c-3.046,-2.742 -7.185,-3.733 -10.539,-4.067c-1.973,-0.193 -3.534,-0.278 -5.522,-0.045c-3.497,0.413 -7.736,2.249 -11.422,5.559c-1.834,1.645 -3.256,3.863 -5.234,4.951c-0.516,0.279 -1.385,0.369 -2.189,0.339c-0.308,-0.011 -1.934,-0.045 -1.938,-0.686c-0.006,-0.69 2.233,-1.196 2.686,-1.344c1.996,-0.648 4.961,-2.949 2.712,-5.043c-1.51,-1.413 -2.888,0.664 -3.758,2.212c-0.642,1.135 -1.293,2.743 -2.765,3.185c-0.278,0.083 -0.965,0.117 -1.226,-0.077c-0.591,-0.432 -0.614,-1.382 -1.123,-2.182l-0.576,-1.379c0.159,-0.392 0.311,-0.775 0.456,-1.137c1.031,-2.536 1.629,-4.937 3.599,-6.925c1.779,-1.799 4.184,-3.127 5.936,-4.81c2.616,-2.508 5.013,-5.274 7.02,-8.309c0.203,-0.305 0.362,-0.625 0.545,-0.939l-17.402,11.089c0.753,3.486 0.828,6.839 -0.883,10.025c-0.179,0.331 -0.581,0.435 -0.946,0.354c-0.225,-0.051 -0.457,-0.054 -0.686,-0.016c-0.391,0.066 -0.826,-0.002 -1.047,-0.337c-0.296,-0.453 -0.582,-0.875 -0.79,-1.248c-0.855,-1.556 -1.275,-3.257 -1.588,-4.993l-14.325,9.128c0.521,0.943 1.118,1.85 1.874,2.554c3.42,3.185 6.548,0.975 8.645,-2.292c0.84,-1.31 2.098,-3.463 3.299,-3.294c0.56,0.08 1.305,0.733 1.829,1.264c0.269,0.268 0.223,0.694 0.168,1.069c-0.222,1.575 1.997,3.142 2.518,4.52c0.342,0.913 0.491,2.04 0.469,3.013c-0.064,3.269 -1.22,6.351 -2.014,9.479c-1.239,4.885 -2.331,9.422 -3.879,14.302c-1.472,4.64 -3.324,9.376 -5.423,14.125c-0.642,1.454 -1.44,3.662 -2.594,4.595c-0.635,0.513 -2.237,0.967 -3.386,1.196c-0.405,0.075 -0.777,0.132 -1.154,0.193l1.595,2.589c0.806,-0.05 1.593,-0.076 2.307,-0.018c1.23,0.102 2.638,0.514 3.92,0.982c0.866,0.319 1.736,0.652 2.605,0.996c0.23,0.093 0.349,0.338 0.337,0.59c-0.053,1.032 0.091,2.068 0.83,2.63c0.821,0.621 1.942,-0.044 2.947,-0.968c0.264,-0.24 0.638,-0.317 0.967,-0.185c1.27,0.518 2.548,1.031 3.836,1.515c4.183,1.569 8.604,3.077 13.112,4.898c0.351,0.142 0.544,0.514 0.54,0.901c-0.003,0.498 0.028,0.991 0.099,1.476c0.037,0.248 -0.064,0.525 -0.308,0.579c-0.399,0.091 -0.798,0.163 -1.017,0.266c-2.002,0.93 -3.756,3.091 -4.767,4.806c-1.645,2.794 -2.935,5.53 -2.322,8.532l0.95,3.152c-0.002,0.413 -0.74,1.995 -0.891,2.143c-0.23,0.228 -0.593,0.132 -0.807,-0.112c-0.93,-1.074 -2.003,-1.969 -3.301,-2.556c-0.314,-0.144 -0.636,-0.198 -0.953,-0.275l33.089,53.704l4.487,2.757Z" style="fill:#f5aa76;fill-rule:nonzero;"/><path d="M113.638,245.363c2.484,-2.365 1.673,-7.071 0.969,-9.812c-0.884,-3.454 -2.179,-7.004 -4.111,-10.333c-2.101,-3.613 -5.605,-6.892 -8.313,-8.835c-2.898,-2.082 -6.272,-3.757 -9.873,-4.192c-1.065,-0.131 -3.895,0.161 -7.056,0.335l21.296,34.564c1.894,-0.094 5.092,0.169 7.088,-1.727Z" style="fill:#f5aa76;fill-rule:nonzero;"/><path d="M103.008,201.462c2.263,-1.947 3.746,-4.236 4.629,-6.476c0.905,-2.293 1.422,-4.344 1.547,-6.833c0.508,-10.251 -11.556,-11.451 -18.451,-8.417c-1.982,0.873 -3.889,2.069 -5.586,3.431c-2.837,2.276 -4.125,4.979 -5.346,8.327l-2.898,7.479l4.559,7.399c2.397,0.044 4.766,-0.077 7.188,-0.239c4.952,-0.339 10.419,-1.28 14.358,-4.671Z" style="fill:#f5aa76;fill-rule:nonzero;"/><path d="M61.901,173.544c-0.481,-0.445 -0.943,-0.841 -1.417,-1.22l8.603,13.962c-0.787,-4.843 -3.108,-8.975 -7.186,-12.742Z" style="fill:#f5aa76;fill-rule:nonzero;"/></g></g><g><g><path d="M66.786,242.596c-0.434,-0.596 -0.748,-1.346 -0.371,-1.671c0.408,-0.344 2.356,0.57 3.091,0.782c0.187,0.052 0.683,-0.054 0.768,0.347c0.099,0.458 -0.761,0.942 -1.335,1.258c-0.9,0.495 -1.409,0.305 -2.153,-0.716Zm-13.981,-47.162c-0.015,-0.173 -0.019,-0.32 0.009,-0.398c0.145,-0.39 1.155,-1.193 1.649,-0.587c0.153,0.183 -0.227,2.958 -0.475,3.11c-0.079,0.043 -0.308,0.19 -0.492,0.029c-0.12,-0.104 -0.252,-0.389 -0.371,-0.73c-0.103,-0.47 -0.211,-0.947 -0.32,-1.424Zm10.023,4.879c8.245,-0.671 11.058,7.212 17.27,7.28c0.193,0.004 1.874,0.086 3.276,-0.093c0.26,-0.033 0.579,0.071 0.534,0.332c-0.177,1.039 -0.881,2.409 -1.46,3.632c-0.139,0.298 -0.445,0.518 -0.746,0.397c-4.783,-1.892 -9.613,-3.658 -14.368,-5.611c-0.275,-0.115 -0.53,-0.278 -0.711,-0.52c-1.254,-1.643 -2.532,-3.36 -4.235,-4.536c-0.456,-0.316 -0.122,-0.834 0.44,-0.881Zm7.627,-9.967c0.922,-2.587 1.592,-5.188 1.585,-7.901c0.001,-0.266 0.178,-0.521 0.437,-0.498c2.104,0.189 4.315,0.074 6.422,0.448c0.319,0.057 0.57,0.292 0.741,0.571c0.774,1.26 0.633,2.918 -0.161,4.125c-0.216,0.329 -0.58,0.512 -0.962,0.576c-2.72,0.455 -5.352,1.508 -7.779,2.941c-0.164,0.094 -0.346,-0.081 -0.283,-0.262Zm17.462,15.778c1.055,-0.622 2.209,-0.995 3.299,-1.532c2.256,-1.106 4.951,-2.764 6.311,-4.975c0.632,-1.025 0.832,-2.196 0.154,-3.599c-0.354,-0.737 -0.874,-1.382 -1.481,-1.969c-2.391,-2.991 -6.834,-4.969 -9.912,-5.918c-0.505,-0.154 -1.011,-0.278 -1.518,-0.379c-0.148,-0.026 -0.274,-0.26 -0.126,-0.292c0.574,-0.119 1.624,-0.024 2.157,0.01c2.907,0.194 5.725,1.063 8.64,1.203c1.519,0.07 2.726,-0.437 3.864,-1.121c1.208,-0.718 4.399,1.865 4.908,2.797c0.894,1.637 0.512,3.799 0.266,5.569c-0.486,3.505 -1.172,6.951 -1.751,10.445c-1.266,7.672 0.304,11.21 0.062,10.992c-2.592,-2.297 -5.852,-5.49 -9.131,-6.716c-2.236,-0.837 -4.52,-1.651 -5.906,-3.74c-0.19,-0.281 -0.135,-0.598 0.164,-0.775Zm-3.858,-23.915c-0.262,0.177 -0.461,0.357 -0.829,0.398c-0.408,0.044 -1.802,-0.356 -1.94,-0.919c-0.427,-1.707 5.743,-1.514 2.769,0.521Zm-4.102,-6.663c1.013,-1.312 3.335,-0.485 4.177,-0.364c0.703,0.103 1.289,0.2 2.04,0.258c0.419,0.034 1.575,-0.217 1.91,0.42c0.28,0.524 -1.001,2.637 -1.749,3.205c-0.924,0.7 -2.011,0.514 -3.238,0.418c-1.028,-0.077 -2.225,-0.11 -2.799,-1.02c-0.514,-0.822 -0.742,-2.403 -0.341,-2.917Zm6.754,-3.959c0.35,-0.133 1.529,-0.477 1.763,-0.335c0.525,0.323 0.422,2.114 0.028,2.454c-0.558,0.485 -1.286,0.024 -2.369,-0.093c-0.763,-0.085 -1.675,0.187 -1.792,-0.377c-0.11,-0.536 1.411,-1.291 2.37,-1.649Zm-5.659,44.794c-0.189,1.229 -0.328,3.251 -0.456,4.236c-0.051,0.385 -2.595,-2.373 -4.288,-2.967c-3.723,-1.315 -6.913,0.011 -6.715,-0.978c0.338,-1.656 0.237,-3.388 -0.156,-5.06c-0.065,-0.271 0.027,-0.638 0.286,-0.547c1.102,0.389 2.207,0.781 3.303,1.189c2.612,0.978 5.084,2.246 7.604,3.419c0.276,0.13 0.468,0.405 0.422,0.708Zm-34.937,-61.994c-0.135,0.305 -0.417,0.571 -0.728,0.464c-0.491,-0.169 -0.97,-0.502 -0.966,-0.802c0.006,-0.79 1.456,-0.909 1.23,-1.927c-0.066,-0.287 -0.78,-0.759 -0.836,-1.141c-0.073,-0.547 0.821,-1.314 1.592,-1.586c0.592,-0.207 1.494,-0.122 2.004,0.163c0.379,0.213 0.205,0.736 -0.08,1.063c-0.932,1.062 -1.626,2.431 -2.216,3.766Zm20.705,-43.558c0.547,-0.745 3.326,0.239 2.877,1.187c-0.11,0.235 -1.693,0.876 -2.101,0.702c-0.633,-0.271 -0.967,-1.624 -0.776,-1.889Zm6.62,2.067c0.804,0.24 3.182,2.448 2.962,2.897c-0.27,0.542 -1.773,0.288 -2.337,0.194c-1.259,-0.208 -2.554,-0.67 -3.902,-1.006c-0.192,-0.05 -1.872,-0.301 -1.864,-0.751c0.01,-0.618 1.196,-0.331 1.807,-0.457c1.197,-0.242 2.299,-1.187 3.334,-0.877Zm87.074,105.612c1.212,-1.422 2.161,-2.53 3.561,-3.866c0.764,-0.726 3.005,-2.69 2.743,-0.184c-0.094,0.924 -2.234,2.28 -3.09,2.919c-1.582,1.182 -2.258,2.087 -3.624,2.87c-0.36,0.206 -0.651,0.601 -0.945,0.352c-0.363,-0.305 1.175,-1.878 1.355,-2.091Zm2.135,-15.003c1.08,-1.908 1.916,-3.521 3.076,-5.581c0.359,-0.652 1.113,-2.671 1.61,-2.624c0.669,0.059 0.895,2.63 1.224,3.729c0.268,0.903 1.279,3.312 0.728,3.967c-0.054,0.067 -0.187,0.064 -0.248,0.121c-0.637,0.569 -2.115,0.649 -3.462,1.248c-0.678,0.301 -1.588,0.86 -2.156,1.237c-0.356,0.239 -1.166,1.199 -1.735,0.834c-0.896,-0.575 0.688,-2.436 0.963,-2.931Zm11.847,5.932c0.626,-0.054 2.868,-0.166 2.396,0.808c-0.035,0.072 -0.428,0.362 -0.789,0.478c-0.494,0.163 -1.54,0.216 -2.374,0.112c-0.627,-0.081 -2.06,-0.392 -1.982,-0.796c0.1,-0.563 2.124,-0.547 2.749,-0.602Zm1.964,-3.611c1.006,-0.198 3.014,-0.373 4.755,-0.639c0.488,-0.074 5.11,-1.013 4.289,0.309c-0.041,0.063 -0.252,0.264 -0.624,0.404l-10.711,1.74c-0.074,0.013 -1.195,0.412 -1.347,-0.067c-0.257,-0.821 3,-1.623 3.638,-1.747Zm-1.747,-29.482l1.127,-2.799c0.173,-0.398 0.808,-1.333 1.055,-1.432c0.705,-0.282 1.726,0.976 2.619,1.724c1.581,1.325 3.42,3.001 4.844,4.563c0.681,0.749 1.877,1.487 2.191,2.546c0.061,0.202 0.002,0.11 -0.089,0.248c-0.225,0.358 -1.537,0.336 -1.804,0.247c-0.481,-0.16 -0.8,-0.672 -1.405,-1.07c-1.22,-0.804 -3.798,-1.417 -5.784,-1.135c-0.649,0.093 -1.144,0.209 -1.766,0.334c-0.183,0.037 -2.201,0.805 -2.104,0.46c0.236,-0.846 0.869,-3.103 1.116,-3.686Zm-0.805,41.59c-1.271,-1.132 -2.634,-2.236 -3.4,-3.81c-0.378,-0.772 -0.843,-2.172 -0.682,-2.34c0.303,-0.328 2.469,0.564 3.067,0.99c5.524,3.928 11.051,12.873 11.02,12.964c-0.215,0.606 -9.285,-7.16 -10.005,-7.804Zm-7.647,-9.481c-0.301,0.008 -2.424,-0.411 -2.48,-0.553c-0.18,-0.434 1.435,-1.69 2.089,-2.031c1.009,-0.529 3.294,-1.153 3.696,-0.745c0.5,0.507 0.134,2.169 -0.096,2.409c-0.356,0.378 -0.857,0.386 -1.565,0.545c-0.557,0.127 -1.123,0.374 -1.644,0.375Zm3.552,7.444c0.946,4.099 0.412,7.51 0.031,9.442c-0.194,0.99 -0.679,5.225 -0.775,5.302c-0.79,0.674 -0.903,-1.219 -1.015,-1.975c-0.359,-2.399 -0.693,-4.885 -0.702,-6.961c-0.015,-2.583 0.406,-4.053 0.638,-6.472c0.021,-0.237 -0.173,-2.059 0.332,-2.113c0.438,-0.046 1.339,2.117 1.491,2.777Zm-20.62,69.29c0.586,0.142 0.637,1.429 0.494,1.721c-0.211,0.413 -0.814,0.669 -1.455,1.003c-0.212,0.112 -1.327,0.917 -0.978,-0.144c0.093,-0.288 0.482,-0.761 0.763,-1.19c0.215,-0.33 0.66,-1.509 1.176,-1.39Zm28.457,75.971c1.998,2.429 3.206,6.153 4.406,9.499c0.766,2.139 1.598,4.655 2.458,7.046c0.76,2.112 1.795,4.701 3.321,6.934c0.823,1.212 1.95,2.93 3.052,4.191c0.256,0.293 0.991,0.961 0.909,1.308c-0.097,0.429 -1.205,0.718 -2.031,1.284c-0.582,0.403 -0.639,0.714 -1.082,0.932c-1.094,0.531 -2.026,-0.466 -2.738,-1.951l-0.347,-3.854c-0.23,-2.669 -0.69,-5.362 -1.779,-7.817c-1.796,-4.05 -6.086,-6.407 -7.412,-10.721c-0.509,-1.663 -0.39,-3.568 -0.754,-5.276c-0.141,-0.66 -0.267,-2.469 -0.023,-2.659c0.602,-0.472 1.746,0.75 2.02,1.084Zm-26.922,-78.762c0.027,-0.731 0.917,-1.56 1.611,-2.412c0.575,-0.714 1.468,-2.207 2.169,-2.072c0.254,0.051 0.46,0.602 0.676,0.807c0.261,0.241 0.929,0.478 1.089,0.813c0.317,0.681 -0.498,1.979 -0.873,2.475c-0.466,0.617 -1.521,1.649 -2.137,2.154c-0.272,0.227 -0.58,0.402 -0.785,0.482c-0.083,0.033 -0.243,0.21 -0.414,0.196c-0.531,-0.034 -1.361,-1.707 -1.336,-2.443Zm8.604,2.863c-0.041,-0.361 -0.77,-2.733 -0.177,-2.997c0.504,-0.225 1.467,1.126 1.759,1.828c0.438,1.056 0.261,2.568 0.317,3.96c0.133,3.241 -0.062,6.217 -0.172,9.432c-0.138,4.044 -0.266,9.293 2.578,14.489c0.917,1.682 2.25,3.442 3.478,5.114c1.263,1.713 2.463,3.286 3.746,4.369c4.284,3.616 10.887,3.624 14.93,-0.275c1.929,-1.856 2.862,-4.469 3.464,-6.696c1.136,-4.204 1.023,-8.499 -1.971,-14.057c-1.688,-3.133 -4.971,-6.362 -7.374,-8.49c-0.244,-0.218 -1.046,-0.863 -0.911,-1.102c0.254,-0.465 1.488,0.295 1.702,0.415c7.432,4.163 15.283,8.582 22.613,12.586c4.163,2.273 7.836,4.637 12.073,6.854c3.415,1.781 6.964,3.686 10.708,5.445l1.09,0.512c0.176,0.109 0.363,0.267 0.362,0.438c0.008,0.69 -1.821,1.026 -2.232,1.069c-3.798,0.413 -8.382,-1.69 -11.996,-2.736c-4.356,-1.259 -8.74,-2.239 -13.295,-1.678c-1.421,0.174 -2.963,0.494 -4.197,1.187c-3.846,2.165 -5.383,5.703 -5.727,9.225c-0.296,3.03 -1.359,6.739 1.183,9.09c5.201,4.81 10.445,2.189 16.149,0.171c1.183,-0.422 8.829,-4.74 9.861,-4.012c0.369,0.267 -0.368,1.623 -0.448,1.864c-0.538,1.518 -0.589,1.955 -0.86,3.595c-0.095,0.585 -0.141,1.491 -0.493,1.776c-0.518,0.429 -3.19,0.613 -3.898,0.741c-1.409,0.259 -2.871,0.62 -3.907,0.948c-4.24,1.35 -8.512,1.301 -12.724,2.2c-2.878,0.613 -4.682,2.563 -6.228,4.22c-1.946,2.083 -3.797,4.257 -5.136,6.571c-0.411,0.706 -0.712,1.466 -1.063,2.199c-0.313,0.654 -0.611,1.662 -1.458,1.676c-0.589,0.011 -1.963,-0.442 -1.998,-1.194c-0.035,-0.694 1.691,-1.168 2.009,-1.987c0.495,-1.278 -0.807,-2.805 -1.805,-3.455c-0.941,-0.614 -2.917,-1.25 -3.94,-1.09c-0.763,0.121 -1.602,0.878 -2.222,0.653c-0.52,-0.184 -1.088,-1.842 -1.369,-2.731c-0.33,-1.045 -0.561,-2.193 -0.712,-2.845c-0.532,-2.273 -1.185,-3.919 -1.669,-5.776c-2.465,-9.469 -5.591,-19.271 -9.273,-29.364l-2.155,-5.958c-0.053,-0.483 0.396,-1.378 0.534,-1.899c0.48,-1.826 0.713,-4.062 0.871,-5.967c0.236,-2.877 0.292,-5.542 -0.017,-8.318Zm1.177,-5.086c0.512,0.173 9.852,5.461 10.775,6.241c0.126,0.104 0.056,0.232 0.037,0.292c-0.06,0.169 -0.059,0.075 -0.164,0.081c-1.214,0.023 -3.238,-1.042 -4.828,-1.696c-1.84,-0.756 -3.523,-1.294 -4.573,-2.226c-0.394,-0.352 -3.169,-3.349 -1.247,-2.692Zm68.142,40.595c-0.25,1.243 -1.974,2.17 -3.461,2.999c-0.116,0.062 -1.154,0.934 -1.526,0.628c-0.324,-0.265 0.712,-1.276 0.849,-1.436c0.48,-0.564 0.705,-0.734 1.131,-1.264c0.588,-0.727 1.604,-2.516 2.426,-2.395c0.539,0.08 0.635,1.206 0.581,1.468Zm-52.877,34.816c0.298,-0.841 2.102,-0.148 2.596,0.052c0.475,0.193 1.495,0.572 1.629,1.146c0.244,1.073 -1.558,0.962 -2.103,0.762c-0.714,-0.26 -2.346,-1.326 -2.122,-1.96Zm19.818,9.609c-0.144,0.401 -1.894,-0.067 -2.373,-0.096c-4.113,-0.242 -9.848,0.245 -13.182,-2.718c-0.658,-0.586 -2.071,-2.843 -1.809,-3.248c0.339,-0.519 1.461,0.174 2,0.175c1.629,0.003 3.689,-0.795 5,-0.549l9.123,5.286c0.324,0.159 1.412,0.663 1.241,1.15Zm-5.545,30.102c-0.765,0.841 -3.508,1.738 -5.163,1.464c-0.326,-0.052 -0.567,-0.369 -0.457,-0.685c0.349,-1.011 0.626,-2.049 0.831,-3.11c0.045,-0.24 0.331,-0.3 0.545,-0.182c1.093,0.613 2.303,1.043 3.531,1.415c0.689,0.205 1.415,0.322 0.713,1.098Zm2.088,14.31c0.014,0.171 0.069,0.212 -0.048,0.332c-0.47,0.494 -1.43,-1.302 -1.916,-2.169c-0.561,-1 -1.044,-2.435 -1.715,-3.698c-0.76,-1.427 -1.658,-2.514 -2.006,-3.455c-0.124,-0.335 -0.35,-1.301 0.033,-1.456c0.378,-0.155 0.606,0.461 1.12,1.109c0.411,0.52 1.1,1.105 1.591,1.91c1.386,2.262 2.774,5.179 2.941,7.427Zm-18.066,-42.541c-0.273,0.66 -0.631,1.283 -1.047,1.875c-0.124,0.176 -0.452,0.342 -0.466,0.126c-0.084,-1.092 -0.142,-2.339 -0.129,-2.834c0.029,-1.527 0.04,-2.833 0.279,-4.519c0.031,-0.238 0.105,-0.878 0.281,-1.045c0.577,-0.553 1.219,2.205 1.262,2.475l-0.18,3.922Zm-4.998,-8.963c-0.272,0.039 -3.107,-0.131 -3.038,-0.466l2.86,-3.374c0.337,-0.355 1.512,-1.806 1.986,-0.798c0.394,0.832 1.058,1.925 0.575,2.847c-0.478,0.919 -1.363,1.641 -2.383,1.791Zm81.407,-26.219c-0.097,-0.834 -0.64,-1.891 -0.32,-2.209c0.349,-0.346 1.764,0.132 2.068,0.754c0.182,0.36 -0.074,1.023 -0.196,1.531c-0.189,0.799 -0.13,1.675 -0.945,2.101c-1.178,0.611 -0.492,-1.212 -0.607,-2.177Zm16.449,-4.17c0.659,-1.875 2.033,-3.087 3.595,-4.094c1.563,-1.01 4.162,-2.681 5.711,-3.238c0.5,-0.184 -0.212,2.072 -1.163,3.51c-1.694,2.556 -4.792,3.723 -7.598,4.479c-0.368,0.101 -0.662,-0.33 -0.545,-0.657Zm10.942,-6.499c0.187,-0.036 0.638,0.351 1.036,0.76c0.231,0.236 0.277,0.6 0.153,0.91c-0.472,1.184 -0.73,2.324 -0.801,3.422c-0.181,2.783 1.116,5.534 2.314,7.961c0.29,0.588 0.612,1.168 0.959,1.736c0.17,0.279 0.251,0.657 -0.013,0.842c-0.879,0.611 -1.882,0.992 -3.171,1.299c-0.663,0.164 -4.198,1.33 -4.682,0.813c-0.389,-0.422 0.106,-1.466 0.119,-1.499c0.346,-1.195 0.794,-3.152 0.948,-4.053c0.35,-2.051 0.263,-4.178 0.579,-5.722c0.321,-1.562 1.119,-3.17 1.746,-4.949c0.208,-0.589 0.476,-1.454 0.813,-1.52Zm6.216,-10.999c0.371,0.602 -0.67,1.824 -1.111,2.178c-0.466,0.371 -1.072,0.689 -1.572,0.752c-0.212,0.027 -1.316,-0.092 -1.496,-0.616c-0.358,-1.022 3.553,-3.34 4.179,-2.314Zm-3.723,-1.708c-0.003,-0.341 0.139,-2.618 1.073,-2.262c1.129,0.428 0.427,2.583 -0.228,2.987c-0.693,0.432 -0.833,0.068 -0.845,-0.725Zm18.172,7.243c2.439,0.701 4.911,1.67 7.485,1.564c2.906,-0.111 5.227,-2.044 7.118,-4.149c0.149,-0.165 0.43,-0.143 0.597,-0.033c3.489,2.301 8.001,4.712 12.44,5.289c0.112,0.016 0.086,0.171 -0.02,0.21c-4.633,1.672 -8.869,4.264 -12.121,8.08c-0.19,0.223 -0.443,0.414 -0.733,0.391l-7.592,-2.079c-2.785,-0.788 -5.251,-1.468 -7.956,-2.557c-3.653,-1.467 -7.17,-4.324 -11.19,-6.04c-1.102,-0.47 -1.829,-0.708 -2.919,-1.066c-0.162,-0.054 -0.946,-0.1 -0.929,-0.477c0.023,-0.598 3.928,-0.99 4.275,-1.023c3.944,-0.379 7.792,0.815 11.545,1.89Zm14.047,48.387c0.008,2.938 -1.079,5.635 -1.48,8.514c-0.309,2.194 -0.286,6.63 1.108,8.452c0.229,0.299 0.979,0.703 1.125,0.9c1.225,1.622 0.659,3.081 0.228,4.412c-0.273,0.838 -0.591,1.671 -1.11,1.97c-1.229,0.717 -2.247,-0.553 -2.946,0.182c-0.558,0.582 0.433,1.338 1.033,1.353c0.715,0.015 1.686,-0.821 2.265,-0.778c0.794,0.058 1.393,1.482 0.934,2.018c-0.142,0.166 -0.529,0.287 -1.034,0.365c-0.436,0.068 -0.877,0.028 -1.313,-0.022c-1.572,-0.183 -3.143,-0.394 -4.713,-0.59c-0.293,-0.037 -0.632,-0.2 -0.54,-0.484c0.648,-2.011 1.156,-4.083 1.362,-6.192l0.269,-4.211c-0.002,-5.248 -0.128,-10.503 -1.57,-15.583c-1.16,-4.084 -3.143,-7.917 -4.307,-11.998c-0.048,-0.177 0.139,-0.31 0.312,-0.255c1.975,0.633 4.008,1.07 6.073,1.273c0.361,0.034 0.635,0.314 0.851,0.608c2.133,2.899 3.441,6.517 3.453,10.066Zm2.726,26.477c-0.854,0.67 -1.083,-1.179 -1.019,-1.98c0.056,-0.708 0.415,-1.623 0.77,-1.603c0.756,0.043 0.667,3.255 0.249,3.583Zm-30.289,-70.981c-0.582,-0.551 -3.302,-2.397 -1.096,-2.144c2.053,0.233 3.97,1.393 5.712,2.443c1.714,1.029 3.935,2.005 5.318,3.469c0.538,0.569 1.653,2.231 2.096,2.998c0.27,0.468 3.025,5.132 2.884,5.426c-0.227,0.474 -3.233,-2.297 -3.471,-2.515c-3.709,-3.371 -7.786,-6.22 -11.443,-9.677Zm87.627,14.192c1.264,-0.452 2.259,-1.183 2.828,-1.669c0.254,-0.214 0.639,-0.347 0.82,-0.068c0.751,1.153 1.874,3.301 0.509,3.4c-1.037,0.08 -2.073,0.116 -3.376,-0.22c-1.297,-0.333 -2.073,-0.984 -0.781,-1.443Zm-301.438,-84.094c0.534,0.513 1.279,1.012 1.559,1.615c0.221,0.477 0.186,1.337 0.279,2.127c0.349,2.961 2.428,8.056 4.49,10.997c3.232,4.61 7.705,7.061 12.71,7.574c0.554,0.06 3.337,-0.011 3.905,-0.947l-0.58,-3.215c0.336,-0.512 2.053,-0.555 2.551,-0.816c2.739,-1.402 2.537,-4.76 1.766,-7.525c-0.19,-0.684 -0.792,-1.949 -0.642,-2.261c0.242,-0.503 0.809,-0.086 1.596,-0.043c1.533,0.078 3.632,-0.521 5.317,-1.829c4.681,-3.652 5.992,-10.476 5.809,-16.219c-0.007,-0.221 0.283,-0.237 0.445,-0.09c1.968,1.786 3.979,3.518 5.931,5.325c7.877,7.296 16.285,14.389 23.579,22.298c1.593,1.728 3.339,3.556 4.125,5.622c0.326,0.863 -0.376,1.581 -0.758,2.727c-0.581,1.747 -0.802,3.53 -0.695,5.476c0.049,0.948 0.3,1.976 0.257,2.957l-1.251,6.665c-0.014,0.153 0.009,0.39 0.029,0.5c0.119,0.694 0.84,1.354 0.819,1.765c-0.029,0.478 -1.122,1.272 -1.597,1.792c-1.524,1.672 -2.969,3.753 -4.046,5.438c-1.105,1.721 -1.719,3.941 -1.736,6.279c-0.01,1.35 -0.107,3.198 1.371,4.481c0.873,0.757 1.959,0.41 2.876,1.189c0.491,0.415 0.621,0.96 1.032,1.356c2.132,2.056 6.527,1.131 9.557,-1.398c2.225,-1.862 4.129,-4.078 5.829,-6.396c0.028,-0.039 0.536,-0.941 0.918,-0.85c0.224,0.054 0.864,1.815 1.243,2.899c1.008,2.891 2.229,6.217 3.111,8.89c2.865,8.66 4.854,14.835 6.553,23.06l2.243,11.159l-4.901,6.183c-0.333,0.305 -0.824,0.109 -1.204,-0.131c-0.641,-0.411 -1.287,-0.861 -1.944,-1.313c-4.501,-3.064 -8.981,-6.075 -14.369,-7.206c-4.535,-0.952 -10.037,-1.304 -14.313,0.812c-1.974,0.978 -4.345,2.912 -5.416,4.906c-0.371,0.694 -0.777,1.693 -1.038,2.554c-0.269,0.875 -0.575,1.801 -0.592,2.65c-0.02,0.899 0.39,1.825 0.431,2.672c0.056,1.27 -0.708,2.23 -0.735,3.432c-0.145,6.694 6.276,11.499 12.014,13.047c1.451,0.391 3.313,0.634 5.218,0.579c0.436,-0.013 1.531,-0.056 1.716,0.204c0.269,0.393 -0.228,1.309 -0.536,1.904c-1.559,3.006 -2.578,5.72 -3.796,8.809c-0.346,0.873 -1.368,2.98 -0.781,3.766c0.889,1.191 3.87,-1.512 4.547,-2.181c3.112,-3.081 3.178,-6.986 3.928,-10.928c0.193,-1.023 0.119,-2.166 1.085,-2.885c0.952,-0.709 2.05,-1.138 3.064,-1.675c5.317,-2.801 9.866,-7.319 13.699,-11.923c0.747,-0.895 1.472,-1.82 2.323,-2.625c0.326,-0.309 3.627,-2.893 3.499,-1.435c-0.232,2.581 -0.384,3.709 -0.277,6.313c0.067,1.613 0.353,3.401 -0.327,4.914l-1.466,2.079c-0.532,0.582 -1.111,1.136 -1.645,1.674c-2.39,2.412 -4.809,4.774 -6.101,7.553c-0.638,1.376 -0.979,2.808 -1.286,4.416c-0.788,4.161 -0.11,8.231 0.695,12.37c0.508,2.63 0.51,5.376 1.079,7.97c1.13,5.168 6.092,3.453 9.458,1.765c1.446,-0.726 2.965,-1.442 4.336,-2.3c2.554,-1.603 4.96,-3.56 6.494,-6.22c0.469,-0.84 0.749,-0.893 0.977,-0.582c1.299,1.798 3.071,3.743 2.845,6.164c-0.229,2.435 -1.583,4.374 -2.901,6.35c-1.802,2.714 -3.742,5.426 -4.802,8.553c-0.547,1.62 -0.949,3.27 -1.307,4.935c-0.232,2.178 -0.599,4.072 -0.722,6.283c-0.186,3.287 0.847,7.679 2.782,10.79c1.037,1.668 3.102,2.103 4.808,2.525c4.927,1.22 10.961,0.56 13.756,-4.337c2.419,-4.241 2.676,-8.876 1.265,-14.481c-0.283,-1.131 -0.646,-2.743 -1.01,-4.143c-0.17,-0.65 -0.106,0.086 -0.227,-0.709c-0.241,-1.522 1.166,0.119 1.539,0.493c1.199,1.205 2.902,2.211 4.267,3.092c5.052,3.278 9.373,6.119 15.239,7.593c1.031,0.258 2.646,1.056 3.341,0.661c0.587,-0.336 0.848,-1.72 0.597,-2.856c-0.273,-1.23 -1.159,-2.546 -1.682,-3.407c-2.086,-3.426 -4.083,-5.357 -6.37,-7.633c-2.159,-2.155 -4.589,-4.532 -6.85,-6.272c-2.873,-2.213 -6.627,-5.045 -9.659,-6.88c-1.594,-0.967 -3.147,-2.129 -4.958,-3.069c-1.505,-0.779 -3.631,-1.629 -4.787,-3.562c-0.401,-0.674 -0.652,-1.572 -0.447,-1.841c0.397,-0.526 2.23,0.421 2.603,0.603c2.579,1.244 4.98,2.459 7.485,3.5c3.541,1.473 7.031,2.403 10.733,2.662c2.878,0.199 5.872,0.356 8.747,0.123c2.801,-0.233 6.734,-0.799 8.707,-3.457c1.21,-1.636 2.557,-2.736 1.832,-5.196c-0.969,-3.303 -2.905,-5.1 -4.8,-6.433c-5.265,-3.695 -13.431,-2.919 -19.272,-1.238c-0.168,0.049 -0.385,0.122 -0.612,0.189c-0.229,0.069 -0.569,-0.019 -0.453,-0.231c2.224,-4.118 1.556,-8.501 0.291,-13.223c-0.438,-2.104 -1.066,-4.121 -2.111,-5.6c-0.594,-0.841 -1.562,-1.667 -2.438,-2.423c-0.322,-0.281 -1.295,-0.923 -0.103,-0.876c0.791,0.026 2.416,0.949 2.958,1.147c7.773,2.839 17.626,8.537 25.601,3.344c0.744,-0.483 1.242,-1.159 1.19,-2.008c-0.129,-2.075 -1.951,-4.915 -3.195,-6.897c-2.825,-4.492 -8.972,-6.859 -13.936,-7.601c-0.113,-0.018 -1.379,0.09 -1.257,-0.529c0.09,-0.438 2.065,-0.738 2.269,-0.778c2.209,-0.463 4.762,-1.449 5.921,-3.356c0.217,-0.356 0.566,-1.161 0.735,-1.686c0.143,-0.442 0.202,-1.587 0.607,-1.734c0.384,-0.135 1.21,0.729 1.698,1.039c2.876,1.816 5.747,2.528 9.226,2.459c1.889,-0.034 6.935,-0.654 5.363,-3.905c-1.013,-2.093 -2.512,-3.817 -3.578,-6.402c-1.789,-4.341 -2.703,-8.727 -2.657,-12.704l0.134,-5.82c-0.134,-1.19 -1.149,-2.801 0.035,-3.41c0.494,-0.255 1.02,0.073 1.504,0.408c1.265,0.885 2.11,1.8 3.006,2.569c2.327,1.995 4.837,4.38 7.417,6.616c0.554,0.484 1.368,0.93 1.439,1.367c0.063,0.363 -0.488,0.787 -0.927,1.264c-1.101,1.192 -1.86,2.482 -2.58,3.809c-1.946,3.604 -2.196,7.453 -1.662,12.103c0.167,1.477 0.825,7.277 3.321,6.937c1.299,-0.177 2.62,-1.491 3.694,-2.49c0.493,-0.46 1.781,-2.284 2.253,-2.113c0.361,0.136 0.39,3.131 0.45,3.589c0.175,1.302 0.622,2.869 1.342,3.98c1.373,2.121 3.677,2.459 5.965,1.973c1.524,-0.33 3.845,-1.302 5.737,-2.445c0.253,-0.152 0.753,-0.508 1.153,-0.731c0.237,-0.131 0.551,-0.01 0.549,0.262c-0.023,4.702 -1.689,11.502 2.217,14.917c2.676,2.343 6.947,0.233 9.927,-2.058c0.406,-0.311 0.83,-0.593 1.229,-0.914c4.388,-3.528 7.933,-7.534 8.855,-13.627c0.519,-3.439 0.168,-6.587 -0.098,-10.018c-0.049,-0.611 -0.107,-1.24 -0.158,-1.882c-0.016,-0.211 0.244,-0.317 0.387,-0.163c2.196,2.388 4.683,4.493 6.997,6.226c0.838,0.63 1.703,1.222 2.592,1.775c0.23,0.143 0.291,0.447 0.177,0.696c-2.175,4.737 -5.644,8.679 -8.868,12.786c-5.195,7.976 -9.595,18.469 -8.862,27.908c0.293,3.762 1.361,7.424 2.534,10.987c1.246,3.783 2.115,11.102 7.417,10.966c4.057,-0.101 8.025,-3.483 10.872,-6.766c0.205,-0.236 0.503,-0.357 0.808,-0.419c2.65,-0.534 4.769,-1.443 7.526,-3.094c2.217,-1.433 4.069,-3.006 5.767,-4.827c0.144,-0.158 0.813,-1.026 1.205,-0.888c0.597,0.215 -0.413,1.647 -0.491,1.776c-0.959,1.646 -2.173,3.446 -3.503,4.868c-1.832,1.959 -4.872,3.861 -6.996,5.617c-1.076,0.887 -2.081,1.958 -3.176,2.96c-1.123,1.029 -1.975,1.94 -2.239,3.231c-0.438,2.134 -0.575,5.67 0.304,8.282c0.69,2.044 2.063,2.061 3.627,2.375c2.279,0.456 5.021,10.192 7.303,10.892c2.408,0.735 3.818,-7.833 5.971,-6.676c0.662,0.356 1.381,0.772 2.062,0.964c2.96,0.833 3.562,-3.176 4.044,-5.228c0.782,-3.329 0.624,-7.158 -0.295,-10.445c-1.079,-3.841 -3.558,-7.934 -4.759,-12.005c-0.521,-1.769 -0.756,-3.82 -0.535,-5.29c0.245,-1.595 1.074,-3.269 1.374,-4.666c0.149,-0.682 0.33,-1.55 0.502,-2.402c0.243,-1.173 0.487,-2.118 1.231,-1.924c0.889,0.229 0.529,1.897 0.484,2.131c-0.124,0.668 -0.352,1.471 -0.334,2.112c0.112,3.924 3.629,7.377 6.549,6.93c0.383,-0.057 1.354,-0.592 1.81,-0.455c0.628,0.189 1.313,1.908 1.816,2.828c1.601,2.917 3.711,6.027 5.672,7.869c2.637,2.479 5.255,5.165 8.809,6.189c8.471,2.443 18.958,1.07 26.456,-3.505c3.826,-2.333 1.649,-5.797 -1.644,-7.783c-4.999,-3.01 -7.414,-8.443 -14.117,-9.618c-5.182,-0.913 -9.264,0.499 -14.243,2.821c-5.147,2.393 -8.448,4.484 -10.951,0.623c-0.249,-0.387 4.851,-0.737 5.49,-4.731c0.995,-6.232 -7.392,-8.505 -11.893,-8.106c-0.544,0.047 -1.176,0.456 -1.931,0.413c-0.751,-0.045 -1.39,-0.85 -2.131,-1.547c-0.426,-0.402 -2.015,-2.092 -1.407,-2.824c0.277,-0.328 1.677,-0.698 2.392,-0.935l7.192,-1.706c1.579,-0.276 3.2,-0.255 4.724,-0.927c3.108,-1.37 4.277,-3.926 4.319,-6.594c0.021,-1.189 -0.79,-3.085 -1.737,-4.614c-0.083,-0.138 -0.19,-0.3 -0.288,-0.471c-0.173,-0.296 0.036,-0.649 0.359,-0.748c3.11,-0.938 6.714,0.606 9.863,-0.693c2.915,-1.202 3.073,-4.916 2.621,-7.568c-0.622,-3.643 -2.433,-7.039 -4.002,-10.33c-1.533,-3.213 -3.364,-5.789 -5.665,-8.105c-0.194,-0.198 -0.159,-0.559 0.114,-0.589c0.369,-0.038 0.78,-0.036 1.038,-0.051c3.2,-0.188 6.359,-0.603 9.94,-1.888c1.397,-0.502 2.821,-1.565 4.421,-2.02c1.171,-0.333 2.948,0.078 4.572,0.277c3.327,0.399 5.746,0.704 8.882,1.284c1.396,0.261 3.269,0.446 4.188,1.181c0.346,0.28 1.338,0.636 1.099,1.937c-0.464,2.502 -3.683,1.82 -6.035,5.366c-0.833,1.26 -0.937,2.815 -1.44,4.222c-0.639,1.78 -1.917,3.177 -3.222,4.477c-1.013,1.013 -2.468,2.217 -2.155,3.904c0.248,1.303 1.799,2.362 3.554,2.709c2.51,0.497 5.001,0.001 7.262,-1.161c3.445,-1.77 4.733,-4.424 5.295,-6.383c0.565,-1.962 0.558,-3.024 0.042,-5.208c-0.39,-1.655 -0.688,-2.552 -1.719,-4.778c-0.915,-1.975 -0.439,-4.498 1.117,-3.206c2.054,1.699 1.736,4.399 1.846,7.026c0.078,1.977 0.373,4.112 0.726,5.924c0.397,2.048 0.565,4.072 1.248,6.182c2.219,6.815 7.039,11.87 10.887,15.844c1.644,1.705 12.76,18.298 14.392,10.488c1.667,-7.99 0.946,-15.324 -4.841,-21.488c-6.095,-6.488 -15.485,-10.02 -20.02,-17.892c-0.805,-1.397 -1.553,-4.218 -2.678,-6.217c-0.641,-1.129 -1.572,-2.131 -0.042,-1.829c0.656,0.131 2.139,0.941 2.633,1.101c1.522,0.486 2.752,0.724 3.61,1.249c1.713,1.051 3.17,3.564 4.338,5.217c3.441,4.853 7.874,11.691 14.463,11.355c3.973,-0.2 8.61,-0.617 12.084,0.782c3.851,1.549 13.926,4.454 17.979,1.791c4.52,-2.967 -7.406,-15.706 -9.954,-17.506c-3.513,-2.476 -7.281,-5.458 -11.673,-5.912c-7.288,-0.751 -15.179,1.946 -22.494,2.514c-1.069,0.081 -2.374,0.207 -3.811,0.283c-0.367,0.019 -1.186,-0.097 -1.751,-0.287c-0.275,-0.097 -1.589,-0.368 -1.368,-0.992c0.152,-0.435 6.633,-1.652 8.641,-2.496c7.314,-2.177 14.007,-6.285 17.452,-13.511c1.095,-2.291 2.027,-5.107 0.691,-7.488c-1.042,-1.853 -3.231,-2.724 -5.158,-3.211c-5.665,-1.423 -12.251,-0.175 -17.522,2.127c-2.282,0.996 -4.312,3.347 -5.473,5.617c-1.66,3.242 -1.707,8.182 -1.794,10.014c-0.015,0.268 -0.364,0.281 -0.553,0.093c-0.516,-0.51 -1.475,-1.013 -2.894,-0.044c-0.713,0.49 -0.973,1.306 -1.002,2.147c-0.027,0.775 0.345,1.845 -0.1,2.54c-0.221,0.337 -1.984,1.438 -2.529,1.521c-2.312,0.338 -5.608,-0.266 -8.369,-0.612c-1.148,-0.141 -1.963,-0.236 -3.304,-0.37c-0.68,-0.064 -1.489,-0.135 -1.585,-0.369c-0.213,-0.524 1.466,-1.541 2.007,-1.992c2.374,-1.986 3.777,-4.09 4.965,-6.286c0.73,-1.346 1.328,-3.079 1.221,-5c-0.315,-5.442 -4.764,-7.088 -9.169,-8.657c-0.63,-0.228 -1.713,-0.51 -1.899,-1.042c-0.222,-0.623 0.762,-1.715 1.032,-2.347c0.371,-0.857 0.649,-1.724 0.832,-2.353c0.439,-1.488 0.66,-3.496 0.162,-5.315c-0.733,-2.667 -2.406,-4.613 -3.789,-5.995c-1.068,-1.061 -2.611,-1.895 -4.074,-2.463c-6.305,-2.45 -12.071,-3.233 -18.831,-2.688c-5.031,0.406 -9.425,2.163 -13.764,4.751c-0.182,0.111 -0.523,0.324 -0.91,0.551c-0.11,0.067 0.056,-0.242 0.147,-0.333c0.517,-0.544 0.964,-0.999 1.223,-1.243c5.269,-4.935 12.184,-8.235 18.54,-11.371c4.024,-1.982 8.354,-3.397 11.974,-5.592c2.238,-1.356 4.185,-3.241 5.865,-5.192c5.938,-6.887 9.428,-15.515 6.098,-24.563c-0.376,-1.02 -0.862,-2.011 -1.366,-3.163c-1.201,-2.775 -2.383,-3.628 -4.556,-4.197c-10.85,-2.848 -24.557,7.128 -28.752,17.007c-0.645,1.52 -1.262,3.25 -1.639,4.911c-0.762,3.331 -0.821,7.184 -0.903,11.008c-0.114,5.244 0.394,11.327 -2.433,15.981c-1.06,1.752 -2.844,3.516 -4.501,4.949c-0.387,0.335 -0.832,0.73 -1.305,1.152c-0.15,0.14 -0.462,0.202 -0.44,0c0.048,-0.432 0.112,-0.836 0.122,-1.009c0.102,-2.091 -0.544,-5.879 -2.556,-8.127c-1.117,-1.247 -2.873,-2.131 -4.157,-2.428c-0.612,-0.139 -1.367,-0.21 -2.409,-0.178c-0.832,0.025 -2.292,0.353 -2.495,0.063l0.711,-1.765c0.426,-0.698 0.904,-1.409 1.216,-2.135c1.238,-2.884 1.929,-5.305 1.746,-8.443c-0.222,-3.816 -1.467,-11.406 -5.28,-14.22c-2.437,-1.8 -5.273,-1.425 -9.099,0.868c-5.427,3.259 -9.931,8.575 -10.799,15.096c-0.29,2.178 -0.235,4.398 -0.173,6.591c0.085,3.136 0.113,6.244 0.52,9.364c0.437,3.333 1.083,6.633 1.57,9.959c0.224,1.524 0.43,3.19 -0.139,4.661c-0.112,0.293 -0.474,0.438 -0.737,0.242c-1.479,-1.104 -2.797,-2.431 -4.211,-3.626c-0.353,-0.295 -0.701,-0.609 -0.959,-0.996c-3.442,-5.153 -2.938,-11.775 -4.012,-17.713c-1.243,-6.871 -5.202,-10.795 -11.973,-12.114c-8.843,-1.72 -7.263,9.468 -5.212,14.736c1.381,3.549 4.017,6.254 7.073,8.361c2.535,1.749 5.568,2.817 8.314,4.259c0.08,0.041 0.176,0.224 0.089,0.21c-1.067,-0.178 -2.151,-0.233 -3.213,-0.117c-5.772,0.636 -10.297,4.101 -12.371,9.574c-1.032,2.726 -1.045,5.72 -0.51,8.747c0.053,0.296 -0.085,0.622 -0.378,0.65c-5.088,0.463 -10.003,1.72 -14.925,3.106c-1.04,0.16 -4.29,0.584 -4.419,-1.226c-0.045,-0.667 1.959,-1.854 3.165,-2.548c4.269,-2.455 8.896,-2.186 11.739,-5.631c2.948,-3.565 3.749,-9.389 3.871,-13.878c0.07,-2.462 -0.472,-7.2 -3.465,-7.483c-3.292,-0.314 -6.986,1.33 -9.795,2.944c-3.117,1.789 -5.458,4.669 -6.665,8.097c-0.892,2.53 -1.279,5.3 -0.998,7.974c0.127,1.214 1.944,7.957 0.147,8.606c-0.494,0.178 -2.612,-0.596 -4.224,-1.362c-1.913,-0.909 -3.656,-2.056 -5.55,-2.996c-5.151,-2.562 -10.11,-5.235 -15.233,-7.887c-5.182,-2.69 -9.882,-5.532 -14.925,-8.231c-7.394,-3.964 -14.783,-8.568 -22.647,-12.922c-1.679,-0.93 -4.019,-2.179 -5.694,-3.127c-0.201,-0.113 -1.733,-0.922 -1.565,-1.407c0.173,-0.479 1.371,-0.139 1.684,-0.086c6.006,1.016 12.558,1.2 18.025,3.788c1.002,0.476 2.022,0.953 3.082,1.195c1.278,0.294 4.549,0.494 4.37,-1.685c-0.157,-1.908 -2.834,-4.831 -3.906,-6.248c-0.731,-0.963 -1.34,-2.028 -1.976,-3.161c-0.646,-1.159 -0.908,-2.463 -1.55,-3.572c-0.685,-1.176 -1.856,-2.324 -2.833,-3.269c-2.115,-2.049 -9.514,-8.334 -11.45,-3.344c-0.437,1.119 -0.409,2.74 -0.711,4.143c-0.553,2.576 -1.584,5.206 -2.912,7.664c-0.814,1.51 -2.4,3.883 -4.656,3.468c-0.669,-0.123 -1.72,-0.901 -2.625,-1.516c-4.385,-2.991 -8.124,-6.725 -12.242,-10.059c-6.333,-5.124 -12.8,-10.904 -19.245,-16.873c-1.101,-1.02 -2.802,-2.539 -4.079,-4.004c-0.303,-0.346 -0.485,-0.384 -0.395,-0.634c0.103,-0.294 1.426,-0.624 1.857,-0.789c4.419,-1.662 6.803,-4.215 8.298,-7.164c0.247,-0.481 0.315,-1.114 0.768,-1.396c0.52,-0.32 1.512,-0.16 2.335,-0.196c2.37,-0.099 4.685,-0.462 7.403,-1.907c1.642,-0.867 2.414,-2.041 3.183,-3.375c0.813,-1.41 1.796,-2.603 1.446,-4.288c-0.295,-1.432 -1.728,-3.707 -2.711,-4.766c-0.204,-0.214 -1,-0.868 -0.873,-1.225c0.209,-0.596 2.64,-0.966 3.131,-1.09c0.918,-0.232 2.525,-0.866 2.954,-0.39c0.31,0.348 0.071,1.249 0.043,1.626c-0.188,2.489 0.374,5.767 2.733,7.63c0.301,0.238 0.77,0.504 1.249,0.735c0.363,0.175 1.204,0.334 1.207,0.86c0.004,0.24 -1.161,1.059 -1.502,1.336c-1.643,1.342 -2.643,2.66 -3.406,4.205c-1.087,2.198 -1.823,4.5 -1.99,6.605c-0.399,5.068 2.694,9.653 6.93,9.934c0.515,0.033 1.456,-0.209 2.001,0.172c0.528,0.371 1.021,1.428 1.511,1.949c1.557,1.661 3.305,2.601 5.669,2.418c2.274,-0.172 4.921,-1.266 6.735,-3.127c0.211,-0.219 1.105,-1.654 1.588,-1.586c0.445,0.067 1.046,1.821 1.452,2.694c1.845,3.978 7.302,14.36 13.089,10.579c1.018,-0.666 1.744,-1.966 2.193,-2.901c0.199,-0.409 0.43,-0.951 0.772,-1.604c0.233,-0.449 0.496,-1.247 0.932,-1.473l4.2,0.554c1.239,0.138 2.83,0.423 4.599,-0.971c2.636,-2.084 1.968,-6.522 1.287,-9.87c-0.591,-2.93 -2.633,-7.287 -4.506,-10.376c-0.431,-0.71 -1.111,-1.402 -0.131,-1.375c1.162,0.035 2.705,0.933 3.857,1.132c1.445,0.243 3.089,0.347 4.695,0.314c3.246,-0.063 9.696,-2.036 9.932,-5.379c0.066,-0.879 -0.785,-2.66 -0.294,-3.249c0.331,-0.393 1.29,-0.271 1.933,-0.414c2.03,-0.445 4.458,-1.83 6.32,-2.928c2.582,-1.526 4.732,-3.172 6.374,-5.216c1.629,-2.02 2.985,-4.271 1.385,-7.035c-0.683,-1.185 -1.76,-2.046 -2.714,-2.809c-4.685,-3.73 -9.609,-8.343 -15.421,-8.841c-4.122,-0.356 -8.924,1.09 -14.183,3.407c-0.427,0.192 -1.982,1.064 -2.189,0.951c-0.331,-0.19 1.162,-2.057 1.323,-2.382c0.817,-1.676 0.55,-3.851 0.179,-6.151c-0.214,-1.352 -0.494,-3.132 -1.236,-5.061c-0.377,-0.976 -1.168,-2.158 0.121,-1.7c3.08,1.094 6.655,1.854 10.198,1.069c4.046,-0.896 5.812,-3.498 6.188,-6.048c0.146,-0.984 -0.138,-1.729 -0.138,-2.919c-0.002,-1.548 1.378,-2.803 1.49,-4.411c0.099,-1.441 -0.784,-3.352 -1.604,-4.987c-1.804,-3.585 -5.022,-6.351 -9.141,-6.275c-2.613,0.047 -5.356,0.94 -7.819,1.765c-2.589,0.871 -5.133,1.885 -7.586,3.097c-1.581,0.782 -3.154,1.782 -4.89,2.163c-0.568,0.126 -2.172,0.152 -2.502,-0.542c-0.215,-0.448 1.107,-1.511 1.391,-1.815c2.992,-3.208 5.916,-6.586 7.485,-10.777c1.53,-4.091 0.999,-9.167 -3.651,-10.571c-1.672,-0.501 -3.19,-0.652 -5.353,-0.205c-0.841,0.172 -2.294,-0.925 -3.41,-1.037c-1.984,-0.198 -5.963,0.167 -6.847,2.666c-0.437,1.229 0.127,3.151 0.621,5.047c0.989,3.792 2.789,6.878 5.042,10.221c1.034,1.53 2.67,4.577 1.758,5.529c-1.465,1.543 -3.356,0.3 -4.2,-0.552c-1.261,-1.282 -2.048,-3.017 -3.168,-4.441c-2.073,-2.636 -4.415,-5.445 -7.044,-6.903c-3.637,-2.016 -8.58,-3.058 -13.997,0.545c-1.556,1.043 -2.8,2.212 -3.755,3.45c-0.487,0.632 -0.896,1.291 -1.473,1.835c-1.351,1.281 -3.08,2.75 -2.763,4.72c0.281,1.744 1.662,3.107 2.599,4.509c1.134,1.7 2.007,2.914 2.979,3.812c1.135,1.048 2.372,1.494 3.633,1.953c1.259,0.46 2.576,0.578 4.08,0.512c5.279,-0.236 8.917,-2.629 14.511,-5.314c2.461,-1.182 6.277,-3.88 7.52,-1.653c0.443,0.79 -0.195,1.395 -0.175,2.238c0.069,2.725 -0.367,5.83 -0.881,6.028c-0.992,0.388 -2.138,0.979 -2.72,1.457c-1.566,1.282 -1.728,3.059 -1.991,4.859c-0.122,0.822 -0.344,1.726 -0.39,2.654c-0.044,1.027 0.108,2.091 -0.106,3.033c-0.101,0.43 -0.448,1.014 -0.692,1.562c-1.069,2.393 -2.465,4.772 -3.885,7.313c-0.241,0.427 -1.215,2.62 -2.065,2.738c-0.593,0.077 -1.441,-1.254 -1.929,-1.544c-1.623,-0.975 -4.473,-0.824 -6.717,0.55c-2.099,1.284 -3.44,3.089 -3.557,5.408c-0.042,0.854 0.533,2.712 0.005,3.282c-0.311,0.348 -1.382,0.501 -2.261,0.779c-4.458,1.406 -9.221,2.882 -13.893,3.168c-0.992,0.058 -1.699,0.288 -2.126,-0.008c-0.945,-0.657 -1.656,-3.491 -2.222,-4.791c-1.451,-3.331 -3.795,-5.669 -6.355,-8.12c-3.829,-3.67 -7.468,-8.16 -11.726,-11.61c-0.109,-0.084 -0.037,-0.266 0.101,-0.241c5.282,0.996 9.703,4.809 14.461,7.26c6.13,3.159 11.6,2.332 16.73,-2.345c6.706,-6.112 -3.004,-11.614 -8.367,-13.147c-3.611,-1.029 -7.329,-0.536 -10.828,0.659c-4.847,1.656 -9.05,5.609 -14.242,5.846c-0.295,0.014 -0.596,-0.05 -0.849,-0.207c-1.514,-0.948 -3.115,-1.736 -4.838,-2.291c-0.275,-0.088 -0.408,-0.448 -0.161,-0.603c0.59,-0.372 1.205,-0.713 1.874,-0.978c2.981,-1.154 6.219,-0.035 9.291,-0.27c1.253,-0.094 4.17,-0.423 5.682,-1.695c0.444,-0.373 0.924,-1.058 0.774,-1.604c-0.176,-0.63 -0.885,-0.866 -1.408,-1.071c-1.484,-0.588 -3.137,-1.794 -4.576,-2.022c-1.68,-0.263 -3.439,0.181 -5.487,0.369c-0.666,0.065 -1.381,0.256 -1.759,0.128c-0.269,-0.092 -2.757,-2.409 -2.68,-2.725c0.169,-0.707 2.382,-1.106 2.933,-1.301c3.382,-1.207 6.342,-3.401 7.927,-5.138c2.042,-2.245 6.088,-8.131 3.151,-11.07c-1.255,-1.258 -2.605,-1.199 -4.27,-0.933c-4.42,0.715 -8.686,2.257 -12.808,3.983c-0.755,0.32 -2.374,1.201 -2.639,1.061c-0.312,-0.161 0.032,-0.89 0.061,-0.953c0.251,-0.586 1.02,-1.914 1.198,-2.424c0.417,-1.174 0.985,-2.711 0.371,-3.779c-1.074,-1.882 -5.01,-0.295 -7.123,0.544c-3.052,1.207 -5.211,2.508 -7.086,4.116c-2.098,1.8 -3.678,3.323 -4.495,5.342c-0.368,0.905 -0.474,2.209 -0.117,3.447c0.23,0.812 1.873,3.109 1.383,3.857c-0.327,0.5 -1.391,0.396 -2.072,0.275c-0.328,-0.059 -0.56,-0.348 -0.657,-0.671c-0.839,-2.776 -3.144,-5.06 -5.349,-7.02c-1.219,-1.086 -2.57,-2.022 -4.239,-1.852c-1.695,0.172 -2.705,2.633 -3.445,3.87c-0.104,0.169 -0.202,0.344 -0.299,0.514c-0.152,0.278 -0.49,0.404 -0.763,0.249c-2.41,-1.368 -4.692,-2.695 -7.183,-4.2l-6.972,-4.766c-0.281,-0.195 -0.499,-0.581 -0.224,-0.784c1.809,-1.34 3.43,-2.929 5.219,-4.302c1.426,-1.09 3.007,-1.945 4.632,-2.693l3.781,-0.818c1.265,-0.573 2.49,-1.808 3.5,-2.909c0.746,-0.813 1.18,-1.345 -0.384,-1.05c-2.628,0.491 -5.323,0.67 -7.711,1.025c-1.558,0.231 -3.075,0.712 -4.562,1.056l-4.547,0.436c-0.861,-0.185 -1.156,-0.818 -2.467,-1.181c-0.508,-0.139 -1.383,-0.251 -1.999,-0.172c-0.91,0.123 -2.773,1.365 -2.254,0.154c0.363,-0.841 1.518,-2.304 2.032,-3.025c1.918,-2.718 3.986,-5.327 5.687,-8.195c1.705,-2.874 3.387,-5.764 5.054,-8.662c1.505,-2.615 3.218,-5.105 4.649,-7.767c0.657,-1.215 2.034,-4.297 3.154,-4.931c0.646,-0.367 2.081,-0.166 3.188,1.453c2.479,3.622 4.748,8.318 7.202,12.475c2.629,4.457 5.443,8.363 9.358,11.029c4.236,2.891 13.501,6.145 18.468,4.092c2.426,-0.997 4.985,-2.43 6.189,-4.306c0.435,-0.677 0.478,-2.149 0.234,-3.195c-0.888,-3.887 -4.776,-7.094 -6.935,-9.514c-0.088,-0.098 -0.946,-1.026 -0.829,-1.352c0.163,-0.46 3.025,-0.567 3.449,-0.625c1.566,-0.23 3.604,-0.395 4.493,-1.643c2.423,-3.412 -0.241,-8.395 -2.717,-11.955c-2.346,-3.38 -6.151,-5.309 -9.34,-6.416c-1.878,-0.648 -3.378,-1.095 -5.366,-1.331c-3.497,-0.413 -8.036,0.385 -12.37,2.748c-2.156,1.173 -4.04,3.001 -6.211,3.599c-0.566,0.151 -1.431,0.036 -2.207,-0.18c-0.297,-0.083 -1.873,-0.495 -1.732,-1.12c0.15,-0.673 2.443,-0.644 2.917,-0.682c2.089,-0.166 5.494,-1.714 3.777,-4.277c-1.151,-1.727 -2.961,-0.027 -4.157,1.278c-0.881,0.954 -1.877,2.368 -3.409,2.455c-0.289,0.016 -0.966,-0.111 -1.176,-0.361c-0.478,-0.558 -0.286,-1.488 -0.601,-2.386l-0.25,-1.476c0.243,-0.345 0.477,-0.682 0.701,-1c1.574,-2.228 2.698,-4.426 5.063,-5.902c2.138,-1.337 4.778,-2.068 6.862,-3.299c3.112,-1.831 6.069,-3.964 8.707,-6.45c0.266,-0.249 0.493,-0.524 0.742,-0.787l-19.439,6.736c-0.052,3.569 -0.735,6.85 -3.119,9.553c-0.249,0.281 -0.663,0.287 -1,0.124c-0.208,-0.103 -0.433,-0.159 -0.665,-0.176c-0.395,-0.027 -0.803,-0.194 -0.943,-0.572c-0.186,-0.51 -0.369,-0.987 -0.488,-1.398c-0.481,-1.715 -0.506,-3.468 -0.42,-5.231l-16.001,5.545c0.294,1.04 0.672,2.061 1.249,2.923c2.611,3.898 6.153,2.476 8.931,-0.216c1.113,-1.079 2.823,-2.881 3.954,-2.436c0.527,0.208 1.105,1.017 1.495,1.656c0.201,0.324 0.061,0.728 -0.077,1.08c-0.572,1.481 1.235,3.524 1.432,4.986c0.127,0.969 0.018,2.1 -0.222,3.042c-0.8,3.168 -2.62,5.898 -4.098,8.757c-2.307,4.467 -4.393,8.628 -6.999,13.017c-2.48,4.174 -5.35,8.352 -8.464,12.485c-0.952,1.266 -2.226,3.229 -3.56,3.868c-0.733,0.351 -2.395,0.419 -3.565,0.374c-0.411,-0.021 -0.786,-0.052 -1.167,-0.081l0.969,2.892c0.795,0.139 1.567,0.298 2.25,0.521c1.173,0.386 2.451,1.115 3.594,1.87c0.771,0.512 1.543,1.039 2.311,1.577c0.202,0.144 0.263,0.41 0.195,0.652c-0.284,0.993 -0.378,2.034 0.215,2.754c0.659,0.796 1.9,0.41 3.086,-0.255c0.312,-0.172 0.693,-0.161 0.984,0.045c1.119,0.8 2.248,1.597 3.392,2.368c3.717,2.503 7.681,5.002 11.658,7.825c0.31,0.22 0.414,0.627 0.323,1.003c-0.116,0.484 -0.196,0.971 -0.236,1.46c-0.02,0.25 -0.181,0.496 -0.43,0.491c-0.41,-0.003 -0.815,-0.026 -1.05,0.022c-2.159,0.439 -4.353,2.133 -5.724,3.567c-2.231,2.336 -4.103,4.698 -4.183,7.764l0.214,3.289c-0.096,0.401 -1.17,1.769 -1.35,1.878c-0.276,0.169 -0.608,-0.01 -0.76,-0.297c-0.664,-1.263 -1.507,-2.384 -2.637,-3.257c-0.274,-0.214 -0.575,-0.342 -0.866,-0.49l20.102,59.988l3.746,3.729Z" style="fill:#f5aa76;fill-rule:nonzero;"/><path d="M383.358,416.736c0.296,-0.257 0.905,-0.436 2.129,0.168c0.305,0.151 0.638,0.346 0.987,0.579c0.246,0.163 0.492,0.368 0.732,0.609c0.192,0.191 0.384,0.41 0.571,0.65c0.488,0.622 0.975,1.425 1.449,2.387c0.38,0.772 0.755,1.646 1.145,2.673c0.219,0.575 0.442,1.197 0.682,1.903c0.208,0.606 0.349,1.334 0.42,2.162c0.039,0.452 0.057,0.941 0.055,1.451c0,0.058 -0.001,0.119 -0.002,0.181c-0.003,0.231 -0.01,0.469 -0.022,0.709c-0.014,0.289 -0.034,0.588 -0.059,0.89c-0.049,0.578 -0.12,1.181 -0.21,1.793c-0.071,0.477 -0.153,0.963 -0.246,1.445c-0.121,0.623 -0.259,1.243 -0.411,1.843c-0.001,0.006 -0.003,0.012 -0.005,0.018c0.036,-0.036 0.071,-0.071 0.107,-0.106c0.249,-0.237 0.513,-0.439 0.762,-0.585c0.075,-0.044 0.149,-0.083 0.22,-0.116c0.003,-0.045 0.008,-0.091 0.017,-0.136c0.019,-0.095 0.052,-0.188 0.099,-0.278c0.051,-0.101 0.119,-0.195 0.2,-0.279c0.066,-0.07 0.14,-0.13 0.219,-0.18c0.085,-0.054 0.174,-0.096 0.267,-0.123c0.026,-0.007 0.051,-0.013 0.076,-0.018c0.004,-0.051 0.015,-0.1 0.036,-0.149c0.024,-0.059 0.06,-0.113 0.104,-0.16c0.035,-0.036 0.073,-0.065 0.114,-0.09c0.065,-0.037 0.136,-0.058 0.206,-0.061c0.039,-0.002 0.077,0.002 0.114,0.012c0.024,0.007 0.047,0.017 0.07,0.028c0.156,-0.721 0.598,-2.76 1.358,-6.346l0.034,0.007c-0.764,3.605 -1.206,5.646 -1.361,6.358c0.034,0.022 0.064,0.051 0.088,0.084c0.043,0.063 0.065,0.14 0.063,0.223c0,0.008 -0.001,0.016 -0.002,0.024c0.009,-0.001 0.019,-0.003 0.028,-0.003c0.081,-0.004 0.157,0.017 0.219,0.06c0.016,0.011 0.031,0.024 0.044,0.037c0.05,0.05 0.084,0.118 0.097,0.191c0.336,-0.127 0.975,-0.347 1.816,-0.539c1.168,-0.268 2.978,-0.535 4.963,-0.295l-0.004,0.035c-1.98,-0.24 -3.785,0.027 -4.95,0.294c-0.847,0.194 -1.487,0.415 -1.82,0.541c0.001,0.014 0.002,0.028 0.002,0.042c-0.002,0.072 -0.022,0.145 -0.057,0.212c-0.023,0.043 -0.051,0.082 -0.085,0.118c-0.069,0.072 -0.156,0.121 -0.247,0.141c-0.005,0.046 -0.013,0.091 -0.025,0.136c-0.025,0.095 -0.063,0.188 -0.114,0.276c-0.048,0.082 -0.105,0.158 -0.172,0.227c-0.081,0.085 -0.171,0.156 -0.269,0.211c-0.039,0.022 -0.079,0.041 -0.119,0.057c-0.03,0.141 -0.08,0.293 -0.151,0.455c-0.117,0.268 -0.287,0.555 -0.494,0.832c-0.067,0.091 -0.14,0.181 -0.215,0.269c0.049,-0.015 0.098,-0.029 0.146,-0.043c0.585,-0.168 1.188,-0.322 1.795,-0.458c0.47,-0.106 0.944,-0.2 1.408,-0.282c0.596,-0.106 1.185,-0.19 1.749,-0.252c0.295,-0.032 0.587,-0.059 0.869,-0.079c0.235,-0.017 0.469,-0.029 0.694,-0.038c0.059,-0.002 0.118,-0.004 0.177,-0.005c0.499,-0.014 0.977,-0.005 1.42,0.025c0.811,0.056 1.526,0.185 2.124,0.384c0.695,0.231 1.308,0.446 1.875,0.658c1.013,0.377 1.876,0.742 2.639,1.115c0.95,0.464 1.746,0.945 2.364,1.429c0.239,0.188 0.458,0.38 0.649,0.571c0.24,0.241 0.446,0.488 0.611,0.735c0.235,0.353 0.432,0.688 0.586,0.997c0.617,1.238 0.455,1.864 0.21,2.171c-0.072,0.091 -0.162,0.167 -0.268,0.227c-0.208,0.119 -0.395,0.196 -0.553,0.229c-0.204,0.041 -0.294,-0.004 -0.309,-0.012c-0.116,0.052 -0.232,0.096 -0.345,0.132c-0.449,0.142 -0.793,0.133 -1.002,0.1c-0.204,-0.032 -0.321,-0.092 -0.339,-0.102c-0.012,0.008 -0.074,0.045 -0.161,0.091c-0.177,0.093 -0.506,0.243 -0.727,0.212c-0.101,-0.014 -0.242,-0.057 -0.393,-0.102c-0.303,-0.091 -0.647,-0.195 -0.851,-0.135c-0.029,0.008 -0.054,0.019 -0.075,0.033c-0.073,0.048 -0.157,0.118 -0.255,0.2c-0.263,0.217 -0.589,0.488 -0.882,0.497c-0.036,0.001 -0.073,0.002 -0.112,0.003l-0.007,0c-0.393,0.009 -0.881,0.02 -1.106,0.299c-0.015,0.02 -0.031,0.039 -0.047,0.06c-0.131,0.165 -0.31,0.39 -0.521,0.578c-0.237,0.21 -0.459,0.328 -0.68,0.361c-0.552,0.082 -0.861,0.344 -1.239,0.706c-0.098,0.095 -0.22,0.175 -0.396,0.261c-0.208,0.103 -0.473,0.198 -0.744,0.269c-0.297,0.077 -0.577,0.117 -0.752,0.108c-0.01,0 -0.019,-0.001 -0.028,-0.002c-0.426,-0.038 -1.12,-0.499 -1.855,-1.233l-0.013,-0.013c-0.153,-0.153 -0.311,-0.32 -0.468,-0.497c-0.314,-0.353 -0.643,-0.73 -0.979,-1.126c0.144,0.312 0.262,0.621 0.359,0.942c0.081,0.264 0.147,0.534 0.203,0.825c0.016,0.085 0.033,0.173 0.047,0.262c0.045,0.275 0.082,0.562 0.111,0.879c0.007,0.077 0.014,0.158 0.02,0.24c0.041,0.525 -0.197,0.879 -0.389,1.163l-0.004,0.005c-0.101,0.15 -0.196,0.291 -0.233,0.434c-0.04,0.158 -0.083,0.274 -0.134,0.365c-0.049,0.086 -0.107,0.154 -0.179,0.208c-0.097,0.072 -0.221,0.121 -0.38,0.15c-0.28,0.051 -0.394,0.161 -0.548,0.336c-0.014,0.016 -0.029,0.033 -0.044,0.05c-0.079,0.091 -0.17,0.195 -0.297,0.316c-0.416,0.396 -0.599,0.516 -0.863,0.442c-0.144,-0.041 -0.268,-0.015 -0.402,0.082c-0.154,0.112 -0.324,0.327 -0.52,0.657c-0.162,0.273 -0.276,0.451 -0.376,0.554c-0.152,0.155 -0.276,0.142 -0.521,0.076c-0.283,-0.075 -0.429,0.098 -0.558,0.251c-0.055,0.067 -0.108,0.128 -0.168,0.169c-0.012,0.008 -0.025,0.018 -0.04,0.031c-0.058,0.048 -0.132,0.123 -0.217,0.21c-0.144,0.146 -0.321,0.328 -0.482,0.434c-0.116,0.076 -0.209,0.105 -0.284,0.086c-0.051,-0.012 -0.105,-0.04 -0.17,-0.087c-0.044,-0.032 -0.089,-0.07 -0.136,-0.109c-0.155,-0.131 -0.33,-0.279 -0.568,-0.293c-0.079,-0.005 -0.162,0.006 -0.247,0.032c-0.094,0.029 -0.179,0.058 -0.261,0.086c-0.38,0.13 -0.631,0.215 -0.884,-0.038c-0.012,-0.011 -0.023,-0.023 -0.034,-0.037c-0.026,-0.029 -0.054,-0.058 -0.081,-0.085c-0.144,-0.145 -0.3,-0.258 -0.476,-0.347c-0.146,-0.074 -0.308,-0.131 -0.492,-0.173c-0.182,-0.043 -0.307,-0.105 -0.405,-0.204c-0.036,-0.035 -0.068,-0.075 -0.098,-0.122c-0.095,-0.147 -0.151,-0.325 -0.196,-0.468c-0.078,-0.247 -0.198,-0.591 -0.337,-0.97c-0.09,-0.247 -0.182,-0.488 -0.259,-0.681c-0.015,-0.04 -0.032,-0.082 -0.049,-0.124c-0.063,-0.159 -0.136,-0.337 -0.194,-0.522c-0.097,-0.312 -0.133,-0.569 -0.106,-0.788c0.005,-0.042 0.012,-0.083 0.022,-0.122c0.028,-0.116 0.082,-0.367 0.156,-0.728l0.024,-0.113c0.026,-0.13 0.055,-0.269 0.084,-0.415c0.067,-0.334 0.138,-0.693 0.205,-1.038c0.097,-0.501 0.274,-1.419 0.356,-1.933c0.012,-0.074 0.022,-0.137 0.028,-0.188c0.037,-0.267 0.107,-0.614 0.198,-0.977c0.122,-0.483 0.39,-1.417 0.829,-2.299c-0.19,0.164 -0.358,0.323 -0.509,0.495c-0.142,0.161 -0.261,0.326 -0.366,0.505c-0.141,0.241 -0.343,0.468 -0.552,0.621c-0.132,0.097 -0.26,0.159 -0.379,0.187c-0.043,0.01 -0.085,0.015 -0.126,0.015c-0.11,0.001 -0.205,-0.037 -0.282,-0.111c-0.002,-0.002 -0.004,-0.004 -0.006,-0.006c-0.025,-0.025 -0.049,-0.055 -0.073,-0.091c-0.043,-0.064 -0.074,-0.134 -0.093,-0.208c-0.019,-0.076 -0.026,-0.158 -0.019,-0.242c0.012,-0.135 0.057,-0.276 0.136,-0.42c0.143,-0.26 0.384,-0.515 0.717,-0.757c0.199,-0.145 0.405,-0.295 0.608,-0.448c0.334,-0.255 0.705,-0.554 1.083,-0.93c-0.111,0.081 -0.22,0.159 -0.327,0.233c-0.171,0.118 -0.36,0.234 -0.561,0.345c-0.865,0.48 -1.794,0.78 -2.271,0.917c-0.353,0.101 -0.691,0.18 -0.952,0.222c-0.05,0.009 -0.111,0.02 -0.184,0.034c-0.37,0.07 -1.039,0.214 -1.882,0.404c-0.336,0.076 -0.686,0.156 -1.011,0.231c-0.142,0.033 -0.278,0.065 -0.404,0.095l-0.111,0.027c-0.346,0.082 -0.598,0.144 -0.708,0.174c-0.038,0.011 -0.078,0.019 -0.119,0.025c-0.214,0.032 -0.467,0.002 -0.773,-0.092c-0.182,-0.056 -0.359,-0.126 -0.514,-0.187c-0.043,-0.017 -0.084,-0.033 -0.123,-0.048c-0.188,-0.073 -0.433,-0.165 -0.672,-0.25c-0.374,-0.135 -0.713,-0.249 -0.956,-0.324c-0.141,-0.043 -0.316,-0.096 -0.462,-0.191c-0.046,-0.029 -0.086,-0.062 -0.121,-0.097c-0.099,-0.098 -0.162,-0.225 -0.207,-0.41c-0.046,-0.188 -0.105,-0.351 -0.181,-0.499c-0.09,-0.178 -0.204,-0.334 -0.348,-0.479c-0.028,-0.028 -0.057,-0.055 -0.086,-0.081c-0.013,-0.011 -0.025,-0.023 -0.036,-0.034c-0.253,-0.253 -0.175,-0.512 -0.057,-0.903c0.026,-0.084 0.053,-0.172 0.079,-0.268c0.024,-0.087 0.033,-0.172 0.027,-0.254c-0.019,-0.242 -0.168,-0.418 -0.298,-0.574c-0.04,-0.047 -0.078,-0.092 -0.11,-0.136c-0.048,-0.065 -0.076,-0.12 -0.089,-0.172c-0.019,-0.076 0.006,-0.172 0.078,-0.292c0.1,-0.166 0.275,-0.352 0.415,-0.502c0.084,-0.089 0.155,-0.166 0.201,-0.225c0.012,-0.016 0.022,-0.03 0.03,-0.042c0.037,-0.062 0.097,-0.117 0.161,-0.176c0.147,-0.135 0.313,-0.288 0.234,-0.575c-0.07,-0.249 -0.085,-0.375 0.063,-0.534c0.099,-0.105 0.27,-0.224 0.535,-0.396c0.318,-0.207 0.524,-0.385 0.631,-0.545c0.093,-0.139 0.115,-0.267 0.072,-0.414c-0.078,-0.268 0.035,-0.457 0.414,-0.889c0.116,-0.133 0.215,-0.228 0.303,-0.311c0.016,-0.016 0.033,-0.031 0.048,-0.046c0.168,-0.161 0.273,-0.279 0.317,-0.567c0.025,-0.163 0.071,-0.291 0.139,-0.391c0.051,-0.074 0.116,-0.136 0.2,-0.187c0.088,-0.055 0.201,-0.101 0.354,-0.146c0.139,-0.041 0.276,-0.14 0.419,-0.247l0.006,-0.003c0.273,-0.202 0.614,-0.454 1.129,-0.423c0.08,0.005 0.158,0.01 0.235,0.016c0.31,0.023 0.593,0.054 0.863,0.095c0.087,0.013 0.173,0.028 0.256,0.042c0.286,0.052 0.552,0.114 0.812,0.191c0.315,0.093 0.621,0.206 0.928,0.347c-0.394,-0.335 -0.77,-0.663 -1.121,-0.977c-0.176,-0.157 -0.343,-0.314 -0.497,-0.468l-0.012,-0.012c-0.734,-0.737 -1.199,-1.436 -1.245,-1.87c-0.001,-0.01 -0.002,-0.019 -0.003,-0.029c-0.013,-0.178 0.021,-0.467 0.091,-0.771c0.063,-0.278 0.151,-0.55 0.247,-0.766c0.08,-0.181 0.156,-0.307 0.247,-0.41c0.346,-0.393 0.596,-0.715 0.665,-1.281c0.027,-0.226 0.138,-0.456 0.339,-0.702c0.18,-0.22 0.396,-0.408 0.554,-0.545c0.02,-0.017 0.039,-0.033 0.057,-0.05c0.269,-0.234 0.269,-0.734 0.27,-1.135l0,-0.009c0,-0.039 0,-0.077 0.001,-0.113c0.003,-0.3 0.261,-0.639 0.468,-0.912c0.077,-0.102 0.144,-0.19 0.189,-0.264c0.014,-0.022 0.024,-0.048 0.032,-0.078c0.053,-0.21 -0.055,-0.559 -0.151,-0.867c-0.047,-0.153 -0.091,-0.296 -0.107,-0.399c-0.036,-0.225 0.105,-0.565 0.191,-0.747c0.043,-0.09 0.079,-0.154 0.086,-0.167c-0.01,-0.018 -0.071,-0.136 -0.107,-0.345c-0.036,-0.213 -0.053,-0.563 0.078,-1.025c0.032,-0.117 0.073,-0.236 0.121,-0.355c-0.009,-0.016 -0.054,-0.106 -0.017,-0.316c0.028,-0.162 0.099,-0.355 0.211,-0.57c0.057,-0.109 0.13,-0.203 0.216,-0.278" style="fill:#f5aa76;fill-rule:nonzero;"/><path d="M440.549,269.604c0.317,0.307 0.99,0.545 2.397,-0.066c0.352,-0.153 0.735,-0.353 1.14,-0.595c0.285,-0.171 0.572,-0.388 0.855,-0.645c0.226,-0.205 0.454,-0.441 0.678,-0.701c0.581,-0.674 1.172,-1.552 1.758,-2.61c0.47,-0.848 0.939,-1.814 1.434,-2.951c0.278,-0.636 0.563,-1.326 0.872,-2.108c0.267,-0.673 0.465,-1.486 0.592,-2.416c0.068,-0.509 0.116,-1.058 0.142,-1.635c0.003,-0.066 0.005,-0.135 0.008,-0.204c0.009,-0.261 0.014,-0.531 0.014,-0.803c0.001,-0.326 -0.005,-0.665 -0.016,-1.008c-0.023,-0.655 -0.069,-1.341 -0.136,-2.037c-0.052,-0.542 -0.118,-1.095 -0.196,-1.645c-0.1,-0.71 -0.221,-1.418 -0.358,-2.105c-0.001,-0.007 -0.003,-0.013 -0.004,-0.02c0.038,0.042 0.076,0.084 0.114,0.125c0.267,0.283 0.55,0.527 0.822,0.706c0.082,0.053 0.163,0.101 0.241,0.143c0,0.051 0.004,0.103 0.011,0.156c0.017,0.107 0.049,0.214 0.095,0.318c0.053,0.118 0.123,0.227 0.209,0.327c0.071,0.083 0.15,0.155 0.236,0.217c0.092,0.066 0.191,0.118 0.293,0.154c0.028,0.01 0.056,0.018 0.085,0.025c0.001,0.057 0.011,0.114 0.031,0.17c0.024,0.068 0.061,0.131 0.109,0.187c0.036,0.042 0.077,0.078 0.122,0.107c0.071,0.047 0.149,0.075 0.228,0.083c0.043,0.004 0.086,0.001 0.128,-0.008c0.028,-0.006 0.054,-0.016 0.08,-0.027c0.136,0.823 0.518,3.151 1.171,7.244l0.038,-0.006c-0.656,-4.115 -1.039,-6.445 -1.173,-7.257c0.04,-0.024 0.075,-0.055 0.103,-0.092c0.052,-0.068 0.082,-0.154 0.084,-0.247c0.001,-0.009 -0.001,-0.018 -0.001,-0.027c0.01,0.002 0.021,0.005 0.031,0.006c0.091,0.008 0.177,-0.011 0.249,-0.056c0.019,-0.011 0.036,-0.025 0.052,-0.039c0.059,-0.054 0.1,-0.128 0.119,-0.209c0.37,0.162 1.074,0.448 2.008,0.714c1.296,0.371 3.311,0.779 5.552,0.623l-0.003,-0.039c-2.235,0.155 -4.245,-0.253 -5.537,-0.622c-0.94,-0.268 -1.646,-0.555 -2.013,-0.717c0.002,-0.016 0.005,-0.032 0.005,-0.048c0.002,-0.081 -0.016,-0.165 -0.052,-0.242c-0.023,-0.05 -0.053,-0.096 -0.089,-0.138c-0.073,-0.086 -0.168,-0.146 -0.269,-0.175c-0.003,-0.051 -0.009,-0.103 -0.02,-0.154c-0.023,-0.109 -0.061,-0.216 -0.113,-0.318c-0.049,-0.095 -0.109,-0.185 -0.18,-0.267c-0.086,-0.1 -0.184,-0.186 -0.29,-0.254c-0.043,-0.027 -0.086,-0.05 -0.131,-0.072c-0.026,-0.16 -0.073,-0.334 -0.144,-0.522c-0.116,-0.309 -0.291,-0.644 -0.508,-0.968c-0.07,-0.107 -0.146,-0.212 -0.225,-0.316c0.054,0.019 0.107,0.038 0.161,0.057c0.646,0.224 1.315,0.433 1.988,0.622c0.522,0.147 1.048,0.282 1.564,0.401c0.664,0.154 1.32,0.284 1.949,0.387c0.329,0.054 0.655,0.101 0.971,0.141c0.262,0.032 0.523,0.06 0.776,0.083c0.066,0.005 0.132,0.011 0.198,0.016c0.56,0.044 1.096,0.062 1.595,0.054c0.913,-0.015 1.723,-0.119 2.405,-0.308c0.792,-0.221 1.492,-0.427 2.14,-0.633c1.157,-0.367 2.146,-0.728 3.023,-1.104c1.092,-0.469 2.011,-0.965 2.733,-1.475c0.278,-0.198 0.534,-0.402 0.759,-0.607c0.283,-0.257 0.528,-0.525 0.727,-0.795c0.283,-0.383 0.523,-0.75 0.713,-1.09c0.761,-1.362 0.614,-2.078 0.357,-2.439c-0.076,-0.107 -0.173,-0.198 -0.288,-0.272c-0.228,-0.147 -0.432,-0.244 -0.609,-0.29c-0.226,-0.059 -0.329,-0.014 -0.347,-0.005c-0.127,-0.066 -0.254,-0.122 -0.379,-0.169c-0.496,-0.187 -0.882,-0.198 -1.119,-0.172c-0.23,0.024 -0.365,0.085 -0.386,0.094c-0.013,-0.009 -0.081,-0.055 -0.176,-0.112c-0.193,-0.114 -0.554,-0.303 -0.803,-0.281c-0.115,0.01 -0.276,0.05 -0.447,0.092c-0.345,0.085 -0.737,0.181 -0.963,0.103c-0.031,-0.011 -0.059,-0.025 -0.082,-0.043c-0.079,-0.058 -0.169,-0.142 -0.275,-0.239c-0.282,-0.261 -0.634,-0.586 -0.962,-0.613c-0.04,-0.004 -0.082,-0.007 -0.125,-0.01l-0.008,-0.001c-0.44,-0.033 -0.988,-0.074 -1.224,-0.403c-0.016,-0.023 -0.033,-0.046 -0.05,-0.071c-0.138,-0.193 -0.326,-0.457 -0.553,-0.682c-0.253,-0.251 -0.496,-0.398 -0.742,-0.447c-0.614,-0.125 -0.947,-0.44 -1.351,-0.871c-0.105,-0.111 -0.237,-0.21 -0.429,-0.317c-0.229,-0.128 -0.52,-0.251 -0.82,-0.347c-0.329,-0.105 -0.642,-0.167 -0.838,-0.166c-0.011,0 -0.022,0 -0.032,0c-0.48,0.018 -1.284,0.498 -2.15,1.284l-0.015,0.013c-0.181,0.164 -0.367,0.344 -0.553,0.535c-0.372,0.379 -0.762,0.785 -1.161,1.212c0.179,-0.342 0.328,-0.685 0.455,-1.041c0.105,-0.294 0.195,-0.595 0.274,-0.92c0.023,-0.094 0.046,-0.193 0.067,-0.292c0.067,-0.308 0.123,-0.631 0.174,-0.987c0.012,-0.087 0.024,-0.177 0.036,-0.269c0.075,-0.591 -0.173,-1.004 -0.372,-1.336l-0.004,-0.006c-0.105,-0.175 -0.204,-0.339 -0.237,-0.504c-0.036,-0.18 -0.078,-0.313 -0.131,-0.419c-0.05,-0.101 -0.111,-0.181 -0.189,-0.246c-0.104,-0.087 -0.241,-0.15 -0.418,-0.192c-0.311,-0.074 -0.433,-0.205 -0.596,-0.411c-0.015,-0.019 -0.03,-0.039 -0.046,-0.058c-0.084,-0.109 -0.18,-0.232 -0.316,-0.376c-0.444,-0.471 -0.643,-0.616 -0.943,-0.549c-0.165,0.038 -0.303,0.002 -0.448,-0.116c-0.166,-0.136 -0.345,-0.388 -0.546,-0.772c-0.167,-0.318 -0.285,-0.526 -0.392,-0.647c-0.162,-0.184 -0.301,-0.177 -0.58,-0.117c-0.321,0.068 -0.475,-0.136 -0.611,-0.316c-0.059,-0.079 -0.115,-0.152 -0.18,-0.2c-0.013,-0.01 -0.027,-0.022 -0.044,-0.038c-0.061,-0.057 -0.14,-0.146 -0.23,-0.25c-0.154,-0.174 -0.343,-0.389 -0.518,-0.518c-0.126,-0.093 -0.228,-0.131 -0.313,-0.114c-0.058,0.011 -0.12,0.04 -0.196,0.089c-0.051,0.034 -0.103,0.073 -0.158,0.115c-0.181,0.139 -0.387,0.295 -0.654,0.297c-0.089,0 -0.182,-0.017 -0.276,-0.051c-0.104,-0.038 -0.197,-0.075 -0.287,-0.112c-0.419,-0.168 -0.697,-0.28 -0.995,-0.009c-0.013,0.013 -0.026,0.026 -0.04,0.039c-0.031,0.032 -0.063,0.063 -0.095,0.092c-0.171,0.155 -0.351,0.274 -0.553,0.364c-0.169,0.074 -0.353,0.129 -0.563,0.167c-0.206,0.037 -0.35,0.1 -0.466,0.206c-0.041,0.038 -0.08,0.08 -0.115,0.131c-0.116,0.161 -0.189,0.359 -0.247,0.517c-0.101,0.274 -0.255,0.657 -0.432,1.076c-0.115,0.273 -0.232,0.541 -0.328,0.755c-0.02,0.044 -0.041,0.089 -0.062,0.137c-0.081,0.174 -0.172,0.372 -0.247,0.578c-0.127,0.345 -0.181,0.634 -0.164,0.883c0.004,0.048 0.01,0.094 0.018,0.139c0.025,0.132 0.072,0.419 0.135,0.831l0.02,0.129c0.022,0.148 0.047,0.307 0.071,0.473c0.057,0.381 0.117,0.791 0.172,1.184c0.082,0.571 0.229,1.618 0.292,2.202c0.01,0.085 0.017,0.157 0.022,0.215c0.026,0.304 0.086,0.7 0.168,1.115c0.109,0.552 0.358,1.622 0.801,2.644c-0.204,-0.197 -0.383,-0.386 -0.543,-0.589c-0.15,-0.19 -0.275,-0.383 -0.382,-0.591c-0.146,-0.281 -0.359,-0.549 -0.586,-0.734c-0.143,-0.117 -0.282,-0.195 -0.415,-0.233c-0.047,-0.014 -0.094,-0.022 -0.14,-0.025c-0.124,-0.007 -0.233,0.03 -0.323,0.109c-0.002,0.002 -0.004,0.005 -0.007,0.007c-0.029,0.026 -0.058,0.059 -0.087,0.098c-0.051,0.07 -0.09,0.147 -0.115,0.229c-0.027,0.086 -0.038,0.177 -0.035,0.272c0.005,0.153 0.049,0.315 0.129,0.483c0.146,0.301 0.402,0.603 0.762,0.896c0.215,0.175 0.439,0.357 0.657,0.542c0.361,0.307 0.761,0.666 1.163,1.114c-0.119,-0.099 -0.237,-0.193 -0.353,-0.283c-0.186,-0.143 -0.391,-0.285 -0.61,-0.423c-0.945,-0.592 -1.97,-0.986 -2.498,-1.168c-0.39,-0.134 -0.765,-0.244 -1.055,-0.307c-0.055,-0.012 -0.124,-0.028 -0.205,-0.048c-0.412,-0.101 -1.154,-0.303 -2.09,-0.567c-0.372,-0.105 -0.76,-0.216 -1.121,-0.32c-0.157,-0.046 -0.308,-0.09 -0.448,-0.131l-0.122,-0.036c-0.384,-0.113 -0.663,-0.198 -0.786,-0.239c-0.042,-0.014 -0.086,-0.026 -0.132,-0.036c-0.237,-0.047 -0.523,-0.028 -0.872,0.06c-0.207,0.052 -0.41,0.121 -0.588,0.181c-0.048,0.016 -0.095,0.032 -0.139,0.047c-0.216,0.071 -0.496,0.16 -0.768,0.243c-0.427,0.129 -0.815,0.239 -1.091,0.309c-0.161,0.04 -0.36,0.091 -0.53,0.189c-0.053,0.03 -0.099,0.064 -0.141,0.102c-0.116,0.105 -0.194,0.244 -0.255,0.451c-0.062,0.209 -0.138,0.39 -0.23,0.553c-0.112,0.196 -0.248,0.365 -0.418,0.52c-0.032,0.03 -0.067,0.059 -0.101,0.087c-0.015,0.012 -0.029,0.024 -0.042,0.036c-0.299,0.271 -0.225,0.567 -0.114,1.016c0.024,0.097 0.049,0.196 0.073,0.307c0.022,0.1 0.027,0.197 0.016,0.288c-0.035,0.272 -0.21,0.463 -0.366,0.631c-0.048,0.05 -0.092,0.099 -0.131,0.147c-0.057,0.071 -0.092,0.131 -0.11,0.189c-0.025,0.085 -0.002,0.194 0.072,0.334c0.104,0.195 0.288,0.414 0.438,0.591c0.088,0.106 0.165,0.197 0.213,0.267c0.012,0.018 0.022,0.034 0.03,0.049c0.039,0.072 0.103,0.138 0.171,0.207c0.158,0.162 0.336,0.344 0.231,0.663c-0.092,0.278 -0.116,0.419 0.041,0.606c0.105,0.125 0.291,0.271 0.578,0.479c0.345,0.253 0.567,0.466 0.678,0.653c0.096,0.162 0.114,0.307 0.057,0.471c-0.101,0.298 0.014,0.518 0.416,1.029c0.122,0.156 0.229,0.269 0.322,0.368c0.018,0.019 0.035,0.037 0.051,0.055c0.18,0.191 0.292,0.331 0.325,0.658c0.019,0.186 0.063,0.334 0.134,0.45c0.053,0.087 0.123,0.16 0.213,0.223c0.097,0.067 0.22,0.127 0.39,0.185c0.154,0.055 0.301,0.175 0.457,0.303l0.005,0.005c0.296,0.244 0.665,0.548 1.244,0.543c0.089,0 0.178,-0.002 0.264,-0.004c0.35,-0.008 0.669,-0.027 0.973,-0.057c0.099,-0.009 0.197,-0.02 0.291,-0.032c0.324,-0.042 0.625,-0.097 0.921,-0.168c0.359,-0.086 0.708,-0.196 1.061,-0.337c-0.461,0.355 -0.901,0.703 -1.312,1.036c-0.207,0.168 -0.403,0.336 -0.583,0.5l-0.015,0.014c-0.864,0.788 -1.425,1.55 -1.501,2.038c-0.002,0.01 -0.003,0.021 -0.005,0.032c-0.024,0.2 -0.002,0.528 0.059,0.876c0.055,0.318 0.138,0.63 0.234,0.879c0.081,0.209 0.159,0.356 0.254,0.477c0.367,0.465 0.63,0.843 0.675,1.485c0.018,0.258 0.13,0.523 0.341,0.813c0.19,0.258 0.422,0.483 0.592,0.647c0.021,0.021 0.041,0.041 0.061,0.06c0.288,0.281 0.262,0.845 0.24,1.298l-0.001,0.01c-0.002,0.043 -0.004,0.087 -0.005,0.127c-0.014,0.339 0.257,0.738 0.474,1.058c0.081,0.119 0.151,0.222 0.198,0.309c0.014,0.025 0.024,0.055 0.031,0.089c0.048,0.24 -0.093,0.628 -0.217,0.97c-0.061,0.17 -0.119,0.33 -0.143,0.445c-0.053,0.252 0.086,0.643 0.173,0.855c0.043,0.104 0.08,0.178 0.087,0.193c-0.012,0.02 -0.087,0.15 -0.139,0.382c-0.052,0.239 -0.091,0.635 0.03,1.163c0.03,0.134 0.069,0.27 0.117,0.408c-0.012,0.017 -0.068,0.116 -0.038,0.355c0.023,0.185 0.092,0.406 0.205,0.657c0.058,0.126 0.134,0.236 0.228,0.327" style="fill:#f5aa76;fill-rule:nonzero;"/><path d="M158.448,359.433c2.484,-2.364 1.673,-7.071 0.969,-9.811c-0.884,-3.454 -2.179,-7.004 -4.111,-10.333c-2.101,-3.614 -5.605,-6.893 -8.313,-8.835c-2.898,-2.082 -6.272,-3.757 -9.873,-4.193c-1.065,-0.13 -3.895,0.161 -7.056,0.336l21.296,34.564c1.894,-0.095 5.092,0.168 7.088,-1.728Z" style="fill:#f5aa76;fill-rule:nonzero;"/><path d="M147.818,315.533c2.263,-1.948 3.746,-4.237 4.629,-6.476c0.905,-2.294 1.422,-4.344 1.547,-6.834c0.508,-10.25 -11.556,-11.451 -18.451,-8.416c-1.982,0.873 -3.889,2.068 -5.586,3.431c-2.837,2.276 -4.125,4.979 -5.346,8.327l-2.898,7.479l4.559,7.399c2.397,0.044 4.766,-0.078 7.188,-0.24c4.952,-0.339 10.419,-1.279 14.358,-4.67Z" style="fill:#f5aa76;fill-rule:nonzero;"/><path d="M106.711,287.615c-0.481,-0.446 -0.943,-0.842 -1.417,-1.221l8.603,13.963c-0.787,-4.843 -3.108,-8.976 -7.186,-12.742Z" style="fill:#f5aa76;fill-rule:nonzero;"/></g></g><g><g><path d="M89.267,463.756c1.695,-1.043 3.601,-1.651 5.447,-2.356c11.485,-4.402 22.798,-0.162 34.595,-0.705c1.282,-0.058 2.492,-0.138 3.791,-0.341c1.702,-0.266 7.318,-1.831 1.591,2.193c-2.554,1.795 -4.089,3.133 -6.088,5.679c-2.379,3.021 -4.885,5.963 -7.978,8.248c-7.269,5.38 -16.73,6.447 -25.15,3.492c-4.258,-1.498 -8.024,-4.353 -10.808,-7.929c-0.409,-0.524 -0.797,-1.062 -1.164,-1.614c-1.518,-2.283 -4.767,-1.682 -7.131,-2.017c-0.493,-0.071 -0.957,-0.17 -1.435,-0.259l0.614,-1.278c2.739,0.571 5.397,0.764 8.305,0.086c2.088,-0.486 3.633,-2.105 5.411,-3.199Z" style="fill:#f5aa76;fill-rule:nonzero;"/><path d="M112.46,511.401c-0.011,0.873 0.024,2.222 0.42,3.302c0.092,0.248 0.079,0.664 0.475,0.685c0.452,0.028 0.741,-0.691 0.805,-0.981c0.135,-0.601 0.055,-1.7 -0.102,-2.841c-0.124,-0.911 -0.363,-2.651 -0.906,-2.789c-0.754,-0.188 -0.685,1.99 -0.692,2.624Zm3.563,3.458c0.275,1.818 1.465,3.704 2.337,5.502c0.643,1.327 1.205,2.797 2.076,4.285c0.755,1.293 2.356,3.841 3.432,5.816c0.452,0.829 0.854,1.773 1.243,1.754c0.071,-0.004 0.15,-0.05 0.23,-0.115c0.318,-0.267 0.588,-1.015 0.823,-1.394c0.611,-0.989 1.439,-2.089 1.75,-3.231c0.21,-0.783 0.301,-2.394 0.072,-3.171c-0.419,-1.437 -1.935,-2.751 -2.859,-3.861c-2.587,-3.098 -4.784,-5.575 -7.649,-8.714c-0.165,-0.173 -1.211,-1.596 -1.67,-1.343c-0.386,0.21 -0.023,1.823 0.012,2.217c0.084,0.972 0.121,1.722 0.203,2.255Zm13.411,15.956c0.66,3.123 3.105,4.89 4.835,6.874c0.997,1.144 2.024,2.275 2.792,3.596c1.375,2.358 1.11,4.935 1.135,7.553c0.004,0.695 0.737,1.077 1.285,1.304c0.396,0.162 1.084,0.465 1.519,0.307c0.456,-0.166 0.139,-0.702 0.01,-1.01c-0.651,-1.56 -1.38,-3.085 -2.022,-4.651c-0.505,-1.237 -1.157,-2.656 -1.445,-4.012c-0.298,-1.377 -0.638,-3.322 -1.153,-4.56c-0.622,-1.506 -1.681,-2.767 -2.575,-4.109c-0.793,-1.192 -1.555,-2.404 -2.4,-3.56c-0.224,-0.304 -1.245,-2.253 -1.894,-2.112c-1.023,0.215 -0.359,3.082 -0.087,4.38Zm-29.795,-37.952c3.786,3.683 7.853,7.046 11.836,10.494c0.783,0.681 1.703,1.215 2.458,1.874c2.041,1.426 4.406,2.508 6.825,3.039c1.879,0.413 3.962,-0.502 5.545,-1.447c4.945,-2.945 10.854,-3.678 16.452,-4.331c10.59,-1.237 19.91,-4.255 30.132,0.49c2.782,1.288 5.836,1.389 8.828,1.708c3.046,0.322 3.656,0.991 1.505,1.603c-4.6,1.309 -6.185,2.648 -7.032,4.684c-1.713,4.109 -4.312,6.692 -7.619,9.444c-12.409,10.33 -36.86,9.355 -44.718,-6.891c-0.571,-1.184 -0.71,-2.897 -2.437,-3.728c-0.521,-0.249 -1.092,-0.33 -1.648,-0.458c-1.134,-0.26 -2.261,-0.787 -3.339,-1.227c-0.079,-0.034 -0.159,-0.071 -0.238,-0.109c-0.071,-0.035 -0.131,0.056 -0.089,0.122c0.052,0.077 0.103,0.152 0.156,0.228c2.874,4.098 6.28,7.228 9.585,11.409c1.22,1.543 3.06,2.509 4.019,4.419c0.747,1.49 2.417,4.187 3.708,6.074c1.091,1.593 2.066,3.206 3.192,4.73c2.294,3.1 5.444,5.582 8.303,8.141c5.766,5.17 11.444,9.824 17.513,14.715c4.449,3.586 9.536,6.946 15.241,7.893c1.565,0.26 3.182,0.314 4.704,0.806c0.318,0.104 1.297,0.597 -0.238,0.44c-0.671,-0.067 -1.666,-0.01 -2.35,0.064c-1.532,0.161 -2.102,0.049 -3.126,0.204c-2.967,0.45 -5.911,1.122 -8.919,1.204c-3.407,0.095 -7.232,-1.151 -10.438,-2.265c-1.547,-0.537 -3.052,-1.227 -4.461,-2.073c-3.515,-2.103 -6.997,-5.095 -9.15,-8.667c-0.818,-1.356 -1.729,-4.368 -3.599,-3.261c-0.916,0.541 1.257,3.269 1.542,3.7c1.23,1.867 1.146,3.835 0.612,5.935c-0.998,3.921 -5.489,5.871 -8.866,7.054c-1.289,0.451 -2.589,0.872 -3.855,1.392c-0.738,0.299 -1.407,0.748 -2.053,1.213c-0.984,0.71 -1.41,0.67 -0.458,-0.554c0.247,-0.318 0.498,-0.622 0.55,-0.73c0.686,-1.375 0.475,-3.166 0.437,-4.652c-0.081,-3.326 0.595,-6.762 1.852,-9.83c0.049,-0.12 0.408,-0.85 0.723,-1.462c0.24,-0.466 0.116,-1.053 -0.337,-1.309c-0.452,-0.252 -0.897,-0.527 -1.34,-0.824c-0.607,-0.409 -1.129,-0.896 -1.59,-1.433c-0.183,-0.217 -0.459,-0.348 -0.735,-0.295c-0.995,0.196 -1.979,0.348 -2.87,0.265c-2.467,-0.236 -4.296,-1.466 -6.036,-2.9c-0.89,-0.725 -1.632,-1.76 -2.606,-2.362c-2.81,-1.713 -5.74,-3.505 -7.856,-6.608c-1.493,-2.198 -2.923,-4.828 -3.427,-7.671c-1.361,-7.643 0.533,-14.522 6.269,-19.683c0.731,-0.658 0.728,-1.745 0.997,-2.806c0.249,-0.96 1.078,-1.28 0.661,-2.42c-0.317,-0.852 -1.665,-2.091 -2.477,-2.864c-3.725,-3.544 -7.7,-6.806 -11.463,-10.304c-3.775,-3.506 -7.336,-7.243 -11.09,-10.773c-2.243,-2.106 -4.508,-4.193 -6.769,-6.283c-2.006,-1.853 -4.032,-3.747 -6.213,-5.563l0.777,-1.616c6.372,5.93 13.042,11.496 19.036,17.854c1.97,2.09 3.925,4.199 5.984,6.201Z" style="fill:#f5aa76;fill-rule:nonzero;"/></g></g></svg>