<?xml version="1.0" encoding="UTF-8" standalone="no"?>
<!DOCTYPE svg PUBLIC "-//W3C//DTD SVG 1.1//EN" "http://www.w3.org/Graphics/SVG/1.1/DTD/svg11.dtd">
<svg width="100%" height="100%" viewBox="0 0 132 286" version="1.1" xmlns="http://www.w3.org/2000/svg" xmlns:xlink="http://www.w3.org/1999/xlink" xml:space="preserve" xmlns:serif="http://www.serif.com/" style="fill-rule:evenodd;clip-rule:evenodd;stroke-linejoin:round;stroke-miterlimit:2;">
    <g transform="matrix(1,0,0,1,0.0188336,-0.104222)">
        <g transform="matrix(1,0,0,1,82.4487,-2339.27)">
            <g transform="matrix(-445.346,-334.447,-328.866,452.901,107.71,2469.32)">
                <g id="_4" serif:id="4">
                    <path d="M0.184,0.01C0.182,0.004 0.189,-0.002 0.192,-0.005C0.197,-0.009 0.203,-0.013 0.209,-0.016C0.216,-0.019 0.225,-0.02 0.231,-0.019C0.237,-0.019 0.244,-0.018 0.25,-0.015C0.251,-0.014 0.255,-0.01 0.259,-0.007L0.192,0.02C0.189,0.018 0.184,0.014 0.184,0.01Z" style="fill:rgb(226,100,13);fill-rule:nonzero;"/>
                </g>
            </g>
            <g transform="matrix(-445.319,-334.427,-328.847,452.874,124.457,2446.24)">
                <g id="_3" serif:id="3">
                    <path d="M0.245,0.009C0.244,0.004 0.244,-0.001 0.245,-0.005C0.247,-0.009 0.248,-0.013 0.25,-0.016C0.26,-0.032 0.279,-0.02 0.286,-0.009C0.288,-0.005 0.29,-0.001 0.291,0.002C0.292,0.009 0.291,0.014 0.29,0.02L0.286,0.034L0.271,0.039C0.268,0.037 0.265,0.034 0.261,0.031C0.254,0.026 0.247,0.018 0.245,0.009Z" style="fill:rgb(226,100,13);fill-rule:nonzero;"/>
                </g>
            </g>
            <g transform="matrix(-445.334,-334.438,-328.857,452.889,118.335,2454.68)">
                <g id="_2" serif:id="2">
                    <path d="M0.334,-0.005L0.338,-0.005L0.311,0.005C0.317,-0.001 0.325,-0.004 0.334,-0.005Z" style="fill:rgb(226,100,13);fill-rule:nonzero;"/>
                </g>
            </g>
            <g transform="matrix(-165.632,116.166,-114.227,-168.443,105.409,2492.76)">
                <g id="_5" serif:id="5">
                    <path d="M0.725,0.075C0.727,0.072 0.731,0.066 0.732,0.061C0.732,0.059 0.734,0.058 0.732,0.057C0.73,0.055 0.727,0.057 0.726,0.058C0.724,0.06 0.721,0.065 0.718,0.07C0.716,0.074 0.713,0.082 0.714,0.084C0.717,0.087 0.723,0.078 0.725,0.075ZM0.72,0.051C0.724,0.043 0.724,0.032 0.725,0.022C0.726,0.015 0.728,0.008 0.729,-0.001C0.729,-0.008 0.73,-0.023 0.731,-0.034C0.731,-0.038 0.732,-0.043 0.731,-0.044C0.73,-0.045 0.73,-0.045 0.729,-0.045C0.727,-0.044 0.724,-0.042 0.722,-0.041C0.717,-0.039 0.71,-0.037 0.706,-0.033C0.703,-0.031 0.698,-0.024 0.697,-0.021C0.695,-0.014 0.697,-0.004 0.698,0.003C0.7,0.023 0.702,0.039 0.705,0.06C0.705,0.061 0.705,0.069 0.708,0.07C0.71,0.07 0.713,0.062 0.714,0.061C0.717,0.057 0.718,0.054 0.72,0.051ZM0.709,-0.051C0.715,-0.065 0.71,-0.079 0.708,-0.092C0.707,-0.1 0.706,-0.107 0.707,-0.115C0.708,-0.128 0.716,-0.138 0.723,-0.148C0.725,-0.151 0.723,-0.155 0.722,-0.157C0.72,-0.159 0.718,-0.162 0.716,-0.163C0.714,-0.163 0.714,-0.16 0.713,-0.158C0.712,-0.15 0.71,-0.142 0.709,-0.134C0.707,-0.128 0.706,-0.12 0.703,-0.114C0.701,-0.107 0.697,-0.099 0.696,-0.092C0.694,-0.084 0.695,-0.076 0.695,-0.068C0.695,-0.061 0.694,-0.054 0.695,-0.047C0.695,-0.046 0.693,-0.035 0.696,-0.034C0.701,-0.031 0.706,-0.045 0.709,-0.051ZM0.726,0.186C0.72,0.16 0.713,0.135 0.706,0.11C0.705,0.105 0.703,0.101 0.701,0.096C0.697,0.084 0.69,0.073 0.682,0.064C0.675,0.057 0.664,0.055 0.655,0.054C0.627,0.052 0.601,0.039 0.576,0.025C0.529,0.001 0.483,-0.014 0.454,-0.062C0.446,-0.075 0.434,-0.084 0.423,-0.093C0.411,-0.103 0.41,-0.108 0.421,-0.104C0.443,-0.096 0.454,-0.097 0.463,-0.103C0.481,-0.115 0.499,-0.118 0.52,-0.119C0.599,-0.126 0.697,-0.053 0.684,0.034C0.683,0.041 0.679,0.048 0.683,0.056C0.685,0.059 0.687,0.061 0.689,0.063C0.693,0.067 0.696,0.072 0.699,0.077L0.701,0.077C0.7,0.052 0.695,0.03 0.693,0.004C0.692,-0.006 0.687,-0.015 0.689,-0.025C0.69,-0.034 0.691,-0.049 0.691,-0.06C0.69,-0.07 0.691,-0.079 0.691,-0.088C0.69,-0.107 0.684,-0.126 0.679,-0.145C0.67,-0.182 0.66,-0.216 0.648,-0.253C0.64,-0.28 0.629,-0.308 0.608,-0.328C0.602,-0.333 0.596,-0.338 0.591,-0.344C0.59,-0.346 0.587,-0.35 0.593,-0.346C0.596,-0.343 0.6,-0.341 0.603,-0.339C0.61,-0.335 0.612,-0.333 0.616,-0.331C0.63,-0.325 0.644,-0.319 0.656,-0.311C0.67,-0.302 0.682,-0.286 0.693,-0.272C0.697,-0.266 0.702,-0.259 0.705,-0.251C0.714,-0.233 0.72,-0.211 0.718,-0.191C0.718,-0.183 0.713,-0.168 0.724,-0.167C0.729,-0.167 0.728,-0.184 0.728,-0.187C0.728,-0.198 0.734,-0.205 0.742,-0.212C0.757,-0.225 0.781,-0.22 0.798,-0.216C0.804,-0.214 0.811,-0.212 0.817,-0.21C0.821,-0.209 0.825,-0.209 0.829,-0.209C0.835,-0.209 0.837,-0.208 0.83,-0.206C0.828,-0.205 0.826,-0.205 0.825,-0.204C0.819,-0.201 0.815,-0.193 0.811,-0.187C0.802,-0.173 0.789,-0.161 0.776,-0.153C0.775,-0.152 0.772,-0.15 0.769,-0.149C0.766,-0.148 0.765,-0.145 0.766,-0.143C0.768,-0.14 0.769,-0.138 0.77,-0.136C0.771,-0.132 0.772,-0.129 0.772,-0.125C0.772,-0.124 0.773,-0.123 0.774,-0.122C0.779,-0.12 0.783,-0.118 0.787,-0.115C0.796,-0.107 0.8,-0.097 0.804,-0.086C0.805,-0.081 0.805,-0.075 0.808,-0.069C0.814,-0.055 0.821,-0.039 0.821,-0.021C0.821,-0.008 0.82,0.007 0.814,0.02C0.799,0.054 0.772,0.077 0.734,0.081C0.729,0.082 0.726,0.086 0.722,0.09C0.718,0.093 0.714,0.092 0.713,0.098C0.712,0.102 0.714,0.111 0.715,0.116C0.72,0.141 0.727,0.165 0.733,0.19C0.739,0.215 0.743,0.24 0.749,0.265C0.752,0.279 0.755,0.294 0.759,0.309C0.762,0.322 0.765,0.335 0.769,0.349L0.761,0.353C0.752,0.311 0.74,0.27 0.733,0.228C0.731,0.214 0.728,0.2 0.726,0.186Z" style="fill:rgb(226,100,13);fill-rule:nonzero;"/>
                </g>
            </g>
            <g transform="matrix(-82.1204,-381.054,-345.999,104.808,2.14794,2556.88)">
                <g id="_1" serif:id="1">
                    <g>
                        <clipPath id="_clip1">
                            <path d="M0.18,0.209L0.04,-0.087L0.31,-0.215L0.45,0.082L0.18,0.209Z"/>
                        </clipPath>
                        <g clip-path="url(#_clip1)">
                            <path d="M0.288,0.116C0.29,0.123 0.292,0.128 0.295,0.134C0.295,0.136 0.297,0.141 0.298,0.142C0.299,0.143 0.305,0.142 0.306,0.142C0.308,0.141 0.306,0.138 0.305,0.135C0.304,0.131 0.303,0.126 0.303,0.122C0.303,0.118 0.303,0.112 0.298,0.11C0.296,0.109 0.292,0.108 0.289,0.108C0.288,0.108 0.286,0.107 0.285,0.108C0.284,0.109 0.287,0.114 0.288,0.116ZM0.293,0.08C0.294,0.078 0.293,0.077 0.293,0.075C0.292,0.066 0.294,0.057 0.297,0.049L0.301,0.04C0.3,0.038 0.298,0.037 0.298,0.036C0.296,0.033 0.295,0.031 0.293,0.03C0.29,0.028 0.285,0.028 0.282,0.03C0.28,0.032 0.277,0.036 0.275,0.037C0.274,0.038 0.272,0.039 0.272,0.039C0.27,0.041 0.271,0.049 0.271,0.052C0.272,0.062 0.273,0.073 0.274,0.083C0.274,0.085 0.274,0.088 0.275,0.09C0.275,0.091 0.278,0.095 0.279,0.095C0.28,0.095 0.293,0.084 0.293,0.08ZM0.251,0.035C0.251,0.033 0.252,0.029 0.251,0.028C0.249,0.027 0.244,0.028 0.242,0.03C0.241,0.03 0.239,0.031 0.238,0.032C0.235,0.034 0.232,0.035 0.234,0.038C0.235,0.041 0.25,0.057 0.252,0.056C0.253,0.056 0.256,0.049 0.255,0.047C0.255,0.046 0.254,0.046 0.253,0.045C0.252,0.042 0.252,0.038 0.251,0.035ZM0.256,0.061C0.256,0.063 0.257,0.064 0.258,0.066C0.259,0.067 0.269,0.082 0.27,0.082C0.271,0.081 0.27,0.077 0.27,0.075C0.27,0.067 0.269,0.058 0.268,0.049C0.268,0.048 0.268,0.043 0.266,0.042C0.265,0.041 0.261,0.044 0.26,0.045C0.259,0.047 0.257,0.051 0.256,0.054C0.256,0.056 0.255,0.059 0.256,0.061ZM0.221,0.131C0.226,0.12 0.234,0.11 0.245,0.103C0.251,0.1 0.259,0.095 0.266,0.097L0.27,0.1C0.272,0.099 0.272,0.096 0.272,0.095C0.271,0.093 0.272,0.091 0.271,0.09C0.27,0.087 0.268,0.085 0.266,0.082C0.263,0.078 0.26,0.074 0.257,0.069C0.255,0.067 0.253,0.063 0.252,0.063C0.25,0.063 0.248,0.066 0.247,0.067C0.246,0.069 0.246,0.072 0.246,0.075C0.245,0.086 0.243,0.094 0.236,0.101C0.235,0.102 0.234,0.103 0.234,0.104C0.227,0.112 0.221,0.119 0.212,0.123C0.207,0.126 0.201,0.129 0.195,0.131C0.192,0.131 0.19,0.132 0.187,0.132C0.186,0.132 0.183,0.133 0.182,0.133C0.172,0.133 0.165,0.127 0.155,0.127C0.153,0.127 0.151,0.127 0.149,0.128C0.141,0.129 0.139,0.131 0.147,0.122C0.152,0.116 0.155,0.11 0.158,0.103C0.166,0.082 0.184,0.064 0.205,0.057C0.215,0.054 0.225,0.055 0.235,0.059C0.237,0.06 0.239,0.06 0.241,0.061C0.242,0.062 0.244,0.063 0.246,0.063C0.247,0.063 0.249,0.061 0.249,0.06C0.249,0.058 0.247,0.056 0.246,0.055C0.236,0.044 0.233,0.042 0.23,0.042C0.227,0.042 0.225,0.044 0.223,0.045C0.212,0.05 0.199,0.046 0.189,0.041C0.184,0.038 0.183,0.036 0.178,0.036C0.162,0.036 0.152,0.036 0.139,0.026C0.134,0.022 0.131,0.021 0.125,0.021C0.123,0.021 0.116,0.021 0.12,0.018C0.122,0.016 0.124,0.014 0.126,0.012C0.13,0.009 0.13,0.004 0.132,-0.001C0.145,-0.035 0.191,-0.042 0.221,-0.029C0.231,-0.024 0.242,-0.019 0.249,-0.005C0.25,-0.003 0.251,0 0.252,0.001C0.253,0.001 0.253,-0.005 0.254,-0.006C0.255,-0.013 0.258,-0.02 0.258,-0.027C0.259,-0.027 0.258,-0.028 0.258,-0.029C0.255,-0.037 0.247,-0.038 0.241,-0.038C0.227,-0.036 0.214,-0.041 0.202,-0.044C0.179,-0.052 0.156,-0.055 0.139,-0.074C0.135,-0.079 0.128,-0.083 0.122,-0.086C0.116,-0.09 0.116,-0.092 0.121,-0.091C0.132,-0.089 0.136,-0.09 0.14,-0.094C0.147,-0.101 0.155,-0.103 0.165,-0.106C0.2,-0.116 0.251,-0.09 0.252,-0.049C0.252,-0.046 0.251,-0.043 0.254,-0.039C0.254,-0.038 0.256,-0.036 0.258,-0.037C0.259,-0.037 0.258,-0.044 0.258,-0.046C0.258,-0.055 0.258,-0.061 0.257,-0.07C0.256,-0.078 0.252,-0.086 0.249,-0.093C0.243,-0.106 0.237,-0.12 0.236,-0.134C0.234,-0.147 0.234,-0.168 0.247,-0.176C0.25,-0.178 0.25,-0.179 0.249,-0.181C0.248,-0.184 0.247,-0.19 0.252,-0.181C0.253,-0.178 0.254,-0.177 0.256,-0.175C0.259,-0.172 0.265,-0.17 0.269,-0.168C0.296,-0.152 0.303,-0.112 0.279,-0.09C0.273,-0.085 0.266,-0.083 0.262,-0.077C0.257,-0.072 0.26,-0.065 0.26,-0.057C0.261,-0.053 0.261,-0.047 0.261,-0.042C0.262,-0.033 0.261,-0.036 0.266,-0.043C0.267,-0.045 0.269,-0.047 0.27,-0.049L0.27,-0.057C0.27,-0.074 0.28,-0.09 0.294,-0.098C0.314,-0.11 0.346,-0.113 0.361,-0.093C0.363,-0.09 0.365,-0.087 0.368,-0.086C0.373,-0.085 0.371,-0.086 0.368,-0.081C0.365,-0.077 0.367,-0.077 0.369,-0.071C0.372,-0.05 0.345,-0.04 0.329,-0.038C0.321,-0.037 0.312,-0.037 0.304,-0.037C0.303,-0.037 0.299,-0.037 0.298,-0.036C0.298,-0.036 0.299,-0.032 0.299,-0.031C0.3,-0.025 0.3,-0.02 0.3,-0.015C0.299,-0.01 0.297,-0.005 0.297,0C0.297,0.001 0.296,0.004 0.297,0.005C0.298,0.005 0.301,0.001 0.302,0C0.306,-0.004 0.312,-0.009 0.319,-0.012C0.336,-0.019 0.36,-0.019 0.374,-0.006C0.379,-0.002 0.382,0.004 0.386,0.01C0.388,0.012 0.39,0.014 0.393,0.015C0.395,0.015 0.397,0.015 0.398,0.016C0.399,0.017 0.395,0.02 0.394,0.02C0.391,0.022 0.389,0.025 0.387,0.028C0.383,0.037 0.377,0.044 0.368,0.049C0.365,0.05 0.361,0.051 0.36,0.054C0.356,0.063 0.353,0.071 0.345,0.076C0.336,0.082 0.324,0.084 0.313,0.083C0.308,0.082 0.302,0.079 0.298,0.082C0.295,0.084 0.292,0.088 0.289,0.091C0.286,0.093 0.283,0.095 0.282,0.099C0.282,0.1 0.282,0.103 0.283,0.104C0.284,0.105 0.287,0.105 0.288,0.105C0.291,0.106 0.294,0.106 0.297,0.107C0.298,0.107 0.3,0.108 0.301,0.107C0.304,0.106 0.305,0.104 0.307,0.103C0.313,0.097 0.324,0.094 0.331,0.093C0.337,0.093 0.342,0.093 0.347,0.094C0.357,0.098 0.366,0.102 0.373,0.111C0.374,0.113 0.375,0.115 0.377,0.117L0.311,0.148C0.31,0.146 0.309,0.145 0.309,0.145C0.308,0.144 0.302,0.144 0.3,0.146C0.299,0.147 0.3,0.149 0.301,0.152L0.297,0.154L0.295,0.147C0.294,0.145 0.294,0.143 0.294,0.142C0.291,0.134 0.288,0.126 0.285,0.118C0.284,0.115 0.282,0.109 0.28,0.108C0.278,0.108 0.277,0.11 0.277,0.111C0.275,0.114 0.277,0.116 0.278,0.118C0.283,0.127 0.283,0.135 0.282,0.143C0.281,0.15 0.278,0.158 0.275,0.165L0.213,0.194C0.213,0.186 0.212,0.178 0.213,0.17C0.213,0.157 0.215,0.144 0.221,0.131Z" style="fill:rgb(226,100,13);fill-rule:nonzero;"/>
                        </g>
                    </g>
                </g>
            </g>
        </g>
    </g>
</svg>
