<?xml version="1.0" encoding="UTF-8" standalone="no"?><!DOCTYPE svg PUBLIC "-//W3C//DTD SVG 1.1//EN" "http://www.w3.org/Graphics/SVG/1.1/DTD/svg11.dtd"><svg width="100%" height="100%" viewBox="0 0 101 301" version="1.1" xmlns="http://www.w3.org/2000/svg" xmlns:xlink="http://www.w3.org/1999/xlink" xml:space="preserve" xmlns:serif="http://www.serif.com/" style="fill-rule:evenodd;clip-rule:evenodd;stroke-linejoin:round;stroke-miterlimit:2;"><path d="M88.31,226.791c0.419,-0.306 0.996,-0.274 1.379,0.076c0.383,0.351 0.466,0.922 0.198,1.367l-3.364,5.592l5.287,3.826c0.42,0.305 0.568,0.863 0.353,1.335c-0.215,0.473 -0.733,0.728 -1.239,0.611l-6.357,-1.471l-2.006,6.21c-0.159,0.494 -0.644,0.807 -1.16,0.749c-0.516,-0.058 -0.919,-0.472 -0.964,-0.989l-0.565,-6.502l-6.526,0.012c-0.519,0.001 -0.967,-0.363 -1.071,-0.872c-0.104,-0.509 0.165,-1.02 0.643,-1.222l6.008,-2.547l-2.028,-6.203c-0.161,-0.493 0.048,-1.032 0.499,-1.288c0.452,-0.256 1.021,-0.158 1.362,0.234l4.278,4.927l5.273,-3.845Z" style="fill:#ffb50e;"/><path d="M96.31,1.457c0.419,-0.305 0.996,-0.273 1.379,0.077c0.383,0.35 0.466,0.922 0.198,1.367l-3.364,5.592l5.287,3.826c0.42,0.304 0.568,0.863 0.353,1.335c-0.215,0.473 -0.733,0.728 -1.239,0.611l-6.357,-1.471l-2.006,6.21c-0.159,0.494 -0.644,0.807 -1.16,0.749c-0.516,-0.059 -0.919,-0.473 -0.964,-0.99l-0.565,-6.501l-6.526,0.012c-0.519,0.001 -0.967,-0.364 -1.071,-0.872c-0.104,-0.509 0.165,-1.02 0.643,-1.223l6.008,-2.546l-2.028,-6.203c-0.161,-0.494 0.048,-1.032 0.499,-1.288c0.452,-0.256 1.021,-0.158 1.362,0.234l4.278,4.927l5.273,-3.846Z" style="fill:#fc7210;"/><path d="M11.109,277.653c0.127,-0.629 0.68,-1.08 1.321,-1.08c0.641,0 1.194,0.451 1.321,1.08l1.598,7.902l8.009,-0.922c0.637,-0.073 1.237,0.312 1.436,0.922c0.198,0.61 -0.061,1.275 -0.62,1.59l-7.022,3.962l3.353,7.332c0.266,0.584 0.085,1.274 -0.434,1.651c-0.519,0.377 -1.231,0.336 -1.704,-0.098l-5.937,-5.454l-5.938,5.454c-0.472,0.434 -1.185,0.475 -1.703,0.098c-0.519,-0.377 -0.7,-1.067 -0.434,-1.651l3.352,-7.332l-7.021,-3.962c-0.559,-0.315 -0.818,-0.98 -0.62,-1.59c0.198,-0.61 0.799,-0.995 1.436,-0.922l8.009,0.922l1.598,-7.902Z" style="fill:#f79380;"/></svg>