<?xml version="1.0" encoding="UTF-8" standalone="no"?>
<!DOCTYPE svg PUBLIC "-//W3C//DTD SVG 1.1//EN" "http://www.w3.org/Graphics/SVG/1.1/DTD/svg11.dtd">
<svg width="100%" height="100%" viewBox="0 0 43 43" version="1.1" xmlns="http://www.w3.org/2000/svg" xmlns:xlink="http://www.w3.org/1999/xlink" xml:space="preserve" xmlns:serif="http://www.serif.com/" style="fill-rule:evenodd;clip-rule:evenodd;stroke-linejoin:round;stroke-miterlimit:2;">
    <g transform="matrix(1,0,0,1,-294.756,-309.629)">
        <g transform="matrix(1.74142,-1.10965,1.09114,1.77097,-90.6675,370.48)">
            <g transform="matrix(0.121005,0.0758189,-0.076675,0.122371,178.225,77.6121)">
                <path d="M0,139.488C1.081,140.507 3.374,141.294 8.17,139.27C9.367,138.764 10.674,138.101 12.054,137.298C13.024,136.734 14.004,136.015 14.969,135.162C15.737,134.483 16.515,133.7 17.279,132.838C19.259,130.606 21.273,127.698 23.269,124.192C24.869,121.38 26.47,118.18 28.157,114.414C29.103,112.306 30.074,110.021 31.128,107.429C32.036,105.2 32.713,102.505 33.143,99.422C33.377,97.737 33.54,95.916 33.627,94.004C33.638,93.787 33.646,93.558 33.655,93.328C33.686,92.464 33.703,91.57 33.705,90.669C33.706,89.588 33.688,88.465 33.648,87.33C33.57,85.157 33.415,82.886 33.186,80.58C33.007,78.784 32.783,76.951 32.518,75.13C32.176,72.776 31.766,70.429 31.298,68.153C31.294,68.132 31.288,68.109 31.284,68.087C31.413,68.226 31.542,68.367 31.673,68.503C32.581,69.439 33.548,70.247 34.474,70.84C34.754,71.018 35.029,71.177 35.295,71.316C35.296,71.485 35.308,71.657 35.333,71.83C35.389,72.185 35.498,72.542 35.657,72.886C35.836,73.275 36.076,73.639 36.368,73.97C36.61,74.243 36.88,74.484 37.173,74.688C37.487,74.906 37.823,75.078 38.171,75.197C38.267,75.23 38.363,75.258 38.459,75.282C38.463,75.47 38.498,75.659 38.565,75.845C38.648,76.07 38.773,76.277 38.937,76.463C39.061,76.603 39.201,76.722 39.354,76.82C39.595,76.973 39.862,77.067 40.129,77.092C40.276,77.106 40.424,77.097 40.567,77.067C40.662,77.046 40.752,77.014 40.84,76.977C41.302,79.705 42.604,87.417 44.828,100.98L44.96,100.959C42.722,87.327 41.42,79.605 40.962,76.913C41.099,76.834 41.218,76.732 41.314,76.611C41.491,76.385 41.591,76.101 41.6,75.791C41.601,75.762 41.597,75.732 41.597,75.703C41.63,75.709 41.666,75.717 41.702,75.72C42.011,75.748 42.305,75.685 42.551,75.536C42.613,75.498 42.672,75.454 42.727,75.406C42.928,75.228 43.069,74.984 43.134,74.713C44.394,75.252 46.793,76.198 49.976,77.081C54.392,78.308 61.257,79.661 68.895,79.146L68.886,79.014C61.269,79.528 54.42,78.177 50.015,76.955C46.814,76.066 44.407,75.115 43.158,74.579C43.165,74.526 43.172,74.472 43.172,74.419C43.18,74.152 43.119,73.874 42.998,73.617C42.919,73.453 42.816,73.299 42.692,73.159C42.443,72.875 42.119,72.675 41.777,72.582C41.767,72.412 41.744,72.24 41.707,72.069C41.631,71.71 41.502,71.355 41.323,71.015C41.157,70.701 40.95,70.403 40.71,70.131C40.417,69.8 40.084,69.516 39.72,69.291C39.575,69.201 39.427,69.123 39.276,69.053C39.188,68.522 39.026,67.944 38.786,67.323C38.39,66.299 37.791,65.189 37.054,64.113C36.814,63.761 36.554,63.412 36.285,63.068C36.469,63.131 36.65,63.193 36.835,63.256C39.037,63.997 41.315,64.69 43.609,65.318C45.387,65.803 47.18,66.252 48.938,66.646C51.202,67.156 53.437,67.588 55.581,67.928C56.702,68.106 57.813,68.262 58.889,68.394C59.783,68.501 60.673,68.593 61.533,68.669C61.759,68.687 61.985,68.706 62.208,68.722C64.116,68.87 65.944,68.929 67.643,68.903C70.757,68.853 73.515,68.509 75.839,67.881C78.54,67.15 80.926,66.466 83.132,65.785C87.077,64.57 90.447,63.373 93.436,62.127C97.157,60.574 100.289,58.928 102.747,57.238C103.696,56.583 104.568,55.907 105.335,55.228C106.3,54.375 107.133,53.489 107.812,52.595C108.777,51.324 109.594,50.107 110.241,48.981C112.835,44.468 112.335,42.095 111.457,40.899C111.198,40.547 110.869,40.243 110.477,39.998C109.701,39.513 109.003,39.189 108.403,39.037C107.631,38.841 107.28,38.991 107.219,39.02C106.787,38.804 106.352,38.617 105.928,38.461C104.237,37.841 102.921,37.807 102.114,37.89C101.329,37.97 100.869,38.172 100.799,38.204C100.753,38.174 100.524,38.021 100.199,37.833C99.541,37.453 98.312,36.827 97.461,36.902C97.072,36.934 96.523,37.066 95.94,37.206C94.764,37.487 93.428,37.807 92.658,37.547C92.551,37.51 92.457,37.463 92.377,37.405C92.11,37.212 91.801,36.933 91.441,36.611C90.479,35.747 89.282,34.672 88.163,34.581C88.026,34.569 87.885,34.558 87.738,34.548L87.71,34.546C86.209,34.434 84.343,34.299 83.538,33.209C83.484,33.135 83.427,33.057 83.369,32.976C82.899,32.336 82.257,31.461 81.485,30.716C80.621,29.883 79.794,29.397 78.955,29.232C76.862,28.818 75.727,27.777 74.35,26.349C73.993,25.978 73.542,25.653 72.889,25.297C72.109,24.872 71.116,24.464 70.094,24.147C68.975,23.801 67.907,23.595 67.24,23.596C67.202,23.596 67.165,23.596 67.131,23.597C65.495,23.657 62.755,25.248 59.803,27.851L59.752,27.896C59.137,28.439 58.503,29.035 57.868,29.666C56.6,30.924 55.271,32.269 53.913,33.685C54.52,32.55 55.029,31.414 55.463,30.234C55.821,29.261 56.125,28.264 56.396,27.186C56.474,26.873 56.552,26.547 56.625,26.217C56.851,25.197 57.044,24.127 57.217,22.947C57.257,22.661 57.3,22.361 57.34,22.055C57.595,20.098 56.749,18.729 56.071,17.63L56.058,17.609C55.701,17.03 55.363,16.485 55.251,15.94C55.127,15.343 54.984,14.902 54.805,14.55C54.635,14.217 54.425,13.951 54.159,13.735C53.806,13.447 53.34,13.239 52.737,13.101C51.675,12.856 51.259,12.422 50.705,11.738C50.653,11.675 50.601,11.61 50.548,11.545C50.26,11.185 49.934,10.779 49.471,10.301C47.957,8.738 47.28,8.258 46.257,8.482C45.696,8.606 45.226,8.487 44.732,8.096C44.165,7.647 43.556,6.81 42.87,5.539C42.301,4.484 41.9,3.796 41.536,3.394C40.983,2.786 40.509,2.808 39.559,3.007C38.465,3.234 37.939,2.556 37.475,1.959C37.274,1.7 37.084,1.457 36.862,1.296C36.818,1.263 36.77,1.223 36.714,1.173C36.503,0.982 36.235,0.687 35.927,0.344C35.405,-0.232 34.76,-0.947 34.165,-1.373C33.735,-1.682 33.386,-1.806 33.096,-1.751C32.898,-1.715 32.687,-1.62 32.43,-1.456C32.254,-1.345 32.077,-1.214 31.889,-1.075C31.272,-0.616 30.573,-0.098 29.663,-0.092C29.358,-0.09 29.042,-0.146 28.722,-0.261C28.368,-0.387 28.051,-0.51 27.742,-0.631C26.314,-1.189 25.369,-1.558 24.354,-0.661C24.308,-0.619 24.263,-0.576 24.217,-0.531C24.11,-0.425 24,-0.324 23.891,-0.226C23.311,0.287 22.695,0.681 22.007,0.978C21.432,1.226 20.805,1.408 20.09,1.533C19.387,1.656 18.896,1.865 18.502,2.215C18.36,2.34 18.23,2.482 18.108,2.65C17.714,3.184 17.466,3.839 17.267,4.364C16.922,5.272 16.4,6.538 15.796,7.929C15.402,8.832 15.005,9.72 14.677,10.428C14.61,10.574 14.539,10.725 14.465,10.882C14.191,11.46 13.882,12.116 13.624,12.797C13.191,13.942 13.008,14.9 13.067,15.723C13.078,15.882 13.099,16.037 13.128,16.184C13.213,16.621 13.372,17.573 13.587,18.937L13.656,19.365C13.732,19.856 13.815,20.382 13.898,20.933C14.093,22.196 14.296,23.553 14.485,24.855C14.764,26.75 15.263,30.217 15.48,32.154C15.512,32.434 15.537,32.674 15.554,32.865C15.643,33.873 15.846,35.184 16.125,36.558C16.498,38.387 17.347,41.935 18.857,45.322C18.161,44.668 17.549,44.041 17.004,43.369C16.493,42.74 16.068,42.099 15.702,41.41C15.207,40.478 14.479,39.592 13.708,38.979C13.221,38.592 12.745,38.333 12.294,38.206C12.131,38.16 11.971,38.133 11.817,38.125C11.394,38.101 11.023,38.222 10.716,38.485C10.708,38.492 10.7,38.5 10.692,38.507C10.592,38.595 10.494,38.703 10.395,38.834C10.219,39.064 10.088,39.32 10.001,39.592C9.912,39.875 9.872,40.177 9.883,40.494C9.901,41.001 10.049,41.538 10.324,42.092C10.819,43.092 11.693,44.092 12.919,45.062C13.653,45.642 14.414,46.244 15.158,46.857C16.389,47.875 17.751,49.065 19.123,50.548C18.717,50.222 18.314,49.908 17.918,49.611C17.285,49.136 16.585,48.666 15.84,48.211C12.621,46.248 9.126,44.943 7.328,44.341C5.998,43.894 4.72,43.532 3.732,43.323C3.543,43.281 3.311,43.228 3.035,43.162C1.631,42.828 -0.898,42.161 -4.087,41.285C-5.356,40.936 -6.679,40.569 -7.908,40.223C-8.445,40.072 -8.958,39.927 -9.435,39.791L-9.852,39.671C-11.16,39.297 -12.11,39.014 -12.528,38.879C-12.672,38.832 -12.823,38.793 -12.979,38.761C-13.788,38.603 -14.761,38.666 -15.951,38.958C-16.657,39.13 -17.347,39.358 -17.954,39.557C-18.119,39.612 -18.278,39.664 -18.43,39.713C-19.165,39.95 -20.118,40.244 -21.047,40.518C-22.502,40.948 -23.822,41.312 -24.765,41.544C-25.312,41.677 -25.99,41.843 -26.568,42.169C-26.751,42.27 -26.908,42.383 -27.05,42.508C-27.444,42.855 -27.712,43.316 -27.919,44C-28.131,44.695 -28.388,45.295 -28.704,45.835C-29.083,46.482 -29.549,47.045 -30.128,47.557C-30.238,47.655 -30.354,47.752 -30.473,47.844C-30.523,47.884 -30.571,47.925 -30.616,47.965C-31.632,48.862 -31.38,49.844 -31.002,51.332C-30.92,51.651 -30.835,51.982 -30.753,52.348C-30.679,52.679 -30.661,53.002 -30.7,53.302C-30.818,54.205 -31.417,54.836 -31.948,55.392C-32.109,55.56 -32.261,55.721 -32.393,55.881C-32.588,56.117 -32.706,56.316 -32.767,56.508C-32.854,56.789 -32.775,57.15 -32.522,57.615C-32.17,58.258 -31.54,58.986 -31.032,59.573C-30.729,59.922 -30.469,60.223 -30.306,60.456C-30.265,60.515 -30.229,60.57 -30.202,60.618C-30.069,60.858 -29.85,61.076 -29.618,61.306C-29.082,61.841 -28.474,62.446 -28.833,63.502C-29.146,64.422 -29.227,64.89 -28.691,65.511C-28.336,65.924 -27.702,66.406 -26.724,67.098C-25.546,67.934 -24.79,68.641 -24.414,69.259C-24.085,69.797 -24.024,70.279 -24.217,70.82C-24.564,71.808 -24.169,72.537 -22.802,74.231C-22.384,74.749 -22.021,75.122 -21.702,75.451C-21.643,75.513 -21.584,75.572 -21.528,75.631C-20.917,76.265 -20.536,76.73 -20.422,77.814C-20.359,78.43 -20.209,78.918 -19.967,79.303C-19.786,79.592 -19.546,79.835 -19.238,80.044C-18.91,80.266 -18.489,80.462 -17.911,80.656C-17.386,80.836 -16.884,81.236 -16.354,81.661L-16.335,81.676C-15.327,82.484 -14.07,83.491 -12.098,83.476C-11.792,83.474 -11.489,83.468 -11.197,83.463C-10.003,83.435 -8.919,83.374 -7.88,83.274C-7.544,83.242 -7.21,83.206 -6.89,83.166C-5.787,83.028 -4.759,82.847 -3.75,82.612C-2.527,82.326 -1.338,81.96 -0.137,81.494C-1.706,82.671 -3.206,83.824 -4.607,84.928C-5.312,85.483 -5.979,86.04 -6.595,86.584L-6.644,86.628C-9.59,89.24 -11.502,91.765 -11.761,93.382C-11.767,93.416 -11.771,93.453 -11.777,93.489C-11.859,94.152 -11.784,95.238 -11.577,96.391C-11.389,97.444 -11.104,98.478 -10.778,99.303C-10.503,99.997 -10.237,100.484 -9.911,100.883C-8.662,102.424 -7.767,103.677 -7.612,105.805C-7.551,106.658 -7.17,107.539 -6.449,108.497C-5.803,109.355 -5.012,110.1 -4.434,110.643C-4.36,110.712 -4.292,110.777 -4.225,110.841C-3.242,111.772 -3.333,113.642 -3.406,115.142L-3.409,115.174C-3.416,115.319 -3.423,115.462 -3.428,115.597C-3.474,116.72 -2.553,118.041 -1.812,119.101C-1.536,119.497 -1.297,119.838 -1.139,120.125C-1.091,120.21 -1.056,120.309 -1.033,120.421C-0.868,121.217 -1.348,122.503 -1.771,123.636C-1.98,124.199 -2.178,124.728 -2.259,125.109C-2.438,125.944 -1.966,127.241 -1.669,127.941C-1.521,128.287 -1.398,128.533 -1.374,128.581C-1.415,128.647 -1.669,129.078 -1.846,129.848C-2.025,130.639 -2.155,131.95 -1.745,133.702C-1.643,134.145 -1.509,134.597 -1.347,135.053C-1.385,135.108 -1.576,135.438 -1.475,136.229C-1.397,136.843 -1.16,137.576 -0.775,138.406C-0.579,138.825 -0.318,139.188 0,139.488" style="fill:rgb(245,170,118);fill-rule:nonzero;"/>
            </g>
        </g>
    </g>
</svg>
