<?xml version="1.0" encoding="UTF-8" standalone="no"?>
<!DOCTYPE svg PUBLIC "-//W3C//DTD SVG 1.1//EN" "http://www.w3.org/Graphics/SVG/1.1/DTD/svg11.dtd">
<svg width="100%" height="100%" viewBox="0 0 424 274" version="1.1" xmlns="http://www.w3.org/2000/svg" xmlns:xlink="http://www.w3.org/1999/xlink" xml:space="preserve" xmlns:serif="http://www.serif.com/" style="fill-rule:evenodd;clip-rule:evenodd;stroke-linejoin:round;stroke-miterlimit:2;">
    <g transform="matrix(1,0,0,1,-1427.08,-228.152)">
        <g transform="matrix(-1.74142,-1.10965,-1.09114,1.77097,2178.92,334.48)">
            <g transform="matrix(-0.0893274,-0.0559707,-0.0562544,0.0897802,96.991,154.845)">
                <path d="M0,-170.215C-1.364,-171.375 -4.174,-172.183 -9.825,-169.454C-11.235,-168.772 -12.769,-167.892 -14.382,-166.841C-15.516,-166.103 -16.652,-165.178 -17.761,-164.091C-18.646,-163.227 -19.533,-162.236 -20.399,-161.152C-22.648,-158.343 -24.896,-154.717 -27.084,-150.374C-28.841,-146.889 -30.571,-142.939 -32.373,-138.301C-33.382,-135.704 -34.413,-132.894 -35.522,-129.709C-36.48,-126.968 -37.131,-123.681 -37.46,-119.942C-37.639,-117.9 -37.724,-115.694 -37.712,-113.388C-37.712,-113.126 -37.707,-112.851 -37.704,-112.573C-37.688,-111.53 -37.655,-110.452 -37.602,-109.368C-37.538,-108.066 -37.446,-106.714 -37.329,-105.351C-37.103,-102.739 -36.776,-100.015 -36.36,-97.251C-36.034,-95.099 -35.653,-92.905 -35.223,-90.728C-34.666,-87.915 -34.029,-85.115 -33.326,-82.403C-33.321,-82.376 -33.312,-82.349 -33.306,-82.322C-33.47,-82.484 -33.634,-82.645 -33.8,-82.8C-34.949,-83.872 -36.164,-84.785 -37.315,-85.443C-37.663,-85.642 -38.004,-85.816 -38.333,-85.966C-38.345,-86.169 -38.369,-86.376 -38.411,-86.583C-38.499,-87.009 -38.651,-87.43 -38.865,-87.835C-39.104,-88.292 -39.415,-88.716 -39.788,-89.097C-40.095,-89.411 -40.435,-89.685 -40.8,-89.911C-41.192,-90.155 -41.606,-90.342 -42.033,-90.464C-42.151,-90.497 -42.269,-90.525 -42.386,-90.548C-42.401,-90.776 -42.454,-91 -42.548,-91.22C-42.661,-91.486 -42.825,-91.728 -43.032,-91.941C-43.19,-92.103 -43.367,-92.237 -43.558,-92.347C-43.856,-92.515 -44.185,-92.612 -44.507,-92.626C-44.686,-92.634 -44.863,-92.614 -45.033,-92.569C-45.146,-92.538 -45.253,-92.495 -45.356,-92.444C-46.079,-95.7 -48.118,-104.907 -51.626,-121.105L-51.784,-121.071C-48.256,-104.792 -46.216,-95.574 -45.499,-92.359C-45.659,-92.257 -45.796,-92.126 -45.905,-91.976C-46.104,-91.693 -46.207,-91.345 -46.199,-90.969C-46.198,-90.935 -46.192,-90.9 -46.19,-90.864C-46.231,-90.868 -46.274,-90.876 -46.317,-90.878C-46.691,-90.894 -47.042,-90.8 -47.327,-90.604C-47.401,-90.555 -47.47,-90.498 -47.532,-90.437C-47.764,-90.21 -47.919,-89.907 -47.979,-89.577C-49.53,-90.15 -52.478,-91.142 -56.364,-92.011C-61.756,-93.218 -70.107,-94.428 -79.271,-93.341L-79.253,-93.183C-70.112,-94.267 -61.783,-93.06 -56.402,-91.856C-52.494,-90.982 -49.538,-89.984 -48.001,-89.414C-48.007,-89.351 -48.011,-89.286 -48.009,-89.222C-48.001,-88.898 -47.911,-88.568 -47.749,-88.265C-47.644,-88.073 -47.512,-87.894 -47.354,-87.734C-47.036,-87.407 -46.634,-87.186 -46.216,-87.095C-46.192,-86.89 -46.155,-86.685 -46.101,-86.48C-45.987,-86.052 -45.811,-85.634 -45.573,-85.236C-45.354,-84.867 -45.087,-84.521 -44.78,-84.208C-44.407,-83.827 -43.989,-83.506 -43.537,-83.257C-43.357,-83.157 -43.174,-83.073 -42.989,-82.999C-42.851,-82.364 -42.62,-81.677 -42.292,-80.944C-41.753,-79.736 -40.965,-78.437 -40.011,-77.186C-39.7,-76.777 -39.366,-76.37 -39.021,-75.974C-39.246,-76.038 -39.469,-76.103 -39.695,-76.165C-42.392,-76.925 -45.178,-77.62 -47.979,-78.236C-50.149,-78.712 -52.335,-79.14 -54.477,-79.509C-57.232,-79.986 -59.951,-80.366 -62.554,-80.648C-63.915,-80.792 -65.263,-80.913 -66.565,-81.005C-67.649,-81.079 -68.727,-81.136 -69.767,-81.173C-70.039,-81.183 -70.313,-81.191 -70.583,-81.198C-72.889,-81.259 -75.094,-81.219 -77.138,-81.083C-80.885,-80.831 -84.185,-80.249 -86.945,-79.351C-90.153,-78.306 -92.984,-77.335 -95.599,-76.38C-100.275,-74.677 -104.26,-73.027 -107.782,-71.345C-112.169,-69.247 -115.84,-67.075 -118.695,-64.888C-119.799,-64.042 -120.809,-63.175 -121.69,-62.311C-122.799,-61.224 -123.749,-60.107 -124.511,-58.989C-125.595,-57.399 -126.505,-55.884 -127.216,-54.489C-130.063,-48.896 -129.316,-46.069 -128.186,-44.682C-127.853,-44.273 -127.437,-43.927 -126.949,-43.656C-125.986,-43.12 -125.126,-42.773 -124.394,-42.626C-123.452,-42.437 -123.038,-42.64 -122.967,-42.679C-122.434,-42.444 -121.898,-42.246 -121.378,-42.084C-119.304,-41.44 -117.717,-41.482 -116.751,-41.63C-115.81,-41.775 -115.269,-42.045 -115.187,-42.089C-115.129,-42.054 -114.844,-41.886 -114.441,-41.679C-113.626,-41.261 -112.106,-40.581 -111.088,-40.724C-110.621,-40.788 -109.968,-40.981 -109.275,-41.183C-107.875,-41.595 -106.286,-42.062 -105.343,-41.794C-105.212,-41.757 -105.096,-41.706 -104.997,-41.642C-104.663,-41.425 -104.273,-41.109 -103.821,-40.741C-102.609,-39.761 -101.103,-38.538 -99.749,-38.497C-99.584,-38.492 -99.412,-38.487 -99.235,-38.484L-99.201,-38.484C-97.388,-38.443 -95.132,-38.392 -94.097,-37.13C-94.026,-37.044 -93.953,-36.954 -93.878,-36.859C-93.273,-36.117 -92.446,-35.102 -91.471,-34.253C-90.38,-33.302 -89.354,-32.768 -88.334,-32.62C-85.788,-32.251 -84.357,-31.066 -82.613,-29.431C-82.16,-29.005 -81.597,-28.642 -80.788,-28.253C-79.824,-27.788 -78.603,-27.357 -77.353,-27.04C-75.983,-26.691 -74.687,-26.509 -73.882,-26.55C-73.836,-26.552 -73.792,-26.554 -73.751,-26.559C-71.785,-26.73 -68.583,-28.813 -65.187,-32.13L-65.128,-32.187C-64.421,-32.878 -63.693,-33.634 -62.968,-34.433C-61.518,-36.024 -60.001,-37.728 -58.45,-39.515C-59.112,-38.109 -59.656,-36.71 -60.107,-35.263C-60.479,-34.071 -60.783,-32.851 -61.044,-31.537C-61.118,-31.153 -61.193,-30.756 -61.26,-30.355C-61.469,-29.112 -61.637,-27.814 -61.773,-26.382C-61.805,-26.034 -61.837,-25.671 -61.866,-25.3C-62.054,-22.929 -60.953,-21.331 -60.068,-20.048L-60.05,-20.025C-59.586,-19.349 -59.146,-18.712 -58.977,-18.066C-58.792,-17.353 -58.593,-16.829 -58.354,-16.417C-58.13,-16.027 -57.861,-15.72 -57.528,-15.476C-57.084,-15.152 -56.511,-14.929 -55.776,-14.8C-54.482,-14.568 -53.956,-14.071 -53.245,-13.282C-53.18,-13.21 -53.112,-13.134 -53.045,-13.058C-52.677,-12.644 -52.259,-12.175 -51.672,-11.628C-49.753,-9.839 -48.909,-9.3 -47.69,-9.634C-47.024,-9.818 -46.449,-9.702 -45.831,-9.261C-45.12,-8.755 -44.336,-7.784 -43.432,-6.296C-42.683,-5.06 -42.158,-4.257 -41.694,-3.794C-40.993,-3.095 -40.423,-3.153 -39.29,-3.448C-37.987,-3.79 -37.313,-3.007 -36.716,-2.316C-36.46,-2.015 -36.216,-1.736 -35.938,-1.554C-35.884,-1.517 -35.823,-1.472 -35.753,-1.415C-35.487,-1.198 -35.146,-0.859 -34.754,-0.466C-34.091,0.196 -33.27,1.018 -32.528,1.495C-31.991,1.841 -31.562,1.968 -31.217,1.884C-30.981,1.829 -30.731,1.702 -30.433,1.489C-30.228,1.345 -30.022,1.175 -29.806,0.997C-29.091,0.405 -28.28,-0.261 -27.185,-0.323C-26.817,-0.345 -26.434,-0.296 -26.041,-0.179C-25.607,-0.048 -25.218,0.083 -24.839,0.208C-23.085,0.794 -21.925,1.181 -20.757,0.038C-20.704,-0.015 -20.652,-0.069 -20.6,-0.128C-20.479,-0.263 -20.353,-0.392 -20.226,-0.515C-19.56,-1.167 -18.842,-1.681 -18.03,-2.079C-17.354,-2.415 -16.609,-2.671 -15.756,-2.864C-14.917,-3.056 -14.339,-3.339 -13.887,-3.782C-13.724,-3.943 -13.575,-4.122 -13.438,-4.333C-12.997,-4.999 -12.737,-5.802 -12.53,-6.448C-12.17,-7.562 -11.619,-9.118 -10.977,-10.829C-10.558,-11.943 -10.135,-13.034 -9.782,-13.907C-9.71,-14.087 -9.634,-14.275 -9.555,-14.466C-9.261,-15.181 -8.928,-15.989 -8.659,-16.823C-8.208,-18.23 -8.046,-19.394 -8.167,-20.382C-8.19,-20.573 -8.225,-20.757 -8.269,-20.933C-8.398,-21.454 -8.647,-22.591 -8.991,-24.221L-9.1,-24.732C-9.222,-25.318 -9.353,-25.946 -9.487,-26.606C-9.798,-28.114 -10.126,-29.736 -10.435,-31.292C-10.885,-33.556 -11.698,-37.701 -12.079,-40.021C-12.134,-40.356 -12.178,-40.642 -12.21,-40.872C-12.379,-42.079 -12.703,-43.646 -13.124,-45.283C-13.685,-47.464 -14.924,-51.685 -16.95,-55.669C-16.071,-54.925 -15.296,-54.208 -14.599,-53.433C-13.945,-52.706 -13.394,-51.96 -12.911,-51.152C-12.257,-50.061 -11.328,-49.038 -10.361,-48.347C-9.751,-47.91 -9.162,-47.628 -8.611,-47.503C-8.412,-47.458 -8.218,-47.434 -8.032,-47.435C-7.521,-47.431 -7.082,-47.601 -6.729,-47.935C-6.719,-47.944 -6.71,-47.954 -6.7,-47.962C-6.585,-48.075 -6.475,-48.21 -6.362,-48.374C-6.165,-48.663 -6.022,-48.978 -5.935,-49.312C-5.845,-49.657 -5.816,-50.025 -5.849,-50.404C-5.901,-51.015 -6.111,-51.652 -6.476,-52.302C-7.134,-53.478 -8.247,-54.628 -9.784,-55.72C-10.702,-56.374 -11.655,-57.052 -12.589,-57.745C-14.134,-58.895 -15.847,-60.245 -17.589,-61.946C-17.08,-61.579 -16.576,-61.226 -16.081,-60.892C-15.29,-60.361 -14.418,-59.835 -13.492,-59.333C-9.497,-57.166 -5.208,-55.81 -3.006,-55.193C-1.378,-54.737 0.184,-54.38 1.386,-54.188C1.616,-54.149 1.899,-54.101 2.235,-54.037C3.945,-53.72 7.033,-53.071 10.926,-52.212C12.477,-51.87 14.091,-51.509 15.592,-51.167C16.247,-51.019 16.874,-50.874 17.457,-50.739L17.966,-50.62C19.564,-50.249 20.727,-49.968 21.237,-49.831C21.413,-49.782 21.598,-49.745 21.787,-49.718C22.772,-49.575 23.94,-49.712 25.354,-50.135C26.194,-50.386 27.011,-50.702 27.729,-50.98C27.925,-51.056 28.113,-51.128 28.294,-51.196C29.164,-51.527 30.295,-51.939 31.396,-52.325C33.122,-52.933 34.689,-53.451 35.81,-53.788C36.46,-53.983 37.267,-54.224 37.942,-54.651C38.157,-54.784 38.34,-54.929 38.503,-55.087C38.956,-55.532 39.251,-56.103 39.458,-56.939C39.67,-57.788 39.942,-58.527 40.291,-59.195C40.707,-59.999 41.235,-60.704 41.9,-61.358C42.027,-61.482 42.161,-61.605 42.298,-61.724C42.355,-61.775 42.413,-61.826 42.464,-61.878C43.632,-63.021 43.269,-64.189 42.723,-65.955C42.604,-66.335 42.481,-66.73 42.36,-67.165C42.251,-67.56 42.209,-67.944 42.237,-68.312C42.324,-69.404 43.009,-70.2 43.612,-70.903C43.797,-71.116 43.97,-71.319 44.118,-71.519C44.339,-71.815 44.468,-72.062 44.531,-72.296C44.619,-72.64 44.501,-73.071 44.168,-73.614C43.706,-74.366 42.901,-75.206 42.254,-75.88C41.868,-76.282 41.537,-76.63 41.326,-76.9C41.272,-76.97 41.226,-77.033 41.19,-77.089C41.017,-77.37 40.739,-77.618 40.445,-77.882C39.768,-78.493 38.999,-79.185 39.365,-80.479C39.686,-81.605 39.755,-82.174 39.072,-82.89C38.618,-83.364 37.827,-83.905 36.606,-84.681C35.136,-85.614 34.184,-86.419 33.693,-87.14C33.264,-87.768 33.161,-88.345 33.359,-89.009C33.718,-90.219 33.196,-91.073 31.448,-93.028C30.912,-93.628 30.453,-94.054 30.049,-94.431C29.973,-94.502 29.898,-94.569 29.828,-94.637C29.054,-95.363 28.566,-95.9 28.363,-97.198C28.249,-97.937 28.038,-98.514 27.724,-98.964C27.487,-99.301 27.185,-99.577 26.801,-99.811C26.392,-100.058 25.872,-100.267 25.165,-100.467C24.522,-100.652 23.893,-101.103 23.229,-101.582L23.204,-101.599C21.941,-102.511 20.367,-103.646 17.992,-103.507C17.624,-103.486 17.261,-103.461 16.908,-103.437C15.474,-103.331 14.171,-103.19 12.925,-103.007C12.523,-102.946 12.124,-102.882 11.74,-102.816C10.42,-102.581 9.194,-102.302 7.993,-101.956C6.538,-101.536 5.128,-101.023 3.71,-100.389C5.528,-101.902 7.264,-103.382 8.884,-104.798C9.698,-105.509 10.468,-106.22 11.176,-106.913L11.231,-106.968C14.62,-110.295 16.769,-113.453 16.981,-115.415C16.986,-115.456 16.989,-115.501 16.994,-115.545C17.052,-116.349 16.896,-117.652 16.576,-119.027C16.284,-120.283 15.879,-121.512 15.435,-122.486C15.063,-123.304 14.712,-123.874 14.294,-124.335C12.696,-126.112 11.542,-127.568 11.225,-130.121C11.099,-131.144 10.587,-132.181 9.661,-133.292C8.83,-134.285 7.831,-135.134 7.103,-135.753C7.009,-135.829 6.923,-135.905 6.838,-135.978C5.598,-137.038 5.595,-139.297 5.591,-141.107L5.592,-141.146C5.592,-141.321 5.591,-141.493 5.588,-141.655C5.575,-143.011 4.385,-144.544 3.429,-145.777C3.072,-146.236 2.763,-146.632 2.555,-146.968C2.492,-147.068 2.443,-147.185 2.409,-147.319C2.161,-148.267 2.662,-149.845 3.103,-151.236C3.319,-151.927 3.525,-152.575 3.599,-153.04C3.763,-154.056 3.115,-155.589 2.715,-156.413C2.517,-156.82 2.353,-157.109 2.321,-157.165C2.366,-157.248 2.646,-157.782 2.812,-158.722C2.979,-159.685 3.056,-161.269 2.454,-163.355C2.304,-163.882 2.116,-164.419 1.893,-164.958C1.935,-165.027 2.145,-165.435 1.975,-166.382C1.845,-167.116 1.514,-167.985 0.998,-168.96C0.737,-169.452 0.401,-169.874 0,-170.215" style="fill:rgb(245,170,118);fill-rule:nonzero;"/>
            </g>
        </g>
        <g transform="matrix(-1.74142,-1.10965,-1.09114,1.77097,2178.92,334.48)">
            <g transform="matrix(-0.0683643,-0.0428356,-0.0430528,0.0687108,320.834,157.378)">
                <path d="M0,-170.215C-1.364,-171.375 -4.174,-172.183 -9.825,-169.454C-11.235,-168.772 -12.769,-167.892 -14.382,-166.841C-15.516,-166.103 -16.652,-165.178 -17.761,-164.091C-18.646,-163.227 -19.533,-162.236 -20.399,-161.152C-22.648,-158.343 -24.896,-154.717 -27.084,-150.374C-28.841,-146.889 -30.571,-142.939 -32.373,-138.301C-33.382,-135.704 -34.413,-132.894 -35.522,-129.709C-36.48,-126.968 -37.131,-123.681 -37.46,-119.942C-37.639,-117.9 -37.724,-115.694 -37.712,-113.388C-37.712,-113.126 -37.707,-112.851 -37.704,-112.573C-37.688,-111.53 -37.655,-110.452 -37.602,-109.368C-37.538,-108.066 -37.446,-106.714 -37.329,-105.351C-37.103,-102.739 -36.776,-100.015 -36.36,-97.251C-36.034,-95.099 -35.653,-92.905 -35.223,-90.728C-34.666,-87.915 -34.029,-85.115 -33.326,-82.403C-33.321,-82.376 -33.312,-82.349 -33.306,-82.322C-33.47,-82.484 -33.634,-82.645 -33.8,-82.8C-34.949,-83.872 -36.164,-84.785 -37.315,-85.443C-37.663,-85.642 -38.004,-85.816 -38.333,-85.966C-38.345,-86.169 -38.369,-86.376 -38.411,-86.583C-38.499,-87.009 -38.651,-87.43 -38.865,-87.835C-39.104,-88.292 -39.415,-88.716 -39.788,-89.097C-40.095,-89.411 -40.435,-89.685 -40.8,-89.911C-41.192,-90.155 -41.606,-90.342 -42.033,-90.464C-42.151,-90.497 -42.269,-90.525 -42.386,-90.548C-42.401,-90.776 -42.454,-91 -42.548,-91.22C-42.661,-91.486 -42.825,-91.728 -43.032,-91.941C-43.19,-92.103 -43.367,-92.237 -43.558,-92.347C-43.856,-92.515 -44.185,-92.612 -44.507,-92.626C-44.686,-92.634 -44.863,-92.614 -45.033,-92.569C-45.146,-92.538 -45.253,-92.495 -45.356,-92.444C-46.079,-95.7 -48.118,-104.907 -51.626,-121.105L-51.784,-121.071C-48.256,-104.792 -46.216,-95.574 -45.499,-92.359C-45.659,-92.257 -45.796,-92.126 -45.905,-91.976C-46.104,-91.693 -46.207,-91.345 -46.199,-90.969C-46.198,-90.935 -46.192,-90.9 -46.19,-90.864C-46.231,-90.868 -46.274,-90.876 -46.317,-90.878C-46.691,-90.894 -47.042,-90.8 -47.327,-90.604C-47.401,-90.555 -47.47,-90.498 -47.532,-90.437C-47.764,-90.21 -47.919,-89.907 -47.979,-89.577C-49.53,-90.15 -52.478,-91.142 -56.364,-92.011C-61.756,-93.218 -70.107,-94.428 -79.271,-93.341L-79.253,-93.183C-70.112,-94.267 -61.783,-93.06 -56.402,-91.856C-52.494,-90.982 -49.538,-89.984 -48.001,-89.414C-48.007,-89.351 -48.011,-89.286 -48.009,-89.222C-48.001,-88.898 -47.911,-88.568 -47.749,-88.265C-47.644,-88.073 -47.512,-87.894 -47.354,-87.734C-47.036,-87.407 -46.634,-87.186 -46.216,-87.095C-46.192,-86.89 -46.155,-86.685 -46.101,-86.48C-45.987,-86.052 -45.811,-85.634 -45.573,-85.236C-45.354,-84.867 -45.087,-84.521 -44.78,-84.208C-44.407,-83.827 -43.989,-83.506 -43.537,-83.257C-43.357,-83.157 -43.174,-83.073 -42.989,-82.999C-42.851,-82.364 -42.62,-81.677 -42.292,-80.944C-41.753,-79.736 -40.965,-78.437 -40.011,-77.186C-39.7,-76.777 -39.366,-76.37 -39.021,-75.974C-39.246,-76.038 -39.469,-76.103 -39.695,-76.165C-42.392,-76.925 -45.178,-77.62 -47.979,-78.236C-50.149,-78.712 -52.335,-79.14 -54.477,-79.509C-57.232,-79.986 -59.951,-80.366 -62.554,-80.648C-63.915,-80.792 -65.263,-80.913 -66.565,-81.005C-67.649,-81.079 -68.727,-81.136 -69.767,-81.173C-70.039,-81.183 -70.313,-81.191 -70.583,-81.198C-72.889,-81.259 -75.094,-81.219 -77.138,-81.083C-80.885,-80.831 -84.185,-80.249 -86.945,-79.351C-90.153,-78.306 -92.984,-77.335 -95.599,-76.38C-100.275,-74.677 -104.26,-73.027 -107.782,-71.345C-112.169,-69.247 -115.84,-67.075 -118.695,-64.888C-119.799,-64.042 -120.809,-63.175 -121.69,-62.311C-122.799,-61.224 -123.749,-60.107 -124.511,-58.989C-125.595,-57.399 -126.505,-55.884 -127.216,-54.489C-130.063,-48.896 -129.316,-46.069 -128.186,-44.682C-127.853,-44.273 -127.437,-43.927 -126.949,-43.656C-125.986,-43.12 -125.126,-42.773 -124.394,-42.626C-123.452,-42.437 -123.038,-42.64 -122.967,-42.679C-122.434,-42.444 -121.898,-42.246 -121.378,-42.084C-119.304,-41.44 -117.717,-41.482 -116.751,-41.63C-115.81,-41.775 -115.269,-42.045 -115.187,-42.089C-115.129,-42.054 -114.844,-41.886 -114.441,-41.679C-113.626,-41.261 -112.106,-40.581 -111.088,-40.724C-110.621,-40.788 -109.968,-40.981 -109.275,-41.183C-107.875,-41.595 -106.286,-42.062 -105.343,-41.794C-105.212,-41.757 -105.096,-41.706 -104.997,-41.642C-104.663,-41.425 -104.273,-41.109 -103.821,-40.741C-102.609,-39.761 -101.103,-38.538 -99.749,-38.497C-99.584,-38.492 -99.412,-38.487 -99.235,-38.484L-99.201,-38.484C-97.388,-38.443 -95.132,-38.392 -94.097,-37.13C-94.026,-37.044 -93.953,-36.954 -93.878,-36.859C-93.273,-36.117 -92.446,-35.102 -91.471,-34.253C-90.38,-33.302 -89.354,-32.768 -88.334,-32.62C-85.788,-32.251 -84.357,-31.066 -82.613,-29.431C-82.16,-29.005 -81.597,-28.642 -80.788,-28.253C-79.824,-27.788 -78.603,-27.357 -77.353,-27.04C-75.983,-26.691 -74.687,-26.509 -73.882,-26.55C-73.836,-26.552 -73.792,-26.554 -73.751,-26.559C-71.785,-26.73 -68.583,-28.813 -65.187,-32.13L-65.128,-32.187C-64.421,-32.878 -63.693,-33.634 -62.968,-34.433C-61.518,-36.024 -60.001,-37.728 -58.45,-39.515C-59.112,-38.109 -59.656,-36.71 -60.107,-35.263C-60.479,-34.071 -60.783,-32.851 -61.044,-31.537C-61.118,-31.153 -61.193,-30.756 -61.26,-30.355C-61.469,-29.112 -61.637,-27.814 -61.773,-26.382C-61.805,-26.034 -61.837,-25.671 -61.866,-25.3C-62.054,-22.929 -60.953,-21.331 -60.068,-20.048L-60.05,-20.025C-59.586,-19.349 -59.146,-18.712 -58.977,-18.066C-58.792,-17.353 -58.593,-16.829 -58.354,-16.417C-58.13,-16.027 -57.861,-15.72 -57.528,-15.476C-57.084,-15.152 -56.511,-14.929 -55.776,-14.8C-54.482,-14.568 -53.956,-14.071 -53.245,-13.282C-53.18,-13.21 -53.112,-13.134 -53.045,-13.058C-52.677,-12.644 -52.259,-12.175 -51.672,-11.628C-49.753,-9.839 -48.909,-9.3 -47.69,-9.634C-47.024,-9.818 -46.449,-9.702 -45.831,-9.261C-45.12,-8.755 -44.336,-7.784 -43.432,-6.296C-42.683,-5.06 -42.158,-4.257 -41.694,-3.794C-40.993,-3.095 -40.423,-3.153 -39.29,-3.448C-37.987,-3.79 -37.313,-3.007 -36.716,-2.316C-36.46,-2.015 -36.216,-1.736 -35.938,-1.554C-35.884,-1.517 -35.823,-1.472 -35.753,-1.415C-35.487,-1.198 -35.146,-0.859 -34.754,-0.466C-34.091,0.196 -33.27,1.018 -32.528,1.495C-31.991,1.841 -31.562,1.968 -31.217,1.884C-30.981,1.829 -30.731,1.702 -30.433,1.489C-30.228,1.345 -30.022,1.175 -29.806,0.997C-29.091,0.405 -28.28,-0.261 -27.185,-0.323C-26.817,-0.345 -26.434,-0.296 -26.041,-0.179C-25.607,-0.048 -25.218,0.083 -24.839,0.208C-23.085,0.794 -21.925,1.181 -20.757,0.038C-20.704,-0.015 -20.652,-0.069 -20.6,-0.128C-20.479,-0.263 -20.353,-0.392 -20.226,-0.515C-19.56,-1.167 -18.842,-1.681 -18.03,-2.079C-17.354,-2.415 -16.609,-2.671 -15.756,-2.864C-14.917,-3.056 -14.339,-3.339 -13.887,-3.782C-13.724,-3.943 -13.575,-4.122 -13.438,-4.333C-12.997,-4.999 -12.737,-5.802 -12.53,-6.448C-12.17,-7.562 -11.619,-9.118 -10.977,-10.829C-10.558,-11.943 -10.135,-13.034 -9.782,-13.907C-9.71,-14.087 -9.634,-14.275 -9.555,-14.466C-9.261,-15.181 -8.928,-15.989 -8.659,-16.823C-8.208,-18.23 -8.046,-19.394 -8.167,-20.382C-8.19,-20.573 -8.225,-20.757 -8.269,-20.933C-8.398,-21.454 -8.647,-22.591 -8.991,-24.221L-9.1,-24.732C-9.222,-25.318 -9.353,-25.946 -9.487,-26.606C-9.798,-28.114 -10.126,-29.736 -10.435,-31.292C-10.885,-33.556 -11.698,-37.701 -12.079,-40.021C-12.134,-40.356 -12.178,-40.642 -12.21,-40.872C-12.379,-42.079 -12.703,-43.646 -13.124,-45.283C-13.685,-47.464 -14.924,-51.685 -16.95,-55.669C-16.071,-54.925 -15.296,-54.208 -14.599,-53.433C-13.945,-52.706 -13.394,-51.96 -12.911,-51.152C-12.257,-50.061 -11.328,-49.038 -10.361,-48.347C-9.751,-47.91 -9.162,-47.628 -8.611,-47.503C-8.412,-47.458 -8.218,-47.434 -8.032,-47.435C-7.521,-47.431 -7.082,-47.601 -6.729,-47.935C-6.719,-47.944 -6.71,-47.954 -6.7,-47.962C-6.585,-48.075 -6.475,-48.21 -6.362,-48.374C-6.165,-48.663 -6.022,-48.978 -5.935,-49.312C-5.845,-49.657 -5.816,-50.025 -5.849,-50.404C-5.901,-51.015 -6.111,-51.652 -6.476,-52.302C-7.134,-53.478 -8.247,-54.628 -9.784,-55.72C-10.702,-56.374 -11.655,-57.052 -12.589,-57.745C-14.134,-58.895 -15.847,-60.245 -17.589,-61.946C-17.08,-61.579 -16.576,-61.226 -16.081,-60.892C-15.29,-60.361 -14.418,-59.835 -13.492,-59.333C-9.497,-57.166 -5.208,-55.81 -3.006,-55.193C-1.378,-54.737 0.184,-54.38 1.386,-54.188C1.616,-54.149 1.899,-54.101 2.235,-54.037C3.945,-53.72 7.033,-53.071 10.926,-52.212C12.477,-51.87 14.091,-51.509 15.592,-51.167C16.247,-51.019 16.874,-50.874 17.457,-50.739L17.966,-50.62C19.564,-50.249 20.727,-49.968 21.237,-49.831C21.413,-49.782 21.598,-49.745 21.787,-49.718C22.772,-49.575 23.94,-49.712 25.354,-50.135C26.194,-50.386 27.011,-50.702 27.729,-50.98C27.925,-51.056 28.113,-51.128 28.294,-51.196C29.164,-51.527 30.295,-51.939 31.396,-52.325C33.122,-52.933 34.689,-53.451 35.81,-53.788C36.46,-53.983 37.267,-54.224 37.942,-54.651C38.157,-54.784 38.34,-54.929 38.503,-55.087C38.956,-55.532 39.251,-56.103 39.458,-56.939C39.67,-57.788 39.942,-58.527 40.291,-59.195C40.707,-59.999 41.235,-60.704 41.9,-61.358C42.027,-61.482 42.161,-61.605 42.298,-61.724C42.355,-61.775 42.413,-61.826 42.464,-61.878C43.632,-63.021 43.269,-64.189 42.723,-65.955C42.604,-66.335 42.481,-66.73 42.36,-67.165C42.251,-67.56 42.209,-67.944 42.237,-68.312C42.324,-69.404 43.009,-70.2 43.612,-70.903C43.797,-71.116 43.97,-71.319 44.118,-71.519C44.339,-71.815 44.468,-72.062 44.531,-72.296C44.619,-72.64 44.501,-73.071 44.168,-73.614C43.706,-74.366 42.901,-75.206 42.254,-75.88C41.868,-76.282 41.537,-76.63 41.326,-76.9C41.272,-76.97 41.226,-77.033 41.19,-77.089C41.017,-77.37 40.739,-77.618 40.445,-77.882C39.768,-78.493 38.999,-79.185 39.365,-80.479C39.686,-81.605 39.755,-82.174 39.072,-82.89C38.618,-83.364 37.827,-83.905 36.606,-84.681C35.136,-85.614 34.184,-86.419 33.693,-87.14C33.264,-87.768 33.161,-88.345 33.359,-89.009C33.718,-90.219 33.196,-91.073 31.448,-93.028C30.912,-93.628 30.453,-94.054 30.049,-94.431C29.973,-94.502 29.898,-94.569 29.828,-94.637C29.054,-95.363 28.566,-95.9 28.363,-97.198C28.249,-97.937 28.038,-98.514 27.724,-98.964C27.487,-99.301 27.185,-99.577 26.801,-99.811C26.392,-100.058 25.872,-100.267 25.165,-100.467C24.522,-100.652 23.893,-101.103 23.229,-101.582L23.204,-101.599C21.941,-102.511 20.367,-103.646 17.992,-103.507C17.624,-103.486 17.261,-103.461 16.908,-103.437C15.474,-103.331 14.171,-103.19 12.925,-103.007C12.523,-102.946 12.124,-102.882 11.74,-102.816C10.42,-102.581 9.194,-102.302 7.993,-101.956C6.538,-101.536 5.128,-101.023 3.71,-100.389C5.528,-101.902 7.264,-103.382 8.884,-104.798C9.698,-105.509 10.468,-106.22 11.176,-106.913L11.231,-106.968C14.62,-110.295 16.769,-113.453 16.981,-115.415C16.986,-115.456 16.989,-115.501 16.994,-115.545C17.052,-116.349 16.896,-117.652 16.576,-119.027C16.284,-120.283 15.879,-121.512 15.435,-122.486C15.063,-123.304 14.712,-123.874 14.294,-124.335C12.696,-126.112 11.542,-127.568 11.225,-130.121C11.099,-131.144 10.587,-132.181 9.661,-133.292C8.83,-134.285 7.831,-135.134 7.103,-135.753C7.009,-135.829 6.923,-135.905 6.838,-135.978C5.598,-137.038 5.595,-139.297 5.591,-141.107L5.592,-141.146C5.592,-141.321 5.591,-141.493 5.588,-141.655C5.575,-143.011 4.385,-144.544 3.429,-145.777C3.072,-146.236 2.763,-146.632 2.555,-146.968C2.492,-147.068 2.443,-147.185 2.409,-147.319C2.161,-148.267 2.662,-149.845 3.103,-151.236C3.319,-151.927 3.525,-152.575 3.599,-153.04C3.763,-154.056 3.115,-155.589 2.715,-156.413C2.517,-156.82 2.353,-157.109 2.321,-157.165C2.366,-157.248 2.646,-157.782 2.812,-158.722C2.979,-159.685 3.056,-161.269 2.454,-163.355C2.304,-163.882 2.116,-164.419 1.893,-164.958C1.935,-165.027 2.145,-165.435 1.975,-166.382C1.845,-167.116 1.514,-167.985 0.998,-168.96C0.737,-169.452 0.401,-169.874 0,-170.215" style="fill:rgb(245,170,118);fill-rule:nonzero;"/>
            </g>
        </g>
        <g transform="matrix(-1.74142,-1.10965,-1.09114,1.77097,2178.92,334.48)">
            <g transform="matrix(0.121005,0.0758189,-0.076675,0.122371,178.225,77.6121)">
                <path d="M0,139.488C1.081,140.507 3.374,141.294 8.17,139.27C9.367,138.764 10.674,138.101 12.054,137.298C13.024,136.734 14.004,136.015 14.969,135.162C15.737,134.483 16.515,133.7 17.279,132.838C19.259,130.606 21.273,127.698 23.269,124.192C24.869,121.38 26.47,118.18 28.157,114.414C29.103,112.306 30.074,110.021 31.128,107.429C32.036,105.2 32.713,102.505 33.143,99.422C33.377,97.737 33.54,95.916 33.627,94.004C33.638,93.787 33.646,93.558 33.655,93.328C33.686,92.464 33.703,91.57 33.705,90.669C33.706,89.588 33.688,88.465 33.648,87.33C33.57,85.157 33.415,82.886 33.186,80.58C33.007,78.784 32.783,76.951 32.518,75.13C32.176,72.776 31.766,70.429 31.298,68.153C31.294,68.132 31.288,68.109 31.284,68.087C31.413,68.226 31.542,68.367 31.673,68.503C32.581,69.439 33.548,70.247 34.474,70.84C34.754,71.018 35.029,71.177 35.295,71.316C35.296,71.485 35.308,71.657 35.333,71.83C35.389,72.185 35.498,72.542 35.657,72.886C35.836,73.275 36.076,73.639 36.368,73.97C36.61,74.243 36.88,74.484 37.173,74.688C37.487,74.906 37.823,75.078 38.171,75.197C38.267,75.23 38.363,75.258 38.459,75.282C38.463,75.47 38.498,75.659 38.565,75.845C38.648,76.07 38.773,76.277 38.937,76.463C39.061,76.603 39.201,76.722 39.354,76.82C39.595,76.973 39.862,77.067 40.129,77.092C40.276,77.106 40.424,77.097 40.567,77.067C40.662,77.046 40.752,77.014 40.84,76.977C41.302,79.705 42.604,87.417 44.828,100.98L44.96,100.959C42.722,87.327 41.42,79.605 40.962,76.913C41.099,76.834 41.218,76.732 41.314,76.611C41.491,76.385 41.591,76.101 41.6,75.791C41.601,75.762 41.597,75.732 41.597,75.703C41.63,75.709 41.666,75.717 41.702,75.72C42.011,75.748 42.305,75.685 42.551,75.536C42.613,75.498 42.672,75.454 42.727,75.406C42.928,75.228 43.069,74.984 43.134,74.713C44.394,75.252 46.793,76.198 49.976,77.081C54.392,78.308 61.257,79.661 68.895,79.146L68.886,79.014C61.269,79.528 54.42,78.177 50.015,76.955C46.814,76.066 44.407,75.115 43.158,74.579C43.165,74.526 43.172,74.472 43.172,74.419C43.18,74.152 43.119,73.874 42.998,73.617C42.919,73.453 42.816,73.299 42.692,73.159C42.443,72.875 42.119,72.675 41.777,72.582C41.767,72.412 41.744,72.24 41.707,72.069C41.631,71.71 41.502,71.355 41.323,71.015C41.157,70.701 40.95,70.403 40.71,70.131C40.417,69.8 40.084,69.516 39.72,69.291C39.575,69.201 39.427,69.123 39.276,69.053C39.188,68.522 39.026,67.944 38.786,67.323C38.39,66.299 37.791,65.189 37.054,64.113C36.814,63.761 36.554,63.412 36.285,63.068C36.469,63.131 36.65,63.193 36.835,63.256C39.037,63.997 41.315,64.69 43.609,65.318C45.387,65.803 47.18,66.252 48.938,66.646C51.202,67.156 53.437,67.588 55.581,67.928C56.702,68.106 57.813,68.262 58.889,68.394C59.783,68.501 60.673,68.593 61.533,68.669C61.759,68.687 61.985,68.706 62.208,68.722C64.116,68.87 65.944,68.929 67.643,68.903C70.757,68.853 73.515,68.509 75.839,67.881C78.54,67.15 80.926,66.466 83.132,65.785C87.077,64.57 90.447,63.373 93.436,62.127C97.157,60.574 100.289,58.928 102.747,57.238C103.696,56.583 104.568,55.907 105.335,55.228C106.3,54.375 107.133,53.489 107.812,52.595C108.777,51.324 109.594,50.107 110.241,48.981C112.835,44.468 112.335,42.095 111.457,40.899C111.198,40.547 110.869,40.243 110.477,39.998C109.701,39.513 109.003,39.189 108.403,39.037C107.631,38.841 107.28,38.991 107.219,39.02C106.787,38.804 106.352,38.617 105.928,38.461C104.237,37.841 102.921,37.807 102.114,37.89C101.329,37.97 100.869,38.172 100.799,38.204C100.753,38.174 100.524,38.021 100.199,37.833C99.541,37.453 98.312,36.827 97.461,36.902C97.072,36.934 96.523,37.066 95.94,37.206C94.764,37.487 93.428,37.807 92.658,37.547C92.551,37.51 92.457,37.463 92.377,37.405C92.11,37.212 91.801,36.933 91.441,36.611C90.479,35.747 89.282,34.672 88.163,34.581C88.026,34.569 87.885,34.558 87.738,34.548L87.71,34.546C86.209,34.434 84.343,34.299 83.538,33.209C83.484,33.135 83.427,33.057 83.369,32.976C82.899,32.336 82.257,31.461 81.485,30.716C80.621,29.883 79.794,29.397 78.955,29.232C76.862,28.818 75.727,27.777 74.35,26.349C73.993,25.978 73.542,25.653 72.889,25.297C72.109,24.872 71.116,24.464 70.094,24.147C68.975,23.801 67.907,23.595 67.24,23.596C67.202,23.596 67.165,23.596 67.131,23.597C65.495,23.657 62.755,25.248 59.803,27.851L59.752,27.896C59.137,28.439 58.503,29.035 57.868,29.666C56.6,30.924 55.271,32.269 53.913,33.685C54.52,32.55 55.029,31.414 55.463,30.234C55.821,29.261 56.125,28.264 56.396,27.186C56.474,26.873 56.552,26.547 56.625,26.217C56.851,25.197 57.044,24.127 57.217,22.947C57.257,22.661 57.3,22.361 57.34,22.055C57.595,20.098 56.749,18.729 56.071,17.63L56.058,17.609C55.701,17.03 55.363,16.485 55.251,15.94C55.127,15.343 54.984,14.902 54.805,14.55C54.635,14.217 54.425,13.951 54.159,13.735C53.806,13.447 53.34,13.239 52.737,13.101C51.675,12.856 51.259,12.422 50.705,11.738C50.653,11.675 50.601,11.61 50.548,11.545C50.26,11.185 49.934,10.779 49.471,10.301C47.957,8.738 47.28,8.258 46.257,8.482C45.696,8.606 45.226,8.487 44.732,8.096C44.165,7.647 43.556,6.81 42.87,5.539C42.301,4.484 41.9,3.796 41.536,3.394C40.983,2.786 40.509,2.808 39.559,3.007C38.465,3.234 37.939,2.556 37.475,1.959C37.274,1.7 37.084,1.457 36.862,1.296C36.818,1.263 36.77,1.223 36.714,1.173C36.503,0.982 36.235,0.687 35.927,0.344C35.405,-0.232 34.76,-0.947 34.165,-1.373C33.735,-1.682 33.386,-1.806 33.096,-1.751C32.898,-1.715 32.687,-1.62 32.43,-1.456C32.254,-1.345 32.077,-1.214 31.889,-1.075C31.272,-0.616 30.573,-0.098 29.663,-0.092C29.358,-0.09 29.042,-0.146 28.722,-0.261C28.368,-0.387 28.051,-0.51 27.742,-0.631C26.314,-1.189 25.369,-1.558 24.354,-0.661C24.308,-0.619 24.263,-0.576 24.217,-0.531C24.11,-0.425 24,-0.324 23.891,-0.226C23.311,0.287 22.695,0.681 22.007,0.978C21.432,1.226 20.805,1.408 20.09,1.533C19.387,1.656 18.896,1.865 18.502,2.215C18.36,2.34 18.23,2.482 18.108,2.65C17.714,3.184 17.466,3.839 17.267,4.364C16.922,5.272 16.4,6.538 15.796,7.929C15.402,8.832 15.005,9.72 14.677,10.428C14.61,10.574 14.539,10.725 14.465,10.882C14.191,11.46 13.882,12.116 13.624,12.797C13.191,13.942 13.008,14.9 13.067,15.723C13.078,15.882 13.099,16.037 13.128,16.184C13.213,16.621 13.372,17.573 13.587,18.937L13.656,19.365C13.732,19.856 13.815,20.382 13.898,20.933C14.093,22.196 14.296,23.553 14.485,24.855C14.764,26.75 15.263,30.217 15.48,32.154C15.512,32.434 15.537,32.674 15.554,32.865C15.643,33.873 15.846,35.184 16.125,36.558C16.498,38.387 17.347,41.935 18.857,45.322C18.161,44.668 17.549,44.041 17.004,43.369C16.493,42.74 16.068,42.099 15.702,41.41C15.207,40.478 14.479,39.592 13.708,38.979C13.221,38.592 12.745,38.333 12.294,38.206C12.131,38.16 11.971,38.133 11.817,38.125C11.394,38.101 11.023,38.222 10.716,38.485C10.708,38.492 10.7,38.5 10.692,38.507C10.592,38.595 10.494,38.703 10.395,38.834C10.219,39.064 10.088,39.32 10.001,39.592C9.912,39.875 9.872,40.177 9.883,40.494C9.901,41.001 10.049,41.538 10.324,42.092C10.819,43.092 11.693,44.092 12.919,45.062C13.653,45.642 14.414,46.244 15.158,46.857C16.389,47.875 17.751,49.065 19.123,50.548C18.717,50.222 18.314,49.908 17.918,49.611C17.285,49.136 16.585,48.666 15.84,48.211C12.621,46.248 9.126,44.943 7.328,44.341C5.998,43.894 4.72,43.532 3.732,43.323C3.543,43.281 3.311,43.228 3.035,43.162C1.631,42.828 -0.898,42.161 -4.087,41.285C-5.356,40.936 -6.679,40.569 -7.908,40.223C-8.445,40.072 -8.958,39.927 -9.435,39.791L-9.852,39.671C-11.16,39.297 -12.11,39.014 -12.528,38.879C-12.672,38.832 -12.823,38.793 -12.979,38.761C-13.788,38.603 -14.761,38.666 -15.951,38.958C-16.657,39.13 -17.347,39.358 -17.954,39.557C-18.119,39.612 -18.278,39.664 -18.43,39.713C-19.165,39.95 -20.118,40.244 -21.047,40.518C-22.502,40.948 -23.822,41.312 -24.765,41.544C-25.312,41.677 -25.99,41.843 -26.568,42.169C-26.751,42.27 -26.908,42.383 -27.05,42.508C-27.444,42.855 -27.712,43.316 -27.919,44C-28.131,44.695 -28.388,45.295 -28.704,45.835C-29.083,46.482 -29.549,47.045 -30.128,47.557C-30.238,47.655 -30.354,47.752 -30.473,47.844C-30.523,47.884 -30.571,47.925 -30.616,47.965C-31.632,48.862 -31.38,49.844 -31.002,51.332C-30.92,51.651 -30.835,51.982 -30.753,52.348C-30.679,52.679 -30.661,53.002 -30.7,53.302C-30.818,54.205 -31.417,54.836 -31.948,55.392C-32.109,55.56 -32.261,55.721 -32.393,55.881C-32.588,56.117 -32.706,56.316 -32.767,56.508C-32.854,56.789 -32.775,57.15 -32.522,57.615C-32.17,58.258 -31.54,58.986 -31.032,59.573C-30.729,59.922 -30.469,60.223 -30.306,60.456C-30.265,60.515 -30.229,60.57 -30.202,60.618C-30.069,60.858 -29.85,61.076 -29.618,61.306C-29.082,61.841 -28.474,62.446 -28.833,63.502C-29.146,64.422 -29.227,64.89 -28.691,65.511C-28.336,65.924 -27.702,66.406 -26.724,67.098C-25.546,67.934 -24.79,68.641 -24.414,69.259C-24.085,69.797 -24.024,70.279 -24.217,70.82C-24.564,71.808 -24.169,72.537 -22.802,74.231C-22.384,74.749 -22.021,75.122 -21.702,75.451C-21.643,75.513 -21.584,75.572 -21.528,75.631C-20.917,76.265 -20.536,76.73 -20.422,77.814C-20.359,78.43 -20.209,78.918 -19.967,79.303C-19.786,79.592 -19.546,79.835 -19.238,80.044C-18.91,80.266 -18.489,80.462 -17.911,80.656C-17.386,80.836 -16.884,81.236 -16.354,81.661L-16.335,81.676C-15.327,82.484 -14.07,83.491 -12.098,83.476C-11.792,83.474 -11.489,83.468 -11.197,83.463C-10.003,83.435 -8.919,83.374 -7.88,83.274C-7.544,83.242 -7.21,83.206 -6.89,83.166C-5.787,83.028 -4.759,82.847 -3.75,82.612C-2.527,82.326 -1.338,81.96 -0.137,81.494C-1.706,82.671 -3.206,83.824 -4.607,84.928C-5.312,85.483 -5.979,86.04 -6.595,86.584L-6.644,86.628C-9.59,89.24 -11.502,91.765 -11.761,93.382C-11.767,93.416 -11.771,93.453 -11.777,93.489C-11.859,94.152 -11.784,95.238 -11.577,96.391C-11.389,97.444 -11.104,98.478 -10.778,99.303C-10.503,99.997 -10.237,100.484 -9.911,100.883C-8.662,102.424 -7.767,103.677 -7.612,105.805C-7.551,106.658 -7.17,107.539 -6.449,108.497C-5.803,109.355 -5.012,110.1 -4.434,110.643C-4.36,110.712 -4.292,110.777 -4.225,110.841C-3.242,111.772 -3.333,113.642 -3.406,115.142L-3.409,115.174C-3.416,115.319 -3.423,115.462 -3.428,115.597C-3.474,116.72 -2.553,118.041 -1.812,119.101C-1.536,119.497 -1.297,119.838 -1.139,120.125C-1.091,120.21 -1.056,120.309 -1.033,120.421C-0.868,121.217 -1.348,122.503 -1.771,123.636C-1.98,124.199 -2.178,124.728 -2.259,125.109C-2.438,125.944 -1.966,127.241 -1.669,127.941C-1.521,128.287 -1.398,128.533 -1.374,128.581C-1.415,128.647 -1.669,129.078 -1.846,129.848C-2.025,130.639 -2.155,131.95 -1.745,133.702C-1.643,134.145 -1.509,134.597 -1.347,135.053C-1.385,135.108 -1.576,135.438 -1.475,136.229C-1.397,136.843 -1.16,137.576 -0.775,138.406C-0.579,138.825 -0.318,139.188 0,139.488" style="fill:rgb(245,170,118);fill-rule:nonzero;"/>
            </g>
        </g>
        <g transform="matrix(-1.74142,-1.10965,-1.09114,1.77097,2178.92,334.48)">
            <g transform="matrix(-0.0038437,-0.105397,0.109146,-0.00228319,253.412,135.068)">
                <path d="M0,139.488C1.081,140.507 3.374,141.294 8.17,139.27C9.367,138.764 10.674,138.101 12.054,137.298C13.024,136.734 14.004,136.015 14.969,135.162C15.737,134.483 16.515,133.7 17.279,132.838C19.259,130.606 21.273,127.698 23.269,124.192C24.869,121.38 26.47,118.18 28.157,114.414C29.103,112.306 30.074,110.021 31.128,107.429C32.036,105.2 32.713,102.505 33.143,99.422C33.377,97.737 33.54,95.916 33.627,94.004C33.638,93.787 33.646,93.558 33.655,93.328C33.686,92.464 33.703,91.57 33.705,90.669C33.706,89.588 33.688,88.465 33.648,87.33C33.57,85.157 33.415,82.886 33.186,80.58C33.007,78.784 32.783,76.951 32.518,75.13C32.176,72.776 31.766,70.429 31.298,68.153C31.294,68.132 31.288,68.109 31.284,68.087C31.413,68.226 31.542,68.367 31.673,68.503C32.581,69.439 33.548,70.247 34.474,70.84C34.754,71.018 35.029,71.177 35.295,71.316C35.296,71.485 35.308,71.657 35.333,71.83C35.389,72.185 35.498,72.542 35.657,72.886C35.836,73.275 36.076,73.639 36.368,73.97C36.61,74.243 36.88,74.484 37.173,74.688C37.487,74.906 37.823,75.078 38.171,75.197C38.267,75.23 38.363,75.258 38.459,75.282C38.463,75.47 38.498,75.659 38.565,75.845C38.648,76.07 38.773,76.277 38.937,76.463C39.061,76.603 39.201,76.722 39.354,76.82C39.595,76.973 39.862,77.067 40.129,77.092C40.276,77.106 40.424,77.097 40.567,77.067C40.662,77.046 40.752,77.014 40.84,76.977C41.302,79.705 42.604,87.417 44.828,100.98L44.96,100.959C42.722,87.327 41.42,79.605 40.962,76.913C41.099,76.834 41.218,76.732 41.314,76.611C41.491,76.385 41.591,76.101 41.6,75.791C41.601,75.762 41.597,75.732 41.597,75.703C41.63,75.709 41.666,75.717 41.702,75.72C42.011,75.748 42.305,75.685 42.551,75.536C42.613,75.498 42.672,75.454 42.727,75.406C42.928,75.228 43.069,74.984 43.134,74.713C44.394,75.252 46.793,76.198 49.976,77.081C54.392,78.308 61.257,79.661 68.895,79.146L68.886,79.014C61.269,79.528 54.42,78.177 50.015,76.955C46.814,76.066 44.407,75.115 43.158,74.579C43.165,74.526 43.172,74.472 43.172,74.419C43.18,74.152 43.119,73.874 42.998,73.617C42.919,73.453 42.816,73.299 42.692,73.159C42.443,72.875 42.119,72.675 41.777,72.582C41.767,72.412 41.744,72.24 41.707,72.069C41.631,71.71 41.502,71.355 41.323,71.015C41.157,70.701 40.95,70.403 40.71,70.131C40.417,69.8 40.084,69.516 39.72,69.291C39.575,69.201 39.427,69.123 39.276,69.053C39.188,68.522 39.026,67.944 38.786,67.323C38.39,66.299 37.791,65.189 37.054,64.113C36.814,63.761 36.554,63.412 36.285,63.068C36.469,63.131 36.65,63.193 36.835,63.256C39.037,63.997 41.315,64.69 43.609,65.318C45.387,65.803 47.18,66.252 48.938,66.646C51.202,67.156 53.437,67.588 55.581,67.928C56.702,68.106 57.813,68.262 58.889,68.394C59.783,68.501 60.673,68.593 61.533,68.669C61.759,68.687 61.985,68.706 62.208,68.722C64.116,68.87 65.944,68.929 67.643,68.903C70.757,68.853 73.515,68.509 75.839,67.881C78.54,67.15 80.926,66.466 83.132,65.785C87.077,64.57 90.447,63.373 93.436,62.127C97.157,60.574 100.289,58.928 102.747,57.238C103.696,56.583 104.568,55.907 105.335,55.228C106.3,54.375 107.133,53.489 107.812,52.595C108.777,51.324 109.594,50.107 110.241,48.981C112.835,44.468 112.335,42.095 111.457,40.899C111.198,40.547 110.869,40.243 110.477,39.998C109.701,39.513 109.003,39.189 108.403,39.037C107.631,38.841 107.28,38.991 107.219,39.02C106.787,38.804 106.352,38.617 105.928,38.461C104.237,37.841 102.921,37.807 102.114,37.89C101.329,37.97 100.869,38.172 100.799,38.204C100.753,38.174 100.524,38.021 100.199,37.833C99.541,37.453 98.312,36.827 97.461,36.902C97.072,36.934 96.523,37.066 95.94,37.206C94.764,37.487 93.428,37.807 92.658,37.547C92.551,37.51 92.457,37.463 92.377,37.405C92.11,37.212 91.801,36.933 91.441,36.611C90.479,35.747 89.282,34.672 88.163,34.581C88.026,34.569 87.885,34.558 87.738,34.548L87.71,34.546C86.209,34.434 84.343,34.299 83.538,33.209C83.484,33.135 83.427,33.057 83.369,32.976C82.899,32.336 82.257,31.461 81.485,30.716C80.621,29.883 79.794,29.397 78.955,29.232C76.862,28.818 75.727,27.777 74.35,26.349C73.993,25.978 73.542,25.653 72.889,25.297C72.109,24.872 71.116,24.464 70.094,24.147C68.975,23.801 67.907,23.595 67.24,23.596C67.202,23.596 67.165,23.596 67.131,23.597C65.495,23.657 62.755,25.248 59.803,27.851L59.752,27.896C59.137,28.439 58.503,29.035 57.868,29.666C56.6,30.924 55.271,32.269 53.913,33.685C54.52,32.55 55.029,31.414 55.463,30.234C55.821,29.261 56.125,28.264 56.396,27.186C56.474,26.873 56.552,26.547 56.625,26.217C56.851,25.197 57.044,24.127 57.217,22.947C57.257,22.661 57.3,22.361 57.34,22.055C57.595,20.098 56.749,18.729 56.071,17.63L56.058,17.609C55.701,17.03 55.363,16.485 55.251,15.94C55.127,15.343 54.984,14.902 54.805,14.55C54.635,14.217 54.425,13.951 54.159,13.735C53.806,13.447 53.34,13.239 52.737,13.101C51.675,12.856 51.259,12.422 50.705,11.738C50.653,11.675 50.601,11.61 50.548,11.545C50.26,11.185 49.934,10.779 49.471,10.301C47.957,8.738 47.28,8.258 46.257,8.482C45.696,8.606 45.226,8.487 44.732,8.096C44.165,7.647 43.556,6.81 42.87,5.539C42.301,4.484 41.9,3.796 41.536,3.394C40.983,2.786 40.509,2.808 39.559,3.007C38.465,3.234 37.939,2.556 37.475,1.959C37.274,1.7 37.084,1.457 36.862,1.296C36.818,1.263 36.77,1.223 36.714,1.173C36.503,0.982 36.235,0.687 35.927,0.344C35.405,-0.232 34.76,-0.947 34.165,-1.373C33.735,-1.682 33.386,-1.806 33.096,-1.751C32.898,-1.715 32.687,-1.62 32.43,-1.456C32.254,-1.345 32.077,-1.214 31.889,-1.075C31.272,-0.616 30.573,-0.098 29.663,-0.092C29.358,-0.09 29.042,-0.146 28.722,-0.261C28.368,-0.387 28.051,-0.51 27.742,-0.631C26.314,-1.189 25.369,-1.558 24.354,-0.661C24.308,-0.619 24.263,-0.576 24.217,-0.531C24.11,-0.425 24,-0.324 23.891,-0.226C23.311,0.287 22.695,0.681 22.007,0.978C21.432,1.226 20.805,1.408 20.09,1.533C19.387,1.656 18.896,1.865 18.502,2.215C18.36,2.34 18.23,2.482 18.108,2.65C17.714,3.184 17.466,3.839 17.267,4.364C16.922,5.272 16.4,6.538 15.796,7.929C15.402,8.832 15.005,9.72 14.677,10.428C14.61,10.574 14.539,10.725 14.465,10.882C14.191,11.46 13.882,12.116 13.624,12.797C13.191,13.942 13.008,14.9 13.067,15.723C13.078,15.882 13.099,16.037 13.128,16.184C13.213,16.621 13.372,17.573 13.587,18.937L13.656,19.365C13.732,19.856 13.815,20.382 13.898,20.933C14.093,22.196 14.296,23.553 14.485,24.855C14.764,26.75 15.263,30.217 15.48,32.154C15.512,32.434 15.537,32.674 15.554,32.865C15.643,33.873 15.846,35.184 16.125,36.558C16.498,38.387 17.347,41.935 18.857,45.322C18.161,44.668 17.549,44.041 17.004,43.369C16.493,42.74 16.068,42.099 15.702,41.41C15.207,40.478 14.479,39.592 13.708,38.979C13.221,38.592 12.745,38.333 12.294,38.206C12.131,38.16 11.971,38.133 11.817,38.125C11.394,38.101 11.023,38.222 10.716,38.485C10.708,38.492 10.7,38.5 10.692,38.507C10.592,38.595 10.494,38.703 10.395,38.834C10.219,39.064 10.088,39.32 10.001,39.592C9.912,39.875 9.872,40.177 9.883,40.494C9.901,41.001 10.049,41.538 10.324,42.092C10.819,43.092 11.693,44.092 12.919,45.062C13.653,45.642 14.414,46.244 15.158,46.857C16.389,47.875 17.751,49.065 19.123,50.548C18.717,50.222 18.314,49.908 17.918,49.611C17.285,49.136 16.585,48.666 15.84,48.211C12.621,46.248 9.126,44.943 7.328,44.341C5.998,43.894 4.72,43.532 3.732,43.323C3.543,43.281 3.311,43.228 3.035,43.162C1.631,42.828 -0.898,42.161 -4.087,41.285C-5.356,40.936 -6.679,40.569 -7.908,40.223C-8.445,40.072 -8.958,39.927 -9.435,39.791L-9.852,39.671C-11.16,39.297 -12.11,39.014 -12.528,38.879C-12.672,38.832 -12.823,38.793 -12.979,38.761C-13.788,38.603 -14.761,38.666 -15.951,38.958C-16.657,39.13 -17.347,39.358 -17.954,39.557C-18.119,39.612 -18.278,39.664 -18.43,39.713C-19.165,39.95 -20.118,40.244 -21.047,40.518C-22.502,40.948 -23.822,41.312 -24.765,41.544C-25.312,41.677 -25.99,41.843 -26.568,42.169C-26.751,42.27 -26.908,42.383 -27.05,42.508C-27.444,42.855 -27.712,43.316 -27.919,44C-28.131,44.695 -28.388,45.295 -28.704,45.835C-29.083,46.482 -29.549,47.045 -30.128,47.557C-30.238,47.655 -30.354,47.752 -30.473,47.844C-30.523,47.884 -30.571,47.925 -30.616,47.965C-31.632,48.862 -31.38,49.844 -31.002,51.332C-30.92,51.651 -30.835,51.982 -30.753,52.348C-30.679,52.679 -30.661,53.002 -30.7,53.302C-30.818,54.205 -31.417,54.836 -31.948,55.392C-32.109,55.56 -32.261,55.721 -32.393,55.881C-32.588,56.117 -32.706,56.316 -32.767,56.508C-32.854,56.789 -32.775,57.15 -32.522,57.615C-32.17,58.258 -31.54,58.986 -31.032,59.573C-30.729,59.922 -30.469,60.223 -30.306,60.456C-30.265,60.515 -30.229,60.57 -30.202,60.618C-30.069,60.858 -29.85,61.076 -29.618,61.306C-29.082,61.841 -28.474,62.446 -28.833,63.502C-29.146,64.422 -29.227,64.89 -28.691,65.511C-28.336,65.924 -27.702,66.406 -26.724,67.098C-25.546,67.934 -24.79,68.641 -24.414,69.259C-24.085,69.797 -24.024,70.279 -24.217,70.82C-24.564,71.808 -24.169,72.537 -22.802,74.231C-22.384,74.749 -22.021,75.122 -21.702,75.451C-21.643,75.513 -21.584,75.572 -21.528,75.631C-20.917,76.265 -20.536,76.73 -20.422,77.814C-20.359,78.43 -20.209,78.918 -19.967,79.303C-19.786,79.592 -19.546,79.835 -19.238,80.044C-18.91,80.266 -18.489,80.462 -17.911,80.656C-17.386,80.836 -16.884,81.236 -16.354,81.661L-16.335,81.676C-15.327,82.484 -14.07,83.491 -12.098,83.476C-11.792,83.474 -11.489,83.468 -11.197,83.463C-10.003,83.435 -8.919,83.374 -7.88,83.274C-7.544,83.242 -7.21,83.206 -6.89,83.166C-5.787,83.028 -4.759,82.847 -3.75,82.612C-2.527,82.326 -1.338,81.96 -0.137,81.494C-1.706,82.671 -3.206,83.824 -4.607,84.928C-5.312,85.483 -5.979,86.04 -6.595,86.584L-6.644,86.628C-9.59,89.24 -11.502,91.765 -11.761,93.382C-11.767,93.416 -11.771,93.453 -11.777,93.489C-11.859,94.152 -11.784,95.238 -11.577,96.391C-11.389,97.444 -11.104,98.478 -10.778,99.303C-10.503,99.997 -10.237,100.484 -9.911,100.883C-8.662,102.424 -7.767,103.677 -7.612,105.805C-7.551,106.658 -7.17,107.539 -6.449,108.497C-5.803,109.355 -5.012,110.1 -4.434,110.643C-4.36,110.712 -4.292,110.777 -4.225,110.841C-3.242,111.772 -3.333,113.642 -3.406,115.142L-3.409,115.174C-3.416,115.319 -3.423,115.462 -3.428,115.597C-3.474,116.72 -2.553,118.041 -1.812,119.101C-1.536,119.497 -1.297,119.838 -1.139,120.125C-1.091,120.21 -1.056,120.309 -1.033,120.421C-0.868,121.217 -1.348,122.503 -1.771,123.636C-1.98,124.199 -2.178,124.728 -2.259,125.109C-2.438,125.944 -1.966,127.241 -1.669,127.941C-1.521,128.287 -1.398,128.533 -1.374,128.581C-1.415,128.647 -1.669,129.078 -1.846,129.848C-2.025,130.639 -2.155,131.95 -1.745,133.702C-1.643,134.145 -1.509,134.597 -1.347,135.053C-1.385,135.108 -1.576,135.438 -1.475,136.229C-1.397,136.843 -1.16,137.576 -0.775,138.406C-0.579,138.825 -0.318,139.188 0,139.488" style="fill:rgb(245,170,118);fill-rule:nonzero;"/>
            </g>
        </g>
        <g transform="matrix(-0.768171,0,0,0.781207,2127.15,-1409.25)">
            <g transform="matrix(-0.429862,0,0,0.432041,486.357,2285.8)">
                <path d="M0,-21.521C2.385,-20.393 4.332,-19.068 5.681,-18.022C7.044,-16.965 8.013,-16.035 8.508,-15.532C8.493,-15.508 8.479,-15.484 8.469,-15.458C8.412,-15.331 8.387,-15.186 8.396,-15.039C8.4,-14.944 8.42,-14.85 8.451,-14.758C8.516,-14.574 8.632,-14.414 8.778,-14.301C8.75,-14.218 8.727,-14.131 8.711,-14.042C8.677,-13.854 8.669,-13.658 8.688,-13.459C8.706,-13.276 8.746,-13.093 8.809,-12.915C8.885,-12.697 8.989,-12.496 9.119,-12.317C9.171,-12.245 9.227,-12.178 9.285,-12.115C9.226,-11.855 9.191,-11.559 9.182,-11.233C6.338,-14.569 3.178,-18.116 0,-21.521M57.502,11.302C57.579,7.444 58.487,9.089 55.823,5.059C53.16,1.042 54.013,0.688 52.202,-3.682C50.391,-8.046 39.819,-7.067 39.819,-7.067C39.819,-7.067 46.105,-11.188 47.859,-12.839C49.608,-14.504 48.456,-22.655 46.098,-28.828C43.739,-34.995 44.315,-42.308 44.891,-46.289C45.474,-50.298 46.035,-63.312 38.148,-64.304C31.317,-65.135 18.631,-35.343 11.755,-13.47C11.733,-13.616 11.699,-13.762 11.649,-13.905C11.587,-14.084 11.504,-14.253 11.403,-14.407C11.295,-14.575 11.167,-14.723 11.024,-14.849C10.984,-14.883 10.944,-14.915 10.902,-14.946C10.938,-15.038 10.958,-15.135 10.962,-15.238C10.967,-15.362 10.947,-15.486 10.906,-15.606C10.874,-15.698 10.83,-15.784 10.774,-15.861C10.69,-15.981 10.58,-16.08 10.457,-16.144C10.389,-16.18 10.315,-16.205 10.241,-16.218C10.19,-16.227 10.143,-16.23 10.093,-16.228C10.406,-17.63 11.298,-21.59 12.896,-28.543L12.829,-28.559C11.224,-21.57 10.33,-17.605 10.021,-16.222C9.94,-16.21 9.863,-16.185 9.793,-16.146C9.662,-16.073 9.56,-15.956 9.494,-15.808C9.487,-15.794 9.484,-15.78 9.479,-15.765C9.463,-15.775 9.447,-15.785 9.432,-15.794C9.288,-15.869 9.135,-15.896 8.987,-15.873C8.95,-15.867 8.912,-15.857 8.877,-15.845C8.746,-15.799 8.629,-15.71 8.545,-15.591C8.046,-16.098 7.08,-17.025 5.725,-18.075C4.342,-19.146 2.336,-20.511 -0.127,-21.657C-10.065,-32.293 -20.121,-41.495 -21.11,-38.497C-22.586,-33.954 -16.499,-24.229 -14.53,-21.427C-12.562,-18.644 -9.074,-13.284 -6.827,-7.402C-4.581,-1.527 -1.123,5.327 0.075,5.788C1.269,6.234 4.721,6.472 4.721,6.472C4.721,6.472 1.646,10.683 3.203,14.91C4.761,19.147 5.133,19.017 6.316,23.375C7.503,27.733 6.979,26.051 8.768,29.007C10.554,31.944 10.515,34.362 11.748,34.599C12.977,34.834 14.168,35.597 15.292,37.749C16.41,39.886 17.381,40.384 17.953,39.997C18.526,39.61 22.398,43.614 23.422,42.374C24.449,41.129 25.613,41.19 22.972,25.948C22.604,23.81 22.268,21.943 21.962,20.309C23.36,21.814 25.037,23.56 27.057,25.591C39.176,37.843 41.324,36.49 44.676,36.109C48.033,35.705 50.898,28.88 52.424,28.478C53.95,28.069 55.24,26.661 54.948,24.072C54.666,21.485 56.073,19.668 58.148,18.127C60.222,16.587 57.433,15.145 57.502,11.302" style="fill:rgb(245,170,118);fill-rule:nonzero;"/>
            </g>
        </g>
    </g>
</svg>
