<?xml version="1.0" encoding="UTF-8" standalone="no"?>
<!DOCTYPE svg PUBLIC "-//W3C//DTD SVG 1.1//EN" "http://www.w3.org/Graphics/SVG/1.1/DTD/svg11.dtd">
<svg width="100%" height="100%" viewBox="0 0 364 356" version="1.1" xmlns="http://www.w3.org/2000/svg" xmlns:xlink="http://www.w3.org/1999/xlink" xml:space="preserve" xmlns:serif="http://www.serif.com/" style="fill-rule:evenodd;clip-rule:evenodd;stroke-linejoin:round;stroke-miterlimit:2;">
    <g transform="matrix(1,0,0,1,-57.1416,-316.489)">
        <g transform="matrix(1.11115,0,0,1.11115,-483.817,497.196)">
            <g transform="matrix(3.23311,0,0,3.23311,790.968,-107.463)">
                <path d="M0,-0.85C0.024,-0.437 -0.834,0.205 -1.348,0.71C-1.613,0.974 0.532,-0.354 0.777,-0.259C2.495,0.404 4.574,1.428 7.025,0.315C7.057,0.301 7.11,0.235 7.087,0.176C6.88,-0.352 5.168,-2.278 0.771,-0.973C0.771,-0.973 0.185,-1.795 -0.955,-2.199C-0.955,-2.199 -0.04,-1.53 0,-0.85" style="fill:rgb(163,194,102);fill-rule:nonzero;"/>
            </g>
            <g transform="matrix(3.23311,0,0,3.23311,491.278,38.3322)">
                <path d="M0,-0.85C0.024,-0.437 -0.834,0.205 -1.348,0.71C-1.613,0.974 0.532,-0.354 0.777,-0.259C2.495,0.404 4.574,1.428 7.025,0.315C7.057,0.301 7.11,0.235 7.087,0.176C6.88,-0.352 5.168,-2.278 0.771,-0.973C0.771,-0.973 0.185,-1.795 -0.955,-2.199C-0.955,-2.199 -0.04,-1.53 0,-0.85" style="fill:rgb(163,194,102);fill-rule:nonzero;"/>
            </g>
            <g transform="matrix(4.2965,0,0,4.2965,717.179,-153.182)">
                <path d="M0,-0.85C0.024,-0.437 -0.834,0.205 -1.348,0.71C-1.613,0.974 0.532,-0.354 0.777,-0.259C2.495,0.404 4.574,1.428 7.025,0.315C7.057,0.301 7.11,0.235 7.087,0.176C6.88,-0.352 5.168,-2.278 0.771,-0.973C0.771,-0.973 0.185,-1.795 -0.955,-2.199C-0.955,-2.199 -0.04,-1.53 0,-0.85" style="fill:rgb(163,194,102);fill-rule:nonzero;"/>
            </g>
            <g transform="matrix(1.80956,0,0,1.80956,689.503,-83.2221)">
                <path d="M0,-20.806C0.012,-20.808 0.085,-20.801 0.146,-20.792C0.323,-20.762 0.705,-20.685 1.015,-20.595C1.259,-20.522 1.419,-20.488 1.685,-20.4C2.015,-20.291 2.359,-20.162 2.71,-20.012C2.872,-19.943 3.038,-19.867 3.202,-19.786C3.519,-19.634 3.835,-19.465 4.156,-19.273C4.53,-19.049 5.034,-18.754 5.487,-18.446C5.778,-18.247 6.111,-18.015 6.379,-17.801C6.647,-17.589 6.901,-17.374 7.132,-17.157C7.675,-16.645 8.145,-16.153 8.5,-15.725C8.521,-15.703 8.553,-15.658 8.588,-15.615C9.099,-14.993 9.408,-14.526 9.468,-14.428C9.692,-14.075 9.928,-13.644 10.078,-13.348C10.607,-12.295 10.667,-12.053 10.667,-12.053C10.792,-11.764 10.822,-11.568 10.931,-11.249C10.956,-11.172 10.975,-11.068 10.998,-10.996C11.051,-10.83 11.1,-10.628 11.191,-10.372C11.196,-10.355 11.208,-10.342 11.222,-10.323C11.474,-9.905 11.661,-9.567 11.758,-9.378C11.776,-9.333 11.841,-9.201 11.878,-9.097C11.929,-8.962 12.061,-8.535 12.109,-8.369C12.179,-8.127 12.262,-7.854 12.294,-7.757C12.389,-7.442 12.497,-7.078 12.456,-6.962C12.435,-6.909 12.446,-6.536 12.5,-6.141C12.534,-5.895 12.578,-5.675 12.656,-5.534C12.671,-5.511 12.703,-5.454 12.744,-5.396C12.871,-5.22 12.999,-5.133 13.13,-5.053C13.184,-5.018 13.262,-4.967 13.387,-4.91C13.429,-4.888 13.509,-4.845 13.606,-4.814C13.745,-4.764 13.814,-4.748 13.874,-4.729C13.972,-4.702 14.055,-4.675 14.121,-4.65C14.195,-4.62 14.271,-4.589 14.315,-4.563C14.403,-4.512 14.438,-4.469 14.461,-4.438C14.525,-4.348 14.512,-4.206 14.486,-4.189C14.445,-4.148 14.273,-4.048 14.223,-4.023C14.175,-4.001 14.197,-3.994 14.202,-3.991C14.221,-3.981 14.383,-3.91 14.383,-3.91C14.42,-3.863 14.463,-3.803 14.417,-3.698C14.405,-3.664 14.248,-3.576 14.107,-3.522C13.946,-3.463 13.842,-3.47 13.782,-3.479C13.593,-3.494 13.47,-3.553 13.449,-3.558C13.366,-3.571 12.732,-3.673 12.619,-3.692C12.35,-3.736 12.093,-3.758 11.979,-3.664C11.825,-3.534 11.758,-3.365 11.573,-3.012C11.548,-2.964 11.257,-2.358 10.85,-2.059C10.561,-1.845 10.339,-1.764 10.224,-1.72C10.055,-1.658 9.819,-1.592 9.519,-1.539C9.413,-1.433 9.26,-1.29 9.073,-1.142C8.75,-0.897 8.346,-0.636 7.615,-0.494C7.398,-0.452 6.363,-0.161 6.22,-0.089C6.22,-0.089 6.037,0.002 5.898,-0.013C5.878,-0.018 5.894,-0.034 5.94,-0.05C6.064,-0.085 6.252,-0.155 6.259,-0.192C6.259,-0.192 6.354,-0.338 6.462,-0.354C6.462,-0.354 6.506,-0.36 6.511,-0.383C6.511,-0.383 6.612,-0.654 6.866,-0.672C6.866,-0.672 7.001,-0.651 7.035,-0.769C7.035,-0.769 7.072,-0.831 7.121,-0.806C7.128,-0.804 7.234,-0.795 7.25,-0.799C7.26,-0.8 7.213,-0.817 7.229,-0.825C7.267,-0.852 7.311,-0.897 7.314,-0.956C7.314,-0.956 7.326,-1.048 7.419,-1.046C7.419,-1.046 7.555,-1.041 7.61,-1.068C7.615,-1.068 7.617,-1.093 7.615,-1.099C7.617,-1.123 7.634,-1.168 7.668,-1.202C7.675,-1.207 7.689,-1.213 7.685,-1.232C7.673,-1.256 7.666,-1.32 7.675,-1.357C7.675,-1.357 7.703,-1.393 7.818,-1.45C7.38,-1.472 6.929,-1.528 6.776,-1.547C6.585,-1.572 6.448,-1.589 6.338,-1.594C6.225,-1.598 6.159,-1.604 6.106,-1.598C5.951,-1.588 5.85,-1.547 5.753,-1.504C5.707,-1.483 5.619,-1.43 5.531,-1.373C5.418,-1.297 5.312,-1.252 5.185,-1.172C5.12,-1.131 5.007,-1.068 4.914,-1.019C4.845,-0.981 4.773,-0.953 4.741,-0.937C4.642,-0.894 4.422,-0.804 4.129,-0.728C4.024,-0.7 3.911,-0.681 3.787,-0.657C3.678,-0.635 3.558,-0.621 3.479,-0.613C3.182,-0.574 2.876,-0.561 2.669,-0.567C2.604,-0.572 2.534,-0.579 2.481,-0.592C2.402,-0.611 2.338,-0.635 2.304,-0.667C2.262,-0.704 2.25,-0.725 2.246,-0.767C2.238,-0.831 2.28,-0.937 2.28,-0.937C2.313,-1.048 2.442,-1.27 2.59,-1.452C2.768,-1.666 2.832,-1.736 2.911,-1.836C2.969,-1.907 3.055,-1.994 3.126,-2.122C3.158,-2.171 3.186,-2.28 3.237,-2.406C3.297,-2.558 3.357,-2.727 3.398,-2.841C3.5,-3.136 3.493,-3.667 3.498,-3.85C3.498,-3.991 3.479,-4.242 3.454,-4.445C3.434,-4.628 3.396,-5.215 3.394,-5.348C3.385,-5.618 3.401,-5.79 3.401,-5.952C3.401,-6.085 3.431,-6.259 3.444,-6.415C3.265,-6.435 3.109,-6.415 3.011,-6.363C2.909,-6.308 2.752,-6.214 2.752,-6.214C2.188,-5.911 1.763,-5.645 1.391,-5.497C0.697,-5.217 0.178,-5.266 -0.174,-5.281C-0.291,-5.285 -0.194,-5.376 -0.137,-5.421C-0.027,-5.509 0.11,-5.62 0.11,-5.62C0.658,-6.111 0.901,-6.743 1.025,-7.296C1.252,-8.293 0.975,-9.238 0.739,-9.807C0.592,-10.157 0.409,-10.504 0.381,-10.557C0.259,-10.786 0.702,-10.63 0.702,-10.63C2.114,-9.778 3.558,-7.96 3.558,-7.96C3.591,-7.919 3.627,-7.885 3.662,-7.856C3.708,-8.01 3.762,-8.169 3.828,-8.334C3.933,-8.578 4.041,-8.741 4.177,-8.941C4.57,-9.519 5.062,-9.917 5.462,-10.203C6.227,-10.75 6.812,-11.237 7.056,-11.571C7.449,-12.118 7.641,-12.706 7.733,-13.254C7.766,-13.425 7.854,-14.064 7.839,-14.476C7.837,-14.523 7.8,-14.974 7.774,-15.16C7.766,-15.235 7.735,-15.398 7.735,-15.403C7.719,-15.439 7.7,-15.468 7.678,-15.512C7.652,-15.556 7.622,-15.605 7.597,-15.649C7.509,-15.802 7.402,-15.953 7.363,-16.01C7.015,-16.479 6.709,-16.824 6.48,-17.059C6.326,-17.217 5.771,-17.706 5.572,-17.861C5.212,-18.139 4.848,-18.41 4.476,-18.648C3.29,-19.417 1.846,-20.056 0.984,-20.391C0.76,-20.478 0.33,-20.629 0.208,-20.675C0.15,-20.695 0.023,-20.735 -0.007,-20.753C-0.049,-20.784 -0.03,-20.8 0,-20.806" style="fill:rgb(174,213,192);fill-rule:nonzero;"/>
            </g>
            <g transform="matrix(1.80956,0,0,1.80956,521.208,157.07)">
                <path d="M0,-20.806C0.012,-20.808 0.085,-20.801 0.146,-20.792C0.323,-20.762 0.705,-20.685 1.015,-20.595C1.259,-20.522 1.419,-20.488 1.685,-20.4C2.015,-20.291 2.359,-20.162 2.71,-20.012C2.872,-19.943 3.038,-19.867 3.202,-19.786C3.519,-19.634 3.835,-19.465 4.156,-19.273C4.53,-19.049 5.034,-18.754 5.487,-18.446C5.778,-18.247 6.111,-18.015 6.379,-17.801C6.647,-17.589 6.901,-17.374 7.132,-17.157C7.675,-16.645 8.145,-16.153 8.5,-15.725C8.521,-15.703 8.553,-15.658 8.588,-15.615C9.099,-14.993 9.408,-14.526 9.468,-14.428C9.692,-14.075 9.928,-13.644 10.078,-13.348C10.607,-12.295 10.667,-12.053 10.667,-12.053C10.792,-11.764 10.822,-11.568 10.931,-11.249C10.956,-11.172 10.975,-11.068 10.998,-10.996C11.051,-10.83 11.1,-10.628 11.191,-10.372C11.196,-10.355 11.208,-10.342 11.222,-10.323C11.474,-9.905 11.661,-9.567 11.758,-9.378C11.776,-9.333 11.841,-9.201 11.878,-9.097C11.929,-8.962 12.061,-8.535 12.109,-8.369C12.179,-8.127 12.262,-7.854 12.294,-7.757C12.389,-7.442 12.497,-7.078 12.456,-6.962C12.435,-6.909 12.446,-6.536 12.5,-6.141C12.534,-5.895 12.578,-5.675 12.656,-5.534C12.671,-5.511 12.703,-5.454 12.744,-5.396C12.871,-5.22 12.999,-5.133 13.13,-5.053C13.184,-5.018 13.262,-4.967 13.387,-4.91C13.429,-4.888 13.509,-4.845 13.606,-4.814C13.745,-4.764 13.814,-4.748 13.874,-4.729C13.972,-4.702 14.055,-4.675 14.121,-4.65C14.195,-4.62 14.271,-4.589 14.315,-4.563C14.403,-4.512 14.438,-4.469 14.461,-4.438C14.525,-4.348 14.512,-4.206 14.486,-4.189C14.445,-4.148 14.273,-4.048 14.223,-4.023C14.175,-4.001 14.197,-3.994 14.202,-3.991C14.221,-3.981 14.383,-3.91 14.383,-3.91C14.42,-3.863 14.463,-3.803 14.417,-3.698C14.405,-3.664 14.248,-3.576 14.107,-3.522C13.946,-3.463 13.842,-3.47 13.782,-3.479C13.593,-3.494 13.47,-3.553 13.449,-3.558C13.366,-3.571 12.732,-3.673 12.619,-3.692C12.35,-3.736 12.093,-3.758 11.979,-3.664C11.825,-3.534 11.758,-3.365 11.573,-3.012C11.548,-2.964 11.257,-2.358 10.85,-2.059C10.561,-1.845 10.339,-1.764 10.224,-1.72C10.055,-1.658 9.819,-1.592 9.519,-1.539C9.413,-1.433 9.26,-1.29 9.073,-1.142C8.75,-0.897 8.346,-0.636 7.615,-0.494C7.398,-0.452 6.363,-0.161 6.22,-0.089C6.22,-0.089 6.037,0.002 5.898,-0.013C5.878,-0.018 5.894,-0.034 5.94,-0.05C6.064,-0.085 6.252,-0.155 6.259,-0.192C6.259,-0.192 6.354,-0.338 6.462,-0.354C6.462,-0.354 6.506,-0.36 6.511,-0.383C6.511,-0.383 6.612,-0.654 6.866,-0.672C6.866,-0.672 7.001,-0.651 7.035,-0.769C7.035,-0.769 7.072,-0.831 7.121,-0.806C7.128,-0.804 7.234,-0.795 7.25,-0.799C7.26,-0.8 7.213,-0.817 7.229,-0.825C7.267,-0.852 7.311,-0.897 7.314,-0.956C7.314,-0.956 7.326,-1.048 7.419,-1.046C7.419,-1.046 7.555,-1.041 7.61,-1.068C7.615,-1.068 7.617,-1.093 7.615,-1.099C7.617,-1.123 7.634,-1.168 7.668,-1.202C7.675,-1.207 7.689,-1.213 7.685,-1.232C7.673,-1.256 7.666,-1.32 7.675,-1.357C7.675,-1.357 7.703,-1.393 7.818,-1.45C7.38,-1.472 6.929,-1.528 6.776,-1.547C6.585,-1.572 6.448,-1.589 6.338,-1.594C6.225,-1.598 6.159,-1.604 6.106,-1.598C5.951,-1.588 5.85,-1.547 5.753,-1.504C5.707,-1.483 5.619,-1.43 5.531,-1.373C5.418,-1.297 5.312,-1.252 5.185,-1.172C5.12,-1.131 5.007,-1.068 4.914,-1.019C4.845,-0.981 4.773,-0.953 4.741,-0.937C4.642,-0.894 4.422,-0.804 4.129,-0.728C4.024,-0.7 3.911,-0.681 3.787,-0.657C3.678,-0.635 3.558,-0.621 3.479,-0.613C3.182,-0.574 2.876,-0.561 2.669,-0.567C2.604,-0.572 2.534,-0.579 2.481,-0.592C2.402,-0.611 2.338,-0.635 2.304,-0.667C2.262,-0.704 2.25,-0.725 2.246,-0.767C2.238,-0.831 2.28,-0.937 2.28,-0.937C2.313,-1.048 2.442,-1.27 2.59,-1.452C2.768,-1.666 2.832,-1.736 2.911,-1.836C2.969,-1.907 3.055,-1.994 3.126,-2.122C3.158,-2.171 3.186,-2.28 3.237,-2.406C3.297,-2.558 3.357,-2.727 3.398,-2.841C3.5,-3.136 3.493,-3.667 3.498,-3.85C3.498,-3.991 3.479,-4.242 3.454,-4.445C3.434,-4.628 3.396,-5.215 3.394,-5.348C3.385,-5.618 3.401,-5.79 3.401,-5.952C3.401,-6.085 3.431,-6.259 3.444,-6.415C3.265,-6.435 3.109,-6.415 3.011,-6.363C2.909,-6.308 2.752,-6.214 2.752,-6.214C2.188,-5.911 1.763,-5.645 1.391,-5.497C0.697,-5.217 0.178,-5.266 -0.174,-5.281C-0.291,-5.285 -0.194,-5.376 -0.137,-5.421C-0.027,-5.509 0.11,-5.62 0.11,-5.62C0.658,-6.111 0.901,-6.743 1.025,-7.296C1.252,-8.293 0.975,-9.238 0.739,-9.807C0.592,-10.157 0.409,-10.504 0.381,-10.557C0.259,-10.786 0.702,-10.63 0.702,-10.63C2.114,-9.778 3.558,-7.96 3.558,-7.96C3.591,-7.919 3.627,-7.885 3.662,-7.856C3.708,-8.01 3.762,-8.169 3.828,-8.334C3.933,-8.578 4.041,-8.741 4.177,-8.941C4.57,-9.519 5.062,-9.917 5.462,-10.203C6.227,-10.75 6.812,-11.237 7.056,-11.571C7.449,-12.118 7.641,-12.706 7.733,-13.254C7.766,-13.425 7.854,-14.064 7.839,-14.476C7.837,-14.523 7.8,-14.974 7.774,-15.16C7.766,-15.235 7.735,-15.398 7.735,-15.403C7.719,-15.439 7.7,-15.468 7.678,-15.512C7.652,-15.556 7.622,-15.605 7.597,-15.649C7.509,-15.802 7.402,-15.953 7.363,-16.01C7.015,-16.479 6.709,-16.824 6.48,-17.059C6.326,-17.217 5.771,-17.706 5.572,-17.861C5.212,-18.139 4.848,-18.41 4.476,-18.648C3.29,-19.417 1.846,-20.056 0.984,-20.391C0.76,-20.478 0.33,-20.629 0.208,-20.675C0.15,-20.695 0.023,-20.735 -0.007,-20.753C-0.049,-20.784 -0.03,-20.8 0,-20.806" style="fill:rgb(174,213,192);fill-rule:nonzero;"/>
            </g>
        </g>
    </g>
</svg>
