<?xml version="1.0" encoding="UTF-8" standalone="no"?>
<!DOCTYPE svg PUBLIC "-//W3C//DTD SVG 1.1//EN" "http://www.w3.org/Graphics/SVG/1.1/DTD/svg11.dtd">
<svg width="100%" height="100%" viewBox="0 0 199 80" version="1.1" xmlns="http://www.w3.org/2000/svg" xmlns:xlink="http://www.w3.org/1999/xlink" xml:space="preserve" xmlns:serif="http://www.serif.com/" style="fill-rule:evenodd;clip-rule:evenodd;stroke-linejoin:round;stroke-miterlimit:2;">
    <g transform="matrix(1,0,0,1,-1433.94,-304.422)">
        <g transform="matrix(4.31328,-1.59206,1.48083,4.01193,209.143,513.511)">
            <g transform="matrix(0.932875,0.192136,-0.166226,0.932875,31.9672,-48.0473)">
                <g transform="matrix(1,2.77556e-17,-2.77556e-17,1.21013,283.544,78.6104)">
                    <path d="M0,-0.628C0,-0.628 1.534,-1.42 3.35,-1.655C5.692,-1.959 8.792,-1.232 8.874,-0.826C9.011,-0.136 6.106,1.331 3.211,0.83C1.544,0.542 0,-0.242 0,-0.628" style="fill:rgb(190,219,156);fill-rule:nonzero;"/>
                </g>
                <g transform="matrix(1,1.84889e-32,-1.84889e-32,1,292.438,77.4673)">
                    <path d="M0,0.13L2.338,-0.919L2.25,1.049L0,0.13Z" style="fill:rgb(190,219,156);fill-rule:nonzero;"/>
                </g>
                <g transform="matrix(1,1.84889e-32,-1.84889e-32,1,286.376,78.1173)">
                    <path d="M0,0.001C0,0.172 -0.139,0.311 -0.311,0.311C-0.482,0.311 -0.622,0.172 -0.622,0.001C-0.622,-0.171 -0.482,-0.31 -0.311,-0.31C-0.139,-0.31 0,-0.171 0,0.001" style="fill:rgb(230,241,213);fill-rule:nonzero;"/>
                </g>
            </g>
            <g transform="matrix(0.910503,0.25891,-0.223995,0.910503,33.6315,-74.8982)">
                <g transform="matrix(1,2.77556e-17,-2.77556e-17,1.21013,283.544,78.6104)">
                    <path d="M0,-0.628C0,-0.628 1.534,-1.42 3.35,-1.655C5.692,-1.959 8.792,-1.232 8.874,-0.826C9.011,-0.136 6.106,1.331 3.211,0.83C1.544,0.542 0,-0.242 0,-0.628" style="fill:rgb(210,230,186);fill-rule:nonzero;"/>
                </g>
                <g transform="matrix(1,1.84889e-32,-1.84889e-32,1,292.438,77.4673)">
                    <path d="M0,0.13L2.338,-0.919L2.25,1.049L0,0.13Z" style="fill:rgb(190,219,156);fill-rule:nonzero;"/>
                </g>
                <g transform="matrix(1,1.84889e-32,-1.84889e-32,1,286.376,78.1173)">
                    <path d="M0,0.001C0,0.172 -0.139,0.311 -0.311,0.311C-0.482,0.311 -0.622,0.172 -0.622,0.001C-0.622,-0.171 -0.482,-0.31 -0.311,-0.31C-0.139,-0.31 0,-0.171 0,0.001" style="fill:rgb(230,241,213);fill-rule:nonzero;"/>
                </g>
            </g>
            <g transform="matrix(0.983832,0.192545,-0.16658,0.983832,15.6549,-60.3848)">
                <g transform="matrix(1,8.32667e-17,-1.84889e-32,1.35076,295.863,73.9036)">
                    <path d="M0,-0.628C0,-0.628 1.534,-1.419 3.349,-1.655C5.691,-1.959 8.792,-1.232 8.873,-0.826C9.011,-0.135 6.105,1.331 3.211,0.83C1.543,0.542 0,-0.242 0,-0.628" style="fill:rgb(185,216,148);fill-rule:nonzero;"/>
                </g>
                <g transform="matrix(1,1.84889e-32,-1.84889e-32,1,304.769,72.5871)">
                    <path d="M0,0.132L2.338,-0.918L2.25,1.05L0,0.132Z" style="fill:rgb(185,216,148);fill-rule:nonzero;"/>
                </g>
                <g transform="matrix(1,1.84889e-32,-1.84889e-32,1,298.231,73.1877)">
                    <path d="M0,0C0,0.171 -0.139,0.311 -0.311,0.311C-0.482,0.311 -0.621,0.171 -0.621,0C-0.621,-0.172 -0.482,-0.311 -0.311,-0.311C-0.139,-0.311 0,-0.172 0,0" style="fill:rgb(223,237,200);fill-rule:nonzero;"/>
                </g>
            </g>
            <g transform="matrix(0.922178,0.244645,-0.211654,0.922178,6.47828,-81.1876)">
                <g transform="matrix(1,8.32667e-17,-1.84889e-32,1.35076,295.863,73.9036)">
                    <path d="M0,-0.628C0,-0.628 1.534,-1.419 3.349,-1.655C5.691,-1.959 8.792,-1.232 8.873,-0.826C9.011,-0.135 6.105,1.331 3.211,0.83C1.543,0.542 0,-0.242 0,-0.628" style="fill:rgb(185,216,148);fill-opacity:0.65;fill-rule:nonzero;"/>
                </g>
                <g transform="matrix(1,1.84889e-32,-1.84889e-32,1,304.769,72.5871)">
                    <path d="M0,0.132L2.338,-0.918L2.25,1.05L0,0.132Z" style="fill:rgb(210,229,186);fill-rule:nonzero;"/>
                </g>
                <g transform="matrix(1,1.84889e-32,-1.84889e-32,1,298.231,73.1877)">
                    <path d="M0,0C0,0.171 -0.139,0.311 -0.311,0.311C-0.482,0.311 -0.621,0.171 -0.621,0C-0.621,-0.172 -0.482,-0.311 -0.311,-0.311C-0.139,-0.311 0,-0.172 0,0" style="fill:rgb(223,237,200);fill-rule:nonzero;"/>
                </g>
            </g>
        </g>
    </g>
</svg>
