<?xml version="1.0" encoding="UTF-8" standalone="no"?>
<!DOCTYPE svg PUBLIC "-//W3C//DTD SVG 1.1//EN" "http://www.w3.org/Graphics/SVG/1.1/DTD/svg11.dtd">
<svg width="100%" height="100%" viewBox="0 0 381 233" version="1.1" xmlns="http://www.w3.org/2000/svg" xmlns:xlink="http://www.w3.org/1999/xlink" xml:space="preserve" xmlns:serif="http://www.serif.com/" style="fill-rule:evenodd;clip-rule:evenodd;stroke-linejoin:round;stroke-miterlimit:2;">
    <g transform="matrix(1,0,0,1,160.486,-4620.87)">
        <g transform="matrix(-1.75093,0,0,1.69416,318.846,4620.87)">
            <g transform="matrix(211.15,-135.883,-135.883,-211.15,63.0695,137.711)">
                <path d="M0.751,0.098C0.751,0.098 0.752,0.098 0.752,0.097C0.753,0.096 0.753,0.094 0.754,0.093C0.758,0.078 0.761,0.066 0.764,0.053C0.765,0.048 0.766,0.039 0.767,0.033C0.767,0.032 0.766,0.031 0.766,0.032C0.76,0.032 0.756,0.033 0.754,0.033C0.749,0.034 0.743,0.035 0.738,0.037C0.737,0.037 0.737,0.037 0.738,0.038C0.741,0.042 0.743,0.047 0.745,0.053C0.747,0.061 0.746,0.07 0.745,0.078C0.745,0.086 0.745,0.094 0.751,0.098ZM0.88,-0.014C0.889,-0.016 0.898,-0.019 0.907,-0.022C0.907,-0.022 0.907,-0.023 0.907,-0.023C0.905,-0.025 0.903,-0.027 0.902,-0.029C0.901,-0.029 0.9,-0.03 0.9,-0.029C0.895,-0.028 0.886,-0.025 0.882,-0.018C0.881,-0.017 0.88,-0.016 0.879,-0.015C0.879,-0.014 0.879,-0.014 0.88,-0.014ZM0.632,0.033C0.621,0.027 0.608,0.021 0.595,0.013C0.588,0.008 0.581,0.003 0.574,-0.003C0.574,-0.003 0.573,-0.003 0.573,-0.003C0.567,-0.002 0.562,-0.003 0.558,-0.004C0.547,-0.004 0.534,0.001 0.517,0.001L0.519,0.002C0.543,0.01 0.547,0.01 0.57,0.014C0.578,0.015 0.588,0.018 0.595,0.022C0.6,0.025 0.605,0.03 0.611,0.032C0.617,0.034 0.624,0.035 0.631,0.033C0.632,0.033 0.632,0.033 0.632,0.033ZM0.541,-0.03C0.541,-0.031 0.54,-0.031 0.54,-0.03C0.541,-0.029 0.542,-0.027 0.544,-0.026C0.548,-0.021 0.553,-0.017 0.559,-0.016C0.559,-0.016 0.56,-0.016 0.56,-0.016C0.554,-0.022 0.548,-0.027 0.541,-0.03ZM0.557,0.071C0.556,0.071 0.556,0.071 0.555,0.072C0.552,0.081 0.553,0.09 0.554,0.1C0.554,0.103 0.554,0.105 0.554,0.108C0.554,0.108 0.555,0.109 0.555,0.108C0.564,0.094 0.575,0.08 0.591,0.071C0.595,0.068 0.6,0.067 0.605,0.064C0.605,0.064 0.605,0.064 0.605,0.064C0.589,0.066 0.573,0.067 0.557,0.071ZM0.455,0.088L0.447,0.087C0.437,0.09 0.432,0.094 0.426,0.1C0.416,0.108 0.408,0.112 0.399,0.117C0.397,0.118 0.395,0.119 0.394,0.12C0.393,0.12 0.394,0.12 0.394,0.121C0.397,0.122 0.399,0.123 0.402,0.124C0.405,0.126 0.408,0.128 0.41,0.129C0.41,0.13 0.411,0.13 0.411,0.129C0.416,0.127 0.42,0.125 0.424,0.124C0.424,0.124 0.425,0.124 0.426,0.123C0.433,0.113 0.442,0.107 0.447,0.101C0.451,0.096 0.454,0.092 0.456,0.089C0.456,0.088 0.456,0.088 0.455,0.088ZM0.402,0.145C0.401,0.147 0.4,0.149 0.399,0.151C0.398,0.157 0.397,0.162 0.398,0.169C0.398,0.174 0.398,0.178 0.399,0.183L0.4,0.183C0.401,0.181 0.402,0.178 0.403,0.176C0.407,0.165 0.411,0.152 0.416,0.14C0.417,0.14 0.417,0.139 0.416,0.139C0.413,0.141 0.409,0.143 0.403,0.144C0.403,0.144 0.402,0.144 0.402,0.145ZM0.417,0.137C0.418,0.137 0.418,0.137 0.418,0.136L0.423,0.127C0.423,0.127 0.423,0.126 0.423,0.127C0.419,0.127 0.416,0.129 0.413,0.131C0.412,0.131 0.412,0.132 0.412,0.133C0.413,0.135 0.413,0.137 0.417,0.137ZM0.319,0.055L0.316,0.052C0.313,0.051 0.311,0.051 0.308,0.05L0.309,0.051C0.311,0.052 0.316,0.057 0.32,0.062C0.321,0.063 0.321,0.064 0.322,0.064C0.324,0.064 0.326,0.064 0.328,0.064C0.329,0.064 0.328,0.064 0.328,0.063C0.326,0.061 0.322,0.057 0.319,0.055ZM0.3,0.052C0.297,0.054 0.3,0.057 0.3,0.062C0.3,0.062 0.3,0.063 0.301,0.063C0.306,0.063 0.311,0.063 0.316,0.063C0.316,0.063 0.317,0.063 0.317,0.062C0.315,0.06 0.313,0.058 0.311,0.056C0.308,0.053 0.303,0.05 0.3,0.052ZM0.249,0.07C0.243,0.069 0.238,0.068 0.232,0.067C0.223,0.064 0.212,0.06 0.202,0.059C0.201,0.059 0.2,0.059 0.199,0.059C0.193,0.06 0.188,0.06 0.183,0.059C0.177,0.059 0.172,0.059 0.167,0.058C0.166,0.058 0.165,0.058 0.165,0.059C0.165,0.061 0.164,0.065 0.165,0.067C0.165,0.07 0.165,0.073 0.164,0.076C0.164,0.077 0.164,0.077 0.165,0.077C0.174,0.071 0.185,0.067 0.197,0.068C0.209,0.069 0.219,0.083 0.231,0.081C0.233,0.081 0.236,0.081 0.239,0.08C0.24,0.08 0.24,0.079 0.241,0.079C0.243,0.076 0.246,0.073 0.249,0.07C0.249,0.07 0.249,0.07 0.249,0.07ZM0.387,0.198C0.387,0.197 0.386,0.197 0.386,0.198C0.383,0.201 0.381,0.203 0.379,0.209C0.377,0.212 0.375,0.216 0.373,0.219C0.373,0.219 0.373,0.22 0.374,0.22C0.376,0.22 0.377,0.22 0.38,0.218C0.381,0.218 0.381,0.217 0.382,0.217C0.384,0.213 0.387,0.209 0.39,0.204C0.39,0.203 0.39,0.203 0.39,0.202L0.387,0.198ZM0.738,0.157C0.734,0.162 0.729,0.159 0.719,0.167C0.707,0.178 0.692,0.182 0.676,0.182C0.669,0.183 0.662,0.183 0.655,0.182C0.647,0.18 0.638,0.174 0.631,0.172C0.626,0.17 0.62,0.17 0.613,0.164C0.613,0.164 0.613,0.163 0.613,0.164C0.627,0.168 0.639,0.167 0.651,0.158C0.663,0.151 0.675,0.144 0.688,0.141C0.701,0.138 0.711,0.142 0.724,0.144C0.727,0.144 0.732,0.145 0.737,0.144C0.737,0.144 0.738,0.144 0.738,0.143C0.739,0.141 0.739,0.139 0.74,0.137C0.743,0.131 0.745,0.124 0.747,0.118C0.749,0.113 0.75,0.108 0.751,0.103C0.751,0.102 0.751,0.101 0.75,0.101C0.724,0.097 0.705,0.092 0.682,0.075C0.674,0.069 0.665,0.061 0.657,0.053C0.657,0.053 0.656,0.052 0.655,0.052C0.648,0.054 0.64,0.056 0.632,0.058C0.626,0.06 0.619,0.062 0.613,0.063C0.612,0.063 0.611,0.063 0.611,0.064C0.605,0.069 0.605,0.074 0.604,0.08C0.601,0.094 0.598,0.11 0.592,0.123C0.585,0.137 0.573,0.147 0.565,0.16C0.558,0.171 0.554,0.183 0.553,0.196C0.553,0.21 0.555,0.224 0.553,0.238C0.552,0.241 0.551,0.244 0.55,0.246C0.549,0.247 0.549,0.246 0.549,0.246C0.552,0.238 0.551,0.232 0.547,0.222C0.541,0.207 0.537,0.193 0.535,0.177C0.534,0.172 0.534,0.167 0.535,0.162C0.535,0.162 0.534,0.162 0.534,0.162C0.532,0.164 0.53,0.166 0.528,0.168C0.514,0.18 0.502,0.185 0.495,0.188C0.486,0.192 0.477,0.194 0.468,0.196C0.457,0.198 0.445,0.199 0.437,0.207C0.437,0.207 0.436,0.207 0.436,0.206C0.439,0.2 0.447,0.194 0.452,0.189C0.465,0.177 0.475,0.162 0.487,0.148C0.491,0.142 0.496,0.137 0.501,0.13C0.505,0.124 0.509,0.117 0.514,0.112C0.522,0.102 0.533,0.094 0.543,0.085C0.546,0.082 0.55,0.078 0.552,0.073C0.553,0.072 0.552,0.072 0.551,0.072C0.544,0.074 0.537,0.077 0.53,0.078C0.526,0.078 0.522,0.079 0.518,0.079C0.517,0.079 0.516,0.079 0.516,0.08C0.513,0.081 0.51,0.082 0.506,0.084C0.501,0.086 0.495,0.087 0.491,0.087C0.485,0.087 0.48,0.087 0.475,0.085C0.474,0.085 0.474,0.085 0.473,0.085C0.469,0.086 0.466,0.087 0.463,0.087C0.462,0.087 0.461,0.088 0.461,0.088C0.459,0.092 0.457,0.096 0.453,0.101C0.447,0.109 0.434,0.117 0.426,0.13C0.418,0.143 0.413,0.16 0.406,0.176C0.405,0.18 0.403,0.184 0.401,0.188C0.4,0.188 0.401,0.189 0.401,0.19C0.402,0.196 0.403,0.202 0.403,0.208C0.403,0.211 0.404,0.218 0.406,0.221C0.406,0.222 0.406,0.223 0.406,0.223C0.401,0.22 0.397,0.212 0.395,0.209C0.394,0.208 0.393,0.207 0.392,0.205C0.392,0.205 0.391,0.205 0.391,0.206C0.388,0.21 0.385,0.214 0.383,0.218C0.382,0.218 0.382,0.219 0.382,0.219C0.378,0.228 0.372,0.233 0.367,0.237C0.362,0.241 0.358,0.246 0.354,0.25C0.349,0.256 0.345,0.262 0.342,0.269C0.338,0.28 0.335,0.292 0.334,0.304C0.333,0.311 0.334,0.322 0.335,0.329C0.335,0.332 0.335,0.335 0.334,0.338C0.334,0.338 0.334,0.338 0.334,0.337C0.332,0.329 0.327,0.317 0.329,0.305C0.33,0.302 0.325,0.292 0.327,0.277C0.328,0.269 0.329,0.262 0.332,0.256C0.332,0.256 0.331,0.255 0.331,0.256C0.327,0.259 0.322,0.263 0.32,0.266C0.316,0.269 0.313,0.274 0.309,0.277C0.302,0.285 0.291,0.29 0.286,0.298C0.279,0.308 0.281,0.322 0.274,0.331C0.274,0.331 0.277,0.325 0.276,0.315C0.275,0.304 0.275,0.293 0.279,0.281C0.284,0.266 0.295,0.247 0.308,0.232C0.32,0.218 0.331,0.205 0.347,0.195C0.354,0.191 0.363,0.187 0.372,0.188C0.375,0.189 0.377,0.191 0.38,0.192C0.381,0.192 0.382,0.192 0.382,0.192C0.383,0.192 0.383,0.191 0.383,0.191C0.38,0.186 0.378,0.181 0.377,0.176C0.375,0.169 0.373,0.159 0.376,0.152C0.378,0.149 0.38,0.146 0.383,0.144C0.384,0.143 0.384,0.143 0.383,0.143C0.38,0.142 0.377,0.14 0.374,0.138C0.374,0.137 0.373,0.137 0.372,0.138C0.37,0.14 0.367,0.142 0.365,0.144C0.356,0.151 0.348,0.159 0.34,0.166C0.331,0.175 0.323,0.184 0.317,0.195C0.314,0.2 0.312,0.207 0.31,0.211C0.31,0.212 0.31,0.212 0.31,0.212C0.31,0.209 0.311,0.205 0.311,0.202C0.313,0.188 0.318,0.171 0.327,0.155C0.332,0.144 0.339,0.135 0.348,0.127C0.35,0.124 0.352,0.122 0.354,0.119C0.355,0.119 0.355,0.118 0.355,0.117C0.352,0.114 0.35,0.11 0.348,0.106C0.347,0.103 0.346,0.1 0.344,0.097C0.344,0.097 0.344,0.096 0.345,0.097C0.347,0.099 0.35,0.1 0.354,0.101C0.359,0.102 0.363,0.104 0.367,0.106C0.368,0.107 0.369,0.106 0.369,0.106C0.381,0.099 0.391,0.096 0.396,0.093C0.403,0.09 0.413,0.088 0.421,0.088C0.427,0.088 0.435,0.087 0.441,0.086C0.442,0.086 0.441,0.086 0.441,0.086C0.426,0.082 0.41,0.081 0.394,0.079C0.381,0.078 0.369,0.075 0.357,0.072C0.356,0.072 0.355,0.073 0.355,0.073C0.352,0.076 0.35,0.078 0.351,0.082C0.351,0.089 0.339,0.095 0.331,0.101C0.326,0.104 0.321,0.108 0.316,0.113C0.307,0.122 0.3,0.135 0.291,0.146C0.286,0.152 0.28,0.158 0.276,0.164C0.271,0.171 0.266,0.178 0.264,0.185C0.263,0.188 0.263,0.19 0.262,0.193C0.262,0.193 0.262,0.193 0.261,0.193C0.261,0.188 0.26,0.183 0.261,0.177C0.261,0.171 0.262,0.165 0.263,0.159C0.266,0.146 0.272,0.131 0.279,0.119C0.288,0.103 0.298,0.091 0.31,0.084C0.324,0.077 0.34,0.081 0.352,0.072C0.352,0.072 0.352,0.072 0.352,0.071C0.35,0.071 0.349,0.071 0.348,0.071C0.336,0.07 0.324,0.068 0.312,0.067C0.308,0.067 0.304,0.067 0.3,0.067L0.298,0.069C0.295,0.075 0.292,0.078 0.286,0.082C0.282,0.085 0.277,0.088 0.273,0.092C0.269,0.096 0.266,0.1 0.263,0.103C0.259,0.107 0.254,0.111 0.251,0.116C0.244,0.124 0.239,0.136 0.235,0.145C0.232,0.153 0.23,0.16 0.229,0.168C0.229,0.175 0.228,0.182 0.231,0.189C0.231,0.189 0.231,0.19 0.23,0.189C0.224,0.181 0.223,0.174 0.224,0.165C0.224,0.159 0.227,0.154 0.227,0.149C0.227,0.146 0.22,0.136 0.222,0.12C0.223,0.108 0.229,0.095 0.237,0.084C0.237,0.084 0.237,0.083 0.237,0.083C0.233,0.084 0.229,0.086 0.226,0.087C0.219,0.089 0.218,0.098 0.211,0.104C0.197,0.116 0.18,0.123 0.163,0.128C0.154,0.131 0.144,0.132 0.135,0.135C0.129,0.138 0.123,0.141 0.118,0.148C0.116,0.152 0.115,0.157 0.114,0.161C0.114,0.161 0.113,0.161 0.113,0.161C0.112,0.149 0.117,0.134 0.124,0.122C0.124,0.122 0.124,0.122 0.124,0.122C0.123,0.122 0.121,0.123 0.12,0.124C0.11,0.129 0.1,0.134 0.089,0.135C0.079,0.135 0.066,0.132 0.057,0.135C0.057,0.136 0.057,0.135 0.057,0.134C0.061,0.13 0.067,0.126 0.07,0.122C0.077,0.113 0.081,0.102 0.087,0.093C0.096,0.081 0.107,0.074 0.117,0.07C0.128,0.064 0.14,0.065 0.151,0.061C0.153,0.06 0.157,0.059 0.16,0.058C0.161,0.058 0.161,0.057 0.161,0.057C0.159,0.057 0.157,0.056 0.155,0.056C0.15,0.055 0.145,0.053 0.139,0.052L0.13,0.051C0.126,0.052 0.121,0.053 0.115,0.057C0.1,0.065 0.087,0.071 0.071,0.069C0.056,0.066 0.049,0.061 0.035,0.054C0.025,0.049 0.016,0.046 0.008,0.042C-0.002,0.036 -0.012,0.029 -0.018,0.019C-0.018,0.019 -0.017,0.019 -0.017,0.019C-0.004,0.028 0.007,0.017 0.021,0.014C0.029,0.012 0.037,0.012 0.046,0.012C0.068,0.013 0.09,0.018 0.107,0.034C0.113,0.04 0.117,0.047 0.13,0.049C0.131,0.049 0.131,0.05 0.132,0.049C0.137,0.049 0.146,0.051 0.148,0.052C0.154,0.053 0.16,0.054 0.166,0.055C0.166,0.055 0.166,0.055 0.166,0.055C0.157,0.052 0.15,0.046 0.143,0.039C0.134,0.031 0.127,0.021 0.121,0.011C0.117,0.006 0.114,0.001 0.111,-0.005C0.101,-0.021 0.093,-0.038 0.093,-0.056C0.093,-0.057 0.094,-0.057 0.094,-0.057C0.096,-0.051 0.098,-0.046 0.102,-0.041C0.106,-0.035 0.111,-0.029 0.116,-0.023C0.128,-0.011 0.141,0.005 0.153,0.017C0.158,0.022 0.163,0.027 0.167,0.032C0.171,0.036 0.176,0.039 0.18,0.043C0.183,0.046 0.187,0.05 0.191,0.052C0.193,0.053 0.195,0.055 0.197,0.055L0.207,0.057C0.218,0.059 0.229,0.063 0.24,0.065C0.244,0.065 0.248,0.066 0.253,0.066C0.253,0.066 0.254,0.066 0.254,0.066C0.258,0.062 0.261,0.059 0.266,0.056C0.266,0.056 0.266,0.055 0.265,0.055C0.259,0.055 0.252,0.054 0.244,0.052C0.235,0.05 0.222,0.045 0.215,0.041C0.206,0.036 0.197,0.028 0.187,0.028C0.184,0.028 0.181,0.029 0.178,0.03C0.178,0.031 0.177,0.03 0.177,0.03C0.18,0.026 0.184,0.024 0.188,0.022C0.199,0.015 0.212,0.012 0.226,0.012C0.238,0.012 0.262,0.006 0.281,0.01C0.281,0.01 0.281,0.009 0.281,0.009C0.274,0.007 0.267,0.004 0.261,-0.001C0.247,-0.013 0.232,-0.027 0.222,-0.048C0.215,-0.061 0.211,-0.076 0.212,-0.091C0.212,-0.092 0.209,-0.102 0.211,-0.109C0.211,-0.109 0.212,-0.109 0.212,-0.109C0.213,-0.102 0.216,-0.096 0.22,-0.089C0.226,-0.08 0.236,-0.069 0.245,-0.062C0.258,-0.052 0.27,-0.041 0.281,-0.025C0.282,-0.025 0.282,-0.025 0.282,-0.025C0.282,-0.027 0.282,-0.03 0.282,-0.032C0.283,-0.043 0.286,-0.057 0.295,-0.067C0.298,-0.072 0.299,-0.077 0.305,-0.083C0.305,-0.083 0.306,-0.083 0.305,-0.082C0.304,-0.078 0.303,-0.073 0.302,-0.07C0.301,-0.054 0.309,-0.041 0.312,-0.032C0.317,-0.014 0.315,-0.004 0.309,0.015C0.308,0.017 0.307,0.019 0.307,0.021L0.309,0.023C0.315,0.029 0.318,0.039 0.319,0.043C0.32,0.046 0.322,0.051 0.325,0.055L0.334,0.064L0.337,0.065C0.344,0.066 0.351,0.067 0.358,0.068C0.369,0.07 0.379,0.073 0.39,0.074C0.404,0.076 0.417,0.077 0.431,0.079C0.441,0.08 0.451,0.085 0.461,0.083C0.462,0.083 0.463,0.083 0.464,0.082C0.465,0.082 0.465,0.082 0.465,0.081C0.459,0.079 0.453,0.076 0.448,0.072C0.434,0.063 0.422,0.05 0.412,0.037C0.403,0.023 0.394,0.008 0.391,-0.008C0.391,-0.012 0.39,-0.017 0.391,-0.022C0.391,-0.022 0.391,-0.022 0.391,-0.021C0.391,-0.019 0.392,-0.015 0.396,-0.009C0.398,-0.005 0.402,-0.002 0.406,0.001C0.416,0.006 0.426,0.011 0.435,0.017C0.446,0.024 0.457,0.031 0.469,0.037C0.479,0.042 0.489,0.047 0.498,0.052C0.505,0.057 0.511,0.061 0.518,0.064C0.525,0.068 0.533,0.069 0.539,0.069C0.54,0.069 0.54,0.069 0.541,0.069C0.549,0.067 0.558,0.065 0.566,0.064C0.585,0.061 0.603,0.059 0.621,0.055C0.631,0.052 0.64,0.049 0.649,0.047C0.65,0.046 0.65,0.046 0.649,0.045C0.647,0.043 0.645,0.041 0.644,0.039C0.643,0.039 0.643,0.038 0.642,0.038C0.64,0.037 0.639,0.036 0.637,0.035C0.637,0.035 0.636,0.035 0.635,0.035C0.624,0.038 0.613,0.034 0.604,0.036C0.594,0.038 0.583,0.047 0.573,0.05C0.557,0.054 0.538,0.052 0.523,0.047C0.507,0.041 0.495,0.032 0.483,0.022C0.468,0.009 0.461,0.012 0.455,0.013C0.455,0.013 0.454,0.012 0.455,0.012C0.458,0.01 0.464,0.007 0.474,0.005C0.48,0.003 0.486,0.001 0.494,0C0.494,0 0.494,0 0.494,0C0.482,-0.002 0.473,-0.005 0.463,-0.009C0.45,-0.014 0.439,-0.021 0.43,-0.03C0.42,-0.039 0.413,-0.047 0.405,-0.058C0.399,-0.065 0.398,-0.071 0.39,-0.074C0.39,-0.075 0.39,-0.075 0.391,-0.075C0.397,-0.075 0.403,-0.071 0.407,-0.068C0.419,-0.06 0.43,-0.048 0.445,-0.042C0.459,-0.037 0.479,-0.037 0.496,-0.034C0.511,-0.03 0.527,-0.028 0.542,-0.02C0.553,-0.015 0.558,-0.002 0.571,-0.005C0.571,-0.005 0.571,-0.006 0.571,-0.006C0.569,-0.008 0.566,-0.01 0.564,-0.012C0.564,-0.013 0.563,-0.013 0.563,-0.013C0.555,-0.014 0.55,-0.017 0.543,-0.024C0.539,-0.027 0.534,-0.025 0.528,-0.031C0.525,-0.033 0.523,-0.036 0.521,-0.039C0.521,-0.04 0.52,-0.04 0.519,-0.041C0.51,-0.045 0.501,-0.048 0.493,-0.052C0.488,-0.053 0.483,-0.055 0.48,-0.056C0.471,-0.058 0.462,-0.056 0.452,-0.062C0.426,-0.079 0.414,-0.1 0.403,-0.127C0.395,-0.144 0.4,-0.167 0.408,-0.189C0.41,-0.197 0.409,-0.202 0.411,-0.21C0.412,-0.21 0.412,-0.21 0.412,-0.21C0.412,-0.202 0.413,-0.193 0.414,-0.186C0.416,-0.171 0.42,-0.155 0.426,-0.14C0.433,-0.123 0.442,-0.107 0.451,-0.092C0.458,-0.082 0.464,-0.073 0.473,-0.066C0.48,-0.061 0.486,-0.058 0.493,-0.055C0.496,-0.054 0.499,-0.053 0.501,-0.051L0.501,-0.053C0.492,-0.06 0.491,-0.071 0.49,-0.082C0.489,-0.092 0.49,-0.102 0.497,-0.111C0.5,-0.116 0.504,-0.122 0.509,-0.126C0.512,-0.128 0.514,-0.133 0.515,-0.137C0.515,-0.137 0.516,-0.137 0.516,-0.137C0.516,-0.134 0.516,-0.131 0.515,-0.128C0.513,-0.12 0.513,-0.114 0.512,-0.106C0.511,-0.097 0.511,-0.091 0.514,-0.082C0.515,-0.079 0.516,-0.074 0.518,-0.068C0.518,-0.068 0.519,-0.068 0.519,-0.069C0.525,-0.094 0.548,-0.114 0.567,-0.131C0.573,-0.135 0.579,-0.14 0.586,-0.141C0.586,-0.141 0.587,-0.141 0.586,-0.141C0.582,-0.138 0.578,-0.135 0.575,-0.131C0.573,-0.127 0.572,-0.123 0.57,-0.119C0.567,-0.11 0.563,-0.099 0.559,-0.091C0.552,-0.075 0.536,-0.054 0.538,-0.038C0.538,-0.037 0.539,-0.037 0.539,-0.036C0.56,-0.026 0.575,-0.006 0.594,0.005C0.607,0.014 0.62,0.02 0.631,0.026C0.631,0.026 0.631,0.025 0.631,0.025C0.615,0.007 0.603,-0.006 0.589,-0.019C0.582,-0.024 0.572,-0.026 0.566,-0.032C0.566,-0.032 0.566,-0.033 0.566,-0.033C0.568,-0.033 0.57,-0.033 0.572,-0.033C0.578,-0.033 0.585,-0.034 0.592,-0.034C0.613,-0.035 0.633,-0.029 0.652,-0.021C0.68,-0.011 0.707,0.005 0.728,0.026C0.729,0.028 0.731,0.029 0.732,0.031C0.733,0.031 0.733,0.032 0.734,0.032C0.735,0.031 0.737,0.031 0.739,0.03C0.749,0.027 0.759,0.025 0.769,0.024C0.78,0.022 0.789,0.018 0.799,0.014C0.802,0.012 0.805,0.011 0.808,0.01C0.809,0.009 0.809,0.009 0.81,0.008C0.812,0.002 0.815,-0.004 0.819,-0.009C0.826,-0.019 0.84,-0.027 0.857,-0.029C0.875,-0.031 0.879,-0.03 0.897,-0.033C0.897,-0.033 0.897,-0.034 0.897,-0.034C0.892,-0.039 0.888,-0.044 0.885,-0.047C0.881,-0.053 0.877,-0.059 0.873,-0.064C0.873,-0.065 0.872,-0.065 0.871,-0.065C0.865,-0.067 0.86,-0.068 0.854,-0.07C0.854,-0.07 0.853,-0.07 0.853,-0.07C0.852,-0.069 0.851,-0.068 0.851,-0.067C0.84,-0.051 0.823,-0.039 0.804,-0.034C0.782,-0.029 0.758,-0.033 0.736,-0.035C0.718,-0.036 0.701,-0.036 0.685,-0.042C0.68,-0.044 0.674,-0.047 0.669,-0.049C0.662,-0.052 0.658,-0.052 0.653,-0.051C0.652,-0.051 0.652,-0.052 0.653,-0.052C0.658,-0.056 0.667,-0.057 0.674,-0.057C0.696,-0.057 0.715,-0.068 0.735,-0.074C0.753,-0.08 0.775,-0.082 0.794,-0.083C0.815,-0.084 0.824,-0.08 0.836,-0.078C0.836,-0.078 0.837,-0.078 0.836,-0.079C0.822,-0.087 0.809,-0.098 0.797,-0.109C0.789,-0.118 0.778,-0.127 0.772,-0.138C0.772,-0.138 0.772,-0.139 0.772,-0.139C0.782,-0.129 0.794,-0.124 0.807,-0.122C0.808,-0.122 0.808,-0.123 0.808,-0.124C0.808,-0.125 0.808,-0.125 0.807,-0.126C0.805,-0.128 0.804,-0.129 0.803,-0.13C0.8,-0.134 0.797,-0.141 0.792,-0.149C0.792,-0.149 0.792,-0.149 0.792,-0.149C0.788,-0.154 0.783,-0.158 0.777,-0.161C0.777,-0.161 0.776,-0.162 0.775,-0.162C0.773,-0.161 0.77,-0.16 0.769,-0.16C0.762,-0.158 0.757,-0.151 0.751,-0.146C0.74,-0.136 0.724,-0.131 0.71,-0.127C0.695,-0.124 0.676,-0.124 0.662,-0.129C0.649,-0.134 0.632,-0.142 0.626,-0.155C0.624,-0.158 0.621,-0.161 0.62,-0.164C0.619,-0.166 0.618,-0.168 0.619,-0.171C0.619,-0.172 0.619,-0.171 0.62,-0.171C0.621,-0.165 0.625,-0.162 0.631,-0.161C0.636,-0.16 0.641,-0.163 0.646,-0.164C0.654,-0.167 0.662,-0.17 0.67,-0.173C0.685,-0.178 0.7,-0.181 0.716,-0.182C0.731,-0.182 0.742,-0.175 0.754,-0.168C0.759,-0.165 0.766,-0.164 0.772,-0.164C0.772,-0.164 0.772,-0.164 0.772,-0.164C0.768,-0.167 0.764,-0.17 0.761,-0.172C0.755,-0.177 0.752,-0.183 0.749,-0.19C0.749,-0.191 0.748,-0.191 0.747,-0.191C0.741,-0.19 0.734,-0.19 0.724,-0.193C0.711,-0.196 0.704,-0.206 0.698,-0.216C0.691,-0.227 0.685,-0.24 0.683,-0.251C0.682,-0.255 0.682,-0.259 0.681,-0.263C0.681,-0.264 0.681,-0.264 0.682,-0.263C0.684,-0.26 0.687,-0.257 0.691,-0.256C0.701,-0.25 0.708,-0.243 0.716,-0.236C0.724,-0.228 0.732,-0.221 0.741,-0.214C0.741,-0.214 0.742,-0.214 0.742,-0.215C0.739,-0.228 0.738,-0.242 0.742,-0.255C0.746,-0.272 0.755,-0.287 0.762,-0.303C0.766,-0.314 0.771,-0.33 0.777,-0.338C0.777,-0.338 0.778,-0.337 0.777,-0.337C0.775,-0.331 0.775,-0.324 0.775,-0.318C0.776,-0.303 0.779,-0.287 0.778,-0.272C0.778,-0.255 0.782,-0.235 0.785,-0.217C0.787,-0.199 0.788,-0.185 0.787,-0.167C0.787,-0.162 0.788,-0.158 0.79,-0.154C0.792,-0.153 0.793,-0.151 0.794,-0.15C0.798,-0.143 0.803,-0.136 0.805,-0.132L0.807,-0.131C0.807,-0.149 0.818,-0.163 0.828,-0.177C0.833,-0.183 0.842,-0.192 0.848,-0.198C0.85,-0.199 0.854,-0.206 0.854,-0.212C0.854,-0.213 0.855,-0.213 0.855,-0.212C0.857,-0.205 0.855,-0.195 0.852,-0.188C0.847,-0.173 0.842,-0.16 0.839,-0.143C0.838,-0.136 0.836,-0.13 0.835,-0.123C0.835,-0.122 0.835,-0.122 0.836,-0.122C0.841,-0.122 0.846,-0.122 0.852,-0.123C0.873,-0.124 0.895,-0.126 0.917,-0.125L0.957,-0.063C0.946,-0.06 0.935,-0.06 0.922,-0.06C0.908,-0.061 0.894,-0.062 0.88,-0.064C0.88,-0.064 0.879,-0.063 0.88,-0.063C0.881,-0.061 0.883,-0.059 0.884,-0.057C0.891,-0.048 0.905,-0.031 0.915,-0.026C0.916,-0.025 0.916,-0.025 0.917,-0.025C0.934,-0.032 0.952,-0.038 0.969,-0.045L0.973,-0.039C0.94,-0.027 0.908,-0.016 0.875,-0.005C0.874,-0.005 0.874,-0.005 0.873,-0.004C0.872,-0.003 0.872,-0.001 0.871,0C0.863,0.012 0.85,0.026 0.843,0.041C0.837,0.053 0.831,0.066 0.827,0.077C0.82,0.097 0.814,0.101 0.817,0.117C0.818,0.12 0.818,0.123 0.819,0.125L0.818,0.126C0.816,0.124 0.815,0.121 0.814,0.119C0.811,0.112 0.809,0.106 0.807,0.099C0.807,0.098 0.807,0.097 0.807,0.097C0.798,0.075 0.799,0.044 0.806,0.019C0.806,0.018 0.806,0.018 0.806,0.018L0.786,0.026C0.782,0.028 0.779,0.029 0.776,0.03C0.775,0.03 0.775,0.03 0.774,0.031C0.771,0.041 0.769,0.055 0.768,0.065C0.766,0.073 0.763,0.08 0.76,0.088C0.757,0.098 0.755,0.108 0.753,0.117C0.749,0.131 0.746,0.145 0.738,0.157Z" style="fill:rgb(152,195,32);fill-rule:nonzero;"/>
            </g>
        </g>
    </g>
</svg>
