<?xml version="1.0" encoding="UTF-8" standalone="no"?>
<!DOCTYPE svg PUBLIC "-//W3C//DTD SVG 1.1//EN" "http://www.w3.org/Graphics/SVG/1.1/DTD/svg11.dtd">
<svg width="100%" height="100%" viewBox="0 0 13 6" version="1.1" xmlns="http://www.w3.org/2000/svg" xmlns:xlink="http://www.w3.org/1999/xlink" xml:space="preserve" xmlns:serif="http://www.serif.com/" style="fill-rule:evenodd;clip-rule:evenodd;stroke-linejoin:round;stroke-miterlimit:2;">
    <g transform="matrix(1,0,0,1,-13.2233,-4.82331)">
        <g transform="matrix(0.548769,0,0,0.548769,20.7679,3.0966)">
            <path d="M0,3.743C1.899,3.176 7.73,7.37 5.253,8.26C5.253,8.26 10.044,6.029 8.857,8.396C8.095,9.925 7.459,11.108 6.648,11.026C4.034,10.747 3.349,11.973 -0.089,12.804C-2.186,13.313 -7.36,12.936 -11.148,10.982C-9.638,10.217 -9.645,9.094 -7.869,8.847C-21.507,1.87 -7.594,2.858 -4.28,3.833C-2.77,4.277 -1.363,4.147 0,3.743" style="fill:rgb(200,162,221);fill-rule:nonzero;"/>
        </g>
    </g>
</svg>
